G04 #@! TF.GenerationSoftware,KiCad,Pcbnew,(5.1.0-1348-g4ca769472)*
G04 #@! TF.CreationDate,2021-05-22T02:12:44-07:00*
G04 #@! TF.ProjectId,loggerhw_v4.2,6c6f6767-6572-4687-975f-76342e322e6b,rev?*
G04 #@! TF.SameCoordinates,Original*
G04 #@! TF.FileFunction,Legend,Bot*
G04 #@! TF.FilePolarity,Positive*
%FSLAX46Y46*%
G04 Gerber Fmt 4.6, Leading zero omitted, Abs format (unit mm)*
G04 Created by KiCad (PCBNEW (5.1.0-1348-g4ca769472)) date 2021-05-22 02:12:44*
%MOMM*%
%LPD*%
G04 APERTURE LIST*
%ADD10C,0.100000*%
%ADD11C,0.150000*%
G04 APERTURE END LIST*
D10*
X107950000Y-114046000D02*
X107950000Y-115570000D01*
X105664000Y-114046000D02*
X107950000Y-114046000D01*
X105664000Y-115570000D02*
X105664000Y-114046000D01*
X107950000Y-115570000D02*
X100838000Y-115570000D01*
X122936000Y-114046000D02*
X122936000Y-115570000D01*
X124968000Y-114046000D02*
X122936000Y-114046000D01*
X124968000Y-115570000D02*
X124968000Y-114046000D01*
X118110000Y-115570000D02*
X124968000Y-115570000D01*
D11*
X124185333Y-114424666D02*
X124185333Y-114924666D01*
X124218666Y-115024666D01*
X124285333Y-115091333D01*
X124385333Y-115124666D01*
X124452000Y-115124666D01*
X123918666Y-114424666D02*
X123485333Y-114424666D01*
X123718666Y-114691333D01*
X123618666Y-114691333D01*
X123552000Y-114724666D01*
X123518666Y-114758000D01*
X123485333Y-114824666D01*
X123485333Y-114991333D01*
X123518666Y-115058000D01*
X123552000Y-115091333D01*
X123618666Y-115124666D01*
X123818666Y-115124666D01*
X123885333Y-115091333D01*
X123918666Y-115058000D01*
X107167333Y-114424666D02*
X107167333Y-114924666D01*
X107200666Y-115024666D01*
X107267333Y-115091333D01*
X107367333Y-115124666D01*
X107434000Y-115124666D01*
X106867333Y-114491333D02*
X106834000Y-114458000D01*
X106767333Y-114424666D01*
X106600666Y-114424666D01*
X106534000Y-114458000D01*
X106500666Y-114491333D01*
X106467333Y-114558000D01*
X106467333Y-114624666D01*
X106500666Y-114724666D01*
X106900666Y-115124666D01*
X106467333Y-115124666D01*
D10*
X113538000Y-100584000D02*
G75*
G03X113538000Y-100584000I-254000J0D01*
G01*
X127254000Y-100584000D02*
G75*
G03X127254000Y-100584000I-254000J0D01*
G01*
D11*
X115124666Y-101610166D02*
X114424666Y-101610166D01*
X114424666Y-101876833D01*
X114458000Y-101943500D01*
X114491333Y-101976833D01*
X114558000Y-102010166D01*
X114658000Y-102010166D01*
X114724666Y-101976833D01*
X114758000Y-101943500D01*
X114791333Y-101876833D01*
X114791333Y-101610166D01*
X114424666Y-102243500D02*
X114424666Y-102676833D01*
X114691333Y-102443500D01*
X114691333Y-102543500D01*
X114724666Y-102610166D01*
X114758000Y-102643500D01*
X114824666Y-102676833D01*
X114991333Y-102676833D01*
X115058000Y-102643500D01*
X115091333Y-102610166D01*
X115124666Y-102543500D01*
X115124666Y-102343500D01*
X115091333Y-102276833D01*
X115058000Y-102243500D01*
X115124666Y-103343500D02*
X115124666Y-102943500D01*
X115124666Y-103143500D02*
X114424666Y-103143500D01*
X114524666Y-103076833D01*
X114591333Y-103010166D01*
X114624666Y-102943500D01*
X116648666Y-101610166D02*
X115948666Y-101610166D01*
X115948666Y-101876833D01*
X115982000Y-101943500D01*
X116015333Y-101976833D01*
X116082000Y-102010166D01*
X116182000Y-102010166D01*
X116248666Y-101976833D01*
X116282000Y-101943500D01*
X116315333Y-101876833D01*
X116315333Y-101610166D01*
X115948666Y-102243500D02*
X115948666Y-102676833D01*
X116215333Y-102443500D01*
X116215333Y-102543500D01*
X116248666Y-102610166D01*
X116282000Y-102643500D01*
X116348666Y-102676833D01*
X116515333Y-102676833D01*
X116582000Y-102643500D01*
X116615333Y-102610166D01*
X116648666Y-102543500D01*
X116648666Y-102343500D01*
X116615333Y-102276833D01*
X116582000Y-102243500D01*
X115948666Y-103110166D02*
X115948666Y-103176833D01*
X115982000Y-103243500D01*
X116015333Y-103276833D01*
X116082000Y-103310166D01*
X116215333Y-103343500D01*
X116382000Y-103343500D01*
X116515333Y-103310166D01*
X116582000Y-103276833D01*
X116615333Y-103243500D01*
X116648666Y-103176833D01*
X116648666Y-103110166D01*
X116615333Y-103043500D01*
X116582000Y-103010166D01*
X116515333Y-102976833D01*
X116382000Y-102943500D01*
X116215333Y-102943500D01*
X116082000Y-102976833D01*
X116015333Y-103010166D01*
X115982000Y-103043500D01*
X115948666Y-103110166D01*
D10*
G36*
X115316000Y-101092000D02*
G01*
X114300000Y-101092000D01*
X114300000Y-100076000D01*
X115316000Y-100076000D01*
X115316000Y-101092000D01*
G37*
X115316000Y-101092000D02*
X114300000Y-101092000D01*
X114300000Y-100076000D01*
X115316000Y-100076000D01*
X115316000Y-101092000D01*
G36*
X116840000Y-101092000D02*
G01*
X115824000Y-101092000D01*
X115824000Y-100076000D01*
X116840000Y-100076000D01*
X116840000Y-101092000D01*
G37*
X116840000Y-101092000D02*
X115824000Y-101092000D01*
X115824000Y-100076000D01*
X116840000Y-100076000D01*
X116840000Y-101092000D01*
G36*
X118364000Y-101092000D02*
G01*
X117348000Y-101092000D01*
X117348000Y-100076000D01*
X118364000Y-100076000D01*
X118364000Y-101092000D01*
G37*
X118364000Y-101092000D02*
X117348000Y-101092000D01*
X117348000Y-100076000D01*
X118364000Y-100076000D01*
X118364000Y-101092000D01*
G36*
X119888000Y-101092000D02*
G01*
X118872000Y-101092000D01*
X118872000Y-100076000D01*
X119888000Y-100076000D01*
X119888000Y-101092000D01*
G37*
X119888000Y-101092000D02*
X118872000Y-101092000D01*
X118872000Y-100076000D01*
X119888000Y-100076000D01*
X119888000Y-101092000D01*
G36*
X121412000Y-101092000D02*
G01*
X120396000Y-101092000D01*
X120396000Y-100076000D01*
X121412000Y-100076000D01*
X121412000Y-101092000D01*
G37*
X121412000Y-101092000D02*
X120396000Y-101092000D01*
X120396000Y-100076000D01*
X121412000Y-100076000D01*
X121412000Y-101092000D01*
G36*
X122936000Y-101092000D02*
G01*
X121920000Y-101092000D01*
X121920000Y-100076000D01*
X122936000Y-100076000D01*
X122936000Y-101092000D01*
G37*
X122936000Y-101092000D02*
X121920000Y-101092000D01*
X121920000Y-100076000D01*
X122936000Y-100076000D01*
X122936000Y-101092000D01*
G36*
X124460000Y-101092000D02*
G01*
X123444000Y-101092000D01*
X123444000Y-100076000D01*
X124460000Y-100076000D01*
X124460000Y-101092000D01*
G37*
X124460000Y-101092000D02*
X123444000Y-101092000D01*
X123444000Y-100076000D01*
X124460000Y-100076000D01*
X124460000Y-101092000D01*
G36*
X125984000Y-101092000D02*
G01*
X124968000Y-101092000D01*
X124968000Y-100076000D01*
X125984000Y-100076000D01*
X125984000Y-101092000D01*
G37*
X125984000Y-101092000D02*
X124968000Y-101092000D01*
X124968000Y-100076000D01*
X125984000Y-100076000D01*
X125984000Y-101092000D01*
D11*
X124235333Y-101576833D02*
X124268666Y-101676833D01*
X124268666Y-101843500D01*
X124235333Y-101910166D01*
X124202000Y-101943500D01*
X124135333Y-101976833D01*
X124068666Y-101976833D01*
X124002000Y-101943500D01*
X123968666Y-101910166D01*
X123935333Y-101843500D01*
X123902000Y-101710166D01*
X123868666Y-101643500D01*
X123835333Y-101610166D01*
X123768666Y-101576833D01*
X123702000Y-101576833D01*
X123635333Y-101610166D01*
X123602000Y-101643500D01*
X123568666Y-101710166D01*
X123568666Y-101876833D01*
X123602000Y-101976833D01*
X123568666Y-102210166D02*
X124268666Y-102376833D01*
X123768666Y-102510166D01*
X124268666Y-102643500D01*
X123568666Y-102810166D01*
X123568666Y-103210166D02*
X123568666Y-103343500D01*
X123602000Y-103410166D01*
X123668666Y-103476833D01*
X123802000Y-103510166D01*
X124035333Y-103510166D01*
X124168666Y-103476833D01*
X124235333Y-103410166D01*
X124268666Y-103343500D01*
X124268666Y-103210166D01*
X124235333Y-103143500D01*
X124168666Y-103076833D01*
X124035333Y-103043500D01*
X123802000Y-103043500D01*
X123668666Y-103076833D01*
X123602000Y-103143500D01*
X123568666Y-103210166D01*
X122744666Y-102010166D02*
X122411333Y-101776833D01*
X122744666Y-101610166D02*
X122044666Y-101610166D01*
X122044666Y-101876833D01*
X122078000Y-101943500D01*
X122111333Y-101976833D01*
X122178000Y-102010166D01*
X122278000Y-102010166D01*
X122344666Y-101976833D01*
X122378000Y-101943500D01*
X122411333Y-101876833D01*
X122411333Y-101610166D01*
X122711333Y-102276833D02*
X122744666Y-102376833D01*
X122744666Y-102543500D01*
X122711333Y-102610166D01*
X122678000Y-102643500D01*
X122611333Y-102676833D01*
X122544666Y-102676833D01*
X122478000Y-102643500D01*
X122444666Y-102610166D01*
X122411333Y-102543500D01*
X122378000Y-102410166D01*
X122344666Y-102343500D01*
X122311333Y-102310166D01*
X122244666Y-102276833D01*
X122178000Y-102276833D01*
X122111333Y-102310166D01*
X122078000Y-102343500D01*
X122044666Y-102410166D01*
X122044666Y-102576833D01*
X122078000Y-102676833D01*
X122044666Y-102876833D02*
X122044666Y-103276833D01*
X122744666Y-103076833D02*
X122044666Y-103076833D01*
X119663333Y-101576833D02*
X119696666Y-101676833D01*
X119696666Y-101843500D01*
X119663333Y-101910166D01*
X119630000Y-101943500D01*
X119563333Y-101976833D01*
X119496666Y-101976833D01*
X119430000Y-101943500D01*
X119396666Y-101910166D01*
X119363333Y-101843500D01*
X119330000Y-101710166D01*
X119296666Y-101643500D01*
X119263333Y-101610166D01*
X119196666Y-101576833D01*
X119130000Y-101576833D01*
X119063333Y-101610166D01*
X119030000Y-101643500D01*
X118996666Y-101710166D01*
X118996666Y-101876833D01*
X119030000Y-101976833D01*
X118996666Y-102210166D02*
X119696666Y-102376833D01*
X119196666Y-102510166D01*
X119696666Y-102643500D01*
X118996666Y-102810166D01*
X119696666Y-103076833D02*
X118996666Y-103076833D01*
X118996666Y-103243500D01*
X119030000Y-103343500D01*
X119096666Y-103410166D01*
X119163333Y-103443500D01*
X119296666Y-103476833D01*
X119396666Y-103476833D01*
X119530000Y-103443500D01*
X119596666Y-103410166D01*
X119663333Y-103343500D01*
X119696666Y-103243500D01*
X119696666Y-103076833D01*
X119696666Y-103776833D02*
X118996666Y-103776833D01*
X118996666Y-104243500D02*
X118996666Y-104376833D01*
X119030000Y-104443500D01*
X119096666Y-104510166D01*
X119230000Y-104543500D01*
X119463333Y-104543500D01*
X119596666Y-104510166D01*
X119663333Y-104443500D01*
X119696666Y-104376833D01*
X119696666Y-104243500D01*
X119663333Y-104176833D01*
X119596666Y-104110166D01*
X119463333Y-104076833D01*
X119230000Y-104076833D01*
X119096666Y-104110166D01*
X119030000Y-104176833D01*
X118996666Y-104243500D01*
X121187333Y-101576833D02*
X121220666Y-101676833D01*
X121220666Y-101843500D01*
X121187333Y-101910166D01*
X121154000Y-101943500D01*
X121087333Y-101976833D01*
X121020666Y-101976833D01*
X120954000Y-101943500D01*
X120920666Y-101910166D01*
X120887333Y-101843500D01*
X120854000Y-101710166D01*
X120820666Y-101643500D01*
X120787333Y-101610166D01*
X120720666Y-101576833D01*
X120654000Y-101576833D01*
X120587333Y-101610166D01*
X120554000Y-101643500D01*
X120520666Y-101710166D01*
X120520666Y-101876833D01*
X120554000Y-101976833D01*
X120520666Y-102210166D02*
X121220666Y-102376833D01*
X120720666Y-102510166D01*
X121220666Y-102643500D01*
X120520666Y-102810166D01*
X121154000Y-103476833D02*
X121187333Y-103443500D01*
X121220666Y-103343500D01*
X121220666Y-103276833D01*
X121187333Y-103176833D01*
X121120666Y-103110166D01*
X121054000Y-103076833D01*
X120920666Y-103043500D01*
X120820666Y-103043500D01*
X120687333Y-103076833D01*
X120620666Y-103110166D01*
X120554000Y-103176833D01*
X120520666Y-103276833D01*
X120520666Y-103343500D01*
X120554000Y-103443500D01*
X120587333Y-103476833D01*
X121220666Y-104110166D02*
X121220666Y-103776833D01*
X120520666Y-103776833D01*
X121220666Y-104343500D02*
X120520666Y-104343500D01*
X121220666Y-104743500D02*
X120820666Y-104443500D01*
X120520666Y-104743500D02*
X120920666Y-104343500D01*
X125426000Y-101843500D02*
X125459333Y-101943500D01*
X125492666Y-101976833D01*
X125559333Y-102010166D01*
X125659333Y-102010166D01*
X125726000Y-101976833D01*
X125759333Y-101943500D01*
X125792666Y-101876833D01*
X125792666Y-101610166D01*
X125092666Y-101610166D01*
X125092666Y-101843500D01*
X125126000Y-101910166D01*
X125159333Y-101943500D01*
X125226000Y-101976833D01*
X125292666Y-101976833D01*
X125359333Y-101943500D01*
X125392666Y-101910166D01*
X125426000Y-101843500D01*
X125426000Y-101610166D01*
X125592666Y-102276833D02*
X125592666Y-102610166D01*
X125792666Y-102210166D02*
X125092666Y-102443500D01*
X125792666Y-102676833D01*
X125092666Y-102810166D02*
X125092666Y-103210166D01*
X125792666Y-103010166D02*
X125092666Y-103010166D01*
X125092666Y-103343500D02*
X125092666Y-103743500D01*
X125792666Y-103543500D02*
X125092666Y-103543500D01*
X117506000Y-101976833D02*
X117472666Y-101910166D01*
X117472666Y-101810166D01*
X117506000Y-101710166D01*
X117572666Y-101643500D01*
X117639333Y-101610166D01*
X117772666Y-101576833D01*
X117872666Y-101576833D01*
X118006000Y-101610166D01*
X118072666Y-101643500D01*
X118139333Y-101710166D01*
X118172666Y-101810166D01*
X118172666Y-101876833D01*
X118139333Y-101976833D01*
X118106000Y-102010166D01*
X117872666Y-102010166D01*
X117872666Y-101876833D01*
X118172666Y-102310166D02*
X117472666Y-102310166D01*
X118172666Y-102710166D01*
X117472666Y-102710166D01*
X118172666Y-103043500D02*
X117472666Y-103043500D01*
X117472666Y-103210166D01*
X117506000Y-103310166D01*
X117572666Y-103376833D01*
X117639333Y-103410166D01*
X117772666Y-103443500D01*
X117872666Y-103443500D01*
X118006000Y-103410166D01*
X118072666Y-103376833D01*
X118139333Y-103310166D01*
X118172666Y-103210166D01*
X118172666Y-103043500D01*
X109855142Y-119546714D02*
X112140857Y-119546714D01*
X110998000Y-118403857D02*
X110998000Y-120689571D01*
X109855142Y-142660714D02*
X112140857Y-142660714D01*
X123825142Y-142660714D02*
X126110857Y-142660714D01*
X124968000Y-141517857D02*
X124968000Y-143803571D01*
D10*
G36*
X130937000Y-131191000D02*
G01*
X129667000Y-131191000D01*
X129667000Y-131826000D01*
X128397000Y-131826000D01*
X128397000Y-131191000D01*
X127127000Y-131191000D01*
X127127000Y-121666000D01*
X130937000Y-121666000D01*
X130937000Y-131191000D01*
G37*
X130937000Y-131191000D02*
X129667000Y-131191000D01*
X129667000Y-131826000D01*
X128397000Y-131826000D01*
X128397000Y-131191000D01*
X127127000Y-131191000D01*
X127127000Y-121666000D01*
X130937000Y-121666000D01*
X130937000Y-131191000D01*
G36*
X111633000Y-122301000D02*
G01*
X112903000Y-122301000D01*
X112903000Y-131826000D01*
X109093000Y-131826000D01*
X109093000Y-122301000D01*
X110363000Y-122301000D01*
X110363000Y-121666000D01*
X111633000Y-121666000D01*
X111633000Y-122301000D01*
G37*
X111633000Y-122301000D02*
X112903000Y-122301000D01*
X112903000Y-131826000D01*
X109093000Y-131826000D01*
X109093000Y-122301000D01*
X110363000Y-122301000D01*
X110363000Y-121666000D01*
X111633000Y-121666000D01*
X111633000Y-122301000D01*
X106396266Y-160676066D02*
X106729600Y-160676066D01*
X106729600Y-159976066D01*
X106029600Y-159976066D02*
X105896266Y-159976066D01*
X105829600Y-160009400D01*
X105762933Y-160076066D01*
X105729600Y-160209400D01*
X105729600Y-160442733D01*
X105762933Y-160576066D01*
X105829600Y-160642733D01*
X105896266Y-160676066D01*
X106029600Y-160676066D01*
X106096266Y-160642733D01*
X106162933Y-160576066D01*
X106196266Y-160442733D01*
X106196266Y-160209400D01*
X106162933Y-160076066D01*
X106096266Y-160009400D01*
X106029600Y-159976066D01*
X105062933Y-160009400D02*
X105129600Y-159976066D01*
X105229600Y-159976066D01*
X105329600Y-160009400D01*
X105396266Y-160076066D01*
X105429600Y-160142733D01*
X105462933Y-160276066D01*
X105462933Y-160376066D01*
X105429600Y-160509400D01*
X105396266Y-160576066D01*
X105329600Y-160642733D01*
X105229600Y-160676066D01*
X105162933Y-160676066D01*
X105062933Y-160642733D01*
X105029600Y-160609400D01*
X105029600Y-160376066D01*
X105162933Y-160376066D01*
X104362933Y-160009400D02*
X104429600Y-159976066D01*
X104529600Y-159976066D01*
X104629600Y-160009400D01*
X104696266Y-160076066D01*
X104729600Y-160142733D01*
X104762933Y-160276066D01*
X104762933Y-160376066D01*
X104729600Y-160509400D01*
X104696266Y-160576066D01*
X104629600Y-160642733D01*
X104529600Y-160676066D01*
X104462933Y-160676066D01*
X104362933Y-160642733D01*
X104329600Y-160609400D01*
X104329600Y-160376066D01*
X104462933Y-160376066D01*
X104029600Y-160309400D02*
X103796266Y-160309400D01*
X103696266Y-160676066D02*
X104029600Y-160676066D01*
X104029600Y-159976066D01*
X103696266Y-159976066D01*
X102996266Y-160676066D02*
X103229600Y-160342733D01*
X103396266Y-160676066D02*
X103396266Y-159976066D01*
X103129600Y-159976066D01*
X103062933Y-160009400D01*
X103029600Y-160042733D01*
X102996266Y-160109400D01*
X102996266Y-160209400D01*
X103029600Y-160276066D01*
X103062933Y-160309400D01*
X103129600Y-160342733D01*
X103396266Y-160342733D01*
X102262933Y-159976066D02*
X102029600Y-160676066D01*
X101796266Y-159976066D01*
X101262933Y-160209400D02*
X101262933Y-160676066D01*
X101429600Y-159942733D02*
X101596266Y-160442733D01*
X101162933Y-160442733D01*
X100896266Y-160609400D02*
X100862933Y-160642733D01*
X100896266Y-160676066D01*
X100929600Y-160642733D01*
X100896266Y-160609400D01*
X100896266Y-160676066D01*
X100596266Y-160042733D02*
X100562933Y-160009400D01*
X100496266Y-159976066D01*
X100329600Y-159976066D01*
X100262933Y-160009400D01*
X100229600Y-160042733D01*
X100196266Y-160109400D01*
X100196266Y-160176066D01*
X100229600Y-160276066D01*
X100629600Y-160676066D01*
X100196266Y-160676066D01*
X106579600Y-161126066D02*
X106512933Y-161126066D01*
X106446266Y-161159400D01*
X106412933Y-161192733D01*
X106379600Y-161259400D01*
X106346266Y-161392733D01*
X106346266Y-161559400D01*
X106379600Y-161692733D01*
X106412933Y-161759400D01*
X106446266Y-161792733D01*
X106512933Y-161826066D01*
X106579600Y-161826066D01*
X106646266Y-161792733D01*
X106679600Y-161759400D01*
X106712933Y-161692733D01*
X106746266Y-161559400D01*
X106746266Y-161392733D01*
X106712933Y-161259400D01*
X106679600Y-161192733D01*
X106646266Y-161159400D01*
X106579600Y-161126066D01*
X105746266Y-161359400D02*
X105746266Y-161826066D01*
X105912933Y-161092733D02*
X106079600Y-161592733D01*
X105646266Y-161592733D01*
X104879600Y-161092733D02*
X105479600Y-161992733D01*
X104279600Y-161826066D02*
X104679600Y-161826066D01*
X104479600Y-161826066D02*
X104479600Y-161126066D01*
X104546266Y-161226066D01*
X104612933Y-161292733D01*
X104679600Y-161326066D01*
X103679600Y-161126066D02*
X103812933Y-161126066D01*
X103879600Y-161159400D01*
X103912933Y-161192733D01*
X103979600Y-161292733D01*
X104012933Y-161426066D01*
X104012933Y-161692733D01*
X103979600Y-161759400D01*
X103946266Y-161792733D01*
X103879600Y-161826066D01*
X103746266Y-161826066D01*
X103679600Y-161792733D01*
X103646266Y-161759400D01*
X103612933Y-161692733D01*
X103612933Y-161526066D01*
X103646266Y-161459400D01*
X103679600Y-161426066D01*
X103746266Y-161392733D01*
X103879600Y-161392733D01*
X103946266Y-161426066D01*
X103979600Y-161459400D01*
X104012933Y-161526066D01*
X102812933Y-161092733D02*
X103412933Y-161992733D01*
X102612933Y-161192733D02*
X102579600Y-161159400D01*
X102512933Y-161126066D01*
X102346266Y-161126066D01*
X102279600Y-161159400D01*
X102246266Y-161192733D01*
X102212933Y-161259400D01*
X102212933Y-161326066D01*
X102246266Y-161426066D01*
X102646266Y-161826066D01*
X102212933Y-161826066D01*
X101779600Y-161126066D02*
X101712933Y-161126066D01*
X101646266Y-161159400D01*
X101612933Y-161192733D01*
X101579600Y-161259400D01*
X101546266Y-161392733D01*
X101546266Y-161559400D01*
X101579600Y-161692733D01*
X101612933Y-161759400D01*
X101646266Y-161792733D01*
X101712933Y-161826066D01*
X101779600Y-161826066D01*
X101846266Y-161792733D01*
X101879600Y-161759400D01*
X101912933Y-161692733D01*
X101946266Y-161559400D01*
X101946266Y-161392733D01*
X101912933Y-161259400D01*
X101879600Y-161192733D01*
X101846266Y-161159400D01*
X101779600Y-161126066D01*
X101279600Y-161192733D02*
X101246266Y-161159400D01*
X101179600Y-161126066D01*
X101012933Y-161126066D01*
X100946266Y-161159400D01*
X100912933Y-161192733D01*
X100879600Y-161259400D01*
X100879600Y-161326066D01*
X100912933Y-161426066D01*
X101312933Y-161826066D01*
X100879600Y-161826066D01*
X100212933Y-161826066D02*
X100612933Y-161826066D01*
X100412933Y-161826066D02*
X100412933Y-161126066D01*
X100479600Y-161226066D01*
X100546266Y-161292733D01*
X100612933Y-161326066D01*
X132614000Y-155881000D02*
X132614000Y-151881000D01*
X126365000Y-155892500D02*
X132614000Y-155881000D01*
X126365000Y-151892500D02*
X126365000Y-155892500D01*
X122555000Y-157124000D02*
X122555000Y-154624000D01*
X115473000Y-157124000D02*
X122555000Y-157124000D01*
X115473000Y-154624000D02*
X115473000Y-157124000D01*
X124968000Y-118618000D02*
X124968000Y-115570000D01*
X118110000Y-118618000D02*
X124968000Y-118618000D01*
X118110000Y-115570000D02*
X118110000Y-118618000D01*
X107950000Y-118618000D02*
X107950000Y-115570000D01*
X100838000Y-118618000D02*
X107950000Y-118618000D01*
X100838000Y-115570000D02*
X100838000Y-118618000D01*
X134500000Y-133000000D02*
X126500000Y-133000000D01*
X134500000Y-144000000D02*
X134500000Y-133000000D01*
X126492000Y-144000000D02*
X134500000Y-144000000D01*
X126500000Y-143500000D02*
X126500000Y-144000000D01*
X126500000Y-133000000D02*
X126500000Y-143500000D01*
X108000000Y-133000000D02*
X101000000Y-133000000D01*
X108000000Y-144000000D02*
X108000000Y-133000000D01*
X101000000Y-144000000D02*
X108000000Y-144000000D01*
X101000000Y-133000000D02*
X101000000Y-144000000D01*
D11*
X123500666Y-116218000D02*
X122800666Y-116218000D01*
X122800666Y-116484666D01*
X122834000Y-116551333D01*
X122867333Y-116584666D01*
X122934000Y-116618000D01*
X123034000Y-116618000D01*
X123100666Y-116584666D01*
X123134000Y-116551333D01*
X123167333Y-116484666D01*
X123167333Y-116218000D01*
X122867333Y-116884666D02*
X122834000Y-116918000D01*
X122800666Y-116984666D01*
X122800666Y-117151333D01*
X122834000Y-117218000D01*
X122867333Y-117251333D01*
X122934000Y-117284666D01*
X123000666Y-117284666D01*
X123100666Y-117251333D01*
X123500666Y-116851333D01*
X123500666Y-117284666D01*
X123500666Y-117618000D02*
X123500666Y-117751333D01*
X123467333Y-117818000D01*
X123434000Y-117851333D01*
X123334000Y-117918000D01*
X123200666Y-117951333D01*
X122934000Y-117951333D01*
X122867333Y-117918000D01*
X122834000Y-117884666D01*
X122800666Y-117818000D01*
X122800666Y-117684666D01*
X122834000Y-117618000D01*
X122867333Y-117584666D01*
X122934000Y-117551333D01*
X123100666Y-117551333D01*
X123167333Y-117584666D01*
X123200666Y-117618000D01*
X123234000Y-117684666D01*
X123234000Y-117818000D01*
X123200666Y-117884666D01*
X123167333Y-117918000D01*
X123100666Y-117951333D01*
X122367333Y-116168000D02*
X122400666Y-116268000D01*
X122400666Y-116434666D01*
X122367333Y-116501333D01*
X122334000Y-116534666D01*
X122267333Y-116568000D01*
X122200666Y-116568000D01*
X122134000Y-116534666D01*
X122100666Y-116501333D01*
X122067333Y-116434666D01*
X122034000Y-116301333D01*
X122000666Y-116234666D01*
X121967333Y-116201333D01*
X121900666Y-116168000D01*
X121834000Y-116168000D01*
X121767333Y-116201333D01*
X121734000Y-116234666D01*
X121700666Y-116301333D01*
X121700666Y-116468000D01*
X121734000Y-116568000D01*
X122334000Y-117268000D02*
X122367333Y-117234666D01*
X122400666Y-117134666D01*
X122400666Y-117068000D01*
X122367333Y-116968000D01*
X122300666Y-116901333D01*
X122234000Y-116868000D01*
X122100666Y-116834666D01*
X122000666Y-116834666D01*
X121867333Y-116868000D01*
X121800666Y-116901333D01*
X121734000Y-116968000D01*
X121700666Y-117068000D01*
X121700666Y-117134666D01*
X121734000Y-117234666D01*
X121767333Y-117268000D01*
X122400666Y-117568000D02*
X121700666Y-117568000D01*
X122400666Y-117968000D02*
X122000666Y-117668000D01*
X121700666Y-117968000D02*
X122100666Y-117568000D01*
X121300666Y-115968000D02*
X120600666Y-115968000D01*
X121100666Y-116201333D01*
X120600666Y-116434666D01*
X121300666Y-116434666D01*
X120600666Y-116901333D02*
X120600666Y-117034666D01*
X120634000Y-117101333D01*
X120700666Y-117168000D01*
X120834000Y-117201333D01*
X121067333Y-117201333D01*
X121200666Y-117168000D01*
X121267333Y-117101333D01*
X121300666Y-117034666D01*
X121300666Y-116901333D01*
X121267333Y-116834666D01*
X121200666Y-116768000D01*
X121067333Y-116734666D01*
X120834000Y-116734666D01*
X120700666Y-116768000D01*
X120634000Y-116834666D01*
X120600666Y-116901333D01*
X121267333Y-117468000D02*
X121300666Y-117568000D01*
X121300666Y-117734666D01*
X121267333Y-117801333D01*
X121234000Y-117834666D01*
X121167333Y-117868000D01*
X121100666Y-117868000D01*
X121034000Y-117834666D01*
X121000666Y-117801333D01*
X120967333Y-117734666D01*
X120934000Y-117601333D01*
X120900666Y-117534666D01*
X120867333Y-117501333D01*
X120800666Y-117468000D01*
X120734000Y-117468000D01*
X120667333Y-117501333D01*
X120634000Y-117534666D01*
X120600666Y-117601333D01*
X120600666Y-117768000D01*
X120634000Y-117868000D01*
X121300666Y-118168000D02*
X120600666Y-118168000D01*
X120200666Y-115968000D02*
X119500666Y-115968000D01*
X120000666Y-116201333D01*
X119500666Y-116434666D01*
X120200666Y-116434666D01*
X120200666Y-116768000D02*
X119500666Y-116768000D01*
X120167333Y-117068000D02*
X120200666Y-117168000D01*
X120200666Y-117334666D01*
X120167333Y-117401333D01*
X120134000Y-117434666D01*
X120067333Y-117468000D01*
X120000666Y-117468000D01*
X119934000Y-117434666D01*
X119900666Y-117401333D01*
X119867333Y-117334666D01*
X119834000Y-117201333D01*
X119800666Y-117134666D01*
X119767333Y-117101333D01*
X119700666Y-117068000D01*
X119634000Y-117068000D01*
X119567333Y-117101333D01*
X119534000Y-117134666D01*
X119500666Y-117201333D01*
X119500666Y-117368000D01*
X119534000Y-117468000D01*
X119500666Y-117901333D02*
X119500666Y-118034666D01*
X119534000Y-118101333D01*
X119600666Y-118168000D01*
X119734000Y-118201333D01*
X119967333Y-118201333D01*
X120100666Y-118168000D01*
X120167333Y-118101333D01*
X120200666Y-118034666D01*
X120200666Y-117901333D01*
X120167333Y-117834666D01*
X120100666Y-117768000D01*
X119967333Y-117734666D01*
X119734000Y-117734666D01*
X119600666Y-117768000D01*
X119534000Y-117834666D01*
X119500666Y-117901333D01*
X118434000Y-116534666D02*
X118400666Y-116468000D01*
X118400666Y-116368000D01*
X118434000Y-116268000D01*
X118500666Y-116201333D01*
X118567333Y-116168000D01*
X118700666Y-116134666D01*
X118800666Y-116134666D01*
X118934000Y-116168000D01*
X119000666Y-116201333D01*
X119067333Y-116268000D01*
X119100666Y-116368000D01*
X119100666Y-116434666D01*
X119067333Y-116534666D01*
X119034000Y-116568000D01*
X118800666Y-116568000D01*
X118800666Y-116434666D01*
X119100666Y-116868000D02*
X118400666Y-116868000D01*
X119100666Y-117268000D01*
X118400666Y-117268000D01*
X119100666Y-117601333D02*
X118400666Y-117601333D01*
X118400666Y-117768000D01*
X118434000Y-117868000D01*
X118500666Y-117934666D01*
X118567333Y-117968000D01*
X118700666Y-118001333D01*
X118800666Y-118001333D01*
X118934000Y-117968000D01*
X119000666Y-117934666D01*
X119067333Y-117868000D01*
X119100666Y-117768000D01*
X119100666Y-117601333D01*
X124234000Y-116284666D02*
X124267333Y-116384666D01*
X124300666Y-116418000D01*
X124367333Y-116451333D01*
X124467333Y-116451333D01*
X124534000Y-116418000D01*
X124567333Y-116384666D01*
X124600666Y-116318000D01*
X124600666Y-116051333D01*
X123900666Y-116051333D01*
X123900666Y-116284666D01*
X123934000Y-116351333D01*
X123967333Y-116384666D01*
X124034000Y-116418000D01*
X124100666Y-116418000D01*
X124167333Y-116384666D01*
X124200666Y-116351333D01*
X124234000Y-116284666D01*
X124234000Y-116051333D01*
X124400666Y-116718000D02*
X124400666Y-117051333D01*
X124600666Y-116651333D02*
X123900666Y-116884666D01*
X124600666Y-117118000D01*
X123900666Y-117251333D02*
X123900666Y-117651333D01*
X124600666Y-117451333D02*
X123900666Y-117451333D01*
X123900666Y-117784666D02*
X123900666Y-118184666D01*
X124600666Y-117984666D02*
X123900666Y-117984666D01*
X107122000Y-116184666D02*
X107155333Y-116284666D01*
X107188666Y-116318000D01*
X107255333Y-116351333D01*
X107355333Y-116351333D01*
X107422000Y-116318000D01*
X107455333Y-116284666D01*
X107488666Y-116218000D01*
X107488666Y-115951333D01*
X106788666Y-115951333D01*
X106788666Y-116184666D01*
X106822000Y-116251333D01*
X106855333Y-116284666D01*
X106922000Y-116318000D01*
X106988666Y-116318000D01*
X107055333Y-116284666D01*
X107088666Y-116251333D01*
X107122000Y-116184666D01*
X107122000Y-115951333D01*
X107288666Y-116618000D02*
X107288666Y-116951333D01*
X107488666Y-116551333D02*
X106788666Y-116784666D01*
X107488666Y-117018000D01*
X106788666Y-117151333D02*
X106788666Y-117551333D01*
X107488666Y-117351333D02*
X106788666Y-117351333D01*
X106788666Y-117684666D02*
X106788666Y-118084666D01*
X107488666Y-117884666D02*
X106788666Y-117884666D01*
X106388666Y-116118000D02*
X105688666Y-116118000D01*
X105688666Y-116384666D01*
X105722000Y-116451333D01*
X105755333Y-116484666D01*
X105822000Y-116518000D01*
X105922000Y-116518000D01*
X105988666Y-116484666D01*
X106022000Y-116451333D01*
X106055333Y-116384666D01*
X106055333Y-116118000D01*
X105688666Y-116751333D02*
X105688666Y-117184666D01*
X105955333Y-116951333D01*
X105955333Y-117051333D01*
X105988666Y-117118000D01*
X106022000Y-117151333D01*
X106088666Y-117184666D01*
X106255333Y-117184666D01*
X106322000Y-117151333D01*
X106355333Y-117118000D01*
X106388666Y-117051333D01*
X106388666Y-116851333D01*
X106355333Y-116784666D01*
X106322000Y-116751333D01*
X105688666Y-117618000D02*
X105688666Y-117684666D01*
X105722000Y-117751333D01*
X105755333Y-117784666D01*
X105822000Y-117818000D01*
X105955333Y-117851333D01*
X106122000Y-117851333D01*
X106255333Y-117818000D01*
X106322000Y-117784666D01*
X106355333Y-117751333D01*
X106388666Y-117684666D01*
X106388666Y-117618000D01*
X106355333Y-117551333D01*
X106322000Y-117518000D01*
X106255333Y-117484666D01*
X106122000Y-117451333D01*
X105955333Y-117451333D01*
X105822000Y-117484666D01*
X105755333Y-117518000D01*
X105722000Y-117551333D01*
X105688666Y-117618000D01*
X105288666Y-116118000D02*
X104588666Y-116118000D01*
X104588666Y-116384666D01*
X104622000Y-116451333D01*
X104655333Y-116484666D01*
X104722000Y-116518000D01*
X104822000Y-116518000D01*
X104888666Y-116484666D01*
X104922000Y-116451333D01*
X104955333Y-116384666D01*
X104955333Y-116118000D01*
X104588666Y-116751333D02*
X104588666Y-117184666D01*
X104855333Y-116951333D01*
X104855333Y-117051333D01*
X104888666Y-117118000D01*
X104922000Y-117151333D01*
X104988666Y-117184666D01*
X105155333Y-117184666D01*
X105222000Y-117151333D01*
X105255333Y-117118000D01*
X105288666Y-117051333D01*
X105288666Y-116851333D01*
X105255333Y-116784666D01*
X105222000Y-116751333D01*
X105288666Y-117851333D02*
X105288666Y-117451333D01*
X105288666Y-117651333D02*
X104588666Y-117651333D01*
X104688666Y-117584666D01*
X104755333Y-117518000D01*
X104788666Y-117451333D01*
X104155333Y-116118000D02*
X104188666Y-116218000D01*
X104188666Y-116384666D01*
X104155333Y-116451333D01*
X104122000Y-116484666D01*
X104055333Y-116518000D01*
X103988666Y-116518000D01*
X103922000Y-116484666D01*
X103888666Y-116451333D01*
X103855333Y-116384666D01*
X103822000Y-116251333D01*
X103788666Y-116184666D01*
X103755333Y-116151333D01*
X103688666Y-116118000D01*
X103622000Y-116118000D01*
X103555333Y-116151333D01*
X103522000Y-116184666D01*
X103488666Y-116251333D01*
X103488666Y-116418000D01*
X103522000Y-116518000D01*
X104188666Y-116818000D02*
X103488666Y-116818000D01*
X103488666Y-116984666D01*
X103522000Y-117084666D01*
X103588666Y-117151333D01*
X103655333Y-117184666D01*
X103788666Y-117218000D01*
X103888666Y-117218000D01*
X104022000Y-117184666D01*
X104088666Y-117151333D01*
X104155333Y-117084666D01*
X104188666Y-116984666D01*
X104188666Y-116818000D01*
X103988666Y-117484666D02*
X103988666Y-117818000D01*
X104188666Y-117418000D02*
X103488666Y-117651333D01*
X104188666Y-117884666D01*
X103055333Y-116134666D02*
X103088666Y-116234666D01*
X103088666Y-116401333D01*
X103055333Y-116468000D01*
X103022000Y-116501333D01*
X102955333Y-116534666D01*
X102888666Y-116534666D01*
X102822000Y-116501333D01*
X102788666Y-116468000D01*
X102755333Y-116401333D01*
X102722000Y-116268000D01*
X102688666Y-116201333D01*
X102655333Y-116168000D01*
X102588666Y-116134666D01*
X102522000Y-116134666D01*
X102455333Y-116168000D01*
X102422000Y-116201333D01*
X102388666Y-116268000D01*
X102388666Y-116434666D01*
X102422000Y-116534666D01*
X103022000Y-117234666D02*
X103055333Y-117201333D01*
X103088666Y-117101333D01*
X103088666Y-117034666D01*
X103055333Y-116934666D01*
X102988666Y-116868000D01*
X102922000Y-116834666D01*
X102788666Y-116801333D01*
X102688666Y-116801333D01*
X102555333Y-116834666D01*
X102488666Y-116868000D01*
X102422000Y-116934666D01*
X102388666Y-117034666D01*
X102388666Y-117101333D01*
X102422000Y-117201333D01*
X102455333Y-117234666D01*
X103088666Y-117868000D02*
X103088666Y-117534666D01*
X102388666Y-117534666D01*
X101322000Y-116434666D02*
X101288666Y-116368000D01*
X101288666Y-116268000D01*
X101322000Y-116168000D01*
X101388666Y-116101333D01*
X101455333Y-116068000D01*
X101588666Y-116034666D01*
X101688666Y-116034666D01*
X101822000Y-116068000D01*
X101888666Y-116101333D01*
X101955333Y-116168000D01*
X101988666Y-116268000D01*
X101988666Y-116334666D01*
X101955333Y-116434666D01*
X101922000Y-116468000D01*
X101688666Y-116468000D01*
X101688666Y-116334666D01*
X101988666Y-116768000D02*
X101288666Y-116768000D01*
X101988666Y-117168000D01*
X101288666Y-117168000D01*
X101988666Y-117501333D02*
X101288666Y-117501333D01*
X101288666Y-117668000D01*
X101322000Y-117768000D01*
X101388666Y-117834666D01*
X101455333Y-117868000D01*
X101588666Y-117901333D01*
X101688666Y-117901333D01*
X101822000Y-117868000D01*
X101888666Y-117834666D01*
X101955333Y-117768000D01*
X101988666Y-117668000D01*
X101988666Y-117501333D01*
X128237500Y-153136666D02*
X128204166Y-153070000D01*
X128204166Y-152970000D01*
X128237500Y-152870000D01*
X128304166Y-152803333D01*
X128370833Y-152770000D01*
X128504166Y-152736666D01*
X128604166Y-152736666D01*
X128737500Y-152770000D01*
X128804166Y-152803333D01*
X128870833Y-152870000D01*
X128904166Y-152970000D01*
X128904166Y-153036666D01*
X128870833Y-153136666D01*
X128837500Y-153170000D01*
X128604166Y-153170000D01*
X128604166Y-153036666D01*
X128904166Y-153470000D02*
X128204166Y-153470000D01*
X128904166Y-153870000D01*
X128204166Y-153870000D01*
X128904166Y-154203333D02*
X128204166Y-154203333D01*
X128204166Y-154370000D01*
X128237500Y-154470000D01*
X128304166Y-154536666D01*
X128370833Y-154570000D01*
X128504166Y-154603333D01*
X128604166Y-154603333D01*
X128737500Y-154570000D01*
X128804166Y-154536666D01*
X128870833Y-154470000D01*
X128904166Y-154370000D01*
X128904166Y-154203333D01*
X130936166Y-152736666D02*
X130236166Y-152736666D01*
X130236166Y-153003333D01*
X130269500Y-153070000D01*
X130302833Y-153103333D01*
X130369500Y-153136666D01*
X130469500Y-153136666D01*
X130536166Y-153103333D01*
X130569500Y-153070000D01*
X130602833Y-153003333D01*
X130602833Y-152736666D01*
X130236166Y-153370000D02*
X130936166Y-153536666D01*
X130436166Y-153670000D01*
X130936166Y-153803333D01*
X130236166Y-153970000D01*
X130936166Y-154636666D02*
X130602833Y-154403333D01*
X130936166Y-154236666D02*
X130236166Y-154236666D01*
X130236166Y-154503333D01*
X130269500Y-154570000D01*
X130302833Y-154603333D01*
X130369500Y-154636666D01*
X130469500Y-154636666D01*
X130536166Y-154603333D01*
X130569500Y-154570000D01*
X130602833Y-154503333D01*
X130602833Y-154236666D01*
X122236666Y-154641666D02*
X121536666Y-154641666D01*
X121536666Y-154908333D01*
X121570000Y-154975000D01*
X121603333Y-155008333D01*
X121670000Y-155041666D01*
X121770000Y-155041666D01*
X121836666Y-155008333D01*
X121870000Y-154975000D01*
X121903333Y-154908333D01*
X121903333Y-154641666D01*
X121536666Y-155275000D02*
X122236666Y-155441666D01*
X121736666Y-155575000D01*
X122236666Y-155708333D01*
X121536666Y-155875000D01*
X122236666Y-156541666D02*
X121903333Y-156308333D01*
X122236666Y-156141666D02*
X121536666Y-156141666D01*
X121536666Y-156408333D01*
X121570000Y-156475000D01*
X121603333Y-156508333D01*
X121670000Y-156541666D01*
X121770000Y-156541666D01*
X121836666Y-156508333D01*
X121870000Y-156475000D01*
X121903333Y-156408333D01*
X121903333Y-156141666D01*
X121093666Y-154652000D02*
X120393666Y-154652000D01*
X120393666Y-154818666D01*
X120427000Y-154918666D01*
X120493666Y-154985333D01*
X120560333Y-155018666D01*
X120693666Y-155052000D01*
X120793666Y-155052000D01*
X120927000Y-155018666D01*
X120993666Y-154985333D01*
X121060333Y-154918666D01*
X121093666Y-154818666D01*
X121093666Y-154652000D01*
X120893666Y-155318666D02*
X120893666Y-155652000D01*
X121093666Y-155252000D02*
X120393666Y-155485333D01*
X121093666Y-155718666D01*
X120393666Y-155852000D02*
X120393666Y-156252000D01*
X121093666Y-156052000D02*
X120393666Y-156052000D01*
X120893666Y-156452000D02*
X120893666Y-156785333D01*
X121093666Y-156385333D02*
X120393666Y-156618666D01*
X121093666Y-156852000D01*
X119884000Y-155031333D02*
X119917333Y-154998000D01*
X119950666Y-154898000D01*
X119950666Y-154831333D01*
X119917333Y-154731333D01*
X119850666Y-154664666D01*
X119784000Y-154631333D01*
X119650666Y-154598000D01*
X119550666Y-154598000D01*
X119417333Y-154631333D01*
X119350666Y-154664666D01*
X119284000Y-154731333D01*
X119250666Y-154831333D01*
X119250666Y-154898000D01*
X119284000Y-154998000D01*
X119317333Y-155031333D01*
X119950666Y-155664666D02*
X119950666Y-155331333D01*
X119250666Y-155331333D01*
X119950666Y-155898000D02*
X119250666Y-155898000D01*
X119950666Y-156298000D02*
X119550666Y-155998000D01*
X119250666Y-156298000D02*
X119650666Y-155898000D01*
X118774333Y-154598000D02*
X118807666Y-154698000D01*
X118807666Y-154864666D01*
X118774333Y-154931333D01*
X118741000Y-154964666D01*
X118674333Y-154998000D01*
X118607666Y-154998000D01*
X118541000Y-154964666D01*
X118507666Y-154931333D01*
X118474333Y-154864666D01*
X118441000Y-154731333D01*
X118407666Y-154664666D01*
X118374333Y-154631333D01*
X118307666Y-154598000D01*
X118241000Y-154598000D01*
X118174333Y-154631333D01*
X118141000Y-154664666D01*
X118107666Y-154731333D01*
X118107666Y-154898000D01*
X118141000Y-154998000D01*
X118807666Y-155298000D02*
X118107666Y-155298000D01*
X118107666Y-155464666D01*
X118141000Y-155564666D01*
X118207666Y-155631333D01*
X118274333Y-155664666D01*
X118407666Y-155698000D01*
X118507666Y-155698000D01*
X118641000Y-155664666D01*
X118707666Y-155631333D01*
X118774333Y-155564666D01*
X118807666Y-155464666D01*
X118807666Y-155298000D01*
X118607666Y-155964666D02*
X118607666Y-156298000D01*
X118807666Y-155898000D02*
X118107666Y-156131333D01*
X118807666Y-156364666D01*
X117631333Y-154614666D02*
X117664666Y-154714666D01*
X117664666Y-154881333D01*
X117631333Y-154948000D01*
X117598000Y-154981333D01*
X117531333Y-155014666D01*
X117464666Y-155014666D01*
X117398000Y-154981333D01*
X117364666Y-154948000D01*
X117331333Y-154881333D01*
X117298000Y-154748000D01*
X117264666Y-154681333D01*
X117231333Y-154648000D01*
X117164666Y-154614666D01*
X117098000Y-154614666D01*
X117031333Y-154648000D01*
X116998000Y-154681333D01*
X116964666Y-154748000D01*
X116964666Y-154914666D01*
X116998000Y-155014666D01*
X117598000Y-155714666D02*
X117631333Y-155681333D01*
X117664666Y-155581333D01*
X117664666Y-155514666D01*
X117631333Y-155414666D01*
X117564666Y-155348000D01*
X117498000Y-155314666D01*
X117364666Y-155281333D01*
X117264666Y-155281333D01*
X117131333Y-155314666D01*
X117064666Y-155348000D01*
X116998000Y-155414666D01*
X116964666Y-155514666D01*
X116964666Y-155581333D01*
X116998000Y-155681333D01*
X117031333Y-155714666D01*
X117664666Y-156348000D02*
X117664666Y-156014666D01*
X116964666Y-156014666D01*
X115855000Y-155041666D02*
X115821666Y-154975000D01*
X115821666Y-154875000D01*
X115855000Y-154775000D01*
X115921666Y-154708333D01*
X115988333Y-154675000D01*
X116121666Y-154641666D01*
X116221666Y-154641666D01*
X116355000Y-154675000D01*
X116421666Y-154708333D01*
X116488333Y-154775000D01*
X116521666Y-154875000D01*
X116521666Y-154941666D01*
X116488333Y-155041666D01*
X116455000Y-155075000D01*
X116221666Y-155075000D01*
X116221666Y-154941666D01*
X116521666Y-155375000D02*
X115821666Y-155375000D01*
X116521666Y-155775000D01*
X115821666Y-155775000D01*
X116521666Y-156108333D02*
X115821666Y-156108333D01*
X115821666Y-156275000D01*
X115855000Y-156375000D01*
X115921666Y-156441666D01*
X115988333Y-156475000D01*
X116121666Y-156508333D01*
X116221666Y-156508333D01*
X116355000Y-156475000D01*
X116421666Y-156441666D01*
X116488333Y-156375000D01*
X116521666Y-156275000D01*
X116521666Y-156108333D01*
X133533333Y-142950000D02*
X133766666Y-142950000D01*
X133766666Y-143316666D02*
X133766666Y-142616666D01*
X133433333Y-142616666D01*
X132833333Y-143316666D02*
X133166666Y-143316666D01*
X133166666Y-142616666D01*
X132766666Y-143383333D02*
X132233333Y-143383333D01*
X132066666Y-142950000D02*
X131833333Y-142950000D01*
X131733333Y-143316666D02*
X132066666Y-143316666D01*
X132066666Y-142616666D01*
X131733333Y-142616666D01*
X131433333Y-143316666D02*
X131433333Y-142616666D01*
X131033333Y-143316666D01*
X131033333Y-142616666D01*
X133950000Y-140350000D02*
X134183333Y-140350000D01*
X134183333Y-140716666D02*
X134183333Y-140016666D01*
X133850000Y-140016666D01*
X133250000Y-140716666D02*
X133583333Y-140716666D01*
X133583333Y-140016666D01*
X133183333Y-140783333D02*
X132650000Y-140783333D01*
X132483333Y-140716666D02*
X132483333Y-140016666D01*
X132483333Y-140350000D02*
X132083333Y-140350000D01*
X132083333Y-140716666D02*
X132083333Y-140016666D01*
X131416666Y-140716666D02*
X131750000Y-140716666D01*
X131750000Y-140016666D01*
X131183333Y-140716666D02*
X131183333Y-140016666D01*
X131016666Y-140016666D01*
X130916666Y-140050000D01*
X130850000Y-140116666D01*
X130816666Y-140183333D01*
X130783333Y-140316666D01*
X130783333Y-140416666D01*
X130816666Y-140550000D01*
X130850000Y-140616666D01*
X130916666Y-140683333D01*
X131016666Y-140716666D01*
X131183333Y-140716666D01*
X133433333Y-133716666D02*
X133200000Y-134416666D01*
X132966666Y-133716666D01*
X132333333Y-134350000D02*
X132366666Y-134383333D01*
X132466666Y-134416666D01*
X132533333Y-134416666D01*
X132633333Y-134383333D01*
X132700000Y-134316666D01*
X132733333Y-134250000D01*
X132766666Y-134116666D01*
X132766666Y-134016666D01*
X132733333Y-133883333D01*
X132700000Y-133816666D01*
X132633333Y-133750000D01*
X132533333Y-133716666D01*
X132466666Y-133716666D01*
X132366666Y-133750000D01*
X132333333Y-133783333D01*
X131633333Y-134350000D02*
X131666666Y-134383333D01*
X131766666Y-134416666D01*
X131833333Y-134416666D01*
X131933333Y-134383333D01*
X132000000Y-134316666D01*
X132033333Y-134250000D01*
X132066666Y-134116666D01*
X132066666Y-134016666D01*
X132033333Y-133883333D01*
X132000000Y-133816666D01*
X131933333Y-133750000D01*
X131833333Y-133716666D01*
X131766666Y-133716666D01*
X131666666Y-133750000D01*
X131633333Y-133783333D01*
X133500000Y-138183333D02*
X133400000Y-138216666D01*
X133233333Y-138216666D01*
X133166666Y-138183333D01*
X133133333Y-138150000D01*
X133100000Y-138083333D01*
X133100000Y-138016666D01*
X133133333Y-137950000D01*
X133166666Y-137916666D01*
X133233333Y-137883333D01*
X133366666Y-137850000D01*
X133433333Y-137816666D01*
X133466666Y-137783333D01*
X133500000Y-137716666D01*
X133500000Y-137650000D01*
X133466666Y-137583333D01*
X133433333Y-137550000D01*
X133366666Y-137516666D01*
X133200000Y-137516666D01*
X133100000Y-137550000D01*
X132400000Y-138150000D02*
X132433333Y-138183333D01*
X132533333Y-138216666D01*
X132600000Y-138216666D01*
X132700000Y-138183333D01*
X132766666Y-138116666D01*
X132800000Y-138050000D01*
X132833333Y-137916666D01*
X132833333Y-137816666D01*
X132800000Y-137683333D01*
X132766666Y-137616666D01*
X132700000Y-137550000D01*
X132600000Y-137516666D01*
X132533333Y-137516666D01*
X132433333Y-137550000D01*
X132400000Y-137583333D01*
X132100000Y-138216666D02*
X132100000Y-137516666D01*
X131700000Y-138216666D02*
X132000000Y-137816666D01*
X131700000Y-137516666D02*
X132100000Y-137916666D01*
X133933333Y-135716666D02*
X134166666Y-135383333D01*
X134333333Y-135716666D02*
X134333333Y-135016666D01*
X134066666Y-135016666D01*
X134000000Y-135050000D01*
X133966666Y-135083333D01*
X133933333Y-135150000D01*
X133933333Y-135250000D01*
X133966666Y-135316666D01*
X134000000Y-135350000D01*
X134066666Y-135383333D01*
X134333333Y-135383333D01*
X133400000Y-135350000D02*
X133633333Y-135350000D01*
X133633333Y-135716666D02*
X133633333Y-135016666D01*
X133300000Y-135016666D01*
X133033333Y-135716666D02*
X133033333Y-135016666D01*
X132800000Y-135516666D01*
X132566666Y-135016666D01*
X132566666Y-135716666D01*
X132400000Y-135783333D02*
X131866666Y-135783333D01*
X131300000Y-135716666D02*
X131533333Y-135383333D01*
X131700000Y-135716666D02*
X131700000Y-135016666D01*
X131433333Y-135016666D01*
X131366666Y-135050000D01*
X131333333Y-135083333D01*
X131300000Y-135150000D01*
X131300000Y-135250000D01*
X131333333Y-135316666D01*
X131366666Y-135350000D01*
X131433333Y-135383333D01*
X131700000Y-135383333D01*
X131033333Y-135683333D02*
X130933333Y-135716666D01*
X130766666Y-135716666D01*
X130700000Y-135683333D01*
X130666666Y-135650000D01*
X130633333Y-135583333D01*
X130633333Y-135516666D01*
X130666666Y-135450000D01*
X130700000Y-135416666D01*
X130766666Y-135383333D01*
X130900000Y-135350000D01*
X130966666Y-135316666D01*
X131000000Y-135283333D01*
X131033333Y-135216666D01*
X131033333Y-135150000D01*
X131000000Y-135083333D01*
X130966666Y-135050000D01*
X130900000Y-135016666D01*
X130733333Y-135016666D01*
X130633333Y-135050000D01*
X133500000Y-141650000D02*
X133733333Y-141650000D01*
X133733333Y-142016666D02*
X133733333Y-141316666D01*
X133400000Y-141316666D01*
X132800000Y-142016666D02*
X133133333Y-142016666D01*
X133133333Y-141316666D01*
X132733333Y-142083333D02*
X132200000Y-142083333D01*
X132100000Y-141316666D02*
X131933333Y-142016666D01*
X131800000Y-141516666D01*
X131666666Y-142016666D01*
X131500000Y-141316666D01*
X131233333Y-142016666D02*
X131233333Y-141316666D01*
X130966666Y-141316666D01*
X130900000Y-141350000D01*
X130866666Y-141383333D01*
X130833333Y-141450000D01*
X130833333Y-141550000D01*
X130866666Y-141616666D01*
X130900000Y-141650000D01*
X130966666Y-141683333D01*
X131233333Y-141683333D01*
X133400000Y-139516666D02*
X133400000Y-138816666D01*
X133166666Y-139316666D01*
X132933333Y-138816666D01*
X132933333Y-139516666D01*
X132466666Y-138816666D02*
X132333333Y-138816666D01*
X132266666Y-138850000D01*
X132200000Y-138916666D01*
X132166666Y-139050000D01*
X132166666Y-139283333D01*
X132200000Y-139416666D01*
X132266666Y-139483333D01*
X132333333Y-139516666D01*
X132466666Y-139516666D01*
X132533333Y-139483333D01*
X132600000Y-139416666D01*
X132633333Y-139283333D01*
X132633333Y-139050000D01*
X132600000Y-138916666D01*
X132533333Y-138850000D01*
X132466666Y-138816666D01*
X131900000Y-139483333D02*
X131800000Y-139516666D01*
X131633333Y-139516666D01*
X131566666Y-139483333D01*
X131533333Y-139450000D01*
X131500000Y-139383333D01*
X131500000Y-139316666D01*
X131533333Y-139250000D01*
X131566666Y-139216666D01*
X131633333Y-139183333D01*
X131766666Y-139150000D01*
X131833333Y-139116666D01*
X131866666Y-139083333D01*
X131900000Y-139016666D01*
X131900000Y-138950000D01*
X131866666Y-138883333D01*
X131833333Y-138850000D01*
X131766666Y-138816666D01*
X131600000Y-138816666D01*
X131500000Y-138850000D01*
X131200000Y-139516666D02*
X131200000Y-138816666D01*
X133350000Y-136916666D02*
X133350000Y-136216666D01*
X133083333Y-136216666D01*
X133016666Y-136250000D01*
X132983333Y-136283333D01*
X132950000Y-136350000D01*
X132950000Y-136450000D01*
X132983333Y-136516666D01*
X133016666Y-136550000D01*
X133083333Y-136583333D01*
X133350000Y-136583333D01*
X132716666Y-136216666D02*
X132283333Y-136216666D01*
X132516666Y-136483333D01*
X132416666Y-136483333D01*
X132350000Y-136516666D01*
X132316666Y-136550000D01*
X132283333Y-136616666D01*
X132283333Y-136783333D01*
X132316666Y-136850000D01*
X132350000Y-136883333D01*
X132416666Y-136916666D01*
X132616666Y-136916666D01*
X132683333Y-136883333D01*
X132716666Y-136850000D01*
X131850000Y-136216666D02*
X131783333Y-136216666D01*
X131716666Y-136250000D01*
X131683333Y-136283333D01*
X131650000Y-136350000D01*
X131616666Y-136483333D01*
X131616666Y-136650000D01*
X131650000Y-136783333D01*
X131683333Y-136850000D01*
X131716666Y-136883333D01*
X131783333Y-136916666D01*
X131850000Y-136916666D01*
X131916666Y-136883333D01*
X131950000Y-136850000D01*
X131983333Y-136783333D01*
X132016666Y-136650000D01*
X132016666Y-136483333D01*
X131983333Y-136350000D01*
X131950000Y-136283333D01*
X131916666Y-136250000D01*
X131850000Y-136216666D01*
X129033333Y-142650000D02*
X129100000Y-142616666D01*
X129200000Y-142616666D01*
X129300000Y-142650000D01*
X129366666Y-142716666D01*
X129400000Y-142783333D01*
X129433333Y-142916666D01*
X129433333Y-143016666D01*
X129400000Y-143150000D01*
X129366666Y-143216666D01*
X129300000Y-143283333D01*
X129200000Y-143316666D01*
X129133333Y-143316666D01*
X129033333Y-143283333D01*
X129000000Y-143250000D01*
X129000000Y-143016666D01*
X129133333Y-143016666D01*
X128700000Y-143316666D02*
X128700000Y-142616666D01*
X128300000Y-143316666D01*
X128300000Y-142616666D01*
X127966666Y-143316666D02*
X127966666Y-142616666D01*
X127800000Y-142616666D01*
X127700000Y-142650000D01*
X127633333Y-142716666D01*
X127600000Y-142783333D01*
X127566666Y-142916666D01*
X127566666Y-143016666D01*
X127600000Y-143150000D01*
X127633333Y-143216666D01*
X127700000Y-143283333D01*
X127800000Y-143316666D01*
X127966666Y-143316666D01*
X129600000Y-142016666D02*
X129833333Y-141683333D01*
X130000000Y-142016666D02*
X130000000Y-141316666D01*
X129733333Y-141316666D01*
X129666666Y-141350000D01*
X129633333Y-141383333D01*
X129600000Y-141450000D01*
X129600000Y-141550000D01*
X129633333Y-141616666D01*
X129666666Y-141650000D01*
X129733333Y-141683333D01*
X130000000Y-141683333D01*
X129300000Y-142016666D02*
X129300000Y-141316666D01*
X129066666Y-141816666D01*
X128833333Y-141316666D01*
X128833333Y-142016666D01*
X128266666Y-141650000D02*
X128500000Y-141650000D01*
X128500000Y-142016666D02*
X128500000Y-141316666D01*
X128166666Y-141316666D01*
X128066666Y-142083333D02*
X127533333Y-142083333D01*
X127366666Y-142016666D02*
X127366666Y-141316666D01*
X127200000Y-141316666D01*
X127100000Y-141350000D01*
X127033333Y-141416666D01*
X127000000Y-141483333D01*
X126966666Y-141616666D01*
X126966666Y-141716666D01*
X127000000Y-141850000D01*
X127033333Y-141916666D01*
X127100000Y-141983333D01*
X127200000Y-142016666D01*
X127366666Y-142016666D01*
X129250000Y-140716666D02*
X129483333Y-140383333D01*
X129650000Y-140716666D02*
X129650000Y-140016666D01*
X129383333Y-140016666D01*
X129316666Y-140050000D01*
X129283333Y-140083333D01*
X129250000Y-140150000D01*
X129250000Y-140250000D01*
X129283333Y-140316666D01*
X129316666Y-140350000D01*
X129383333Y-140383333D01*
X129650000Y-140383333D01*
X128716666Y-140350000D02*
X128950000Y-140350000D01*
X128950000Y-140716666D02*
X128950000Y-140016666D01*
X128616666Y-140016666D01*
X128350000Y-140716666D02*
X128350000Y-140016666D01*
X128116666Y-140516666D01*
X127883333Y-140016666D01*
X127883333Y-140716666D01*
X127550000Y-140650000D02*
X127516666Y-140683333D01*
X127550000Y-140716666D01*
X127583333Y-140683333D01*
X127550000Y-140650000D01*
X127550000Y-140716666D01*
X127550000Y-140450000D02*
X127583333Y-140050000D01*
X127550000Y-140016666D01*
X127516666Y-140050000D01*
X127550000Y-140450000D01*
X127550000Y-140016666D01*
X129700000Y-139516666D02*
X129700000Y-138816666D01*
X129466666Y-139316666D01*
X129233333Y-138816666D01*
X129233333Y-139516666D01*
X128900000Y-139516666D02*
X128900000Y-138816666D01*
X128600000Y-139483333D02*
X128500000Y-139516666D01*
X128333333Y-139516666D01*
X128266666Y-139483333D01*
X128233333Y-139450000D01*
X128200000Y-139383333D01*
X128200000Y-139316666D01*
X128233333Y-139250000D01*
X128266666Y-139216666D01*
X128333333Y-139183333D01*
X128466666Y-139150000D01*
X128533333Y-139116666D01*
X128566666Y-139083333D01*
X128600000Y-139016666D01*
X128600000Y-138950000D01*
X128566666Y-138883333D01*
X128533333Y-138850000D01*
X128466666Y-138816666D01*
X128300000Y-138816666D01*
X128200000Y-138850000D01*
X127766666Y-138816666D02*
X127633333Y-138816666D01*
X127566666Y-138850000D01*
X127500000Y-138916666D01*
X127466666Y-139050000D01*
X127466666Y-139283333D01*
X127500000Y-139416666D01*
X127566666Y-139483333D01*
X127633333Y-139516666D01*
X127766666Y-139516666D01*
X127833333Y-139483333D01*
X127900000Y-139416666D01*
X127933333Y-139283333D01*
X127933333Y-139050000D01*
X127900000Y-138916666D01*
X127833333Y-138850000D01*
X127766666Y-138816666D01*
X129250000Y-138216666D02*
X129250000Y-137516666D01*
X128983333Y-137516666D01*
X128916666Y-137550000D01*
X128883333Y-137583333D01*
X128850000Y-137650000D01*
X128850000Y-137750000D01*
X128883333Y-137816666D01*
X128916666Y-137850000D01*
X128983333Y-137883333D01*
X129250000Y-137883333D01*
X128616666Y-137516666D02*
X128183333Y-137516666D01*
X128416666Y-137783333D01*
X128316666Y-137783333D01*
X128250000Y-137816666D01*
X128216666Y-137850000D01*
X128183333Y-137916666D01*
X128183333Y-138083333D01*
X128216666Y-138150000D01*
X128250000Y-138183333D01*
X128316666Y-138216666D01*
X128516666Y-138216666D01*
X128583333Y-138183333D01*
X128616666Y-138150000D01*
X127516666Y-138216666D02*
X127916666Y-138216666D01*
X127716666Y-138216666D02*
X127716666Y-137516666D01*
X127783333Y-137616666D01*
X127850000Y-137683333D01*
X127916666Y-137716666D01*
X129450000Y-136916666D02*
X129450000Y-136216666D01*
X129183333Y-136216666D01*
X129116666Y-136250000D01*
X129083333Y-136283333D01*
X129050000Y-136350000D01*
X129050000Y-136450000D01*
X129083333Y-136516666D01*
X129116666Y-136550000D01*
X129183333Y-136583333D01*
X129450000Y-136583333D01*
X128783333Y-136283333D02*
X128750000Y-136250000D01*
X128683333Y-136216666D01*
X128516666Y-136216666D01*
X128450000Y-136250000D01*
X128416666Y-136283333D01*
X128383333Y-136350000D01*
X128383333Y-136416666D01*
X128416666Y-136516666D01*
X128816666Y-136916666D01*
X128383333Y-136916666D01*
X128050000Y-136916666D02*
X127916666Y-136916666D01*
X127850000Y-136883333D01*
X127816666Y-136850000D01*
X127750000Y-136750000D01*
X127716666Y-136616666D01*
X127716666Y-136350000D01*
X127750000Y-136283333D01*
X127783333Y-136250000D01*
X127850000Y-136216666D01*
X127983333Y-136216666D01*
X128050000Y-136250000D01*
X128083333Y-136283333D01*
X128116666Y-136350000D01*
X128116666Y-136516666D01*
X128083333Y-136583333D01*
X128050000Y-136616666D01*
X127983333Y-136650000D01*
X127850000Y-136650000D01*
X127783333Y-136616666D01*
X127750000Y-136583333D01*
X127716666Y-136516666D01*
X129450000Y-135716666D02*
X129450000Y-135016666D01*
X129183333Y-135016666D01*
X129116666Y-135050000D01*
X129083333Y-135083333D01*
X129050000Y-135150000D01*
X129050000Y-135250000D01*
X129083333Y-135316666D01*
X129116666Y-135350000D01*
X129183333Y-135383333D01*
X129450000Y-135383333D01*
X128783333Y-135083333D02*
X128750000Y-135050000D01*
X128683333Y-135016666D01*
X128516666Y-135016666D01*
X128450000Y-135050000D01*
X128416666Y-135083333D01*
X128383333Y-135150000D01*
X128383333Y-135216666D01*
X128416666Y-135316666D01*
X128816666Y-135716666D01*
X128383333Y-135716666D01*
X127750000Y-135016666D02*
X128083333Y-135016666D01*
X128116666Y-135350000D01*
X128083333Y-135316666D01*
X128016666Y-135283333D01*
X127850000Y-135283333D01*
X127783333Y-135316666D01*
X127750000Y-135350000D01*
X127716666Y-135416666D01*
X127716666Y-135583333D01*
X127750000Y-135650000D01*
X127783333Y-135683333D01*
X127850000Y-135716666D01*
X128016666Y-135716666D01*
X128083333Y-135683333D01*
X128116666Y-135650000D01*
X129283333Y-134050000D02*
X129183333Y-134083333D01*
X129150000Y-134116666D01*
X129116666Y-134183333D01*
X129116666Y-134283333D01*
X129150000Y-134350000D01*
X129183333Y-134383333D01*
X129250000Y-134416666D01*
X129516666Y-134416666D01*
X129516666Y-133716666D01*
X129283333Y-133716666D01*
X129216666Y-133750000D01*
X129183333Y-133783333D01*
X129150000Y-133850000D01*
X129150000Y-133916666D01*
X129183333Y-133983333D01*
X129216666Y-134016666D01*
X129283333Y-134050000D01*
X129516666Y-134050000D01*
X128850000Y-134216666D02*
X128516666Y-134216666D01*
X128916666Y-134416666D02*
X128683333Y-133716666D01*
X128450000Y-134416666D01*
X128316666Y-133716666D02*
X127916666Y-133716666D01*
X128116666Y-134416666D02*
X128116666Y-133716666D01*
X127783333Y-133716666D02*
X127383333Y-133716666D01*
X127583333Y-134416666D02*
X127583333Y-133716666D01*
X103016666Y-135716666D02*
X103016666Y-135016666D01*
X102750000Y-135016666D01*
X102683333Y-135050000D01*
X102650000Y-135083333D01*
X102616666Y-135150000D01*
X102616666Y-135250000D01*
X102650000Y-135316666D01*
X102683333Y-135350000D01*
X102750000Y-135383333D01*
X103016666Y-135383333D01*
X102350000Y-135083333D02*
X102316666Y-135050000D01*
X102250000Y-135016666D01*
X102083333Y-135016666D01*
X102016666Y-135050000D01*
X101983333Y-135083333D01*
X101950000Y-135150000D01*
X101950000Y-135216666D01*
X101983333Y-135316666D01*
X102383333Y-135716666D01*
X101950000Y-135716666D01*
X103133333Y-142650000D02*
X103200000Y-142616666D01*
X103300000Y-142616666D01*
X103400000Y-142650000D01*
X103466666Y-142716666D01*
X103500000Y-142783333D01*
X103533333Y-142916666D01*
X103533333Y-143016666D01*
X103500000Y-143150000D01*
X103466666Y-143216666D01*
X103400000Y-143283333D01*
X103300000Y-143316666D01*
X103233333Y-143316666D01*
X103133333Y-143283333D01*
X103100000Y-143250000D01*
X103100000Y-143016666D01*
X103233333Y-143016666D01*
X102800000Y-143316666D02*
X102800000Y-142616666D01*
X102400000Y-143316666D01*
X102400000Y-142616666D01*
X102066666Y-143316666D02*
X102066666Y-142616666D01*
X101900000Y-142616666D01*
X101800000Y-142650000D01*
X101733333Y-142716666D01*
X101700000Y-142783333D01*
X101666666Y-142916666D01*
X101666666Y-143016666D01*
X101700000Y-143150000D01*
X101733333Y-143216666D01*
X101800000Y-143283333D01*
X101900000Y-143316666D01*
X102066666Y-143316666D01*
X103350000Y-140683333D02*
X103250000Y-140716666D01*
X103083333Y-140716666D01*
X103016666Y-140683333D01*
X102983333Y-140650000D01*
X102950000Y-140583333D01*
X102950000Y-140516666D01*
X102983333Y-140450000D01*
X103016666Y-140416666D01*
X103083333Y-140383333D01*
X103216666Y-140350000D01*
X103283333Y-140316666D01*
X103316666Y-140283333D01*
X103350000Y-140216666D01*
X103350000Y-140150000D01*
X103316666Y-140083333D01*
X103283333Y-140050000D01*
X103216666Y-140016666D01*
X103050000Y-140016666D01*
X102950000Y-140050000D01*
X102650000Y-140716666D02*
X102650000Y-140016666D01*
X102483333Y-140016666D01*
X102383333Y-140050000D01*
X102316666Y-140116666D01*
X102283333Y-140183333D01*
X102250000Y-140316666D01*
X102250000Y-140416666D01*
X102283333Y-140550000D01*
X102316666Y-140616666D01*
X102383333Y-140683333D01*
X102483333Y-140716666D01*
X102650000Y-140716666D01*
X101983333Y-140516666D02*
X101650000Y-140516666D01*
X102050000Y-140716666D02*
X101816666Y-140016666D01*
X101583333Y-140716666D01*
X103016666Y-136916666D02*
X103016666Y-136216666D01*
X102750000Y-136216666D01*
X102683333Y-136250000D01*
X102650000Y-136283333D01*
X102616666Y-136350000D01*
X102616666Y-136450000D01*
X102650000Y-136516666D01*
X102683333Y-136550000D01*
X102750000Y-136583333D01*
X103016666Y-136583333D01*
X102016666Y-136450000D02*
X102016666Y-136916666D01*
X102183333Y-136183333D02*
X102350000Y-136683333D01*
X101916666Y-136683333D01*
X103183333Y-139450000D02*
X103216666Y-139483333D01*
X103316666Y-139516666D01*
X103383333Y-139516666D01*
X103483333Y-139483333D01*
X103550000Y-139416666D01*
X103583333Y-139350000D01*
X103616666Y-139216666D01*
X103616666Y-139116666D01*
X103583333Y-138983333D01*
X103550000Y-138916666D01*
X103483333Y-138850000D01*
X103383333Y-138816666D01*
X103316666Y-138816666D01*
X103216666Y-138850000D01*
X103183333Y-138883333D01*
X102550000Y-139516666D02*
X102883333Y-139516666D01*
X102883333Y-138816666D01*
X102316666Y-139516666D02*
X102316666Y-138816666D01*
X101916666Y-139516666D02*
X102216666Y-139116666D01*
X101916666Y-138816666D02*
X102316666Y-139216666D01*
X101616666Y-139450000D02*
X101583333Y-139483333D01*
X101616666Y-139516666D01*
X101650000Y-139483333D01*
X101616666Y-139450000D01*
X101616666Y-139516666D01*
X101616666Y-139250000D02*
X101650000Y-138850000D01*
X101616666Y-138816666D01*
X101583333Y-138850000D01*
X101616666Y-139250000D01*
X101616666Y-138816666D01*
X103450000Y-138216666D02*
X103450000Y-137516666D01*
X103183333Y-137516666D01*
X103116666Y-137550000D01*
X103083333Y-137583333D01*
X103050000Y-137650000D01*
X103050000Y-137750000D01*
X103083333Y-137816666D01*
X103116666Y-137850000D01*
X103183333Y-137883333D01*
X103450000Y-137883333D01*
X102383333Y-138216666D02*
X102783333Y-138216666D01*
X102583333Y-138216666D02*
X102583333Y-137516666D01*
X102650000Y-137616666D01*
X102716666Y-137683333D01*
X102783333Y-137716666D01*
X101783333Y-137516666D02*
X101916666Y-137516666D01*
X101983333Y-137550000D01*
X102016666Y-137583333D01*
X102083333Y-137683333D01*
X102116666Y-137816666D01*
X102116666Y-138083333D01*
X102083333Y-138150000D01*
X102050000Y-138183333D01*
X101983333Y-138216666D01*
X101850000Y-138216666D01*
X101783333Y-138183333D01*
X101750000Y-138150000D01*
X101716666Y-138083333D01*
X101716666Y-137916666D01*
X101750000Y-137850000D01*
X101783333Y-137816666D01*
X101850000Y-137783333D01*
X101983333Y-137783333D01*
X102050000Y-137816666D01*
X102083333Y-137850000D01*
X102116666Y-137916666D01*
X103650000Y-142016666D02*
X103650000Y-141316666D01*
X103483333Y-141316666D01*
X103383333Y-141350000D01*
X103316666Y-141416666D01*
X103283333Y-141483333D01*
X103250000Y-141616666D01*
X103250000Y-141716666D01*
X103283333Y-141850000D01*
X103316666Y-141916666D01*
X103383333Y-141983333D01*
X103483333Y-142016666D01*
X103650000Y-142016666D01*
X102983333Y-141816666D02*
X102650000Y-141816666D01*
X103050000Y-142016666D02*
X102816666Y-141316666D01*
X102583333Y-142016666D01*
X102450000Y-141316666D02*
X102050000Y-141316666D01*
X102250000Y-142016666D02*
X102250000Y-141316666D01*
X101850000Y-141816666D02*
X101516666Y-141816666D01*
X101916666Y-142016666D02*
X101683333Y-141316666D01*
X101450000Y-142016666D01*
X107633333Y-143216666D02*
X107633333Y-142516666D01*
X107366666Y-142516666D01*
X107300000Y-142550000D01*
X107266666Y-142583333D01*
X107233333Y-142650000D01*
X107233333Y-142750000D01*
X107266666Y-142816666D01*
X107300000Y-142850000D01*
X107366666Y-142883333D01*
X107633333Y-142883333D01*
X107100000Y-143283333D02*
X106566666Y-143283333D01*
X106400000Y-142850000D02*
X106166666Y-142850000D01*
X106066666Y-143216666D02*
X106400000Y-143216666D01*
X106400000Y-142516666D01*
X106066666Y-142516666D01*
X105766666Y-143216666D02*
X105766666Y-142516666D01*
X105366666Y-143216666D01*
X105366666Y-142516666D01*
X107016666Y-141950000D02*
X107050000Y-141983333D01*
X107150000Y-142016666D01*
X107216666Y-142016666D01*
X107316666Y-141983333D01*
X107383333Y-141916666D01*
X107416666Y-141850000D01*
X107450000Y-141716666D01*
X107450000Y-141616666D01*
X107416666Y-141483333D01*
X107383333Y-141416666D01*
X107316666Y-141350000D01*
X107216666Y-141316666D01*
X107150000Y-141316666D01*
X107050000Y-141350000D01*
X107016666Y-141383333D01*
X106383333Y-142016666D02*
X106716666Y-142016666D01*
X106716666Y-141316666D01*
X106150000Y-142016666D02*
X106150000Y-141316666D01*
X105750000Y-142016666D02*
X106050000Y-141616666D01*
X105750000Y-141316666D02*
X106150000Y-141716666D01*
X107333333Y-140783333D02*
X107233333Y-140816666D01*
X107066666Y-140816666D01*
X107000000Y-140783333D01*
X106966666Y-140750000D01*
X106933333Y-140683333D01*
X106933333Y-140616666D01*
X106966666Y-140550000D01*
X107000000Y-140516666D01*
X107066666Y-140483333D01*
X107200000Y-140450000D01*
X107266666Y-140416666D01*
X107300000Y-140383333D01*
X107333333Y-140316666D01*
X107333333Y-140250000D01*
X107300000Y-140183333D01*
X107266666Y-140150000D01*
X107200000Y-140116666D01*
X107033333Y-140116666D01*
X106933333Y-140150000D01*
X106233333Y-140750000D02*
X106266666Y-140783333D01*
X106366666Y-140816666D01*
X106433333Y-140816666D01*
X106533333Y-140783333D01*
X106600000Y-140716666D01*
X106633333Y-140650000D01*
X106666666Y-140516666D01*
X106666666Y-140416666D01*
X106633333Y-140283333D01*
X106600000Y-140216666D01*
X106533333Y-140150000D01*
X106433333Y-140116666D01*
X106366666Y-140116666D01*
X106266666Y-140150000D01*
X106233333Y-140183333D01*
X105600000Y-140816666D02*
X105933333Y-140816666D01*
X105933333Y-140116666D01*
X107750000Y-138816666D02*
X107350000Y-138816666D01*
X107550000Y-139516666D02*
X107550000Y-138816666D01*
X107116666Y-139516666D02*
X107116666Y-138816666D01*
X106783333Y-139516666D02*
X106783333Y-138816666D01*
X106550000Y-139316666D01*
X106316666Y-138816666D01*
X106316666Y-139516666D01*
X105983333Y-139150000D02*
X105750000Y-139150000D01*
X105650000Y-139516666D02*
X105983333Y-139516666D01*
X105983333Y-138816666D01*
X105650000Y-138816666D01*
X105350000Y-139450000D02*
X105316666Y-139483333D01*
X105350000Y-139516666D01*
X105383333Y-139483333D01*
X105350000Y-139450000D01*
X105350000Y-139516666D01*
X105350000Y-139250000D02*
X105383333Y-138850000D01*
X105350000Y-138816666D01*
X105316666Y-138850000D01*
X105350000Y-139250000D01*
X105350000Y-138816666D01*
X107350000Y-138216666D02*
X107350000Y-137516666D01*
X107083333Y-137516666D01*
X107016666Y-137550000D01*
X106983333Y-137583333D01*
X106950000Y-137650000D01*
X106950000Y-137750000D01*
X106983333Y-137816666D01*
X107016666Y-137850000D01*
X107083333Y-137883333D01*
X107350000Y-137883333D01*
X106283333Y-138216666D02*
X106683333Y-138216666D01*
X106483333Y-138216666D02*
X106483333Y-137516666D01*
X106550000Y-137616666D01*
X106616666Y-137683333D01*
X106683333Y-137716666D01*
X106050000Y-137516666D02*
X105583333Y-137516666D01*
X105883333Y-138216666D01*
X107016666Y-136916666D02*
X107016666Y-136216666D01*
X106750000Y-136216666D01*
X106683333Y-136250000D01*
X106650000Y-136283333D01*
X106616666Y-136350000D01*
X106616666Y-136450000D01*
X106650000Y-136516666D01*
X106683333Y-136550000D01*
X106750000Y-136583333D01*
X107016666Y-136583333D01*
X105983333Y-136216666D02*
X106316666Y-136216666D01*
X106350000Y-136550000D01*
X106316666Y-136516666D01*
X106250000Y-136483333D01*
X106083333Y-136483333D01*
X106016666Y-136516666D01*
X105983333Y-136550000D01*
X105950000Y-136616666D01*
X105950000Y-136783333D01*
X105983333Y-136850000D01*
X106016666Y-136883333D01*
X106083333Y-136916666D01*
X106250000Y-136916666D01*
X106316666Y-136883333D01*
X106350000Y-136850000D01*
X107016666Y-135716666D02*
X107016666Y-135016666D01*
X106750000Y-135016666D01*
X106683333Y-135050000D01*
X106650000Y-135083333D01*
X106616666Y-135150000D01*
X106616666Y-135250000D01*
X106650000Y-135316666D01*
X106683333Y-135350000D01*
X106750000Y-135383333D01*
X107016666Y-135383333D01*
X106383333Y-135016666D02*
X105950000Y-135016666D01*
X106183333Y-135283333D01*
X106083333Y-135283333D01*
X106016666Y-135316666D01*
X105983333Y-135350000D01*
X105950000Y-135416666D01*
X105950000Y-135583333D01*
X105983333Y-135650000D01*
X106016666Y-135683333D01*
X106083333Y-135716666D01*
X106283333Y-135716666D01*
X106350000Y-135683333D01*
X106383333Y-135650000D01*
X107433333Y-133616666D02*
X107200000Y-134316666D01*
X106966666Y-133616666D01*
X106333333Y-134250000D02*
X106366666Y-134283333D01*
X106466666Y-134316666D01*
X106533333Y-134316666D01*
X106633333Y-134283333D01*
X106700000Y-134216666D01*
X106733333Y-134150000D01*
X106766666Y-134016666D01*
X106766666Y-133916666D01*
X106733333Y-133783333D01*
X106700000Y-133716666D01*
X106633333Y-133650000D01*
X106533333Y-133616666D01*
X106466666Y-133616666D01*
X106366666Y-133650000D01*
X106333333Y-133683333D01*
X105633333Y-134250000D02*
X105666666Y-134283333D01*
X105766666Y-134316666D01*
X105833333Y-134316666D01*
X105933333Y-134283333D01*
X106000000Y-134216666D01*
X106033333Y-134150000D01*
X106066666Y-134016666D01*
X106066666Y-133916666D01*
X106033333Y-133783333D01*
X106000000Y-133716666D01*
X105933333Y-133650000D01*
X105833333Y-133616666D01*
X105766666Y-133616666D01*
X105666666Y-133650000D01*
X105633333Y-133683333D01*
X103166666Y-133950000D02*
X103066666Y-133983333D01*
X103033333Y-134016666D01*
X103000000Y-134083333D01*
X103000000Y-134183333D01*
X103033333Y-134250000D01*
X103066666Y-134283333D01*
X103133333Y-134316666D01*
X103400000Y-134316666D01*
X103400000Y-133616666D01*
X103166666Y-133616666D01*
X103100000Y-133650000D01*
X103066666Y-133683333D01*
X103033333Y-133750000D01*
X103033333Y-133816666D01*
X103066666Y-133883333D01*
X103100000Y-133916666D01*
X103166666Y-133950000D01*
X103400000Y-133950000D01*
X102400000Y-134316666D02*
X102400000Y-133950000D01*
X102433333Y-133883333D01*
X102500000Y-133850000D01*
X102633333Y-133850000D01*
X102700000Y-133883333D01*
X102400000Y-134283333D02*
X102466666Y-134316666D01*
X102633333Y-134316666D01*
X102700000Y-134283333D01*
X102733333Y-134216666D01*
X102733333Y-134150000D01*
X102700000Y-134083333D01*
X102633333Y-134050000D01*
X102466666Y-134050000D01*
X102400000Y-134016666D01*
X102166666Y-133850000D02*
X101900000Y-133850000D01*
X102066666Y-133616666D02*
X102066666Y-134216666D01*
X102033333Y-134283333D01*
X101966666Y-134316666D01*
X101900000Y-134316666D01*
X101766666Y-133850000D02*
X101500000Y-133850000D01*
X101666666Y-133616666D02*
X101666666Y-134216666D01*
X101633333Y-134283333D01*
X101566666Y-134316666D01*
X101500000Y-134316666D01*
X127889142Y-119546714D02*
X130174857Y-119546714D01*
M02*
