G04 #@! TF.GenerationSoftware,KiCad,Pcbnew,(5.1.0-1348-g4ca769472)*
G04 #@! TF.CreationDate,2021-05-21T20:59:56-07:00*
G04 #@! TF.ProjectId,loggerhw_v5.0,6c6f6767-6572-4687-975f-76352e302e6b,rev?*
G04 #@! TF.SameCoordinates,Original*
G04 #@! TF.FileFunction,Legend,Bot*
G04 #@! TF.FilePolarity,Positive*
%FSLAX46Y46*%
G04 Gerber Fmt 4.6, Leading zero omitted, Abs format (unit mm)*
G04 Created by KiCad (PCBNEW (5.1.0-1348-g4ca769472)) date 2021-05-21 20:59:56*
%MOMM*%
%LPD*%
G04 APERTURE LIST*
%ADD10C,0.100000*%
%ADD11C,0.150000*%
G04 APERTURE END LIST*
D10*
X127134817Y-100774500D02*
G75*
G03X127134817Y-100774500I-261817J0D01*
G01*
X113482317Y-100774500D02*
G75*
G03X113482317Y-100774500I-261817J0D01*
G01*
D11*
X135339833Y-148603500D02*
X135239833Y-148636833D01*
X135206500Y-148670166D01*
X135173166Y-148736833D01*
X135173166Y-148836833D01*
X135206500Y-148903500D01*
X135239833Y-148936833D01*
X135306500Y-148970166D01*
X135573166Y-148970166D01*
X135573166Y-148270166D01*
X135339833Y-148270166D01*
X135273166Y-148303500D01*
X135239833Y-148336833D01*
X135206500Y-148403500D01*
X135206500Y-148470166D01*
X135239833Y-148536833D01*
X135273166Y-148570166D01*
X135339833Y-148603500D01*
X135573166Y-148603500D01*
X134906500Y-148770166D02*
X134573166Y-148770166D01*
X134973166Y-148970166D02*
X134739833Y-148270166D01*
X134506500Y-148970166D01*
X134373166Y-148270166D02*
X133973166Y-148270166D01*
X134173166Y-148970166D02*
X134173166Y-148270166D01*
X133839833Y-148270166D02*
X133439833Y-148270166D01*
X133639833Y-148970166D02*
X133639833Y-148270166D01*
X135339833Y-128347000D02*
X135239833Y-128380333D01*
X135206500Y-128413666D01*
X135173166Y-128480333D01*
X135173166Y-128580333D01*
X135206500Y-128647000D01*
X135239833Y-128680333D01*
X135306500Y-128713666D01*
X135573166Y-128713666D01*
X135573166Y-128013666D01*
X135339833Y-128013666D01*
X135273166Y-128047000D01*
X135239833Y-128080333D01*
X135206500Y-128147000D01*
X135206500Y-128213666D01*
X135239833Y-128280333D01*
X135273166Y-128313666D01*
X135339833Y-128347000D01*
X135573166Y-128347000D01*
X134906500Y-128513666D02*
X134573166Y-128513666D01*
X134973166Y-128713666D02*
X134739833Y-128013666D01*
X134506500Y-128713666D01*
X134373166Y-128013666D02*
X133973166Y-128013666D01*
X134173166Y-128713666D02*
X134173166Y-128013666D01*
X133839833Y-128013666D02*
X133439833Y-128013666D01*
X133639833Y-128713666D02*
X133639833Y-128013666D01*
D10*
X121031000Y-112522000D02*
X121031000Y-114046000D01*
X118745000Y-112522000D02*
X121031000Y-112522000D01*
X118745000Y-114046000D02*
X118745000Y-112522000D01*
X121031000Y-114046000D02*
X113919000Y-114046000D01*
X123761500Y-116332000D02*
X123761500Y-117856000D01*
X125793500Y-116332000D02*
X123761500Y-116332000D01*
X125793500Y-117856000D02*
X125793500Y-116332000D01*
X118935500Y-117856000D02*
X125793500Y-117856000D01*
D11*
X125010833Y-116710666D02*
X125010833Y-117210666D01*
X125044166Y-117310666D01*
X125110833Y-117377333D01*
X125210833Y-117410666D01*
X125277500Y-117410666D01*
X124744166Y-116710666D02*
X124310833Y-116710666D01*
X124544166Y-116977333D01*
X124444166Y-116977333D01*
X124377500Y-117010666D01*
X124344166Y-117044000D01*
X124310833Y-117110666D01*
X124310833Y-117277333D01*
X124344166Y-117344000D01*
X124377500Y-117377333D01*
X124444166Y-117410666D01*
X124644166Y-117410666D01*
X124710833Y-117377333D01*
X124744166Y-117344000D01*
X120248333Y-112900666D02*
X120248333Y-113400666D01*
X120281666Y-113500666D01*
X120348333Y-113567333D01*
X120448333Y-113600666D01*
X120515000Y-113600666D01*
X119948333Y-112967333D02*
X119915000Y-112934000D01*
X119848333Y-112900666D01*
X119681666Y-112900666D01*
X119615000Y-112934000D01*
X119581666Y-112967333D01*
X119548333Y-113034000D01*
X119548333Y-113100666D01*
X119581666Y-113200666D01*
X119981666Y-113600666D01*
X119548333Y-113600666D01*
X114934166Y-101800666D02*
X114234166Y-101800666D01*
X114234166Y-102067333D01*
X114267500Y-102134000D01*
X114300833Y-102167333D01*
X114367500Y-102200666D01*
X114467500Y-102200666D01*
X114534166Y-102167333D01*
X114567500Y-102134000D01*
X114600833Y-102067333D01*
X114600833Y-101800666D01*
X114234166Y-102434000D02*
X114234166Y-102867333D01*
X114500833Y-102634000D01*
X114500833Y-102734000D01*
X114534166Y-102800666D01*
X114567500Y-102834000D01*
X114634166Y-102867333D01*
X114800833Y-102867333D01*
X114867500Y-102834000D01*
X114900833Y-102800666D01*
X114934166Y-102734000D01*
X114934166Y-102534000D01*
X114900833Y-102467333D01*
X114867500Y-102434000D01*
X114934166Y-103534000D02*
X114934166Y-103134000D01*
X114934166Y-103334000D02*
X114234166Y-103334000D01*
X114334166Y-103267333D01*
X114400833Y-103200666D01*
X114434166Y-103134000D01*
X116521666Y-101800666D02*
X115821666Y-101800666D01*
X115821666Y-102067333D01*
X115855000Y-102134000D01*
X115888333Y-102167333D01*
X115955000Y-102200666D01*
X116055000Y-102200666D01*
X116121666Y-102167333D01*
X116155000Y-102134000D01*
X116188333Y-102067333D01*
X116188333Y-101800666D01*
X115821666Y-102434000D02*
X115821666Y-102867333D01*
X116088333Y-102634000D01*
X116088333Y-102734000D01*
X116121666Y-102800666D01*
X116155000Y-102834000D01*
X116221666Y-102867333D01*
X116388333Y-102867333D01*
X116455000Y-102834000D01*
X116488333Y-102800666D01*
X116521666Y-102734000D01*
X116521666Y-102534000D01*
X116488333Y-102467333D01*
X116455000Y-102434000D01*
X115821666Y-103300666D02*
X115821666Y-103367333D01*
X115855000Y-103434000D01*
X115888333Y-103467333D01*
X115955000Y-103500666D01*
X116088333Y-103534000D01*
X116255000Y-103534000D01*
X116388333Y-103500666D01*
X116455000Y-103467333D01*
X116488333Y-103434000D01*
X116521666Y-103367333D01*
X116521666Y-103300666D01*
X116488333Y-103234000D01*
X116455000Y-103200666D01*
X116388333Y-103167333D01*
X116255000Y-103134000D01*
X116088333Y-103134000D01*
X115955000Y-103167333D01*
X115888333Y-103200666D01*
X115855000Y-103234000D01*
X115821666Y-103300666D01*
D10*
G36*
X115125500Y-101282500D02*
G01*
X114109500Y-101282500D01*
X114109500Y-100266500D01*
X115125500Y-100266500D01*
X115125500Y-101282500D01*
G37*
X115125500Y-101282500D02*
X114109500Y-101282500D01*
X114109500Y-100266500D01*
X115125500Y-100266500D01*
X115125500Y-101282500D01*
G36*
X116713000Y-101282500D02*
G01*
X115697000Y-101282500D01*
X115697000Y-100266500D01*
X116713000Y-100266500D01*
X116713000Y-101282500D01*
G37*
X116713000Y-101282500D02*
X115697000Y-101282500D01*
X115697000Y-100266500D01*
X116713000Y-100266500D01*
X116713000Y-101282500D01*
G36*
X118237000Y-101282500D02*
G01*
X117221000Y-101282500D01*
X117221000Y-100266500D01*
X118237000Y-100266500D01*
X118237000Y-101282500D01*
G37*
X118237000Y-101282500D02*
X117221000Y-101282500D01*
X117221000Y-100266500D01*
X118237000Y-100266500D01*
X118237000Y-101282500D01*
G36*
X119761000Y-101282500D02*
G01*
X118745000Y-101282500D01*
X118745000Y-100266500D01*
X119761000Y-100266500D01*
X119761000Y-101282500D01*
G37*
X119761000Y-101282500D02*
X118745000Y-101282500D01*
X118745000Y-100266500D01*
X119761000Y-100266500D01*
X119761000Y-101282500D01*
G36*
X121285000Y-101282500D02*
G01*
X120269000Y-101282500D01*
X120269000Y-100266500D01*
X121285000Y-100266500D01*
X121285000Y-101282500D01*
G37*
X121285000Y-101282500D02*
X120269000Y-101282500D01*
X120269000Y-100266500D01*
X121285000Y-100266500D01*
X121285000Y-101282500D01*
G36*
X122809000Y-101282500D02*
G01*
X121793000Y-101282500D01*
X121793000Y-100266500D01*
X122809000Y-100266500D01*
X122809000Y-101282500D01*
G37*
X122809000Y-101282500D02*
X121793000Y-101282500D01*
X121793000Y-100266500D01*
X122809000Y-100266500D01*
X122809000Y-101282500D01*
G36*
X124396500Y-101282500D02*
G01*
X123380500Y-101282500D01*
X123380500Y-100266500D01*
X124396500Y-100266500D01*
X124396500Y-101282500D01*
G37*
X124396500Y-101282500D02*
X123380500Y-101282500D01*
X123380500Y-100266500D01*
X124396500Y-100266500D01*
X124396500Y-101282500D01*
G36*
X125984000Y-101282500D02*
G01*
X124968000Y-101282500D01*
X124968000Y-100266500D01*
X125984000Y-100266500D01*
X125984000Y-101282500D01*
G37*
X125984000Y-101282500D02*
X124968000Y-101282500D01*
X124968000Y-100266500D01*
X125984000Y-100266500D01*
X125984000Y-101282500D01*
D11*
X124171833Y-101767333D02*
X124205166Y-101867333D01*
X124205166Y-102034000D01*
X124171833Y-102100666D01*
X124138500Y-102134000D01*
X124071833Y-102167333D01*
X124005166Y-102167333D01*
X123938500Y-102134000D01*
X123905166Y-102100666D01*
X123871833Y-102034000D01*
X123838500Y-101900666D01*
X123805166Y-101834000D01*
X123771833Y-101800666D01*
X123705166Y-101767333D01*
X123638500Y-101767333D01*
X123571833Y-101800666D01*
X123538500Y-101834000D01*
X123505166Y-101900666D01*
X123505166Y-102067333D01*
X123538500Y-102167333D01*
X123505166Y-102400666D02*
X124205166Y-102567333D01*
X123705166Y-102700666D01*
X124205166Y-102834000D01*
X123505166Y-103000666D01*
X123505166Y-103400666D02*
X123505166Y-103534000D01*
X123538500Y-103600666D01*
X123605166Y-103667333D01*
X123738500Y-103700666D01*
X123971833Y-103700666D01*
X124105166Y-103667333D01*
X124171833Y-103600666D01*
X124205166Y-103534000D01*
X124205166Y-103400666D01*
X124171833Y-103334000D01*
X124105166Y-103267333D01*
X123971833Y-103234000D01*
X123738500Y-103234000D01*
X123605166Y-103267333D01*
X123538500Y-103334000D01*
X123505166Y-103400666D01*
X122617666Y-102200666D02*
X122284333Y-101967333D01*
X122617666Y-101800666D02*
X121917666Y-101800666D01*
X121917666Y-102067333D01*
X121951000Y-102134000D01*
X121984333Y-102167333D01*
X122051000Y-102200666D01*
X122151000Y-102200666D01*
X122217666Y-102167333D01*
X122251000Y-102134000D01*
X122284333Y-102067333D01*
X122284333Y-101800666D01*
X122584333Y-102467333D02*
X122617666Y-102567333D01*
X122617666Y-102734000D01*
X122584333Y-102800666D01*
X122551000Y-102834000D01*
X122484333Y-102867333D01*
X122417666Y-102867333D01*
X122351000Y-102834000D01*
X122317666Y-102800666D01*
X122284333Y-102734000D01*
X122251000Y-102600666D01*
X122217666Y-102534000D01*
X122184333Y-102500666D01*
X122117666Y-102467333D01*
X122051000Y-102467333D01*
X121984333Y-102500666D01*
X121951000Y-102534000D01*
X121917666Y-102600666D01*
X121917666Y-102767333D01*
X121951000Y-102867333D01*
X121917666Y-103067333D02*
X121917666Y-103467333D01*
X122617666Y-103267333D02*
X121917666Y-103267333D01*
X119536333Y-101767333D02*
X119569666Y-101867333D01*
X119569666Y-102034000D01*
X119536333Y-102100666D01*
X119503000Y-102134000D01*
X119436333Y-102167333D01*
X119369666Y-102167333D01*
X119303000Y-102134000D01*
X119269666Y-102100666D01*
X119236333Y-102034000D01*
X119203000Y-101900666D01*
X119169666Y-101834000D01*
X119136333Y-101800666D01*
X119069666Y-101767333D01*
X119003000Y-101767333D01*
X118936333Y-101800666D01*
X118903000Y-101834000D01*
X118869666Y-101900666D01*
X118869666Y-102067333D01*
X118903000Y-102167333D01*
X118869666Y-102400666D02*
X119569666Y-102567333D01*
X119069666Y-102700666D01*
X119569666Y-102834000D01*
X118869666Y-103000666D01*
X119569666Y-103267333D02*
X118869666Y-103267333D01*
X118869666Y-103434000D01*
X118903000Y-103534000D01*
X118969666Y-103600666D01*
X119036333Y-103634000D01*
X119169666Y-103667333D01*
X119269666Y-103667333D01*
X119403000Y-103634000D01*
X119469666Y-103600666D01*
X119536333Y-103534000D01*
X119569666Y-103434000D01*
X119569666Y-103267333D01*
X119569666Y-103967333D02*
X118869666Y-103967333D01*
X118869666Y-104434000D02*
X118869666Y-104567333D01*
X118903000Y-104634000D01*
X118969666Y-104700666D01*
X119103000Y-104734000D01*
X119336333Y-104734000D01*
X119469666Y-104700666D01*
X119536333Y-104634000D01*
X119569666Y-104567333D01*
X119569666Y-104434000D01*
X119536333Y-104367333D01*
X119469666Y-104300666D01*
X119336333Y-104267333D01*
X119103000Y-104267333D01*
X118969666Y-104300666D01*
X118903000Y-104367333D01*
X118869666Y-104434000D01*
X121060333Y-101767333D02*
X121093666Y-101867333D01*
X121093666Y-102034000D01*
X121060333Y-102100666D01*
X121027000Y-102134000D01*
X120960333Y-102167333D01*
X120893666Y-102167333D01*
X120827000Y-102134000D01*
X120793666Y-102100666D01*
X120760333Y-102034000D01*
X120727000Y-101900666D01*
X120693666Y-101834000D01*
X120660333Y-101800666D01*
X120593666Y-101767333D01*
X120527000Y-101767333D01*
X120460333Y-101800666D01*
X120427000Y-101834000D01*
X120393666Y-101900666D01*
X120393666Y-102067333D01*
X120427000Y-102167333D01*
X120393666Y-102400666D02*
X121093666Y-102567333D01*
X120593666Y-102700666D01*
X121093666Y-102834000D01*
X120393666Y-103000666D01*
X121027000Y-103667333D02*
X121060333Y-103634000D01*
X121093666Y-103534000D01*
X121093666Y-103467333D01*
X121060333Y-103367333D01*
X120993666Y-103300666D01*
X120927000Y-103267333D01*
X120793666Y-103234000D01*
X120693666Y-103234000D01*
X120560333Y-103267333D01*
X120493666Y-103300666D01*
X120427000Y-103367333D01*
X120393666Y-103467333D01*
X120393666Y-103534000D01*
X120427000Y-103634000D01*
X120460333Y-103667333D01*
X121093666Y-104300666D02*
X121093666Y-103967333D01*
X120393666Y-103967333D01*
X121093666Y-104534000D02*
X120393666Y-104534000D01*
X121093666Y-104934000D02*
X120693666Y-104634000D01*
X120393666Y-104934000D02*
X120793666Y-104534000D01*
X125426000Y-102034000D02*
X125459333Y-102134000D01*
X125492666Y-102167333D01*
X125559333Y-102200666D01*
X125659333Y-102200666D01*
X125726000Y-102167333D01*
X125759333Y-102134000D01*
X125792666Y-102067333D01*
X125792666Y-101800666D01*
X125092666Y-101800666D01*
X125092666Y-102034000D01*
X125126000Y-102100666D01*
X125159333Y-102134000D01*
X125226000Y-102167333D01*
X125292666Y-102167333D01*
X125359333Y-102134000D01*
X125392666Y-102100666D01*
X125426000Y-102034000D01*
X125426000Y-101800666D01*
X125592666Y-102467333D02*
X125592666Y-102800666D01*
X125792666Y-102400666D02*
X125092666Y-102634000D01*
X125792666Y-102867333D01*
X125092666Y-103000666D02*
X125092666Y-103400666D01*
X125792666Y-103200666D02*
X125092666Y-103200666D01*
X125092666Y-103534000D02*
X125092666Y-103934000D01*
X125792666Y-103734000D02*
X125092666Y-103734000D01*
X117379000Y-102167333D02*
X117345666Y-102100666D01*
X117345666Y-102000666D01*
X117379000Y-101900666D01*
X117445666Y-101834000D01*
X117512333Y-101800666D01*
X117645666Y-101767333D01*
X117745666Y-101767333D01*
X117879000Y-101800666D01*
X117945666Y-101834000D01*
X118012333Y-101900666D01*
X118045666Y-102000666D01*
X118045666Y-102067333D01*
X118012333Y-102167333D01*
X117979000Y-102200666D01*
X117745666Y-102200666D01*
X117745666Y-102067333D01*
X118045666Y-102500666D02*
X117345666Y-102500666D01*
X118045666Y-102900666D01*
X117345666Y-102900666D01*
X118045666Y-103234000D02*
X117345666Y-103234000D01*
X117345666Y-103400666D01*
X117379000Y-103500666D01*
X117445666Y-103567333D01*
X117512333Y-103600666D01*
X117645666Y-103634000D01*
X117745666Y-103634000D01*
X117879000Y-103600666D01*
X117945666Y-103567333D01*
X118012333Y-103500666D01*
X118045666Y-103400666D01*
X118045666Y-103234000D01*
X109855142Y-123737714D02*
X112140857Y-123737714D01*
X110998000Y-122594857D02*
X110998000Y-124880571D01*
X109855142Y-139612714D02*
X112140857Y-139612714D01*
X127889142Y-139612714D02*
X130174857Y-139612714D01*
X129032000Y-138469857D02*
X129032000Y-140755571D01*
D10*
G36*
X130873500Y-136017000D02*
G01*
X129603500Y-136017000D01*
X129603500Y-136652000D01*
X128333500Y-136652000D01*
X128333500Y-136017000D01*
X127063500Y-136017000D01*
X127063500Y-126492000D01*
X130873500Y-126492000D01*
X130873500Y-136017000D01*
G37*
X130873500Y-136017000D02*
X129603500Y-136017000D01*
X129603500Y-136652000D01*
X128333500Y-136652000D01*
X128333500Y-136017000D01*
X127063500Y-136017000D01*
X127063500Y-126492000D01*
X130873500Y-126492000D01*
X130873500Y-136017000D01*
G36*
X111569500Y-127127000D02*
G01*
X112839500Y-127127000D01*
X112839500Y-136652000D01*
X109029500Y-136652000D01*
X109029500Y-127127000D01*
X110299500Y-127127000D01*
X110299500Y-126492000D01*
X111569500Y-126492000D01*
X111569500Y-127127000D01*
G37*
X111569500Y-127127000D02*
X112839500Y-127127000D01*
X112839500Y-136652000D01*
X109029500Y-136652000D01*
X109029500Y-127127000D01*
X110299500Y-127127000D01*
X110299500Y-126492000D01*
X111569500Y-126492000D01*
X111569500Y-127127000D01*
X106396266Y-160676066D02*
X106729600Y-160676066D01*
X106729600Y-159976066D01*
X106029600Y-159976066D02*
X105896266Y-159976066D01*
X105829600Y-160009400D01*
X105762933Y-160076066D01*
X105729600Y-160209400D01*
X105729600Y-160442733D01*
X105762933Y-160576066D01*
X105829600Y-160642733D01*
X105896266Y-160676066D01*
X106029600Y-160676066D01*
X106096266Y-160642733D01*
X106162933Y-160576066D01*
X106196266Y-160442733D01*
X106196266Y-160209400D01*
X106162933Y-160076066D01*
X106096266Y-160009400D01*
X106029600Y-159976066D01*
X105062933Y-160009400D02*
X105129600Y-159976066D01*
X105229600Y-159976066D01*
X105329600Y-160009400D01*
X105396266Y-160076066D01*
X105429600Y-160142733D01*
X105462933Y-160276066D01*
X105462933Y-160376066D01*
X105429600Y-160509400D01*
X105396266Y-160576066D01*
X105329600Y-160642733D01*
X105229600Y-160676066D01*
X105162933Y-160676066D01*
X105062933Y-160642733D01*
X105029600Y-160609400D01*
X105029600Y-160376066D01*
X105162933Y-160376066D01*
X104362933Y-160009400D02*
X104429600Y-159976066D01*
X104529600Y-159976066D01*
X104629600Y-160009400D01*
X104696266Y-160076066D01*
X104729600Y-160142733D01*
X104762933Y-160276066D01*
X104762933Y-160376066D01*
X104729600Y-160509400D01*
X104696266Y-160576066D01*
X104629600Y-160642733D01*
X104529600Y-160676066D01*
X104462933Y-160676066D01*
X104362933Y-160642733D01*
X104329600Y-160609400D01*
X104329600Y-160376066D01*
X104462933Y-160376066D01*
X104029600Y-160309400D02*
X103796266Y-160309400D01*
X103696266Y-160676066D02*
X104029600Y-160676066D01*
X104029600Y-159976066D01*
X103696266Y-159976066D01*
X102996266Y-160676066D02*
X103229600Y-160342733D01*
X103396266Y-160676066D02*
X103396266Y-159976066D01*
X103129600Y-159976066D01*
X103062933Y-160009400D01*
X103029600Y-160042733D01*
X102996266Y-160109400D01*
X102996266Y-160209400D01*
X103029600Y-160276066D01*
X103062933Y-160309400D01*
X103129600Y-160342733D01*
X103396266Y-160342733D01*
X102262933Y-159976066D02*
X102029600Y-160676066D01*
X101796266Y-159976066D01*
X101229600Y-159976066D02*
X101562933Y-159976066D01*
X101596266Y-160309400D01*
X101562933Y-160276066D01*
X101496266Y-160242733D01*
X101329600Y-160242733D01*
X101262933Y-160276066D01*
X101229600Y-160309400D01*
X101196266Y-160376066D01*
X101196266Y-160542733D01*
X101229600Y-160609400D01*
X101262933Y-160642733D01*
X101329600Y-160676066D01*
X101496266Y-160676066D01*
X101562933Y-160642733D01*
X101596266Y-160609400D01*
X100896266Y-160609400D02*
X100862933Y-160642733D01*
X100896266Y-160676066D01*
X100929600Y-160642733D01*
X100896266Y-160609400D01*
X100896266Y-160676066D01*
X100196266Y-160676066D02*
X100596266Y-160676066D01*
X100396266Y-160676066D02*
X100396266Y-159976066D01*
X100462933Y-160076066D01*
X100529600Y-160142733D01*
X100596266Y-160176066D01*
X106579600Y-161126066D02*
X106512933Y-161126066D01*
X106446266Y-161159400D01*
X106412933Y-161192733D01*
X106379600Y-161259400D01*
X106346266Y-161392733D01*
X106346266Y-161559400D01*
X106379600Y-161692733D01*
X106412933Y-161759400D01*
X106446266Y-161792733D01*
X106512933Y-161826066D01*
X106579600Y-161826066D01*
X106646266Y-161792733D01*
X106679600Y-161759400D01*
X106712933Y-161692733D01*
X106746266Y-161559400D01*
X106746266Y-161392733D01*
X106712933Y-161259400D01*
X106679600Y-161192733D01*
X106646266Y-161159400D01*
X106579600Y-161126066D01*
X105712933Y-161126066D02*
X106046266Y-161126066D01*
X106079600Y-161459400D01*
X106046266Y-161426066D01*
X105979600Y-161392733D01*
X105812933Y-161392733D01*
X105746266Y-161426066D01*
X105712933Y-161459400D01*
X105679600Y-161526066D01*
X105679600Y-161692733D01*
X105712933Y-161759400D01*
X105746266Y-161792733D01*
X105812933Y-161826066D01*
X105979600Y-161826066D01*
X106046266Y-161792733D01*
X106079600Y-161759400D01*
X104879600Y-161092733D02*
X105479600Y-161992733D01*
X104679600Y-161192733D02*
X104646266Y-161159400D01*
X104579600Y-161126066D01*
X104412933Y-161126066D01*
X104346266Y-161159400D01*
X104312933Y-161192733D01*
X104279600Y-161259400D01*
X104279600Y-161326066D01*
X104312933Y-161426066D01*
X104712933Y-161826066D01*
X104279600Y-161826066D01*
X103612933Y-161826066D02*
X104012933Y-161826066D01*
X103812933Y-161826066D02*
X103812933Y-161126066D01*
X103879600Y-161226066D01*
X103946266Y-161292733D01*
X104012933Y-161326066D01*
X102812933Y-161092733D02*
X103412933Y-161992733D01*
X102612933Y-161192733D02*
X102579600Y-161159400D01*
X102512933Y-161126066D01*
X102346266Y-161126066D01*
X102279600Y-161159400D01*
X102246266Y-161192733D01*
X102212933Y-161259400D01*
X102212933Y-161326066D01*
X102246266Y-161426066D01*
X102646266Y-161826066D01*
X102212933Y-161826066D01*
X101779600Y-161126066D02*
X101712933Y-161126066D01*
X101646266Y-161159400D01*
X101612933Y-161192733D01*
X101579600Y-161259400D01*
X101546266Y-161392733D01*
X101546266Y-161559400D01*
X101579600Y-161692733D01*
X101612933Y-161759400D01*
X101646266Y-161792733D01*
X101712933Y-161826066D01*
X101779600Y-161826066D01*
X101846266Y-161792733D01*
X101879600Y-161759400D01*
X101912933Y-161692733D01*
X101946266Y-161559400D01*
X101946266Y-161392733D01*
X101912933Y-161259400D01*
X101879600Y-161192733D01*
X101846266Y-161159400D01*
X101779600Y-161126066D01*
X101279600Y-161192733D02*
X101246266Y-161159400D01*
X101179600Y-161126066D01*
X101012933Y-161126066D01*
X100946266Y-161159400D01*
X100912933Y-161192733D01*
X100879600Y-161259400D01*
X100879600Y-161326066D01*
X100912933Y-161426066D01*
X101312933Y-161826066D01*
X100879600Y-161826066D01*
X100212933Y-161826066D02*
X100612933Y-161826066D01*
X100412933Y-161826066D02*
X100412933Y-161126066D01*
X100479600Y-161226066D01*
X100546266Y-161292733D01*
X100612933Y-161326066D01*
X137122500Y-162485000D02*
X137122500Y-158485000D01*
X130873500Y-162496500D02*
X137122500Y-162485000D01*
X130873500Y-158496500D02*
X130873500Y-162496500D01*
X123634500Y-157505000D02*
X123634500Y-155005000D01*
X116552500Y-157505000D02*
X123634500Y-157505000D01*
X116552500Y-155005000D02*
X116552500Y-157505000D01*
X125793500Y-120904000D02*
X125793500Y-117856000D01*
X118935500Y-120904000D02*
X125793500Y-120904000D01*
X118935500Y-117856000D02*
X118935500Y-120904000D01*
X121031000Y-117094000D02*
X121031000Y-114046000D01*
X113919000Y-117094000D02*
X121031000Y-117094000D01*
X113919000Y-114046000D02*
X113919000Y-117094000D01*
D11*
X124326166Y-118504000D02*
X123626166Y-118504000D01*
X123626166Y-118770666D01*
X123659500Y-118837333D01*
X123692833Y-118870666D01*
X123759500Y-118904000D01*
X123859500Y-118904000D01*
X123926166Y-118870666D01*
X123959500Y-118837333D01*
X123992833Y-118770666D01*
X123992833Y-118504000D01*
X123692833Y-119170666D02*
X123659500Y-119204000D01*
X123626166Y-119270666D01*
X123626166Y-119437333D01*
X123659500Y-119504000D01*
X123692833Y-119537333D01*
X123759500Y-119570666D01*
X123826166Y-119570666D01*
X123926166Y-119537333D01*
X124326166Y-119137333D01*
X124326166Y-119570666D01*
X124326166Y-119904000D02*
X124326166Y-120037333D01*
X124292833Y-120104000D01*
X124259500Y-120137333D01*
X124159500Y-120204000D01*
X124026166Y-120237333D01*
X123759500Y-120237333D01*
X123692833Y-120204000D01*
X123659500Y-120170666D01*
X123626166Y-120104000D01*
X123626166Y-119970666D01*
X123659500Y-119904000D01*
X123692833Y-119870666D01*
X123759500Y-119837333D01*
X123926166Y-119837333D01*
X123992833Y-119870666D01*
X124026166Y-119904000D01*
X124059500Y-119970666D01*
X124059500Y-120104000D01*
X124026166Y-120170666D01*
X123992833Y-120204000D01*
X123926166Y-120237333D01*
X123192833Y-118454000D02*
X123226166Y-118554000D01*
X123226166Y-118720666D01*
X123192833Y-118787333D01*
X123159500Y-118820666D01*
X123092833Y-118854000D01*
X123026166Y-118854000D01*
X122959500Y-118820666D01*
X122926166Y-118787333D01*
X122892833Y-118720666D01*
X122859500Y-118587333D01*
X122826166Y-118520666D01*
X122792833Y-118487333D01*
X122726166Y-118454000D01*
X122659500Y-118454000D01*
X122592833Y-118487333D01*
X122559500Y-118520666D01*
X122526166Y-118587333D01*
X122526166Y-118754000D01*
X122559500Y-118854000D01*
X123159500Y-119554000D02*
X123192833Y-119520666D01*
X123226166Y-119420666D01*
X123226166Y-119354000D01*
X123192833Y-119254000D01*
X123126166Y-119187333D01*
X123059500Y-119154000D01*
X122926166Y-119120666D01*
X122826166Y-119120666D01*
X122692833Y-119154000D01*
X122626166Y-119187333D01*
X122559500Y-119254000D01*
X122526166Y-119354000D01*
X122526166Y-119420666D01*
X122559500Y-119520666D01*
X122592833Y-119554000D01*
X123226166Y-119854000D02*
X122526166Y-119854000D01*
X123226166Y-120254000D02*
X122826166Y-119954000D01*
X122526166Y-120254000D02*
X122926166Y-119854000D01*
X122126166Y-118254000D02*
X121426166Y-118254000D01*
X121926166Y-118487333D01*
X121426166Y-118720666D01*
X122126166Y-118720666D01*
X121426166Y-119187333D02*
X121426166Y-119320666D01*
X121459500Y-119387333D01*
X121526166Y-119454000D01*
X121659500Y-119487333D01*
X121892833Y-119487333D01*
X122026166Y-119454000D01*
X122092833Y-119387333D01*
X122126166Y-119320666D01*
X122126166Y-119187333D01*
X122092833Y-119120666D01*
X122026166Y-119054000D01*
X121892833Y-119020666D01*
X121659500Y-119020666D01*
X121526166Y-119054000D01*
X121459500Y-119120666D01*
X121426166Y-119187333D01*
X122092833Y-119754000D02*
X122126166Y-119854000D01*
X122126166Y-120020666D01*
X122092833Y-120087333D01*
X122059500Y-120120666D01*
X121992833Y-120154000D01*
X121926166Y-120154000D01*
X121859500Y-120120666D01*
X121826166Y-120087333D01*
X121792833Y-120020666D01*
X121759500Y-119887333D01*
X121726166Y-119820666D01*
X121692833Y-119787333D01*
X121626166Y-119754000D01*
X121559500Y-119754000D01*
X121492833Y-119787333D01*
X121459500Y-119820666D01*
X121426166Y-119887333D01*
X121426166Y-120054000D01*
X121459500Y-120154000D01*
X122126166Y-120454000D02*
X121426166Y-120454000D01*
X121026166Y-118254000D02*
X120326166Y-118254000D01*
X120826166Y-118487333D01*
X120326166Y-118720666D01*
X121026166Y-118720666D01*
X121026166Y-119054000D02*
X120326166Y-119054000D01*
X120992833Y-119354000D02*
X121026166Y-119454000D01*
X121026166Y-119620666D01*
X120992833Y-119687333D01*
X120959500Y-119720666D01*
X120892833Y-119754000D01*
X120826166Y-119754000D01*
X120759500Y-119720666D01*
X120726166Y-119687333D01*
X120692833Y-119620666D01*
X120659500Y-119487333D01*
X120626166Y-119420666D01*
X120592833Y-119387333D01*
X120526166Y-119354000D01*
X120459500Y-119354000D01*
X120392833Y-119387333D01*
X120359500Y-119420666D01*
X120326166Y-119487333D01*
X120326166Y-119654000D01*
X120359500Y-119754000D01*
X120326166Y-120187333D02*
X120326166Y-120320666D01*
X120359500Y-120387333D01*
X120426166Y-120454000D01*
X120559500Y-120487333D01*
X120792833Y-120487333D01*
X120926166Y-120454000D01*
X120992833Y-120387333D01*
X121026166Y-120320666D01*
X121026166Y-120187333D01*
X120992833Y-120120666D01*
X120926166Y-120054000D01*
X120792833Y-120020666D01*
X120559500Y-120020666D01*
X120426166Y-120054000D01*
X120359500Y-120120666D01*
X120326166Y-120187333D01*
X119259500Y-118820666D02*
X119226166Y-118754000D01*
X119226166Y-118654000D01*
X119259500Y-118554000D01*
X119326166Y-118487333D01*
X119392833Y-118454000D01*
X119526166Y-118420666D01*
X119626166Y-118420666D01*
X119759500Y-118454000D01*
X119826166Y-118487333D01*
X119892833Y-118554000D01*
X119926166Y-118654000D01*
X119926166Y-118720666D01*
X119892833Y-118820666D01*
X119859500Y-118854000D01*
X119626166Y-118854000D01*
X119626166Y-118720666D01*
X119926166Y-119154000D02*
X119226166Y-119154000D01*
X119926166Y-119554000D01*
X119226166Y-119554000D01*
X119926166Y-119887333D02*
X119226166Y-119887333D01*
X119226166Y-120054000D01*
X119259500Y-120154000D01*
X119326166Y-120220666D01*
X119392833Y-120254000D01*
X119526166Y-120287333D01*
X119626166Y-120287333D01*
X119759500Y-120254000D01*
X119826166Y-120220666D01*
X119892833Y-120154000D01*
X119926166Y-120054000D01*
X119926166Y-119887333D01*
X125059500Y-118570666D02*
X125092833Y-118670666D01*
X125126166Y-118704000D01*
X125192833Y-118737333D01*
X125292833Y-118737333D01*
X125359500Y-118704000D01*
X125392833Y-118670666D01*
X125426166Y-118604000D01*
X125426166Y-118337333D01*
X124726166Y-118337333D01*
X124726166Y-118570666D01*
X124759500Y-118637333D01*
X124792833Y-118670666D01*
X124859500Y-118704000D01*
X124926166Y-118704000D01*
X124992833Y-118670666D01*
X125026166Y-118637333D01*
X125059500Y-118570666D01*
X125059500Y-118337333D01*
X125226166Y-119004000D02*
X125226166Y-119337333D01*
X125426166Y-118937333D02*
X124726166Y-119170666D01*
X125426166Y-119404000D01*
X124726166Y-119537333D02*
X124726166Y-119937333D01*
X125426166Y-119737333D02*
X124726166Y-119737333D01*
X124726166Y-120070666D02*
X124726166Y-120470666D01*
X125426166Y-120270666D02*
X124726166Y-120270666D01*
X120203000Y-114660666D02*
X120236333Y-114760666D01*
X120269666Y-114794000D01*
X120336333Y-114827333D01*
X120436333Y-114827333D01*
X120503000Y-114794000D01*
X120536333Y-114760666D01*
X120569666Y-114694000D01*
X120569666Y-114427333D01*
X119869666Y-114427333D01*
X119869666Y-114660666D01*
X119903000Y-114727333D01*
X119936333Y-114760666D01*
X120003000Y-114794000D01*
X120069666Y-114794000D01*
X120136333Y-114760666D01*
X120169666Y-114727333D01*
X120203000Y-114660666D01*
X120203000Y-114427333D01*
X120369666Y-115094000D02*
X120369666Y-115427333D01*
X120569666Y-115027333D02*
X119869666Y-115260666D01*
X120569666Y-115494000D01*
X119869666Y-115627333D02*
X119869666Y-116027333D01*
X120569666Y-115827333D02*
X119869666Y-115827333D01*
X119869666Y-116160666D02*
X119869666Y-116560666D01*
X120569666Y-116360666D02*
X119869666Y-116360666D01*
X119469666Y-114594000D02*
X118769666Y-114594000D01*
X118769666Y-114860666D01*
X118803000Y-114927333D01*
X118836333Y-114960666D01*
X118903000Y-114994000D01*
X119003000Y-114994000D01*
X119069666Y-114960666D01*
X119103000Y-114927333D01*
X119136333Y-114860666D01*
X119136333Y-114594000D01*
X118769666Y-115227333D02*
X118769666Y-115660666D01*
X119036333Y-115427333D01*
X119036333Y-115527333D01*
X119069666Y-115594000D01*
X119103000Y-115627333D01*
X119169666Y-115660666D01*
X119336333Y-115660666D01*
X119403000Y-115627333D01*
X119436333Y-115594000D01*
X119469666Y-115527333D01*
X119469666Y-115327333D01*
X119436333Y-115260666D01*
X119403000Y-115227333D01*
X118769666Y-116094000D02*
X118769666Y-116160666D01*
X118803000Y-116227333D01*
X118836333Y-116260666D01*
X118903000Y-116294000D01*
X119036333Y-116327333D01*
X119203000Y-116327333D01*
X119336333Y-116294000D01*
X119403000Y-116260666D01*
X119436333Y-116227333D01*
X119469666Y-116160666D01*
X119469666Y-116094000D01*
X119436333Y-116027333D01*
X119403000Y-115994000D01*
X119336333Y-115960666D01*
X119203000Y-115927333D01*
X119036333Y-115927333D01*
X118903000Y-115960666D01*
X118836333Y-115994000D01*
X118803000Y-116027333D01*
X118769666Y-116094000D01*
X118369666Y-114594000D02*
X117669666Y-114594000D01*
X117669666Y-114860666D01*
X117703000Y-114927333D01*
X117736333Y-114960666D01*
X117803000Y-114994000D01*
X117903000Y-114994000D01*
X117969666Y-114960666D01*
X118003000Y-114927333D01*
X118036333Y-114860666D01*
X118036333Y-114594000D01*
X117669666Y-115227333D02*
X117669666Y-115660666D01*
X117936333Y-115427333D01*
X117936333Y-115527333D01*
X117969666Y-115594000D01*
X118003000Y-115627333D01*
X118069666Y-115660666D01*
X118236333Y-115660666D01*
X118303000Y-115627333D01*
X118336333Y-115594000D01*
X118369666Y-115527333D01*
X118369666Y-115327333D01*
X118336333Y-115260666D01*
X118303000Y-115227333D01*
X118369666Y-116327333D02*
X118369666Y-115927333D01*
X118369666Y-116127333D02*
X117669666Y-116127333D01*
X117769666Y-116060666D01*
X117836333Y-115994000D01*
X117869666Y-115927333D01*
X117236333Y-114594000D02*
X117269666Y-114694000D01*
X117269666Y-114860666D01*
X117236333Y-114927333D01*
X117203000Y-114960666D01*
X117136333Y-114994000D01*
X117069666Y-114994000D01*
X117003000Y-114960666D01*
X116969666Y-114927333D01*
X116936333Y-114860666D01*
X116903000Y-114727333D01*
X116869666Y-114660666D01*
X116836333Y-114627333D01*
X116769666Y-114594000D01*
X116703000Y-114594000D01*
X116636333Y-114627333D01*
X116603000Y-114660666D01*
X116569666Y-114727333D01*
X116569666Y-114894000D01*
X116603000Y-114994000D01*
X117269666Y-115294000D02*
X116569666Y-115294000D01*
X116569666Y-115460666D01*
X116603000Y-115560666D01*
X116669666Y-115627333D01*
X116736333Y-115660666D01*
X116869666Y-115694000D01*
X116969666Y-115694000D01*
X117103000Y-115660666D01*
X117169666Y-115627333D01*
X117236333Y-115560666D01*
X117269666Y-115460666D01*
X117269666Y-115294000D01*
X117069666Y-115960666D02*
X117069666Y-116294000D01*
X117269666Y-115894000D02*
X116569666Y-116127333D01*
X117269666Y-116360666D01*
X116136333Y-114610666D02*
X116169666Y-114710666D01*
X116169666Y-114877333D01*
X116136333Y-114944000D01*
X116103000Y-114977333D01*
X116036333Y-115010666D01*
X115969666Y-115010666D01*
X115903000Y-114977333D01*
X115869666Y-114944000D01*
X115836333Y-114877333D01*
X115803000Y-114744000D01*
X115769666Y-114677333D01*
X115736333Y-114644000D01*
X115669666Y-114610666D01*
X115603000Y-114610666D01*
X115536333Y-114644000D01*
X115503000Y-114677333D01*
X115469666Y-114744000D01*
X115469666Y-114910666D01*
X115503000Y-115010666D01*
X116103000Y-115710666D02*
X116136333Y-115677333D01*
X116169666Y-115577333D01*
X116169666Y-115510666D01*
X116136333Y-115410666D01*
X116069666Y-115344000D01*
X116003000Y-115310666D01*
X115869666Y-115277333D01*
X115769666Y-115277333D01*
X115636333Y-115310666D01*
X115569666Y-115344000D01*
X115503000Y-115410666D01*
X115469666Y-115510666D01*
X115469666Y-115577333D01*
X115503000Y-115677333D01*
X115536333Y-115710666D01*
X116169666Y-116344000D02*
X116169666Y-116010666D01*
X115469666Y-116010666D01*
X114403000Y-114910666D02*
X114369666Y-114844000D01*
X114369666Y-114744000D01*
X114403000Y-114644000D01*
X114469666Y-114577333D01*
X114536333Y-114544000D01*
X114669666Y-114510666D01*
X114769666Y-114510666D01*
X114903000Y-114544000D01*
X114969666Y-114577333D01*
X115036333Y-114644000D01*
X115069666Y-114744000D01*
X115069666Y-114810666D01*
X115036333Y-114910666D01*
X115003000Y-114944000D01*
X114769666Y-114944000D01*
X114769666Y-114810666D01*
X115069666Y-115244000D02*
X114369666Y-115244000D01*
X115069666Y-115644000D01*
X114369666Y-115644000D01*
X115069666Y-115977333D02*
X114369666Y-115977333D01*
X114369666Y-116144000D01*
X114403000Y-116244000D01*
X114469666Y-116310666D01*
X114536333Y-116344000D01*
X114669666Y-116377333D01*
X114769666Y-116377333D01*
X114903000Y-116344000D01*
X114969666Y-116310666D01*
X115036333Y-116244000D01*
X115069666Y-116144000D01*
X115069666Y-115977333D01*
X132746000Y-159740666D02*
X132712666Y-159674000D01*
X132712666Y-159574000D01*
X132746000Y-159474000D01*
X132812666Y-159407333D01*
X132879333Y-159374000D01*
X133012666Y-159340666D01*
X133112666Y-159340666D01*
X133246000Y-159374000D01*
X133312666Y-159407333D01*
X133379333Y-159474000D01*
X133412666Y-159574000D01*
X133412666Y-159640666D01*
X133379333Y-159740666D01*
X133346000Y-159774000D01*
X133112666Y-159774000D01*
X133112666Y-159640666D01*
X133412666Y-160074000D02*
X132712666Y-160074000D01*
X133412666Y-160474000D01*
X132712666Y-160474000D01*
X133412666Y-160807333D02*
X132712666Y-160807333D01*
X132712666Y-160974000D01*
X132746000Y-161074000D01*
X132812666Y-161140666D01*
X132879333Y-161174000D01*
X133012666Y-161207333D01*
X133112666Y-161207333D01*
X133246000Y-161174000D01*
X133312666Y-161140666D01*
X133379333Y-161074000D01*
X133412666Y-160974000D01*
X133412666Y-160807333D01*
X135444666Y-159340666D02*
X134744666Y-159340666D01*
X134744666Y-159607333D01*
X134778000Y-159674000D01*
X134811333Y-159707333D01*
X134878000Y-159740666D01*
X134978000Y-159740666D01*
X135044666Y-159707333D01*
X135078000Y-159674000D01*
X135111333Y-159607333D01*
X135111333Y-159340666D01*
X134744666Y-159974000D02*
X135444666Y-160140666D01*
X134944666Y-160274000D01*
X135444666Y-160407333D01*
X134744666Y-160574000D01*
X135444666Y-161240666D02*
X135111333Y-161007333D01*
X135444666Y-160840666D02*
X134744666Y-160840666D01*
X134744666Y-161107333D01*
X134778000Y-161174000D01*
X134811333Y-161207333D01*
X134878000Y-161240666D01*
X134978000Y-161240666D01*
X135044666Y-161207333D01*
X135078000Y-161174000D01*
X135111333Y-161107333D01*
X135111333Y-160840666D01*
X123316166Y-155022666D02*
X122616166Y-155022666D01*
X122616166Y-155289333D01*
X122649500Y-155356000D01*
X122682833Y-155389333D01*
X122749500Y-155422666D01*
X122849500Y-155422666D01*
X122916166Y-155389333D01*
X122949500Y-155356000D01*
X122982833Y-155289333D01*
X122982833Y-155022666D01*
X122616166Y-155656000D02*
X123316166Y-155822666D01*
X122816166Y-155956000D01*
X123316166Y-156089333D01*
X122616166Y-156256000D01*
X123316166Y-156922666D02*
X122982833Y-156689333D01*
X123316166Y-156522666D02*
X122616166Y-156522666D01*
X122616166Y-156789333D01*
X122649500Y-156856000D01*
X122682833Y-156889333D01*
X122749500Y-156922666D01*
X122849500Y-156922666D01*
X122916166Y-156889333D01*
X122949500Y-156856000D01*
X122982833Y-156789333D01*
X122982833Y-156522666D01*
X122173166Y-155033000D02*
X121473166Y-155033000D01*
X121473166Y-155199666D01*
X121506500Y-155299666D01*
X121573166Y-155366333D01*
X121639833Y-155399666D01*
X121773166Y-155433000D01*
X121873166Y-155433000D01*
X122006500Y-155399666D01*
X122073166Y-155366333D01*
X122139833Y-155299666D01*
X122173166Y-155199666D01*
X122173166Y-155033000D01*
X121973166Y-155699666D02*
X121973166Y-156033000D01*
X122173166Y-155633000D02*
X121473166Y-155866333D01*
X122173166Y-156099666D01*
X121473166Y-156233000D02*
X121473166Y-156633000D01*
X122173166Y-156433000D02*
X121473166Y-156433000D01*
X121973166Y-156833000D02*
X121973166Y-157166333D01*
X122173166Y-156766333D02*
X121473166Y-156999666D01*
X122173166Y-157233000D01*
X120963500Y-155412333D02*
X120996833Y-155379000D01*
X121030166Y-155279000D01*
X121030166Y-155212333D01*
X120996833Y-155112333D01*
X120930166Y-155045666D01*
X120863500Y-155012333D01*
X120730166Y-154979000D01*
X120630166Y-154979000D01*
X120496833Y-155012333D01*
X120430166Y-155045666D01*
X120363500Y-155112333D01*
X120330166Y-155212333D01*
X120330166Y-155279000D01*
X120363500Y-155379000D01*
X120396833Y-155412333D01*
X121030166Y-156045666D02*
X121030166Y-155712333D01*
X120330166Y-155712333D01*
X121030166Y-156279000D02*
X120330166Y-156279000D01*
X121030166Y-156679000D02*
X120630166Y-156379000D01*
X120330166Y-156679000D02*
X120730166Y-156279000D01*
X119853833Y-154979000D02*
X119887166Y-155079000D01*
X119887166Y-155245666D01*
X119853833Y-155312333D01*
X119820500Y-155345666D01*
X119753833Y-155379000D01*
X119687166Y-155379000D01*
X119620500Y-155345666D01*
X119587166Y-155312333D01*
X119553833Y-155245666D01*
X119520500Y-155112333D01*
X119487166Y-155045666D01*
X119453833Y-155012333D01*
X119387166Y-154979000D01*
X119320500Y-154979000D01*
X119253833Y-155012333D01*
X119220500Y-155045666D01*
X119187166Y-155112333D01*
X119187166Y-155279000D01*
X119220500Y-155379000D01*
X119887166Y-155679000D02*
X119187166Y-155679000D01*
X119187166Y-155845666D01*
X119220500Y-155945666D01*
X119287166Y-156012333D01*
X119353833Y-156045666D01*
X119487166Y-156079000D01*
X119587166Y-156079000D01*
X119720500Y-156045666D01*
X119787166Y-156012333D01*
X119853833Y-155945666D01*
X119887166Y-155845666D01*
X119887166Y-155679000D01*
X119687166Y-156345666D02*
X119687166Y-156679000D01*
X119887166Y-156279000D02*
X119187166Y-156512333D01*
X119887166Y-156745666D01*
X118710833Y-154995666D02*
X118744166Y-155095666D01*
X118744166Y-155262333D01*
X118710833Y-155329000D01*
X118677500Y-155362333D01*
X118610833Y-155395666D01*
X118544166Y-155395666D01*
X118477500Y-155362333D01*
X118444166Y-155329000D01*
X118410833Y-155262333D01*
X118377500Y-155129000D01*
X118344166Y-155062333D01*
X118310833Y-155029000D01*
X118244166Y-154995666D01*
X118177500Y-154995666D01*
X118110833Y-155029000D01*
X118077500Y-155062333D01*
X118044166Y-155129000D01*
X118044166Y-155295666D01*
X118077500Y-155395666D01*
X118677500Y-156095666D02*
X118710833Y-156062333D01*
X118744166Y-155962333D01*
X118744166Y-155895666D01*
X118710833Y-155795666D01*
X118644166Y-155729000D01*
X118577500Y-155695666D01*
X118444166Y-155662333D01*
X118344166Y-155662333D01*
X118210833Y-155695666D01*
X118144166Y-155729000D01*
X118077500Y-155795666D01*
X118044166Y-155895666D01*
X118044166Y-155962333D01*
X118077500Y-156062333D01*
X118110833Y-156095666D01*
X118744166Y-156729000D02*
X118744166Y-156395666D01*
X118044166Y-156395666D01*
X116934500Y-155422666D02*
X116901166Y-155356000D01*
X116901166Y-155256000D01*
X116934500Y-155156000D01*
X117001166Y-155089333D01*
X117067833Y-155056000D01*
X117201166Y-155022666D01*
X117301166Y-155022666D01*
X117434500Y-155056000D01*
X117501166Y-155089333D01*
X117567833Y-155156000D01*
X117601166Y-155256000D01*
X117601166Y-155322666D01*
X117567833Y-155422666D01*
X117534500Y-155456000D01*
X117301166Y-155456000D01*
X117301166Y-155322666D01*
X117601166Y-155756000D02*
X116901166Y-155756000D01*
X117601166Y-156156000D01*
X116901166Y-156156000D01*
X117601166Y-156489333D02*
X116901166Y-156489333D01*
X116901166Y-156656000D01*
X116934500Y-156756000D01*
X117001166Y-156822666D01*
X117067833Y-156856000D01*
X117201166Y-156889333D01*
X117301166Y-156889333D01*
X117434500Y-156856000D01*
X117501166Y-156822666D01*
X117567833Y-156756000D01*
X117601166Y-156656000D01*
X117601166Y-156489333D01*
X135372333Y-143650500D02*
X135605666Y-143650500D01*
X135605666Y-144017166D02*
X135605666Y-143317166D01*
X135272333Y-143317166D01*
X134672333Y-144017166D02*
X135005666Y-144017166D01*
X135005666Y-143317166D01*
X134605666Y-144083833D02*
X134072333Y-144083833D01*
X133905666Y-143650500D02*
X133672333Y-143650500D01*
X133572333Y-144017166D02*
X133905666Y-144017166D01*
X133905666Y-143317166D01*
X133572333Y-143317166D01*
X133272333Y-144017166D02*
X133272333Y-143317166D01*
X132872333Y-144017166D01*
X132872333Y-143317166D01*
X135371500Y-141110500D02*
X135604833Y-141110500D01*
X135604833Y-141477166D02*
X135604833Y-140777166D01*
X135271500Y-140777166D01*
X134671500Y-141477166D02*
X135004833Y-141477166D01*
X135004833Y-140777166D01*
X134604833Y-141543833D02*
X134071500Y-141543833D01*
X133904833Y-141477166D02*
X133904833Y-140777166D01*
X133904833Y-141110500D02*
X133504833Y-141110500D01*
X133504833Y-141477166D02*
X133504833Y-140777166D01*
X132838166Y-141477166D02*
X133171500Y-141477166D01*
X133171500Y-140777166D01*
X132604833Y-141477166D02*
X132604833Y-140777166D01*
X132438166Y-140777166D01*
X132338166Y-140810500D01*
X132271500Y-140877166D01*
X132238166Y-140943833D01*
X132204833Y-141077166D01*
X132204833Y-141177166D01*
X132238166Y-141310500D01*
X132271500Y-141377166D01*
X132338166Y-141443833D01*
X132438166Y-141477166D01*
X132604833Y-141477166D01*
X135583500Y-131347333D02*
X135483500Y-131380666D01*
X135316833Y-131380666D01*
X135250166Y-131347333D01*
X135216833Y-131314000D01*
X135183500Y-131247333D01*
X135183500Y-131180666D01*
X135216833Y-131114000D01*
X135250166Y-131080666D01*
X135316833Y-131047333D01*
X135450166Y-131014000D01*
X135516833Y-130980666D01*
X135550166Y-130947333D01*
X135583500Y-130880666D01*
X135583500Y-130814000D01*
X135550166Y-130747333D01*
X135516833Y-130714000D01*
X135450166Y-130680666D01*
X135283500Y-130680666D01*
X135183500Y-130714000D01*
X134483500Y-131314000D02*
X134516833Y-131347333D01*
X134616833Y-131380666D01*
X134683500Y-131380666D01*
X134783500Y-131347333D01*
X134850166Y-131280666D01*
X134883500Y-131214000D01*
X134916833Y-131080666D01*
X134916833Y-130980666D01*
X134883500Y-130847333D01*
X134850166Y-130780666D01*
X134783500Y-130714000D01*
X134683500Y-130680666D01*
X134616833Y-130680666D01*
X134516833Y-130714000D01*
X134483500Y-130747333D01*
X134183500Y-131380666D02*
X134183500Y-130680666D01*
X133783500Y-131380666D02*
X134083500Y-130980666D01*
X133783500Y-130680666D02*
X134183500Y-131080666D01*
X135375500Y-138570500D02*
X135608833Y-138570500D01*
X135608833Y-138937166D02*
X135608833Y-138237166D01*
X135275500Y-138237166D01*
X134675500Y-138937166D02*
X135008833Y-138937166D01*
X135008833Y-138237166D01*
X134608833Y-139003833D02*
X134075500Y-139003833D01*
X133975500Y-138237166D02*
X133808833Y-138937166D01*
X133675500Y-138437166D01*
X133542166Y-138937166D01*
X133375500Y-138237166D01*
X133108833Y-138937166D02*
X133108833Y-138237166D01*
X132842166Y-138237166D01*
X132775500Y-138270500D01*
X132742166Y-138303833D01*
X132708833Y-138370500D01*
X132708833Y-138470500D01*
X132742166Y-138537166D01*
X132775500Y-138570500D01*
X132842166Y-138603833D01*
X133108833Y-138603833D01*
X135593000Y-133857166D02*
X135593000Y-133157166D01*
X135359666Y-133657166D01*
X135126333Y-133157166D01*
X135126333Y-133857166D01*
X134659666Y-133157166D02*
X134526333Y-133157166D01*
X134459666Y-133190500D01*
X134393000Y-133257166D01*
X134359666Y-133390500D01*
X134359666Y-133623833D01*
X134393000Y-133757166D01*
X134459666Y-133823833D01*
X134526333Y-133857166D01*
X134659666Y-133857166D01*
X134726333Y-133823833D01*
X134793000Y-133757166D01*
X134826333Y-133623833D01*
X134826333Y-133390500D01*
X134793000Y-133257166D01*
X134726333Y-133190500D01*
X134659666Y-133157166D01*
X134093000Y-133823833D02*
X133993000Y-133857166D01*
X133826333Y-133857166D01*
X133759666Y-133823833D01*
X133726333Y-133790500D01*
X133693000Y-133723833D01*
X133693000Y-133657166D01*
X133726333Y-133590500D01*
X133759666Y-133557166D01*
X133826333Y-133523833D01*
X133959666Y-133490500D01*
X134026333Y-133457166D01*
X134059666Y-133423833D01*
X134093000Y-133357166D01*
X134093000Y-133290500D01*
X134059666Y-133223833D01*
X134026333Y-133190500D01*
X133959666Y-133157166D01*
X133793000Y-133157166D01*
X133693000Y-133190500D01*
X133393000Y-133857166D02*
X133393000Y-133157166D01*
X135597000Y-154177166D02*
X135597000Y-153477166D01*
X135330333Y-153477166D01*
X135263666Y-153510500D01*
X135230333Y-153543833D01*
X135197000Y-153610500D01*
X135197000Y-153710500D01*
X135230333Y-153777166D01*
X135263666Y-153810500D01*
X135330333Y-153843833D01*
X135597000Y-153843833D01*
X134963666Y-153477166D02*
X134530333Y-153477166D01*
X134763666Y-153743833D01*
X134663666Y-153743833D01*
X134597000Y-153777166D01*
X134563666Y-153810500D01*
X134530333Y-153877166D01*
X134530333Y-154043833D01*
X134563666Y-154110500D01*
X134597000Y-154143833D01*
X134663666Y-154177166D01*
X134863666Y-154177166D01*
X134930333Y-154143833D01*
X134963666Y-154110500D01*
X134097000Y-153477166D02*
X134030333Y-153477166D01*
X133963666Y-153510500D01*
X133930333Y-153543833D01*
X133897000Y-153610500D01*
X133863666Y-153743833D01*
X133863666Y-153910500D01*
X133897000Y-154043833D01*
X133930333Y-154110500D01*
X133963666Y-154143833D01*
X134030333Y-154177166D01*
X134097000Y-154177166D01*
X134163666Y-154143833D01*
X134197000Y-154110500D01*
X134230333Y-154043833D01*
X134263666Y-153910500D01*
X134263666Y-153743833D01*
X134230333Y-153610500D01*
X134197000Y-153543833D01*
X134163666Y-153510500D01*
X134097000Y-153477166D01*
X135153333Y-145954000D02*
X135220000Y-145920666D01*
X135320000Y-145920666D01*
X135420000Y-145954000D01*
X135486666Y-146020666D01*
X135520000Y-146087333D01*
X135553333Y-146220666D01*
X135553333Y-146320666D01*
X135520000Y-146454000D01*
X135486666Y-146520666D01*
X135420000Y-146587333D01*
X135320000Y-146620666D01*
X135253333Y-146620666D01*
X135153333Y-146587333D01*
X135120000Y-146554000D01*
X135120000Y-146320666D01*
X135253333Y-146320666D01*
X134820000Y-146620666D02*
X134820000Y-145920666D01*
X134420000Y-146620666D01*
X134420000Y-145920666D01*
X134086666Y-146620666D02*
X134086666Y-145920666D01*
X133920000Y-145920666D01*
X133820000Y-145954000D01*
X133753333Y-146020666D01*
X133720000Y-146087333D01*
X133686666Y-146220666D01*
X133686666Y-146320666D01*
X133720000Y-146454000D01*
X133753333Y-146520666D01*
X133820000Y-146587333D01*
X133920000Y-146620666D01*
X134086666Y-146620666D01*
X135593000Y-136460666D02*
X135593000Y-135760666D01*
X135359666Y-136260666D01*
X135126333Y-135760666D01*
X135126333Y-136460666D01*
X134793000Y-136460666D02*
X134793000Y-135760666D01*
X134493000Y-136427333D02*
X134393000Y-136460666D01*
X134226333Y-136460666D01*
X134159666Y-136427333D01*
X134126333Y-136394000D01*
X134093000Y-136327333D01*
X134093000Y-136260666D01*
X134126333Y-136194000D01*
X134159666Y-136160666D01*
X134226333Y-136127333D01*
X134359666Y-136094000D01*
X134426333Y-136060666D01*
X134459666Y-136027333D01*
X134493000Y-135960666D01*
X134493000Y-135894000D01*
X134459666Y-135827333D01*
X134426333Y-135794000D01*
X134359666Y-135760666D01*
X134193000Y-135760666D01*
X134093000Y-135794000D01*
X133659666Y-135760666D02*
X133526333Y-135760666D01*
X133459666Y-135794000D01*
X133393000Y-135860666D01*
X133359666Y-135994000D01*
X133359666Y-136227333D01*
X133393000Y-136360666D01*
X133459666Y-136427333D01*
X133526333Y-136460666D01*
X133659666Y-136460666D01*
X133726333Y-136427333D01*
X133793000Y-136360666D01*
X133826333Y-136227333D01*
X133826333Y-135994000D01*
X133793000Y-135860666D01*
X133726333Y-135794000D01*
X133659666Y-135760666D01*
X135597000Y-156717166D02*
X135597000Y-156017166D01*
X135330333Y-156017166D01*
X135263666Y-156050500D01*
X135230333Y-156083833D01*
X135197000Y-156150500D01*
X135197000Y-156250500D01*
X135230333Y-156317166D01*
X135263666Y-156350500D01*
X135330333Y-156383833D01*
X135597000Y-156383833D01*
X134963666Y-156017166D02*
X134530333Y-156017166D01*
X134763666Y-156283833D01*
X134663666Y-156283833D01*
X134597000Y-156317166D01*
X134563666Y-156350500D01*
X134530333Y-156417166D01*
X134530333Y-156583833D01*
X134563666Y-156650500D01*
X134597000Y-156683833D01*
X134663666Y-156717166D01*
X134863666Y-156717166D01*
X134930333Y-156683833D01*
X134963666Y-156650500D01*
X133863666Y-156717166D02*
X134263666Y-156717166D01*
X134063666Y-156717166D02*
X134063666Y-156017166D01*
X134130333Y-156117166D01*
X134197000Y-156183833D01*
X134263666Y-156217166D01*
X135597000Y-151637166D02*
X135597000Y-150937166D01*
X135330333Y-150937166D01*
X135263666Y-150970500D01*
X135230333Y-151003833D01*
X135197000Y-151070500D01*
X135197000Y-151170500D01*
X135230333Y-151237166D01*
X135263666Y-151270500D01*
X135330333Y-151303833D01*
X135597000Y-151303833D01*
X134930333Y-151003833D02*
X134897000Y-150970500D01*
X134830333Y-150937166D01*
X134663666Y-150937166D01*
X134597000Y-150970500D01*
X134563666Y-151003833D01*
X134530333Y-151070500D01*
X134530333Y-151137166D01*
X134563666Y-151237166D01*
X134963666Y-151637166D01*
X134530333Y-151637166D01*
X134197000Y-151637166D02*
X134063666Y-151637166D01*
X133997000Y-151603833D01*
X133963666Y-151570500D01*
X133897000Y-151470500D01*
X133863666Y-151337166D01*
X133863666Y-151070500D01*
X133897000Y-151003833D01*
X133930333Y-150970500D01*
X133997000Y-150937166D01*
X134130333Y-150937166D01*
X134197000Y-150970500D01*
X134230333Y-151003833D01*
X134263666Y-151070500D01*
X134263666Y-151237166D01*
X134230333Y-151303833D01*
X134197000Y-151337166D01*
X134130333Y-151370500D01*
X133997000Y-151370500D01*
X133930333Y-151337166D01*
X133897000Y-151303833D01*
X133863666Y-151237166D01*
X135153333Y-125570500D02*
X135220000Y-125537166D01*
X135320000Y-125537166D01*
X135420000Y-125570500D01*
X135486666Y-125637166D01*
X135520000Y-125703833D01*
X135553333Y-125837166D01*
X135553333Y-125937166D01*
X135520000Y-126070500D01*
X135486666Y-126137166D01*
X135420000Y-126203833D01*
X135320000Y-126237166D01*
X135253333Y-126237166D01*
X135153333Y-126203833D01*
X135120000Y-126170500D01*
X135120000Y-125937166D01*
X135253333Y-125937166D01*
X134820000Y-126237166D02*
X134820000Y-125537166D01*
X134420000Y-126237166D01*
X134420000Y-125537166D01*
X134086666Y-126237166D02*
X134086666Y-125537166D01*
X133920000Y-125537166D01*
X133820000Y-125570500D01*
X133753333Y-125637166D01*
X133720000Y-125703833D01*
X133686666Y-125837166D01*
X133686666Y-125937166D01*
X133720000Y-126070500D01*
X133753333Y-126137166D01*
X133820000Y-126203833D01*
X133920000Y-126237166D01*
X134086666Y-126237166D01*
X135597000Y-116043833D02*
X135497000Y-116077166D01*
X135330333Y-116077166D01*
X135263666Y-116043833D01*
X135230333Y-116010500D01*
X135197000Y-115943833D01*
X135197000Y-115877166D01*
X135230333Y-115810500D01*
X135263666Y-115777166D01*
X135330333Y-115743833D01*
X135463666Y-115710500D01*
X135530333Y-115677166D01*
X135563666Y-115643833D01*
X135597000Y-115577166D01*
X135597000Y-115510500D01*
X135563666Y-115443833D01*
X135530333Y-115410500D01*
X135463666Y-115377166D01*
X135297000Y-115377166D01*
X135197000Y-115410500D01*
X134897000Y-116077166D02*
X134897000Y-115377166D01*
X134730333Y-115377166D01*
X134630333Y-115410500D01*
X134563666Y-115477166D01*
X134530333Y-115543833D01*
X134497000Y-115677166D01*
X134497000Y-115777166D01*
X134530333Y-115910500D01*
X134563666Y-115977166D01*
X134630333Y-116043833D01*
X134730333Y-116077166D01*
X134897000Y-116077166D01*
X134230333Y-115877166D02*
X133897000Y-115877166D01*
X134297000Y-116077166D02*
X134063666Y-115377166D01*
X133830333Y-116077166D01*
X135597000Y-121157166D02*
X135597000Y-120457166D01*
X135330333Y-120457166D01*
X135263666Y-120490500D01*
X135230333Y-120523833D01*
X135197000Y-120590500D01*
X135197000Y-120690500D01*
X135230333Y-120757166D01*
X135263666Y-120790500D01*
X135330333Y-120823833D01*
X135597000Y-120823833D01*
X134530333Y-121157166D02*
X134930333Y-121157166D01*
X134730333Y-121157166D02*
X134730333Y-120457166D01*
X134797000Y-120557166D01*
X134863666Y-120623833D01*
X134930333Y-120657166D01*
X133930333Y-120457166D02*
X134063666Y-120457166D01*
X134130333Y-120490500D01*
X134163666Y-120523833D01*
X134230333Y-120623833D01*
X134263666Y-120757166D01*
X134263666Y-121023833D01*
X134230333Y-121090500D01*
X134197000Y-121123833D01*
X134130333Y-121157166D01*
X133997000Y-121157166D01*
X133930333Y-121123833D01*
X133897000Y-121090500D01*
X133863666Y-121023833D01*
X133863666Y-120857166D01*
X133897000Y-120790500D01*
X133930333Y-120757166D01*
X133997000Y-120723833D01*
X134130333Y-120723833D01*
X134197000Y-120757166D01*
X134230333Y-120790500D01*
X134263666Y-120857166D01*
X135580333Y-118583833D02*
X135480333Y-118617166D01*
X135313666Y-118617166D01*
X135247000Y-118583833D01*
X135213666Y-118550500D01*
X135180333Y-118483833D01*
X135180333Y-118417166D01*
X135213666Y-118350500D01*
X135247000Y-118317166D01*
X135313666Y-118283833D01*
X135447000Y-118250500D01*
X135513666Y-118217166D01*
X135547000Y-118183833D01*
X135580333Y-118117166D01*
X135580333Y-118050500D01*
X135547000Y-117983833D01*
X135513666Y-117950500D01*
X135447000Y-117917166D01*
X135280333Y-117917166D01*
X135180333Y-117950500D01*
X134480333Y-118550500D02*
X134513666Y-118583833D01*
X134613666Y-118617166D01*
X134680333Y-118617166D01*
X134780333Y-118583833D01*
X134847000Y-118517166D01*
X134880333Y-118450500D01*
X134913666Y-118317166D01*
X134913666Y-118217166D01*
X134880333Y-118083833D01*
X134847000Y-118017166D01*
X134780333Y-117950500D01*
X134680333Y-117917166D01*
X134613666Y-117917166D01*
X134513666Y-117950500D01*
X134480333Y-117983833D01*
X133847000Y-118617166D02*
X134180333Y-118617166D01*
X134180333Y-117917166D01*
X135597000Y-123697166D02*
X135597000Y-122997166D01*
X135330333Y-122997166D01*
X135263666Y-123030500D01*
X135230333Y-123063833D01*
X135197000Y-123130500D01*
X135197000Y-123230500D01*
X135230333Y-123297166D01*
X135263666Y-123330500D01*
X135330333Y-123363833D01*
X135597000Y-123363833D01*
X134530333Y-123697166D02*
X134930333Y-123697166D01*
X134730333Y-123697166D02*
X134730333Y-122997166D01*
X134797000Y-123097166D01*
X134863666Y-123163833D01*
X134930333Y-123197166D01*
X134297000Y-122997166D02*
X133830333Y-122997166D01*
X134130333Y-123697166D01*
X135339833Y-113234000D02*
X135239833Y-113267333D01*
X135206500Y-113300666D01*
X135173166Y-113367333D01*
X135173166Y-113467333D01*
X135206500Y-113534000D01*
X135239833Y-113567333D01*
X135306500Y-113600666D01*
X135573166Y-113600666D01*
X135573166Y-112900666D01*
X135339833Y-112900666D01*
X135273166Y-112934000D01*
X135239833Y-112967333D01*
X135206500Y-113034000D01*
X135206500Y-113100666D01*
X135239833Y-113167333D01*
X135273166Y-113200666D01*
X135339833Y-113234000D01*
X135573166Y-113234000D01*
X134906500Y-113400666D02*
X134573166Y-113400666D01*
X134973166Y-113600666D02*
X134739833Y-112900666D01*
X134506500Y-113600666D01*
X134373166Y-112900666D02*
X133973166Y-112900666D01*
X134173166Y-113600666D02*
X134173166Y-112900666D01*
X133839833Y-112900666D02*
X133439833Y-112900666D01*
X133639833Y-113600666D02*
X133639833Y-112900666D01*
X127825642Y-123737714D02*
X130111357Y-123737714D01*
M02*
