G04 #@! TF.GenerationSoftware,KiCad,Pcbnew,(5.1.0-1348-g4ca769472)*
G04 #@! TF.CreationDate,2021-05-22T02:12:44-07:00*
G04 #@! TF.ProjectId,loggerhw_v4.2,6c6f6767-6572-4687-975f-76342e322e6b,rev?*
G04 #@! TF.SameCoordinates,Original*
G04 #@! TF.FileFunction,Soldermask,Bot*
G04 #@! TF.FilePolarity,Negative*
%FSLAX46Y46*%
G04 Gerber Fmt 4.6, Leading zero omitted, Abs format (unit mm)*
G04 Created by KiCad (PCBNEW (5.1.0-1348-g4ca769472)) date 2021-05-22 02:12:44*
%MOMM*%
%LPD*%
G04 APERTURE LIST*
%ADD10C,0.100000*%
G04 APERTURE END LIST*
D10*
G36*
X107492742Y-163847002D02*
G01*
X107516523Y-163846255D01*
X107594921Y-163857832D01*
X107676500Y-163866478D01*
X107699247Y-163873237D01*
X107719783Y-163876270D01*
X107797754Y-163902510D01*
X107879275Y-163926735D01*
X107897713Y-163936150D01*
X107914517Y-163941805D01*
X107989255Y-163982894D01*
X108067674Y-164022936D01*
X108081693Y-164033713D01*
X108094561Y-164040787D01*
X108163190Y-164096361D01*
X108235387Y-164151860D01*
X108245176Y-164162751D01*
X108254238Y-164170089D01*
X108313939Y-164239254D01*
X108376797Y-164309187D01*
X108382859Y-164319099D01*
X108388493Y-164325626D01*
X108436568Y-164406916D01*
X108487168Y-164489650D01*
X108490236Y-164497663D01*
X108493084Y-164502479D01*
X108527154Y-164594089D01*
X108562804Y-164687205D01*
X108563808Y-164692650D01*
X108564700Y-164695048D01*
X108582616Y-164794622D01*
X108601173Y-164895235D01*
X108593823Y-165166866D01*
X108570018Y-165265638D01*
X108547214Y-165362864D01*
X108545798Y-165366137D01*
X108544260Y-165372517D01*
X108503954Y-165462834D01*
X108465613Y-165551436D01*
X108461958Y-165556937D01*
X108458051Y-165565692D01*
X108403631Y-165644726D01*
X108351911Y-165722570D01*
X108345240Y-165729526D01*
X108338082Y-165739922D01*
X108272260Y-165805629D01*
X108209704Y-165870862D01*
X108199451Y-165878311D01*
X108188371Y-165889372D01*
X108114116Y-165940311D01*
X108043480Y-165991631D01*
X108029343Y-165998465D01*
X108013932Y-166009037D01*
X107934362Y-166044381D01*
X107858493Y-166081057D01*
X107840450Y-166086095D01*
X107820606Y-166094909D01*
X107738862Y-166114458D01*
X107660602Y-166136309D01*
X107638931Y-166138357D01*
X107614869Y-166144112D01*
X107533921Y-166148284D01*
X107456054Y-166155644D01*
X107431349Y-166153569D01*
X107403610Y-166154999D01*
X107326221Y-166144742D01*
X107251308Y-166138451D01*
X107224436Y-166131251D01*
X107193905Y-166127204D01*
X107122551Y-166103951D01*
X107052843Y-166085273D01*
X107024930Y-166072138D01*
X106992777Y-166061660D01*
X106929502Y-166027233D01*
X106866937Y-165997792D01*
X106839322Y-165978167D01*
X106806961Y-165960560D01*
X106753361Y-165917078D01*
X106699459Y-165878772D01*
X106673637Y-165852404D01*
X106642681Y-165827291D01*
X106599857Y-165777062D01*
X106555705Y-165731975D01*
X106533260Y-165698948D01*
X106505438Y-165666315D01*
X106473987Y-165611730D01*
X106440216Y-165562038D01*
X106422746Y-165522800D01*
X106399828Y-165483025D01*
X106379854Y-165426464D01*
X106356647Y-165374340D01*
X106345680Y-165329690D01*
X106329389Y-165283558D01*
X106320526Y-165227283D01*
X106307636Y-165174804D01*
X106304560Y-165125903D01*
X106296479Y-165074595D01*
X106297939Y-165020657D01*
X106294736Y-164969752D01*
X106300714Y-164918085D01*
X106302201Y-164863133D01*
X106312837Y-164813308D01*
X106318352Y-164765644D01*
X106334258Y-164712960D01*
X106346363Y-164656255D01*
X106364741Y-164611995D01*
X106377736Y-164568955D01*
X106404092Y-164517229D01*
X106427486Y-164460890D01*
X106451979Y-164423246D01*
X106471016Y-164385884D01*
X106507938Y-164337240D01*
X106542853Y-164283579D01*
X106571712Y-164253221D01*
X106595237Y-164222228D01*
X106642415Y-164178846D01*
X106688601Y-164130261D01*
X106720068Y-164107441D01*
X106746482Y-164083152D01*
X106803149Y-164047190D01*
X106859848Y-164006071D01*
X106892207Y-163990671D01*
X106919956Y-163973061D01*
X106984906Y-163946555D01*
X107050859Y-163915168D01*
X107082560Y-163906703D01*
X107110192Y-163895427D01*
X107181773Y-163880212D01*
X107255238Y-163860596D01*
X107284933Y-163858285D01*
X107311162Y-163852710D01*
X107387337Y-163850316D01*
X107466139Y-163844183D01*
X107492742Y-163847002D01*
X107492742Y-163847002D01*
G37*
G36*
X132542742Y-163847002D02*
G01*
X132566523Y-163846255D01*
X132644921Y-163857832D01*
X132726500Y-163866478D01*
X132749247Y-163873237D01*
X132769783Y-163876270D01*
X132847754Y-163902510D01*
X132929275Y-163926735D01*
X132947713Y-163936150D01*
X132964517Y-163941805D01*
X133039255Y-163982894D01*
X133117674Y-164022936D01*
X133131693Y-164033713D01*
X133144561Y-164040787D01*
X133213190Y-164096361D01*
X133285387Y-164151860D01*
X133295176Y-164162751D01*
X133304238Y-164170089D01*
X133363939Y-164239254D01*
X133426797Y-164309187D01*
X133432859Y-164319099D01*
X133438493Y-164325626D01*
X133486568Y-164406916D01*
X133537168Y-164489650D01*
X133540236Y-164497663D01*
X133543084Y-164502479D01*
X133577154Y-164594089D01*
X133612804Y-164687205D01*
X133613808Y-164692650D01*
X133614700Y-164695048D01*
X133632616Y-164794622D01*
X133651173Y-164895235D01*
X133643823Y-165166866D01*
X133620018Y-165265638D01*
X133597214Y-165362864D01*
X133595798Y-165366137D01*
X133594260Y-165372517D01*
X133553954Y-165462834D01*
X133515613Y-165551436D01*
X133511958Y-165556937D01*
X133508051Y-165565692D01*
X133453631Y-165644726D01*
X133401911Y-165722570D01*
X133395240Y-165729526D01*
X133388082Y-165739922D01*
X133322260Y-165805629D01*
X133259704Y-165870862D01*
X133249451Y-165878311D01*
X133238371Y-165889372D01*
X133164116Y-165940311D01*
X133093480Y-165991631D01*
X133079343Y-165998465D01*
X133063932Y-166009037D01*
X132984362Y-166044381D01*
X132908493Y-166081057D01*
X132890450Y-166086095D01*
X132870606Y-166094909D01*
X132788862Y-166114458D01*
X132710602Y-166136309D01*
X132688931Y-166138357D01*
X132664869Y-166144112D01*
X132583921Y-166148284D01*
X132506054Y-166155644D01*
X132481349Y-166153569D01*
X132453610Y-166154999D01*
X132376221Y-166144742D01*
X132301308Y-166138451D01*
X132274436Y-166131251D01*
X132243905Y-166127204D01*
X132172551Y-166103951D01*
X132102843Y-166085273D01*
X132074930Y-166072138D01*
X132042777Y-166061660D01*
X131979502Y-166027233D01*
X131916937Y-165997792D01*
X131889322Y-165978167D01*
X131856961Y-165960560D01*
X131803361Y-165917078D01*
X131749459Y-165878772D01*
X131723637Y-165852404D01*
X131692681Y-165827291D01*
X131649857Y-165777062D01*
X131605705Y-165731975D01*
X131583260Y-165698948D01*
X131555438Y-165666315D01*
X131523987Y-165611730D01*
X131490216Y-165562038D01*
X131472746Y-165522800D01*
X131449828Y-165483025D01*
X131429854Y-165426464D01*
X131406647Y-165374340D01*
X131395680Y-165329690D01*
X131379389Y-165283558D01*
X131370526Y-165227283D01*
X131357636Y-165174804D01*
X131354560Y-165125903D01*
X131346479Y-165074595D01*
X131347939Y-165020657D01*
X131344736Y-164969752D01*
X131350714Y-164918085D01*
X131352201Y-164863133D01*
X131362837Y-164813308D01*
X131368352Y-164765644D01*
X131384258Y-164712960D01*
X131396363Y-164656255D01*
X131414741Y-164611995D01*
X131427736Y-164568955D01*
X131454092Y-164517229D01*
X131477486Y-164460890D01*
X131501979Y-164423246D01*
X131521016Y-164385884D01*
X131557938Y-164337240D01*
X131592853Y-164283579D01*
X131621712Y-164253221D01*
X131645237Y-164222228D01*
X131692415Y-164178846D01*
X131738601Y-164130261D01*
X131770068Y-164107441D01*
X131796482Y-164083152D01*
X131853149Y-164047190D01*
X131909848Y-164006071D01*
X131942207Y-163990671D01*
X131969956Y-163973061D01*
X132034906Y-163946555D01*
X132100859Y-163915168D01*
X132132560Y-163906703D01*
X132160192Y-163895427D01*
X132231773Y-163880212D01*
X132305238Y-163860596D01*
X132334933Y-163858285D01*
X132361162Y-163852710D01*
X132437337Y-163850316D01*
X132516139Y-163844183D01*
X132542742Y-163847002D01*
X132542742Y-163847002D01*
G37*
G36*
X130189899Y-156971959D02*
G01*
X130206769Y-156983231D01*
X130218041Y-157000101D01*
X130224448Y-157032312D01*
X130224448Y-160967688D01*
X130221999Y-160980000D01*
X130218041Y-160999899D01*
X130206769Y-161016769D01*
X130189899Y-161028041D01*
X130170000Y-161031999D01*
X130157688Y-161034448D01*
X127842312Y-161034448D01*
X127810101Y-161028041D01*
X127793231Y-161016769D01*
X127781959Y-160999899D01*
X127775552Y-160967688D01*
X127775552Y-157032312D01*
X127781959Y-157000101D01*
X127793231Y-156983231D01*
X127810101Y-156971959D01*
X127842312Y-156965552D01*
X130157688Y-156965552D01*
X130189899Y-156971959D01*
X130189899Y-156971959D01*
G37*
G36*
X112189899Y-156971959D02*
G01*
X112206769Y-156983231D01*
X112218041Y-157000101D01*
X112224448Y-157032312D01*
X112224448Y-160967688D01*
X112221999Y-160980000D01*
X112218041Y-160999899D01*
X112206769Y-161016769D01*
X112189899Y-161028041D01*
X112170000Y-161031999D01*
X112157688Y-161034448D01*
X109842312Y-161034448D01*
X109810101Y-161028041D01*
X109793231Y-161016769D01*
X109781959Y-160999899D01*
X109775552Y-160967688D01*
X109775552Y-157032312D01*
X109781959Y-157000101D01*
X109793231Y-156983231D01*
X109810101Y-156971959D01*
X109842312Y-156965552D01*
X112157688Y-156965552D01*
X112189899Y-156971959D01*
X112189899Y-156971959D01*
G37*
G36*
X131559899Y-144141959D02*
G01*
X131576769Y-144153231D01*
X131588041Y-144170101D01*
X131594448Y-144202312D01*
X131594448Y-148137688D01*
X131591999Y-148150000D01*
X131588041Y-148169899D01*
X131576769Y-148186769D01*
X131559899Y-148198041D01*
X131540000Y-148201999D01*
X131527688Y-148204448D01*
X126472312Y-148204448D01*
X126440101Y-148198041D01*
X126423231Y-148186769D01*
X126411959Y-148169899D01*
X126405552Y-148137688D01*
X126405552Y-144202312D01*
X126411959Y-144170101D01*
X126423231Y-144153231D01*
X126440101Y-144141959D01*
X126472312Y-144135552D01*
X131527688Y-144135552D01*
X131559899Y-144141959D01*
X131559899Y-144141959D01*
G37*
G36*
X113559899Y-144141959D02*
G01*
X113576769Y-144153231D01*
X113588041Y-144170101D01*
X113594448Y-144202312D01*
X113594448Y-148137688D01*
X113591999Y-148150000D01*
X113588041Y-148169899D01*
X113576769Y-148186769D01*
X113559899Y-148198041D01*
X113540000Y-148201999D01*
X113527688Y-148204448D01*
X108472312Y-148204448D01*
X108440101Y-148198041D01*
X108423231Y-148186769D01*
X108411959Y-148169899D01*
X108405552Y-148137688D01*
X108405552Y-144202312D01*
X108411959Y-144170101D01*
X108423231Y-144153231D01*
X108440101Y-144141959D01*
X108472312Y-144135552D01*
X113527688Y-144135552D01*
X113559899Y-144141959D01*
X113559899Y-144141959D01*
G37*
G36*
X131559899Y-113801959D02*
G01*
X131576769Y-113813231D01*
X131588041Y-113830101D01*
X131594448Y-113862312D01*
X131594448Y-117797688D01*
X131591999Y-117810000D01*
X131588041Y-117829899D01*
X131576769Y-117846769D01*
X131559899Y-117858041D01*
X131540000Y-117861999D01*
X131527688Y-117864448D01*
X126472312Y-117864448D01*
X126440101Y-117858041D01*
X126423231Y-117846769D01*
X126411959Y-117829899D01*
X126405552Y-117797688D01*
X126405552Y-113862312D01*
X126411959Y-113830101D01*
X126423231Y-113813231D01*
X126440101Y-113801959D01*
X126472312Y-113795552D01*
X131527688Y-113795552D01*
X131559899Y-113801959D01*
X131559899Y-113801959D01*
G37*
G36*
X113559899Y-113801959D02*
G01*
X113576769Y-113813231D01*
X113588041Y-113830101D01*
X113594448Y-113862312D01*
X113594448Y-117797688D01*
X113591999Y-117810000D01*
X113588041Y-117829899D01*
X113576769Y-117846769D01*
X113559899Y-117858041D01*
X113540000Y-117861999D01*
X113527688Y-117864448D01*
X108472312Y-117864448D01*
X108440101Y-117858041D01*
X108423231Y-117846769D01*
X108411959Y-117829899D01*
X108405552Y-117797688D01*
X108405552Y-113862312D01*
X108411959Y-113830101D01*
X108423231Y-113813231D01*
X108440101Y-113801959D01*
X108472312Y-113795552D01*
X113527688Y-113795552D01*
X113559899Y-113801959D01*
X113559899Y-113801959D01*
G37*
G36*
X130189899Y-100971959D02*
G01*
X130206769Y-100983231D01*
X130218041Y-101000101D01*
X130224448Y-101032312D01*
X130224448Y-104967688D01*
X130221999Y-104980000D01*
X130218041Y-104999899D01*
X130206769Y-105016769D01*
X130189899Y-105028041D01*
X130170000Y-105031999D01*
X130157688Y-105034448D01*
X127842312Y-105034448D01*
X127810101Y-105028041D01*
X127793231Y-105016769D01*
X127781959Y-104999899D01*
X127775552Y-104967688D01*
X127775552Y-101032312D01*
X127781959Y-101000101D01*
X127793231Y-100983231D01*
X127810101Y-100971959D01*
X127842312Y-100965552D01*
X130157688Y-100965552D01*
X130189899Y-100971959D01*
X130189899Y-100971959D01*
G37*
G36*
X112189899Y-100971959D02*
G01*
X112206769Y-100983231D01*
X112218041Y-101000101D01*
X112224448Y-101032312D01*
X112224448Y-104967688D01*
X112221999Y-104980000D01*
X112218041Y-104999899D01*
X112206769Y-105016769D01*
X112189899Y-105028041D01*
X112170000Y-105031999D01*
X112157688Y-105034448D01*
X109842312Y-105034448D01*
X109810101Y-105028041D01*
X109793231Y-105016769D01*
X109781959Y-104999899D01*
X109775552Y-104967688D01*
X109775552Y-101032312D01*
X109781959Y-101000101D01*
X109793231Y-100983231D01*
X109810101Y-100971959D01*
X109842312Y-100965552D01*
X112157688Y-100965552D01*
X112189899Y-100971959D01*
X112189899Y-100971959D01*
G37*
G36*
X108629971Y-100660249D02*
G01*
X108681871Y-100660611D01*
X108721215Y-100669839D01*
X108754962Y-100673386D01*
X108803296Y-100689091D01*
X108859448Y-100702261D01*
X108890616Y-100717463D01*
X108917500Y-100726198D01*
X108966344Y-100754398D01*
X109023383Y-100782218D01*
X109045933Y-100800348D01*
X109065499Y-100811645D01*
X109111517Y-100853080D01*
X109165531Y-100896508D01*
X109179940Y-100914687D01*
X109192506Y-100926002D01*
X109232093Y-100980489D01*
X109278825Y-101039450D01*
X109286365Y-101055188D01*
X109292956Y-101064259D01*
X109322434Y-101130468D01*
X109357636Y-101203940D01*
X109360231Y-101215363D01*
X109362468Y-101220387D01*
X109378374Y-101295220D01*
X109398045Y-101381802D01*
X109397967Y-101387397D01*
X109397999Y-101387548D01*
X109397999Y-101558452D01*
X109395409Y-101570639D01*
X109395182Y-101586864D01*
X109376465Y-101659760D01*
X109362468Y-101725613D01*
X109355592Y-101741058D01*
X109349822Y-101763529D01*
X109318142Y-101825172D01*
X109292956Y-101881741D01*
X109279675Y-101900020D01*
X109266450Y-101925754D01*
X109225661Y-101974364D01*
X109192506Y-102019998D01*
X109171496Y-102038916D01*
X109149208Y-102065477D01*
X109103271Y-102100345D01*
X109065499Y-102134355D01*
X109036113Y-102151321D01*
X109003925Y-102175753D01*
X108956659Y-102197194D01*
X108917500Y-102219802D01*
X108879852Y-102232035D01*
X108837820Y-102251101D01*
X108792610Y-102260381D01*
X108754962Y-102272614D01*
X108709993Y-102277341D01*
X108659151Y-102287777D01*
X108618750Y-102286931D01*
X108585000Y-102290478D01*
X108534448Y-102285165D01*
X108476795Y-102283957D01*
X108443152Y-102275569D01*
X108415038Y-102272614D01*
X108361402Y-102255186D01*
X108299818Y-102239832D01*
X108273985Y-102226783D01*
X108252500Y-102219802D01*
X108198882Y-102188845D01*
X108137014Y-102157594D01*
X108119138Y-102142806D01*
X108104501Y-102134355D01*
X108054478Y-102089315D01*
X107996476Y-102041331D01*
X107985822Y-102027497D01*
X107977494Y-102019998D01*
X107934898Y-101961369D01*
X107885189Y-101896821D01*
X107880278Y-101886192D01*
X107877044Y-101881741D01*
X107845920Y-101811834D01*
X107808683Y-101731246D01*
X107770761Y-101552837D01*
X107772001Y-101464012D01*
X107772001Y-101387548D01*
X107773143Y-101382173D01*
X107773307Y-101370459D01*
X107792469Y-101291253D01*
X107807532Y-101220387D01*
X107812090Y-101210149D01*
X107816196Y-101193178D01*
X107849660Y-101125766D01*
X107877044Y-101064259D01*
X107886982Y-101050581D01*
X107897295Y-101029805D01*
X107941093Y-100976103D01*
X107977494Y-100926002D01*
X107994286Y-100910883D01*
X108012575Y-100888458D01*
X108062586Y-100849385D01*
X108104501Y-100811645D01*
X108128983Y-100797510D01*
X108156304Y-100776165D01*
X108208480Y-100751613D01*
X108252500Y-100726198D01*
X108284775Y-100715711D01*
X108321340Y-100698505D01*
X108372032Y-100687360D01*
X108415038Y-100673386D01*
X108454408Y-100669248D01*
X108499481Y-100659338D01*
X108545629Y-100659660D01*
X108585000Y-100655522D01*
X108629971Y-100660249D01*
X108629971Y-100660249D01*
G37*
G36*
X131489971Y-100660249D02*
G01*
X131541871Y-100660611D01*
X131581215Y-100669839D01*
X131614962Y-100673386D01*
X131663296Y-100689091D01*
X131719448Y-100702261D01*
X131750616Y-100717463D01*
X131777500Y-100726198D01*
X131826344Y-100754398D01*
X131883383Y-100782218D01*
X131905933Y-100800348D01*
X131925499Y-100811645D01*
X131971517Y-100853080D01*
X132025531Y-100896508D01*
X132039940Y-100914687D01*
X132052506Y-100926002D01*
X132092093Y-100980489D01*
X132138825Y-101039450D01*
X132146365Y-101055188D01*
X132152956Y-101064259D01*
X132182434Y-101130468D01*
X132217636Y-101203940D01*
X132220231Y-101215363D01*
X132222468Y-101220387D01*
X132238374Y-101295220D01*
X132258045Y-101381802D01*
X132257967Y-101387397D01*
X132257999Y-101387548D01*
X132257999Y-101558452D01*
X132255409Y-101570639D01*
X132255182Y-101586864D01*
X132236465Y-101659760D01*
X132222468Y-101725613D01*
X132215592Y-101741058D01*
X132209822Y-101763529D01*
X132178142Y-101825172D01*
X132152956Y-101881741D01*
X132139675Y-101900020D01*
X132126450Y-101925754D01*
X132085661Y-101974364D01*
X132052506Y-102019998D01*
X132031496Y-102038916D01*
X132009208Y-102065477D01*
X131963271Y-102100345D01*
X131925499Y-102134355D01*
X131896113Y-102151321D01*
X131863925Y-102175753D01*
X131816659Y-102197194D01*
X131777500Y-102219802D01*
X131739852Y-102232035D01*
X131697820Y-102251101D01*
X131652610Y-102260381D01*
X131614962Y-102272614D01*
X131569993Y-102277341D01*
X131519151Y-102287777D01*
X131478750Y-102286931D01*
X131445000Y-102290478D01*
X131394448Y-102285165D01*
X131336795Y-102283957D01*
X131303152Y-102275569D01*
X131275038Y-102272614D01*
X131221402Y-102255186D01*
X131159818Y-102239832D01*
X131133985Y-102226783D01*
X131112500Y-102219802D01*
X131058882Y-102188845D01*
X130997014Y-102157594D01*
X130979138Y-102142806D01*
X130964501Y-102134355D01*
X130914478Y-102089315D01*
X130856476Y-102041331D01*
X130845822Y-102027497D01*
X130837494Y-102019998D01*
X130794898Y-101961369D01*
X130745189Y-101896821D01*
X130740278Y-101886192D01*
X130737044Y-101881741D01*
X130705920Y-101811834D01*
X130668683Y-101731246D01*
X130630761Y-101552837D01*
X130632001Y-101464012D01*
X130632001Y-101387548D01*
X130633143Y-101382173D01*
X130633307Y-101370459D01*
X130652469Y-101291253D01*
X130667532Y-101220387D01*
X130672090Y-101210149D01*
X130676196Y-101193178D01*
X130709660Y-101125766D01*
X130737044Y-101064259D01*
X130746982Y-101050581D01*
X130757295Y-101029805D01*
X130801093Y-100976103D01*
X130837494Y-100926002D01*
X130854286Y-100910883D01*
X130872575Y-100888458D01*
X130922586Y-100849385D01*
X130964501Y-100811645D01*
X130988983Y-100797510D01*
X131016304Y-100776165D01*
X131068480Y-100751613D01*
X131112500Y-100726198D01*
X131144775Y-100715711D01*
X131181340Y-100698505D01*
X131232032Y-100687360D01*
X131275038Y-100673386D01*
X131314408Y-100669248D01*
X131359481Y-100659338D01*
X131405629Y-100659660D01*
X131445000Y-100655522D01*
X131489971Y-100660249D01*
X131489971Y-100660249D01*
G37*
M02*
