M48
INCH,TZ
T1C0.0118
T2C0.0394
T3C0.0500
T4C0.0866
%
G90
G05
T1
X39550Y-46600
X39550Y-47200
X39550Y-48425
X39775Y-50200
X39775Y-50700
X39775Y-51600
X39950Y-47950
X40061Y-49209
X40225Y-48525
X40225Y-48850
X40375Y-49200
X40425Y-52300
X40425Y-53375
X40425Y-54350
X40425Y-55400
X40425Y-56350
X40425Y-57375
X40425Y-58450
X40425Y-59575
X40675Y-49196
X40700Y-48659
X40876Y-47480
X40907Y-49608
X40907Y-50231
X40950Y-47948
X40950Y-48244
X41150Y-46550
X41300Y-51075
X41600Y-53375
X41600Y-56350
X41650Y-46550
X41675Y-58450
X41680Y-59580
X41700Y-54350
X41700Y-55400
X41700Y-57350
X41725Y-52300
X41750Y-59040
X41772Y-45039
X41811Y-46102
X41831Y-39665
X41831Y-40157
X41831Y-40748
X41831Y-41339
X41831Y-41929
X41831Y-42520
X41831Y-43110
X41831Y-43701
X41831Y-44291
X42000Y-51350
X42150Y-46550
X42165Y-45512
X42219Y-51606
X42300Y-40500
X42300Y-41000
X42300Y-41600
X42300Y-42200
X42300Y-42800
X42300Y-43400
X42300Y-44000
X42700Y-44094
X42700Y-44500
X42717Y-42953
X42800Y-40750
X42800Y-41350
X42800Y-58450
X42925Y-52325
X42925Y-53375
X42925Y-54350
X42925Y-55375
X42925Y-56325
X42925Y-60625
X42937Y-61830
X42937Y-63380
X42950Y-47150
X43120Y-59330
X43200Y-44300
X43300Y-42600
X43350Y-47150
X43625Y-50925
X43700Y-47800
X43701Y-41749
X43800Y-51200
X43800Y-54349
X43900Y-58700
X43950Y-50160
X43985Y-49426
X44036Y-47136
X44094Y-42007
X44100Y-42600
X44100Y-44300
X44125Y-53375
X44125Y-55375
X44125Y-56325
X44300Y-49100
X44325Y-50150
X44400Y-48525
X44425Y-60625
X44437Y-61830
X44437Y-63380
X44450Y-44443
X44469Y-55706
X44488Y-42262
X44500Y-52050
X44725Y-58700
X44804Y-49540
X44808Y-49956
X44825Y-56350
X44850Y-57350
X44850Y-58225
X44850Y-60375
X44950Y-46000
X45047Y-44438
X45050Y-44050
X45050Y-49350
X45050Y-48780
X45050Y-51275
X45050Y-53050
X45056Y-49734
X45075Y-52300
X45250Y-47250
X45250Y-47666
X45250Y-47962
X45273Y-41997
X45300Y-54275
X45325Y-58225
X45400Y-48800
X45400Y-50500
X45400Y-51000
X45400Y-49357
X45550Y-47392
X45550Y-47808
X45750Y-48792
X45750Y-49250
X45750Y-49550
X45750Y-53350
X45750Y-53825
X45750Y-54275
X45750Y-57350
X45750Y-40700
X45754Y-55354
X45762Y-55787
X45776Y-46004
X45825Y-59100
X45825Y-59550
X45838Y-60113
X46150Y-47550
X46200Y-61200
X46200Y-62100
X46245Y-42755
X46250Y-40700
X46250Y-42114
X46250Y-43500
X46250Y-51500
X46250Y-42438
X46250Y-43051
X46450Y-46750
X46500Y-48792
X46500Y-49700
X46675Y-59300
X46675Y-59750
X46700Y-58100
X46750Y-40700
X46825Y-51300
X46850Y-48800
X46925Y-52875
X47000Y-45850
X47150Y-42050
X47150Y-43500
X47225Y-52125
X47250Y-61200
X47250Y-62100
X47275Y-52875
X47275Y-54525
X47275Y-54825
X47275Y-56525
X47275Y-56975
X47325Y-48800
X47350Y-45850
X47350Y-47050
X47350Y-47550
X47450Y-43000
X47525Y-57550
X47625Y-51300
X47625Y-52125
X47650Y-48800
X47650Y-49125
X47650Y-49425
X47692Y-45850
X47700Y-47050
X47700Y-47550
X47775Y-59275
X47900Y-57550
X48050Y-47050
X48175Y-48200
X48175Y-48800
X48200Y-52125
X48250Y-58550
X48250Y-58075
X48300Y-61200
X48300Y-62100
X48400Y-47050
X48425Y-51300
X48450Y-42700
X48475Y-43675
X48500Y-49650
X48600Y-60100
X48750Y-46350
X48750Y-47050
X48775Y-52125
X48850Y-48200
X48875Y-59375
X48890Y-53185
X48896Y-54671
X48900Y-56150
X49000Y-41725
X49075Y-46350
X49200Y-49200
X49450Y-45450
X49450Y-46575
X49700Y-42825
X49700Y-43550
X49725Y-56075
X49850Y-59175
X49850Y-60150
X49850Y-61975
X49900Y-47050
X49900Y-48200
X49900Y-49200
X49975Y-53200
X50075Y-40725
X50225Y-56575
X50325Y-42408
X50325Y-42875
X50325Y-43325
X50325Y-49200
X50490Y-41910
X50550Y-42650
X50550Y-43100
X50550Y-43550
X50700Y-42175
X50700Y-51475
X50750Y-47050
X50750Y-48200
X50750Y-49200
X50787Y-56612
X50806Y-61569
X50825Y-52700
X51100Y-41975
X51100Y-42400
X51125Y-53400
X51125Y-54325
X51125Y-54925
X51125Y-56000
X51129Y-53750
X51150Y-51475
X51450Y-41670
X51594Y-61556
X51594Y-61961
X51600Y-47050
X51600Y-48200
X51600Y-49200
X51625Y-40650
X51800Y-41375
X51825Y-58900
X51950Y-40650
X52000Y-45875
X52000Y-45225
X52000Y-45550
X52000Y-46200
X52050Y-57650
X52125Y-41025
X52200Y-43750
X52200Y-44150
X52225Y-42400
X52350Y-49975
X52500Y-39625
X52500Y-40200
X52500Y-40750
X52550Y-61975
X52575Y-50300
X52700Y-42400
X52700Y-42850
X52700Y-43275
X52875Y-39950
X52875Y-40425
X52915Y-58610
X52950Y-45225
X52950Y-59575
X52975Y-43625
X52975Y-44150
X52975Y-46200
X52975Y-47050
X52975Y-48200
X52975Y-49200
X52975Y-50300
X52975Y-51350
X53025Y-42625
X53025Y-43075
X53150Y-54300
X53150Y-55050
X53150Y-56000
X53150Y-56825
X53150Y-57700
X53150Y-58900
X53150Y-60150
X53150Y-61250
X53166Y-53709
X53175Y-52700
X53175Y-53100
X53175Y-62350
X53225Y-39625
X53225Y-40200
X53225Y-40750
X53375Y-43275
X53625Y-39950
X53700Y-43625
X54050Y-39625
X54050Y-43275
X54400Y-43625
X54450Y-39950
X54750Y-43275
X41732Y-45512
T2
X42133Y-53429
X42133Y-56578
X54100Y-44575
X54100Y-45575
X54100Y-46575
X54100Y-47575
X54100Y-48575
X54100Y-49575
X54100Y-50575
X54100Y-51575
X54100Y-52575
X54100Y-53575
X54100Y-54575
X54100Y-55575
X54100Y-56575
X54100Y-57575
X54100Y-58575
X54100Y-59575
X54100Y-60575
X54100Y-61575
T3
X42750Y-39950
X51750Y-39950
T4
X42303Y-64961
X52165Y-64961
T0
M30
