G04 #@! TF.GenerationSoftware,KiCad,Pcbnew,(5.1.0-1348-g4ca769472)*
G04 #@! TF.CreationDate,2021-05-21T20:59:55-07:00*
G04 #@! TF.ProjectId,loggerhw_v5.0,6c6f6767-6572-4687-975f-76352e302e6b,rev?*
G04 #@! TF.SameCoordinates,Original*
G04 #@! TF.FileFunction,Copper,L2,Inr*
G04 #@! TF.FilePolarity,Positive*
%FSLAX46Y46*%
G04 Gerber Fmt 4.6, Leading zero omitted, Abs format (unit mm)*
G04 Created by KiCad (PCBNEW (5.1.0-1348-g4ca769472)) date 2021-05-21 20:59:55*
%MOMM*%
%LPD*%
G04 APERTURE LIST*
%ADD10C,1.100000*%
%ADD11O,1.700000X1.700000*%
%ADD12R,1.700000X1.700000*%
%ADD13C,1.524000*%
%ADD14R,0.500000X0.900000*%
%ADD15C,0.600000*%
%ADD16C,0.152400*%
G04 APERTURE END LIST*
D10*
X107018500Y-143708500D03*
X107018500Y-135708500D03*
D11*
X137414000Y-156400500D03*
X137414000Y-153860500D03*
X137414000Y-151320500D03*
X137414000Y-148780500D03*
X137414000Y-146240500D03*
X137414000Y-143700500D03*
X137414000Y-141160500D03*
X137414000Y-138620500D03*
X137414000Y-136080500D03*
X137414000Y-133540500D03*
X137414000Y-131000500D03*
X137414000Y-128460500D03*
X137414000Y-125920500D03*
X137414000Y-123380500D03*
X137414000Y-120840500D03*
X137414000Y-118300500D03*
X137414000Y-115760500D03*
D12*
X137414000Y-113220500D03*
D13*
X131445000Y-101473000D03*
X108585000Y-101473000D03*
D14*
X106000000Y-115600000D03*
D15*
X124650500Y-117729000D03*
X125603001Y-118300500D03*
X127825500Y-124968000D03*
X128905000Y-124968000D03*
X121348500Y-150558500D03*
X122555008Y-147510500D03*
X122555000Y-148717000D03*
X129867000Y-136525000D03*
X134493000Y-114871500D03*
X134556500Y-117348000D03*
X100457000Y-122999500D03*
X101028500Y-131064000D03*
X102679500Y-132842000D03*
X129095500Y-133858000D03*
X122428000Y-132397500D03*
X119189500Y-134302500D03*
X116205000Y-135509000D03*
X114490500Y-132842000D03*
X109029500Y-132905500D03*
X105981500Y-132842000D03*
X113919000Y-145669000D03*
X112077500Y-143065500D03*
X112077500Y-140652500D03*
X112077500Y-135572500D03*
X109029500Y-135572500D03*
X105664000Y-135572500D03*
X102679500Y-135572500D03*
X102679500Y-140716000D03*
X102679500Y-138049000D03*
X105918000Y-138049000D03*
X109029500Y-138049000D03*
X109029500Y-140652500D03*
X105918000Y-140716000D03*
X129000000Y-143795500D03*
X135001000Y-142240000D03*
X120205500Y-123952000D03*
X121030998Y-123951996D03*
X121031000Y-124777500D03*
X121031000Y-125539500D03*
X113855500Y-143129000D03*
X109029500Y-143065500D03*
X105664000Y-143129000D03*
X102679500Y-143129000D03*
X105918000Y-145669000D03*
X102679500Y-145732500D03*
X102679500Y-148463000D03*
X102679500Y-151320500D03*
X109029500Y-153987500D03*
X112839500Y-153987500D03*
X108712000Y-148463000D03*
X105854500Y-148463000D03*
X113919000Y-147891500D03*
X116395500Y-150114000D03*
X116395500Y-151257000D03*
X118618000Y-147574000D03*
X116205000Y-145669000D03*
X120078500Y-144716500D03*
X126619000Y-150304500D03*
X126619000Y-152781000D03*
X135064500Y-158369000D03*
X135001000Y-155575000D03*
X135001000Y-152781000D03*
X135001000Y-149606000D03*
X135001000Y-146558000D03*
X135001000Y-144335500D03*
X135001000Y-137922000D03*
X135001000Y-139827000D03*
X129857500Y-142240000D03*
X129857500Y-137985500D03*
X126936500Y-135128000D03*
X134556500Y-130429000D03*
X134556500Y-127762000D03*
X134556500Y-124968000D03*
X134556500Y-122428000D03*
X134556500Y-119507000D03*
X128905000Y-119507000D03*
X122364500Y-122428000D03*
X128905000Y-122428000D03*
X131064000Y-119507000D03*
X126746000Y-119507000D03*
X119761000Y-110490000D03*
X117475000Y-110490000D03*
X126238000Y-110617000D03*
X129794000Y-107696000D03*
X129921000Y-130746500D03*
X128778001Y-130746499D03*
X132080000Y-114871500D03*
X132080000Y-115697000D03*
X132079998Y-116522500D03*
X132080000Y-117347992D03*
X133350000Y-100647500D03*
X133350000Y-102108000D03*
X134556500Y-112141000D03*
X132588000Y-112141000D03*
X132588000Y-111125000D03*
X134556500Y-110807500D03*
X133858000Y-109918500D03*
X133858000Y-108839000D03*
X133858000Y-107696000D03*
X132651500Y-107696000D03*
X134302500Y-101473000D03*
X134302500Y-102679500D03*
X133350000Y-103505000D03*
X132397500Y-104203500D03*
X131572000Y-105092500D03*
X130683000Y-105841800D03*
X129794000Y-106616500D03*
X128778000Y-107124500D03*
X128397000Y-110617000D03*
X128397000Y-108331000D03*
X127825500Y-107716232D03*
X127825500Y-108902496D03*
X128397000Y-109474000D03*
X126238000Y-108775500D03*
X123126500Y-110934500D03*
X123063000Y-108458000D03*
X111252000Y-138047498D03*
X101028500Y-127508000D03*
X101028500Y-128778000D03*
X107236500Y-131079000D03*
X106680000Y-130429000D03*
X104902000Y-129730500D03*
X102171500Y-123253500D03*
X102171500Y-124079000D03*
X101755082Y-124992059D03*
X102552500Y-124968000D03*
X116205000Y-136715500D03*
X111506000Y-149098000D03*
X113919000Y-153352500D03*
X113601500Y-149098000D03*
X112951500Y-141493000D03*
X133477000Y-157416500D03*
X126619000Y-157416500D03*
X129048000Y-156384500D03*
X131048000Y-156353000D03*
X131048000Y-157381699D03*
X116427250Y-152685750D03*
X118554500Y-150622000D03*
X118554500Y-151765000D03*
X115125500Y-147891500D03*
X134404000Y-148869500D03*
X132207000Y-146431000D03*
X126301500Y-142430500D03*
X127571500Y-143700502D03*
X124181466Y-135089034D03*
X121666000Y-146177000D03*
X120713500Y-146177000D03*
X124142500Y-150812500D03*
X113030000Y-132207000D03*
X131635500Y-149606000D03*
X124206000Y-142621000D03*
X124196500Y-138865000D03*
X129857500Y-139509500D03*
X117475002Y-130810000D03*
X123190000Y-126111000D03*
X122364500Y-123952004D03*
X119951500Y-132397500D03*
X120967500Y-132397504D03*
X129857500Y-135636000D03*
X134493000Y-151320492D03*
X135041500Y-136421000D03*
X123888500Y-132397500D03*
X135064500Y-134874000D03*
X135064500Y-133858000D03*
X116235000Y-141698500D03*
X114427000Y-134747000D03*
X115062000Y-137858500D03*
X116205000Y-137858500D03*
X116214510Y-140598500D03*
X120078500Y-134302500D03*
X120078500Y-138493500D03*
X120078500Y-139255500D03*
X111252000Y-130048000D03*
X110807500Y-129349500D03*
X120078500Y-143573500D03*
X113812610Y-126889383D03*
X112585500Y-127381000D03*
X115316000Y-128270000D03*
X114427000Y-130238500D03*
X115316000Y-129539996D03*
X112776000Y-123253500D03*
X115697000Y-121432610D03*
X114935000Y-121072211D03*
X114935000Y-121824624D03*
X115697000Y-120375390D03*
X103314500Y-124956979D03*
X104013000Y-121786775D03*
X104013000Y-122539188D03*
X103902987Y-126005400D03*
X103377998Y-123594956D03*
X118110000Y-123931390D03*
X114427000Y-123901193D03*
X111723125Y-125540908D03*
X111633000Y-127406409D03*
X116204996Y-123931390D03*
X113802396Y-125832172D03*
X117475420Y-109350791D03*
X117462961Y-108598482D03*
X121137390Y-116459000D03*
X111851221Y-119725221D03*
X122682000Y-155448000D03*
X122682000Y-157734000D03*
X120015000Y-157734000D03*
X120015000Y-155448000D03*
X106045000Y-149961600D03*
X105867200Y-151333200D03*
X109524800Y-150698200D03*
X117348000Y-155448000D03*
X117348000Y-157734000D03*
X112871000Y-157049000D03*
X106200000Y-117100000D03*
X106100000Y-114400000D03*
X107100000Y-115600000D03*
X106250000Y-112500000D03*
X106250000Y-109500000D03*
X106250000Y-111000000D03*
X106250000Y-108000000D03*
X106250000Y-106500000D03*
X106250000Y-105000000D03*
X106250000Y-103500000D03*
X106250000Y-102000000D03*
X106250000Y-100750000D03*
X116271390Y-116849832D03*
X108458000Y-111998000D03*
X114420000Y-112871390D03*
X108500000Y-109100000D03*
X103903416Y-127586210D03*
X112903143Y-112885711D03*
X131064000Y-124968000D03*
X109093000Y-119761000D03*
X120269000Y-119507000D03*
X120269000Y-120777016D03*
X112871000Y-160986000D03*
X109061000Y-160986000D03*
X109061000Y-157049000D03*
X114426998Y-111887000D03*
X119761000Y-106807000D03*
X120523000Y-109220000D03*
X114992673Y-106672679D03*
X117475008Y-107791959D03*
X117475000Y-106968987D03*
X121158000Y-119507000D03*
X121158000Y-120777000D03*
X122047000Y-119507000D03*
X122936000Y-119507000D03*
X124967994Y-124968000D03*
X117221000Y-120777000D03*
X111000000Y-106042994D03*
X112000000Y-106697861D03*
X113000000Y-107345012D03*
X126746000Y-122428000D03*
X131064000Y-122428000D03*
X107442000Y-102870000D03*
X107442000Y-104140000D03*
X107442000Y-105664000D03*
X107442000Y-107188000D03*
X107442000Y-108712000D03*
X107442000Y-110236000D03*
X107442000Y-111760000D03*
X108712000Y-103505000D03*
X123444000Y-152654000D03*
X100457000Y-118364000D03*
X100457000Y-119888000D03*
X108458000Y-113030000D03*
X109728000Y-112522000D03*
X112014000Y-108204000D03*
X109982000Y-108204000D03*
X112014000Y-112522000D03*
X108712000Y-105029008D03*
X116205008Y-103378000D03*
X118745000Y-103378000D03*
X117475000Y-103378000D03*
X114426999Y-125349001D03*
X115316004Y-125366250D03*
X116205000Y-125857000D03*
X114443005Y-126324986D03*
X118110000Y-126237998D03*
X124079000Y-122428000D03*
X112522000Y-124714000D03*
X114173000Y-116840000D03*
X107061000Y-118237000D03*
X123825000Y-119507000D03*
X126746000Y-124968000D03*
X118999008Y-123952008D03*
X115316000Y-123952000D03*
X110998000Y-121412000D03*
X110109000Y-119761000D03*
X114935000Y-120015000D03*
X116205000Y-125095000D03*
X101473000Y-121793000D03*
X104521000Y-118237000D03*
X105791000Y-118237000D03*
X103825000Y-120600000D03*
X117982996Y-118745000D03*
X123825000Y-117729000D03*
X120269000Y-116459000D03*
X119380000Y-116459000D03*
X125602996Y-115443000D03*
X127190500Y-103441500D03*
X118935500Y-130302000D03*
X120967500Y-130301998D03*
X122999500Y-130302000D03*
X131127500Y-103251000D03*
X131953000Y-103251000D03*
X124459998Y-105981500D03*
X128244500Y-106451500D03*
X127825500Y-110045500D03*
X132969000Y-126936500D03*
X133540500Y-127762000D03*
X135191500Y-103505000D03*
X135191500Y-102108000D03*
X135191500Y-100647500D03*
X136207500Y-101473000D03*
X137287000Y-100647500D03*
X138303000Y-101473000D03*
X134683500Y-108267500D03*
X134683500Y-109410500D03*
X135572500Y-109918500D03*
X137287000Y-109918500D03*
X139065000Y-109918500D03*
X136398000Y-110807500D03*
X138176000Y-110807500D03*
D16*
G36*
X129349239Y-165877480D02*
G01*
X129348582Y-165875203D01*
X129348071Y-165872881D01*
X129347711Y-165872186D01*
X129176714Y-165279880D01*
X129176648Y-165279099D01*
X129175842Y-165276860D01*
X129175185Y-165274585D01*
X129174782Y-165273917D01*
X129063584Y-164965107D01*
X131167496Y-164965107D01*
X131182377Y-165201625D01*
X131238906Y-165431769D01*
X131335296Y-165648266D01*
X131514615Y-165912129D01*
X132426744Y-165000000D01*
X132573256Y-165000000D01*
X133474883Y-165901627D01*
X133540284Y-165833423D01*
X133671429Y-165636034D01*
X133765547Y-165418540D01*
X133819890Y-165186849D01*
X133827860Y-164882485D01*
X133785717Y-164648268D01*
X133703111Y-164426146D01*
X133582475Y-164222162D01*
X133475280Y-164097976D01*
X132573256Y-165000000D01*
X132426744Y-165000000D01*
X131520807Y-164094064D01*
X131370819Y-164291666D01*
X131263230Y-164502822D01*
X131194735Y-164729693D01*
X131167496Y-164965107D01*
X129063584Y-164965107D01*
X128965918Y-164693878D01*
X128965803Y-164693105D01*
X128964857Y-164690929D01*
X128964049Y-164688686D01*
X128963601Y-164688042D01*
X128717743Y-164122695D01*
X128717577Y-164121930D01*
X128716491Y-164119816D01*
X128715545Y-164117642D01*
X128715059Y-164117031D01*
X128667894Y-164025269D01*
X131598525Y-164025269D01*
X132500000Y-164926744D01*
X133403508Y-164023236D01*
X133243452Y-163893626D01*
X133035781Y-163779457D01*
X132811174Y-163703869D01*
X132576731Y-163669249D01*
X132339862Y-163676693D01*
X132108055Y-163725966D01*
X131888639Y-163815508D01*
X131688545Y-163942491D01*
X131598525Y-164025269D01*
X128667894Y-164025269D01*
X128433226Y-163568716D01*
X128433013Y-163567970D01*
X128431803Y-163565949D01*
X128430709Y-163563820D01*
X128430179Y-163563236D01*
X128113556Y-163034267D01*
X128113293Y-163033527D01*
X128111939Y-163031564D01*
X128110726Y-163029538D01*
X128110167Y-163028996D01*
X127760061Y-162521550D01*
X127759751Y-162520830D01*
X127758276Y-162518963D01*
X127756933Y-162517016D01*
X127756340Y-162516511D01*
X127374214Y-162032714D01*
X127373859Y-162032017D01*
X127372270Y-162030253D01*
X127370799Y-162028390D01*
X127370172Y-162027923D01*
X126957631Y-161569802D01*
X126957231Y-161569128D01*
X126955528Y-161567466D01*
X126953941Y-161565704D01*
X126953286Y-161565279D01*
X126512039Y-161134732D01*
X126511597Y-161134087D01*
X126509794Y-161132542D01*
X126508095Y-161130884D01*
X126507413Y-161130501D01*
X126039301Y-160729325D01*
X126038821Y-160728713D01*
X126036932Y-160727295D01*
X126035113Y-160725736D01*
X126034402Y-160725395D01*
X125541383Y-160355269D01*
X125540861Y-160354686D01*
X125538874Y-160353386D01*
X125536980Y-160351964D01*
X125536256Y-160351673D01*
X125020366Y-160014126D01*
X125019812Y-160013582D01*
X125017759Y-160012421D01*
X125015759Y-160011112D01*
X125015011Y-160010866D01*
X124478425Y-159707318D01*
X124477835Y-159706809D01*
X124475704Y-159705779D01*
X124473627Y-159704604D01*
X124472866Y-159704407D01*
X123917813Y-159436123D01*
X123917189Y-159435651D01*
X123914988Y-159434757D01*
X123912850Y-159433724D01*
X123912082Y-159433577D01*
X123340870Y-159201670D01*
X123340214Y-159201238D01*
X123337951Y-159200485D01*
X123335758Y-159199595D01*
X123334985Y-159199499D01*
X122749994Y-159004935D01*
X122749314Y-159004547D01*
X122747015Y-159003944D01*
X122744763Y-159003195D01*
X122743983Y-159003149D01*
X122147658Y-158846743D01*
X122146956Y-158846400D01*
X122144625Y-158845947D01*
X122142322Y-158845343D01*
X122141538Y-158845347D01*
X121536365Y-158727749D01*
X121535640Y-158727452D01*
X121533280Y-158727150D01*
X121530955Y-158726698D01*
X121530176Y-158726752D01*
X120918672Y-158648452D01*
X120917928Y-158648202D01*
X120915550Y-158648053D01*
X120913203Y-158647752D01*
X120912431Y-158647856D01*
X120297150Y-158609181D01*
X120296390Y-158608979D01*
X120294002Y-158608983D01*
X120291643Y-158608835D01*
X120290880Y-158608989D01*
X119674382Y-158610100D01*
X119673614Y-158609948D01*
X119671241Y-158610106D01*
X119668869Y-158610110D01*
X119668115Y-158610314D01*
X119052972Y-158651206D01*
X119052197Y-158651104D01*
X119049846Y-158651414D01*
X119047479Y-158651571D01*
X119046739Y-158651823D01*
X118435515Y-158732328D01*
X118434734Y-158732276D01*
X118432404Y-158732737D01*
X118430054Y-158733047D01*
X118429333Y-158733346D01*
X117824585Y-158853125D01*
X117823800Y-158853124D01*
X117821497Y-158853737D01*
X117819174Y-158854197D01*
X117818474Y-158854541D01*
X117222708Y-159013099D01*
X117221930Y-159013148D01*
X117219689Y-159013902D01*
X117217387Y-159014515D01*
X117216707Y-159014906D01*
X116632424Y-159211575D01*
X116631648Y-159211675D01*
X116629450Y-159212577D01*
X116627197Y-159213335D01*
X116626545Y-159213768D01*
X116056172Y-159447732D01*
X116055405Y-159447881D01*
X116053271Y-159448922D01*
X116051072Y-159449824D01*
X116050449Y-159450298D01*
X115496360Y-159720585D01*
X115495603Y-159720784D01*
X115493539Y-159721962D01*
X115491410Y-159723000D01*
X115490821Y-159723512D01*
X114955327Y-160028992D01*
X114954586Y-160029238D01*
X114952606Y-160030544D01*
X114950537Y-160031724D01*
X114949979Y-160032276D01*
X114435321Y-160371673D01*
X114434597Y-160371967D01*
X114432706Y-160373397D01*
X114430720Y-160374707D01*
X114430200Y-160375293D01*
X113938518Y-160747193D01*
X113937810Y-160747535D01*
X113936003Y-160749095D01*
X113934115Y-160750523D01*
X113933636Y-160751138D01*
X113466975Y-161153996D01*
X113466294Y-161154381D01*
X113464600Y-161156045D01*
X113462802Y-161157598D01*
X113462362Y-161158245D01*
X113022674Y-161590375D01*
X113022018Y-161590804D01*
X113020431Y-161592579D01*
X113018736Y-161594245D01*
X113018339Y-161594919D01*
X112607460Y-162054515D01*
X112606830Y-162054988D01*
X112605352Y-162056873D01*
X112603776Y-162058636D01*
X112603425Y-162059331D01*
X112223055Y-162544494D01*
X112222460Y-162545004D01*
X112221115Y-162546968D01*
X112219654Y-162548832D01*
X112219348Y-162549550D01*
X111871075Y-163058250D01*
X111870514Y-163058798D01*
X111869298Y-163060845D01*
X111867961Y-163062799D01*
X111867702Y-163063535D01*
X111552982Y-163593650D01*
X111552460Y-163594230D01*
X111551384Y-163596342D01*
X111550167Y-163598392D01*
X111549955Y-163599148D01*
X111270105Y-164148462D01*
X111269621Y-164149074D01*
X111268684Y-164151251D01*
X111267601Y-164153376D01*
X111267438Y-164154144D01*
X111023618Y-164720373D01*
X111023174Y-164721017D01*
X111022377Y-164723256D01*
X111021439Y-164725434D01*
X111021326Y-164726207D01*
X110814555Y-165306994D01*
X110814153Y-165307666D01*
X110813501Y-165309954D01*
X110812705Y-165312191D01*
X110812642Y-165312970D01*
X110643781Y-165905887D01*
X110643423Y-165906583D01*
X110642921Y-165908906D01*
X110642271Y-165911188D01*
X110642259Y-165911969D01*
X110512012Y-166514553D01*
X110511700Y-166515270D01*
X110511349Y-166517616D01*
X110510847Y-166519941D01*
X110510885Y-166520723D01*
X110419797Y-167130453D01*
X110419532Y-167131189D01*
X110419333Y-167133555D01*
X110418983Y-167135901D01*
X110419071Y-167136677D01*
X110385344Y-167538588D01*
X107533475Y-167539391D01*
X107517010Y-167534435D01*
X106869139Y-167514640D01*
X106240614Y-167456888D01*
X105616795Y-167360873D01*
X104999983Y-167226949D01*
X104392531Y-167055630D01*
X103796660Y-166847542D01*
X103214593Y-166603461D01*
X102648526Y-166324308D01*
X102100538Y-166011107D01*
X102057029Y-165982581D01*
X106540675Y-165982581D01*
X106777485Y-166150872D01*
X106991915Y-166251776D01*
X107220825Y-166313113D01*
X107456979Y-166332943D01*
X107692913Y-166310641D01*
X107921168Y-166246910D01*
X108134531Y-166143767D01*
X108358086Y-165981342D01*
X107450000Y-165073256D01*
X106540675Y-165982581D01*
X102057029Y-165982581D01*
X101572698Y-165665040D01*
X101066994Y-165287412D01*
X100686273Y-164965107D01*
X106117496Y-164965107D01*
X106132377Y-165201625D01*
X106188906Y-165431769D01*
X106285296Y-165648266D01*
X106464615Y-165912129D01*
X107376744Y-165000000D01*
X107523256Y-165000000D01*
X108424883Y-165901627D01*
X108490284Y-165833423D01*
X108621429Y-165636034D01*
X108715547Y-165418540D01*
X108769890Y-165186849D01*
X108777860Y-164882485D01*
X108735717Y-164648268D01*
X108653111Y-164426146D01*
X108532475Y-164222162D01*
X108425280Y-164097976D01*
X107523256Y-165000000D01*
X107376744Y-165000000D01*
X106470807Y-164094064D01*
X106320819Y-164291666D01*
X106213230Y-164502822D01*
X106144735Y-164729693D01*
X106117496Y-164965107D01*
X100686273Y-164965107D01*
X100585260Y-164879594D01*
X100129319Y-164443125D01*
X99743058Y-164025269D01*
X106548525Y-164025269D01*
X107450000Y-164926744D01*
X108353508Y-164023236D01*
X108193452Y-163893626D01*
X107985781Y-163779457D01*
X107761174Y-163703869D01*
X107526731Y-163669249D01*
X107289862Y-163676693D01*
X107058055Y-163725966D01*
X106838639Y-163815508D01*
X106638545Y-163942491D01*
X106548525Y-164025269D01*
X99743058Y-164025269D01*
X99700886Y-163979648D01*
X99301557Y-163490893D01*
X98932799Y-162978657D01*
X98595985Y-162444836D01*
X98292412Y-161891496D01*
X98023179Y-161320641D01*
X97789298Y-160734413D01*
X97591641Y-160134997D01*
X97430940Y-159524614D01*
X97307809Y-158905593D01*
X97290398Y-158777660D01*
X97267752Y-156346443D01*
X130511311Y-156346443D01*
X130544933Y-156540088D01*
X130646014Y-156708648D01*
X130800997Y-156829517D01*
X130927041Y-156867692D01*
X130812714Y-156899291D01*
X130654823Y-157016336D01*
X130549654Y-157182375D01*
X130511311Y-157375142D01*
X130544933Y-157568787D01*
X130646014Y-157737347D01*
X130800997Y-157858216D01*
X130989102Y-157915187D01*
X131185105Y-157900621D01*
X131362724Y-157816472D01*
X131498138Y-157674022D01*
X131573363Y-157491967D01*
X131575900Y-157284301D01*
X131505146Y-157100461D01*
X131373252Y-156954745D01*
X131197743Y-156866281D01*
X131197138Y-156866221D01*
X131362724Y-156787773D01*
X131498138Y-156645323D01*
X131573363Y-156463268D01*
X131573483Y-156453412D01*
X136332137Y-156453412D01*
X136364874Y-156669870D01*
X136440466Y-156875324D01*
X136555827Y-157061382D01*
X136706244Y-157220444D01*
X136885572Y-157346011D01*
X137088316Y-157433746D01*
X137374825Y-157478100D01*
X137468698Y-157478100D01*
X137631799Y-157461533D01*
X137840701Y-157396067D01*
X138032172Y-157289932D01*
X138198391Y-157147465D01*
X138332568Y-156974485D01*
X138429222Y-156778057D01*
X138484405Y-156566208D01*
X138495863Y-156347588D01*
X138463126Y-156131130D01*
X138387534Y-155925676D01*
X138272173Y-155739618D01*
X138121756Y-155580556D01*
X137942428Y-155454989D01*
X137739684Y-155367254D01*
X137453175Y-155322900D01*
X137359302Y-155322900D01*
X137196201Y-155339467D01*
X136987299Y-155404933D01*
X136795828Y-155511068D01*
X136629609Y-155653535D01*
X136495432Y-155826515D01*
X136398778Y-156022943D01*
X136343595Y-156234792D01*
X136332137Y-156453412D01*
X131573483Y-156453412D01*
X131575900Y-156255602D01*
X131505146Y-156071762D01*
X131373252Y-155926046D01*
X131197743Y-155837582D01*
X131002154Y-155818232D01*
X130812714Y-155870592D01*
X130654823Y-155987637D01*
X130549654Y-156153676D01*
X130511311Y-156346443D01*
X97267752Y-156346443D01*
X97262646Y-155798379D01*
X97266653Y-155761803D01*
X97373543Y-155139744D01*
X97518206Y-154525380D01*
X97700104Y-153921002D01*
X97702904Y-153913412D01*
X136332137Y-153913412D01*
X136364874Y-154129870D01*
X136440466Y-154335324D01*
X136555827Y-154521382D01*
X136706244Y-154680444D01*
X136885572Y-154806011D01*
X137088316Y-154893746D01*
X137374825Y-154938100D01*
X137468698Y-154938100D01*
X137631799Y-154921533D01*
X137840701Y-154856067D01*
X138032172Y-154749932D01*
X138198391Y-154607465D01*
X138332568Y-154434485D01*
X138429222Y-154238057D01*
X138484405Y-154026208D01*
X138495863Y-153807588D01*
X138463126Y-153591130D01*
X138387534Y-153385676D01*
X138272173Y-153199618D01*
X138121756Y-153040556D01*
X137942428Y-152914989D01*
X137739684Y-152827254D01*
X137453175Y-152782900D01*
X137359302Y-152782900D01*
X137196201Y-152799467D01*
X136987299Y-152864933D01*
X136795828Y-152971068D01*
X136629609Y-153113535D01*
X136495432Y-153286515D01*
X136398778Y-153482943D01*
X136343595Y-153694792D01*
X136332137Y-153913412D01*
X97702904Y-153913412D01*
X97912253Y-153345943D01*
X113382311Y-153345943D01*
X113415933Y-153539588D01*
X113517014Y-153708148D01*
X113671997Y-153829017D01*
X113860102Y-153885988D01*
X114056105Y-153871422D01*
X114233724Y-153787273D01*
X114369138Y-153644823D01*
X114444363Y-153462768D01*
X114446900Y-153255102D01*
X114376146Y-153071262D01*
X114244252Y-152925546D01*
X114068743Y-152837082D01*
X113873154Y-152817732D01*
X113683714Y-152870092D01*
X113525823Y-152987137D01*
X113420654Y-153153176D01*
X113382311Y-153345943D01*
X97912253Y-153345943D01*
X97918562Y-153328843D01*
X98172760Y-152751133D01*
X98461759Y-152190011D01*
X98718514Y-151758443D01*
X118017811Y-151758443D01*
X118051433Y-151952088D01*
X118152514Y-152120648D01*
X118307497Y-152241517D01*
X118495602Y-152298488D01*
X118691605Y-152283922D01*
X118869224Y-152199773D01*
X119004638Y-152057323D01*
X119079863Y-151875268D01*
X119082400Y-151667602D01*
X119011646Y-151483762D01*
X118879752Y-151338046D01*
X118831917Y-151313935D01*
X133956311Y-151313935D01*
X133989933Y-151507580D01*
X134091014Y-151676140D01*
X134245997Y-151797009D01*
X134434102Y-151853980D01*
X134630105Y-151839414D01*
X134807724Y-151755265D01*
X134943138Y-151612815D01*
X135018363Y-151430760D01*
X135019063Y-151373412D01*
X136332137Y-151373412D01*
X136364874Y-151589870D01*
X136440466Y-151795324D01*
X136555827Y-151981382D01*
X136706244Y-152140444D01*
X136885572Y-152266011D01*
X137088316Y-152353746D01*
X137374825Y-152398100D01*
X137468698Y-152398100D01*
X137631799Y-152381533D01*
X137840701Y-152316067D01*
X138032172Y-152209932D01*
X138198391Y-152067465D01*
X138332568Y-151894485D01*
X138429222Y-151698057D01*
X138484405Y-151486208D01*
X138495863Y-151267588D01*
X138463126Y-151051130D01*
X138387534Y-150845676D01*
X138272173Y-150659618D01*
X138121756Y-150500556D01*
X137942428Y-150374989D01*
X137739684Y-150287254D01*
X137453175Y-150242900D01*
X137359302Y-150242900D01*
X137196201Y-150259467D01*
X136987299Y-150324933D01*
X136795828Y-150431068D01*
X136629609Y-150573535D01*
X136495432Y-150746515D01*
X136398778Y-150942943D01*
X136343595Y-151154792D01*
X136332137Y-151373412D01*
X135019063Y-151373412D01*
X135020900Y-151223094D01*
X134950146Y-151039254D01*
X134818252Y-150893538D01*
X134642743Y-150805074D01*
X134447154Y-150785724D01*
X134257714Y-150838084D01*
X134099823Y-150955129D01*
X133994654Y-151121168D01*
X133956311Y-151313935D01*
X118831917Y-151313935D01*
X118704243Y-151249582D01*
X118508654Y-151230232D01*
X118319214Y-151282592D01*
X118161323Y-151399637D01*
X118056154Y-151565676D01*
X118017811Y-151758443D01*
X98718514Y-151758443D01*
X98784461Y-151647596D01*
X99139687Y-151125876D01*
X99475907Y-150691643D01*
X108988111Y-150691643D01*
X109021733Y-150885288D01*
X109122814Y-151053848D01*
X109277797Y-151174717D01*
X109465902Y-151231688D01*
X109661905Y-151217122D01*
X109839524Y-151132973D01*
X109974938Y-150990523D01*
X110050163Y-150808468D01*
X110052521Y-150615443D01*
X118017811Y-150615443D01*
X118051433Y-150809088D01*
X118152514Y-150977648D01*
X118307497Y-151098517D01*
X118495602Y-151155488D01*
X118691605Y-151140922D01*
X118869224Y-151056773D01*
X119004638Y-150914323D01*
X119079863Y-150732268D01*
X119082065Y-150551943D01*
X120811811Y-150551943D01*
X120845433Y-150745588D01*
X120946514Y-150914148D01*
X121101497Y-151035017D01*
X121289602Y-151091988D01*
X121485605Y-151077422D01*
X121663224Y-150993273D01*
X121798638Y-150850823D01*
X121873863Y-150668768D01*
X121876400Y-150461102D01*
X121805646Y-150277262D01*
X121673752Y-150131546D01*
X121498243Y-150043082D01*
X121302654Y-150023732D01*
X121113214Y-150076092D01*
X120955323Y-150193137D01*
X120850154Y-150359176D01*
X120811811Y-150551943D01*
X119082065Y-150551943D01*
X119082400Y-150524602D01*
X119011646Y-150340762D01*
X118879752Y-150195046D01*
X118704243Y-150106582D01*
X118508654Y-150087232D01*
X118319214Y-150139592D01*
X118161323Y-150256637D01*
X118056154Y-150422676D01*
X118017811Y-150615443D01*
X110052521Y-150615443D01*
X110052700Y-150600802D01*
X109981946Y-150416962D01*
X109850052Y-150271246D01*
X109674543Y-150182782D01*
X109478954Y-150163432D01*
X109289514Y-150215792D01*
X109131623Y-150332837D01*
X109026454Y-150498876D01*
X108988111Y-150691643D01*
X99475907Y-150691643D01*
X99526110Y-150626806D01*
X99943483Y-150150883D01*
X100131548Y-149955043D01*
X105508311Y-149955043D01*
X105541933Y-150148688D01*
X105643014Y-150317248D01*
X105797997Y-150438117D01*
X105986102Y-150495088D01*
X106182105Y-150480522D01*
X106359724Y-150396373D01*
X106495138Y-150253923D01*
X106570363Y-150071868D01*
X106572900Y-149864202D01*
X106502146Y-149680362D01*
X106428903Y-149599443D01*
X131098811Y-149599443D01*
X131132433Y-149793088D01*
X131233514Y-149961648D01*
X131388497Y-150082517D01*
X131576602Y-150139488D01*
X131772605Y-150124922D01*
X131950224Y-150040773D01*
X132085638Y-149898323D01*
X132160863Y-149716268D01*
X132163400Y-149508602D01*
X132092646Y-149324762D01*
X131960752Y-149179046D01*
X131785243Y-149090582D01*
X131589654Y-149071232D01*
X131400214Y-149123592D01*
X131242323Y-149240637D01*
X131137154Y-149406676D01*
X131098811Y-149599443D01*
X106428903Y-149599443D01*
X106370252Y-149534646D01*
X106194743Y-149446182D01*
X105999154Y-149426832D01*
X105809714Y-149479192D01*
X105651823Y-149596237D01*
X105546654Y-149762276D01*
X105508311Y-149955043D01*
X100131548Y-149955043D01*
X100161224Y-149924141D01*
X100170003Y-149908200D01*
X100190153Y-149888128D01*
X100198910Y-149855703D01*
X100215114Y-149826277D01*
X100213932Y-149767831D01*
X100216021Y-148710443D01*
X122018311Y-148710443D01*
X122051933Y-148904088D01*
X122153014Y-149072648D01*
X122307997Y-149193517D01*
X122496102Y-149250488D01*
X122692105Y-149235922D01*
X122869724Y-149151773D01*
X123005138Y-149009323D01*
X123065622Y-148862943D01*
X133867311Y-148862943D01*
X133900933Y-149056588D01*
X134002014Y-149225148D01*
X134156997Y-149346017D01*
X134345102Y-149402988D01*
X134541105Y-149388422D01*
X134718724Y-149304273D01*
X134854138Y-149161823D01*
X134929363Y-148979768D01*
X134931150Y-148833412D01*
X136332137Y-148833412D01*
X136364874Y-149049870D01*
X136440466Y-149255324D01*
X136555827Y-149441382D01*
X136706244Y-149600444D01*
X136885572Y-149726011D01*
X137088316Y-149813746D01*
X137374825Y-149858100D01*
X137468698Y-149858100D01*
X137631799Y-149841533D01*
X137840701Y-149776067D01*
X138032172Y-149669932D01*
X138198391Y-149527465D01*
X138332568Y-149354485D01*
X138429222Y-149158057D01*
X138484405Y-148946208D01*
X138495863Y-148727588D01*
X138463126Y-148511130D01*
X138387534Y-148305676D01*
X138272173Y-148119618D01*
X138121756Y-147960556D01*
X137942428Y-147834989D01*
X137739684Y-147747254D01*
X137453175Y-147702900D01*
X137359302Y-147702900D01*
X137196201Y-147719467D01*
X136987299Y-147784933D01*
X136795828Y-147891068D01*
X136629609Y-148033535D01*
X136495432Y-148206515D01*
X136398778Y-148402943D01*
X136343595Y-148614792D01*
X136332137Y-148833412D01*
X134931150Y-148833412D01*
X134931900Y-148772102D01*
X134861146Y-148588262D01*
X134729252Y-148442546D01*
X134553743Y-148354082D01*
X134358154Y-148334732D01*
X134168714Y-148387092D01*
X134010823Y-148504137D01*
X133905654Y-148670176D01*
X133867311Y-148862943D01*
X123065622Y-148862943D01*
X123080363Y-148827268D01*
X123082900Y-148619602D01*
X123012146Y-148435762D01*
X122880252Y-148290046D01*
X122704743Y-148201582D01*
X122509154Y-148182232D01*
X122319714Y-148234592D01*
X122161823Y-148351637D01*
X122056654Y-148517676D01*
X122018311Y-148710443D01*
X100216021Y-148710443D01*
X100217652Y-147884943D01*
X114588811Y-147884943D01*
X114622433Y-148078588D01*
X114723514Y-148247148D01*
X114878497Y-148368017D01*
X115066602Y-148424988D01*
X115262605Y-148410422D01*
X115440224Y-148326273D01*
X115575638Y-148183823D01*
X115650863Y-148001768D01*
X115653400Y-147794102D01*
X115582646Y-147610262D01*
X115486412Y-147503943D01*
X122018319Y-147503943D01*
X122051941Y-147697588D01*
X122153022Y-147866148D01*
X122308005Y-147987017D01*
X122496110Y-148043988D01*
X122692113Y-148029422D01*
X122869732Y-147945273D01*
X123005146Y-147802823D01*
X123080371Y-147620768D01*
X123082908Y-147413102D01*
X123012154Y-147229262D01*
X122880260Y-147083546D01*
X122704751Y-146995082D01*
X122509162Y-146975732D01*
X122319722Y-147028092D01*
X122161831Y-147145137D01*
X122056662Y-147311176D01*
X122018319Y-147503943D01*
X115486412Y-147503943D01*
X115450752Y-147464546D01*
X115275243Y-147376082D01*
X115079654Y-147356732D01*
X114890214Y-147409092D01*
X114732323Y-147526137D01*
X114627154Y-147692176D01*
X114588811Y-147884943D01*
X100217652Y-147884943D01*
X100221039Y-146170443D01*
X121129311Y-146170443D01*
X121162933Y-146364088D01*
X121264014Y-146532648D01*
X121418997Y-146653517D01*
X121607102Y-146710488D01*
X121803105Y-146695922D01*
X121980724Y-146611773D01*
X122116138Y-146469323D01*
X122189283Y-146292300D01*
X136331969Y-146292300D01*
X136364874Y-146509870D01*
X136440466Y-146715324D01*
X136555827Y-146901382D01*
X136706244Y-147060444D01*
X136885572Y-147186011D01*
X137088317Y-147273746D01*
X137362200Y-147316145D01*
X137362200Y-146292300D01*
X137465800Y-146292300D01*
X137465800Y-147318394D01*
X137631799Y-147301533D01*
X137840701Y-147236067D01*
X138032172Y-147129932D01*
X138198391Y-146987465D01*
X138332568Y-146814485D01*
X138429222Y-146618057D01*
X138484405Y-146406208D01*
X138490377Y-146292300D01*
X137465800Y-146292300D01*
X137362200Y-146292300D01*
X136331969Y-146292300D01*
X122189283Y-146292300D01*
X122191363Y-146287268D01*
X122192567Y-146188700D01*
X136337623Y-146188700D01*
X137362200Y-146188700D01*
X137362200Y-145164855D01*
X137465800Y-145164855D01*
X137465800Y-146188700D01*
X138496031Y-146188700D01*
X138463126Y-145971130D01*
X138387534Y-145765676D01*
X138272173Y-145579618D01*
X138121756Y-145420556D01*
X137942428Y-145294989D01*
X137739683Y-145207254D01*
X137465800Y-145164855D01*
X137362200Y-145164855D01*
X137362200Y-145162606D01*
X137196201Y-145179467D01*
X136987299Y-145244933D01*
X136795828Y-145351068D01*
X136629609Y-145493535D01*
X136495432Y-145666515D01*
X136398778Y-145862943D01*
X136343595Y-146074792D01*
X136337623Y-146188700D01*
X122192567Y-146188700D01*
X122193900Y-146079602D01*
X122123146Y-145895762D01*
X121991252Y-145750046D01*
X121815743Y-145661582D01*
X121620154Y-145642232D01*
X121430714Y-145694592D01*
X121272823Y-145811637D01*
X121167654Y-145977676D01*
X121129311Y-146170443D01*
X100221039Y-146170443D01*
X100225735Y-143794455D01*
X106239924Y-143794455D01*
X106282901Y-143977691D01*
X106368346Y-144145386D01*
X106491325Y-144287858D01*
X106644739Y-144396883D01*
X106819730Y-144466167D01*
X107006196Y-144491710D01*
X107193373Y-144472037D01*
X107370454Y-144408284D01*
X107527217Y-144304131D01*
X107654610Y-144165591D01*
X107745280Y-144000663D01*
X107794095Y-143818483D01*
X107796228Y-143614784D01*
X107784478Y-143566943D01*
X119541811Y-143566943D01*
X119575433Y-143760588D01*
X119676514Y-143929148D01*
X119831497Y-144050017D01*
X120019602Y-144106988D01*
X120215605Y-144092422D01*
X120393224Y-144008273D01*
X120528638Y-143865823D01*
X120599657Y-143693945D01*
X127034811Y-143693945D01*
X127068433Y-143887590D01*
X127169514Y-144056150D01*
X127324497Y-144177019D01*
X127512602Y-144233990D01*
X127708605Y-144219424D01*
X127886224Y-144135275D01*
X128021638Y-143992825D01*
X128096863Y-143810770D01*
X128097129Y-143788943D01*
X128463311Y-143788943D01*
X128496933Y-143982588D01*
X128598014Y-144151148D01*
X128752997Y-144272017D01*
X128941102Y-144328988D01*
X129137105Y-144314422D01*
X129314724Y-144230273D01*
X129450138Y-144087823D01*
X129525363Y-143905768D01*
X129527224Y-143753412D01*
X136332137Y-143753412D01*
X136364874Y-143969870D01*
X136440466Y-144175324D01*
X136555827Y-144361382D01*
X136706244Y-144520444D01*
X136885572Y-144646011D01*
X137088316Y-144733746D01*
X137374825Y-144778100D01*
X137468698Y-144778100D01*
X137631799Y-144761533D01*
X137840701Y-144696067D01*
X138032172Y-144589932D01*
X138198391Y-144447465D01*
X138332568Y-144274485D01*
X138429222Y-144078057D01*
X138484405Y-143866208D01*
X138495863Y-143647588D01*
X138463126Y-143431130D01*
X138387534Y-143225676D01*
X138272173Y-143039618D01*
X138121756Y-142880556D01*
X137942428Y-142754989D01*
X137739684Y-142667254D01*
X137453175Y-142622900D01*
X137359302Y-142622900D01*
X137196201Y-142639467D01*
X136987299Y-142704933D01*
X136795828Y-142811068D01*
X136629609Y-142953535D01*
X136495432Y-143126515D01*
X136398778Y-143322943D01*
X136343595Y-143534792D01*
X136332137Y-143753412D01*
X129527224Y-143753412D01*
X129527900Y-143698102D01*
X129457146Y-143514262D01*
X129325252Y-143368546D01*
X129149743Y-143280082D01*
X128954154Y-143260732D01*
X128764714Y-143313092D01*
X128606823Y-143430137D01*
X128501654Y-143596176D01*
X128463311Y-143788943D01*
X128097129Y-143788943D01*
X128099400Y-143603104D01*
X128028646Y-143419264D01*
X127896752Y-143273548D01*
X127721243Y-143185084D01*
X127525654Y-143165734D01*
X127336214Y-143218094D01*
X127178323Y-143335139D01*
X127073154Y-143501178D01*
X127034811Y-143693945D01*
X120599657Y-143693945D01*
X120603863Y-143683768D01*
X120606400Y-143476102D01*
X120535646Y-143292262D01*
X120403752Y-143146546D01*
X120228243Y-143058082D01*
X120032654Y-143038732D01*
X119843214Y-143091092D01*
X119685323Y-143208137D01*
X119580154Y-143374176D01*
X119541811Y-143566943D01*
X107784478Y-143566943D01*
X107751240Y-143431621D01*
X107664043Y-143264831D01*
X107539579Y-143123653D01*
X107385032Y-143016241D01*
X107209326Y-142948793D01*
X107022602Y-142925204D01*
X106835641Y-142946836D01*
X106659237Y-143012440D01*
X106503574Y-143118229D01*
X106377638Y-143258094D01*
X106288700Y-143423963D01*
X106241894Y-143606258D01*
X106239924Y-143794455D01*
X100225735Y-143794455D01*
X100227540Y-142881203D01*
X100235621Y-142852070D01*
X100227657Y-142821270D01*
X100227659Y-142820483D01*
X100220184Y-142792366D01*
X100207655Y-142743906D01*
X100026653Y-142423943D01*
X125764811Y-142423943D01*
X125798433Y-142617588D01*
X125899514Y-142786148D01*
X126054497Y-142907017D01*
X126242602Y-142963988D01*
X126438605Y-142949422D01*
X126616224Y-142865273D01*
X126751638Y-142722823D01*
X126826863Y-142540768D01*
X126829400Y-142333102D01*
X126758646Y-142149262D01*
X126626752Y-142003546D01*
X126451243Y-141915082D01*
X126255654Y-141895732D01*
X126066214Y-141948092D01*
X125908323Y-142065137D01*
X125803154Y-142231176D01*
X125764811Y-142423943D01*
X100026653Y-142423943D01*
X99745627Y-141927166D01*
X99519158Y-141486443D01*
X112414811Y-141486443D01*
X112448433Y-141680088D01*
X112549514Y-141848648D01*
X112704497Y-141969517D01*
X112892602Y-142026488D01*
X113088605Y-142011922D01*
X113266224Y-141927773D01*
X113401638Y-141785323D01*
X113440222Y-141691943D01*
X115698311Y-141691943D01*
X115731933Y-141885588D01*
X115833014Y-142054148D01*
X115987997Y-142175017D01*
X116176102Y-142231988D01*
X116372105Y-142217422D01*
X116549724Y-142133273D01*
X116685138Y-141990823D01*
X116760363Y-141808768D01*
X116762900Y-141601102D01*
X116692146Y-141417262D01*
X116560252Y-141271546D01*
X116444917Y-141213412D01*
X136332137Y-141213412D01*
X136364874Y-141429870D01*
X136440466Y-141635324D01*
X136555827Y-141821382D01*
X136706244Y-141980444D01*
X136885572Y-142106011D01*
X137088316Y-142193746D01*
X137374825Y-142238100D01*
X137468698Y-142238100D01*
X137631799Y-142221533D01*
X137840701Y-142156067D01*
X138032172Y-142049932D01*
X138198391Y-141907465D01*
X138332568Y-141734485D01*
X138429222Y-141538057D01*
X138484405Y-141326208D01*
X138495863Y-141107588D01*
X138463126Y-140891130D01*
X138387534Y-140685676D01*
X138272173Y-140499618D01*
X138121756Y-140340556D01*
X137942428Y-140214989D01*
X137739684Y-140127254D01*
X137453175Y-140082900D01*
X137359302Y-140082900D01*
X137196201Y-140099467D01*
X136987299Y-140164933D01*
X136795828Y-140271068D01*
X136629609Y-140413535D01*
X136495432Y-140586515D01*
X136398778Y-140782943D01*
X136343595Y-140994792D01*
X136332137Y-141213412D01*
X116444917Y-141213412D01*
X116384743Y-141183082D01*
X116189154Y-141163732D01*
X115999714Y-141216092D01*
X115841823Y-141333137D01*
X115736654Y-141499176D01*
X115698311Y-141691943D01*
X113440222Y-141691943D01*
X113476863Y-141603268D01*
X113479400Y-141395602D01*
X113408646Y-141211762D01*
X113276752Y-141066046D01*
X113101243Y-140977582D01*
X112905654Y-140958232D01*
X112716214Y-141010592D01*
X112558323Y-141127637D01*
X112453154Y-141293676D01*
X112414811Y-141486443D01*
X99519158Y-141486443D01*
X99323428Y-141105541D01*
X99085060Y-140591943D01*
X115677821Y-140591943D01*
X115711443Y-140785588D01*
X115812524Y-140954148D01*
X115967507Y-141075017D01*
X116155612Y-141131988D01*
X116351615Y-141117422D01*
X116529234Y-141033273D01*
X116664648Y-140890823D01*
X116739873Y-140708768D01*
X116742410Y-140501102D01*
X116671656Y-140317262D01*
X116539762Y-140171546D01*
X116364253Y-140083082D01*
X116168664Y-140063732D01*
X115979224Y-140116092D01*
X115821333Y-140233137D01*
X115716164Y-140399176D01*
X115677821Y-140591943D01*
X99085060Y-140591943D01*
X98934519Y-140267583D01*
X98579573Y-139414743D01*
X98518253Y-139248943D01*
X119541811Y-139248943D01*
X119575433Y-139442588D01*
X119676514Y-139611148D01*
X119831497Y-139732017D01*
X120019602Y-139788988D01*
X120215605Y-139774422D01*
X120393224Y-139690273D01*
X120528638Y-139547823D01*
X120547182Y-139502943D01*
X129320811Y-139502943D01*
X129354433Y-139696588D01*
X129455514Y-139865148D01*
X129610497Y-139986017D01*
X129798602Y-140042988D01*
X129994605Y-140028422D01*
X130172224Y-139944273D01*
X130307638Y-139801823D01*
X130382863Y-139619768D01*
X130385400Y-139412102D01*
X130314646Y-139228262D01*
X130182752Y-139082546D01*
X130007243Y-138994082D01*
X129811654Y-138974732D01*
X129622214Y-139027092D01*
X129464323Y-139144137D01*
X129359154Y-139310176D01*
X129320811Y-139502943D01*
X120547182Y-139502943D01*
X120603863Y-139365768D01*
X120606400Y-139158102D01*
X120535646Y-138974262D01*
X120430814Y-138858443D01*
X123659811Y-138858443D01*
X123693433Y-139052088D01*
X123794514Y-139220648D01*
X123949497Y-139341517D01*
X124137602Y-139398488D01*
X124333605Y-139383922D01*
X124511224Y-139299773D01*
X124646638Y-139157323D01*
X124721863Y-138975268D01*
X124724400Y-138767602D01*
X124688150Y-138673412D01*
X136332137Y-138673412D01*
X136364874Y-138889870D01*
X136440466Y-139095324D01*
X136555827Y-139281382D01*
X136706244Y-139440444D01*
X136885572Y-139566011D01*
X137088316Y-139653746D01*
X137374825Y-139698100D01*
X137468698Y-139698100D01*
X137631799Y-139681533D01*
X137840701Y-139616067D01*
X138032172Y-139509932D01*
X138198391Y-139367465D01*
X138332568Y-139194485D01*
X138429222Y-138998057D01*
X138484405Y-138786208D01*
X138495863Y-138567588D01*
X138463126Y-138351130D01*
X138387534Y-138145676D01*
X138272173Y-137959618D01*
X138121756Y-137800556D01*
X137942428Y-137674989D01*
X137739684Y-137587254D01*
X137453175Y-137542900D01*
X137359302Y-137542900D01*
X137196201Y-137559467D01*
X136987299Y-137624933D01*
X136795828Y-137731068D01*
X136629609Y-137873535D01*
X136495432Y-138046515D01*
X136398778Y-138242943D01*
X136343595Y-138454792D01*
X136332137Y-138673412D01*
X124688150Y-138673412D01*
X124653646Y-138583762D01*
X124521752Y-138438046D01*
X124346243Y-138349582D01*
X124150654Y-138330232D01*
X123961214Y-138382592D01*
X123803323Y-138499637D01*
X123698154Y-138665676D01*
X123659811Y-138858443D01*
X120430814Y-138858443D01*
X120403752Y-138828546D01*
X120228243Y-138740082D01*
X120032654Y-138720732D01*
X119843214Y-138773092D01*
X119685323Y-138890137D01*
X119580154Y-139056176D01*
X119541811Y-139248943D01*
X98518253Y-139248943D01*
X98259134Y-138548332D01*
X98094305Y-138040941D01*
X110715311Y-138040941D01*
X110748933Y-138234586D01*
X110850014Y-138403146D01*
X111004997Y-138524015D01*
X111193102Y-138580986D01*
X111389105Y-138566420D01*
X111566724Y-138482271D01*
X111702138Y-138339821D01*
X111777363Y-138157766D01*
X111779900Y-137950100D01*
X111742123Y-137851943D01*
X114525311Y-137851943D01*
X114558933Y-138045588D01*
X114660014Y-138214148D01*
X114814997Y-138335017D01*
X115003102Y-138391988D01*
X115199105Y-138377422D01*
X115376724Y-138293273D01*
X115512138Y-138150823D01*
X115587363Y-137968768D01*
X115588790Y-137851943D01*
X115668311Y-137851943D01*
X115701933Y-138045588D01*
X115803014Y-138214148D01*
X115957997Y-138335017D01*
X116146102Y-138391988D01*
X116342105Y-138377422D01*
X116519724Y-138293273D01*
X116655138Y-138150823D01*
X116730363Y-137968768D01*
X116732900Y-137761102D01*
X116662146Y-137577262D01*
X116530252Y-137431546D01*
X116354743Y-137343082D01*
X116159154Y-137323732D01*
X115969714Y-137376092D01*
X115811823Y-137493137D01*
X115706654Y-137659176D01*
X115668311Y-137851943D01*
X115588790Y-137851943D01*
X115589900Y-137761102D01*
X115519146Y-137577262D01*
X115387252Y-137431546D01*
X115211743Y-137343082D01*
X115016154Y-137323732D01*
X114826714Y-137376092D01*
X114668823Y-137493137D01*
X114563654Y-137659176D01*
X114525311Y-137851943D01*
X111742123Y-137851943D01*
X111709146Y-137766260D01*
X111577252Y-137620544D01*
X111401743Y-137532080D01*
X111206154Y-137512730D01*
X111016714Y-137565090D01*
X110858823Y-137682135D01*
X110753654Y-137848174D01*
X110715311Y-138040941D01*
X98094305Y-138040941D01*
X97973716Y-137669736D01*
X97723793Y-136780414D01*
X97509759Y-135881763D01*
X97492635Y-135794455D01*
X106239924Y-135794455D01*
X106282901Y-135977691D01*
X106368346Y-136145386D01*
X106491325Y-136287858D01*
X106644739Y-136396883D01*
X106819730Y-136466167D01*
X107006196Y-136491710D01*
X107193373Y-136472037D01*
X107370454Y-136408284D01*
X107527217Y-136304131D01*
X107654610Y-136165591D01*
X107745280Y-136000663D01*
X107794095Y-135818483D01*
X107796074Y-135629443D01*
X129320811Y-135629443D01*
X129354433Y-135823088D01*
X129455514Y-135991648D01*
X129574869Y-136084731D01*
X129473823Y-136159637D01*
X129368654Y-136325676D01*
X129330311Y-136518443D01*
X129363933Y-136712088D01*
X129465014Y-136880648D01*
X129619997Y-137001517D01*
X129808102Y-137058488D01*
X130004105Y-137043922D01*
X130181724Y-136959773D01*
X130317138Y-136817323D01*
X130392363Y-136635268D01*
X130394900Y-136427602D01*
X130389836Y-136414443D01*
X134504811Y-136414443D01*
X134538433Y-136608088D01*
X134639514Y-136776648D01*
X134794497Y-136897517D01*
X134982602Y-136954488D01*
X135178605Y-136939922D01*
X135356224Y-136855773D01*
X135491638Y-136713323D01*
X135566863Y-136531268D01*
X135569400Y-136323602D01*
X135498646Y-136139762D01*
X135492899Y-136133412D01*
X136332137Y-136133412D01*
X136364874Y-136349870D01*
X136440466Y-136555324D01*
X136555827Y-136741382D01*
X136706244Y-136900444D01*
X136885572Y-137026011D01*
X137088316Y-137113746D01*
X137374825Y-137158100D01*
X137468698Y-137158100D01*
X137631799Y-137141533D01*
X137840701Y-137076067D01*
X138032172Y-136969932D01*
X138198391Y-136827465D01*
X138332568Y-136654485D01*
X138429222Y-136458057D01*
X138484405Y-136246208D01*
X138495863Y-136027588D01*
X138463126Y-135811130D01*
X138387534Y-135605676D01*
X138272173Y-135419618D01*
X138121756Y-135260556D01*
X137942428Y-135134989D01*
X137739684Y-135047254D01*
X137453175Y-135002900D01*
X137359302Y-135002900D01*
X137196201Y-135019467D01*
X136987299Y-135084933D01*
X136795828Y-135191068D01*
X136629609Y-135333535D01*
X136495432Y-135506515D01*
X136398778Y-135702943D01*
X136343595Y-135914792D01*
X136332137Y-136133412D01*
X135492899Y-136133412D01*
X135366752Y-135994046D01*
X135191243Y-135905582D01*
X134995654Y-135886232D01*
X134806214Y-135938592D01*
X134648323Y-136055637D01*
X134543154Y-136221676D01*
X134504811Y-136414443D01*
X130389836Y-136414443D01*
X130324146Y-136243762D01*
X130192252Y-136098046D01*
X130154656Y-136079096D01*
X130172224Y-136070773D01*
X130307638Y-135928323D01*
X130382863Y-135746268D01*
X130385400Y-135538602D01*
X130314646Y-135354762D01*
X130182752Y-135209046D01*
X130007243Y-135120582D01*
X129811654Y-135101232D01*
X129622214Y-135153592D01*
X129464323Y-135270637D01*
X129359154Y-135436676D01*
X129320811Y-135629443D01*
X107796074Y-135629443D01*
X107796228Y-135614784D01*
X107751240Y-135431621D01*
X107664043Y-135264831D01*
X107539579Y-135123653D01*
X107385032Y-135016241D01*
X107209326Y-134948793D01*
X107022602Y-134925204D01*
X106835641Y-134946836D01*
X106659237Y-135012440D01*
X106503574Y-135118229D01*
X106377638Y-135258094D01*
X106288700Y-135423963D01*
X106241894Y-135606258D01*
X106239924Y-135794455D01*
X97492635Y-135794455D01*
X97331961Y-134975252D01*
X97295625Y-134740443D01*
X113890311Y-134740443D01*
X113923933Y-134934088D01*
X114025014Y-135102648D01*
X114179997Y-135223517D01*
X114368102Y-135280488D01*
X114564105Y-135265922D01*
X114741724Y-135181773D01*
X114877138Y-135039323D01*
X114952363Y-134857268D01*
X114954900Y-134649602D01*
X114884146Y-134465762D01*
X114752252Y-134320046D01*
X114704433Y-134295943D01*
X119541811Y-134295943D01*
X119575433Y-134489588D01*
X119676514Y-134658148D01*
X119831497Y-134779017D01*
X120019602Y-134835988D01*
X120215605Y-134821422D01*
X120393224Y-134737273D01*
X120528638Y-134594823D01*
X120603863Y-134412768D01*
X120606400Y-134205102D01*
X120535646Y-134021262D01*
X120403752Y-133875546D01*
X120355933Y-133851443D01*
X134527811Y-133851443D01*
X134561433Y-134045088D01*
X134662514Y-134213648D01*
X134817497Y-134334517D01*
X135005602Y-134391488D01*
X135201605Y-134376922D01*
X135379224Y-134292773D01*
X135514638Y-134150323D01*
X135589863Y-133968268D01*
X135592400Y-133760602D01*
X135528055Y-133593412D01*
X136332137Y-133593412D01*
X136364874Y-133809870D01*
X136440466Y-134015324D01*
X136555827Y-134201382D01*
X136706244Y-134360444D01*
X136885572Y-134486011D01*
X137088316Y-134573746D01*
X137374825Y-134618100D01*
X137468698Y-134618100D01*
X137631799Y-134601533D01*
X137840701Y-134536067D01*
X138032172Y-134429932D01*
X138198391Y-134287465D01*
X138332568Y-134114485D01*
X138429222Y-133918057D01*
X138484405Y-133706208D01*
X138495863Y-133487588D01*
X138463126Y-133271130D01*
X138387534Y-133065676D01*
X138272173Y-132879618D01*
X138121756Y-132720556D01*
X137942428Y-132594989D01*
X137739684Y-132507254D01*
X137453175Y-132462900D01*
X137359302Y-132462900D01*
X137196201Y-132479467D01*
X136987299Y-132544933D01*
X136795828Y-132651068D01*
X136629609Y-132793535D01*
X136495432Y-132966515D01*
X136398778Y-133162943D01*
X136343595Y-133374792D01*
X136332137Y-133593412D01*
X135528055Y-133593412D01*
X135521646Y-133576762D01*
X135389752Y-133431046D01*
X135214243Y-133342582D01*
X135018654Y-133323232D01*
X134829214Y-133375592D01*
X134671323Y-133492637D01*
X134566154Y-133658676D01*
X134527811Y-133851443D01*
X120355933Y-133851443D01*
X120228243Y-133787082D01*
X120032654Y-133767732D01*
X119843214Y-133820092D01*
X119685323Y-133937137D01*
X119580154Y-134103176D01*
X119541811Y-134295943D01*
X114704433Y-134295943D01*
X114576743Y-134231582D01*
X114381154Y-134212232D01*
X114191714Y-134264592D01*
X114033823Y-134381637D01*
X113928654Y-134547676D01*
X113890311Y-134740443D01*
X97295625Y-134740443D01*
X97190692Y-134062369D01*
X97086167Y-133144495D01*
X97046612Y-132605429D01*
X97042840Y-132200443D01*
X112493311Y-132200443D01*
X112526933Y-132394088D01*
X112628014Y-132562648D01*
X112782997Y-132683517D01*
X112971102Y-132740488D01*
X113167105Y-132725922D01*
X113344724Y-132641773D01*
X113480138Y-132499323D01*
X113524920Y-132390943D01*
X119414811Y-132390943D01*
X119448433Y-132584588D01*
X119549514Y-132753148D01*
X119704497Y-132874017D01*
X119892602Y-132930988D01*
X120088605Y-132916422D01*
X120266224Y-132832273D01*
X120401638Y-132689823D01*
X120458719Y-132551680D01*
X120464433Y-132584592D01*
X120565514Y-132753152D01*
X120720497Y-132874021D01*
X120908602Y-132930992D01*
X121104605Y-132916426D01*
X121282224Y-132832277D01*
X121417638Y-132689827D01*
X121492863Y-132507772D01*
X121494290Y-132390943D01*
X123351811Y-132390943D01*
X123385433Y-132584588D01*
X123486514Y-132753148D01*
X123641497Y-132874017D01*
X123829602Y-132930988D01*
X124025605Y-132916422D01*
X124203224Y-132832273D01*
X124338638Y-132689823D01*
X124413863Y-132507768D01*
X124416400Y-132300102D01*
X124345646Y-132116262D01*
X124213752Y-131970546D01*
X124038243Y-131882082D01*
X123842654Y-131862732D01*
X123653214Y-131915092D01*
X123495323Y-132032137D01*
X123390154Y-132198176D01*
X123351811Y-132390943D01*
X121494290Y-132390943D01*
X121495400Y-132300106D01*
X121424646Y-132116266D01*
X121292752Y-131970550D01*
X121117243Y-131882086D01*
X120921654Y-131862736D01*
X120732214Y-131915096D01*
X120574323Y-132032141D01*
X120469154Y-132198180D01*
X120459280Y-132247823D01*
X120408646Y-132116262D01*
X120276752Y-131970546D01*
X120101243Y-131882082D01*
X119905654Y-131862732D01*
X119716214Y-131915092D01*
X119558323Y-132032137D01*
X119453154Y-132198176D01*
X119414811Y-132390943D01*
X113524920Y-132390943D01*
X113555363Y-132317268D01*
X113557900Y-132109602D01*
X113487146Y-131925762D01*
X113355252Y-131780046D01*
X113179743Y-131691582D01*
X112984154Y-131672232D01*
X112794714Y-131724592D01*
X112636823Y-131841637D01*
X112531654Y-132007676D01*
X112493311Y-132200443D01*
X97042840Y-132200443D01*
X97032333Y-131072443D01*
X106699811Y-131072443D01*
X106733433Y-131266088D01*
X106834514Y-131434648D01*
X106989497Y-131555517D01*
X107177602Y-131612488D01*
X107373605Y-131597922D01*
X107551224Y-131513773D01*
X107686638Y-131371323D01*
X107761863Y-131189268D01*
X107764400Y-130981602D01*
X107695833Y-130803443D01*
X116938313Y-130803443D01*
X116971935Y-130997088D01*
X117073016Y-131165648D01*
X117227999Y-131286517D01*
X117416104Y-131343488D01*
X117612107Y-131328922D01*
X117789726Y-131244773D01*
X117925140Y-131102323D01*
X118000365Y-130920268D01*
X118002902Y-130712602D01*
X117932148Y-130528762D01*
X117800254Y-130383046D01*
X117626454Y-130295443D01*
X118398811Y-130295443D01*
X118432433Y-130489088D01*
X118533514Y-130657648D01*
X118688497Y-130778517D01*
X118876602Y-130835488D01*
X119072605Y-130820922D01*
X119250224Y-130736773D01*
X119385638Y-130594323D01*
X119460863Y-130412268D01*
X119462290Y-130295441D01*
X120430811Y-130295441D01*
X120464433Y-130489086D01*
X120565514Y-130657646D01*
X120720497Y-130778515D01*
X120908602Y-130835486D01*
X121104605Y-130820920D01*
X121282224Y-130736771D01*
X121417638Y-130594321D01*
X121492863Y-130412266D01*
X121494290Y-130295443D01*
X122462811Y-130295443D01*
X122496433Y-130489088D01*
X122597514Y-130657648D01*
X122752497Y-130778517D01*
X122940602Y-130835488D01*
X123136605Y-130820922D01*
X123307534Y-130739942D01*
X128241312Y-130739942D01*
X128274934Y-130933587D01*
X128376015Y-131102147D01*
X128530998Y-131223016D01*
X128719103Y-131279987D01*
X128915106Y-131265421D01*
X129092725Y-131181272D01*
X129214269Y-131053412D01*
X136332137Y-131053412D01*
X136364874Y-131269870D01*
X136440466Y-131475324D01*
X136555827Y-131661382D01*
X136706244Y-131820444D01*
X136885572Y-131946011D01*
X137088316Y-132033746D01*
X137374825Y-132078100D01*
X137468698Y-132078100D01*
X137631799Y-132061533D01*
X137840701Y-131996067D01*
X138032172Y-131889932D01*
X138198391Y-131747465D01*
X138332568Y-131574485D01*
X138429222Y-131378057D01*
X138484405Y-131166208D01*
X138495863Y-130947588D01*
X138463126Y-130731130D01*
X138387534Y-130525676D01*
X138272173Y-130339618D01*
X138121756Y-130180556D01*
X137942428Y-130054989D01*
X137739684Y-129967254D01*
X137453175Y-129922900D01*
X137359302Y-129922900D01*
X137196201Y-129939467D01*
X136987299Y-130004933D01*
X136795828Y-130111068D01*
X136629609Y-130253535D01*
X136495432Y-130426515D01*
X136398778Y-130622943D01*
X136343595Y-130834792D01*
X136332137Y-131053412D01*
X129214269Y-131053412D01*
X129228139Y-131038822D01*
X129303364Y-130856767D01*
X129305901Y-130649101D01*
X129235147Y-130465261D01*
X129103253Y-130319545D01*
X128927744Y-130231081D01*
X128732155Y-130211731D01*
X128542715Y-130264091D01*
X128384824Y-130381136D01*
X128279655Y-130547175D01*
X128241312Y-130739942D01*
X123307534Y-130739942D01*
X123314224Y-130736773D01*
X123449638Y-130594323D01*
X123524863Y-130412268D01*
X123527400Y-130204602D01*
X123456646Y-130020762D01*
X123324752Y-129875046D01*
X123149243Y-129786582D01*
X122953654Y-129767232D01*
X122764214Y-129819592D01*
X122606323Y-129936637D01*
X122501154Y-130102676D01*
X122462811Y-130295443D01*
X121494290Y-130295443D01*
X121495400Y-130204600D01*
X121424646Y-130020760D01*
X121292752Y-129875044D01*
X121117243Y-129786580D01*
X120921654Y-129767230D01*
X120732214Y-129819590D01*
X120574323Y-129936635D01*
X120469154Y-130102674D01*
X120430811Y-130295441D01*
X119462290Y-130295441D01*
X119463400Y-130204602D01*
X119392646Y-130020762D01*
X119260752Y-129875046D01*
X119085243Y-129786582D01*
X118889654Y-129767232D01*
X118700214Y-129819592D01*
X118542323Y-129936637D01*
X118437154Y-130102676D01*
X118398811Y-130295443D01*
X117626454Y-130295443D01*
X117624745Y-130294582D01*
X117429156Y-130275232D01*
X117239716Y-130327592D01*
X117081825Y-130444637D01*
X116976656Y-130610676D01*
X116938313Y-130803443D01*
X107695833Y-130803443D01*
X107693646Y-130797762D01*
X107561752Y-130652046D01*
X107386243Y-130563582D01*
X107190654Y-130544232D01*
X107001214Y-130596592D01*
X106843323Y-130713637D01*
X106738154Y-130879676D01*
X106699811Y-131072443D01*
X97032333Y-131072443D01*
X97020680Y-129821503D01*
X97025286Y-129723943D01*
X104365311Y-129723943D01*
X104398933Y-129917588D01*
X104500014Y-130086148D01*
X104654997Y-130207017D01*
X104843102Y-130263988D01*
X105039105Y-130249422D01*
X105216724Y-130165273D01*
X105352138Y-130022823D01*
X105427363Y-129840768D01*
X105429900Y-129633102D01*
X105359146Y-129449262D01*
X105262912Y-129342943D01*
X110270811Y-129342943D01*
X110304433Y-129536588D01*
X110405514Y-129705148D01*
X110560497Y-129826017D01*
X110746930Y-129882482D01*
X110715311Y-130041443D01*
X110748933Y-130235088D01*
X110850014Y-130403648D01*
X111004997Y-130524517D01*
X111193102Y-130581488D01*
X111389105Y-130566922D01*
X111566724Y-130482773D01*
X111702138Y-130340323D01*
X111746920Y-130231943D01*
X113890311Y-130231943D01*
X113923933Y-130425588D01*
X114025014Y-130594148D01*
X114179997Y-130715017D01*
X114368102Y-130771988D01*
X114564105Y-130757422D01*
X114741724Y-130673273D01*
X114877138Y-130530823D01*
X114952363Y-130348768D01*
X114954900Y-130141102D01*
X114884146Y-129957262D01*
X114752252Y-129811546D01*
X114576743Y-129723082D01*
X114381154Y-129703732D01*
X114191714Y-129756092D01*
X114033823Y-129873137D01*
X113928654Y-130039176D01*
X113890311Y-130231943D01*
X111746920Y-130231943D01*
X111777363Y-130158268D01*
X111779900Y-129950602D01*
X111709146Y-129766762D01*
X111577252Y-129621046D01*
X111403444Y-129533439D01*
X114779311Y-129533439D01*
X114812933Y-129727084D01*
X114914014Y-129895644D01*
X115068997Y-130016513D01*
X115257102Y-130073484D01*
X115453105Y-130058918D01*
X115630724Y-129974769D01*
X115766138Y-129832319D01*
X115841363Y-129650264D01*
X115843900Y-129442598D01*
X115773146Y-129258758D01*
X115641252Y-129113042D01*
X115465743Y-129024578D01*
X115270154Y-129005228D01*
X115080714Y-129057588D01*
X114922823Y-129174633D01*
X114817654Y-129340672D01*
X114779311Y-129533439D01*
X111403444Y-129533439D01*
X111401743Y-129532582D01*
X111306663Y-129523176D01*
X111332863Y-129459768D01*
X111335400Y-129252102D01*
X111264646Y-129068262D01*
X111132752Y-128922546D01*
X110957243Y-128834082D01*
X110761654Y-128814732D01*
X110572214Y-128867092D01*
X110414323Y-128984137D01*
X110309154Y-129150176D01*
X110270811Y-129342943D01*
X105262912Y-129342943D01*
X105227252Y-129303546D01*
X105051743Y-129215082D01*
X104856154Y-129195732D01*
X104666714Y-129248092D01*
X104508823Y-129365137D01*
X104403654Y-129531176D01*
X104365311Y-129723943D01*
X97025286Y-129723943D01*
X97038058Y-129453440D01*
X97118623Y-128533182D01*
X97121156Y-128513412D01*
X136332137Y-128513412D01*
X136364874Y-128729870D01*
X136440466Y-128935324D01*
X136555827Y-129121382D01*
X136706244Y-129280444D01*
X136885572Y-129406011D01*
X137088316Y-129493746D01*
X137374825Y-129538100D01*
X137468698Y-129538100D01*
X137631799Y-129521533D01*
X137840701Y-129456067D01*
X138032172Y-129349932D01*
X138198391Y-129207465D01*
X138332568Y-129034485D01*
X138429222Y-128838057D01*
X138484405Y-128626208D01*
X138495863Y-128407588D01*
X138463126Y-128191130D01*
X138387534Y-127985676D01*
X138272173Y-127799618D01*
X138121756Y-127640556D01*
X137942428Y-127514989D01*
X137739684Y-127427254D01*
X137453175Y-127382900D01*
X137359302Y-127382900D01*
X137196201Y-127399467D01*
X136987299Y-127464933D01*
X136795828Y-127571068D01*
X136629609Y-127713535D01*
X136495432Y-127886515D01*
X136398778Y-128082943D01*
X136343595Y-128294792D01*
X136332137Y-128513412D01*
X97121156Y-128513412D01*
X97236057Y-127616882D01*
X97242356Y-127579653D01*
X103366727Y-127579653D01*
X103400349Y-127773298D01*
X103501430Y-127941858D01*
X103656413Y-128062727D01*
X103844518Y-128119698D01*
X104040521Y-128105132D01*
X104218140Y-128020983D01*
X104353554Y-127878533D01*
X104428779Y-127696478D01*
X104431316Y-127488812D01*
X104397079Y-127399852D01*
X111096311Y-127399852D01*
X111129933Y-127593497D01*
X111231014Y-127762057D01*
X111385997Y-127882926D01*
X111574102Y-127939897D01*
X111770105Y-127925331D01*
X111947724Y-127841182D01*
X112083138Y-127698732D01*
X112158363Y-127516677D01*
X112160900Y-127309011D01*
X112090146Y-127125171D01*
X111958252Y-126979455D01*
X111782743Y-126890991D01*
X111587154Y-126871641D01*
X111397714Y-126924001D01*
X111239823Y-127041046D01*
X111134654Y-127207085D01*
X111096311Y-127399852D01*
X104397079Y-127399852D01*
X104360562Y-127304972D01*
X104228668Y-127159256D01*
X104053159Y-127070792D01*
X103857570Y-127051442D01*
X103668130Y-127103802D01*
X103510239Y-127220847D01*
X103405070Y-127386886D01*
X103366727Y-127579653D01*
X97242356Y-127579653D01*
X97390166Y-126706052D01*
X97580703Y-125802140D01*
X97648480Y-125534351D01*
X111186436Y-125534351D01*
X111220058Y-125727996D01*
X111321139Y-125896556D01*
X111476122Y-126017425D01*
X111664227Y-126074396D01*
X111860230Y-126059830D01*
X112037849Y-125975681D01*
X112173263Y-125833231D01*
X112176409Y-125825615D01*
X113265707Y-125825615D01*
X113299329Y-126019260D01*
X113400410Y-126187820D01*
X113555393Y-126308689D01*
X113735532Y-126363247D01*
X113577324Y-126406975D01*
X113419433Y-126524020D01*
X113314264Y-126690059D01*
X113275921Y-126882826D01*
X113309543Y-127076471D01*
X113410624Y-127245031D01*
X113565607Y-127365900D01*
X113753712Y-127422871D01*
X113949715Y-127408305D01*
X114127334Y-127324156D01*
X114262748Y-127181706D01*
X114337973Y-126999651D01*
X114338824Y-126929943D01*
X132432311Y-126929943D01*
X132465933Y-127123588D01*
X132567014Y-127292148D01*
X132721997Y-127413017D01*
X132910102Y-127469988D01*
X133106105Y-127455422D01*
X133111797Y-127452726D01*
X133042154Y-127562676D01*
X133003811Y-127755443D01*
X133037433Y-127949088D01*
X133138514Y-128117648D01*
X133293497Y-128238517D01*
X133481602Y-128295488D01*
X133677605Y-128280922D01*
X133855224Y-128196773D01*
X133990638Y-128054323D01*
X134065863Y-127872268D01*
X134068400Y-127664602D01*
X133997646Y-127480762D01*
X133865752Y-127335046D01*
X133690243Y-127246582D01*
X133494654Y-127227232D01*
X133394277Y-127254975D01*
X133419138Y-127228823D01*
X133494363Y-127046768D01*
X133496900Y-126839102D01*
X133426146Y-126655262D01*
X133294252Y-126509546D01*
X133118743Y-126421082D01*
X132923154Y-126401732D01*
X132733714Y-126454092D01*
X132575823Y-126571137D01*
X132470654Y-126737176D01*
X132432311Y-126929943D01*
X114338824Y-126929943D01*
X114339861Y-126845073D01*
X114384107Y-126858474D01*
X114580110Y-126843908D01*
X114757729Y-126759759D01*
X114893143Y-126617309D01*
X114968368Y-126435254D01*
X114970905Y-126227588D01*
X114900151Y-126043748D01*
X114768257Y-125898032D01*
X114638549Y-125832654D01*
X114741723Y-125783774D01*
X114870124Y-125648701D01*
X114914018Y-125721898D01*
X115069001Y-125842767D01*
X115257106Y-125899738D01*
X115453109Y-125885172D01*
X115630728Y-125801023D01*
X115690687Y-125737948D01*
X115668311Y-125850443D01*
X115701933Y-126044088D01*
X115803014Y-126212648D01*
X115957997Y-126333517D01*
X116146102Y-126390488D01*
X116342105Y-126375922D01*
X116519724Y-126291773D01*
X116655138Y-126149323D01*
X116673682Y-126104443D01*
X122653311Y-126104443D01*
X122686933Y-126298088D01*
X122788014Y-126466648D01*
X122942997Y-126587517D01*
X123131102Y-126644488D01*
X123327105Y-126629922D01*
X123504724Y-126545773D01*
X123640138Y-126403323D01*
X123715363Y-126221268D01*
X123717900Y-126013602D01*
X123702005Y-125972300D01*
X136331969Y-125972300D01*
X136364874Y-126189870D01*
X136440466Y-126395324D01*
X136555827Y-126581382D01*
X136706244Y-126740444D01*
X136885572Y-126866011D01*
X137088317Y-126953746D01*
X137362200Y-126996145D01*
X137362200Y-125972300D01*
X137465800Y-125972300D01*
X137465800Y-126998394D01*
X137631799Y-126981533D01*
X137840701Y-126916067D01*
X138032172Y-126809932D01*
X138198391Y-126667465D01*
X138332568Y-126494485D01*
X138429222Y-126298057D01*
X138484405Y-126086208D01*
X138490377Y-125972300D01*
X137465800Y-125972300D01*
X137362200Y-125972300D01*
X136331969Y-125972300D01*
X123702005Y-125972300D01*
X123662133Y-125868700D01*
X136337623Y-125868700D01*
X138496031Y-125868700D01*
X138463126Y-125651130D01*
X138387534Y-125445676D01*
X138272173Y-125259618D01*
X138121756Y-125100556D01*
X137942428Y-124974989D01*
X137739683Y-124887254D01*
X137465800Y-124844855D01*
X137465800Y-125868700D01*
X137362200Y-125868700D01*
X137362200Y-124842606D01*
X137196201Y-124859467D01*
X136987299Y-124924933D01*
X136795828Y-125031068D01*
X136629609Y-125173535D01*
X136495432Y-125346515D01*
X136398778Y-125542943D01*
X136343595Y-125754792D01*
X136337623Y-125868700D01*
X123662133Y-125868700D01*
X123647146Y-125829762D01*
X123515252Y-125684046D01*
X123339743Y-125595582D01*
X123144154Y-125576232D01*
X122954714Y-125628592D01*
X122796823Y-125745637D01*
X122691654Y-125911676D01*
X122653311Y-126104443D01*
X116673682Y-126104443D01*
X116730363Y-125967268D01*
X116732900Y-125759602D01*
X116662146Y-125575762D01*
X116571356Y-125475458D01*
X116655138Y-125387323D01*
X116730363Y-125205268D01*
X116732900Y-124997602D01*
X116662146Y-124813762D01*
X116530252Y-124668046D01*
X116354743Y-124579582D01*
X116159154Y-124560232D01*
X115969714Y-124612592D01*
X115811823Y-124729637D01*
X115706654Y-124895676D01*
X115687759Y-124990672D01*
X115641256Y-124939296D01*
X115465747Y-124850832D01*
X115270158Y-124831482D01*
X115080718Y-124883842D01*
X114922827Y-125000887D01*
X114881982Y-125065373D01*
X114752251Y-124922047D01*
X114576742Y-124833583D01*
X114381153Y-124814233D01*
X114191713Y-124866593D01*
X114033822Y-124983638D01*
X113928653Y-125149677D01*
X113896515Y-125311251D01*
X113756550Y-125297404D01*
X113567110Y-125349764D01*
X113409219Y-125466809D01*
X113304050Y-125632848D01*
X113265707Y-125825615D01*
X112176409Y-125825615D01*
X112248488Y-125651176D01*
X112251025Y-125443510D01*
X112180271Y-125259670D01*
X112048377Y-125113954D01*
X111872868Y-125025490D01*
X111677279Y-125006140D01*
X111487839Y-125058500D01*
X111329948Y-125175545D01*
X111224779Y-125341584D01*
X111186436Y-125534351D01*
X97648480Y-125534351D01*
X97787393Y-124985502D01*
X101218393Y-124985502D01*
X101252015Y-125179147D01*
X101353096Y-125347707D01*
X101508079Y-125468576D01*
X101696184Y-125525547D01*
X101892187Y-125510981D01*
X102069806Y-125426832D01*
X102160494Y-125331432D01*
X102305497Y-125444517D01*
X102493602Y-125501488D01*
X102689605Y-125486922D01*
X102867224Y-125402773D01*
X102935717Y-125330722D01*
X103067497Y-125433496D01*
X103255602Y-125490467D01*
X103451605Y-125475901D01*
X103629224Y-125391752D01*
X103764638Y-125249302D01*
X103839863Y-125067247D01*
X103842400Y-124859581D01*
X103783848Y-124707443D01*
X111985311Y-124707443D01*
X112018933Y-124901088D01*
X112120014Y-125069648D01*
X112274997Y-125190517D01*
X112463102Y-125247488D01*
X112659105Y-125232922D01*
X112836724Y-125148773D01*
X112972138Y-125006323D01*
X113047363Y-124824268D01*
X113049900Y-124616602D01*
X112979146Y-124432762D01*
X112847252Y-124287046D01*
X112671743Y-124198582D01*
X112476154Y-124179232D01*
X112286714Y-124231592D01*
X112128823Y-124348637D01*
X112023654Y-124514676D01*
X111985311Y-124707443D01*
X103783848Y-124707443D01*
X103771646Y-124675741D01*
X103639752Y-124530025D01*
X103464243Y-124441561D01*
X103268654Y-124422211D01*
X103079214Y-124474571D01*
X102922641Y-124590639D01*
X102877752Y-124541046D01*
X102702243Y-124452582D01*
X102557962Y-124438308D01*
X102621638Y-124371323D01*
X102696863Y-124189268D01*
X102699400Y-123981602D01*
X102628646Y-123797762D01*
X102508414Y-123664930D01*
X102581164Y-123588399D01*
X102841309Y-123588399D01*
X102874931Y-123782044D01*
X102976012Y-123950604D01*
X103130995Y-124071473D01*
X103319100Y-124128444D01*
X103515103Y-124113878D01*
X103692722Y-124029729D01*
X103821142Y-123894636D01*
X113890311Y-123894636D01*
X113923933Y-124088281D01*
X114025014Y-124256841D01*
X114179997Y-124377710D01*
X114368102Y-124434681D01*
X114564105Y-124420115D01*
X114741724Y-124335966D01*
X114877138Y-124193516D01*
X114952363Y-124011461D01*
X114953421Y-123924833D01*
X115668307Y-123924833D01*
X115701929Y-124118478D01*
X115803010Y-124287038D01*
X115957993Y-124407907D01*
X116146098Y-124464878D01*
X116342101Y-124450312D01*
X116519720Y-124366163D01*
X116655134Y-124223713D01*
X116730359Y-124041658D01*
X116731786Y-123924833D01*
X117573311Y-123924833D01*
X117606933Y-124118478D01*
X117708014Y-124287038D01*
X117862997Y-124407907D01*
X118051102Y-124464878D01*
X118247105Y-124450312D01*
X118424724Y-124366163D01*
X118551888Y-124232392D01*
X118597022Y-124307656D01*
X118752005Y-124428525D01*
X118940110Y-124485496D01*
X119136113Y-124470930D01*
X119313732Y-124386781D01*
X119449146Y-124244331D01*
X119524371Y-124062276D01*
X119525798Y-123945439D01*
X120494309Y-123945439D01*
X120527931Y-124139084D01*
X120629012Y-124307644D01*
X120701997Y-124364564D01*
X120637823Y-124412137D01*
X120532654Y-124578176D01*
X120494311Y-124770943D01*
X120527933Y-124964588D01*
X120629014Y-125133148D01*
X120660253Y-125157511D01*
X120637823Y-125174138D01*
X120532654Y-125340176D01*
X120494311Y-125532943D01*
X120527933Y-125726588D01*
X120629014Y-125895148D01*
X120783997Y-126016017D01*
X120972102Y-126072988D01*
X121168105Y-126058422D01*
X121345724Y-125974273D01*
X121481138Y-125831823D01*
X121556363Y-125649768D01*
X121558900Y-125442102D01*
X121488146Y-125258262D01*
X121397356Y-125157958D01*
X121481138Y-125069823D01*
X121525920Y-124961443D01*
X124431305Y-124961443D01*
X124464927Y-125155088D01*
X124566008Y-125323648D01*
X124720991Y-125444517D01*
X124909096Y-125501488D01*
X125105099Y-125486922D01*
X125282718Y-125402773D01*
X125418132Y-125260323D01*
X125493357Y-125078268D01*
X125494784Y-124961443D01*
X127288811Y-124961443D01*
X127322433Y-125155088D01*
X127423514Y-125323648D01*
X127578497Y-125444517D01*
X127766602Y-125501488D01*
X127962605Y-125486922D01*
X128140224Y-125402773D01*
X128275638Y-125260323D01*
X128350863Y-125078268D01*
X128352290Y-124961443D01*
X128368311Y-124961443D01*
X128401933Y-125155088D01*
X128503014Y-125323648D01*
X128657997Y-125444517D01*
X128846102Y-125501488D01*
X129042105Y-125486922D01*
X129219724Y-125402773D01*
X129355138Y-125260323D01*
X129430363Y-125078268D01*
X129432900Y-124870602D01*
X129362146Y-124686762D01*
X129230252Y-124541046D01*
X129054743Y-124452582D01*
X128859154Y-124433232D01*
X128669714Y-124485592D01*
X128511823Y-124602637D01*
X128406654Y-124768676D01*
X128368311Y-124961443D01*
X128352290Y-124961443D01*
X128353400Y-124870602D01*
X128282646Y-124686762D01*
X128150752Y-124541046D01*
X127975243Y-124452582D01*
X127779654Y-124433232D01*
X127590214Y-124485592D01*
X127432323Y-124602637D01*
X127327154Y-124768676D01*
X127288811Y-124961443D01*
X125494784Y-124961443D01*
X125495894Y-124870602D01*
X125425140Y-124686762D01*
X125293246Y-124541046D01*
X125117737Y-124452582D01*
X124922148Y-124433232D01*
X124732708Y-124485592D01*
X124574817Y-124602637D01*
X124469648Y-124768676D01*
X124431305Y-124961443D01*
X121525920Y-124961443D01*
X121556363Y-124887768D01*
X121558900Y-124680102D01*
X121488146Y-124496262D01*
X121367911Y-124363427D01*
X121481136Y-124244319D01*
X121556361Y-124062264D01*
X121557788Y-123945447D01*
X121827811Y-123945447D01*
X121861433Y-124139092D01*
X121962514Y-124307652D01*
X122117497Y-124428521D01*
X122305602Y-124485492D01*
X122501605Y-124470926D01*
X122679224Y-124386777D01*
X122814638Y-124244327D01*
X122889863Y-124062272D01*
X122892400Y-123854606D01*
X122821646Y-123670766D01*
X122689752Y-123525050D01*
X122514243Y-123436586D01*
X122482161Y-123433412D01*
X136332137Y-123433412D01*
X136364874Y-123649870D01*
X136440466Y-123855324D01*
X136555827Y-124041382D01*
X136706244Y-124200444D01*
X136885572Y-124326011D01*
X137088316Y-124413746D01*
X137374825Y-124458100D01*
X137468698Y-124458100D01*
X137631799Y-124441533D01*
X137840701Y-124376067D01*
X138032172Y-124269932D01*
X138198391Y-124127465D01*
X138332568Y-123954485D01*
X138429222Y-123758057D01*
X138484405Y-123546208D01*
X138495863Y-123327588D01*
X138463126Y-123111130D01*
X138387534Y-122905676D01*
X138272173Y-122719618D01*
X138121756Y-122560556D01*
X137942428Y-122434989D01*
X137739684Y-122347254D01*
X137453175Y-122302900D01*
X137359302Y-122302900D01*
X137196201Y-122319467D01*
X136987299Y-122384933D01*
X136795828Y-122491068D01*
X136629609Y-122633535D01*
X136495432Y-122806515D01*
X136398778Y-123002943D01*
X136343595Y-123214792D01*
X136332137Y-123433412D01*
X122482161Y-123433412D01*
X122318654Y-123417236D01*
X122129214Y-123469596D01*
X121971323Y-123586641D01*
X121866154Y-123752680D01*
X121827811Y-123945447D01*
X121557788Y-123945447D01*
X121558898Y-123854598D01*
X121488144Y-123670758D01*
X121356250Y-123525042D01*
X121180741Y-123436578D01*
X120985152Y-123417228D01*
X120795712Y-123469588D01*
X120637821Y-123586633D01*
X120532652Y-123752672D01*
X120494309Y-123945439D01*
X119525798Y-123945439D01*
X119526908Y-123854610D01*
X119456154Y-123670770D01*
X119324260Y-123525054D01*
X119148751Y-123436590D01*
X118953162Y-123417240D01*
X118763722Y-123469600D01*
X118605831Y-123586645D01*
X118566240Y-123649151D01*
X118435252Y-123504436D01*
X118259743Y-123415972D01*
X118064154Y-123396622D01*
X117874714Y-123448982D01*
X117716823Y-123566027D01*
X117611654Y-123732066D01*
X117573311Y-123924833D01*
X116731786Y-123924833D01*
X116732896Y-123833992D01*
X116662142Y-123650152D01*
X116530248Y-123504436D01*
X116354739Y-123415972D01*
X116159150Y-123396622D01*
X115969710Y-123448982D01*
X115811819Y-123566027D01*
X115706650Y-123732066D01*
X115668307Y-123924833D01*
X114953421Y-123924833D01*
X114954900Y-123803795D01*
X114884146Y-123619955D01*
X114752252Y-123474239D01*
X114576743Y-123385775D01*
X114381154Y-123366425D01*
X114191714Y-123418785D01*
X114033823Y-123535830D01*
X113928654Y-123701869D01*
X113890311Y-123894636D01*
X103821142Y-123894636D01*
X103828136Y-123887279D01*
X103903361Y-123705224D01*
X103905898Y-123497558D01*
X103835144Y-123313718D01*
X103774703Y-123246943D01*
X112239311Y-123246943D01*
X112272933Y-123440588D01*
X112374014Y-123609148D01*
X112528997Y-123730017D01*
X112717102Y-123786988D01*
X112913105Y-123772422D01*
X113090724Y-123688273D01*
X113226138Y-123545823D01*
X113301363Y-123363768D01*
X113303900Y-123156102D01*
X113233146Y-122972262D01*
X113101252Y-122826546D01*
X112925743Y-122738082D01*
X112730154Y-122718732D01*
X112540714Y-122771092D01*
X112382823Y-122888137D01*
X112277654Y-123054176D01*
X112239311Y-123246943D01*
X103774703Y-123246943D01*
X103703250Y-123168002D01*
X103527741Y-123079538D01*
X103332152Y-123060188D01*
X103142712Y-123112548D01*
X102984821Y-123229593D01*
X102879652Y-123395632D01*
X102841309Y-123588399D01*
X102581164Y-123588399D01*
X102621638Y-123545823D01*
X102696863Y-123363768D01*
X102699400Y-123156102D01*
X102628646Y-122972262D01*
X102496752Y-122826546D01*
X102321243Y-122738082D01*
X102125654Y-122718732D01*
X101936214Y-122771092D01*
X101778323Y-122888137D01*
X101673154Y-123054176D01*
X101634811Y-123246943D01*
X101668433Y-123440588D01*
X101769514Y-123609148D01*
X101842496Y-123666065D01*
X101778323Y-123713637D01*
X101673154Y-123879676D01*
X101634811Y-124072443D01*
X101668433Y-124266088D01*
X101769514Y-124434648D01*
X101811523Y-124467410D01*
X101709236Y-124457291D01*
X101519796Y-124509651D01*
X101361905Y-124626696D01*
X101256736Y-124792735D01*
X101218393Y-124985502D01*
X97787393Y-124985502D01*
X97807363Y-124906604D01*
X98069774Y-124020901D01*
X98367537Y-123146396D01*
X98604408Y-122532631D01*
X103476311Y-122532631D01*
X103509933Y-122726276D01*
X103611014Y-122894836D01*
X103765997Y-123015705D01*
X103954102Y-123072676D01*
X104150105Y-123058110D01*
X104327724Y-122973961D01*
X104463138Y-122831511D01*
X104538363Y-122649456D01*
X104540900Y-122441790D01*
X104470146Y-122257950D01*
X104383801Y-122162556D01*
X104463138Y-122079098D01*
X104538363Y-121897043D01*
X104539327Y-121818067D01*
X114398311Y-121818067D01*
X114431933Y-122011712D01*
X114533014Y-122180272D01*
X114687997Y-122301141D01*
X114876102Y-122358112D01*
X115072105Y-122343546D01*
X115249724Y-122259397D01*
X115385138Y-122116947D01*
X115460363Y-121934892D01*
X115460638Y-121912350D01*
X115638102Y-121966098D01*
X115834105Y-121951532D01*
X116011724Y-121867383D01*
X116147138Y-121724933D01*
X116222363Y-121542878D01*
X116224900Y-121335212D01*
X116154146Y-121151372D01*
X116022252Y-121005656D01*
X115846743Y-120917192D01*
X115709256Y-120903590D01*
X115834105Y-120894312D01*
X116011724Y-120810163D01*
X116049482Y-120770443D01*
X116684311Y-120770443D01*
X116717933Y-120964088D01*
X116819014Y-121132648D01*
X116973997Y-121253517D01*
X117162102Y-121310488D01*
X117358105Y-121295922D01*
X117535724Y-121211773D01*
X117671138Y-121069323D01*
X117746363Y-120887268D01*
X117747790Y-120770459D01*
X119732311Y-120770459D01*
X119765933Y-120964104D01*
X119867014Y-121132664D01*
X120021997Y-121253533D01*
X120210102Y-121310504D01*
X120406105Y-121295938D01*
X120583724Y-121211789D01*
X120718471Y-121070042D01*
X120756014Y-121132648D01*
X120910997Y-121253517D01*
X121099102Y-121310488D01*
X121295105Y-121295922D01*
X121472724Y-121211773D01*
X121608138Y-121069323D01*
X121680824Y-120893412D01*
X136332137Y-120893412D01*
X136364874Y-121109870D01*
X136440466Y-121315324D01*
X136555827Y-121501382D01*
X136706244Y-121660444D01*
X136885572Y-121786011D01*
X137088316Y-121873746D01*
X137374825Y-121918100D01*
X137468698Y-121918100D01*
X137631799Y-121901533D01*
X137840701Y-121836067D01*
X138032172Y-121729932D01*
X138198391Y-121587465D01*
X138332568Y-121414485D01*
X138429222Y-121218057D01*
X138484405Y-121006208D01*
X138495863Y-120787588D01*
X138463126Y-120571130D01*
X138387534Y-120365676D01*
X138272173Y-120179618D01*
X138121756Y-120020556D01*
X137942428Y-119894989D01*
X137739684Y-119807254D01*
X137453175Y-119762900D01*
X137359302Y-119762900D01*
X137196201Y-119779467D01*
X136987299Y-119844933D01*
X136795828Y-119951068D01*
X136629609Y-120093535D01*
X136495432Y-120266515D01*
X136398778Y-120462943D01*
X136343595Y-120674792D01*
X136332137Y-120893412D01*
X121680824Y-120893412D01*
X121683363Y-120887268D01*
X121685900Y-120679602D01*
X121615146Y-120495762D01*
X121483252Y-120350046D01*
X121307743Y-120261582D01*
X121112154Y-120242232D01*
X120922714Y-120294592D01*
X120764823Y-120411637D01*
X120717546Y-120486277D01*
X120594252Y-120350062D01*
X120418743Y-120261598D01*
X120223154Y-120242248D01*
X120033714Y-120294608D01*
X119875823Y-120411653D01*
X119770654Y-120577692D01*
X119732311Y-120770459D01*
X117747790Y-120770459D01*
X117748900Y-120679602D01*
X117678146Y-120495762D01*
X117546252Y-120350046D01*
X117370743Y-120261582D01*
X117175154Y-120242232D01*
X116985714Y-120294592D01*
X116827823Y-120411637D01*
X116722654Y-120577676D01*
X116684311Y-120770443D01*
X116049482Y-120770443D01*
X116147138Y-120667713D01*
X116222363Y-120485658D01*
X116224900Y-120277992D01*
X116154146Y-120094152D01*
X116022252Y-119948436D01*
X115846743Y-119859972D01*
X115651154Y-119840622D01*
X115461714Y-119892982D01*
X115303823Y-120010027D01*
X115198654Y-120176066D01*
X115160311Y-120368833D01*
X115193933Y-120562478D01*
X115236348Y-120633208D01*
X115084743Y-120556793D01*
X114889154Y-120537443D01*
X114699714Y-120589803D01*
X114541823Y-120706848D01*
X114436654Y-120872887D01*
X114398311Y-121065654D01*
X114431933Y-121259299D01*
X114533014Y-121427859D01*
X114557950Y-121447306D01*
X114541823Y-121459261D01*
X114436654Y-121625300D01*
X114398311Y-121818067D01*
X104539327Y-121818067D01*
X104540900Y-121689377D01*
X104470146Y-121505537D01*
X104338252Y-121359821D01*
X104162743Y-121271357D01*
X103967154Y-121252007D01*
X103777714Y-121304367D01*
X103619823Y-121421412D01*
X103514654Y-121587451D01*
X103476311Y-121780218D01*
X103509933Y-121973863D01*
X103611014Y-122142423D01*
X103635950Y-122161870D01*
X103619823Y-122173825D01*
X103514654Y-122339864D01*
X103476311Y-122532631D01*
X98604408Y-122532631D01*
X98700143Y-122284571D01*
X98918429Y-121780218D01*
X99067059Y-121436810D01*
X99245710Y-121065654D01*
X99467705Y-120604452D01*
X99901846Y-119788060D01*
X99921176Y-119754443D01*
X109572311Y-119754443D01*
X109605933Y-119948088D01*
X109707014Y-120116648D01*
X109861997Y-120237517D01*
X110050102Y-120294488D01*
X110246105Y-120279922D01*
X110423724Y-120195773D01*
X110559138Y-120053323D01*
X110634363Y-119871268D01*
X110636900Y-119663602D01*
X110574106Y-119500443D01*
X119732311Y-119500443D01*
X119765933Y-119694088D01*
X119867014Y-119862648D01*
X120021997Y-119983517D01*
X120210102Y-120040488D01*
X120406105Y-120025922D01*
X120583724Y-119941773D01*
X120718465Y-119800032D01*
X120756014Y-119862648D01*
X120910997Y-119983517D01*
X121099102Y-120040488D01*
X121295105Y-120025922D01*
X121472724Y-119941773D01*
X121607465Y-119800032D01*
X121645014Y-119862648D01*
X121799997Y-119983517D01*
X121988102Y-120040488D01*
X122184105Y-120025922D01*
X122361724Y-119941773D01*
X122496465Y-119800032D01*
X122534014Y-119862648D01*
X122688997Y-119983517D01*
X122877102Y-120040488D01*
X123073105Y-120025922D01*
X123250724Y-119941773D01*
X123385465Y-119800032D01*
X123423014Y-119862648D01*
X123577997Y-119983517D01*
X123766102Y-120040488D01*
X123962105Y-120025922D01*
X124139724Y-119941773D01*
X124275138Y-119799323D01*
X124350363Y-119617268D01*
X124352900Y-119409602D01*
X124282146Y-119225762D01*
X124150252Y-119080046D01*
X123974743Y-118991582D01*
X123779154Y-118972232D01*
X123589714Y-119024592D01*
X123431823Y-119141637D01*
X123384552Y-119216267D01*
X123261252Y-119080046D01*
X123085743Y-118991582D01*
X122890154Y-118972232D01*
X122700714Y-119024592D01*
X122542823Y-119141637D01*
X122495552Y-119216267D01*
X122372252Y-119080046D01*
X122196743Y-118991582D01*
X122001154Y-118972232D01*
X121811714Y-119024592D01*
X121653823Y-119141637D01*
X121606552Y-119216267D01*
X121483252Y-119080046D01*
X121307743Y-118991582D01*
X121112154Y-118972232D01*
X120922714Y-119024592D01*
X120764823Y-119141637D01*
X120717552Y-119216267D01*
X120594252Y-119080046D01*
X120418743Y-118991582D01*
X120223154Y-118972232D01*
X120033714Y-119024592D01*
X119875823Y-119141637D01*
X119770654Y-119307676D01*
X119732311Y-119500443D01*
X110574106Y-119500443D01*
X110566146Y-119479762D01*
X110434252Y-119334046D01*
X110258743Y-119245582D01*
X110063154Y-119226232D01*
X109873714Y-119278592D01*
X109715823Y-119395637D01*
X109610654Y-119561676D01*
X109572311Y-119754443D01*
X99921176Y-119754443D01*
X100206901Y-119257555D01*
X100219933Y-119208581D01*
X100227601Y-119179961D01*
X100227601Y-119179762D01*
X100235630Y-119149589D01*
X100227601Y-119119835D01*
X100227601Y-118738443D01*
X117446307Y-118738443D01*
X117479929Y-118932088D01*
X117581010Y-119100648D01*
X117735993Y-119221517D01*
X117924098Y-119278488D01*
X118120101Y-119263922D01*
X118297720Y-119179773D01*
X118433134Y-119037323D01*
X118508359Y-118855268D01*
X118510896Y-118647602D01*
X118440142Y-118463762D01*
X118308248Y-118318046D01*
X118260429Y-118293943D01*
X125066312Y-118293943D01*
X125099934Y-118487588D01*
X125201015Y-118656148D01*
X125355998Y-118777017D01*
X125544103Y-118833988D01*
X125740106Y-118819422D01*
X125917725Y-118735273D01*
X126053139Y-118592823D01*
X126128364Y-118410768D01*
X126129064Y-118353412D01*
X136332137Y-118353412D01*
X136364874Y-118569870D01*
X136440466Y-118775324D01*
X136555827Y-118961382D01*
X136706244Y-119120444D01*
X136885572Y-119246011D01*
X137088316Y-119333746D01*
X137374825Y-119378100D01*
X137468698Y-119378100D01*
X137631799Y-119361533D01*
X137840701Y-119296067D01*
X138032172Y-119189932D01*
X138198391Y-119047465D01*
X138332568Y-118874485D01*
X138429222Y-118678057D01*
X138484405Y-118466208D01*
X138495863Y-118247588D01*
X138463126Y-118031130D01*
X138387534Y-117825676D01*
X138272173Y-117639618D01*
X138121756Y-117480556D01*
X137942428Y-117354989D01*
X137739684Y-117267254D01*
X137453175Y-117222900D01*
X137359302Y-117222900D01*
X137196201Y-117239467D01*
X136987299Y-117304933D01*
X136795828Y-117411068D01*
X136629609Y-117553535D01*
X136495432Y-117726515D01*
X136398778Y-117922943D01*
X136343595Y-118134792D01*
X136332137Y-118353412D01*
X126129064Y-118353412D01*
X126130901Y-118203102D01*
X126060147Y-118019262D01*
X125928253Y-117873546D01*
X125752744Y-117785082D01*
X125557155Y-117765732D01*
X125367715Y-117818092D01*
X125209824Y-117935137D01*
X125104655Y-118101176D01*
X125066312Y-118293943D01*
X118260429Y-118293943D01*
X118132739Y-118229582D01*
X117937150Y-118210232D01*
X117747710Y-118262592D01*
X117589819Y-118379637D01*
X117484650Y-118545676D01*
X117446307Y-118738443D01*
X100227601Y-118738443D01*
X100227601Y-117931200D01*
X105851437Y-117931200D01*
X105850780Y-117722443D01*
X123288311Y-117722443D01*
X123321933Y-117916088D01*
X123423014Y-118084648D01*
X123577997Y-118205517D01*
X123766102Y-118262488D01*
X123962105Y-118247922D01*
X124139724Y-118163773D01*
X124275138Y-118021323D01*
X124350363Y-117839268D01*
X124352900Y-117631602D01*
X124282146Y-117447762D01*
X124150252Y-117302046D01*
X123974743Y-117213582D01*
X123779154Y-117194232D01*
X123589714Y-117246592D01*
X123431823Y-117363637D01*
X123326654Y-117529676D01*
X123288311Y-117722443D01*
X105850780Y-117722443D01*
X105848010Y-116843275D01*
X115734701Y-116843275D01*
X115768323Y-117036920D01*
X115869404Y-117205480D01*
X116024387Y-117326349D01*
X116212492Y-117383320D01*
X116408495Y-117368754D01*
X116586114Y-117284605D01*
X116721528Y-117142155D01*
X116796753Y-116960100D01*
X116799290Y-116752434D01*
X116728536Y-116568594D01*
X116623403Y-116452443D01*
X118843311Y-116452443D01*
X118876933Y-116646088D01*
X118978014Y-116814648D01*
X119132997Y-116935517D01*
X119321102Y-116992488D01*
X119517105Y-116977922D01*
X119694724Y-116893773D01*
X119829465Y-116752032D01*
X119867014Y-116814648D01*
X120021997Y-116935517D01*
X120210102Y-116992488D01*
X120406105Y-116977922D01*
X120583724Y-116893773D01*
X120705827Y-116765326D01*
X120735404Y-116814648D01*
X120890387Y-116935517D01*
X121078492Y-116992488D01*
X121274495Y-116977922D01*
X121452114Y-116893773D01*
X121587528Y-116751323D01*
X121662753Y-116569268D01*
X121663404Y-116515943D01*
X131543309Y-116515943D01*
X131576931Y-116709588D01*
X131678012Y-116878148D01*
X131750989Y-116935062D01*
X131686823Y-116982629D01*
X131581654Y-117148668D01*
X131543311Y-117341435D01*
X131576933Y-117535080D01*
X131678014Y-117703640D01*
X131832997Y-117824509D01*
X132021102Y-117881480D01*
X132217105Y-117866914D01*
X132394724Y-117782765D01*
X132530138Y-117640315D01*
X132605363Y-117458260D01*
X132607900Y-117250594D01*
X132537146Y-117066754D01*
X132416916Y-116933925D01*
X132530136Y-116814823D01*
X132605361Y-116632768D01*
X132607898Y-116425102D01*
X132537144Y-116241262D01*
X132416913Y-116108431D01*
X132530138Y-115989323D01*
X132602824Y-115813412D01*
X136332137Y-115813412D01*
X136364874Y-116029870D01*
X136440466Y-116235324D01*
X136555827Y-116421382D01*
X136706244Y-116580444D01*
X136885572Y-116706011D01*
X137088316Y-116793746D01*
X137374825Y-116838100D01*
X137468698Y-116838100D01*
X137631799Y-116821533D01*
X137840701Y-116756067D01*
X138032172Y-116649932D01*
X138198391Y-116507465D01*
X138332568Y-116334485D01*
X138429222Y-116138057D01*
X138484405Y-115926208D01*
X138495863Y-115707588D01*
X138463126Y-115491130D01*
X138387534Y-115285676D01*
X138272173Y-115099618D01*
X138121756Y-114940556D01*
X137942428Y-114814989D01*
X137739684Y-114727254D01*
X137453175Y-114682900D01*
X137359302Y-114682900D01*
X137196201Y-114699467D01*
X136987299Y-114764933D01*
X136795828Y-114871068D01*
X136629609Y-115013535D01*
X136495432Y-115186515D01*
X136398778Y-115382943D01*
X136343595Y-115594792D01*
X136332137Y-115813412D01*
X132602824Y-115813412D01*
X132605363Y-115807268D01*
X132607900Y-115599602D01*
X132537146Y-115415762D01*
X132405252Y-115270046D01*
X132229743Y-115181582D01*
X132034154Y-115162232D01*
X131844714Y-115214592D01*
X131686823Y-115331637D01*
X131581654Y-115497676D01*
X131543311Y-115690443D01*
X131576933Y-115884088D01*
X131678014Y-116052648D01*
X131750995Y-116109565D01*
X131686821Y-116157137D01*
X131581652Y-116323176D01*
X131543309Y-116515943D01*
X121663404Y-116515943D01*
X121665290Y-116361602D01*
X121594536Y-116177762D01*
X121462642Y-116032046D01*
X121287133Y-115943582D01*
X121091544Y-115924232D01*
X120902104Y-115976592D01*
X120744213Y-116093637D01*
X120705427Y-116154872D01*
X120594252Y-116032046D01*
X120418743Y-115943582D01*
X120223154Y-115924232D01*
X120033714Y-115976592D01*
X119875823Y-116093637D01*
X119828552Y-116168267D01*
X119705252Y-116032046D01*
X119529743Y-115943582D01*
X119334154Y-115924232D01*
X119144714Y-115976592D01*
X118986823Y-116093637D01*
X118881654Y-116259676D01*
X118843311Y-116452443D01*
X116623403Y-116452443D01*
X116596642Y-116422878D01*
X116421133Y-116334414D01*
X116225544Y-116315064D01*
X116036104Y-116367424D01*
X115878213Y-116484469D01*
X115773044Y-116650508D01*
X115734701Y-116843275D01*
X105848010Y-116843275D01*
X105843579Y-115436443D01*
X125066307Y-115436443D01*
X125099929Y-115630088D01*
X125201010Y-115798648D01*
X125355993Y-115919517D01*
X125544098Y-115976488D01*
X125740101Y-115961922D01*
X125917720Y-115877773D01*
X126053134Y-115735323D01*
X126128359Y-115553268D01*
X126130896Y-115345602D01*
X126060142Y-115161762D01*
X125928248Y-115016046D01*
X125752739Y-114927582D01*
X125557150Y-114908232D01*
X125367710Y-114960592D01*
X125209819Y-115077637D01*
X125104650Y-115243676D01*
X125066307Y-115436443D01*
X105843579Y-115436443D01*
X105835522Y-112879154D01*
X112366454Y-112879154D01*
X112400076Y-113072799D01*
X112501157Y-113241359D01*
X112656140Y-113362228D01*
X112844245Y-113419199D01*
X113040248Y-113404633D01*
X113217867Y-113320484D01*
X113353281Y-113178034D01*
X113428506Y-112995979D01*
X113431043Y-112788313D01*
X113360289Y-112604473D01*
X113228395Y-112458757D01*
X113052886Y-112370293D01*
X112857297Y-112350943D01*
X112667857Y-112403303D01*
X112509966Y-112520348D01*
X112404797Y-112686387D01*
X112366454Y-112879154D01*
X105835522Y-112879154D01*
X105832376Y-111880443D01*
X113890309Y-111880443D01*
X113923931Y-112074088D01*
X114025012Y-112242648D01*
X114179995Y-112363517D01*
X114368100Y-112420488D01*
X114564103Y-112405922D01*
X114654502Y-112363094D01*
X136333414Y-112363094D01*
X136333414Y-114077906D01*
X136349605Y-114159306D01*
X136399910Y-114234590D01*
X136475194Y-114284895D01*
X136556594Y-114301086D01*
X138271406Y-114301086D01*
X138352806Y-114284895D01*
X138428090Y-114234590D01*
X138478395Y-114159306D01*
X138494586Y-114077906D01*
X138494586Y-112363094D01*
X138478395Y-112281694D01*
X138428090Y-112206410D01*
X138352806Y-112156105D01*
X138271406Y-112139914D01*
X136556594Y-112139914D01*
X136475194Y-112156105D01*
X136399910Y-112206410D01*
X136349605Y-112281694D01*
X136333414Y-112363094D01*
X114654502Y-112363094D01*
X114741722Y-112321773D01*
X114877136Y-112179323D01*
X114952361Y-111997268D01*
X114954898Y-111789602D01*
X114884144Y-111605762D01*
X114752250Y-111460046D01*
X114576741Y-111371582D01*
X114381152Y-111352232D01*
X114191712Y-111404592D01*
X114033821Y-111521637D01*
X113928652Y-111687676D01*
X113890309Y-111880443D01*
X105832376Y-111880443D01*
X105829375Y-110927943D01*
X122589811Y-110927943D01*
X122623433Y-111121588D01*
X122724514Y-111290148D01*
X122879497Y-111411017D01*
X123067602Y-111467988D01*
X123263605Y-111453422D01*
X123441224Y-111369273D01*
X123576638Y-111226823D01*
X123651863Y-111044768D01*
X123654400Y-110837102D01*
X123583646Y-110653262D01*
X123451752Y-110507546D01*
X123276243Y-110419082D01*
X123080654Y-110399732D01*
X122891214Y-110452092D01*
X122733323Y-110569137D01*
X122628154Y-110735176D01*
X122589811Y-110927943D01*
X105829375Y-110927943D01*
X105826575Y-110038943D01*
X127288811Y-110038943D01*
X127322433Y-110232588D01*
X127423514Y-110401148D01*
X127578497Y-110522017D01*
X127766602Y-110578988D01*
X127962605Y-110564422D01*
X128140224Y-110480273D01*
X128275638Y-110337823D01*
X128350863Y-110155768D01*
X128353400Y-109948102D01*
X128282646Y-109764262D01*
X128150752Y-109618546D01*
X127975243Y-109530082D01*
X127779654Y-109510732D01*
X127590214Y-109563092D01*
X127432323Y-109680137D01*
X127327154Y-109846176D01*
X127288811Y-110038943D01*
X105826575Y-110038943D01*
X105823595Y-109093443D01*
X107963311Y-109093443D01*
X107996933Y-109287088D01*
X108098014Y-109455648D01*
X108252997Y-109576517D01*
X108441102Y-109633488D01*
X108637105Y-109618922D01*
X108814724Y-109534773D01*
X108950138Y-109392323D01*
X109025363Y-109210268D01*
X109027900Y-109002602D01*
X108957146Y-108818762D01*
X108825252Y-108673046D01*
X108664312Y-108591925D01*
X116926272Y-108591925D01*
X116959894Y-108785570D01*
X117060975Y-108954130D01*
X117091914Y-108978259D01*
X117082243Y-108985428D01*
X116977074Y-109151467D01*
X116938731Y-109344234D01*
X116972353Y-109537879D01*
X117073434Y-109706439D01*
X117228417Y-109827308D01*
X117416522Y-109884279D01*
X117612525Y-109869713D01*
X117790144Y-109785564D01*
X117925558Y-109643114D01*
X118000783Y-109461059D01*
X118003320Y-109253393D01*
X117987945Y-109213443D01*
X119986311Y-109213443D01*
X120019933Y-109407088D01*
X120121014Y-109575648D01*
X120275997Y-109696517D01*
X120464102Y-109753488D01*
X120660105Y-109738922D01*
X120837724Y-109654773D01*
X120973138Y-109512323D01*
X121048363Y-109330268D01*
X121050900Y-109122602D01*
X120980146Y-108938762D01*
X120941386Y-108895939D01*
X127288811Y-108895939D01*
X127322433Y-109089584D01*
X127423514Y-109258144D01*
X127578497Y-109379013D01*
X127766602Y-109435984D01*
X127962605Y-109421418D01*
X128140224Y-109337269D01*
X128275638Y-109194819D01*
X128350863Y-109012764D01*
X128353400Y-108805098D01*
X128282646Y-108621258D01*
X128150752Y-108475542D01*
X127975243Y-108387078D01*
X127779654Y-108367728D01*
X127590214Y-108420088D01*
X127432323Y-108537133D01*
X127327154Y-108703172D01*
X127288811Y-108895939D01*
X120941386Y-108895939D01*
X120848252Y-108793046D01*
X120672743Y-108704582D01*
X120477154Y-108685232D01*
X120287714Y-108737592D01*
X120129823Y-108854637D01*
X120024654Y-109020676D01*
X119986311Y-109213443D01*
X117987945Y-109213443D01*
X117932566Y-109069553D01*
X117840193Y-108967499D01*
X117913099Y-108890805D01*
X117988324Y-108708750D01*
X117990861Y-108501084D01*
X117920107Y-108317244D01*
X117814549Y-108200624D01*
X117925146Y-108084282D01*
X118000371Y-107902227D01*
X118002723Y-107709675D01*
X127288811Y-107709675D01*
X127322433Y-107903320D01*
X127423514Y-108071880D01*
X127578497Y-108192749D01*
X127766602Y-108249720D01*
X127962605Y-108235154D01*
X128140224Y-108151005D01*
X128275638Y-108008555D01*
X128350863Y-107826500D01*
X128353400Y-107618834D01*
X128282646Y-107434994D01*
X128150752Y-107289278D01*
X127975243Y-107200814D01*
X127779654Y-107181464D01*
X127590214Y-107233824D01*
X127432323Y-107350869D01*
X127327154Y-107516908D01*
X127288811Y-107709675D01*
X118002723Y-107709675D01*
X118002908Y-107694561D01*
X117932154Y-107510721D01*
X117800260Y-107365005D01*
X117624751Y-107276541D01*
X117429162Y-107257191D01*
X117239722Y-107309551D01*
X117081831Y-107426596D01*
X116976662Y-107592635D01*
X116938319Y-107785402D01*
X116971941Y-107979047D01*
X117073022Y-108147607D01*
X117127658Y-108190217D01*
X117069784Y-108233119D01*
X116964615Y-108399158D01*
X116926272Y-108591925D01*
X108664312Y-108591925D01*
X108649743Y-108584582D01*
X108454154Y-108565232D01*
X108264714Y-108617592D01*
X108106823Y-108734637D01*
X108001654Y-108900676D01*
X107963311Y-109093443D01*
X105823595Y-109093443D01*
X105818067Y-107338455D01*
X112463311Y-107338455D01*
X112496933Y-107532100D01*
X112598014Y-107700660D01*
X112752997Y-107821529D01*
X112941102Y-107878500D01*
X113137105Y-107863934D01*
X113314724Y-107779785D01*
X113450138Y-107637335D01*
X113525363Y-107455280D01*
X113527900Y-107247614D01*
X113457146Y-107063774D01*
X113325252Y-106918058D01*
X113149743Y-106829594D01*
X112954154Y-106810244D01*
X112764714Y-106862604D01*
X112606823Y-106979649D01*
X112501654Y-107145688D01*
X112463311Y-107338455D01*
X105818067Y-107338455D01*
X105816028Y-106691304D01*
X111463311Y-106691304D01*
X111496933Y-106884949D01*
X111598014Y-107053509D01*
X111752997Y-107174378D01*
X111941102Y-107231349D01*
X112137105Y-107216783D01*
X112314724Y-107132634D01*
X112450138Y-106990184D01*
X112525363Y-106808129D01*
X112527097Y-106666122D01*
X114455984Y-106666122D01*
X114489606Y-106859767D01*
X114590687Y-107028327D01*
X114745670Y-107149196D01*
X114933775Y-107206167D01*
X115129778Y-107191601D01*
X115307397Y-107107452D01*
X115442811Y-106965002D01*
X115518036Y-106782947D01*
X115520573Y-106575281D01*
X115449819Y-106391441D01*
X115317925Y-106245725D01*
X115142416Y-106157261D01*
X114946827Y-106137911D01*
X114757387Y-106190271D01*
X114599496Y-106307316D01*
X114494327Y-106473355D01*
X114455984Y-106666122D01*
X112527097Y-106666122D01*
X112527900Y-106600463D01*
X112457146Y-106416623D01*
X112325252Y-106270907D01*
X112149743Y-106182443D01*
X111954154Y-106163093D01*
X111764714Y-106215453D01*
X111606823Y-106332498D01*
X111501654Y-106498537D01*
X111463311Y-106691304D01*
X105816028Y-106691304D01*
X105813964Y-106036437D01*
X110463311Y-106036437D01*
X110496933Y-106230082D01*
X110598014Y-106398642D01*
X110752997Y-106519511D01*
X110941102Y-106576482D01*
X111137105Y-106561916D01*
X111314724Y-106477767D01*
X111450138Y-106335317D01*
X111525363Y-106153262D01*
X111527541Y-105974943D01*
X123923309Y-105974943D01*
X123956931Y-106168588D01*
X124058012Y-106337148D01*
X124212995Y-106458017D01*
X124401100Y-106514988D01*
X124597103Y-106500422D01*
X124774722Y-106416273D01*
X124910136Y-106273823D01*
X124985361Y-106091768D01*
X124987898Y-105884102D01*
X124917144Y-105700262D01*
X124785250Y-105554546D01*
X124609741Y-105466082D01*
X124414152Y-105446732D01*
X124224712Y-105499092D01*
X124066821Y-105616137D01*
X123961652Y-105782176D01*
X123923309Y-105974943D01*
X111527541Y-105974943D01*
X111527900Y-105945596D01*
X111457146Y-105761756D01*
X111325252Y-105616040D01*
X111149743Y-105527576D01*
X110954154Y-105508226D01*
X110764714Y-105560586D01*
X110606823Y-105677631D01*
X110501654Y-105843670D01*
X110463311Y-106036437D01*
X105813964Y-106036437D01*
X105805568Y-103371443D01*
X118208311Y-103371443D01*
X118241933Y-103565088D01*
X118343014Y-103733648D01*
X118497997Y-103854517D01*
X118686102Y-103911488D01*
X118882105Y-103896922D01*
X119059724Y-103812773D01*
X119195138Y-103670323D01*
X119270363Y-103488268D01*
X119271014Y-103434943D01*
X126653811Y-103434943D01*
X126687433Y-103628588D01*
X126788514Y-103797148D01*
X126943497Y-103918017D01*
X127131602Y-103974988D01*
X127327605Y-103960422D01*
X127505224Y-103876273D01*
X127640638Y-103733823D01*
X127715863Y-103551768D01*
X127718400Y-103344102D01*
X127680045Y-103244443D01*
X130590811Y-103244443D01*
X130624433Y-103438088D01*
X130725514Y-103606648D01*
X130880497Y-103727517D01*
X131068602Y-103784488D01*
X131264605Y-103769922D01*
X131442224Y-103685773D01*
X131538027Y-103584992D01*
X131551014Y-103606648D01*
X131705997Y-103727517D01*
X131894102Y-103784488D01*
X132090105Y-103769922D01*
X132267724Y-103685773D01*
X132403138Y-103543323D01*
X132478363Y-103361268D01*
X132480900Y-103153602D01*
X132410146Y-102969762D01*
X132278252Y-102824046D01*
X132102743Y-102735582D01*
X131907154Y-102716232D01*
X131717714Y-102768592D01*
X131559823Y-102885637D01*
X131538694Y-102918995D01*
X131452752Y-102824046D01*
X131277243Y-102735582D01*
X131081654Y-102716232D01*
X130892214Y-102768592D01*
X130734323Y-102885637D01*
X130629154Y-103051676D01*
X130590811Y-103244443D01*
X127680045Y-103244443D01*
X127647646Y-103160262D01*
X127515752Y-103014546D01*
X127340243Y-102926082D01*
X127144654Y-102906732D01*
X126955214Y-102959092D01*
X126797323Y-103076137D01*
X126692154Y-103242176D01*
X126653811Y-103434943D01*
X119271014Y-103434943D01*
X119272900Y-103280602D01*
X119202146Y-103096762D01*
X119070252Y-102951046D01*
X118894743Y-102862582D01*
X118699154Y-102843232D01*
X118509714Y-102895592D01*
X118351823Y-103012637D01*
X118246654Y-103178676D01*
X118208311Y-103371443D01*
X105805568Y-103371443D01*
X105799259Y-101368989D01*
X107595401Y-101368989D01*
X107595401Y-101577011D01*
X107638651Y-101780487D01*
X107723261Y-101970525D01*
X107845534Y-102138819D01*
X108000124Y-102278012D01*
X108180277Y-102382024D01*
X108378118Y-102446306D01*
X108585000Y-102468050D01*
X108791882Y-102446306D01*
X108989723Y-102382024D01*
X109169876Y-102278012D01*
X109324466Y-102138819D01*
X109446739Y-101970525D01*
X109531349Y-101780487D01*
X109574599Y-101577011D01*
X109574599Y-101368989D01*
X130455401Y-101368989D01*
X130455401Y-101577011D01*
X130498651Y-101780487D01*
X130583261Y-101970525D01*
X130705534Y-102138819D01*
X130860124Y-102278012D01*
X131040277Y-102382024D01*
X131238118Y-102446306D01*
X131445000Y-102468050D01*
X131651882Y-102446306D01*
X131849723Y-102382024D01*
X132029876Y-102278012D01*
X132184466Y-102138819D01*
X132306739Y-101970525D01*
X132391349Y-101780487D01*
X132434599Y-101577011D01*
X132434599Y-101368989D01*
X132391349Y-101165513D01*
X132306739Y-100975475D01*
X132184466Y-100807181D01*
X132029876Y-100667988D01*
X131849723Y-100563976D01*
X131651882Y-100499694D01*
X131445000Y-100477950D01*
X131238118Y-100499694D01*
X131040277Y-100563976D01*
X130860124Y-100667988D01*
X130705534Y-100807181D01*
X130583261Y-100975475D01*
X130498651Y-101165513D01*
X130455401Y-101368989D01*
X109574599Y-101368989D01*
X109531349Y-101165513D01*
X109446739Y-100975475D01*
X109324466Y-100807181D01*
X109169876Y-100667988D01*
X108989723Y-100563976D01*
X108791882Y-100499694D01*
X108585000Y-100477950D01*
X108378118Y-100499694D01*
X108180277Y-100563976D01*
X108000124Y-100667988D01*
X107845534Y-100807181D01*
X107723261Y-100975475D01*
X107638651Y-101165513D01*
X107595401Y-101368989D01*
X105799259Y-101368989D01*
X105795663Y-100227571D01*
X139772401Y-100227400D01*
X139772399Y-119119017D01*
X139764379Y-119147930D01*
X139772399Y-119178949D01*
X139772399Y-119179961D01*
X139779870Y-119207845D01*
X139792346Y-119256095D01*
X140254373Y-120072834D01*
X140676572Y-120894459D01*
X141065476Y-121732406D01*
X141420430Y-122585266D01*
X141740871Y-123451682D01*
X142026284Y-124330264D01*
X142276207Y-125219585D01*
X142490241Y-126118237D01*
X142668038Y-127024743D01*
X142809307Y-127937627D01*
X142913833Y-128855505D01*
X142979928Y-129756250D01*
X142952984Y-132648882D01*
X142881377Y-133466818D01*
X142763943Y-134383121D01*
X142609835Y-135293944D01*
X142419298Y-136197854D01*
X142192639Y-137093389D01*
X141930223Y-137979106D01*
X141632460Y-138853612D01*
X141299857Y-139715429D01*
X140932946Y-140563178D01*
X140532295Y-141395548D01*
X140098166Y-142211917D01*
X139802747Y-142725668D01*
X139795463Y-142733006D01*
X139780062Y-142791439D01*
X139764370Y-142850411D01*
X139772524Y-142880629D01*
X139800771Y-149780941D01*
X139798629Y-149837088D01*
X139815380Y-149868839D01*
X139824812Y-149903469D01*
X139843353Y-149921859D01*
X139850761Y-149935900D01*
X140291291Y-150411363D01*
X140691187Y-150899661D01*
X141060545Y-151411488D01*
X141397967Y-151944908D01*
X141702177Y-152497899D01*
X141972079Y-153068470D01*
X142206625Y-153654407D01*
X142404976Y-154253604D01*
X142566375Y-154863785D01*
X142690225Y-155482693D01*
X142737112Y-155824270D01*
X142709626Y-158775091D01*
X142628824Y-159248596D01*
X142484868Y-159863125D01*
X142303668Y-160467705D01*
X142085882Y-161060139D01*
X141832364Y-161638106D01*
X141544006Y-162199574D01*
X141221912Y-162742388D01*
X140867307Y-163264485D01*
X140481459Y-163764002D01*
X140065860Y-164239004D01*
X139622026Y-164687760D01*
X139151618Y-165108589D01*
X138656412Y-165499903D01*
X138138206Y-165860278D01*
X137599027Y-166188311D01*
X137040786Y-166482837D01*
X136465604Y-166742736D01*
X135875655Y-166967024D01*
X135273067Y-167154894D01*
X134660187Y-167305612D01*
X134039221Y-167418640D01*
X133412500Y-167493548D01*
X132780430Y-167530171D01*
X132486917Y-167534181D01*
X132468453Y-167539400D01*
X129615133Y-167539400D01*
X129576856Y-167102164D01*
X129576942Y-167101387D01*
X129576583Y-167099040D01*
X129576375Y-167096667D01*
X129576107Y-167095930D01*
X129482820Y-166486540D01*
X129482856Y-166485756D01*
X129482344Y-166483429D01*
X129481986Y-166481089D01*
X129481673Y-166480375D01*
X129372197Y-165982581D01*
X131590675Y-165982581D01*
X131827485Y-166150872D01*
X132041915Y-166251776D01*
X132270825Y-166313113D01*
X132506979Y-166332943D01*
X132742913Y-166310641D01*
X132971168Y-166246910D01*
X133184531Y-166143767D01*
X133408086Y-165981342D01*
X132500000Y-165073256D01*
X131590675Y-165982581D01*
X129372197Y-165982581D01*
X129349254Y-165878260D01*
X129349239Y-165877480D01*
X129349239Y-165877480D01*
G37*
X129349239Y-165877480D02*
X129348582Y-165875203D01*
X129348071Y-165872881D01*
X129347711Y-165872186D01*
X129176714Y-165279880D01*
X129176648Y-165279099D01*
X129175842Y-165276860D01*
X129175185Y-165274585D01*
X129174782Y-165273917D01*
X129063584Y-164965107D01*
X131167496Y-164965107D01*
X131182377Y-165201625D01*
X131238906Y-165431769D01*
X131335296Y-165648266D01*
X131514615Y-165912129D01*
X132426744Y-165000000D01*
X132573256Y-165000000D01*
X133474883Y-165901627D01*
X133540284Y-165833423D01*
X133671429Y-165636034D01*
X133765547Y-165418540D01*
X133819890Y-165186849D01*
X133827860Y-164882485D01*
X133785717Y-164648268D01*
X133703111Y-164426146D01*
X133582475Y-164222162D01*
X133475280Y-164097976D01*
X132573256Y-165000000D01*
X132426744Y-165000000D01*
X131520807Y-164094064D01*
X131370819Y-164291666D01*
X131263230Y-164502822D01*
X131194735Y-164729693D01*
X131167496Y-164965107D01*
X129063584Y-164965107D01*
X128965918Y-164693878D01*
X128965803Y-164693105D01*
X128964857Y-164690929D01*
X128964049Y-164688686D01*
X128963601Y-164688042D01*
X128717743Y-164122695D01*
X128717577Y-164121930D01*
X128716491Y-164119816D01*
X128715545Y-164117642D01*
X128715059Y-164117031D01*
X128667894Y-164025269D01*
X131598525Y-164025269D01*
X132500000Y-164926744D01*
X133403508Y-164023236D01*
X133243452Y-163893626D01*
X133035781Y-163779457D01*
X132811174Y-163703869D01*
X132576731Y-163669249D01*
X132339862Y-163676693D01*
X132108055Y-163725966D01*
X131888639Y-163815508D01*
X131688545Y-163942491D01*
X131598525Y-164025269D01*
X128667894Y-164025269D01*
X128433226Y-163568716D01*
X128433013Y-163567970D01*
X128431803Y-163565949D01*
X128430709Y-163563820D01*
X128430179Y-163563236D01*
X128113556Y-163034267D01*
X128113293Y-163033527D01*
X128111939Y-163031564D01*
X128110726Y-163029538D01*
X128110167Y-163028996D01*
X127760061Y-162521550D01*
X127759751Y-162520830D01*
X127758276Y-162518963D01*
X127756933Y-162517016D01*
X127756340Y-162516511D01*
X127374214Y-162032714D01*
X127373859Y-162032017D01*
X127372270Y-162030253D01*
X127370799Y-162028390D01*
X127370172Y-162027923D01*
X126957631Y-161569802D01*
X126957231Y-161569128D01*
X126955528Y-161567466D01*
X126953941Y-161565704D01*
X126953286Y-161565279D01*
X126512039Y-161134732D01*
X126511597Y-161134087D01*
X126509794Y-161132542D01*
X126508095Y-161130884D01*
X126507413Y-161130501D01*
X126039301Y-160729325D01*
X126038821Y-160728713D01*
X126036932Y-160727295D01*
X126035113Y-160725736D01*
X126034402Y-160725395D01*
X125541383Y-160355269D01*
X125540861Y-160354686D01*
X125538874Y-160353386D01*
X125536980Y-160351964D01*
X125536256Y-160351673D01*
X125020366Y-160014126D01*
X125019812Y-160013582D01*
X125017759Y-160012421D01*
X125015759Y-160011112D01*
X125015011Y-160010866D01*
X124478425Y-159707318D01*
X124477835Y-159706809D01*
X124475704Y-159705779D01*
X124473627Y-159704604D01*
X124472866Y-159704407D01*
X123917813Y-159436123D01*
X123917189Y-159435651D01*
X123914988Y-159434757D01*
X123912850Y-159433724D01*
X123912082Y-159433577D01*
X123340870Y-159201670D01*
X123340214Y-159201238D01*
X123337951Y-159200485D01*
X123335758Y-159199595D01*
X123334985Y-159199499D01*
X122749994Y-159004935D01*
X122749314Y-159004547D01*
X122747015Y-159003944D01*
X122744763Y-159003195D01*
X122743983Y-159003149D01*
X122147658Y-158846743D01*
X122146956Y-158846400D01*
X122144625Y-158845947D01*
X122142322Y-158845343D01*
X122141538Y-158845347D01*
X121536365Y-158727749D01*
X121535640Y-158727452D01*
X121533280Y-158727150D01*
X121530955Y-158726698D01*
X121530176Y-158726752D01*
X120918672Y-158648452D01*
X120917928Y-158648202D01*
X120915550Y-158648053D01*
X120913203Y-158647752D01*
X120912431Y-158647856D01*
X120297150Y-158609181D01*
X120296390Y-158608979D01*
X120294002Y-158608983D01*
X120291643Y-158608835D01*
X120290880Y-158608989D01*
X119674382Y-158610100D01*
X119673614Y-158609948D01*
X119671241Y-158610106D01*
X119668869Y-158610110D01*
X119668115Y-158610314D01*
X119052972Y-158651206D01*
X119052197Y-158651104D01*
X119049846Y-158651414D01*
X119047479Y-158651571D01*
X119046739Y-158651823D01*
X118435515Y-158732328D01*
X118434734Y-158732276D01*
X118432404Y-158732737D01*
X118430054Y-158733047D01*
X118429333Y-158733346D01*
X117824585Y-158853125D01*
X117823800Y-158853124D01*
X117821497Y-158853737D01*
X117819174Y-158854197D01*
X117818474Y-158854541D01*
X117222708Y-159013099D01*
X117221930Y-159013148D01*
X117219689Y-159013902D01*
X117217387Y-159014515D01*
X117216707Y-159014906D01*
X116632424Y-159211575D01*
X116631648Y-159211675D01*
X116629450Y-159212577D01*
X116627197Y-159213335D01*
X116626545Y-159213768D01*
X116056172Y-159447732D01*
X116055405Y-159447881D01*
X116053271Y-159448922D01*
X116051072Y-159449824D01*
X116050449Y-159450298D01*
X115496360Y-159720585D01*
X115495603Y-159720784D01*
X115493539Y-159721962D01*
X115491410Y-159723000D01*
X115490821Y-159723512D01*
X114955327Y-160028992D01*
X114954586Y-160029238D01*
X114952606Y-160030544D01*
X114950537Y-160031724D01*
X114949979Y-160032276D01*
X114435321Y-160371673D01*
X114434597Y-160371967D01*
X114432706Y-160373397D01*
X114430720Y-160374707D01*
X114430200Y-160375293D01*
X113938518Y-160747193D01*
X113937810Y-160747535D01*
X113936003Y-160749095D01*
X113934115Y-160750523D01*
X113933636Y-160751138D01*
X113466975Y-161153996D01*
X113466294Y-161154381D01*
X113464600Y-161156045D01*
X113462802Y-161157598D01*
X113462362Y-161158245D01*
X113022674Y-161590375D01*
X113022018Y-161590804D01*
X113020431Y-161592579D01*
X113018736Y-161594245D01*
X113018339Y-161594919D01*
X112607460Y-162054515D01*
X112606830Y-162054988D01*
X112605352Y-162056873D01*
X112603776Y-162058636D01*
X112603425Y-162059331D01*
X112223055Y-162544494D01*
X112222460Y-162545004D01*
X112221115Y-162546968D01*
X112219654Y-162548832D01*
X112219348Y-162549550D01*
X111871075Y-163058250D01*
X111870514Y-163058798D01*
X111869298Y-163060845D01*
X111867961Y-163062799D01*
X111867702Y-163063535D01*
X111552982Y-163593650D01*
X111552460Y-163594230D01*
X111551384Y-163596342D01*
X111550167Y-163598392D01*
X111549955Y-163599148D01*
X111270105Y-164148462D01*
X111269621Y-164149074D01*
X111268684Y-164151251D01*
X111267601Y-164153376D01*
X111267438Y-164154144D01*
X111023618Y-164720373D01*
X111023174Y-164721017D01*
X111022377Y-164723256D01*
X111021439Y-164725434D01*
X111021326Y-164726207D01*
X110814555Y-165306994D01*
X110814153Y-165307666D01*
X110813501Y-165309954D01*
X110812705Y-165312191D01*
X110812642Y-165312970D01*
X110643781Y-165905887D01*
X110643423Y-165906583D01*
X110642921Y-165908906D01*
X110642271Y-165911188D01*
X110642259Y-165911969D01*
X110512012Y-166514553D01*
X110511700Y-166515270D01*
X110511349Y-166517616D01*
X110510847Y-166519941D01*
X110510885Y-166520723D01*
X110419797Y-167130453D01*
X110419532Y-167131189D01*
X110419333Y-167133555D01*
X110418983Y-167135901D01*
X110419071Y-167136677D01*
X110385344Y-167538588D01*
X107533475Y-167539391D01*
X107517010Y-167534435D01*
X106869139Y-167514640D01*
X106240614Y-167456888D01*
X105616795Y-167360873D01*
X104999983Y-167226949D01*
X104392531Y-167055630D01*
X103796660Y-166847542D01*
X103214593Y-166603461D01*
X102648526Y-166324308D01*
X102100538Y-166011107D01*
X102057029Y-165982581D01*
X106540675Y-165982581D01*
X106777485Y-166150872D01*
X106991915Y-166251776D01*
X107220825Y-166313113D01*
X107456979Y-166332943D01*
X107692913Y-166310641D01*
X107921168Y-166246910D01*
X108134531Y-166143767D01*
X108358086Y-165981342D01*
X107450000Y-165073256D01*
X106540675Y-165982581D01*
X102057029Y-165982581D01*
X101572698Y-165665040D01*
X101066994Y-165287412D01*
X100686273Y-164965107D01*
X106117496Y-164965107D01*
X106132377Y-165201625D01*
X106188906Y-165431769D01*
X106285296Y-165648266D01*
X106464615Y-165912129D01*
X107376744Y-165000000D01*
X107523256Y-165000000D01*
X108424883Y-165901627D01*
X108490284Y-165833423D01*
X108621429Y-165636034D01*
X108715547Y-165418540D01*
X108769890Y-165186849D01*
X108777860Y-164882485D01*
X108735717Y-164648268D01*
X108653111Y-164426146D01*
X108532475Y-164222162D01*
X108425280Y-164097976D01*
X107523256Y-165000000D01*
X107376744Y-165000000D01*
X106470807Y-164094064D01*
X106320819Y-164291666D01*
X106213230Y-164502822D01*
X106144735Y-164729693D01*
X106117496Y-164965107D01*
X100686273Y-164965107D01*
X100585260Y-164879594D01*
X100129319Y-164443125D01*
X99743058Y-164025269D01*
X106548525Y-164025269D01*
X107450000Y-164926744D01*
X108353508Y-164023236D01*
X108193452Y-163893626D01*
X107985781Y-163779457D01*
X107761174Y-163703869D01*
X107526731Y-163669249D01*
X107289862Y-163676693D01*
X107058055Y-163725966D01*
X106838639Y-163815508D01*
X106638545Y-163942491D01*
X106548525Y-164025269D01*
X99743058Y-164025269D01*
X99700886Y-163979648D01*
X99301557Y-163490893D01*
X98932799Y-162978657D01*
X98595985Y-162444836D01*
X98292412Y-161891496D01*
X98023179Y-161320641D01*
X97789298Y-160734413D01*
X97591641Y-160134997D01*
X97430940Y-159524614D01*
X97307809Y-158905593D01*
X97290398Y-158777660D01*
X97267752Y-156346443D01*
X130511311Y-156346443D01*
X130544933Y-156540088D01*
X130646014Y-156708648D01*
X130800997Y-156829517D01*
X130927041Y-156867692D01*
X130812714Y-156899291D01*
X130654823Y-157016336D01*
X130549654Y-157182375D01*
X130511311Y-157375142D01*
X130544933Y-157568787D01*
X130646014Y-157737347D01*
X130800997Y-157858216D01*
X130989102Y-157915187D01*
X131185105Y-157900621D01*
X131362724Y-157816472D01*
X131498138Y-157674022D01*
X131573363Y-157491967D01*
X131575900Y-157284301D01*
X131505146Y-157100461D01*
X131373252Y-156954745D01*
X131197743Y-156866281D01*
X131197138Y-156866221D01*
X131362724Y-156787773D01*
X131498138Y-156645323D01*
X131573363Y-156463268D01*
X131573483Y-156453412D01*
X136332137Y-156453412D01*
X136364874Y-156669870D01*
X136440466Y-156875324D01*
X136555827Y-157061382D01*
X136706244Y-157220444D01*
X136885572Y-157346011D01*
X137088316Y-157433746D01*
X137374825Y-157478100D01*
X137468698Y-157478100D01*
X137631799Y-157461533D01*
X137840701Y-157396067D01*
X138032172Y-157289932D01*
X138198391Y-157147465D01*
X138332568Y-156974485D01*
X138429222Y-156778057D01*
X138484405Y-156566208D01*
X138495863Y-156347588D01*
X138463126Y-156131130D01*
X138387534Y-155925676D01*
X138272173Y-155739618D01*
X138121756Y-155580556D01*
X137942428Y-155454989D01*
X137739684Y-155367254D01*
X137453175Y-155322900D01*
X137359302Y-155322900D01*
X137196201Y-155339467D01*
X136987299Y-155404933D01*
X136795828Y-155511068D01*
X136629609Y-155653535D01*
X136495432Y-155826515D01*
X136398778Y-156022943D01*
X136343595Y-156234792D01*
X136332137Y-156453412D01*
X131573483Y-156453412D01*
X131575900Y-156255602D01*
X131505146Y-156071762D01*
X131373252Y-155926046D01*
X131197743Y-155837582D01*
X131002154Y-155818232D01*
X130812714Y-155870592D01*
X130654823Y-155987637D01*
X130549654Y-156153676D01*
X130511311Y-156346443D01*
X97267752Y-156346443D01*
X97262646Y-155798379D01*
X97266653Y-155761803D01*
X97373543Y-155139744D01*
X97518206Y-154525380D01*
X97700104Y-153921002D01*
X97702904Y-153913412D01*
X136332137Y-153913412D01*
X136364874Y-154129870D01*
X136440466Y-154335324D01*
X136555827Y-154521382D01*
X136706244Y-154680444D01*
X136885572Y-154806011D01*
X137088316Y-154893746D01*
X137374825Y-154938100D01*
X137468698Y-154938100D01*
X137631799Y-154921533D01*
X137840701Y-154856067D01*
X138032172Y-154749932D01*
X138198391Y-154607465D01*
X138332568Y-154434485D01*
X138429222Y-154238057D01*
X138484405Y-154026208D01*
X138495863Y-153807588D01*
X138463126Y-153591130D01*
X138387534Y-153385676D01*
X138272173Y-153199618D01*
X138121756Y-153040556D01*
X137942428Y-152914989D01*
X137739684Y-152827254D01*
X137453175Y-152782900D01*
X137359302Y-152782900D01*
X137196201Y-152799467D01*
X136987299Y-152864933D01*
X136795828Y-152971068D01*
X136629609Y-153113535D01*
X136495432Y-153286515D01*
X136398778Y-153482943D01*
X136343595Y-153694792D01*
X136332137Y-153913412D01*
X97702904Y-153913412D01*
X97912253Y-153345943D01*
X113382311Y-153345943D01*
X113415933Y-153539588D01*
X113517014Y-153708148D01*
X113671997Y-153829017D01*
X113860102Y-153885988D01*
X114056105Y-153871422D01*
X114233724Y-153787273D01*
X114369138Y-153644823D01*
X114444363Y-153462768D01*
X114446900Y-153255102D01*
X114376146Y-153071262D01*
X114244252Y-152925546D01*
X114068743Y-152837082D01*
X113873154Y-152817732D01*
X113683714Y-152870092D01*
X113525823Y-152987137D01*
X113420654Y-153153176D01*
X113382311Y-153345943D01*
X97912253Y-153345943D01*
X97918562Y-153328843D01*
X98172760Y-152751133D01*
X98461759Y-152190011D01*
X98718514Y-151758443D01*
X118017811Y-151758443D01*
X118051433Y-151952088D01*
X118152514Y-152120648D01*
X118307497Y-152241517D01*
X118495602Y-152298488D01*
X118691605Y-152283922D01*
X118869224Y-152199773D01*
X119004638Y-152057323D01*
X119079863Y-151875268D01*
X119082400Y-151667602D01*
X119011646Y-151483762D01*
X118879752Y-151338046D01*
X118831917Y-151313935D01*
X133956311Y-151313935D01*
X133989933Y-151507580D01*
X134091014Y-151676140D01*
X134245997Y-151797009D01*
X134434102Y-151853980D01*
X134630105Y-151839414D01*
X134807724Y-151755265D01*
X134943138Y-151612815D01*
X135018363Y-151430760D01*
X135019063Y-151373412D01*
X136332137Y-151373412D01*
X136364874Y-151589870D01*
X136440466Y-151795324D01*
X136555827Y-151981382D01*
X136706244Y-152140444D01*
X136885572Y-152266011D01*
X137088316Y-152353746D01*
X137374825Y-152398100D01*
X137468698Y-152398100D01*
X137631799Y-152381533D01*
X137840701Y-152316067D01*
X138032172Y-152209932D01*
X138198391Y-152067465D01*
X138332568Y-151894485D01*
X138429222Y-151698057D01*
X138484405Y-151486208D01*
X138495863Y-151267588D01*
X138463126Y-151051130D01*
X138387534Y-150845676D01*
X138272173Y-150659618D01*
X138121756Y-150500556D01*
X137942428Y-150374989D01*
X137739684Y-150287254D01*
X137453175Y-150242900D01*
X137359302Y-150242900D01*
X137196201Y-150259467D01*
X136987299Y-150324933D01*
X136795828Y-150431068D01*
X136629609Y-150573535D01*
X136495432Y-150746515D01*
X136398778Y-150942943D01*
X136343595Y-151154792D01*
X136332137Y-151373412D01*
X135019063Y-151373412D01*
X135020900Y-151223094D01*
X134950146Y-151039254D01*
X134818252Y-150893538D01*
X134642743Y-150805074D01*
X134447154Y-150785724D01*
X134257714Y-150838084D01*
X134099823Y-150955129D01*
X133994654Y-151121168D01*
X133956311Y-151313935D01*
X118831917Y-151313935D01*
X118704243Y-151249582D01*
X118508654Y-151230232D01*
X118319214Y-151282592D01*
X118161323Y-151399637D01*
X118056154Y-151565676D01*
X118017811Y-151758443D01*
X98718514Y-151758443D01*
X98784461Y-151647596D01*
X99139687Y-151125876D01*
X99475907Y-150691643D01*
X108988111Y-150691643D01*
X109021733Y-150885288D01*
X109122814Y-151053848D01*
X109277797Y-151174717D01*
X109465902Y-151231688D01*
X109661905Y-151217122D01*
X109839524Y-151132973D01*
X109974938Y-150990523D01*
X110050163Y-150808468D01*
X110052521Y-150615443D01*
X118017811Y-150615443D01*
X118051433Y-150809088D01*
X118152514Y-150977648D01*
X118307497Y-151098517D01*
X118495602Y-151155488D01*
X118691605Y-151140922D01*
X118869224Y-151056773D01*
X119004638Y-150914323D01*
X119079863Y-150732268D01*
X119082065Y-150551943D01*
X120811811Y-150551943D01*
X120845433Y-150745588D01*
X120946514Y-150914148D01*
X121101497Y-151035017D01*
X121289602Y-151091988D01*
X121485605Y-151077422D01*
X121663224Y-150993273D01*
X121798638Y-150850823D01*
X121873863Y-150668768D01*
X121876400Y-150461102D01*
X121805646Y-150277262D01*
X121673752Y-150131546D01*
X121498243Y-150043082D01*
X121302654Y-150023732D01*
X121113214Y-150076092D01*
X120955323Y-150193137D01*
X120850154Y-150359176D01*
X120811811Y-150551943D01*
X119082065Y-150551943D01*
X119082400Y-150524602D01*
X119011646Y-150340762D01*
X118879752Y-150195046D01*
X118704243Y-150106582D01*
X118508654Y-150087232D01*
X118319214Y-150139592D01*
X118161323Y-150256637D01*
X118056154Y-150422676D01*
X118017811Y-150615443D01*
X110052521Y-150615443D01*
X110052700Y-150600802D01*
X109981946Y-150416962D01*
X109850052Y-150271246D01*
X109674543Y-150182782D01*
X109478954Y-150163432D01*
X109289514Y-150215792D01*
X109131623Y-150332837D01*
X109026454Y-150498876D01*
X108988111Y-150691643D01*
X99475907Y-150691643D01*
X99526110Y-150626806D01*
X99943483Y-150150883D01*
X100131548Y-149955043D01*
X105508311Y-149955043D01*
X105541933Y-150148688D01*
X105643014Y-150317248D01*
X105797997Y-150438117D01*
X105986102Y-150495088D01*
X106182105Y-150480522D01*
X106359724Y-150396373D01*
X106495138Y-150253923D01*
X106570363Y-150071868D01*
X106572900Y-149864202D01*
X106502146Y-149680362D01*
X106428903Y-149599443D01*
X131098811Y-149599443D01*
X131132433Y-149793088D01*
X131233514Y-149961648D01*
X131388497Y-150082517D01*
X131576602Y-150139488D01*
X131772605Y-150124922D01*
X131950224Y-150040773D01*
X132085638Y-149898323D01*
X132160863Y-149716268D01*
X132163400Y-149508602D01*
X132092646Y-149324762D01*
X131960752Y-149179046D01*
X131785243Y-149090582D01*
X131589654Y-149071232D01*
X131400214Y-149123592D01*
X131242323Y-149240637D01*
X131137154Y-149406676D01*
X131098811Y-149599443D01*
X106428903Y-149599443D01*
X106370252Y-149534646D01*
X106194743Y-149446182D01*
X105999154Y-149426832D01*
X105809714Y-149479192D01*
X105651823Y-149596237D01*
X105546654Y-149762276D01*
X105508311Y-149955043D01*
X100131548Y-149955043D01*
X100161224Y-149924141D01*
X100170003Y-149908200D01*
X100190153Y-149888128D01*
X100198910Y-149855703D01*
X100215114Y-149826277D01*
X100213932Y-149767831D01*
X100216021Y-148710443D01*
X122018311Y-148710443D01*
X122051933Y-148904088D01*
X122153014Y-149072648D01*
X122307997Y-149193517D01*
X122496102Y-149250488D01*
X122692105Y-149235922D01*
X122869724Y-149151773D01*
X123005138Y-149009323D01*
X123065622Y-148862943D01*
X133867311Y-148862943D01*
X133900933Y-149056588D01*
X134002014Y-149225148D01*
X134156997Y-149346017D01*
X134345102Y-149402988D01*
X134541105Y-149388422D01*
X134718724Y-149304273D01*
X134854138Y-149161823D01*
X134929363Y-148979768D01*
X134931150Y-148833412D01*
X136332137Y-148833412D01*
X136364874Y-149049870D01*
X136440466Y-149255324D01*
X136555827Y-149441382D01*
X136706244Y-149600444D01*
X136885572Y-149726011D01*
X137088316Y-149813746D01*
X137374825Y-149858100D01*
X137468698Y-149858100D01*
X137631799Y-149841533D01*
X137840701Y-149776067D01*
X138032172Y-149669932D01*
X138198391Y-149527465D01*
X138332568Y-149354485D01*
X138429222Y-149158057D01*
X138484405Y-148946208D01*
X138495863Y-148727588D01*
X138463126Y-148511130D01*
X138387534Y-148305676D01*
X138272173Y-148119618D01*
X138121756Y-147960556D01*
X137942428Y-147834989D01*
X137739684Y-147747254D01*
X137453175Y-147702900D01*
X137359302Y-147702900D01*
X137196201Y-147719467D01*
X136987299Y-147784933D01*
X136795828Y-147891068D01*
X136629609Y-148033535D01*
X136495432Y-148206515D01*
X136398778Y-148402943D01*
X136343595Y-148614792D01*
X136332137Y-148833412D01*
X134931150Y-148833412D01*
X134931900Y-148772102D01*
X134861146Y-148588262D01*
X134729252Y-148442546D01*
X134553743Y-148354082D01*
X134358154Y-148334732D01*
X134168714Y-148387092D01*
X134010823Y-148504137D01*
X133905654Y-148670176D01*
X133867311Y-148862943D01*
X123065622Y-148862943D01*
X123080363Y-148827268D01*
X123082900Y-148619602D01*
X123012146Y-148435762D01*
X122880252Y-148290046D01*
X122704743Y-148201582D01*
X122509154Y-148182232D01*
X122319714Y-148234592D01*
X122161823Y-148351637D01*
X122056654Y-148517676D01*
X122018311Y-148710443D01*
X100216021Y-148710443D01*
X100217652Y-147884943D01*
X114588811Y-147884943D01*
X114622433Y-148078588D01*
X114723514Y-148247148D01*
X114878497Y-148368017D01*
X115066602Y-148424988D01*
X115262605Y-148410422D01*
X115440224Y-148326273D01*
X115575638Y-148183823D01*
X115650863Y-148001768D01*
X115653400Y-147794102D01*
X115582646Y-147610262D01*
X115486412Y-147503943D01*
X122018319Y-147503943D01*
X122051941Y-147697588D01*
X122153022Y-147866148D01*
X122308005Y-147987017D01*
X122496110Y-148043988D01*
X122692113Y-148029422D01*
X122869732Y-147945273D01*
X123005146Y-147802823D01*
X123080371Y-147620768D01*
X123082908Y-147413102D01*
X123012154Y-147229262D01*
X122880260Y-147083546D01*
X122704751Y-146995082D01*
X122509162Y-146975732D01*
X122319722Y-147028092D01*
X122161831Y-147145137D01*
X122056662Y-147311176D01*
X122018319Y-147503943D01*
X115486412Y-147503943D01*
X115450752Y-147464546D01*
X115275243Y-147376082D01*
X115079654Y-147356732D01*
X114890214Y-147409092D01*
X114732323Y-147526137D01*
X114627154Y-147692176D01*
X114588811Y-147884943D01*
X100217652Y-147884943D01*
X100221039Y-146170443D01*
X121129311Y-146170443D01*
X121162933Y-146364088D01*
X121264014Y-146532648D01*
X121418997Y-146653517D01*
X121607102Y-146710488D01*
X121803105Y-146695922D01*
X121980724Y-146611773D01*
X122116138Y-146469323D01*
X122189283Y-146292300D01*
X136331969Y-146292300D01*
X136364874Y-146509870D01*
X136440466Y-146715324D01*
X136555827Y-146901382D01*
X136706244Y-147060444D01*
X136885572Y-147186011D01*
X137088317Y-147273746D01*
X137362200Y-147316145D01*
X137362200Y-146292300D01*
X137465800Y-146292300D01*
X137465800Y-147318394D01*
X137631799Y-147301533D01*
X137840701Y-147236067D01*
X138032172Y-147129932D01*
X138198391Y-146987465D01*
X138332568Y-146814485D01*
X138429222Y-146618057D01*
X138484405Y-146406208D01*
X138490377Y-146292300D01*
X137465800Y-146292300D01*
X137362200Y-146292300D01*
X136331969Y-146292300D01*
X122189283Y-146292300D01*
X122191363Y-146287268D01*
X122192567Y-146188700D01*
X136337623Y-146188700D01*
X137362200Y-146188700D01*
X137362200Y-145164855D01*
X137465800Y-145164855D01*
X137465800Y-146188700D01*
X138496031Y-146188700D01*
X138463126Y-145971130D01*
X138387534Y-145765676D01*
X138272173Y-145579618D01*
X138121756Y-145420556D01*
X137942428Y-145294989D01*
X137739683Y-145207254D01*
X137465800Y-145164855D01*
X137362200Y-145164855D01*
X137362200Y-145162606D01*
X137196201Y-145179467D01*
X136987299Y-145244933D01*
X136795828Y-145351068D01*
X136629609Y-145493535D01*
X136495432Y-145666515D01*
X136398778Y-145862943D01*
X136343595Y-146074792D01*
X136337623Y-146188700D01*
X122192567Y-146188700D01*
X122193900Y-146079602D01*
X122123146Y-145895762D01*
X121991252Y-145750046D01*
X121815743Y-145661582D01*
X121620154Y-145642232D01*
X121430714Y-145694592D01*
X121272823Y-145811637D01*
X121167654Y-145977676D01*
X121129311Y-146170443D01*
X100221039Y-146170443D01*
X100225735Y-143794455D01*
X106239924Y-143794455D01*
X106282901Y-143977691D01*
X106368346Y-144145386D01*
X106491325Y-144287858D01*
X106644739Y-144396883D01*
X106819730Y-144466167D01*
X107006196Y-144491710D01*
X107193373Y-144472037D01*
X107370454Y-144408284D01*
X107527217Y-144304131D01*
X107654610Y-144165591D01*
X107745280Y-144000663D01*
X107794095Y-143818483D01*
X107796228Y-143614784D01*
X107784478Y-143566943D01*
X119541811Y-143566943D01*
X119575433Y-143760588D01*
X119676514Y-143929148D01*
X119831497Y-144050017D01*
X120019602Y-144106988D01*
X120215605Y-144092422D01*
X120393224Y-144008273D01*
X120528638Y-143865823D01*
X120599657Y-143693945D01*
X127034811Y-143693945D01*
X127068433Y-143887590D01*
X127169514Y-144056150D01*
X127324497Y-144177019D01*
X127512602Y-144233990D01*
X127708605Y-144219424D01*
X127886224Y-144135275D01*
X128021638Y-143992825D01*
X128096863Y-143810770D01*
X128097129Y-143788943D01*
X128463311Y-143788943D01*
X128496933Y-143982588D01*
X128598014Y-144151148D01*
X128752997Y-144272017D01*
X128941102Y-144328988D01*
X129137105Y-144314422D01*
X129314724Y-144230273D01*
X129450138Y-144087823D01*
X129525363Y-143905768D01*
X129527224Y-143753412D01*
X136332137Y-143753412D01*
X136364874Y-143969870D01*
X136440466Y-144175324D01*
X136555827Y-144361382D01*
X136706244Y-144520444D01*
X136885572Y-144646011D01*
X137088316Y-144733746D01*
X137374825Y-144778100D01*
X137468698Y-144778100D01*
X137631799Y-144761533D01*
X137840701Y-144696067D01*
X138032172Y-144589932D01*
X138198391Y-144447465D01*
X138332568Y-144274485D01*
X138429222Y-144078057D01*
X138484405Y-143866208D01*
X138495863Y-143647588D01*
X138463126Y-143431130D01*
X138387534Y-143225676D01*
X138272173Y-143039618D01*
X138121756Y-142880556D01*
X137942428Y-142754989D01*
X137739684Y-142667254D01*
X137453175Y-142622900D01*
X137359302Y-142622900D01*
X137196201Y-142639467D01*
X136987299Y-142704933D01*
X136795828Y-142811068D01*
X136629609Y-142953535D01*
X136495432Y-143126515D01*
X136398778Y-143322943D01*
X136343595Y-143534792D01*
X136332137Y-143753412D01*
X129527224Y-143753412D01*
X129527900Y-143698102D01*
X129457146Y-143514262D01*
X129325252Y-143368546D01*
X129149743Y-143280082D01*
X128954154Y-143260732D01*
X128764714Y-143313092D01*
X128606823Y-143430137D01*
X128501654Y-143596176D01*
X128463311Y-143788943D01*
X128097129Y-143788943D01*
X128099400Y-143603104D01*
X128028646Y-143419264D01*
X127896752Y-143273548D01*
X127721243Y-143185084D01*
X127525654Y-143165734D01*
X127336214Y-143218094D01*
X127178323Y-143335139D01*
X127073154Y-143501178D01*
X127034811Y-143693945D01*
X120599657Y-143693945D01*
X120603863Y-143683768D01*
X120606400Y-143476102D01*
X120535646Y-143292262D01*
X120403752Y-143146546D01*
X120228243Y-143058082D01*
X120032654Y-143038732D01*
X119843214Y-143091092D01*
X119685323Y-143208137D01*
X119580154Y-143374176D01*
X119541811Y-143566943D01*
X107784478Y-143566943D01*
X107751240Y-143431621D01*
X107664043Y-143264831D01*
X107539579Y-143123653D01*
X107385032Y-143016241D01*
X107209326Y-142948793D01*
X107022602Y-142925204D01*
X106835641Y-142946836D01*
X106659237Y-143012440D01*
X106503574Y-143118229D01*
X106377638Y-143258094D01*
X106288700Y-143423963D01*
X106241894Y-143606258D01*
X106239924Y-143794455D01*
X100225735Y-143794455D01*
X100227540Y-142881203D01*
X100235621Y-142852070D01*
X100227657Y-142821270D01*
X100227659Y-142820483D01*
X100220184Y-142792366D01*
X100207655Y-142743906D01*
X100026653Y-142423943D01*
X125764811Y-142423943D01*
X125798433Y-142617588D01*
X125899514Y-142786148D01*
X126054497Y-142907017D01*
X126242602Y-142963988D01*
X126438605Y-142949422D01*
X126616224Y-142865273D01*
X126751638Y-142722823D01*
X126826863Y-142540768D01*
X126829400Y-142333102D01*
X126758646Y-142149262D01*
X126626752Y-142003546D01*
X126451243Y-141915082D01*
X126255654Y-141895732D01*
X126066214Y-141948092D01*
X125908323Y-142065137D01*
X125803154Y-142231176D01*
X125764811Y-142423943D01*
X100026653Y-142423943D01*
X99745627Y-141927166D01*
X99519158Y-141486443D01*
X112414811Y-141486443D01*
X112448433Y-141680088D01*
X112549514Y-141848648D01*
X112704497Y-141969517D01*
X112892602Y-142026488D01*
X113088605Y-142011922D01*
X113266224Y-141927773D01*
X113401638Y-141785323D01*
X113440222Y-141691943D01*
X115698311Y-141691943D01*
X115731933Y-141885588D01*
X115833014Y-142054148D01*
X115987997Y-142175017D01*
X116176102Y-142231988D01*
X116372105Y-142217422D01*
X116549724Y-142133273D01*
X116685138Y-141990823D01*
X116760363Y-141808768D01*
X116762900Y-141601102D01*
X116692146Y-141417262D01*
X116560252Y-141271546D01*
X116444917Y-141213412D01*
X136332137Y-141213412D01*
X136364874Y-141429870D01*
X136440466Y-141635324D01*
X136555827Y-141821382D01*
X136706244Y-141980444D01*
X136885572Y-142106011D01*
X137088316Y-142193746D01*
X137374825Y-142238100D01*
X137468698Y-142238100D01*
X137631799Y-142221533D01*
X137840701Y-142156067D01*
X138032172Y-142049932D01*
X138198391Y-141907465D01*
X138332568Y-141734485D01*
X138429222Y-141538057D01*
X138484405Y-141326208D01*
X138495863Y-141107588D01*
X138463126Y-140891130D01*
X138387534Y-140685676D01*
X138272173Y-140499618D01*
X138121756Y-140340556D01*
X137942428Y-140214989D01*
X137739684Y-140127254D01*
X137453175Y-140082900D01*
X137359302Y-140082900D01*
X137196201Y-140099467D01*
X136987299Y-140164933D01*
X136795828Y-140271068D01*
X136629609Y-140413535D01*
X136495432Y-140586515D01*
X136398778Y-140782943D01*
X136343595Y-140994792D01*
X136332137Y-141213412D01*
X116444917Y-141213412D01*
X116384743Y-141183082D01*
X116189154Y-141163732D01*
X115999714Y-141216092D01*
X115841823Y-141333137D01*
X115736654Y-141499176D01*
X115698311Y-141691943D01*
X113440222Y-141691943D01*
X113476863Y-141603268D01*
X113479400Y-141395602D01*
X113408646Y-141211762D01*
X113276752Y-141066046D01*
X113101243Y-140977582D01*
X112905654Y-140958232D01*
X112716214Y-141010592D01*
X112558323Y-141127637D01*
X112453154Y-141293676D01*
X112414811Y-141486443D01*
X99519158Y-141486443D01*
X99323428Y-141105541D01*
X99085060Y-140591943D01*
X115677821Y-140591943D01*
X115711443Y-140785588D01*
X115812524Y-140954148D01*
X115967507Y-141075017D01*
X116155612Y-141131988D01*
X116351615Y-141117422D01*
X116529234Y-141033273D01*
X116664648Y-140890823D01*
X116739873Y-140708768D01*
X116742410Y-140501102D01*
X116671656Y-140317262D01*
X116539762Y-140171546D01*
X116364253Y-140083082D01*
X116168664Y-140063732D01*
X115979224Y-140116092D01*
X115821333Y-140233137D01*
X115716164Y-140399176D01*
X115677821Y-140591943D01*
X99085060Y-140591943D01*
X98934519Y-140267583D01*
X98579573Y-139414743D01*
X98518253Y-139248943D01*
X119541811Y-139248943D01*
X119575433Y-139442588D01*
X119676514Y-139611148D01*
X119831497Y-139732017D01*
X120019602Y-139788988D01*
X120215605Y-139774422D01*
X120393224Y-139690273D01*
X120528638Y-139547823D01*
X120547182Y-139502943D01*
X129320811Y-139502943D01*
X129354433Y-139696588D01*
X129455514Y-139865148D01*
X129610497Y-139986017D01*
X129798602Y-140042988D01*
X129994605Y-140028422D01*
X130172224Y-139944273D01*
X130307638Y-139801823D01*
X130382863Y-139619768D01*
X130385400Y-139412102D01*
X130314646Y-139228262D01*
X130182752Y-139082546D01*
X130007243Y-138994082D01*
X129811654Y-138974732D01*
X129622214Y-139027092D01*
X129464323Y-139144137D01*
X129359154Y-139310176D01*
X129320811Y-139502943D01*
X120547182Y-139502943D01*
X120603863Y-139365768D01*
X120606400Y-139158102D01*
X120535646Y-138974262D01*
X120430814Y-138858443D01*
X123659811Y-138858443D01*
X123693433Y-139052088D01*
X123794514Y-139220648D01*
X123949497Y-139341517D01*
X124137602Y-139398488D01*
X124333605Y-139383922D01*
X124511224Y-139299773D01*
X124646638Y-139157323D01*
X124721863Y-138975268D01*
X124724400Y-138767602D01*
X124688150Y-138673412D01*
X136332137Y-138673412D01*
X136364874Y-138889870D01*
X136440466Y-139095324D01*
X136555827Y-139281382D01*
X136706244Y-139440444D01*
X136885572Y-139566011D01*
X137088316Y-139653746D01*
X137374825Y-139698100D01*
X137468698Y-139698100D01*
X137631799Y-139681533D01*
X137840701Y-139616067D01*
X138032172Y-139509932D01*
X138198391Y-139367465D01*
X138332568Y-139194485D01*
X138429222Y-138998057D01*
X138484405Y-138786208D01*
X138495863Y-138567588D01*
X138463126Y-138351130D01*
X138387534Y-138145676D01*
X138272173Y-137959618D01*
X138121756Y-137800556D01*
X137942428Y-137674989D01*
X137739684Y-137587254D01*
X137453175Y-137542900D01*
X137359302Y-137542900D01*
X137196201Y-137559467D01*
X136987299Y-137624933D01*
X136795828Y-137731068D01*
X136629609Y-137873535D01*
X136495432Y-138046515D01*
X136398778Y-138242943D01*
X136343595Y-138454792D01*
X136332137Y-138673412D01*
X124688150Y-138673412D01*
X124653646Y-138583762D01*
X124521752Y-138438046D01*
X124346243Y-138349582D01*
X124150654Y-138330232D01*
X123961214Y-138382592D01*
X123803323Y-138499637D01*
X123698154Y-138665676D01*
X123659811Y-138858443D01*
X120430814Y-138858443D01*
X120403752Y-138828546D01*
X120228243Y-138740082D01*
X120032654Y-138720732D01*
X119843214Y-138773092D01*
X119685323Y-138890137D01*
X119580154Y-139056176D01*
X119541811Y-139248943D01*
X98518253Y-139248943D01*
X98259134Y-138548332D01*
X98094305Y-138040941D01*
X110715311Y-138040941D01*
X110748933Y-138234586D01*
X110850014Y-138403146D01*
X111004997Y-138524015D01*
X111193102Y-138580986D01*
X111389105Y-138566420D01*
X111566724Y-138482271D01*
X111702138Y-138339821D01*
X111777363Y-138157766D01*
X111779900Y-137950100D01*
X111742123Y-137851943D01*
X114525311Y-137851943D01*
X114558933Y-138045588D01*
X114660014Y-138214148D01*
X114814997Y-138335017D01*
X115003102Y-138391988D01*
X115199105Y-138377422D01*
X115376724Y-138293273D01*
X115512138Y-138150823D01*
X115587363Y-137968768D01*
X115588790Y-137851943D01*
X115668311Y-137851943D01*
X115701933Y-138045588D01*
X115803014Y-138214148D01*
X115957997Y-138335017D01*
X116146102Y-138391988D01*
X116342105Y-138377422D01*
X116519724Y-138293273D01*
X116655138Y-138150823D01*
X116730363Y-137968768D01*
X116732900Y-137761102D01*
X116662146Y-137577262D01*
X116530252Y-137431546D01*
X116354743Y-137343082D01*
X116159154Y-137323732D01*
X115969714Y-137376092D01*
X115811823Y-137493137D01*
X115706654Y-137659176D01*
X115668311Y-137851943D01*
X115588790Y-137851943D01*
X115589900Y-137761102D01*
X115519146Y-137577262D01*
X115387252Y-137431546D01*
X115211743Y-137343082D01*
X115016154Y-137323732D01*
X114826714Y-137376092D01*
X114668823Y-137493137D01*
X114563654Y-137659176D01*
X114525311Y-137851943D01*
X111742123Y-137851943D01*
X111709146Y-137766260D01*
X111577252Y-137620544D01*
X111401743Y-137532080D01*
X111206154Y-137512730D01*
X111016714Y-137565090D01*
X110858823Y-137682135D01*
X110753654Y-137848174D01*
X110715311Y-138040941D01*
X98094305Y-138040941D01*
X97973716Y-137669736D01*
X97723793Y-136780414D01*
X97509759Y-135881763D01*
X97492635Y-135794455D01*
X106239924Y-135794455D01*
X106282901Y-135977691D01*
X106368346Y-136145386D01*
X106491325Y-136287858D01*
X106644739Y-136396883D01*
X106819730Y-136466167D01*
X107006196Y-136491710D01*
X107193373Y-136472037D01*
X107370454Y-136408284D01*
X107527217Y-136304131D01*
X107654610Y-136165591D01*
X107745280Y-136000663D01*
X107794095Y-135818483D01*
X107796074Y-135629443D01*
X129320811Y-135629443D01*
X129354433Y-135823088D01*
X129455514Y-135991648D01*
X129574869Y-136084731D01*
X129473823Y-136159637D01*
X129368654Y-136325676D01*
X129330311Y-136518443D01*
X129363933Y-136712088D01*
X129465014Y-136880648D01*
X129619997Y-137001517D01*
X129808102Y-137058488D01*
X130004105Y-137043922D01*
X130181724Y-136959773D01*
X130317138Y-136817323D01*
X130392363Y-136635268D01*
X130394900Y-136427602D01*
X130389836Y-136414443D01*
X134504811Y-136414443D01*
X134538433Y-136608088D01*
X134639514Y-136776648D01*
X134794497Y-136897517D01*
X134982602Y-136954488D01*
X135178605Y-136939922D01*
X135356224Y-136855773D01*
X135491638Y-136713323D01*
X135566863Y-136531268D01*
X135569400Y-136323602D01*
X135498646Y-136139762D01*
X135492899Y-136133412D01*
X136332137Y-136133412D01*
X136364874Y-136349870D01*
X136440466Y-136555324D01*
X136555827Y-136741382D01*
X136706244Y-136900444D01*
X136885572Y-137026011D01*
X137088316Y-137113746D01*
X137374825Y-137158100D01*
X137468698Y-137158100D01*
X137631799Y-137141533D01*
X137840701Y-137076067D01*
X138032172Y-136969932D01*
X138198391Y-136827465D01*
X138332568Y-136654485D01*
X138429222Y-136458057D01*
X138484405Y-136246208D01*
X138495863Y-136027588D01*
X138463126Y-135811130D01*
X138387534Y-135605676D01*
X138272173Y-135419618D01*
X138121756Y-135260556D01*
X137942428Y-135134989D01*
X137739684Y-135047254D01*
X137453175Y-135002900D01*
X137359302Y-135002900D01*
X137196201Y-135019467D01*
X136987299Y-135084933D01*
X136795828Y-135191068D01*
X136629609Y-135333535D01*
X136495432Y-135506515D01*
X136398778Y-135702943D01*
X136343595Y-135914792D01*
X136332137Y-136133412D01*
X135492899Y-136133412D01*
X135366752Y-135994046D01*
X135191243Y-135905582D01*
X134995654Y-135886232D01*
X134806214Y-135938592D01*
X134648323Y-136055637D01*
X134543154Y-136221676D01*
X134504811Y-136414443D01*
X130389836Y-136414443D01*
X130324146Y-136243762D01*
X130192252Y-136098046D01*
X130154656Y-136079096D01*
X130172224Y-136070773D01*
X130307638Y-135928323D01*
X130382863Y-135746268D01*
X130385400Y-135538602D01*
X130314646Y-135354762D01*
X130182752Y-135209046D01*
X130007243Y-135120582D01*
X129811654Y-135101232D01*
X129622214Y-135153592D01*
X129464323Y-135270637D01*
X129359154Y-135436676D01*
X129320811Y-135629443D01*
X107796074Y-135629443D01*
X107796228Y-135614784D01*
X107751240Y-135431621D01*
X107664043Y-135264831D01*
X107539579Y-135123653D01*
X107385032Y-135016241D01*
X107209326Y-134948793D01*
X107022602Y-134925204D01*
X106835641Y-134946836D01*
X106659237Y-135012440D01*
X106503574Y-135118229D01*
X106377638Y-135258094D01*
X106288700Y-135423963D01*
X106241894Y-135606258D01*
X106239924Y-135794455D01*
X97492635Y-135794455D01*
X97331961Y-134975252D01*
X97295625Y-134740443D01*
X113890311Y-134740443D01*
X113923933Y-134934088D01*
X114025014Y-135102648D01*
X114179997Y-135223517D01*
X114368102Y-135280488D01*
X114564105Y-135265922D01*
X114741724Y-135181773D01*
X114877138Y-135039323D01*
X114952363Y-134857268D01*
X114954900Y-134649602D01*
X114884146Y-134465762D01*
X114752252Y-134320046D01*
X114704433Y-134295943D01*
X119541811Y-134295943D01*
X119575433Y-134489588D01*
X119676514Y-134658148D01*
X119831497Y-134779017D01*
X120019602Y-134835988D01*
X120215605Y-134821422D01*
X120393224Y-134737273D01*
X120528638Y-134594823D01*
X120603863Y-134412768D01*
X120606400Y-134205102D01*
X120535646Y-134021262D01*
X120403752Y-133875546D01*
X120355933Y-133851443D01*
X134527811Y-133851443D01*
X134561433Y-134045088D01*
X134662514Y-134213648D01*
X134817497Y-134334517D01*
X135005602Y-134391488D01*
X135201605Y-134376922D01*
X135379224Y-134292773D01*
X135514638Y-134150323D01*
X135589863Y-133968268D01*
X135592400Y-133760602D01*
X135528055Y-133593412D01*
X136332137Y-133593412D01*
X136364874Y-133809870D01*
X136440466Y-134015324D01*
X136555827Y-134201382D01*
X136706244Y-134360444D01*
X136885572Y-134486011D01*
X137088316Y-134573746D01*
X137374825Y-134618100D01*
X137468698Y-134618100D01*
X137631799Y-134601533D01*
X137840701Y-134536067D01*
X138032172Y-134429932D01*
X138198391Y-134287465D01*
X138332568Y-134114485D01*
X138429222Y-133918057D01*
X138484405Y-133706208D01*
X138495863Y-133487588D01*
X138463126Y-133271130D01*
X138387534Y-133065676D01*
X138272173Y-132879618D01*
X138121756Y-132720556D01*
X137942428Y-132594989D01*
X137739684Y-132507254D01*
X137453175Y-132462900D01*
X137359302Y-132462900D01*
X137196201Y-132479467D01*
X136987299Y-132544933D01*
X136795828Y-132651068D01*
X136629609Y-132793535D01*
X136495432Y-132966515D01*
X136398778Y-133162943D01*
X136343595Y-133374792D01*
X136332137Y-133593412D01*
X135528055Y-133593412D01*
X135521646Y-133576762D01*
X135389752Y-133431046D01*
X135214243Y-133342582D01*
X135018654Y-133323232D01*
X134829214Y-133375592D01*
X134671323Y-133492637D01*
X134566154Y-133658676D01*
X134527811Y-133851443D01*
X120355933Y-133851443D01*
X120228243Y-133787082D01*
X120032654Y-133767732D01*
X119843214Y-133820092D01*
X119685323Y-133937137D01*
X119580154Y-134103176D01*
X119541811Y-134295943D01*
X114704433Y-134295943D01*
X114576743Y-134231582D01*
X114381154Y-134212232D01*
X114191714Y-134264592D01*
X114033823Y-134381637D01*
X113928654Y-134547676D01*
X113890311Y-134740443D01*
X97295625Y-134740443D01*
X97190692Y-134062369D01*
X97086167Y-133144495D01*
X97046612Y-132605429D01*
X97042840Y-132200443D01*
X112493311Y-132200443D01*
X112526933Y-132394088D01*
X112628014Y-132562648D01*
X112782997Y-132683517D01*
X112971102Y-132740488D01*
X113167105Y-132725922D01*
X113344724Y-132641773D01*
X113480138Y-132499323D01*
X113524920Y-132390943D01*
X119414811Y-132390943D01*
X119448433Y-132584588D01*
X119549514Y-132753148D01*
X119704497Y-132874017D01*
X119892602Y-132930988D01*
X120088605Y-132916422D01*
X120266224Y-132832273D01*
X120401638Y-132689823D01*
X120458719Y-132551680D01*
X120464433Y-132584592D01*
X120565514Y-132753152D01*
X120720497Y-132874021D01*
X120908602Y-132930992D01*
X121104605Y-132916426D01*
X121282224Y-132832277D01*
X121417638Y-132689827D01*
X121492863Y-132507772D01*
X121494290Y-132390943D01*
X123351811Y-132390943D01*
X123385433Y-132584588D01*
X123486514Y-132753148D01*
X123641497Y-132874017D01*
X123829602Y-132930988D01*
X124025605Y-132916422D01*
X124203224Y-132832273D01*
X124338638Y-132689823D01*
X124413863Y-132507768D01*
X124416400Y-132300102D01*
X124345646Y-132116262D01*
X124213752Y-131970546D01*
X124038243Y-131882082D01*
X123842654Y-131862732D01*
X123653214Y-131915092D01*
X123495323Y-132032137D01*
X123390154Y-132198176D01*
X123351811Y-132390943D01*
X121494290Y-132390943D01*
X121495400Y-132300106D01*
X121424646Y-132116266D01*
X121292752Y-131970550D01*
X121117243Y-131882086D01*
X120921654Y-131862736D01*
X120732214Y-131915096D01*
X120574323Y-132032141D01*
X120469154Y-132198180D01*
X120459280Y-132247823D01*
X120408646Y-132116262D01*
X120276752Y-131970546D01*
X120101243Y-131882082D01*
X119905654Y-131862732D01*
X119716214Y-131915092D01*
X119558323Y-132032137D01*
X119453154Y-132198176D01*
X119414811Y-132390943D01*
X113524920Y-132390943D01*
X113555363Y-132317268D01*
X113557900Y-132109602D01*
X113487146Y-131925762D01*
X113355252Y-131780046D01*
X113179743Y-131691582D01*
X112984154Y-131672232D01*
X112794714Y-131724592D01*
X112636823Y-131841637D01*
X112531654Y-132007676D01*
X112493311Y-132200443D01*
X97042840Y-132200443D01*
X97032333Y-131072443D01*
X106699811Y-131072443D01*
X106733433Y-131266088D01*
X106834514Y-131434648D01*
X106989497Y-131555517D01*
X107177602Y-131612488D01*
X107373605Y-131597922D01*
X107551224Y-131513773D01*
X107686638Y-131371323D01*
X107761863Y-131189268D01*
X107764400Y-130981602D01*
X107695833Y-130803443D01*
X116938313Y-130803443D01*
X116971935Y-130997088D01*
X117073016Y-131165648D01*
X117227999Y-131286517D01*
X117416104Y-131343488D01*
X117612107Y-131328922D01*
X117789726Y-131244773D01*
X117925140Y-131102323D01*
X118000365Y-130920268D01*
X118002902Y-130712602D01*
X117932148Y-130528762D01*
X117800254Y-130383046D01*
X117626454Y-130295443D01*
X118398811Y-130295443D01*
X118432433Y-130489088D01*
X118533514Y-130657648D01*
X118688497Y-130778517D01*
X118876602Y-130835488D01*
X119072605Y-130820922D01*
X119250224Y-130736773D01*
X119385638Y-130594323D01*
X119460863Y-130412268D01*
X119462290Y-130295441D01*
X120430811Y-130295441D01*
X120464433Y-130489086D01*
X120565514Y-130657646D01*
X120720497Y-130778515D01*
X120908602Y-130835486D01*
X121104605Y-130820920D01*
X121282224Y-130736771D01*
X121417638Y-130594321D01*
X121492863Y-130412266D01*
X121494290Y-130295443D01*
X122462811Y-130295443D01*
X122496433Y-130489088D01*
X122597514Y-130657648D01*
X122752497Y-130778517D01*
X122940602Y-130835488D01*
X123136605Y-130820922D01*
X123307534Y-130739942D01*
X128241312Y-130739942D01*
X128274934Y-130933587D01*
X128376015Y-131102147D01*
X128530998Y-131223016D01*
X128719103Y-131279987D01*
X128915106Y-131265421D01*
X129092725Y-131181272D01*
X129214269Y-131053412D01*
X136332137Y-131053412D01*
X136364874Y-131269870D01*
X136440466Y-131475324D01*
X136555827Y-131661382D01*
X136706244Y-131820444D01*
X136885572Y-131946011D01*
X137088316Y-132033746D01*
X137374825Y-132078100D01*
X137468698Y-132078100D01*
X137631799Y-132061533D01*
X137840701Y-131996067D01*
X138032172Y-131889932D01*
X138198391Y-131747465D01*
X138332568Y-131574485D01*
X138429222Y-131378057D01*
X138484405Y-131166208D01*
X138495863Y-130947588D01*
X138463126Y-130731130D01*
X138387534Y-130525676D01*
X138272173Y-130339618D01*
X138121756Y-130180556D01*
X137942428Y-130054989D01*
X137739684Y-129967254D01*
X137453175Y-129922900D01*
X137359302Y-129922900D01*
X137196201Y-129939467D01*
X136987299Y-130004933D01*
X136795828Y-130111068D01*
X136629609Y-130253535D01*
X136495432Y-130426515D01*
X136398778Y-130622943D01*
X136343595Y-130834792D01*
X136332137Y-131053412D01*
X129214269Y-131053412D01*
X129228139Y-131038822D01*
X129303364Y-130856767D01*
X129305901Y-130649101D01*
X129235147Y-130465261D01*
X129103253Y-130319545D01*
X128927744Y-130231081D01*
X128732155Y-130211731D01*
X128542715Y-130264091D01*
X128384824Y-130381136D01*
X128279655Y-130547175D01*
X128241312Y-130739942D01*
X123307534Y-130739942D01*
X123314224Y-130736773D01*
X123449638Y-130594323D01*
X123524863Y-130412268D01*
X123527400Y-130204602D01*
X123456646Y-130020762D01*
X123324752Y-129875046D01*
X123149243Y-129786582D01*
X122953654Y-129767232D01*
X122764214Y-129819592D01*
X122606323Y-129936637D01*
X122501154Y-130102676D01*
X122462811Y-130295443D01*
X121494290Y-130295443D01*
X121495400Y-130204600D01*
X121424646Y-130020760D01*
X121292752Y-129875044D01*
X121117243Y-129786580D01*
X120921654Y-129767230D01*
X120732214Y-129819590D01*
X120574323Y-129936635D01*
X120469154Y-130102674D01*
X120430811Y-130295441D01*
X119462290Y-130295441D01*
X119463400Y-130204602D01*
X119392646Y-130020762D01*
X119260752Y-129875046D01*
X119085243Y-129786582D01*
X118889654Y-129767232D01*
X118700214Y-129819592D01*
X118542323Y-129936637D01*
X118437154Y-130102676D01*
X118398811Y-130295443D01*
X117626454Y-130295443D01*
X117624745Y-130294582D01*
X117429156Y-130275232D01*
X117239716Y-130327592D01*
X117081825Y-130444637D01*
X116976656Y-130610676D01*
X116938313Y-130803443D01*
X107695833Y-130803443D01*
X107693646Y-130797762D01*
X107561752Y-130652046D01*
X107386243Y-130563582D01*
X107190654Y-130544232D01*
X107001214Y-130596592D01*
X106843323Y-130713637D01*
X106738154Y-130879676D01*
X106699811Y-131072443D01*
X97032333Y-131072443D01*
X97020680Y-129821503D01*
X97025286Y-129723943D01*
X104365311Y-129723943D01*
X104398933Y-129917588D01*
X104500014Y-130086148D01*
X104654997Y-130207017D01*
X104843102Y-130263988D01*
X105039105Y-130249422D01*
X105216724Y-130165273D01*
X105352138Y-130022823D01*
X105427363Y-129840768D01*
X105429900Y-129633102D01*
X105359146Y-129449262D01*
X105262912Y-129342943D01*
X110270811Y-129342943D01*
X110304433Y-129536588D01*
X110405514Y-129705148D01*
X110560497Y-129826017D01*
X110746930Y-129882482D01*
X110715311Y-130041443D01*
X110748933Y-130235088D01*
X110850014Y-130403648D01*
X111004997Y-130524517D01*
X111193102Y-130581488D01*
X111389105Y-130566922D01*
X111566724Y-130482773D01*
X111702138Y-130340323D01*
X111746920Y-130231943D01*
X113890311Y-130231943D01*
X113923933Y-130425588D01*
X114025014Y-130594148D01*
X114179997Y-130715017D01*
X114368102Y-130771988D01*
X114564105Y-130757422D01*
X114741724Y-130673273D01*
X114877138Y-130530823D01*
X114952363Y-130348768D01*
X114954900Y-130141102D01*
X114884146Y-129957262D01*
X114752252Y-129811546D01*
X114576743Y-129723082D01*
X114381154Y-129703732D01*
X114191714Y-129756092D01*
X114033823Y-129873137D01*
X113928654Y-130039176D01*
X113890311Y-130231943D01*
X111746920Y-130231943D01*
X111777363Y-130158268D01*
X111779900Y-129950602D01*
X111709146Y-129766762D01*
X111577252Y-129621046D01*
X111403444Y-129533439D01*
X114779311Y-129533439D01*
X114812933Y-129727084D01*
X114914014Y-129895644D01*
X115068997Y-130016513D01*
X115257102Y-130073484D01*
X115453105Y-130058918D01*
X115630724Y-129974769D01*
X115766138Y-129832319D01*
X115841363Y-129650264D01*
X115843900Y-129442598D01*
X115773146Y-129258758D01*
X115641252Y-129113042D01*
X115465743Y-129024578D01*
X115270154Y-129005228D01*
X115080714Y-129057588D01*
X114922823Y-129174633D01*
X114817654Y-129340672D01*
X114779311Y-129533439D01*
X111403444Y-129533439D01*
X111401743Y-129532582D01*
X111306663Y-129523176D01*
X111332863Y-129459768D01*
X111335400Y-129252102D01*
X111264646Y-129068262D01*
X111132752Y-128922546D01*
X110957243Y-128834082D01*
X110761654Y-128814732D01*
X110572214Y-128867092D01*
X110414323Y-128984137D01*
X110309154Y-129150176D01*
X110270811Y-129342943D01*
X105262912Y-129342943D01*
X105227252Y-129303546D01*
X105051743Y-129215082D01*
X104856154Y-129195732D01*
X104666714Y-129248092D01*
X104508823Y-129365137D01*
X104403654Y-129531176D01*
X104365311Y-129723943D01*
X97025286Y-129723943D01*
X97038058Y-129453440D01*
X97118623Y-128533182D01*
X97121156Y-128513412D01*
X136332137Y-128513412D01*
X136364874Y-128729870D01*
X136440466Y-128935324D01*
X136555827Y-129121382D01*
X136706244Y-129280444D01*
X136885572Y-129406011D01*
X137088316Y-129493746D01*
X137374825Y-129538100D01*
X137468698Y-129538100D01*
X137631799Y-129521533D01*
X137840701Y-129456067D01*
X138032172Y-129349932D01*
X138198391Y-129207465D01*
X138332568Y-129034485D01*
X138429222Y-128838057D01*
X138484405Y-128626208D01*
X138495863Y-128407588D01*
X138463126Y-128191130D01*
X138387534Y-127985676D01*
X138272173Y-127799618D01*
X138121756Y-127640556D01*
X137942428Y-127514989D01*
X137739684Y-127427254D01*
X137453175Y-127382900D01*
X137359302Y-127382900D01*
X137196201Y-127399467D01*
X136987299Y-127464933D01*
X136795828Y-127571068D01*
X136629609Y-127713535D01*
X136495432Y-127886515D01*
X136398778Y-128082943D01*
X136343595Y-128294792D01*
X136332137Y-128513412D01*
X97121156Y-128513412D01*
X97236057Y-127616882D01*
X97242356Y-127579653D01*
X103366727Y-127579653D01*
X103400349Y-127773298D01*
X103501430Y-127941858D01*
X103656413Y-128062727D01*
X103844518Y-128119698D01*
X104040521Y-128105132D01*
X104218140Y-128020983D01*
X104353554Y-127878533D01*
X104428779Y-127696478D01*
X104431316Y-127488812D01*
X104397079Y-127399852D01*
X111096311Y-127399852D01*
X111129933Y-127593497D01*
X111231014Y-127762057D01*
X111385997Y-127882926D01*
X111574102Y-127939897D01*
X111770105Y-127925331D01*
X111947724Y-127841182D01*
X112083138Y-127698732D01*
X112158363Y-127516677D01*
X112160900Y-127309011D01*
X112090146Y-127125171D01*
X111958252Y-126979455D01*
X111782743Y-126890991D01*
X111587154Y-126871641D01*
X111397714Y-126924001D01*
X111239823Y-127041046D01*
X111134654Y-127207085D01*
X111096311Y-127399852D01*
X104397079Y-127399852D01*
X104360562Y-127304972D01*
X104228668Y-127159256D01*
X104053159Y-127070792D01*
X103857570Y-127051442D01*
X103668130Y-127103802D01*
X103510239Y-127220847D01*
X103405070Y-127386886D01*
X103366727Y-127579653D01*
X97242356Y-127579653D01*
X97390166Y-126706052D01*
X97580703Y-125802140D01*
X97648480Y-125534351D01*
X111186436Y-125534351D01*
X111220058Y-125727996D01*
X111321139Y-125896556D01*
X111476122Y-126017425D01*
X111664227Y-126074396D01*
X111860230Y-126059830D01*
X112037849Y-125975681D01*
X112173263Y-125833231D01*
X112176409Y-125825615D01*
X113265707Y-125825615D01*
X113299329Y-126019260D01*
X113400410Y-126187820D01*
X113555393Y-126308689D01*
X113735532Y-126363247D01*
X113577324Y-126406975D01*
X113419433Y-126524020D01*
X113314264Y-126690059D01*
X113275921Y-126882826D01*
X113309543Y-127076471D01*
X113410624Y-127245031D01*
X113565607Y-127365900D01*
X113753712Y-127422871D01*
X113949715Y-127408305D01*
X114127334Y-127324156D01*
X114262748Y-127181706D01*
X114337973Y-126999651D01*
X114338824Y-126929943D01*
X132432311Y-126929943D01*
X132465933Y-127123588D01*
X132567014Y-127292148D01*
X132721997Y-127413017D01*
X132910102Y-127469988D01*
X133106105Y-127455422D01*
X133111797Y-127452726D01*
X133042154Y-127562676D01*
X133003811Y-127755443D01*
X133037433Y-127949088D01*
X133138514Y-128117648D01*
X133293497Y-128238517D01*
X133481602Y-128295488D01*
X133677605Y-128280922D01*
X133855224Y-128196773D01*
X133990638Y-128054323D01*
X134065863Y-127872268D01*
X134068400Y-127664602D01*
X133997646Y-127480762D01*
X133865752Y-127335046D01*
X133690243Y-127246582D01*
X133494654Y-127227232D01*
X133394277Y-127254975D01*
X133419138Y-127228823D01*
X133494363Y-127046768D01*
X133496900Y-126839102D01*
X133426146Y-126655262D01*
X133294252Y-126509546D01*
X133118743Y-126421082D01*
X132923154Y-126401732D01*
X132733714Y-126454092D01*
X132575823Y-126571137D01*
X132470654Y-126737176D01*
X132432311Y-126929943D01*
X114338824Y-126929943D01*
X114339861Y-126845073D01*
X114384107Y-126858474D01*
X114580110Y-126843908D01*
X114757729Y-126759759D01*
X114893143Y-126617309D01*
X114968368Y-126435254D01*
X114970905Y-126227588D01*
X114900151Y-126043748D01*
X114768257Y-125898032D01*
X114638549Y-125832654D01*
X114741723Y-125783774D01*
X114870124Y-125648701D01*
X114914018Y-125721898D01*
X115069001Y-125842767D01*
X115257106Y-125899738D01*
X115453109Y-125885172D01*
X115630728Y-125801023D01*
X115690687Y-125737948D01*
X115668311Y-125850443D01*
X115701933Y-126044088D01*
X115803014Y-126212648D01*
X115957997Y-126333517D01*
X116146102Y-126390488D01*
X116342105Y-126375922D01*
X116519724Y-126291773D01*
X116655138Y-126149323D01*
X116673682Y-126104443D01*
X122653311Y-126104443D01*
X122686933Y-126298088D01*
X122788014Y-126466648D01*
X122942997Y-126587517D01*
X123131102Y-126644488D01*
X123327105Y-126629922D01*
X123504724Y-126545773D01*
X123640138Y-126403323D01*
X123715363Y-126221268D01*
X123717900Y-126013602D01*
X123702005Y-125972300D01*
X136331969Y-125972300D01*
X136364874Y-126189870D01*
X136440466Y-126395324D01*
X136555827Y-126581382D01*
X136706244Y-126740444D01*
X136885572Y-126866011D01*
X137088317Y-126953746D01*
X137362200Y-126996145D01*
X137362200Y-125972300D01*
X137465800Y-125972300D01*
X137465800Y-126998394D01*
X137631799Y-126981533D01*
X137840701Y-126916067D01*
X138032172Y-126809932D01*
X138198391Y-126667465D01*
X138332568Y-126494485D01*
X138429222Y-126298057D01*
X138484405Y-126086208D01*
X138490377Y-125972300D01*
X137465800Y-125972300D01*
X137362200Y-125972300D01*
X136331969Y-125972300D01*
X123702005Y-125972300D01*
X123662133Y-125868700D01*
X136337623Y-125868700D01*
X138496031Y-125868700D01*
X138463126Y-125651130D01*
X138387534Y-125445676D01*
X138272173Y-125259618D01*
X138121756Y-125100556D01*
X137942428Y-124974989D01*
X137739683Y-124887254D01*
X137465800Y-124844855D01*
X137465800Y-125868700D01*
X137362200Y-125868700D01*
X137362200Y-124842606D01*
X137196201Y-124859467D01*
X136987299Y-124924933D01*
X136795828Y-125031068D01*
X136629609Y-125173535D01*
X136495432Y-125346515D01*
X136398778Y-125542943D01*
X136343595Y-125754792D01*
X136337623Y-125868700D01*
X123662133Y-125868700D01*
X123647146Y-125829762D01*
X123515252Y-125684046D01*
X123339743Y-125595582D01*
X123144154Y-125576232D01*
X122954714Y-125628592D01*
X122796823Y-125745637D01*
X122691654Y-125911676D01*
X122653311Y-126104443D01*
X116673682Y-126104443D01*
X116730363Y-125967268D01*
X116732900Y-125759602D01*
X116662146Y-125575762D01*
X116571356Y-125475458D01*
X116655138Y-125387323D01*
X116730363Y-125205268D01*
X116732900Y-124997602D01*
X116662146Y-124813762D01*
X116530252Y-124668046D01*
X116354743Y-124579582D01*
X116159154Y-124560232D01*
X115969714Y-124612592D01*
X115811823Y-124729637D01*
X115706654Y-124895676D01*
X115687759Y-124990672D01*
X115641256Y-124939296D01*
X115465747Y-124850832D01*
X115270158Y-124831482D01*
X115080718Y-124883842D01*
X114922827Y-125000887D01*
X114881982Y-125065373D01*
X114752251Y-124922047D01*
X114576742Y-124833583D01*
X114381153Y-124814233D01*
X114191713Y-124866593D01*
X114033822Y-124983638D01*
X113928653Y-125149677D01*
X113896515Y-125311251D01*
X113756550Y-125297404D01*
X113567110Y-125349764D01*
X113409219Y-125466809D01*
X113304050Y-125632848D01*
X113265707Y-125825615D01*
X112176409Y-125825615D01*
X112248488Y-125651176D01*
X112251025Y-125443510D01*
X112180271Y-125259670D01*
X112048377Y-125113954D01*
X111872868Y-125025490D01*
X111677279Y-125006140D01*
X111487839Y-125058500D01*
X111329948Y-125175545D01*
X111224779Y-125341584D01*
X111186436Y-125534351D01*
X97648480Y-125534351D01*
X97787393Y-124985502D01*
X101218393Y-124985502D01*
X101252015Y-125179147D01*
X101353096Y-125347707D01*
X101508079Y-125468576D01*
X101696184Y-125525547D01*
X101892187Y-125510981D01*
X102069806Y-125426832D01*
X102160494Y-125331432D01*
X102305497Y-125444517D01*
X102493602Y-125501488D01*
X102689605Y-125486922D01*
X102867224Y-125402773D01*
X102935717Y-125330722D01*
X103067497Y-125433496D01*
X103255602Y-125490467D01*
X103451605Y-125475901D01*
X103629224Y-125391752D01*
X103764638Y-125249302D01*
X103839863Y-125067247D01*
X103842400Y-124859581D01*
X103783848Y-124707443D01*
X111985311Y-124707443D01*
X112018933Y-124901088D01*
X112120014Y-125069648D01*
X112274997Y-125190517D01*
X112463102Y-125247488D01*
X112659105Y-125232922D01*
X112836724Y-125148773D01*
X112972138Y-125006323D01*
X113047363Y-124824268D01*
X113049900Y-124616602D01*
X112979146Y-124432762D01*
X112847252Y-124287046D01*
X112671743Y-124198582D01*
X112476154Y-124179232D01*
X112286714Y-124231592D01*
X112128823Y-124348637D01*
X112023654Y-124514676D01*
X111985311Y-124707443D01*
X103783848Y-124707443D01*
X103771646Y-124675741D01*
X103639752Y-124530025D01*
X103464243Y-124441561D01*
X103268654Y-124422211D01*
X103079214Y-124474571D01*
X102922641Y-124590639D01*
X102877752Y-124541046D01*
X102702243Y-124452582D01*
X102557962Y-124438308D01*
X102621638Y-124371323D01*
X102696863Y-124189268D01*
X102699400Y-123981602D01*
X102628646Y-123797762D01*
X102508414Y-123664930D01*
X102581164Y-123588399D01*
X102841309Y-123588399D01*
X102874931Y-123782044D01*
X102976012Y-123950604D01*
X103130995Y-124071473D01*
X103319100Y-124128444D01*
X103515103Y-124113878D01*
X103692722Y-124029729D01*
X103821142Y-123894636D01*
X113890311Y-123894636D01*
X113923933Y-124088281D01*
X114025014Y-124256841D01*
X114179997Y-124377710D01*
X114368102Y-124434681D01*
X114564105Y-124420115D01*
X114741724Y-124335966D01*
X114877138Y-124193516D01*
X114952363Y-124011461D01*
X114953421Y-123924833D01*
X115668307Y-123924833D01*
X115701929Y-124118478D01*
X115803010Y-124287038D01*
X115957993Y-124407907D01*
X116146098Y-124464878D01*
X116342101Y-124450312D01*
X116519720Y-124366163D01*
X116655134Y-124223713D01*
X116730359Y-124041658D01*
X116731786Y-123924833D01*
X117573311Y-123924833D01*
X117606933Y-124118478D01*
X117708014Y-124287038D01*
X117862997Y-124407907D01*
X118051102Y-124464878D01*
X118247105Y-124450312D01*
X118424724Y-124366163D01*
X118551888Y-124232392D01*
X118597022Y-124307656D01*
X118752005Y-124428525D01*
X118940110Y-124485496D01*
X119136113Y-124470930D01*
X119313732Y-124386781D01*
X119449146Y-124244331D01*
X119524371Y-124062276D01*
X119525798Y-123945439D01*
X120494309Y-123945439D01*
X120527931Y-124139084D01*
X120629012Y-124307644D01*
X120701997Y-124364564D01*
X120637823Y-124412137D01*
X120532654Y-124578176D01*
X120494311Y-124770943D01*
X120527933Y-124964588D01*
X120629014Y-125133148D01*
X120660253Y-125157511D01*
X120637823Y-125174138D01*
X120532654Y-125340176D01*
X120494311Y-125532943D01*
X120527933Y-125726588D01*
X120629014Y-125895148D01*
X120783997Y-126016017D01*
X120972102Y-126072988D01*
X121168105Y-126058422D01*
X121345724Y-125974273D01*
X121481138Y-125831823D01*
X121556363Y-125649768D01*
X121558900Y-125442102D01*
X121488146Y-125258262D01*
X121397356Y-125157958D01*
X121481138Y-125069823D01*
X121525920Y-124961443D01*
X124431305Y-124961443D01*
X124464927Y-125155088D01*
X124566008Y-125323648D01*
X124720991Y-125444517D01*
X124909096Y-125501488D01*
X125105099Y-125486922D01*
X125282718Y-125402773D01*
X125418132Y-125260323D01*
X125493357Y-125078268D01*
X125494784Y-124961443D01*
X127288811Y-124961443D01*
X127322433Y-125155088D01*
X127423514Y-125323648D01*
X127578497Y-125444517D01*
X127766602Y-125501488D01*
X127962605Y-125486922D01*
X128140224Y-125402773D01*
X128275638Y-125260323D01*
X128350863Y-125078268D01*
X128352290Y-124961443D01*
X128368311Y-124961443D01*
X128401933Y-125155088D01*
X128503014Y-125323648D01*
X128657997Y-125444517D01*
X128846102Y-125501488D01*
X129042105Y-125486922D01*
X129219724Y-125402773D01*
X129355138Y-125260323D01*
X129430363Y-125078268D01*
X129432900Y-124870602D01*
X129362146Y-124686762D01*
X129230252Y-124541046D01*
X129054743Y-124452582D01*
X128859154Y-124433232D01*
X128669714Y-124485592D01*
X128511823Y-124602637D01*
X128406654Y-124768676D01*
X128368311Y-124961443D01*
X128352290Y-124961443D01*
X128353400Y-124870602D01*
X128282646Y-124686762D01*
X128150752Y-124541046D01*
X127975243Y-124452582D01*
X127779654Y-124433232D01*
X127590214Y-124485592D01*
X127432323Y-124602637D01*
X127327154Y-124768676D01*
X127288811Y-124961443D01*
X125494784Y-124961443D01*
X125495894Y-124870602D01*
X125425140Y-124686762D01*
X125293246Y-124541046D01*
X125117737Y-124452582D01*
X124922148Y-124433232D01*
X124732708Y-124485592D01*
X124574817Y-124602637D01*
X124469648Y-124768676D01*
X124431305Y-124961443D01*
X121525920Y-124961443D01*
X121556363Y-124887768D01*
X121558900Y-124680102D01*
X121488146Y-124496262D01*
X121367911Y-124363427D01*
X121481136Y-124244319D01*
X121556361Y-124062264D01*
X121557788Y-123945447D01*
X121827811Y-123945447D01*
X121861433Y-124139092D01*
X121962514Y-124307652D01*
X122117497Y-124428521D01*
X122305602Y-124485492D01*
X122501605Y-124470926D01*
X122679224Y-124386777D01*
X122814638Y-124244327D01*
X122889863Y-124062272D01*
X122892400Y-123854606D01*
X122821646Y-123670766D01*
X122689752Y-123525050D01*
X122514243Y-123436586D01*
X122482161Y-123433412D01*
X136332137Y-123433412D01*
X136364874Y-123649870D01*
X136440466Y-123855324D01*
X136555827Y-124041382D01*
X136706244Y-124200444D01*
X136885572Y-124326011D01*
X137088316Y-124413746D01*
X137374825Y-124458100D01*
X137468698Y-124458100D01*
X137631799Y-124441533D01*
X137840701Y-124376067D01*
X138032172Y-124269932D01*
X138198391Y-124127465D01*
X138332568Y-123954485D01*
X138429222Y-123758057D01*
X138484405Y-123546208D01*
X138495863Y-123327588D01*
X138463126Y-123111130D01*
X138387534Y-122905676D01*
X138272173Y-122719618D01*
X138121756Y-122560556D01*
X137942428Y-122434989D01*
X137739684Y-122347254D01*
X137453175Y-122302900D01*
X137359302Y-122302900D01*
X137196201Y-122319467D01*
X136987299Y-122384933D01*
X136795828Y-122491068D01*
X136629609Y-122633535D01*
X136495432Y-122806515D01*
X136398778Y-123002943D01*
X136343595Y-123214792D01*
X136332137Y-123433412D01*
X122482161Y-123433412D01*
X122318654Y-123417236D01*
X122129214Y-123469596D01*
X121971323Y-123586641D01*
X121866154Y-123752680D01*
X121827811Y-123945447D01*
X121557788Y-123945447D01*
X121558898Y-123854598D01*
X121488144Y-123670758D01*
X121356250Y-123525042D01*
X121180741Y-123436578D01*
X120985152Y-123417228D01*
X120795712Y-123469588D01*
X120637821Y-123586633D01*
X120532652Y-123752672D01*
X120494309Y-123945439D01*
X119525798Y-123945439D01*
X119526908Y-123854610D01*
X119456154Y-123670770D01*
X119324260Y-123525054D01*
X119148751Y-123436590D01*
X118953162Y-123417240D01*
X118763722Y-123469600D01*
X118605831Y-123586645D01*
X118566240Y-123649151D01*
X118435252Y-123504436D01*
X118259743Y-123415972D01*
X118064154Y-123396622D01*
X117874714Y-123448982D01*
X117716823Y-123566027D01*
X117611654Y-123732066D01*
X117573311Y-123924833D01*
X116731786Y-123924833D01*
X116732896Y-123833992D01*
X116662142Y-123650152D01*
X116530248Y-123504436D01*
X116354739Y-123415972D01*
X116159150Y-123396622D01*
X115969710Y-123448982D01*
X115811819Y-123566027D01*
X115706650Y-123732066D01*
X115668307Y-123924833D01*
X114953421Y-123924833D01*
X114954900Y-123803795D01*
X114884146Y-123619955D01*
X114752252Y-123474239D01*
X114576743Y-123385775D01*
X114381154Y-123366425D01*
X114191714Y-123418785D01*
X114033823Y-123535830D01*
X113928654Y-123701869D01*
X113890311Y-123894636D01*
X103821142Y-123894636D01*
X103828136Y-123887279D01*
X103903361Y-123705224D01*
X103905898Y-123497558D01*
X103835144Y-123313718D01*
X103774703Y-123246943D01*
X112239311Y-123246943D01*
X112272933Y-123440588D01*
X112374014Y-123609148D01*
X112528997Y-123730017D01*
X112717102Y-123786988D01*
X112913105Y-123772422D01*
X113090724Y-123688273D01*
X113226138Y-123545823D01*
X113301363Y-123363768D01*
X113303900Y-123156102D01*
X113233146Y-122972262D01*
X113101252Y-122826546D01*
X112925743Y-122738082D01*
X112730154Y-122718732D01*
X112540714Y-122771092D01*
X112382823Y-122888137D01*
X112277654Y-123054176D01*
X112239311Y-123246943D01*
X103774703Y-123246943D01*
X103703250Y-123168002D01*
X103527741Y-123079538D01*
X103332152Y-123060188D01*
X103142712Y-123112548D01*
X102984821Y-123229593D01*
X102879652Y-123395632D01*
X102841309Y-123588399D01*
X102581164Y-123588399D01*
X102621638Y-123545823D01*
X102696863Y-123363768D01*
X102699400Y-123156102D01*
X102628646Y-122972262D01*
X102496752Y-122826546D01*
X102321243Y-122738082D01*
X102125654Y-122718732D01*
X101936214Y-122771092D01*
X101778323Y-122888137D01*
X101673154Y-123054176D01*
X101634811Y-123246943D01*
X101668433Y-123440588D01*
X101769514Y-123609148D01*
X101842496Y-123666065D01*
X101778323Y-123713637D01*
X101673154Y-123879676D01*
X101634811Y-124072443D01*
X101668433Y-124266088D01*
X101769514Y-124434648D01*
X101811523Y-124467410D01*
X101709236Y-124457291D01*
X101519796Y-124509651D01*
X101361905Y-124626696D01*
X101256736Y-124792735D01*
X101218393Y-124985502D01*
X97787393Y-124985502D01*
X97807363Y-124906604D01*
X98069774Y-124020901D01*
X98367537Y-123146396D01*
X98604408Y-122532631D01*
X103476311Y-122532631D01*
X103509933Y-122726276D01*
X103611014Y-122894836D01*
X103765997Y-123015705D01*
X103954102Y-123072676D01*
X104150105Y-123058110D01*
X104327724Y-122973961D01*
X104463138Y-122831511D01*
X104538363Y-122649456D01*
X104540900Y-122441790D01*
X104470146Y-122257950D01*
X104383801Y-122162556D01*
X104463138Y-122079098D01*
X104538363Y-121897043D01*
X104539327Y-121818067D01*
X114398311Y-121818067D01*
X114431933Y-122011712D01*
X114533014Y-122180272D01*
X114687997Y-122301141D01*
X114876102Y-122358112D01*
X115072105Y-122343546D01*
X115249724Y-122259397D01*
X115385138Y-122116947D01*
X115460363Y-121934892D01*
X115460638Y-121912350D01*
X115638102Y-121966098D01*
X115834105Y-121951532D01*
X116011724Y-121867383D01*
X116147138Y-121724933D01*
X116222363Y-121542878D01*
X116224900Y-121335212D01*
X116154146Y-121151372D01*
X116022252Y-121005656D01*
X115846743Y-120917192D01*
X115709256Y-120903590D01*
X115834105Y-120894312D01*
X116011724Y-120810163D01*
X116049482Y-120770443D01*
X116684311Y-120770443D01*
X116717933Y-120964088D01*
X116819014Y-121132648D01*
X116973997Y-121253517D01*
X117162102Y-121310488D01*
X117358105Y-121295922D01*
X117535724Y-121211773D01*
X117671138Y-121069323D01*
X117746363Y-120887268D01*
X117747790Y-120770459D01*
X119732311Y-120770459D01*
X119765933Y-120964104D01*
X119867014Y-121132664D01*
X120021997Y-121253533D01*
X120210102Y-121310504D01*
X120406105Y-121295938D01*
X120583724Y-121211789D01*
X120718471Y-121070042D01*
X120756014Y-121132648D01*
X120910997Y-121253517D01*
X121099102Y-121310488D01*
X121295105Y-121295922D01*
X121472724Y-121211773D01*
X121608138Y-121069323D01*
X121680824Y-120893412D01*
X136332137Y-120893412D01*
X136364874Y-121109870D01*
X136440466Y-121315324D01*
X136555827Y-121501382D01*
X136706244Y-121660444D01*
X136885572Y-121786011D01*
X137088316Y-121873746D01*
X137374825Y-121918100D01*
X137468698Y-121918100D01*
X137631799Y-121901533D01*
X137840701Y-121836067D01*
X138032172Y-121729932D01*
X138198391Y-121587465D01*
X138332568Y-121414485D01*
X138429222Y-121218057D01*
X138484405Y-121006208D01*
X138495863Y-120787588D01*
X138463126Y-120571130D01*
X138387534Y-120365676D01*
X138272173Y-120179618D01*
X138121756Y-120020556D01*
X137942428Y-119894989D01*
X137739684Y-119807254D01*
X137453175Y-119762900D01*
X137359302Y-119762900D01*
X137196201Y-119779467D01*
X136987299Y-119844933D01*
X136795828Y-119951068D01*
X136629609Y-120093535D01*
X136495432Y-120266515D01*
X136398778Y-120462943D01*
X136343595Y-120674792D01*
X136332137Y-120893412D01*
X121680824Y-120893412D01*
X121683363Y-120887268D01*
X121685900Y-120679602D01*
X121615146Y-120495762D01*
X121483252Y-120350046D01*
X121307743Y-120261582D01*
X121112154Y-120242232D01*
X120922714Y-120294592D01*
X120764823Y-120411637D01*
X120717546Y-120486277D01*
X120594252Y-120350062D01*
X120418743Y-120261598D01*
X120223154Y-120242248D01*
X120033714Y-120294608D01*
X119875823Y-120411653D01*
X119770654Y-120577692D01*
X119732311Y-120770459D01*
X117747790Y-120770459D01*
X117748900Y-120679602D01*
X117678146Y-120495762D01*
X117546252Y-120350046D01*
X117370743Y-120261582D01*
X117175154Y-120242232D01*
X116985714Y-120294592D01*
X116827823Y-120411637D01*
X116722654Y-120577676D01*
X116684311Y-120770443D01*
X116049482Y-120770443D01*
X116147138Y-120667713D01*
X116222363Y-120485658D01*
X116224900Y-120277992D01*
X116154146Y-120094152D01*
X116022252Y-119948436D01*
X115846743Y-119859972D01*
X115651154Y-119840622D01*
X115461714Y-119892982D01*
X115303823Y-120010027D01*
X115198654Y-120176066D01*
X115160311Y-120368833D01*
X115193933Y-120562478D01*
X115236348Y-120633208D01*
X115084743Y-120556793D01*
X114889154Y-120537443D01*
X114699714Y-120589803D01*
X114541823Y-120706848D01*
X114436654Y-120872887D01*
X114398311Y-121065654D01*
X114431933Y-121259299D01*
X114533014Y-121427859D01*
X114557950Y-121447306D01*
X114541823Y-121459261D01*
X114436654Y-121625300D01*
X114398311Y-121818067D01*
X104539327Y-121818067D01*
X104540900Y-121689377D01*
X104470146Y-121505537D01*
X104338252Y-121359821D01*
X104162743Y-121271357D01*
X103967154Y-121252007D01*
X103777714Y-121304367D01*
X103619823Y-121421412D01*
X103514654Y-121587451D01*
X103476311Y-121780218D01*
X103509933Y-121973863D01*
X103611014Y-122142423D01*
X103635950Y-122161870D01*
X103619823Y-122173825D01*
X103514654Y-122339864D01*
X103476311Y-122532631D01*
X98604408Y-122532631D01*
X98700143Y-122284571D01*
X98918429Y-121780218D01*
X99067059Y-121436810D01*
X99245710Y-121065654D01*
X99467705Y-120604452D01*
X99901846Y-119788060D01*
X99921176Y-119754443D01*
X109572311Y-119754443D01*
X109605933Y-119948088D01*
X109707014Y-120116648D01*
X109861997Y-120237517D01*
X110050102Y-120294488D01*
X110246105Y-120279922D01*
X110423724Y-120195773D01*
X110559138Y-120053323D01*
X110634363Y-119871268D01*
X110636900Y-119663602D01*
X110574106Y-119500443D01*
X119732311Y-119500443D01*
X119765933Y-119694088D01*
X119867014Y-119862648D01*
X120021997Y-119983517D01*
X120210102Y-120040488D01*
X120406105Y-120025922D01*
X120583724Y-119941773D01*
X120718465Y-119800032D01*
X120756014Y-119862648D01*
X120910997Y-119983517D01*
X121099102Y-120040488D01*
X121295105Y-120025922D01*
X121472724Y-119941773D01*
X121607465Y-119800032D01*
X121645014Y-119862648D01*
X121799997Y-119983517D01*
X121988102Y-120040488D01*
X122184105Y-120025922D01*
X122361724Y-119941773D01*
X122496465Y-119800032D01*
X122534014Y-119862648D01*
X122688997Y-119983517D01*
X122877102Y-120040488D01*
X123073105Y-120025922D01*
X123250724Y-119941773D01*
X123385465Y-119800032D01*
X123423014Y-119862648D01*
X123577997Y-119983517D01*
X123766102Y-120040488D01*
X123962105Y-120025922D01*
X124139724Y-119941773D01*
X124275138Y-119799323D01*
X124350363Y-119617268D01*
X124352900Y-119409602D01*
X124282146Y-119225762D01*
X124150252Y-119080046D01*
X123974743Y-118991582D01*
X123779154Y-118972232D01*
X123589714Y-119024592D01*
X123431823Y-119141637D01*
X123384552Y-119216267D01*
X123261252Y-119080046D01*
X123085743Y-118991582D01*
X122890154Y-118972232D01*
X122700714Y-119024592D01*
X122542823Y-119141637D01*
X122495552Y-119216267D01*
X122372252Y-119080046D01*
X122196743Y-118991582D01*
X122001154Y-118972232D01*
X121811714Y-119024592D01*
X121653823Y-119141637D01*
X121606552Y-119216267D01*
X121483252Y-119080046D01*
X121307743Y-118991582D01*
X121112154Y-118972232D01*
X120922714Y-119024592D01*
X120764823Y-119141637D01*
X120717552Y-119216267D01*
X120594252Y-119080046D01*
X120418743Y-118991582D01*
X120223154Y-118972232D01*
X120033714Y-119024592D01*
X119875823Y-119141637D01*
X119770654Y-119307676D01*
X119732311Y-119500443D01*
X110574106Y-119500443D01*
X110566146Y-119479762D01*
X110434252Y-119334046D01*
X110258743Y-119245582D01*
X110063154Y-119226232D01*
X109873714Y-119278592D01*
X109715823Y-119395637D01*
X109610654Y-119561676D01*
X109572311Y-119754443D01*
X99921176Y-119754443D01*
X100206901Y-119257555D01*
X100219933Y-119208581D01*
X100227601Y-119179961D01*
X100227601Y-119179762D01*
X100235630Y-119149589D01*
X100227601Y-119119835D01*
X100227601Y-118738443D01*
X117446307Y-118738443D01*
X117479929Y-118932088D01*
X117581010Y-119100648D01*
X117735993Y-119221517D01*
X117924098Y-119278488D01*
X118120101Y-119263922D01*
X118297720Y-119179773D01*
X118433134Y-119037323D01*
X118508359Y-118855268D01*
X118510896Y-118647602D01*
X118440142Y-118463762D01*
X118308248Y-118318046D01*
X118260429Y-118293943D01*
X125066312Y-118293943D01*
X125099934Y-118487588D01*
X125201015Y-118656148D01*
X125355998Y-118777017D01*
X125544103Y-118833988D01*
X125740106Y-118819422D01*
X125917725Y-118735273D01*
X126053139Y-118592823D01*
X126128364Y-118410768D01*
X126129064Y-118353412D01*
X136332137Y-118353412D01*
X136364874Y-118569870D01*
X136440466Y-118775324D01*
X136555827Y-118961382D01*
X136706244Y-119120444D01*
X136885572Y-119246011D01*
X137088316Y-119333746D01*
X137374825Y-119378100D01*
X137468698Y-119378100D01*
X137631799Y-119361533D01*
X137840701Y-119296067D01*
X138032172Y-119189932D01*
X138198391Y-119047465D01*
X138332568Y-118874485D01*
X138429222Y-118678057D01*
X138484405Y-118466208D01*
X138495863Y-118247588D01*
X138463126Y-118031130D01*
X138387534Y-117825676D01*
X138272173Y-117639618D01*
X138121756Y-117480556D01*
X137942428Y-117354989D01*
X137739684Y-117267254D01*
X137453175Y-117222900D01*
X137359302Y-117222900D01*
X137196201Y-117239467D01*
X136987299Y-117304933D01*
X136795828Y-117411068D01*
X136629609Y-117553535D01*
X136495432Y-117726515D01*
X136398778Y-117922943D01*
X136343595Y-118134792D01*
X136332137Y-118353412D01*
X126129064Y-118353412D01*
X126130901Y-118203102D01*
X126060147Y-118019262D01*
X125928253Y-117873546D01*
X125752744Y-117785082D01*
X125557155Y-117765732D01*
X125367715Y-117818092D01*
X125209824Y-117935137D01*
X125104655Y-118101176D01*
X125066312Y-118293943D01*
X118260429Y-118293943D01*
X118132739Y-118229582D01*
X117937150Y-118210232D01*
X117747710Y-118262592D01*
X117589819Y-118379637D01*
X117484650Y-118545676D01*
X117446307Y-118738443D01*
X100227601Y-118738443D01*
X100227601Y-117931200D01*
X105851437Y-117931200D01*
X105850780Y-117722443D01*
X123288311Y-117722443D01*
X123321933Y-117916088D01*
X123423014Y-118084648D01*
X123577997Y-118205517D01*
X123766102Y-118262488D01*
X123962105Y-118247922D01*
X124139724Y-118163773D01*
X124275138Y-118021323D01*
X124350363Y-117839268D01*
X124352900Y-117631602D01*
X124282146Y-117447762D01*
X124150252Y-117302046D01*
X123974743Y-117213582D01*
X123779154Y-117194232D01*
X123589714Y-117246592D01*
X123431823Y-117363637D01*
X123326654Y-117529676D01*
X123288311Y-117722443D01*
X105850780Y-117722443D01*
X105848010Y-116843275D01*
X115734701Y-116843275D01*
X115768323Y-117036920D01*
X115869404Y-117205480D01*
X116024387Y-117326349D01*
X116212492Y-117383320D01*
X116408495Y-117368754D01*
X116586114Y-117284605D01*
X116721528Y-117142155D01*
X116796753Y-116960100D01*
X116799290Y-116752434D01*
X116728536Y-116568594D01*
X116623403Y-116452443D01*
X118843311Y-116452443D01*
X118876933Y-116646088D01*
X118978014Y-116814648D01*
X119132997Y-116935517D01*
X119321102Y-116992488D01*
X119517105Y-116977922D01*
X119694724Y-116893773D01*
X119829465Y-116752032D01*
X119867014Y-116814648D01*
X120021997Y-116935517D01*
X120210102Y-116992488D01*
X120406105Y-116977922D01*
X120583724Y-116893773D01*
X120705827Y-116765326D01*
X120735404Y-116814648D01*
X120890387Y-116935517D01*
X121078492Y-116992488D01*
X121274495Y-116977922D01*
X121452114Y-116893773D01*
X121587528Y-116751323D01*
X121662753Y-116569268D01*
X121663404Y-116515943D01*
X131543309Y-116515943D01*
X131576931Y-116709588D01*
X131678012Y-116878148D01*
X131750989Y-116935062D01*
X131686823Y-116982629D01*
X131581654Y-117148668D01*
X131543311Y-117341435D01*
X131576933Y-117535080D01*
X131678014Y-117703640D01*
X131832997Y-117824509D01*
X132021102Y-117881480D01*
X132217105Y-117866914D01*
X132394724Y-117782765D01*
X132530138Y-117640315D01*
X132605363Y-117458260D01*
X132607900Y-117250594D01*
X132537146Y-117066754D01*
X132416916Y-116933925D01*
X132530136Y-116814823D01*
X132605361Y-116632768D01*
X132607898Y-116425102D01*
X132537144Y-116241262D01*
X132416913Y-116108431D01*
X132530138Y-115989323D01*
X132602824Y-115813412D01*
X136332137Y-115813412D01*
X136364874Y-116029870D01*
X136440466Y-116235324D01*
X136555827Y-116421382D01*
X136706244Y-116580444D01*
X136885572Y-116706011D01*
X137088316Y-116793746D01*
X137374825Y-116838100D01*
X137468698Y-116838100D01*
X137631799Y-116821533D01*
X137840701Y-116756067D01*
X138032172Y-116649932D01*
X138198391Y-116507465D01*
X138332568Y-116334485D01*
X138429222Y-116138057D01*
X138484405Y-115926208D01*
X138495863Y-115707588D01*
X138463126Y-115491130D01*
X138387534Y-115285676D01*
X138272173Y-115099618D01*
X138121756Y-114940556D01*
X137942428Y-114814989D01*
X137739684Y-114727254D01*
X137453175Y-114682900D01*
X137359302Y-114682900D01*
X137196201Y-114699467D01*
X136987299Y-114764933D01*
X136795828Y-114871068D01*
X136629609Y-115013535D01*
X136495432Y-115186515D01*
X136398778Y-115382943D01*
X136343595Y-115594792D01*
X136332137Y-115813412D01*
X132602824Y-115813412D01*
X132605363Y-115807268D01*
X132607900Y-115599602D01*
X132537146Y-115415762D01*
X132405252Y-115270046D01*
X132229743Y-115181582D01*
X132034154Y-115162232D01*
X131844714Y-115214592D01*
X131686823Y-115331637D01*
X131581654Y-115497676D01*
X131543311Y-115690443D01*
X131576933Y-115884088D01*
X131678014Y-116052648D01*
X131750995Y-116109565D01*
X131686821Y-116157137D01*
X131581652Y-116323176D01*
X131543309Y-116515943D01*
X121663404Y-116515943D01*
X121665290Y-116361602D01*
X121594536Y-116177762D01*
X121462642Y-116032046D01*
X121287133Y-115943582D01*
X121091544Y-115924232D01*
X120902104Y-115976592D01*
X120744213Y-116093637D01*
X120705427Y-116154872D01*
X120594252Y-116032046D01*
X120418743Y-115943582D01*
X120223154Y-115924232D01*
X120033714Y-115976592D01*
X119875823Y-116093637D01*
X119828552Y-116168267D01*
X119705252Y-116032046D01*
X119529743Y-115943582D01*
X119334154Y-115924232D01*
X119144714Y-115976592D01*
X118986823Y-116093637D01*
X118881654Y-116259676D01*
X118843311Y-116452443D01*
X116623403Y-116452443D01*
X116596642Y-116422878D01*
X116421133Y-116334414D01*
X116225544Y-116315064D01*
X116036104Y-116367424D01*
X115878213Y-116484469D01*
X115773044Y-116650508D01*
X115734701Y-116843275D01*
X105848010Y-116843275D01*
X105843579Y-115436443D01*
X125066307Y-115436443D01*
X125099929Y-115630088D01*
X125201010Y-115798648D01*
X125355993Y-115919517D01*
X125544098Y-115976488D01*
X125740101Y-115961922D01*
X125917720Y-115877773D01*
X126053134Y-115735323D01*
X126128359Y-115553268D01*
X126130896Y-115345602D01*
X126060142Y-115161762D01*
X125928248Y-115016046D01*
X125752739Y-114927582D01*
X125557150Y-114908232D01*
X125367710Y-114960592D01*
X125209819Y-115077637D01*
X125104650Y-115243676D01*
X125066307Y-115436443D01*
X105843579Y-115436443D01*
X105835522Y-112879154D01*
X112366454Y-112879154D01*
X112400076Y-113072799D01*
X112501157Y-113241359D01*
X112656140Y-113362228D01*
X112844245Y-113419199D01*
X113040248Y-113404633D01*
X113217867Y-113320484D01*
X113353281Y-113178034D01*
X113428506Y-112995979D01*
X113431043Y-112788313D01*
X113360289Y-112604473D01*
X113228395Y-112458757D01*
X113052886Y-112370293D01*
X112857297Y-112350943D01*
X112667857Y-112403303D01*
X112509966Y-112520348D01*
X112404797Y-112686387D01*
X112366454Y-112879154D01*
X105835522Y-112879154D01*
X105832376Y-111880443D01*
X113890309Y-111880443D01*
X113923931Y-112074088D01*
X114025012Y-112242648D01*
X114179995Y-112363517D01*
X114368100Y-112420488D01*
X114564103Y-112405922D01*
X114654502Y-112363094D01*
X136333414Y-112363094D01*
X136333414Y-114077906D01*
X136349605Y-114159306D01*
X136399910Y-114234590D01*
X136475194Y-114284895D01*
X136556594Y-114301086D01*
X138271406Y-114301086D01*
X138352806Y-114284895D01*
X138428090Y-114234590D01*
X138478395Y-114159306D01*
X138494586Y-114077906D01*
X138494586Y-112363094D01*
X138478395Y-112281694D01*
X138428090Y-112206410D01*
X138352806Y-112156105D01*
X138271406Y-112139914D01*
X136556594Y-112139914D01*
X136475194Y-112156105D01*
X136399910Y-112206410D01*
X136349605Y-112281694D01*
X136333414Y-112363094D01*
X114654502Y-112363094D01*
X114741722Y-112321773D01*
X114877136Y-112179323D01*
X114952361Y-111997268D01*
X114954898Y-111789602D01*
X114884144Y-111605762D01*
X114752250Y-111460046D01*
X114576741Y-111371582D01*
X114381152Y-111352232D01*
X114191712Y-111404592D01*
X114033821Y-111521637D01*
X113928652Y-111687676D01*
X113890309Y-111880443D01*
X105832376Y-111880443D01*
X105829375Y-110927943D01*
X122589811Y-110927943D01*
X122623433Y-111121588D01*
X122724514Y-111290148D01*
X122879497Y-111411017D01*
X123067602Y-111467988D01*
X123263605Y-111453422D01*
X123441224Y-111369273D01*
X123576638Y-111226823D01*
X123651863Y-111044768D01*
X123654400Y-110837102D01*
X123583646Y-110653262D01*
X123451752Y-110507546D01*
X123276243Y-110419082D01*
X123080654Y-110399732D01*
X122891214Y-110452092D01*
X122733323Y-110569137D01*
X122628154Y-110735176D01*
X122589811Y-110927943D01*
X105829375Y-110927943D01*
X105826575Y-110038943D01*
X127288811Y-110038943D01*
X127322433Y-110232588D01*
X127423514Y-110401148D01*
X127578497Y-110522017D01*
X127766602Y-110578988D01*
X127962605Y-110564422D01*
X128140224Y-110480273D01*
X128275638Y-110337823D01*
X128350863Y-110155768D01*
X128353400Y-109948102D01*
X128282646Y-109764262D01*
X128150752Y-109618546D01*
X127975243Y-109530082D01*
X127779654Y-109510732D01*
X127590214Y-109563092D01*
X127432323Y-109680137D01*
X127327154Y-109846176D01*
X127288811Y-110038943D01*
X105826575Y-110038943D01*
X105823595Y-109093443D01*
X107963311Y-109093443D01*
X107996933Y-109287088D01*
X108098014Y-109455648D01*
X108252997Y-109576517D01*
X108441102Y-109633488D01*
X108637105Y-109618922D01*
X108814724Y-109534773D01*
X108950138Y-109392323D01*
X109025363Y-109210268D01*
X109027900Y-109002602D01*
X108957146Y-108818762D01*
X108825252Y-108673046D01*
X108664312Y-108591925D01*
X116926272Y-108591925D01*
X116959894Y-108785570D01*
X117060975Y-108954130D01*
X117091914Y-108978259D01*
X117082243Y-108985428D01*
X116977074Y-109151467D01*
X116938731Y-109344234D01*
X116972353Y-109537879D01*
X117073434Y-109706439D01*
X117228417Y-109827308D01*
X117416522Y-109884279D01*
X117612525Y-109869713D01*
X117790144Y-109785564D01*
X117925558Y-109643114D01*
X118000783Y-109461059D01*
X118003320Y-109253393D01*
X117987945Y-109213443D01*
X119986311Y-109213443D01*
X120019933Y-109407088D01*
X120121014Y-109575648D01*
X120275997Y-109696517D01*
X120464102Y-109753488D01*
X120660105Y-109738922D01*
X120837724Y-109654773D01*
X120973138Y-109512323D01*
X121048363Y-109330268D01*
X121050900Y-109122602D01*
X120980146Y-108938762D01*
X120941386Y-108895939D01*
X127288811Y-108895939D01*
X127322433Y-109089584D01*
X127423514Y-109258144D01*
X127578497Y-109379013D01*
X127766602Y-109435984D01*
X127962605Y-109421418D01*
X128140224Y-109337269D01*
X128275638Y-109194819D01*
X128350863Y-109012764D01*
X128353400Y-108805098D01*
X128282646Y-108621258D01*
X128150752Y-108475542D01*
X127975243Y-108387078D01*
X127779654Y-108367728D01*
X127590214Y-108420088D01*
X127432323Y-108537133D01*
X127327154Y-108703172D01*
X127288811Y-108895939D01*
X120941386Y-108895939D01*
X120848252Y-108793046D01*
X120672743Y-108704582D01*
X120477154Y-108685232D01*
X120287714Y-108737592D01*
X120129823Y-108854637D01*
X120024654Y-109020676D01*
X119986311Y-109213443D01*
X117987945Y-109213443D01*
X117932566Y-109069553D01*
X117840193Y-108967499D01*
X117913099Y-108890805D01*
X117988324Y-108708750D01*
X117990861Y-108501084D01*
X117920107Y-108317244D01*
X117814549Y-108200624D01*
X117925146Y-108084282D01*
X118000371Y-107902227D01*
X118002723Y-107709675D01*
X127288811Y-107709675D01*
X127322433Y-107903320D01*
X127423514Y-108071880D01*
X127578497Y-108192749D01*
X127766602Y-108249720D01*
X127962605Y-108235154D01*
X128140224Y-108151005D01*
X128275638Y-108008555D01*
X128350863Y-107826500D01*
X128353400Y-107618834D01*
X128282646Y-107434994D01*
X128150752Y-107289278D01*
X127975243Y-107200814D01*
X127779654Y-107181464D01*
X127590214Y-107233824D01*
X127432323Y-107350869D01*
X127327154Y-107516908D01*
X127288811Y-107709675D01*
X118002723Y-107709675D01*
X118002908Y-107694561D01*
X117932154Y-107510721D01*
X117800260Y-107365005D01*
X117624751Y-107276541D01*
X117429162Y-107257191D01*
X117239722Y-107309551D01*
X117081831Y-107426596D01*
X116976662Y-107592635D01*
X116938319Y-107785402D01*
X116971941Y-107979047D01*
X117073022Y-108147607D01*
X117127658Y-108190217D01*
X117069784Y-108233119D01*
X116964615Y-108399158D01*
X116926272Y-108591925D01*
X108664312Y-108591925D01*
X108649743Y-108584582D01*
X108454154Y-108565232D01*
X108264714Y-108617592D01*
X108106823Y-108734637D01*
X108001654Y-108900676D01*
X107963311Y-109093443D01*
X105823595Y-109093443D01*
X105818067Y-107338455D01*
X112463311Y-107338455D01*
X112496933Y-107532100D01*
X112598014Y-107700660D01*
X112752997Y-107821529D01*
X112941102Y-107878500D01*
X113137105Y-107863934D01*
X113314724Y-107779785D01*
X113450138Y-107637335D01*
X113525363Y-107455280D01*
X113527900Y-107247614D01*
X113457146Y-107063774D01*
X113325252Y-106918058D01*
X113149743Y-106829594D01*
X112954154Y-106810244D01*
X112764714Y-106862604D01*
X112606823Y-106979649D01*
X112501654Y-107145688D01*
X112463311Y-107338455D01*
X105818067Y-107338455D01*
X105816028Y-106691304D01*
X111463311Y-106691304D01*
X111496933Y-106884949D01*
X111598014Y-107053509D01*
X111752997Y-107174378D01*
X111941102Y-107231349D01*
X112137105Y-107216783D01*
X112314724Y-107132634D01*
X112450138Y-106990184D01*
X112525363Y-106808129D01*
X112527097Y-106666122D01*
X114455984Y-106666122D01*
X114489606Y-106859767D01*
X114590687Y-107028327D01*
X114745670Y-107149196D01*
X114933775Y-107206167D01*
X115129778Y-107191601D01*
X115307397Y-107107452D01*
X115442811Y-106965002D01*
X115518036Y-106782947D01*
X115520573Y-106575281D01*
X115449819Y-106391441D01*
X115317925Y-106245725D01*
X115142416Y-106157261D01*
X114946827Y-106137911D01*
X114757387Y-106190271D01*
X114599496Y-106307316D01*
X114494327Y-106473355D01*
X114455984Y-106666122D01*
X112527097Y-106666122D01*
X112527900Y-106600463D01*
X112457146Y-106416623D01*
X112325252Y-106270907D01*
X112149743Y-106182443D01*
X111954154Y-106163093D01*
X111764714Y-106215453D01*
X111606823Y-106332498D01*
X111501654Y-106498537D01*
X111463311Y-106691304D01*
X105816028Y-106691304D01*
X105813964Y-106036437D01*
X110463311Y-106036437D01*
X110496933Y-106230082D01*
X110598014Y-106398642D01*
X110752997Y-106519511D01*
X110941102Y-106576482D01*
X111137105Y-106561916D01*
X111314724Y-106477767D01*
X111450138Y-106335317D01*
X111525363Y-106153262D01*
X111527541Y-105974943D01*
X123923309Y-105974943D01*
X123956931Y-106168588D01*
X124058012Y-106337148D01*
X124212995Y-106458017D01*
X124401100Y-106514988D01*
X124597103Y-106500422D01*
X124774722Y-106416273D01*
X124910136Y-106273823D01*
X124985361Y-106091768D01*
X124987898Y-105884102D01*
X124917144Y-105700262D01*
X124785250Y-105554546D01*
X124609741Y-105466082D01*
X124414152Y-105446732D01*
X124224712Y-105499092D01*
X124066821Y-105616137D01*
X123961652Y-105782176D01*
X123923309Y-105974943D01*
X111527541Y-105974943D01*
X111527900Y-105945596D01*
X111457146Y-105761756D01*
X111325252Y-105616040D01*
X111149743Y-105527576D01*
X110954154Y-105508226D01*
X110764714Y-105560586D01*
X110606823Y-105677631D01*
X110501654Y-105843670D01*
X110463311Y-106036437D01*
X105813964Y-106036437D01*
X105805568Y-103371443D01*
X118208311Y-103371443D01*
X118241933Y-103565088D01*
X118343014Y-103733648D01*
X118497997Y-103854517D01*
X118686102Y-103911488D01*
X118882105Y-103896922D01*
X119059724Y-103812773D01*
X119195138Y-103670323D01*
X119270363Y-103488268D01*
X119271014Y-103434943D01*
X126653811Y-103434943D01*
X126687433Y-103628588D01*
X126788514Y-103797148D01*
X126943497Y-103918017D01*
X127131602Y-103974988D01*
X127327605Y-103960422D01*
X127505224Y-103876273D01*
X127640638Y-103733823D01*
X127715863Y-103551768D01*
X127718400Y-103344102D01*
X127680045Y-103244443D01*
X130590811Y-103244443D01*
X130624433Y-103438088D01*
X130725514Y-103606648D01*
X130880497Y-103727517D01*
X131068602Y-103784488D01*
X131264605Y-103769922D01*
X131442224Y-103685773D01*
X131538027Y-103584992D01*
X131551014Y-103606648D01*
X131705997Y-103727517D01*
X131894102Y-103784488D01*
X132090105Y-103769922D01*
X132267724Y-103685773D01*
X132403138Y-103543323D01*
X132478363Y-103361268D01*
X132480900Y-103153602D01*
X132410146Y-102969762D01*
X132278252Y-102824046D01*
X132102743Y-102735582D01*
X131907154Y-102716232D01*
X131717714Y-102768592D01*
X131559823Y-102885637D01*
X131538694Y-102918995D01*
X131452752Y-102824046D01*
X131277243Y-102735582D01*
X131081654Y-102716232D01*
X130892214Y-102768592D01*
X130734323Y-102885637D01*
X130629154Y-103051676D01*
X130590811Y-103244443D01*
X127680045Y-103244443D01*
X127647646Y-103160262D01*
X127515752Y-103014546D01*
X127340243Y-102926082D01*
X127144654Y-102906732D01*
X126955214Y-102959092D01*
X126797323Y-103076137D01*
X126692154Y-103242176D01*
X126653811Y-103434943D01*
X119271014Y-103434943D01*
X119272900Y-103280602D01*
X119202146Y-103096762D01*
X119070252Y-102951046D01*
X118894743Y-102862582D01*
X118699154Y-102843232D01*
X118509714Y-102895592D01*
X118351823Y-103012637D01*
X118246654Y-103178676D01*
X118208311Y-103371443D01*
X105805568Y-103371443D01*
X105799259Y-101368989D01*
X107595401Y-101368989D01*
X107595401Y-101577011D01*
X107638651Y-101780487D01*
X107723261Y-101970525D01*
X107845534Y-102138819D01*
X108000124Y-102278012D01*
X108180277Y-102382024D01*
X108378118Y-102446306D01*
X108585000Y-102468050D01*
X108791882Y-102446306D01*
X108989723Y-102382024D01*
X109169876Y-102278012D01*
X109324466Y-102138819D01*
X109446739Y-101970525D01*
X109531349Y-101780487D01*
X109574599Y-101577011D01*
X109574599Y-101368989D01*
X130455401Y-101368989D01*
X130455401Y-101577011D01*
X130498651Y-101780487D01*
X130583261Y-101970525D01*
X130705534Y-102138819D01*
X130860124Y-102278012D01*
X131040277Y-102382024D01*
X131238118Y-102446306D01*
X131445000Y-102468050D01*
X131651882Y-102446306D01*
X131849723Y-102382024D01*
X132029876Y-102278012D01*
X132184466Y-102138819D01*
X132306739Y-101970525D01*
X132391349Y-101780487D01*
X132434599Y-101577011D01*
X132434599Y-101368989D01*
X132391349Y-101165513D01*
X132306739Y-100975475D01*
X132184466Y-100807181D01*
X132029876Y-100667988D01*
X131849723Y-100563976D01*
X131651882Y-100499694D01*
X131445000Y-100477950D01*
X131238118Y-100499694D01*
X131040277Y-100563976D01*
X130860124Y-100667988D01*
X130705534Y-100807181D01*
X130583261Y-100975475D01*
X130498651Y-101165513D01*
X130455401Y-101368989D01*
X109574599Y-101368989D01*
X109531349Y-101165513D01*
X109446739Y-100975475D01*
X109324466Y-100807181D01*
X109169876Y-100667988D01*
X108989723Y-100563976D01*
X108791882Y-100499694D01*
X108585000Y-100477950D01*
X108378118Y-100499694D01*
X108180277Y-100563976D01*
X108000124Y-100667988D01*
X107845534Y-100807181D01*
X107723261Y-100975475D01*
X107638651Y-101165513D01*
X107595401Y-101368989D01*
X105799259Y-101368989D01*
X105795663Y-100227571D01*
X139772401Y-100227400D01*
X139772399Y-119119017D01*
X139764379Y-119147930D01*
X139772399Y-119178949D01*
X139772399Y-119179961D01*
X139779870Y-119207845D01*
X139792346Y-119256095D01*
X140254373Y-120072834D01*
X140676572Y-120894459D01*
X141065476Y-121732406D01*
X141420430Y-122585266D01*
X141740871Y-123451682D01*
X142026284Y-124330264D01*
X142276207Y-125219585D01*
X142490241Y-126118237D01*
X142668038Y-127024743D01*
X142809307Y-127937627D01*
X142913833Y-128855505D01*
X142979928Y-129756250D01*
X142952984Y-132648882D01*
X142881377Y-133466818D01*
X142763943Y-134383121D01*
X142609835Y-135293944D01*
X142419298Y-136197854D01*
X142192639Y-137093389D01*
X141930223Y-137979106D01*
X141632460Y-138853612D01*
X141299857Y-139715429D01*
X140932946Y-140563178D01*
X140532295Y-141395548D01*
X140098166Y-142211917D01*
X139802747Y-142725668D01*
X139795463Y-142733006D01*
X139780062Y-142791439D01*
X139764370Y-142850411D01*
X139772524Y-142880629D01*
X139800771Y-149780941D01*
X139798629Y-149837088D01*
X139815380Y-149868839D01*
X139824812Y-149903469D01*
X139843353Y-149921859D01*
X139850761Y-149935900D01*
X140291291Y-150411363D01*
X140691187Y-150899661D01*
X141060545Y-151411488D01*
X141397967Y-151944908D01*
X141702177Y-152497899D01*
X141972079Y-153068470D01*
X142206625Y-153654407D01*
X142404976Y-154253604D01*
X142566375Y-154863785D01*
X142690225Y-155482693D01*
X142737112Y-155824270D01*
X142709626Y-158775091D01*
X142628824Y-159248596D01*
X142484868Y-159863125D01*
X142303668Y-160467705D01*
X142085882Y-161060139D01*
X141832364Y-161638106D01*
X141544006Y-162199574D01*
X141221912Y-162742388D01*
X140867307Y-163264485D01*
X140481459Y-163764002D01*
X140065860Y-164239004D01*
X139622026Y-164687760D01*
X139151618Y-165108589D01*
X138656412Y-165499903D01*
X138138206Y-165860278D01*
X137599027Y-166188311D01*
X137040786Y-166482837D01*
X136465604Y-166742736D01*
X135875655Y-166967024D01*
X135273067Y-167154894D01*
X134660187Y-167305612D01*
X134039221Y-167418640D01*
X133412500Y-167493548D01*
X132780430Y-167530171D01*
X132486917Y-167534181D01*
X132468453Y-167539400D01*
X129615133Y-167539400D01*
X129576856Y-167102164D01*
X129576942Y-167101387D01*
X129576583Y-167099040D01*
X129576375Y-167096667D01*
X129576107Y-167095930D01*
X129482820Y-166486540D01*
X129482856Y-166485756D01*
X129482344Y-166483429D01*
X129481986Y-166481089D01*
X129481673Y-166480375D01*
X129372197Y-165982581D01*
X131590675Y-165982581D01*
X131827485Y-166150872D01*
X132041915Y-166251776D01*
X132270825Y-166313113D01*
X132506979Y-166332943D01*
X132742913Y-166310641D01*
X132971168Y-166246910D01*
X133184531Y-166143767D01*
X133408086Y-165981342D01*
X132500000Y-165073256D01*
X131590675Y-165982581D01*
X129372197Y-165982581D01*
X129349254Y-165878260D01*
X129349239Y-165877480D01*
M02*
