G04 #@! TF.GenerationSoftware,KiCad,Pcbnew,(5.1.0-1348-g4ca769472)*
G04 #@! TF.CreationDate,2021-05-22T02:12:43-07:00*
G04 #@! TF.ProjectId,loggerhw_v4.2,6c6f6767-6572-4687-975f-76342e322e6b,rev?*
G04 #@! TF.SameCoordinates,Original*
G04 #@! TF.FileFunction,Copper,L2,Inr*
G04 #@! TF.FilePolarity,Positive*
%FSLAX46Y46*%
G04 Gerber Fmt 4.6, Leading zero omitted, Abs format (unit mm)*
G04 Created by KiCad (PCBNEW (5.1.0-1348-g4ca769472)) date 2021-05-22 02:12:43*
%MOMM*%
%LPD*%
G04 APERTURE LIST*
%ADD10C,1.524000*%
%ADD11R,0.500000X0.900000*%
%ADD12C,0.600000*%
%ADD13C,0.152400*%
G04 APERTURE END LIST*
D10*
X131445000Y-101473000D03*
X108585000Y-101473000D03*
D11*
X106000000Y-115600000D03*
D12*
X126682500Y-133159500D03*
X126682496Y-134175500D03*
X126682501Y-135064501D03*
X126619000Y-136525000D03*
X126619000Y-137414000D03*
X126619000Y-139065010D03*
X130746500Y-135255000D03*
X122364500Y-123867890D03*
X123189996Y-124983822D03*
X128168409Y-131064000D03*
X112776000Y-123253500D03*
X115697000Y-121432610D03*
X114935000Y-121072211D03*
X114935000Y-121824624D03*
X115697000Y-120375390D03*
X110744000Y-130048000D03*
X108029977Y-133209817D03*
X103314500Y-124956979D03*
X102233032Y-124247216D03*
X104013000Y-121786775D03*
X104013000Y-122539188D03*
X103902987Y-126005400D03*
X102234996Y-123190000D03*
X103377998Y-123594956D03*
X118110000Y-123931390D03*
X113792000Y-126889383D03*
X114427000Y-123901193D03*
X111723125Y-125540908D03*
X111633000Y-127406409D03*
X116204996Y-123931390D03*
X113802396Y-125832172D03*
X117475420Y-109350791D03*
X117462961Y-108598482D03*
X121137390Y-116459000D03*
X111851221Y-119725221D03*
X132450000Y-133008800D03*
X133096006Y-132334000D03*
X133096000Y-131470400D03*
X131191000Y-102920800D03*
X122682000Y-146939000D03*
X125628400Y-157734000D03*
X128295400Y-155473400D03*
X125628400Y-155448000D03*
X122682000Y-155448000D03*
X122682000Y-157734000D03*
X120015000Y-157734000D03*
X120015000Y-155448000D03*
X130784599Y-154787600D03*
X114554000Y-152654000D03*
X112014000Y-155448000D03*
X109220000Y-155448000D03*
X107188000Y-155448000D03*
X103632000Y-152654000D03*
X103632000Y-150114000D03*
X105740200Y-148463000D03*
X107086400Y-148463000D03*
X108458000Y-149834600D03*
X108280200Y-151206200D03*
X118515000Y-150699600D03*
X111937800Y-150571200D03*
X116332000Y-146507200D03*
X118516400Y-147015202D03*
X119515000Y-151426800D03*
X120523000Y-151434800D03*
X111480600Y-148920200D03*
X114122200Y-146583400D03*
X117348000Y-155448000D03*
X117348000Y-157734000D03*
X114554000Y-157734000D03*
X126111000Y-148590000D03*
X121158000Y-141732000D03*
X116332000Y-138811000D03*
X104140000Y-145923000D03*
X112871000Y-157049000D03*
X100800000Y-130600000D03*
X121158000Y-134900000D03*
X126746000Y-119507000D03*
X125500004Y-143400000D03*
X106200000Y-117100000D03*
X106100000Y-114400000D03*
X107100000Y-115600000D03*
X106250000Y-112500000D03*
X106250000Y-109500000D03*
X106250000Y-111000000D03*
X106250000Y-108000000D03*
X106250000Y-106500000D03*
X106250000Y-105000000D03*
X106250000Y-103500000D03*
X106250000Y-102000000D03*
X106250000Y-100750000D03*
X116271390Y-116849832D03*
X126611784Y-143105784D03*
X108458000Y-111998000D03*
X100838000Y-144256000D03*
X125222000Y-109204000D03*
X114420000Y-112871390D03*
X108500000Y-109100000D03*
X103903416Y-127586210D03*
X112903143Y-112885711D03*
X104500000Y-139900000D03*
X121158000Y-144589500D03*
X131064000Y-124968000D03*
X109093000Y-119761000D03*
X120269000Y-119507000D03*
X120269000Y-120777016D03*
X130486010Y-142945000D03*
X129286000Y-131064000D03*
X131064000Y-119507000D03*
X129625357Y-133010643D03*
X123190000Y-126238000D03*
X110363000Y-137668000D03*
X109347000Y-140081000D03*
X108712000Y-138176000D03*
X104463998Y-142945000D03*
X104475008Y-141675000D03*
X101600000Y-132080000D03*
X112871000Y-160986000D03*
X109061000Y-160986000D03*
X115824000Y-135509000D03*
X115443000Y-138811000D03*
X104140000Y-144780000D03*
X109363438Y-140999998D03*
X115824000Y-132842000D03*
X115824000Y-133731000D03*
X120523000Y-132842000D03*
X130556020Y-132968994D03*
X124714000Y-137287000D03*
X124714000Y-136397994D03*
X124713999Y-133858001D03*
X108712000Y-142299992D03*
X132842000Y-150876000D03*
X132842000Y-155473400D03*
X126111000Y-150876000D03*
X109061000Y-157049000D03*
X115800000Y-134620000D03*
X111632994Y-128270000D03*
X114426998Y-111887000D03*
X119761000Y-106807000D03*
X120523000Y-109220000D03*
X124999988Y-106100012D03*
X114992673Y-106672679D03*
X117475008Y-107791959D03*
X117475000Y-106968987D03*
X120268996Y-124841000D03*
X120269000Y-123952024D03*
X124073500Y-124973500D03*
X121158000Y-119507000D03*
X121158000Y-120777000D03*
X122047000Y-119507000D03*
X122936000Y-119507000D03*
X124967994Y-124968000D03*
X123063000Y-108331000D03*
X117221000Y-120777000D03*
X111000000Y-106042994D03*
X112000000Y-106697861D03*
X113000000Y-107345012D03*
X100838000Y-147320000D03*
X103632000Y-147320000D03*
X106426000Y-147320000D03*
X114554000Y-155448000D03*
X121158000Y-139192000D03*
X116840000Y-141732000D03*
X118110000Y-131191000D03*
X119126000Y-134874000D03*
X115824000Y-136398000D03*
X119126000Y-139192000D03*
X121158000Y-136398000D03*
X126746000Y-122428000D03*
X131064000Y-122428000D03*
X107442000Y-102870000D03*
X107442000Y-104140000D03*
X107442000Y-105664000D03*
X107442000Y-107188000D03*
X107442000Y-108712000D03*
X107442000Y-110236000D03*
X107442000Y-111760000D03*
X108712000Y-103505000D03*
X132842000Y-148590000D03*
X132842000Y-145542000D03*
X123444000Y-152654000D03*
X100457000Y-118364000D03*
X100457000Y-119888000D03*
X108458000Y-113030000D03*
X109728000Y-112522000D03*
X112014000Y-108204000D03*
X109982000Y-108204000D03*
X112014000Y-112522000D03*
X127762000Y-106426000D03*
X127762000Y-108204000D03*
X134112000Y-113284000D03*
X134112000Y-115824000D03*
X134112000Y-119507000D03*
X134112000Y-124968000D03*
X134112000Y-127508000D03*
X134112000Y-130302000D03*
X119126000Y-132842000D03*
X119126000Y-141732000D03*
X115443000Y-141732000D03*
X131191000Y-103886000D03*
X108712000Y-105029008D03*
X116205008Y-103378000D03*
X118745000Y-103378000D03*
X117475000Y-103886000D03*
X110744000Y-129159000D03*
X120523000Y-131191000D03*
X125000005Y-131190998D03*
X114427000Y-131191000D03*
X114427000Y-132842000D03*
X106680000Y-132080004D03*
X102550000Y-133156996D03*
X114426999Y-125349001D03*
X115316004Y-125366250D03*
X116205000Y-125857000D03*
X114443005Y-126324986D03*
X103251000Y-132080000D03*
X103886000Y-128397000D03*
X118110000Y-126237998D03*
X117221000Y-126238000D03*
X112014000Y-133985000D03*
X112649000Y-132842000D03*
X112014000Y-136398000D03*
X112014000Y-138811000D03*
X110363000Y-138811000D03*
X109982000Y-133985000D03*
X124079000Y-122428000D03*
X112522000Y-124714000D03*
X114173000Y-116840000D03*
X107061000Y-118237000D03*
X123825000Y-119507000D03*
X104521000Y-137287000D03*
X130492500Y-138938000D03*
X126746000Y-124968000D03*
X127634988Y-124968000D03*
X128524000Y-124968000D03*
X121666000Y-132842000D03*
X121666000Y-131191000D03*
X122809000Y-131191000D03*
X122809000Y-132842000D03*
X104521000Y-133477000D03*
X118999008Y-123952008D03*
X115316000Y-123952000D03*
X110998000Y-121412000D03*
X110109000Y-119761000D03*
X114935000Y-120015000D03*
X120777000Y-125476000D03*
X120777000Y-123317000D03*
X121666000Y-122428000D03*
X114426999Y-130048001D03*
X134112000Y-122428000D03*
X114427000Y-129159000D03*
X116205000Y-125095000D03*
X101473000Y-121793000D03*
X101428610Y-127508000D03*
X101428610Y-128778000D03*
X102235000Y-125349000D03*
X104521000Y-118237000D03*
X105791000Y-118237000D03*
X129921000Y-146177000D03*
X128142996Y-146177000D03*
X103825000Y-120600000D03*
X117982996Y-118745000D03*
X123825000Y-117729000D03*
X129000000Y-110839000D03*
X120269000Y-116459000D03*
X119380000Y-116459000D03*
X132461000Y-109855000D03*
X129032000Y-109855000D03*
X132334000Y-106553000D03*
X129286000Y-106553000D03*
X133604000Y-105029000D03*
X132334000Y-120777000D03*
X133985000Y-101346000D03*
X125602996Y-115443000D03*
D13*
G36*
X129349239Y-165877480D02*
G01*
X129348582Y-165875203D01*
X129348071Y-165872881D01*
X129347711Y-165872186D01*
X129176714Y-165279880D01*
X129176648Y-165279099D01*
X129175842Y-165276860D01*
X129175185Y-165274585D01*
X129174782Y-165273917D01*
X129063584Y-164965107D01*
X131167496Y-164965107D01*
X131182377Y-165201625D01*
X131238906Y-165431769D01*
X131335296Y-165648266D01*
X131514615Y-165912129D01*
X132426744Y-165000000D01*
X132573256Y-165000000D01*
X133474883Y-165901627D01*
X133540284Y-165833423D01*
X133671429Y-165636034D01*
X133765547Y-165418540D01*
X133819890Y-165186849D01*
X133827860Y-164882485D01*
X133785717Y-164648268D01*
X133703111Y-164426146D01*
X133582475Y-164222162D01*
X133475280Y-164097976D01*
X132573256Y-165000000D01*
X132426744Y-165000000D01*
X131520807Y-164094064D01*
X131370819Y-164291666D01*
X131263230Y-164502822D01*
X131194735Y-164729693D01*
X131167496Y-164965107D01*
X129063584Y-164965107D01*
X128965918Y-164693878D01*
X128965803Y-164693105D01*
X128964857Y-164690929D01*
X128964049Y-164688686D01*
X128963601Y-164688042D01*
X128717743Y-164122695D01*
X128717577Y-164121930D01*
X128716491Y-164119816D01*
X128715545Y-164117642D01*
X128715059Y-164117031D01*
X128667894Y-164025269D01*
X131598525Y-164025269D01*
X132500000Y-164926744D01*
X133403508Y-164023236D01*
X133243452Y-163893626D01*
X133035781Y-163779457D01*
X132811174Y-163703869D01*
X132576731Y-163669249D01*
X132339862Y-163676693D01*
X132108055Y-163725966D01*
X131888639Y-163815508D01*
X131688545Y-163942491D01*
X131598525Y-164025269D01*
X128667894Y-164025269D01*
X128433226Y-163568716D01*
X128433013Y-163567970D01*
X128431803Y-163565949D01*
X128430709Y-163563820D01*
X128430179Y-163563236D01*
X128113556Y-163034267D01*
X128113293Y-163033527D01*
X128111939Y-163031564D01*
X128110726Y-163029538D01*
X128110167Y-163028996D01*
X127760061Y-162521550D01*
X127759751Y-162520830D01*
X127758276Y-162518963D01*
X127756933Y-162517016D01*
X127756340Y-162516511D01*
X127374214Y-162032714D01*
X127373859Y-162032017D01*
X127372270Y-162030253D01*
X127370799Y-162028390D01*
X127370172Y-162027923D01*
X126957631Y-161569802D01*
X126957231Y-161569128D01*
X126955528Y-161567466D01*
X126953941Y-161565704D01*
X126953286Y-161565279D01*
X126512039Y-161134732D01*
X126511597Y-161134087D01*
X126509794Y-161132542D01*
X126508095Y-161130884D01*
X126507413Y-161130501D01*
X126039301Y-160729325D01*
X126038821Y-160728713D01*
X126036932Y-160727295D01*
X126035113Y-160725736D01*
X126034402Y-160725395D01*
X125541383Y-160355269D01*
X125540861Y-160354686D01*
X125538874Y-160353386D01*
X125536980Y-160351964D01*
X125536256Y-160351673D01*
X125020366Y-160014126D01*
X125019812Y-160013582D01*
X125017759Y-160012421D01*
X125015759Y-160011112D01*
X125015011Y-160010866D01*
X124478425Y-159707318D01*
X124477835Y-159706809D01*
X124475704Y-159705779D01*
X124473627Y-159704604D01*
X124472866Y-159704407D01*
X123917813Y-159436123D01*
X123917189Y-159435651D01*
X123914988Y-159434757D01*
X123912850Y-159433724D01*
X123912082Y-159433577D01*
X123340870Y-159201670D01*
X123340214Y-159201238D01*
X123337951Y-159200485D01*
X123335758Y-159199595D01*
X123334985Y-159199499D01*
X122749994Y-159004935D01*
X122749314Y-159004547D01*
X122747015Y-159003944D01*
X122744763Y-159003195D01*
X122743983Y-159003149D01*
X122147658Y-158846743D01*
X122146956Y-158846400D01*
X122144625Y-158845947D01*
X122142322Y-158845343D01*
X122141538Y-158845347D01*
X121536365Y-158727749D01*
X121535640Y-158727452D01*
X121533280Y-158727150D01*
X121530955Y-158726698D01*
X121530176Y-158726752D01*
X120918672Y-158648452D01*
X120917928Y-158648202D01*
X120915550Y-158648053D01*
X120913203Y-158647752D01*
X120912431Y-158647856D01*
X120297150Y-158609181D01*
X120296390Y-158608979D01*
X120294002Y-158608983D01*
X120291643Y-158608835D01*
X120290880Y-158608989D01*
X119674382Y-158610100D01*
X119673614Y-158609948D01*
X119671241Y-158610106D01*
X119668869Y-158610110D01*
X119668115Y-158610314D01*
X119052972Y-158651206D01*
X119052197Y-158651104D01*
X119049846Y-158651414D01*
X119047479Y-158651571D01*
X119046739Y-158651823D01*
X118435515Y-158732328D01*
X118434734Y-158732276D01*
X118432404Y-158732737D01*
X118430054Y-158733047D01*
X118429333Y-158733346D01*
X117824585Y-158853125D01*
X117823800Y-158853124D01*
X117821497Y-158853737D01*
X117819174Y-158854197D01*
X117818474Y-158854541D01*
X117222708Y-159013099D01*
X117221930Y-159013148D01*
X117219689Y-159013902D01*
X117217387Y-159014515D01*
X117216707Y-159014906D01*
X116632424Y-159211575D01*
X116631648Y-159211675D01*
X116629450Y-159212577D01*
X116627197Y-159213335D01*
X116626545Y-159213768D01*
X116056172Y-159447732D01*
X116055405Y-159447881D01*
X116053271Y-159448922D01*
X116051072Y-159449824D01*
X116050449Y-159450298D01*
X115496360Y-159720585D01*
X115495603Y-159720784D01*
X115493539Y-159721962D01*
X115491410Y-159723000D01*
X115490821Y-159723512D01*
X114955327Y-160028992D01*
X114954586Y-160029238D01*
X114952606Y-160030544D01*
X114950537Y-160031724D01*
X114949979Y-160032276D01*
X114435321Y-160371673D01*
X114434597Y-160371967D01*
X114432706Y-160373397D01*
X114430720Y-160374707D01*
X114430200Y-160375293D01*
X113938518Y-160747193D01*
X113937810Y-160747535D01*
X113936003Y-160749095D01*
X113934115Y-160750523D01*
X113933636Y-160751138D01*
X113466975Y-161153996D01*
X113466294Y-161154381D01*
X113464600Y-161156045D01*
X113462802Y-161157598D01*
X113462362Y-161158245D01*
X113022674Y-161590375D01*
X113022018Y-161590804D01*
X113020431Y-161592579D01*
X113018736Y-161594245D01*
X113018339Y-161594919D01*
X112607460Y-162054515D01*
X112606830Y-162054988D01*
X112605352Y-162056873D01*
X112603776Y-162058636D01*
X112603425Y-162059331D01*
X112223055Y-162544494D01*
X112222460Y-162545004D01*
X112221115Y-162546968D01*
X112219654Y-162548832D01*
X112219348Y-162549550D01*
X111871075Y-163058250D01*
X111870514Y-163058798D01*
X111869298Y-163060845D01*
X111867961Y-163062799D01*
X111867702Y-163063535D01*
X111552982Y-163593650D01*
X111552460Y-163594230D01*
X111551384Y-163596342D01*
X111550167Y-163598392D01*
X111549955Y-163599148D01*
X111270105Y-164148462D01*
X111269621Y-164149074D01*
X111268684Y-164151251D01*
X111267601Y-164153376D01*
X111267438Y-164154144D01*
X111023618Y-164720373D01*
X111023174Y-164721017D01*
X111022377Y-164723256D01*
X111021439Y-164725434D01*
X111021326Y-164726207D01*
X110814555Y-165306994D01*
X110814153Y-165307666D01*
X110813501Y-165309954D01*
X110812705Y-165312191D01*
X110812642Y-165312970D01*
X110643781Y-165905887D01*
X110643423Y-165906583D01*
X110642921Y-165908906D01*
X110642271Y-165911188D01*
X110642259Y-165911969D01*
X110512012Y-166514553D01*
X110511700Y-166515270D01*
X110511349Y-166517616D01*
X110510847Y-166519941D01*
X110510885Y-166520723D01*
X110419797Y-167130453D01*
X110419532Y-167131189D01*
X110419333Y-167133555D01*
X110418983Y-167135901D01*
X110419071Y-167136677D01*
X110385344Y-167538588D01*
X107533475Y-167539391D01*
X107517010Y-167534435D01*
X106869139Y-167514640D01*
X106240614Y-167456888D01*
X105616795Y-167360873D01*
X104999983Y-167226949D01*
X104392531Y-167055630D01*
X103796660Y-166847542D01*
X103214593Y-166603461D01*
X102648526Y-166324308D01*
X102100538Y-166011107D01*
X102057029Y-165982581D01*
X106540675Y-165982581D01*
X106777485Y-166150872D01*
X106991915Y-166251776D01*
X107220825Y-166313113D01*
X107456979Y-166332943D01*
X107692913Y-166310641D01*
X107921168Y-166246910D01*
X108134531Y-166143767D01*
X108358086Y-165981342D01*
X107450000Y-165073256D01*
X106540675Y-165982581D01*
X102057029Y-165982581D01*
X101572698Y-165665040D01*
X101066994Y-165287412D01*
X100686273Y-164965107D01*
X106117496Y-164965107D01*
X106132377Y-165201625D01*
X106188906Y-165431769D01*
X106285296Y-165648266D01*
X106464615Y-165912129D01*
X107376744Y-165000000D01*
X107523256Y-165000000D01*
X108424883Y-165901627D01*
X108490284Y-165833423D01*
X108621429Y-165636034D01*
X108715547Y-165418540D01*
X108769890Y-165186849D01*
X108777860Y-164882485D01*
X108735717Y-164648268D01*
X108653111Y-164426146D01*
X108532475Y-164222162D01*
X108425280Y-164097976D01*
X107523256Y-165000000D01*
X107376744Y-165000000D01*
X106470807Y-164094064D01*
X106320819Y-164291666D01*
X106213230Y-164502822D01*
X106144735Y-164729693D01*
X106117496Y-164965107D01*
X100686273Y-164965107D01*
X100585260Y-164879594D01*
X100129319Y-164443125D01*
X99743058Y-164025269D01*
X106548525Y-164025269D01*
X107450000Y-164926744D01*
X108353508Y-164023236D01*
X108193452Y-163893626D01*
X107985781Y-163779457D01*
X107761174Y-163703869D01*
X107526731Y-163669249D01*
X107289862Y-163676693D01*
X107058055Y-163725966D01*
X106838639Y-163815508D01*
X106638545Y-163942491D01*
X106548525Y-164025269D01*
X99743058Y-164025269D01*
X99700886Y-163979648D01*
X99301557Y-163490893D01*
X98932799Y-162978657D01*
X98595985Y-162444836D01*
X98292412Y-161891496D01*
X98023179Y-161320641D01*
X97789298Y-160734413D01*
X97591641Y-160134997D01*
X97430940Y-159524614D01*
X97307809Y-158905593D01*
X97290398Y-158777660D01*
X97262646Y-155798379D01*
X97266653Y-155761803D01*
X97373543Y-155139744D01*
X97458005Y-154781043D01*
X130247910Y-154781043D01*
X130281532Y-154974688D01*
X130382613Y-155143248D01*
X130537596Y-155264117D01*
X130725701Y-155321088D01*
X130921704Y-155306522D01*
X131099323Y-155222373D01*
X131234737Y-155079923D01*
X131309962Y-154897868D01*
X131312499Y-154690202D01*
X131241745Y-154506362D01*
X131109851Y-154360646D01*
X130934342Y-154272182D01*
X130738753Y-154252832D01*
X130549313Y-154305192D01*
X130391422Y-154422237D01*
X130286253Y-154588276D01*
X130247910Y-154781043D01*
X97458005Y-154781043D01*
X97518206Y-154525380D01*
X97700104Y-153921002D01*
X97918562Y-153328843D01*
X98172760Y-152751133D01*
X98461759Y-152190011D01*
X98784461Y-151647596D01*
X98939259Y-151420243D01*
X118978311Y-151420243D01*
X119011933Y-151613888D01*
X119113014Y-151782448D01*
X119267997Y-151903317D01*
X119456102Y-151960288D01*
X119652105Y-151945722D01*
X119829724Y-151861573D01*
X119965138Y-151719123D01*
X120015608Y-151596978D01*
X120019933Y-151621888D01*
X120121014Y-151790448D01*
X120275997Y-151911317D01*
X120464102Y-151968288D01*
X120660105Y-151953722D01*
X120837724Y-151869573D01*
X120973138Y-151727123D01*
X121048363Y-151545068D01*
X121050900Y-151337402D01*
X120980146Y-151153562D01*
X120848252Y-151007846D01*
X120672743Y-150919382D01*
X120477154Y-150900032D01*
X120287714Y-150952392D01*
X120129823Y-151069437D01*
X120024654Y-151235476D01*
X120018554Y-151266144D01*
X119972146Y-151145562D01*
X119840252Y-150999846D01*
X119664743Y-150911382D01*
X119469154Y-150892032D01*
X119279714Y-150944392D01*
X119121823Y-151061437D01*
X119016654Y-151227476D01*
X118978311Y-151420243D01*
X98939259Y-151420243D01*
X99139687Y-151125876D01*
X99526110Y-150626806D01*
X99580625Y-150564643D01*
X111401111Y-150564643D01*
X111434733Y-150758288D01*
X111535814Y-150926848D01*
X111690797Y-151047717D01*
X111878902Y-151104688D01*
X112074905Y-151090122D01*
X112252524Y-151005973D01*
X112387938Y-150863523D01*
X112458380Y-150693043D01*
X117978311Y-150693043D01*
X118011933Y-150886688D01*
X118113014Y-151055248D01*
X118267997Y-151176117D01*
X118456102Y-151233088D01*
X118652105Y-151218522D01*
X118829724Y-151134373D01*
X118965138Y-150991923D01*
X119040363Y-150809868D01*
X119042900Y-150602202D01*
X118972146Y-150418362D01*
X118840252Y-150272646D01*
X118664743Y-150184182D01*
X118469154Y-150164832D01*
X118279714Y-150217192D01*
X118121823Y-150334237D01*
X118016654Y-150500276D01*
X117978311Y-150693043D01*
X112458380Y-150693043D01*
X112463163Y-150681468D01*
X112465700Y-150473802D01*
X112394946Y-150289962D01*
X112263052Y-150144246D01*
X112087543Y-150055782D01*
X111891954Y-150036432D01*
X111702514Y-150088792D01*
X111544623Y-150205837D01*
X111439454Y-150371876D01*
X111401111Y-150564643D01*
X99580625Y-150564643D01*
X99943483Y-150150883D01*
X100161224Y-149924141D01*
X100170003Y-149908200D01*
X100190153Y-149888128D01*
X100198910Y-149855703D01*
X100214141Y-149828043D01*
X107921311Y-149828043D01*
X107954933Y-150021688D01*
X108056014Y-150190248D01*
X108210997Y-150311117D01*
X108399102Y-150368088D01*
X108595105Y-150353522D01*
X108772724Y-150269373D01*
X108908138Y-150126923D01*
X108983363Y-149944868D01*
X108985900Y-149737202D01*
X108915146Y-149553362D01*
X108783252Y-149407646D01*
X108607743Y-149319182D01*
X108412154Y-149299832D01*
X108222714Y-149352192D01*
X108064823Y-149469237D01*
X107959654Y-149635276D01*
X107921311Y-149828043D01*
X100214141Y-149828043D01*
X100215114Y-149826277D01*
X100213932Y-149767831D01*
X100216523Y-148456443D01*
X105203511Y-148456443D01*
X105237133Y-148650088D01*
X105338214Y-148818648D01*
X105493197Y-148939517D01*
X105681302Y-148996488D01*
X105877305Y-148981922D01*
X106054924Y-148897773D01*
X106190338Y-148755323D01*
X106265563Y-148573268D01*
X106266990Y-148456443D01*
X106549711Y-148456443D01*
X106583333Y-148650088D01*
X106684414Y-148818648D01*
X106839397Y-148939517D01*
X107027502Y-148996488D01*
X107223505Y-148981922D01*
X107367626Y-148913643D01*
X110943911Y-148913643D01*
X110977533Y-149107288D01*
X111078614Y-149275848D01*
X111233597Y-149396717D01*
X111421702Y-149453688D01*
X111617705Y-149439122D01*
X111795324Y-149354973D01*
X111930738Y-149212523D01*
X112005963Y-149030468D01*
X112008500Y-148822802D01*
X111937746Y-148638962D01*
X111805852Y-148493246D01*
X111630343Y-148404782D01*
X111434754Y-148385432D01*
X111245314Y-148437792D01*
X111087423Y-148554837D01*
X110982254Y-148720876D01*
X110943911Y-148913643D01*
X107367626Y-148913643D01*
X107401124Y-148897773D01*
X107536538Y-148755323D01*
X107611763Y-148573268D01*
X107614300Y-148365602D01*
X107543546Y-148181762D01*
X107411652Y-148036046D01*
X107236143Y-147947582D01*
X107040554Y-147928232D01*
X106851114Y-147980592D01*
X106693223Y-148097637D01*
X106588054Y-148263676D01*
X106549711Y-148456443D01*
X106266990Y-148456443D01*
X106268100Y-148365602D01*
X106197346Y-148181762D01*
X106065452Y-148036046D01*
X105889943Y-147947582D01*
X105694354Y-147928232D01*
X105504914Y-147980592D01*
X105347023Y-148097637D01*
X105241854Y-148263676D01*
X105203511Y-148456443D01*
X100216523Y-148456443D01*
X100220237Y-146576843D01*
X113585511Y-146576843D01*
X113619133Y-146770488D01*
X113720214Y-146939048D01*
X113875197Y-147059917D01*
X114063302Y-147116888D01*
X114259305Y-147102322D01*
X114436924Y-147018173D01*
X114572338Y-146875723D01*
X114647563Y-146693668D01*
X114649921Y-146500643D01*
X115795311Y-146500643D01*
X115828933Y-146694288D01*
X115930014Y-146862848D01*
X116084997Y-146983717D01*
X116273102Y-147040688D01*
X116469105Y-147026122D01*
X116505994Y-147008645D01*
X117979711Y-147008645D01*
X118013333Y-147202290D01*
X118114414Y-147370850D01*
X118269397Y-147491719D01*
X118457502Y-147548690D01*
X118653505Y-147534124D01*
X118831124Y-147449975D01*
X118966538Y-147307525D01*
X119041763Y-147125470D01*
X119044300Y-146917804D01*
X118973546Y-146733964D01*
X118841652Y-146588248D01*
X118666143Y-146499784D01*
X118470554Y-146480434D01*
X118281114Y-146532794D01*
X118123223Y-146649839D01*
X118018054Y-146815878D01*
X117979711Y-147008645D01*
X116505994Y-147008645D01*
X116646724Y-146941973D01*
X116782138Y-146799523D01*
X116857363Y-146617468D01*
X116859900Y-146409802D01*
X116789146Y-146225962D01*
X116738894Y-146170443D01*
X127606307Y-146170443D01*
X127639929Y-146364088D01*
X127741010Y-146532648D01*
X127895993Y-146653517D01*
X128084098Y-146710488D01*
X128280101Y-146695922D01*
X128457720Y-146611773D01*
X128593134Y-146469323D01*
X128668359Y-146287268D01*
X128669786Y-146170443D01*
X129384311Y-146170443D01*
X129417933Y-146364088D01*
X129519014Y-146532648D01*
X129673997Y-146653517D01*
X129862102Y-146710488D01*
X130058105Y-146695922D01*
X130235724Y-146611773D01*
X130371138Y-146469323D01*
X130446363Y-146287268D01*
X130448900Y-146079602D01*
X130378146Y-145895762D01*
X130246252Y-145750046D01*
X130070743Y-145661582D01*
X129875154Y-145642232D01*
X129685714Y-145694592D01*
X129527823Y-145811637D01*
X129422654Y-145977676D01*
X129384311Y-146170443D01*
X128669786Y-146170443D01*
X128670896Y-146079602D01*
X128600142Y-145895762D01*
X128468248Y-145750046D01*
X128292739Y-145661582D01*
X128097150Y-145642232D01*
X127907710Y-145694592D01*
X127749819Y-145811637D01*
X127644650Y-145977676D01*
X127606307Y-146170443D01*
X116738894Y-146170443D01*
X116657252Y-146080246D01*
X116481743Y-145991782D01*
X116286154Y-145972432D01*
X116096714Y-146024792D01*
X115938823Y-146141837D01*
X115833654Y-146307876D01*
X115795311Y-146500643D01*
X114649921Y-146500643D01*
X114650100Y-146486002D01*
X114579346Y-146302162D01*
X114447452Y-146156446D01*
X114271943Y-146067982D01*
X114076354Y-146048632D01*
X113886914Y-146100992D01*
X113729023Y-146218037D01*
X113623854Y-146384076D01*
X113585511Y-146576843D01*
X100220237Y-146576843D01*
X100221542Y-145916443D01*
X103603311Y-145916443D01*
X103636933Y-146110088D01*
X103738014Y-146278648D01*
X103892997Y-146399517D01*
X104081102Y-146456488D01*
X104277105Y-146441922D01*
X104454724Y-146357773D01*
X104590138Y-146215323D01*
X104665363Y-146033268D01*
X104667900Y-145825602D01*
X104597146Y-145641762D01*
X104465252Y-145496046D01*
X104289743Y-145407582D01*
X104094154Y-145388232D01*
X103904714Y-145440592D01*
X103746823Y-145557637D01*
X103641654Y-145723676D01*
X103603311Y-145916443D01*
X100221542Y-145916443D01*
X100226527Y-143393443D01*
X124963315Y-143393443D01*
X124996937Y-143587088D01*
X125098018Y-143755648D01*
X125253001Y-143876517D01*
X125441106Y-143933488D01*
X125637109Y-143918922D01*
X125814728Y-143834773D01*
X125950142Y-143692323D01*
X126025367Y-143510268D01*
X126027904Y-143302602D01*
X125957150Y-143118762D01*
X125825256Y-142973046D01*
X125756606Y-142938443D01*
X129949321Y-142938443D01*
X129982943Y-143132088D01*
X130084024Y-143300648D01*
X130239007Y-143421517D01*
X130427112Y-143478488D01*
X130623115Y-143463922D01*
X130800734Y-143379773D01*
X130936148Y-143237323D01*
X131011373Y-143055268D01*
X131013910Y-142847602D01*
X130943156Y-142663762D01*
X130811262Y-142518046D01*
X130635753Y-142429582D01*
X130440164Y-142410232D01*
X130250724Y-142462592D01*
X130092833Y-142579637D01*
X129987664Y-142745676D01*
X129949321Y-142938443D01*
X125756606Y-142938443D01*
X125649747Y-142884582D01*
X125454158Y-142865232D01*
X125264718Y-142917592D01*
X125106827Y-143034637D01*
X125001658Y-143200676D01*
X124963315Y-143393443D01*
X100226527Y-143393443D01*
X100227540Y-142881203D01*
X100235621Y-142852070D01*
X100227657Y-142821270D01*
X100227659Y-142820483D01*
X100220184Y-142792366D01*
X100207655Y-142743906D01*
X99952825Y-142293435D01*
X108175311Y-142293435D01*
X108208933Y-142487080D01*
X108310014Y-142655640D01*
X108464997Y-142776509D01*
X108653102Y-142833480D01*
X108849105Y-142818914D01*
X109026724Y-142734765D01*
X109162138Y-142592315D01*
X109237363Y-142410260D01*
X109239900Y-142202594D01*
X109169146Y-142018754D01*
X109037252Y-141873038D01*
X108861743Y-141784574D01*
X108666154Y-141765224D01*
X108476714Y-141817584D01*
X108318823Y-141934629D01*
X108213654Y-142100668D01*
X108175311Y-142293435D01*
X99952825Y-142293435D01*
X99745627Y-141927166D01*
X99612680Y-141668443D01*
X103938319Y-141668443D01*
X103971941Y-141862088D01*
X104073022Y-142030648D01*
X104228005Y-142151517D01*
X104416110Y-142208488D01*
X104612113Y-142193922D01*
X104789732Y-142109773D01*
X104925146Y-141967323D01*
X105000371Y-141785268D01*
X105002908Y-141577602D01*
X104932154Y-141393762D01*
X104800260Y-141248046D01*
X104624751Y-141159582D01*
X104429162Y-141140232D01*
X104239722Y-141192592D01*
X104081831Y-141309637D01*
X103976662Y-141475676D01*
X103938319Y-141668443D01*
X99612680Y-141668443D01*
X99323428Y-141105541D01*
X98934519Y-140267583D01*
X98778805Y-139893443D01*
X103963311Y-139893443D01*
X103996933Y-140087088D01*
X104098014Y-140255648D01*
X104252997Y-140376517D01*
X104441102Y-140433488D01*
X104637105Y-140418922D01*
X104814724Y-140334773D01*
X104950138Y-140192323D01*
X104998845Y-140074443D01*
X108810311Y-140074443D01*
X108843933Y-140268088D01*
X108945014Y-140436648D01*
X109087470Y-140547748D01*
X108970261Y-140634635D01*
X108865092Y-140800674D01*
X108826749Y-140993441D01*
X108860371Y-141187086D01*
X108961452Y-141355646D01*
X109116435Y-141476515D01*
X109304540Y-141533486D01*
X109500543Y-141518920D01*
X109678162Y-141434771D01*
X109813576Y-141292321D01*
X109888801Y-141110266D01*
X109891338Y-140902600D01*
X109820584Y-140718760D01*
X109688690Y-140573044D01*
X109617053Y-140536936D01*
X109661724Y-140515773D01*
X109797138Y-140373323D01*
X109872363Y-140191268D01*
X109874900Y-139983602D01*
X109804146Y-139799762D01*
X109672252Y-139654046D01*
X109496743Y-139565582D01*
X109301154Y-139546232D01*
X109111714Y-139598592D01*
X108953823Y-139715637D01*
X108848654Y-139881676D01*
X108810311Y-140074443D01*
X104998845Y-140074443D01*
X105025363Y-140010268D01*
X105027900Y-139802602D01*
X104957146Y-139618762D01*
X104825252Y-139473046D01*
X104649743Y-139384582D01*
X104454154Y-139365232D01*
X104264714Y-139417592D01*
X104106823Y-139534637D01*
X104001654Y-139700676D01*
X103963311Y-139893443D01*
X98778805Y-139893443D01*
X98579573Y-139414743D01*
X98353856Y-138804443D01*
X109826311Y-138804443D01*
X109859933Y-138998088D01*
X109961014Y-139166648D01*
X110115997Y-139287517D01*
X110304102Y-139344488D01*
X110500105Y-139329922D01*
X110677724Y-139245773D01*
X110813138Y-139103323D01*
X110888363Y-138921268D01*
X110889790Y-138804443D01*
X114906311Y-138804443D01*
X114939933Y-138998088D01*
X115041014Y-139166648D01*
X115195997Y-139287517D01*
X115384102Y-139344488D01*
X115580105Y-139329922D01*
X115757724Y-139245773D01*
X115892465Y-139104032D01*
X115930014Y-139166648D01*
X116084997Y-139287517D01*
X116273102Y-139344488D01*
X116469105Y-139329922D01*
X116646724Y-139245773D01*
X116782138Y-139103323D01*
X116800678Y-139058453D01*
X126082311Y-139058453D01*
X126115933Y-139252098D01*
X126217014Y-139420658D01*
X126371997Y-139541527D01*
X126560102Y-139598498D01*
X126756105Y-139583932D01*
X126933724Y-139499783D01*
X127069138Y-139357333D01*
X127144363Y-139175278D01*
X127146900Y-138967612D01*
X127076146Y-138783772D01*
X126944252Y-138638056D01*
X126768743Y-138549592D01*
X126573154Y-138530242D01*
X126383714Y-138582602D01*
X126225823Y-138699647D01*
X126120654Y-138865686D01*
X126082311Y-139058453D01*
X116800678Y-139058453D01*
X116857363Y-138921268D01*
X116859900Y-138713602D01*
X116789146Y-138529762D01*
X116657252Y-138384046D01*
X116481743Y-138295582D01*
X116286154Y-138276232D01*
X116096714Y-138328592D01*
X115938823Y-138445637D01*
X115891552Y-138520267D01*
X115768252Y-138384046D01*
X115592743Y-138295582D01*
X115397154Y-138276232D01*
X115207714Y-138328592D01*
X115049823Y-138445637D01*
X114944654Y-138611676D01*
X114906311Y-138804443D01*
X110889790Y-138804443D01*
X110890900Y-138713602D01*
X110820146Y-138529762D01*
X110688252Y-138384046D01*
X110512743Y-138295582D01*
X110317154Y-138276232D01*
X110127714Y-138328592D01*
X109969823Y-138445637D01*
X109864654Y-138611676D01*
X109826311Y-138804443D01*
X98353856Y-138804443D01*
X98259134Y-138548332D01*
X98136050Y-138169443D01*
X108175311Y-138169443D01*
X108208933Y-138363088D01*
X108310014Y-138531648D01*
X108464997Y-138652517D01*
X108653102Y-138709488D01*
X108849105Y-138694922D01*
X109026724Y-138610773D01*
X109162138Y-138468323D01*
X109237363Y-138286268D01*
X109239900Y-138078602D01*
X109169146Y-137894762D01*
X109037252Y-137749046D01*
X108863452Y-137661443D01*
X109826311Y-137661443D01*
X109859933Y-137855088D01*
X109961014Y-138023648D01*
X110115997Y-138144517D01*
X110304102Y-138201488D01*
X110500105Y-138186922D01*
X110677724Y-138102773D01*
X110813138Y-137960323D01*
X110888363Y-137778268D01*
X110890900Y-137570602D01*
X110828106Y-137407443D01*
X126082311Y-137407443D01*
X126115933Y-137601088D01*
X126217014Y-137769648D01*
X126371997Y-137890517D01*
X126560102Y-137947488D01*
X126756105Y-137932922D01*
X126933724Y-137848773D01*
X127069138Y-137706323D01*
X127144363Y-137524268D01*
X127146900Y-137316602D01*
X127076146Y-137132762D01*
X126944252Y-136987046D01*
X126911259Y-136970416D01*
X126933724Y-136959773D01*
X127069138Y-136817323D01*
X127144363Y-136635268D01*
X127146900Y-136427602D01*
X127076146Y-136243762D01*
X126944252Y-136098046D01*
X126768743Y-136009582D01*
X126573154Y-135990232D01*
X126383714Y-136042592D01*
X126225823Y-136159637D01*
X126120654Y-136325676D01*
X126082311Y-136518443D01*
X126115933Y-136712088D01*
X126217014Y-136880648D01*
X126331740Y-136970121D01*
X126225823Y-137048637D01*
X126120654Y-137214676D01*
X126082311Y-137407443D01*
X110828106Y-137407443D01*
X110820146Y-137386762D01*
X110688252Y-137241046D01*
X110512743Y-137152582D01*
X110317154Y-137133232D01*
X110127714Y-137185592D01*
X109969823Y-137302637D01*
X109864654Y-137468676D01*
X109826311Y-137661443D01*
X108863452Y-137661443D01*
X108861743Y-137660582D01*
X108666154Y-137641232D01*
X108476714Y-137693592D01*
X108318823Y-137810637D01*
X108213654Y-137976676D01*
X108175311Y-138169443D01*
X98136050Y-138169443D01*
X97973716Y-137669736D01*
X97723793Y-136780414D01*
X97631151Y-136391443D01*
X120621311Y-136391443D01*
X120654933Y-136585088D01*
X120756014Y-136753648D01*
X120910997Y-136874517D01*
X121099102Y-136931488D01*
X121295105Y-136916922D01*
X121472724Y-136832773D01*
X121608138Y-136690323D01*
X121683363Y-136508268D01*
X121684790Y-136391437D01*
X124177311Y-136391437D01*
X124210933Y-136585082D01*
X124312014Y-136753642D01*
X124466997Y-136874511D01*
X124655102Y-136931482D01*
X124851105Y-136916916D01*
X125028724Y-136832767D01*
X125164138Y-136690317D01*
X125235156Y-136518443D01*
X125239363Y-136508262D01*
X125241900Y-136300596D01*
X125171146Y-136116756D01*
X125039252Y-135971040D01*
X124863743Y-135882576D01*
X124668154Y-135863226D01*
X124478714Y-135915586D01*
X124320823Y-136032631D01*
X124215654Y-136198670D01*
X124177311Y-136391437D01*
X121684790Y-136391437D01*
X121685900Y-136300602D01*
X121615146Y-136116762D01*
X121483252Y-135971046D01*
X121307743Y-135882582D01*
X121112154Y-135863232D01*
X120922714Y-135915592D01*
X120764823Y-136032637D01*
X120659654Y-136198676D01*
X120621311Y-136391443D01*
X97631151Y-136391443D01*
X97509759Y-135881763D01*
X97331961Y-134975252D01*
X97275971Y-134613443D01*
X115263311Y-134613443D01*
X115296933Y-134807088D01*
X115398014Y-134975648D01*
X115552997Y-135096517D01*
X115741102Y-135153488D01*
X115937105Y-135138922D01*
X116114724Y-135054773D01*
X116250138Y-134912323D01*
X116325363Y-134730268D01*
X116327900Y-134522602D01*
X116257146Y-134338762D01*
X116125252Y-134193046D01*
X116103887Y-134182277D01*
X116138724Y-134165773D01*
X116274138Y-134023323D01*
X116345158Y-133851444D01*
X124177310Y-133851444D01*
X124210932Y-134045089D01*
X124312013Y-134213649D01*
X124466996Y-134334518D01*
X124655101Y-134391489D01*
X124851104Y-134376923D01*
X125028723Y-134292774D01*
X125146437Y-134168943D01*
X126145807Y-134168943D01*
X126179429Y-134362588D01*
X126280510Y-134531148D01*
X126395238Y-134620623D01*
X126289324Y-134699138D01*
X126184155Y-134865177D01*
X126145812Y-135057944D01*
X126179434Y-135251589D01*
X126280515Y-135420149D01*
X126435498Y-135541018D01*
X126623603Y-135597989D01*
X126819606Y-135583423D01*
X126997225Y-135499274D01*
X127132639Y-135356824D01*
X127177421Y-135248443D01*
X130209811Y-135248443D01*
X130243433Y-135442088D01*
X130344514Y-135610648D01*
X130499497Y-135731517D01*
X130687602Y-135788488D01*
X130883605Y-135773922D01*
X131061224Y-135689773D01*
X131196638Y-135547323D01*
X131271863Y-135365268D01*
X131274400Y-135157602D01*
X131203646Y-134973762D01*
X131071752Y-134828046D01*
X130896243Y-134739582D01*
X130700654Y-134720232D01*
X130511214Y-134772592D01*
X130353323Y-134889637D01*
X130248154Y-135055676D01*
X130209811Y-135248443D01*
X127177421Y-135248443D01*
X127207864Y-135174769D01*
X127210401Y-134967103D01*
X127139647Y-134783263D01*
X127007753Y-134637547D01*
X126974756Y-134620915D01*
X126997220Y-134610273D01*
X127132634Y-134467823D01*
X127207859Y-134285768D01*
X127210396Y-134078102D01*
X127139642Y-133894262D01*
X127007748Y-133748546D01*
X126832239Y-133660082D01*
X126636650Y-133640732D01*
X126447210Y-133693092D01*
X126289319Y-133810137D01*
X126184150Y-133976176D01*
X126145807Y-134168943D01*
X125146437Y-134168943D01*
X125164137Y-134150324D01*
X125239362Y-133968269D01*
X125241899Y-133760603D01*
X125171145Y-133576763D01*
X125039251Y-133431047D01*
X124863742Y-133342583D01*
X124668153Y-133323233D01*
X124478713Y-133375593D01*
X124320822Y-133492638D01*
X124215653Y-133658677D01*
X124177310Y-133851444D01*
X116345158Y-133851444D01*
X116349363Y-133841268D01*
X116351900Y-133633602D01*
X116281146Y-133449762D01*
X116149252Y-133304046D01*
X116116259Y-133287416D01*
X116138724Y-133276773D01*
X116274138Y-133134323D01*
X116349363Y-132952268D01*
X116350790Y-132835443D01*
X119986311Y-132835443D01*
X120019933Y-133029088D01*
X120121014Y-133197648D01*
X120275997Y-133318517D01*
X120464102Y-133375488D01*
X120660105Y-133360922D01*
X120837724Y-133276773D01*
X120973138Y-133134323D01*
X121048363Y-132952268D01*
X121049790Y-132835443D01*
X122272311Y-132835443D01*
X122305933Y-133029088D01*
X122407014Y-133197648D01*
X122561997Y-133318517D01*
X122750102Y-133375488D01*
X122946105Y-133360922D01*
X123123724Y-133276773D01*
X123259138Y-133134323D01*
X123312951Y-133004086D01*
X129088668Y-133004086D01*
X129122290Y-133197731D01*
X129223371Y-133366291D01*
X129378354Y-133487160D01*
X129566459Y-133544131D01*
X129762462Y-133529565D01*
X129940081Y-133445416D01*
X130075495Y-133302966D01*
X130102232Y-133238259D01*
X130154034Y-133324642D01*
X130309017Y-133445511D01*
X130497122Y-133502482D01*
X130693125Y-133487916D01*
X130870744Y-133403767D01*
X131006158Y-133261317D01*
X131081383Y-133079262D01*
X131082323Y-133002243D01*
X131913311Y-133002243D01*
X131946933Y-133195888D01*
X132048014Y-133364448D01*
X132202997Y-133485317D01*
X132391102Y-133542288D01*
X132587105Y-133527722D01*
X132764724Y-133443573D01*
X132900138Y-133301123D01*
X132975363Y-133119068D01*
X132977900Y-132911402D01*
X132950957Y-132841396D01*
X133037108Y-132867488D01*
X133233111Y-132852922D01*
X133410730Y-132768773D01*
X133546144Y-132626323D01*
X133621369Y-132444268D01*
X133623906Y-132236602D01*
X133553152Y-132052762D01*
X133421258Y-131907046D01*
X133412932Y-131902849D01*
X133546138Y-131762723D01*
X133621363Y-131580668D01*
X133623900Y-131373002D01*
X133553146Y-131189162D01*
X133421252Y-131043446D01*
X133245743Y-130954982D01*
X133050154Y-130935632D01*
X132860714Y-130987992D01*
X132702823Y-131105037D01*
X132597654Y-131271076D01*
X132559311Y-131463843D01*
X132592933Y-131657488D01*
X132694014Y-131826048D01*
X132792045Y-131902501D01*
X132702829Y-131968637D01*
X132597660Y-132134676D01*
X132559317Y-132327443D01*
X132587925Y-132492213D01*
X132404154Y-132474032D01*
X132214714Y-132526392D01*
X132056823Y-132643437D01*
X131951654Y-132809476D01*
X131913311Y-133002243D01*
X131082323Y-133002243D01*
X131083920Y-132871596D01*
X131013166Y-132687756D01*
X130881272Y-132542040D01*
X130705763Y-132453576D01*
X130510174Y-132434226D01*
X130320734Y-132486586D01*
X130162843Y-132603631D01*
X130082758Y-132730068D01*
X130082503Y-132729405D01*
X129950609Y-132583689D01*
X129775100Y-132495225D01*
X129579511Y-132475875D01*
X129390071Y-132528235D01*
X129232180Y-132645280D01*
X129127011Y-132811319D01*
X129088668Y-133004086D01*
X123312951Y-133004086D01*
X123334363Y-132952268D01*
X123336900Y-132744602D01*
X123266146Y-132560762D01*
X123134252Y-132415046D01*
X122958743Y-132326582D01*
X122763154Y-132307232D01*
X122573714Y-132359592D01*
X122415823Y-132476637D01*
X122310654Y-132642676D01*
X122272311Y-132835443D01*
X121049790Y-132835443D01*
X121050900Y-132744602D01*
X120980146Y-132560762D01*
X120848252Y-132415046D01*
X120672743Y-132326582D01*
X120477154Y-132307232D01*
X120287714Y-132359592D01*
X120129823Y-132476637D01*
X120024654Y-132642676D01*
X119986311Y-132835443D01*
X116350790Y-132835443D01*
X116351900Y-132744602D01*
X116281146Y-132560762D01*
X116149252Y-132415046D01*
X115973743Y-132326582D01*
X115778154Y-132307232D01*
X115588714Y-132359592D01*
X115430823Y-132476637D01*
X115325654Y-132642676D01*
X115287311Y-132835443D01*
X115320933Y-133029088D01*
X115422014Y-133197648D01*
X115536740Y-133287121D01*
X115430823Y-133365637D01*
X115325654Y-133531676D01*
X115287311Y-133724443D01*
X115320933Y-133918088D01*
X115422014Y-134086648D01*
X115525044Y-134167000D01*
X115406823Y-134254637D01*
X115301654Y-134420676D01*
X115263311Y-134613443D01*
X97275971Y-134613443D01*
X97190692Y-134062369D01*
X97181135Y-133978443D01*
X111477311Y-133978443D01*
X111510933Y-134172088D01*
X111612014Y-134340648D01*
X111766997Y-134461517D01*
X111955102Y-134518488D01*
X112151105Y-134503922D01*
X112328724Y-134419773D01*
X112464138Y-134277323D01*
X112539363Y-134095268D01*
X112541900Y-133887602D01*
X112471146Y-133703762D01*
X112339252Y-133558046D01*
X112163743Y-133469582D01*
X111968154Y-133450232D01*
X111778714Y-133502592D01*
X111620823Y-133619637D01*
X111515654Y-133785676D01*
X111477311Y-133978443D01*
X97181135Y-133978443D01*
X97086844Y-133150439D01*
X102013311Y-133150439D01*
X102046933Y-133344084D01*
X102148014Y-133512644D01*
X102302997Y-133633513D01*
X102491102Y-133690484D01*
X102687105Y-133675918D01*
X102864724Y-133591769D01*
X103000138Y-133449319D01*
X103075363Y-133267264D01*
X103076144Y-133203260D01*
X107493288Y-133203260D01*
X107526910Y-133396905D01*
X107627991Y-133565465D01*
X107782974Y-133686334D01*
X107971079Y-133743305D01*
X108167082Y-133728739D01*
X108344701Y-133644590D01*
X108480115Y-133502140D01*
X108555340Y-133320085D01*
X108557877Y-133112419D01*
X108487123Y-132928579D01*
X108402822Y-132835443D01*
X112112311Y-132835443D01*
X112145933Y-133029088D01*
X112247014Y-133197648D01*
X112401997Y-133318517D01*
X112590102Y-133375488D01*
X112786105Y-133360922D01*
X112963724Y-133276773D01*
X113099138Y-133134323D01*
X113174363Y-132952268D01*
X113176900Y-132744602D01*
X113106146Y-132560762D01*
X112974252Y-132415046D01*
X112798743Y-132326582D01*
X112603154Y-132307232D01*
X112413714Y-132359592D01*
X112255823Y-132476637D01*
X112150654Y-132642676D01*
X112112311Y-132835443D01*
X108402822Y-132835443D01*
X108355229Y-132782863D01*
X108179720Y-132694399D01*
X107984131Y-132675049D01*
X107794691Y-132727409D01*
X107636800Y-132844454D01*
X107531631Y-133010493D01*
X107493288Y-133203260D01*
X103076144Y-133203260D01*
X103077900Y-133059598D01*
X103007146Y-132875758D01*
X102875252Y-132730042D01*
X102699743Y-132641578D01*
X102504154Y-132622228D01*
X102314714Y-132674588D01*
X102156823Y-132791633D01*
X102051654Y-132957672D01*
X102013311Y-133150439D01*
X97086844Y-133150439D01*
X97086167Y-133144495D01*
X97046612Y-132605429D01*
X97033376Y-131184443D01*
X119986311Y-131184443D01*
X120019933Y-131378088D01*
X120121014Y-131546648D01*
X120275997Y-131667517D01*
X120464102Y-131724488D01*
X120660105Y-131709922D01*
X120837724Y-131625773D01*
X120973138Y-131483323D01*
X121048363Y-131301268D01*
X121049790Y-131184443D01*
X122272311Y-131184443D01*
X122305933Y-131378088D01*
X122407014Y-131546648D01*
X122561997Y-131667517D01*
X122750102Y-131724488D01*
X122946105Y-131709922D01*
X123123724Y-131625773D01*
X123259138Y-131483323D01*
X123334363Y-131301268D01*
X123335790Y-131184441D01*
X124463316Y-131184441D01*
X124496938Y-131378086D01*
X124598019Y-131546646D01*
X124753002Y-131667515D01*
X124941107Y-131724486D01*
X125137110Y-131709920D01*
X125314729Y-131625771D01*
X125450143Y-131483321D01*
X125525368Y-131301266D01*
X125527905Y-131093600D01*
X125513990Y-131057443D01*
X127631720Y-131057443D01*
X127665342Y-131251088D01*
X127766423Y-131419648D01*
X127921406Y-131540517D01*
X128109511Y-131597488D01*
X128305514Y-131582922D01*
X128483133Y-131498773D01*
X128618547Y-131356323D01*
X128693772Y-131174268D01*
X128695199Y-131057443D01*
X128749311Y-131057443D01*
X128782933Y-131251088D01*
X128884014Y-131419648D01*
X129038997Y-131540517D01*
X129227102Y-131597488D01*
X129423105Y-131582922D01*
X129600724Y-131498773D01*
X129736138Y-131356323D01*
X129811363Y-131174268D01*
X129813900Y-130966602D01*
X129743146Y-130782762D01*
X129611252Y-130637046D01*
X129435743Y-130548582D01*
X129240154Y-130529232D01*
X129050714Y-130581592D01*
X128892823Y-130698637D01*
X128787654Y-130864676D01*
X128749311Y-131057443D01*
X128695199Y-131057443D01*
X128696309Y-130966602D01*
X128625555Y-130782762D01*
X128493661Y-130637046D01*
X128318152Y-130548582D01*
X128122563Y-130529232D01*
X127933123Y-130581592D01*
X127775232Y-130698637D01*
X127670063Y-130864676D01*
X127631720Y-131057443D01*
X125513990Y-131057443D01*
X125457151Y-130909760D01*
X125325257Y-130764044D01*
X125149748Y-130675580D01*
X124954159Y-130656230D01*
X124764719Y-130708590D01*
X124606828Y-130825635D01*
X124501659Y-130991674D01*
X124463316Y-131184441D01*
X123335790Y-131184441D01*
X123336900Y-131093602D01*
X123266146Y-130909762D01*
X123134252Y-130764046D01*
X122958743Y-130675582D01*
X122763154Y-130656232D01*
X122573714Y-130708592D01*
X122415823Y-130825637D01*
X122310654Y-130991676D01*
X122272311Y-131184443D01*
X121049790Y-131184443D01*
X121050900Y-131093602D01*
X120980146Y-130909762D01*
X120848252Y-130764046D01*
X120672743Y-130675582D01*
X120477154Y-130656232D01*
X120287714Y-130708592D01*
X120129823Y-130825637D01*
X120024654Y-130991676D01*
X119986311Y-131184443D01*
X97033376Y-131184443D01*
X97020680Y-129821503D01*
X97038058Y-129453440D01*
X97064409Y-129152443D01*
X110207311Y-129152443D01*
X110240933Y-129346088D01*
X110342014Y-129514648D01*
X110456740Y-129604121D01*
X110350823Y-129682637D01*
X110245654Y-129848676D01*
X110207311Y-130041443D01*
X110240933Y-130235088D01*
X110342014Y-130403648D01*
X110496997Y-130524517D01*
X110685102Y-130581488D01*
X110881105Y-130566922D01*
X111058724Y-130482773D01*
X111194138Y-130340323D01*
X111269363Y-130158268D01*
X111270790Y-130041444D01*
X113890310Y-130041444D01*
X113923932Y-130235089D01*
X114025013Y-130403649D01*
X114179996Y-130524518D01*
X114368101Y-130581489D01*
X114564104Y-130566923D01*
X114741723Y-130482774D01*
X114877137Y-130340324D01*
X114952362Y-130158269D01*
X114954899Y-129950603D01*
X114884145Y-129766763D01*
X114752251Y-129621047D01*
X114576742Y-129532583D01*
X114381153Y-129513233D01*
X114191713Y-129565593D01*
X114033822Y-129682638D01*
X113928653Y-129848677D01*
X113890310Y-130041444D01*
X111270790Y-130041444D01*
X111271900Y-129950602D01*
X111201146Y-129766762D01*
X111069252Y-129621046D01*
X111036259Y-129604416D01*
X111058724Y-129593773D01*
X111194138Y-129451323D01*
X111269363Y-129269268D01*
X111271900Y-129061602D01*
X111201146Y-128877762D01*
X111069252Y-128732046D01*
X110893743Y-128643582D01*
X110698154Y-128624232D01*
X110508714Y-128676592D01*
X110350823Y-128793637D01*
X110245654Y-128959676D01*
X110207311Y-129152443D01*
X97064409Y-129152443D01*
X97118623Y-128533182D01*
X97236057Y-127616882D01*
X97242356Y-127579653D01*
X103366727Y-127579653D01*
X103400349Y-127773298D01*
X103501430Y-127941858D01*
X103656413Y-128062727D01*
X103844518Y-128119698D01*
X104040521Y-128105132D01*
X104218140Y-128020983D01*
X104353554Y-127878533D01*
X104428779Y-127696478D01*
X104431316Y-127488812D01*
X104397079Y-127399852D01*
X111096311Y-127399852D01*
X111129933Y-127593497D01*
X111231014Y-127762057D01*
X111385997Y-127882926D01*
X111574102Y-127939897D01*
X111770105Y-127925331D01*
X111947724Y-127841182D01*
X112083138Y-127698732D01*
X112158363Y-127516677D01*
X112160900Y-127309011D01*
X112090146Y-127125171D01*
X111958252Y-126979455D01*
X111782743Y-126890991D01*
X111700212Y-126882826D01*
X113255311Y-126882826D01*
X113288933Y-127076471D01*
X113390014Y-127245031D01*
X113544997Y-127365900D01*
X113733102Y-127422871D01*
X113929105Y-127408305D01*
X114106724Y-127324156D01*
X114242138Y-127181706D01*
X114317363Y-126999651D01*
X114319327Y-126838854D01*
X114384107Y-126858474D01*
X114580110Y-126843908D01*
X114757729Y-126759759D01*
X114893143Y-126617309D01*
X114968368Y-126435254D01*
X114970905Y-126227588D01*
X114900151Y-126043748D01*
X114768257Y-125898032D01*
X114638549Y-125832654D01*
X114741723Y-125783774D01*
X114870124Y-125648701D01*
X114914018Y-125721898D01*
X115069001Y-125842767D01*
X115257106Y-125899738D01*
X115453109Y-125885172D01*
X115630728Y-125801023D01*
X115690687Y-125737948D01*
X115668311Y-125850443D01*
X115701933Y-126044088D01*
X115803014Y-126212648D01*
X115957997Y-126333517D01*
X116146102Y-126390488D01*
X116342105Y-126375922D01*
X116519724Y-126291773D01*
X116577074Y-126231443D01*
X116684311Y-126231443D01*
X116717933Y-126425088D01*
X116819014Y-126593648D01*
X116973997Y-126714517D01*
X117162102Y-126771488D01*
X117358105Y-126756922D01*
X117535724Y-126672773D01*
X117671138Y-126530323D01*
X117746363Y-126348268D01*
X117747790Y-126231443D01*
X122653311Y-126231443D01*
X122686933Y-126425088D01*
X122788014Y-126593648D01*
X122942997Y-126714517D01*
X123131102Y-126771488D01*
X123327105Y-126756922D01*
X123504724Y-126672773D01*
X123640138Y-126530323D01*
X123715363Y-126348268D01*
X123717900Y-126140602D01*
X123647146Y-125956762D01*
X123515252Y-125811046D01*
X123339743Y-125722582D01*
X123144154Y-125703232D01*
X122954714Y-125755592D01*
X122796823Y-125872637D01*
X122691654Y-126038676D01*
X122653311Y-126231443D01*
X117747790Y-126231443D01*
X117748900Y-126140602D01*
X117678146Y-125956762D01*
X117546252Y-125811046D01*
X117370743Y-125722582D01*
X117175154Y-125703232D01*
X116985714Y-125755592D01*
X116827823Y-125872637D01*
X116722654Y-126038676D01*
X116684311Y-126231443D01*
X116577074Y-126231443D01*
X116655138Y-126149323D01*
X116730363Y-125967268D01*
X116732900Y-125759602D01*
X116662146Y-125575762D01*
X116571356Y-125475458D01*
X116655138Y-125387323D01*
X116730363Y-125205268D01*
X116732900Y-124997602D01*
X116670106Y-124834443D01*
X119732307Y-124834443D01*
X119765929Y-125028088D01*
X119867010Y-125196648D01*
X120021993Y-125317517D01*
X120210098Y-125374488D01*
X120259935Y-125370784D01*
X120240311Y-125469443D01*
X120273933Y-125663088D01*
X120375014Y-125831648D01*
X120529997Y-125952517D01*
X120718102Y-126009488D01*
X120914105Y-125994922D01*
X121091724Y-125910773D01*
X121227138Y-125768323D01*
X121302363Y-125586268D01*
X121304900Y-125378602D01*
X121234146Y-125194762D01*
X121102252Y-125049046D01*
X120959842Y-124977265D01*
X122653307Y-124977265D01*
X122686929Y-125170910D01*
X122788010Y-125339470D01*
X122942993Y-125460339D01*
X123131098Y-125517310D01*
X123327101Y-125502744D01*
X123504720Y-125418595D01*
X123639886Y-125276406D01*
X123671514Y-125329148D01*
X123826497Y-125450017D01*
X124014602Y-125506988D01*
X124210605Y-125492422D01*
X124388224Y-125408273D01*
X124523638Y-125265823D01*
X124526777Y-125258227D01*
X124566008Y-125323648D01*
X124720991Y-125444517D01*
X124909096Y-125501488D01*
X125105099Y-125486922D01*
X125282718Y-125402773D01*
X125418132Y-125260323D01*
X125493357Y-125078268D01*
X125494784Y-124961443D01*
X127098299Y-124961443D01*
X127131921Y-125155088D01*
X127233002Y-125323648D01*
X127387985Y-125444517D01*
X127576090Y-125501488D01*
X127772093Y-125486922D01*
X127949712Y-125402773D01*
X128084460Y-125261024D01*
X128122014Y-125323648D01*
X128276997Y-125444517D01*
X128465102Y-125501488D01*
X128661105Y-125486922D01*
X128838724Y-125402773D01*
X128974138Y-125260323D01*
X129049363Y-125078268D01*
X129051900Y-124870602D01*
X128981146Y-124686762D01*
X128849252Y-124541046D01*
X128673743Y-124452582D01*
X128478154Y-124433232D01*
X128288714Y-124485592D01*
X128130823Y-124602637D01*
X128083547Y-124677275D01*
X127960240Y-124541046D01*
X127784731Y-124452582D01*
X127589142Y-124433232D01*
X127399702Y-124485592D01*
X127241811Y-124602637D01*
X127136642Y-124768676D01*
X127098299Y-124961443D01*
X125494784Y-124961443D01*
X125495894Y-124870602D01*
X125425140Y-124686762D01*
X125293246Y-124541046D01*
X125117737Y-124452582D01*
X124922148Y-124433232D01*
X124732708Y-124485592D01*
X124574817Y-124602637D01*
X124523235Y-124684074D01*
X124398752Y-124546546D01*
X124223243Y-124458082D01*
X124027654Y-124438732D01*
X123838214Y-124491092D01*
X123680323Y-124608137D01*
X123631468Y-124685268D01*
X123515248Y-124556868D01*
X123339739Y-124468404D01*
X123144150Y-124449054D01*
X122954710Y-124501414D01*
X122796819Y-124618459D01*
X122691650Y-124784498D01*
X122653307Y-124977265D01*
X120959842Y-124977265D01*
X120926743Y-124960582D01*
X120794405Y-124947490D01*
X120796896Y-124743602D01*
X120726142Y-124559762D01*
X120594248Y-124414046D01*
X120561281Y-124397429D01*
X120583724Y-124386797D01*
X120719138Y-124244347D01*
X120794363Y-124062292D01*
X120796818Y-123861333D01*
X121827811Y-123861333D01*
X121861433Y-124054978D01*
X121962514Y-124223538D01*
X122117497Y-124344407D01*
X122305602Y-124401378D01*
X122501605Y-124386812D01*
X122679224Y-124302663D01*
X122814638Y-124160213D01*
X122889863Y-123978158D01*
X122892400Y-123770492D01*
X122821646Y-123586652D01*
X122689752Y-123440936D01*
X122514243Y-123352472D01*
X122318654Y-123333122D01*
X122129214Y-123385482D01*
X121971323Y-123502527D01*
X121866154Y-123668566D01*
X121827811Y-123861333D01*
X120796818Y-123861333D01*
X120796900Y-123854625D01*
X120793161Y-123844910D01*
X120914105Y-123835922D01*
X121091724Y-123751773D01*
X121227138Y-123609323D01*
X121302363Y-123427268D01*
X121304900Y-123219602D01*
X121234146Y-123035762D01*
X121102252Y-122890046D01*
X120926743Y-122801582D01*
X120731154Y-122782232D01*
X120541714Y-122834592D01*
X120383823Y-122951637D01*
X120278654Y-123117676D01*
X120240311Y-123310443D01*
X120259481Y-123420851D01*
X120223154Y-123417257D01*
X120033714Y-123469616D01*
X119875823Y-123586661D01*
X119770654Y-123752700D01*
X119732311Y-123945467D01*
X119765933Y-124139112D01*
X119867014Y-124307672D01*
X119981722Y-124397131D01*
X119875819Y-124475637D01*
X119770650Y-124641676D01*
X119732307Y-124834443D01*
X116670106Y-124834443D01*
X116662146Y-124813762D01*
X116530252Y-124668046D01*
X116354743Y-124579582D01*
X116159154Y-124560232D01*
X115969714Y-124612592D01*
X115811823Y-124729637D01*
X115706654Y-124895676D01*
X115687759Y-124990672D01*
X115641256Y-124939296D01*
X115465747Y-124850832D01*
X115270158Y-124831482D01*
X115080718Y-124883842D01*
X114922827Y-125000887D01*
X114881982Y-125065373D01*
X114752251Y-124922047D01*
X114576742Y-124833583D01*
X114381153Y-124814233D01*
X114191713Y-124866593D01*
X114033822Y-124983638D01*
X113928653Y-125149677D01*
X113896515Y-125311251D01*
X113756550Y-125297404D01*
X113567110Y-125349764D01*
X113409219Y-125466809D01*
X113304050Y-125632848D01*
X113265707Y-125825615D01*
X113299329Y-126019260D01*
X113400410Y-126187820D01*
X113555393Y-126308689D01*
X113725698Y-126360269D01*
X113556714Y-126406975D01*
X113398823Y-126524020D01*
X113293654Y-126690059D01*
X113255311Y-126882826D01*
X111700212Y-126882826D01*
X111587154Y-126871641D01*
X111397714Y-126924001D01*
X111239823Y-127041046D01*
X111134654Y-127207085D01*
X111096311Y-127399852D01*
X104397079Y-127399852D01*
X104360562Y-127304972D01*
X104228668Y-127159256D01*
X104053159Y-127070792D01*
X103857570Y-127051442D01*
X103668130Y-127103802D01*
X103510239Y-127220847D01*
X103405070Y-127386886D01*
X103366727Y-127579653D01*
X97242356Y-127579653D01*
X97390166Y-126706052D01*
X97580703Y-125802140D01*
X97697052Y-125342443D01*
X101698311Y-125342443D01*
X101731933Y-125536088D01*
X101833014Y-125704648D01*
X101987997Y-125825517D01*
X102176102Y-125882488D01*
X102372105Y-125867922D01*
X102549724Y-125783773D01*
X102685138Y-125641323D01*
X102729338Y-125534351D01*
X111186436Y-125534351D01*
X111220058Y-125727996D01*
X111321139Y-125896556D01*
X111476122Y-126017425D01*
X111664227Y-126074396D01*
X111860230Y-126059830D01*
X112037849Y-125975681D01*
X112173263Y-125833231D01*
X112248488Y-125651176D01*
X112251025Y-125443510D01*
X112180271Y-125259670D01*
X112048377Y-125113954D01*
X111872868Y-125025490D01*
X111677279Y-125006140D01*
X111487839Y-125058500D01*
X111329948Y-125175545D01*
X111224779Y-125341584D01*
X111186436Y-125534351D01*
X102729338Y-125534351D01*
X102760363Y-125459268D01*
X102762900Y-125251602D01*
X102692146Y-125067762D01*
X102585937Y-124950422D01*
X102777811Y-124950422D01*
X102811433Y-125144067D01*
X102912514Y-125312627D01*
X103067497Y-125433496D01*
X103255602Y-125490467D01*
X103451605Y-125475901D01*
X103629224Y-125391752D01*
X103764638Y-125249302D01*
X103839863Y-125067247D01*
X103842400Y-124859581D01*
X103783848Y-124707443D01*
X111985311Y-124707443D01*
X112018933Y-124901088D01*
X112120014Y-125069648D01*
X112274997Y-125190517D01*
X112463102Y-125247488D01*
X112659105Y-125232922D01*
X112836724Y-125148773D01*
X112972138Y-125006323D01*
X113047363Y-124824268D01*
X113049900Y-124616602D01*
X112979146Y-124432762D01*
X112847252Y-124287046D01*
X112671743Y-124198582D01*
X112476154Y-124179232D01*
X112286714Y-124231592D01*
X112128823Y-124348637D01*
X112023654Y-124514676D01*
X111985311Y-124707443D01*
X103783848Y-124707443D01*
X103771646Y-124675741D01*
X103639752Y-124530025D01*
X103464243Y-124441561D01*
X103268654Y-124422211D01*
X103079214Y-124474571D01*
X102921323Y-124591616D01*
X102816154Y-124757655D01*
X102777811Y-124950422D01*
X102585937Y-124950422D01*
X102560252Y-124922046D01*
X102384743Y-124833582D01*
X102189154Y-124814232D01*
X101999714Y-124866592D01*
X101841823Y-124983637D01*
X101736654Y-125149676D01*
X101698311Y-125342443D01*
X97697052Y-125342443D01*
X97807363Y-124906604D01*
X98004665Y-124240659D01*
X101696343Y-124240659D01*
X101729965Y-124434304D01*
X101831046Y-124602864D01*
X101986029Y-124723733D01*
X102174134Y-124780704D01*
X102370137Y-124766138D01*
X102547756Y-124681989D01*
X102683170Y-124539539D01*
X102758395Y-124357484D01*
X102760932Y-124149818D01*
X102690178Y-123965978D01*
X102558284Y-123820262D01*
X102382775Y-123731798D01*
X102246154Y-123718282D01*
X102372101Y-123708922D01*
X102549720Y-123624773D01*
X102584297Y-123588399D01*
X102841309Y-123588399D01*
X102874931Y-123782044D01*
X102976012Y-123950604D01*
X103130995Y-124071473D01*
X103319100Y-124128444D01*
X103515103Y-124113878D01*
X103692722Y-124029729D01*
X103821142Y-123894636D01*
X113890311Y-123894636D01*
X113923933Y-124088281D01*
X114025014Y-124256841D01*
X114179997Y-124377710D01*
X114368102Y-124434681D01*
X114564105Y-124420115D01*
X114741724Y-124335966D01*
X114877138Y-124193516D01*
X114952363Y-124011461D01*
X114953421Y-123924833D01*
X115668307Y-123924833D01*
X115701929Y-124118478D01*
X115803010Y-124287038D01*
X115957993Y-124407907D01*
X116146098Y-124464878D01*
X116342101Y-124450312D01*
X116519720Y-124366163D01*
X116655134Y-124223713D01*
X116730359Y-124041658D01*
X116731786Y-123924833D01*
X117573311Y-123924833D01*
X117606933Y-124118478D01*
X117708014Y-124287038D01*
X117862997Y-124407907D01*
X118051102Y-124464878D01*
X118247105Y-124450312D01*
X118424724Y-124366163D01*
X118551888Y-124232392D01*
X118597022Y-124307656D01*
X118752005Y-124428525D01*
X118940110Y-124485496D01*
X119136113Y-124470930D01*
X119313732Y-124386781D01*
X119449146Y-124244331D01*
X119524371Y-124062276D01*
X119526908Y-123854610D01*
X119456154Y-123670770D01*
X119324260Y-123525054D01*
X119148751Y-123436590D01*
X118953162Y-123417240D01*
X118763722Y-123469600D01*
X118605831Y-123586645D01*
X118566240Y-123649151D01*
X118435252Y-123504436D01*
X118259743Y-123415972D01*
X118064154Y-123396622D01*
X117874714Y-123448982D01*
X117716823Y-123566027D01*
X117611654Y-123732066D01*
X117573311Y-123924833D01*
X116731786Y-123924833D01*
X116732896Y-123833992D01*
X116662142Y-123650152D01*
X116530248Y-123504436D01*
X116354739Y-123415972D01*
X116159150Y-123396622D01*
X115969710Y-123448982D01*
X115811819Y-123566027D01*
X115706650Y-123732066D01*
X115668307Y-123924833D01*
X114953421Y-123924833D01*
X114954900Y-123803795D01*
X114884146Y-123619955D01*
X114752252Y-123474239D01*
X114576743Y-123385775D01*
X114381154Y-123366425D01*
X114191714Y-123418785D01*
X114033823Y-123535830D01*
X113928654Y-123701869D01*
X113890311Y-123894636D01*
X103821142Y-123894636D01*
X103828136Y-123887279D01*
X103903361Y-123705224D01*
X103905898Y-123497558D01*
X103835144Y-123313718D01*
X103774703Y-123246943D01*
X112239311Y-123246943D01*
X112272933Y-123440588D01*
X112374014Y-123609148D01*
X112528997Y-123730017D01*
X112717102Y-123786988D01*
X112913105Y-123772422D01*
X113090724Y-123688273D01*
X113226138Y-123545823D01*
X113301363Y-123363768D01*
X113303900Y-123156102D01*
X113233146Y-122972262D01*
X113101252Y-122826546D01*
X112925743Y-122738082D01*
X112730154Y-122718732D01*
X112540714Y-122771092D01*
X112382823Y-122888137D01*
X112277654Y-123054176D01*
X112239311Y-123246943D01*
X103774703Y-123246943D01*
X103703250Y-123168002D01*
X103527741Y-123079538D01*
X103332152Y-123060188D01*
X103142712Y-123112548D01*
X102984821Y-123229593D01*
X102879652Y-123395632D01*
X102841309Y-123588399D01*
X102584297Y-123588399D01*
X102685134Y-123482323D01*
X102760359Y-123300268D01*
X102762896Y-123092602D01*
X102692142Y-122908762D01*
X102560248Y-122763046D01*
X102384739Y-122674582D01*
X102189150Y-122655232D01*
X101999710Y-122707592D01*
X101841819Y-122824637D01*
X101736650Y-122990676D01*
X101698307Y-123183443D01*
X101731929Y-123377088D01*
X101833010Y-123545648D01*
X101987993Y-123666517D01*
X102162330Y-123719318D01*
X101997746Y-123764808D01*
X101839855Y-123881853D01*
X101734686Y-124047892D01*
X101696343Y-124240659D01*
X98004665Y-124240659D01*
X98069774Y-124020901D01*
X98367537Y-123146396D01*
X98604408Y-122532631D01*
X103476311Y-122532631D01*
X103509933Y-122726276D01*
X103611014Y-122894836D01*
X103765997Y-123015705D01*
X103954102Y-123072676D01*
X104150105Y-123058110D01*
X104327724Y-122973961D01*
X104463138Y-122831511D01*
X104538363Y-122649456D01*
X104540900Y-122441790D01*
X104470146Y-122257950D01*
X104383801Y-122162556D01*
X104463138Y-122079098D01*
X104538363Y-121897043D01*
X104539327Y-121818067D01*
X114398311Y-121818067D01*
X114431933Y-122011712D01*
X114533014Y-122180272D01*
X114687997Y-122301141D01*
X114876102Y-122358112D01*
X115072105Y-122343546D01*
X115249724Y-122259397D01*
X115385138Y-122116947D01*
X115460363Y-121934892D01*
X115460638Y-121912350D01*
X115638102Y-121966098D01*
X115834105Y-121951532D01*
X116011724Y-121867383D01*
X116147138Y-121724933D01*
X116222363Y-121542878D01*
X116224900Y-121335212D01*
X116154146Y-121151372D01*
X116022252Y-121005656D01*
X115846743Y-120917192D01*
X115709256Y-120903590D01*
X115834105Y-120894312D01*
X116011724Y-120810163D01*
X116049482Y-120770443D01*
X116684311Y-120770443D01*
X116717933Y-120964088D01*
X116819014Y-121132648D01*
X116973997Y-121253517D01*
X117162102Y-121310488D01*
X117358105Y-121295922D01*
X117535724Y-121211773D01*
X117671138Y-121069323D01*
X117746363Y-120887268D01*
X117747790Y-120770459D01*
X119732311Y-120770459D01*
X119765933Y-120964104D01*
X119867014Y-121132664D01*
X120021997Y-121253533D01*
X120210102Y-121310504D01*
X120406105Y-121295938D01*
X120583724Y-121211789D01*
X120718471Y-121070042D01*
X120756014Y-121132648D01*
X120910997Y-121253517D01*
X121099102Y-121310488D01*
X121295105Y-121295922D01*
X121472724Y-121211773D01*
X121608138Y-121069323D01*
X121683363Y-120887268D01*
X121684790Y-120770443D01*
X131797311Y-120770443D01*
X131830933Y-120964088D01*
X131932014Y-121132648D01*
X132086997Y-121253517D01*
X132275102Y-121310488D01*
X132471105Y-121295922D01*
X132648724Y-121211773D01*
X132784138Y-121069323D01*
X132859363Y-120887268D01*
X132861900Y-120679602D01*
X132791146Y-120495762D01*
X132659252Y-120350046D01*
X132483743Y-120261582D01*
X132288154Y-120242232D01*
X132098714Y-120294592D01*
X131940823Y-120411637D01*
X131835654Y-120577676D01*
X131797311Y-120770443D01*
X121684790Y-120770443D01*
X121685900Y-120679602D01*
X121615146Y-120495762D01*
X121483252Y-120350046D01*
X121307743Y-120261582D01*
X121112154Y-120242232D01*
X120922714Y-120294592D01*
X120764823Y-120411637D01*
X120717546Y-120486277D01*
X120594252Y-120350062D01*
X120418743Y-120261598D01*
X120223154Y-120242248D01*
X120033714Y-120294608D01*
X119875823Y-120411653D01*
X119770654Y-120577692D01*
X119732311Y-120770459D01*
X117747790Y-120770459D01*
X117748900Y-120679602D01*
X117678146Y-120495762D01*
X117546252Y-120350046D01*
X117370743Y-120261582D01*
X117175154Y-120242232D01*
X116985714Y-120294592D01*
X116827823Y-120411637D01*
X116722654Y-120577676D01*
X116684311Y-120770443D01*
X116049482Y-120770443D01*
X116147138Y-120667713D01*
X116222363Y-120485658D01*
X116224900Y-120277992D01*
X116154146Y-120094152D01*
X116022252Y-119948436D01*
X115846743Y-119859972D01*
X115651154Y-119840622D01*
X115461714Y-119892982D01*
X115303823Y-120010027D01*
X115198654Y-120176066D01*
X115160311Y-120368833D01*
X115193933Y-120562478D01*
X115236348Y-120633208D01*
X115084743Y-120556793D01*
X114889154Y-120537443D01*
X114699714Y-120589803D01*
X114541823Y-120706848D01*
X114436654Y-120872887D01*
X114398311Y-121065654D01*
X114431933Y-121259299D01*
X114533014Y-121427859D01*
X114557950Y-121447306D01*
X114541823Y-121459261D01*
X114436654Y-121625300D01*
X114398311Y-121818067D01*
X104539327Y-121818067D01*
X104540900Y-121689377D01*
X104470146Y-121505537D01*
X104338252Y-121359821D01*
X104162743Y-121271357D01*
X103967154Y-121252007D01*
X103777714Y-121304367D01*
X103619823Y-121421412D01*
X103514654Y-121587451D01*
X103476311Y-121780218D01*
X103509933Y-121973863D01*
X103611014Y-122142423D01*
X103635950Y-122161870D01*
X103619823Y-122173825D01*
X103514654Y-122339864D01*
X103476311Y-122532631D01*
X98604408Y-122532631D01*
X98700143Y-122284571D01*
X98918429Y-121780218D01*
X99067059Y-121436810D01*
X99245710Y-121065654D01*
X99467705Y-120604452D01*
X99901846Y-119788060D01*
X99921176Y-119754443D01*
X109572311Y-119754443D01*
X109605933Y-119948088D01*
X109707014Y-120116648D01*
X109861997Y-120237517D01*
X110050102Y-120294488D01*
X110246105Y-120279922D01*
X110423724Y-120195773D01*
X110559138Y-120053323D01*
X110634363Y-119871268D01*
X110636900Y-119663602D01*
X110574106Y-119500443D01*
X119732311Y-119500443D01*
X119765933Y-119694088D01*
X119867014Y-119862648D01*
X120021997Y-119983517D01*
X120210102Y-120040488D01*
X120406105Y-120025922D01*
X120583724Y-119941773D01*
X120718465Y-119800032D01*
X120756014Y-119862648D01*
X120910997Y-119983517D01*
X121099102Y-120040488D01*
X121295105Y-120025922D01*
X121472724Y-119941773D01*
X121607465Y-119800032D01*
X121645014Y-119862648D01*
X121799997Y-119983517D01*
X121988102Y-120040488D01*
X122184105Y-120025922D01*
X122361724Y-119941773D01*
X122496465Y-119800032D01*
X122534014Y-119862648D01*
X122688997Y-119983517D01*
X122877102Y-120040488D01*
X123073105Y-120025922D01*
X123250724Y-119941773D01*
X123385465Y-119800032D01*
X123423014Y-119862648D01*
X123577997Y-119983517D01*
X123766102Y-120040488D01*
X123962105Y-120025922D01*
X124139724Y-119941773D01*
X124275138Y-119799323D01*
X124350363Y-119617268D01*
X124351790Y-119500443D01*
X130527311Y-119500443D01*
X130560933Y-119694088D01*
X130662014Y-119862648D01*
X130816997Y-119983517D01*
X131005102Y-120040488D01*
X131201105Y-120025922D01*
X131378724Y-119941773D01*
X131514138Y-119799323D01*
X131589363Y-119617268D01*
X131591900Y-119409602D01*
X131521146Y-119225762D01*
X131389252Y-119080046D01*
X131213743Y-118991582D01*
X131018154Y-118972232D01*
X130828714Y-119024592D01*
X130670823Y-119141637D01*
X130565654Y-119307676D01*
X130527311Y-119500443D01*
X124351790Y-119500443D01*
X124352900Y-119409602D01*
X124282146Y-119225762D01*
X124150252Y-119080046D01*
X123974743Y-118991582D01*
X123779154Y-118972232D01*
X123589714Y-119024592D01*
X123431823Y-119141637D01*
X123384552Y-119216267D01*
X123261252Y-119080046D01*
X123085743Y-118991582D01*
X122890154Y-118972232D01*
X122700714Y-119024592D01*
X122542823Y-119141637D01*
X122495552Y-119216267D01*
X122372252Y-119080046D01*
X122196743Y-118991582D01*
X122001154Y-118972232D01*
X121811714Y-119024592D01*
X121653823Y-119141637D01*
X121606552Y-119216267D01*
X121483252Y-119080046D01*
X121307743Y-118991582D01*
X121112154Y-118972232D01*
X120922714Y-119024592D01*
X120764823Y-119141637D01*
X120717552Y-119216267D01*
X120594252Y-119080046D01*
X120418743Y-118991582D01*
X120223154Y-118972232D01*
X120033714Y-119024592D01*
X119875823Y-119141637D01*
X119770654Y-119307676D01*
X119732311Y-119500443D01*
X110574106Y-119500443D01*
X110566146Y-119479762D01*
X110434252Y-119334046D01*
X110258743Y-119245582D01*
X110063154Y-119226232D01*
X109873714Y-119278592D01*
X109715823Y-119395637D01*
X109610654Y-119561676D01*
X109572311Y-119754443D01*
X99921176Y-119754443D01*
X100206901Y-119257555D01*
X100219933Y-119208581D01*
X100227601Y-119179961D01*
X100227601Y-119179762D01*
X100235630Y-119149589D01*
X100227601Y-119119835D01*
X100227601Y-118738443D01*
X117446307Y-118738443D01*
X117479929Y-118932088D01*
X117581010Y-119100648D01*
X117735993Y-119221517D01*
X117924098Y-119278488D01*
X118120101Y-119263922D01*
X118297720Y-119179773D01*
X118433134Y-119037323D01*
X118508359Y-118855268D01*
X118510896Y-118647602D01*
X118440142Y-118463762D01*
X118308248Y-118318046D01*
X118132739Y-118229582D01*
X117937150Y-118210232D01*
X117747710Y-118262592D01*
X117589819Y-118379637D01*
X117484650Y-118545676D01*
X117446307Y-118738443D01*
X100227601Y-118738443D01*
X100227601Y-117931200D01*
X105851437Y-117931200D01*
X105850780Y-117722443D01*
X123288311Y-117722443D01*
X123321933Y-117916088D01*
X123423014Y-118084648D01*
X123577997Y-118205517D01*
X123766102Y-118262488D01*
X123962105Y-118247922D01*
X124139724Y-118163773D01*
X124275138Y-118021323D01*
X124350363Y-117839268D01*
X124352900Y-117631602D01*
X124282146Y-117447762D01*
X124150252Y-117302046D01*
X123974743Y-117213582D01*
X123779154Y-117194232D01*
X123589714Y-117246592D01*
X123431823Y-117363637D01*
X123326654Y-117529676D01*
X123288311Y-117722443D01*
X105850780Y-117722443D01*
X105848010Y-116843275D01*
X115734701Y-116843275D01*
X115768323Y-117036920D01*
X115869404Y-117205480D01*
X116024387Y-117326349D01*
X116212492Y-117383320D01*
X116408495Y-117368754D01*
X116586114Y-117284605D01*
X116721528Y-117142155D01*
X116796753Y-116960100D01*
X116799290Y-116752434D01*
X116728536Y-116568594D01*
X116623403Y-116452443D01*
X118843311Y-116452443D01*
X118876933Y-116646088D01*
X118978014Y-116814648D01*
X119132997Y-116935517D01*
X119321102Y-116992488D01*
X119517105Y-116977922D01*
X119694724Y-116893773D01*
X119829465Y-116752032D01*
X119867014Y-116814648D01*
X120021997Y-116935517D01*
X120210102Y-116992488D01*
X120406105Y-116977922D01*
X120583724Y-116893773D01*
X120705827Y-116765326D01*
X120735404Y-116814648D01*
X120890387Y-116935517D01*
X121078492Y-116992488D01*
X121274495Y-116977922D01*
X121452114Y-116893773D01*
X121587528Y-116751323D01*
X121662753Y-116569268D01*
X121665290Y-116361602D01*
X121594536Y-116177762D01*
X121462642Y-116032046D01*
X121287133Y-115943582D01*
X121091544Y-115924232D01*
X120902104Y-115976592D01*
X120744213Y-116093637D01*
X120705427Y-116154872D01*
X120594252Y-116032046D01*
X120418743Y-115943582D01*
X120223154Y-115924232D01*
X120033714Y-115976592D01*
X119875823Y-116093637D01*
X119828552Y-116168267D01*
X119705252Y-116032046D01*
X119529743Y-115943582D01*
X119334154Y-115924232D01*
X119144714Y-115976592D01*
X118986823Y-116093637D01*
X118881654Y-116259676D01*
X118843311Y-116452443D01*
X116623403Y-116452443D01*
X116596642Y-116422878D01*
X116421133Y-116334414D01*
X116225544Y-116315064D01*
X116036104Y-116367424D01*
X115878213Y-116484469D01*
X115773044Y-116650508D01*
X115734701Y-116843275D01*
X105848010Y-116843275D01*
X105843579Y-115436443D01*
X125066307Y-115436443D01*
X125099929Y-115630088D01*
X125201010Y-115798648D01*
X125355993Y-115919517D01*
X125544098Y-115976488D01*
X125740101Y-115961922D01*
X125917720Y-115877773D01*
X126053134Y-115735323D01*
X126128359Y-115553268D01*
X126130896Y-115345602D01*
X126060142Y-115161762D01*
X125928248Y-115016046D01*
X125752739Y-114927582D01*
X125557150Y-114908232D01*
X125367710Y-114960592D01*
X125209819Y-115077637D01*
X125104650Y-115243676D01*
X125066307Y-115436443D01*
X105843579Y-115436443D01*
X105835522Y-112879154D01*
X112366454Y-112879154D01*
X112400076Y-113072799D01*
X112501157Y-113241359D01*
X112656140Y-113362228D01*
X112844245Y-113419199D01*
X113040248Y-113404633D01*
X113217867Y-113320484D01*
X113353281Y-113178034D01*
X113428506Y-112995979D01*
X113431043Y-112788313D01*
X113360289Y-112604473D01*
X113228395Y-112458757D01*
X113052886Y-112370293D01*
X112857297Y-112350943D01*
X112667857Y-112403303D01*
X112509966Y-112520348D01*
X112404797Y-112686387D01*
X112366454Y-112879154D01*
X105835522Y-112879154D01*
X105832376Y-111880443D01*
X113890309Y-111880443D01*
X113923931Y-112074088D01*
X114025012Y-112242648D01*
X114179995Y-112363517D01*
X114368100Y-112420488D01*
X114564103Y-112405922D01*
X114741722Y-112321773D01*
X114877136Y-112179323D01*
X114952361Y-111997268D01*
X114954898Y-111789602D01*
X114884144Y-111605762D01*
X114752250Y-111460046D01*
X114576741Y-111371582D01*
X114381152Y-111352232D01*
X114191712Y-111404592D01*
X114033821Y-111521637D01*
X113928652Y-111687676D01*
X113890309Y-111880443D01*
X105832376Y-111880443D01*
X105823595Y-109093443D01*
X107963311Y-109093443D01*
X107996933Y-109287088D01*
X108098014Y-109455648D01*
X108252997Y-109576517D01*
X108441102Y-109633488D01*
X108637105Y-109618922D01*
X108814724Y-109534773D01*
X108950138Y-109392323D01*
X109025363Y-109210268D01*
X109027900Y-109002602D01*
X108957146Y-108818762D01*
X108825252Y-108673046D01*
X108664312Y-108591925D01*
X116926272Y-108591925D01*
X116959894Y-108785570D01*
X117060975Y-108954130D01*
X117091914Y-108978259D01*
X117082243Y-108985428D01*
X116977074Y-109151467D01*
X116938731Y-109344234D01*
X116972353Y-109537879D01*
X117073434Y-109706439D01*
X117228417Y-109827308D01*
X117416522Y-109884279D01*
X117612525Y-109869713D01*
X117790144Y-109785564D01*
X117925558Y-109643114D01*
X118000783Y-109461059D01*
X118003320Y-109253393D01*
X117987945Y-109213443D01*
X119986311Y-109213443D01*
X120019933Y-109407088D01*
X120121014Y-109575648D01*
X120275997Y-109696517D01*
X120464102Y-109753488D01*
X120660105Y-109738922D01*
X120837724Y-109654773D01*
X120973138Y-109512323D01*
X121048363Y-109330268D01*
X121050900Y-109122602D01*
X120980146Y-108938762D01*
X120848252Y-108793046D01*
X120672743Y-108704582D01*
X120477154Y-108685232D01*
X120287714Y-108737592D01*
X120129823Y-108854637D01*
X120024654Y-109020676D01*
X119986311Y-109213443D01*
X117987945Y-109213443D01*
X117932566Y-109069553D01*
X117840193Y-108967499D01*
X117913099Y-108890805D01*
X117988324Y-108708750D01*
X117990861Y-108501084D01*
X117922878Y-108324443D01*
X122526311Y-108324443D01*
X122559933Y-108518088D01*
X122661014Y-108686648D01*
X122815997Y-108807517D01*
X123004102Y-108864488D01*
X123200105Y-108849922D01*
X123377724Y-108765773D01*
X123513138Y-108623323D01*
X123588363Y-108441268D01*
X123590900Y-108233602D01*
X123520146Y-108049762D01*
X123388252Y-107904046D01*
X123212743Y-107815582D01*
X123017154Y-107796232D01*
X122827714Y-107848592D01*
X122669823Y-107965637D01*
X122564654Y-108131676D01*
X122526311Y-108324443D01*
X117922878Y-108324443D01*
X117920107Y-108317244D01*
X117814549Y-108200624D01*
X117925146Y-108084282D01*
X118000371Y-107902227D01*
X118002908Y-107694561D01*
X117932154Y-107510721D01*
X117800260Y-107365005D01*
X117624751Y-107276541D01*
X117429162Y-107257191D01*
X117239722Y-107309551D01*
X117081831Y-107426596D01*
X116976662Y-107592635D01*
X116938319Y-107785402D01*
X116971941Y-107979047D01*
X117073022Y-108147607D01*
X117127658Y-108190217D01*
X117069784Y-108233119D01*
X116964615Y-108399158D01*
X116926272Y-108591925D01*
X108664312Y-108591925D01*
X108649743Y-108584582D01*
X108454154Y-108565232D01*
X108264714Y-108617592D01*
X108106823Y-108734637D01*
X108001654Y-108900676D01*
X107963311Y-109093443D01*
X105823595Y-109093443D01*
X105818067Y-107338455D01*
X112463311Y-107338455D01*
X112496933Y-107532100D01*
X112598014Y-107700660D01*
X112752997Y-107821529D01*
X112941102Y-107878500D01*
X113137105Y-107863934D01*
X113314724Y-107779785D01*
X113450138Y-107637335D01*
X113525363Y-107455280D01*
X113527900Y-107247614D01*
X113457146Y-107063774D01*
X113325252Y-106918058D01*
X113149743Y-106829594D01*
X112954154Y-106810244D01*
X112764714Y-106862604D01*
X112606823Y-106979649D01*
X112501654Y-107145688D01*
X112463311Y-107338455D01*
X105818067Y-107338455D01*
X105816028Y-106691304D01*
X111463311Y-106691304D01*
X111496933Y-106884949D01*
X111598014Y-107053509D01*
X111752997Y-107174378D01*
X111941102Y-107231349D01*
X112137105Y-107216783D01*
X112314724Y-107132634D01*
X112450138Y-106990184D01*
X112525363Y-106808129D01*
X112527097Y-106666122D01*
X114455984Y-106666122D01*
X114489606Y-106859767D01*
X114590687Y-107028327D01*
X114745670Y-107149196D01*
X114933775Y-107206167D01*
X115129778Y-107191601D01*
X115307397Y-107107452D01*
X115442811Y-106965002D01*
X115518036Y-106782947D01*
X115520573Y-106575281D01*
X115449819Y-106391441D01*
X115317925Y-106245725D01*
X115142416Y-106157261D01*
X114946827Y-106137911D01*
X114757387Y-106190271D01*
X114599496Y-106307316D01*
X114494327Y-106473355D01*
X114455984Y-106666122D01*
X112527097Y-106666122D01*
X112527900Y-106600463D01*
X112457146Y-106416623D01*
X112325252Y-106270907D01*
X112149743Y-106182443D01*
X111954154Y-106163093D01*
X111764714Y-106215453D01*
X111606823Y-106332498D01*
X111501654Y-106498537D01*
X111463311Y-106691304D01*
X105816028Y-106691304D01*
X105813964Y-106036437D01*
X110463311Y-106036437D01*
X110496933Y-106230082D01*
X110598014Y-106398642D01*
X110752997Y-106519511D01*
X110941102Y-106576482D01*
X111137105Y-106561916D01*
X111314724Y-106477767D01*
X111450138Y-106335317D01*
X111525363Y-106153262D01*
X111526093Y-106093455D01*
X124463299Y-106093455D01*
X124496921Y-106287100D01*
X124598002Y-106455660D01*
X124752985Y-106576529D01*
X124941090Y-106633500D01*
X125137093Y-106618934D01*
X125314712Y-106534785D01*
X125450126Y-106392335D01*
X125525351Y-106210280D01*
X125527888Y-106002614D01*
X125457134Y-105818774D01*
X125325240Y-105673058D01*
X125149731Y-105584594D01*
X124954142Y-105565244D01*
X124764702Y-105617604D01*
X124606811Y-105734649D01*
X124501642Y-105900688D01*
X124463299Y-106093455D01*
X111526093Y-106093455D01*
X111527900Y-105945596D01*
X111457146Y-105761756D01*
X111325252Y-105616040D01*
X111149743Y-105527576D01*
X110954154Y-105508226D01*
X110764714Y-105560586D01*
X110606823Y-105677631D01*
X110501654Y-105843670D01*
X110463311Y-106036437D01*
X105813964Y-106036437D01*
X105810770Y-105022443D01*
X133067311Y-105022443D01*
X133100933Y-105216088D01*
X133202014Y-105384648D01*
X133356997Y-105505517D01*
X133545102Y-105562488D01*
X133741105Y-105547922D01*
X133918724Y-105463773D01*
X134054138Y-105321323D01*
X134129363Y-105139268D01*
X134131900Y-104931602D01*
X134061146Y-104747762D01*
X133929252Y-104602046D01*
X133753743Y-104513582D01*
X133558154Y-104494232D01*
X133368714Y-104546592D01*
X133210823Y-104663637D01*
X133105654Y-104829676D01*
X133067311Y-105022443D01*
X105810770Y-105022443D01*
X105805568Y-103371443D01*
X118208311Y-103371443D01*
X118241933Y-103565088D01*
X118343014Y-103733648D01*
X118497997Y-103854517D01*
X118686102Y-103911488D01*
X118882105Y-103896922D01*
X119059724Y-103812773D01*
X119195138Y-103670323D01*
X119270363Y-103488268D01*
X119272900Y-103280602D01*
X119202146Y-103096762D01*
X119070252Y-102951046D01*
X118894743Y-102862582D01*
X118699154Y-102843232D01*
X118509714Y-102895592D01*
X118351823Y-103012637D01*
X118246654Y-103178676D01*
X118208311Y-103371443D01*
X105805568Y-103371443D01*
X105799259Y-101368989D01*
X107595401Y-101368989D01*
X107595401Y-101577011D01*
X107638651Y-101780487D01*
X107723261Y-101970525D01*
X107845534Y-102138819D01*
X108000124Y-102278012D01*
X108180277Y-102382024D01*
X108378118Y-102446306D01*
X108585000Y-102468050D01*
X108791882Y-102446306D01*
X108989723Y-102382024D01*
X109169876Y-102278012D01*
X109324466Y-102138819D01*
X109446739Y-101970525D01*
X109531349Y-101780487D01*
X109574599Y-101577011D01*
X109574599Y-101368989D01*
X130455401Y-101368989D01*
X130455401Y-101577011D01*
X130498651Y-101780487D01*
X130583261Y-101970525D01*
X130705534Y-102138819D01*
X130860124Y-102278012D01*
X131040277Y-102382024D01*
X131095149Y-102399853D01*
X130955714Y-102438392D01*
X130797823Y-102555437D01*
X130692654Y-102721476D01*
X130654311Y-102914243D01*
X130687933Y-103107888D01*
X130789014Y-103276448D01*
X130943997Y-103397317D01*
X131132102Y-103454288D01*
X131328105Y-103439722D01*
X131505724Y-103355573D01*
X131641138Y-103213123D01*
X131716363Y-103031068D01*
X131718900Y-102823402D01*
X131648146Y-102639562D01*
X131516252Y-102493846D01*
X131461610Y-102466304D01*
X131651882Y-102446306D01*
X131849723Y-102382024D01*
X132029876Y-102278012D01*
X132184466Y-102138819D01*
X132306739Y-101970525D01*
X132391349Y-101780487D01*
X132434599Y-101577011D01*
X132434599Y-101368989D01*
X132391349Y-101165513D01*
X132306739Y-100975475D01*
X132184466Y-100807181D01*
X132029876Y-100667988D01*
X131849723Y-100563976D01*
X131651882Y-100499694D01*
X131445000Y-100477950D01*
X131238118Y-100499694D01*
X131040277Y-100563976D01*
X130860124Y-100667988D01*
X130705534Y-100807181D01*
X130583261Y-100975475D01*
X130498651Y-101165513D01*
X130455401Y-101368989D01*
X109574599Y-101368989D01*
X109531349Y-101165513D01*
X109446739Y-100975475D01*
X109324466Y-100807181D01*
X109169876Y-100667988D01*
X108989723Y-100563976D01*
X108791882Y-100499694D01*
X108585000Y-100477950D01*
X108378118Y-100499694D01*
X108180277Y-100563976D01*
X108000124Y-100667988D01*
X107845534Y-100807181D01*
X107723261Y-100975475D01*
X107638651Y-101165513D01*
X107595401Y-101368989D01*
X105799259Y-101368989D01*
X105795663Y-100227571D01*
X139772401Y-100227400D01*
X139772399Y-119119017D01*
X139764379Y-119147930D01*
X139772399Y-119178949D01*
X139772399Y-119179961D01*
X139779870Y-119207845D01*
X139792346Y-119256095D01*
X140254373Y-120072834D01*
X140676572Y-120894459D01*
X141065476Y-121732406D01*
X141420430Y-122585266D01*
X141740871Y-123451682D01*
X142026284Y-124330264D01*
X142276207Y-125219585D01*
X142490241Y-126118237D01*
X142668038Y-127024743D01*
X142809307Y-127937627D01*
X142913833Y-128855505D01*
X142979928Y-129756250D01*
X142952984Y-132648882D01*
X142881377Y-133466818D01*
X142763943Y-134383121D01*
X142609835Y-135293944D01*
X142419298Y-136197854D01*
X142192639Y-137093389D01*
X141930223Y-137979106D01*
X141632460Y-138853612D01*
X141299857Y-139715429D01*
X140932946Y-140563178D01*
X140532295Y-141395548D01*
X140098166Y-142211917D01*
X139802747Y-142725668D01*
X139795463Y-142733006D01*
X139780062Y-142791439D01*
X139764370Y-142850411D01*
X139772524Y-142880629D01*
X139800771Y-149780941D01*
X139798629Y-149837088D01*
X139815380Y-149868839D01*
X139824812Y-149903469D01*
X139843353Y-149921859D01*
X139850761Y-149935900D01*
X140291291Y-150411363D01*
X140691187Y-150899661D01*
X141060545Y-151411488D01*
X141397967Y-151944908D01*
X141702177Y-152497899D01*
X141972079Y-153068470D01*
X142206625Y-153654407D01*
X142404976Y-154253604D01*
X142566375Y-154863785D01*
X142690225Y-155482693D01*
X142737112Y-155824270D01*
X142709626Y-158775091D01*
X142628824Y-159248596D01*
X142484868Y-159863125D01*
X142303668Y-160467705D01*
X142085882Y-161060139D01*
X141832364Y-161638106D01*
X141544006Y-162199574D01*
X141221912Y-162742388D01*
X140867307Y-163264485D01*
X140481459Y-163764002D01*
X140065860Y-164239004D01*
X139622026Y-164687760D01*
X139151618Y-165108589D01*
X138656412Y-165499903D01*
X138138206Y-165860278D01*
X137599027Y-166188311D01*
X137040786Y-166482837D01*
X136465604Y-166742736D01*
X135875655Y-166967024D01*
X135273067Y-167154894D01*
X134660187Y-167305612D01*
X134039221Y-167418640D01*
X133412500Y-167493548D01*
X132780430Y-167530171D01*
X132486917Y-167534181D01*
X132468453Y-167539400D01*
X129615133Y-167539400D01*
X129576856Y-167102164D01*
X129576942Y-167101387D01*
X129576583Y-167099040D01*
X129576375Y-167096667D01*
X129576107Y-167095930D01*
X129482820Y-166486540D01*
X129482856Y-166485756D01*
X129482344Y-166483429D01*
X129481986Y-166481089D01*
X129481673Y-166480375D01*
X129372197Y-165982581D01*
X131590675Y-165982581D01*
X131827485Y-166150872D01*
X132041915Y-166251776D01*
X132270825Y-166313113D01*
X132506979Y-166332943D01*
X132742913Y-166310641D01*
X132971168Y-166246910D01*
X133184531Y-166143767D01*
X133408086Y-165981342D01*
X132500000Y-165073256D01*
X131590675Y-165982581D01*
X129372197Y-165982581D01*
X129349254Y-165878260D01*
X129349239Y-165877480D01*
X129349239Y-165877480D01*
G37*
X129349239Y-165877480D02*
X129348582Y-165875203D01*
X129348071Y-165872881D01*
X129347711Y-165872186D01*
X129176714Y-165279880D01*
X129176648Y-165279099D01*
X129175842Y-165276860D01*
X129175185Y-165274585D01*
X129174782Y-165273917D01*
X129063584Y-164965107D01*
X131167496Y-164965107D01*
X131182377Y-165201625D01*
X131238906Y-165431769D01*
X131335296Y-165648266D01*
X131514615Y-165912129D01*
X132426744Y-165000000D01*
X132573256Y-165000000D01*
X133474883Y-165901627D01*
X133540284Y-165833423D01*
X133671429Y-165636034D01*
X133765547Y-165418540D01*
X133819890Y-165186849D01*
X133827860Y-164882485D01*
X133785717Y-164648268D01*
X133703111Y-164426146D01*
X133582475Y-164222162D01*
X133475280Y-164097976D01*
X132573256Y-165000000D01*
X132426744Y-165000000D01*
X131520807Y-164094064D01*
X131370819Y-164291666D01*
X131263230Y-164502822D01*
X131194735Y-164729693D01*
X131167496Y-164965107D01*
X129063584Y-164965107D01*
X128965918Y-164693878D01*
X128965803Y-164693105D01*
X128964857Y-164690929D01*
X128964049Y-164688686D01*
X128963601Y-164688042D01*
X128717743Y-164122695D01*
X128717577Y-164121930D01*
X128716491Y-164119816D01*
X128715545Y-164117642D01*
X128715059Y-164117031D01*
X128667894Y-164025269D01*
X131598525Y-164025269D01*
X132500000Y-164926744D01*
X133403508Y-164023236D01*
X133243452Y-163893626D01*
X133035781Y-163779457D01*
X132811174Y-163703869D01*
X132576731Y-163669249D01*
X132339862Y-163676693D01*
X132108055Y-163725966D01*
X131888639Y-163815508D01*
X131688545Y-163942491D01*
X131598525Y-164025269D01*
X128667894Y-164025269D01*
X128433226Y-163568716D01*
X128433013Y-163567970D01*
X128431803Y-163565949D01*
X128430709Y-163563820D01*
X128430179Y-163563236D01*
X128113556Y-163034267D01*
X128113293Y-163033527D01*
X128111939Y-163031564D01*
X128110726Y-163029538D01*
X128110167Y-163028996D01*
X127760061Y-162521550D01*
X127759751Y-162520830D01*
X127758276Y-162518963D01*
X127756933Y-162517016D01*
X127756340Y-162516511D01*
X127374214Y-162032714D01*
X127373859Y-162032017D01*
X127372270Y-162030253D01*
X127370799Y-162028390D01*
X127370172Y-162027923D01*
X126957631Y-161569802D01*
X126957231Y-161569128D01*
X126955528Y-161567466D01*
X126953941Y-161565704D01*
X126953286Y-161565279D01*
X126512039Y-161134732D01*
X126511597Y-161134087D01*
X126509794Y-161132542D01*
X126508095Y-161130884D01*
X126507413Y-161130501D01*
X126039301Y-160729325D01*
X126038821Y-160728713D01*
X126036932Y-160727295D01*
X126035113Y-160725736D01*
X126034402Y-160725395D01*
X125541383Y-160355269D01*
X125540861Y-160354686D01*
X125538874Y-160353386D01*
X125536980Y-160351964D01*
X125536256Y-160351673D01*
X125020366Y-160014126D01*
X125019812Y-160013582D01*
X125017759Y-160012421D01*
X125015759Y-160011112D01*
X125015011Y-160010866D01*
X124478425Y-159707318D01*
X124477835Y-159706809D01*
X124475704Y-159705779D01*
X124473627Y-159704604D01*
X124472866Y-159704407D01*
X123917813Y-159436123D01*
X123917189Y-159435651D01*
X123914988Y-159434757D01*
X123912850Y-159433724D01*
X123912082Y-159433577D01*
X123340870Y-159201670D01*
X123340214Y-159201238D01*
X123337951Y-159200485D01*
X123335758Y-159199595D01*
X123334985Y-159199499D01*
X122749994Y-159004935D01*
X122749314Y-159004547D01*
X122747015Y-159003944D01*
X122744763Y-159003195D01*
X122743983Y-159003149D01*
X122147658Y-158846743D01*
X122146956Y-158846400D01*
X122144625Y-158845947D01*
X122142322Y-158845343D01*
X122141538Y-158845347D01*
X121536365Y-158727749D01*
X121535640Y-158727452D01*
X121533280Y-158727150D01*
X121530955Y-158726698D01*
X121530176Y-158726752D01*
X120918672Y-158648452D01*
X120917928Y-158648202D01*
X120915550Y-158648053D01*
X120913203Y-158647752D01*
X120912431Y-158647856D01*
X120297150Y-158609181D01*
X120296390Y-158608979D01*
X120294002Y-158608983D01*
X120291643Y-158608835D01*
X120290880Y-158608989D01*
X119674382Y-158610100D01*
X119673614Y-158609948D01*
X119671241Y-158610106D01*
X119668869Y-158610110D01*
X119668115Y-158610314D01*
X119052972Y-158651206D01*
X119052197Y-158651104D01*
X119049846Y-158651414D01*
X119047479Y-158651571D01*
X119046739Y-158651823D01*
X118435515Y-158732328D01*
X118434734Y-158732276D01*
X118432404Y-158732737D01*
X118430054Y-158733047D01*
X118429333Y-158733346D01*
X117824585Y-158853125D01*
X117823800Y-158853124D01*
X117821497Y-158853737D01*
X117819174Y-158854197D01*
X117818474Y-158854541D01*
X117222708Y-159013099D01*
X117221930Y-159013148D01*
X117219689Y-159013902D01*
X117217387Y-159014515D01*
X117216707Y-159014906D01*
X116632424Y-159211575D01*
X116631648Y-159211675D01*
X116629450Y-159212577D01*
X116627197Y-159213335D01*
X116626545Y-159213768D01*
X116056172Y-159447732D01*
X116055405Y-159447881D01*
X116053271Y-159448922D01*
X116051072Y-159449824D01*
X116050449Y-159450298D01*
X115496360Y-159720585D01*
X115495603Y-159720784D01*
X115493539Y-159721962D01*
X115491410Y-159723000D01*
X115490821Y-159723512D01*
X114955327Y-160028992D01*
X114954586Y-160029238D01*
X114952606Y-160030544D01*
X114950537Y-160031724D01*
X114949979Y-160032276D01*
X114435321Y-160371673D01*
X114434597Y-160371967D01*
X114432706Y-160373397D01*
X114430720Y-160374707D01*
X114430200Y-160375293D01*
X113938518Y-160747193D01*
X113937810Y-160747535D01*
X113936003Y-160749095D01*
X113934115Y-160750523D01*
X113933636Y-160751138D01*
X113466975Y-161153996D01*
X113466294Y-161154381D01*
X113464600Y-161156045D01*
X113462802Y-161157598D01*
X113462362Y-161158245D01*
X113022674Y-161590375D01*
X113022018Y-161590804D01*
X113020431Y-161592579D01*
X113018736Y-161594245D01*
X113018339Y-161594919D01*
X112607460Y-162054515D01*
X112606830Y-162054988D01*
X112605352Y-162056873D01*
X112603776Y-162058636D01*
X112603425Y-162059331D01*
X112223055Y-162544494D01*
X112222460Y-162545004D01*
X112221115Y-162546968D01*
X112219654Y-162548832D01*
X112219348Y-162549550D01*
X111871075Y-163058250D01*
X111870514Y-163058798D01*
X111869298Y-163060845D01*
X111867961Y-163062799D01*
X111867702Y-163063535D01*
X111552982Y-163593650D01*
X111552460Y-163594230D01*
X111551384Y-163596342D01*
X111550167Y-163598392D01*
X111549955Y-163599148D01*
X111270105Y-164148462D01*
X111269621Y-164149074D01*
X111268684Y-164151251D01*
X111267601Y-164153376D01*
X111267438Y-164154144D01*
X111023618Y-164720373D01*
X111023174Y-164721017D01*
X111022377Y-164723256D01*
X111021439Y-164725434D01*
X111021326Y-164726207D01*
X110814555Y-165306994D01*
X110814153Y-165307666D01*
X110813501Y-165309954D01*
X110812705Y-165312191D01*
X110812642Y-165312970D01*
X110643781Y-165905887D01*
X110643423Y-165906583D01*
X110642921Y-165908906D01*
X110642271Y-165911188D01*
X110642259Y-165911969D01*
X110512012Y-166514553D01*
X110511700Y-166515270D01*
X110511349Y-166517616D01*
X110510847Y-166519941D01*
X110510885Y-166520723D01*
X110419797Y-167130453D01*
X110419532Y-167131189D01*
X110419333Y-167133555D01*
X110418983Y-167135901D01*
X110419071Y-167136677D01*
X110385344Y-167538588D01*
X107533475Y-167539391D01*
X107517010Y-167534435D01*
X106869139Y-167514640D01*
X106240614Y-167456888D01*
X105616795Y-167360873D01*
X104999983Y-167226949D01*
X104392531Y-167055630D01*
X103796660Y-166847542D01*
X103214593Y-166603461D01*
X102648526Y-166324308D01*
X102100538Y-166011107D01*
X102057029Y-165982581D01*
X106540675Y-165982581D01*
X106777485Y-166150872D01*
X106991915Y-166251776D01*
X107220825Y-166313113D01*
X107456979Y-166332943D01*
X107692913Y-166310641D01*
X107921168Y-166246910D01*
X108134531Y-166143767D01*
X108358086Y-165981342D01*
X107450000Y-165073256D01*
X106540675Y-165982581D01*
X102057029Y-165982581D01*
X101572698Y-165665040D01*
X101066994Y-165287412D01*
X100686273Y-164965107D01*
X106117496Y-164965107D01*
X106132377Y-165201625D01*
X106188906Y-165431769D01*
X106285296Y-165648266D01*
X106464615Y-165912129D01*
X107376744Y-165000000D01*
X107523256Y-165000000D01*
X108424883Y-165901627D01*
X108490284Y-165833423D01*
X108621429Y-165636034D01*
X108715547Y-165418540D01*
X108769890Y-165186849D01*
X108777860Y-164882485D01*
X108735717Y-164648268D01*
X108653111Y-164426146D01*
X108532475Y-164222162D01*
X108425280Y-164097976D01*
X107523256Y-165000000D01*
X107376744Y-165000000D01*
X106470807Y-164094064D01*
X106320819Y-164291666D01*
X106213230Y-164502822D01*
X106144735Y-164729693D01*
X106117496Y-164965107D01*
X100686273Y-164965107D01*
X100585260Y-164879594D01*
X100129319Y-164443125D01*
X99743058Y-164025269D01*
X106548525Y-164025269D01*
X107450000Y-164926744D01*
X108353508Y-164023236D01*
X108193452Y-163893626D01*
X107985781Y-163779457D01*
X107761174Y-163703869D01*
X107526731Y-163669249D01*
X107289862Y-163676693D01*
X107058055Y-163725966D01*
X106838639Y-163815508D01*
X106638545Y-163942491D01*
X106548525Y-164025269D01*
X99743058Y-164025269D01*
X99700886Y-163979648D01*
X99301557Y-163490893D01*
X98932799Y-162978657D01*
X98595985Y-162444836D01*
X98292412Y-161891496D01*
X98023179Y-161320641D01*
X97789298Y-160734413D01*
X97591641Y-160134997D01*
X97430940Y-159524614D01*
X97307809Y-158905593D01*
X97290398Y-158777660D01*
X97262646Y-155798379D01*
X97266653Y-155761803D01*
X97373543Y-155139744D01*
X97458005Y-154781043D01*
X130247910Y-154781043D01*
X130281532Y-154974688D01*
X130382613Y-155143248D01*
X130537596Y-155264117D01*
X130725701Y-155321088D01*
X130921704Y-155306522D01*
X131099323Y-155222373D01*
X131234737Y-155079923D01*
X131309962Y-154897868D01*
X131312499Y-154690202D01*
X131241745Y-154506362D01*
X131109851Y-154360646D01*
X130934342Y-154272182D01*
X130738753Y-154252832D01*
X130549313Y-154305192D01*
X130391422Y-154422237D01*
X130286253Y-154588276D01*
X130247910Y-154781043D01*
X97458005Y-154781043D01*
X97518206Y-154525380D01*
X97700104Y-153921002D01*
X97918562Y-153328843D01*
X98172760Y-152751133D01*
X98461759Y-152190011D01*
X98784461Y-151647596D01*
X98939259Y-151420243D01*
X118978311Y-151420243D01*
X119011933Y-151613888D01*
X119113014Y-151782448D01*
X119267997Y-151903317D01*
X119456102Y-151960288D01*
X119652105Y-151945722D01*
X119829724Y-151861573D01*
X119965138Y-151719123D01*
X120015608Y-151596978D01*
X120019933Y-151621888D01*
X120121014Y-151790448D01*
X120275997Y-151911317D01*
X120464102Y-151968288D01*
X120660105Y-151953722D01*
X120837724Y-151869573D01*
X120973138Y-151727123D01*
X121048363Y-151545068D01*
X121050900Y-151337402D01*
X120980146Y-151153562D01*
X120848252Y-151007846D01*
X120672743Y-150919382D01*
X120477154Y-150900032D01*
X120287714Y-150952392D01*
X120129823Y-151069437D01*
X120024654Y-151235476D01*
X120018554Y-151266144D01*
X119972146Y-151145562D01*
X119840252Y-150999846D01*
X119664743Y-150911382D01*
X119469154Y-150892032D01*
X119279714Y-150944392D01*
X119121823Y-151061437D01*
X119016654Y-151227476D01*
X118978311Y-151420243D01*
X98939259Y-151420243D01*
X99139687Y-151125876D01*
X99526110Y-150626806D01*
X99580625Y-150564643D01*
X111401111Y-150564643D01*
X111434733Y-150758288D01*
X111535814Y-150926848D01*
X111690797Y-151047717D01*
X111878902Y-151104688D01*
X112074905Y-151090122D01*
X112252524Y-151005973D01*
X112387938Y-150863523D01*
X112458380Y-150693043D01*
X117978311Y-150693043D01*
X118011933Y-150886688D01*
X118113014Y-151055248D01*
X118267997Y-151176117D01*
X118456102Y-151233088D01*
X118652105Y-151218522D01*
X118829724Y-151134373D01*
X118965138Y-150991923D01*
X119040363Y-150809868D01*
X119042900Y-150602202D01*
X118972146Y-150418362D01*
X118840252Y-150272646D01*
X118664743Y-150184182D01*
X118469154Y-150164832D01*
X118279714Y-150217192D01*
X118121823Y-150334237D01*
X118016654Y-150500276D01*
X117978311Y-150693043D01*
X112458380Y-150693043D01*
X112463163Y-150681468D01*
X112465700Y-150473802D01*
X112394946Y-150289962D01*
X112263052Y-150144246D01*
X112087543Y-150055782D01*
X111891954Y-150036432D01*
X111702514Y-150088792D01*
X111544623Y-150205837D01*
X111439454Y-150371876D01*
X111401111Y-150564643D01*
X99580625Y-150564643D01*
X99943483Y-150150883D01*
X100161224Y-149924141D01*
X100170003Y-149908200D01*
X100190153Y-149888128D01*
X100198910Y-149855703D01*
X100214141Y-149828043D01*
X107921311Y-149828043D01*
X107954933Y-150021688D01*
X108056014Y-150190248D01*
X108210997Y-150311117D01*
X108399102Y-150368088D01*
X108595105Y-150353522D01*
X108772724Y-150269373D01*
X108908138Y-150126923D01*
X108983363Y-149944868D01*
X108985900Y-149737202D01*
X108915146Y-149553362D01*
X108783252Y-149407646D01*
X108607743Y-149319182D01*
X108412154Y-149299832D01*
X108222714Y-149352192D01*
X108064823Y-149469237D01*
X107959654Y-149635276D01*
X107921311Y-149828043D01*
X100214141Y-149828043D01*
X100215114Y-149826277D01*
X100213932Y-149767831D01*
X100216523Y-148456443D01*
X105203511Y-148456443D01*
X105237133Y-148650088D01*
X105338214Y-148818648D01*
X105493197Y-148939517D01*
X105681302Y-148996488D01*
X105877305Y-148981922D01*
X106054924Y-148897773D01*
X106190338Y-148755323D01*
X106265563Y-148573268D01*
X106266990Y-148456443D01*
X106549711Y-148456443D01*
X106583333Y-148650088D01*
X106684414Y-148818648D01*
X106839397Y-148939517D01*
X107027502Y-148996488D01*
X107223505Y-148981922D01*
X107367626Y-148913643D01*
X110943911Y-148913643D01*
X110977533Y-149107288D01*
X111078614Y-149275848D01*
X111233597Y-149396717D01*
X111421702Y-149453688D01*
X111617705Y-149439122D01*
X111795324Y-149354973D01*
X111930738Y-149212523D01*
X112005963Y-149030468D01*
X112008500Y-148822802D01*
X111937746Y-148638962D01*
X111805852Y-148493246D01*
X111630343Y-148404782D01*
X111434754Y-148385432D01*
X111245314Y-148437792D01*
X111087423Y-148554837D01*
X110982254Y-148720876D01*
X110943911Y-148913643D01*
X107367626Y-148913643D01*
X107401124Y-148897773D01*
X107536538Y-148755323D01*
X107611763Y-148573268D01*
X107614300Y-148365602D01*
X107543546Y-148181762D01*
X107411652Y-148036046D01*
X107236143Y-147947582D01*
X107040554Y-147928232D01*
X106851114Y-147980592D01*
X106693223Y-148097637D01*
X106588054Y-148263676D01*
X106549711Y-148456443D01*
X106266990Y-148456443D01*
X106268100Y-148365602D01*
X106197346Y-148181762D01*
X106065452Y-148036046D01*
X105889943Y-147947582D01*
X105694354Y-147928232D01*
X105504914Y-147980592D01*
X105347023Y-148097637D01*
X105241854Y-148263676D01*
X105203511Y-148456443D01*
X100216523Y-148456443D01*
X100220237Y-146576843D01*
X113585511Y-146576843D01*
X113619133Y-146770488D01*
X113720214Y-146939048D01*
X113875197Y-147059917D01*
X114063302Y-147116888D01*
X114259305Y-147102322D01*
X114436924Y-147018173D01*
X114572338Y-146875723D01*
X114647563Y-146693668D01*
X114649921Y-146500643D01*
X115795311Y-146500643D01*
X115828933Y-146694288D01*
X115930014Y-146862848D01*
X116084997Y-146983717D01*
X116273102Y-147040688D01*
X116469105Y-147026122D01*
X116505994Y-147008645D01*
X117979711Y-147008645D01*
X118013333Y-147202290D01*
X118114414Y-147370850D01*
X118269397Y-147491719D01*
X118457502Y-147548690D01*
X118653505Y-147534124D01*
X118831124Y-147449975D01*
X118966538Y-147307525D01*
X119041763Y-147125470D01*
X119044300Y-146917804D01*
X118973546Y-146733964D01*
X118841652Y-146588248D01*
X118666143Y-146499784D01*
X118470554Y-146480434D01*
X118281114Y-146532794D01*
X118123223Y-146649839D01*
X118018054Y-146815878D01*
X117979711Y-147008645D01*
X116505994Y-147008645D01*
X116646724Y-146941973D01*
X116782138Y-146799523D01*
X116857363Y-146617468D01*
X116859900Y-146409802D01*
X116789146Y-146225962D01*
X116738894Y-146170443D01*
X127606307Y-146170443D01*
X127639929Y-146364088D01*
X127741010Y-146532648D01*
X127895993Y-146653517D01*
X128084098Y-146710488D01*
X128280101Y-146695922D01*
X128457720Y-146611773D01*
X128593134Y-146469323D01*
X128668359Y-146287268D01*
X128669786Y-146170443D01*
X129384311Y-146170443D01*
X129417933Y-146364088D01*
X129519014Y-146532648D01*
X129673997Y-146653517D01*
X129862102Y-146710488D01*
X130058105Y-146695922D01*
X130235724Y-146611773D01*
X130371138Y-146469323D01*
X130446363Y-146287268D01*
X130448900Y-146079602D01*
X130378146Y-145895762D01*
X130246252Y-145750046D01*
X130070743Y-145661582D01*
X129875154Y-145642232D01*
X129685714Y-145694592D01*
X129527823Y-145811637D01*
X129422654Y-145977676D01*
X129384311Y-146170443D01*
X128669786Y-146170443D01*
X128670896Y-146079602D01*
X128600142Y-145895762D01*
X128468248Y-145750046D01*
X128292739Y-145661582D01*
X128097150Y-145642232D01*
X127907710Y-145694592D01*
X127749819Y-145811637D01*
X127644650Y-145977676D01*
X127606307Y-146170443D01*
X116738894Y-146170443D01*
X116657252Y-146080246D01*
X116481743Y-145991782D01*
X116286154Y-145972432D01*
X116096714Y-146024792D01*
X115938823Y-146141837D01*
X115833654Y-146307876D01*
X115795311Y-146500643D01*
X114649921Y-146500643D01*
X114650100Y-146486002D01*
X114579346Y-146302162D01*
X114447452Y-146156446D01*
X114271943Y-146067982D01*
X114076354Y-146048632D01*
X113886914Y-146100992D01*
X113729023Y-146218037D01*
X113623854Y-146384076D01*
X113585511Y-146576843D01*
X100220237Y-146576843D01*
X100221542Y-145916443D01*
X103603311Y-145916443D01*
X103636933Y-146110088D01*
X103738014Y-146278648D01*
X103892997Y-146399517D01*
X104081102Y-146456488D01*
X104277105Y-146441922D01*
X104454724Y-146357773D01*
X104590138Y-146215323D01*
X104665363Y-146033268D01*
X104667900Y-145825602D01*
X104597146Y-145641762D01*
X104465252Y-145496046D01*
X104289743Y-145407582D01*
X104094154Y-145388232D01*
X103904714Y-145440592D01*
X103746823Y-145557637D01*
X103641654Y-145723676D01*
X103603311Y-145916443D01*
X100221542Y-145916443D01*
X100226527Y-143393443D01*
X124963315Y-143393443D01*
X124996937Y-143587088D01*
X125098018Y-143755648D01*
X125253001Y-143876517D01*
X125441106Y-143933488D01*
X125637109Y-143918922D01*
X125814728Y-143834773D01*
X125950142Y-143692323D01*
X126025367Y-143510268D01*
X126027904Y-143302602D01*
X125957150Y-143118762D01*
X125825256Y-142973046D01*
X125756606Y-142938443D01*
X129949321Y-142938443D01*
X129982943Y-143132088D01*
X130084024Y-143300648D01*
X130239007Y-143421517D01*
X130427112Y-143478488D01*
X130623115Y-143463922D01*
X130800734Y-143379773D01*
X130936148Y-143237323D01*
X131011373Y-143055268D01*
X131013910Y-142847602D01*
X130943156Y-142663762D01*
X130811262Y-142518046D01*
X130635753Y-142429582D01*
X130440164Y-142410232D01*
X130250724Y-142462592D01*
X130092833Y-142579637D01*
X129987664Y-142745676D01*
X129949321Y-142938443D01*
X125756606Y-142938443D01*
X125649747Y-142884582D01*
X125454158Y-142865232D01*
X125264718Y-142917592D01*
X125106827Y-143034637D01*
X125001658Y-143200676D01*
X124963315Y-143393443D01*
X100226527Y-143393443D01*
X100227540Y-142881203D01*
X100235621Y-142852070D01*
X100227657Y-142821270D01*
X100227659Y-142820483D01*
X100220184Y-142792366D01*
X100207655Y-142743906D01*
X99952825Y-142293435D01*
X108175311Y-142293435D01*
X108208933Y-142487080D01*
X108310014Y-142655640D01*
X108464997Y-142776509D01*
X108653102Y-142833480D01*
X108849105Y-142818914D01*
X109026724Y-142734765D01*
X109162138Y-142592315D01*
X109237363Y-142410260D01*
X109239900Y-142202594D01*
X109169146Y-142018754D01*
X109037252Y-141873038D01*
X108861743Y-141784574D01*
X108666154Y-141765224D01*
X108476714Y-141817584D01*
X108318823Y-141934629D01*
X108213654Y-142100668D01*
X108175311Y-142293435D01*
X99952825Y-142293435D01*
X99745627Y-141927166D01*
X99612680Y-141668443D01*
X103938319Y-141668443D01*
X103971941Y-141862088D01*
X104073022Y-142030648D01*
X104228005Y-142151517D01*
X104416110Y-142208488D01*
X104612113Y-142193922D01*
X104789732Y-142109773D01*
X104925146Y-141967323D01*
X105000371Y-141785268D01*
X105002908Y-141577602D01*
X104932154Y-141393762D01*
X104800260Y-141248046D01*
X104624751Y-141159582D01*
X104429162Y-141140232D01*
X104239722Y-141192592D01*
X104081831Y-141309637D01*
X103976662Y-141475676D01*
X103938319Y-141668443D01*
X99612680Y-141668443D01*
X99323428Y-141105541D01*
X98934519Y-140267583D01*
X98778805Y-139893443D01*
X103963311Y-139893443D01*
X103996933Y-140087088D01*
X104098014Y-140255648D01*
X104252997Y-140376517D01*
X104441102Y-140433488D01*
X104637105Y-140418922D01*
X104814724Y-140334773D01*
X104950138Y-140192323D01*
X104998845Y-140074443D01*
X108810311Y-140074443D01*
X108843933Y-140268088D01*
X108945014Y-140436648D01*
X109087470Y-140547748D01*
X108970261Y-140634635D01*
X108865092Y-140800674D01*
X108826749Y-140993441D01*
X108860371Y-141187086D01*
X108961452Y-141355646D01*
X109116435Y-141476515D01*
X109304540Y-141533486D01*
X109500543Y-141518920D01*
X109678162Y-141434771D01*
X109813576Y-141292321D01*
X109888801Y-141110266D01*
X109891338Y-140902600D01*
X109820584Y-140718760D01*
X109688690Y-140573044D01*
X109617053Y-140536936D01*
X109661724Y-140515773D01*
X109797138Y-140373323D01*
X109872363Y-140191268D01*
X109874900Y-139983602D01*
X109804146Y-139799762D01*
X109672252Y-139654046D01*
X109496743Y-139565582D01*
X109301154Y-139546232D01*
X109111714Y-139598592D01*
X108953823Y-139715637D01*
X108848654Y-139881676D01*
X108810311Y-140074443D01*
X104998845Y-140074443D01*
X105025363Y-140010268D01*
X105027900Y-139802602D01*
X104957146Y-139618762D01*
X104825252Y-139473046D01*
X104649743Y-139384582D01*
X104454154Y-139365232D01*
X104264714Y-139417592D01*
X104106823Y-139534637D01*
X104001654Y-139700676D01*
X103963311Y-139893443D01*
X98778805Y-139893443D01*
X98579573Y-139414743D01*
X98353856Y-138804443D01*
X109826311Y-138804443D01*
X109859933Y-138998088D01*
X109961014Y-139166648D01*
X110115997Y-139287517D01*
X110304102Y-139344488D01*
X110500105Y-139329922D01*
X110677724Y-139245773D01*
X110813138Y-139103323D01*
X110888363Y-138921268D01*
X110889790Y-138804443D01*
X114906311Y-138804443D01*
X114939933Y-138998088D01*
X115041014Y-139166648D01*
X115195997Y-139287517D01*
X115384102Y-139344488D01*
X115580105Y-139329922D01*
X115757724Y-139245773D01*
X115892465Y-139104032D01*
X115930014Y-139166648D01*
X116084997Y-139287517D01*
X116273102Y-139344488D01*
X116469105Y-139329922D01*
X116646724Y-139245773D01*
X116782138Y-139103323D01*
X116800678Y-139058453D01*
X126082311Y-139058453D01*
X126115933Y-139252098D01*
X126217014Y-139420658D01*
X126371997Y-139541527D01*
X126560102Y-139598498D01*
X126756105Y-139583932D01*
X126933724Y-139499783D01*
X127069138Y-139357333D01*
X127144363Y-139175278D01*
X127146900Y-138967612D01*
X127076146Y-138783772D01*
X126944252Y-138638056D01*
X126768743Y-138549592D01*
X126573154Y-138530242D01*
X126383714Y-138582602D01*
X126225823Y-138699647D01*
X126120654Y-138865686D01*
X126082311Y-139058453D01*
X116800678Y-139058453D01*
X116857363Y-138921268D01*
X116859900Y-138713602D01*
X116789146Y-138529762D01*
X116657252Y-138384046D01*
X116481743Y-138295582D01*
X116286154Y-138276232D01*
X116096714Y-138328592D01*
X115938823Y-138445637D01*
X115891552Y-138520267D01*
X115768252Y-138384046D01*
X115592743Y-138295582D01*
X115397154Y-138276232D01*
X115207714Y-138328592D01*
X115049823Y-138445637D01*
X114944654Y-138611676D01*
X114906311Y-138804443D01*
X110889790Y-138804443D01*
X110890900Y-138713602D01*
X110820146Y-138529762D01*
X110688252Y-138384046D01*
X110512743Y-138295582D01*
X110317154Y-138276232D01*
X110127714Y-138328592D01*
X109969823Y-138445637D01*
X109864654Y-138611676D01*
X109826311Y-138804443D01*
X98353856Y-138804443D01*
X98259134Y-138548332D01*
X98136050Y-138169443D01*
X108175311Y-138169443D01*
X108208933Y-138363088D01*
X108310014Y-138531648D01*
X108464997Y-138652517D01*
X108653102Y-138709488D01*
X108849105Y-138694922D01*
X109026724Y-138610773D01*
X109162138Y-138468323D01*
X109237363Y-138286268D01*
X109239900Y-138078602D01*
X109169146Y-137894762D01*
X109037252Y-137749046D01*
X108863452Y-137661443D01*
X109826311Y-137661443D01*
X109859933Y-137855088D01*
X109961014Y-138023648D01*
X110115997Y-138144517D01*
X110304102Y-138201488D01*
X110500105Y-138186922D01*
X110677724Y-138102773D01*
X110813138Y-137960323D01*
X110888363Y-137778268D01*
X110890900Y-137570602D01*
X110828106Y-137407443D01*
X126082311Y-137407443D01*
X126115933Y-137601088D01*
X126217014Y-137769648D01*
X126371997Y-137890517D01*
X126560102Y-137947488D01*
X126756105Y-137932922D01*
X126933724Y-137848773D01*
X127069138Y-137706323D01*
X127144363Y-137524268D01*
X127146900Y-137316602D01*
X127076146Y-137132762D01*
X126944252Y-136987046D01*
X126911259Y-136970416D01*
X126933724Y-136959773D01*
X127069138Y-136817323D01*
X127144363Y-136635268D01*
X127146900Y-136427602D01*
X127076146Y-136243762D01*
X126944252Y-136098046D01*
X126768743Y-136009582D01*
X126573154Y-135990232D01*
X126383714Y-136042592D01*
X126225823Y-136159637D01*
X126120654Y-136325676D01*
X126082311Y-136518443D01*
X126115933Y-136712088D01*
X126217014Y-136880648D01*
X126331740Y-136970121D01*
X126225823Y-137048637D01*
X126120654Y-137214676D01*
X126082311Y-137407443D01*
X110828106Y-137407443D01*
X110820146Y-137386762D01*
X110688252Y-137241046D01*
X110512743Y-137152582D01*
X110317154Y-137133232D01*
X110127714Y-137185592D01*
X109969823Y-137302637D01*
X109864654Y-137468676D01*
X109826311Y-137661443D01*
X108863452Y-137661443D01*
X108861743Y-137660582D01*
X108666154Y-137641232D01*
X108476714Y-137693592D01*
X108318823Y-137810637D01*
X108213654Y-137976676D01*
X108175311Y-138169443D01*
X98136050Y-138169443D01*
X97973716Y-137669736D01*
X97723793Y-136780414D01*
X97631151Y-136391443D01*
X120621311Y-136391443D01*
X120654933Y-136585088D01*
X120756014Y-136753648D01*
X120910997Y-136874517D01*
X121099102Y-136931488D01*
X121295105Y-136916922D01*
X121472724Y-136832773D01*
X121608138Y-136690323D01*
X121683363Y-136508268D01*
X121684790Y-136391437D01*
X124177311Y-136391437D01*
X124210933Y-136585082D01*
X124312014Y-136753642D01*
X124466997Y-136874511D01*
X124655102Y-136931482D01*
X124851105Y-136916916D01*
X125028724Y-136832767D01*
X125164138Y-136690317D01*
X125235156Y-136518443D01*
X125239363Y-136508262D01*
X125241900Y-136300596D01*
X125171146Y-136116756D01*
X125039252Y-135971040D01*
X124863743Y-135882576D01*
X124668154Y-135863226D01*
X124478714Y-135915586D01*
X124320823Y-136032631D01*
X124215654Y-136198670D01*
X124177311Y-136391437D01*
X121684790Y-136391437D01*
X121685900Y-136300602D01*
X121615146Y-136116762D01*
X121483252Y-135971046D01*
X121307743Y-135882582D01*
X121112154Y-135863232D01*
X120922714Y-135915592D01*
X120764823Y-136032637D01*
X120659654Y-136198676D01*
X120621311Y-136391443D01*
X97631151Y-136391443D01*
X97509759Y-135881763D01*
X97331961Y-134975252D01*
X97275971Y-134613443D01*
X115263311Y-134613443D01*
X115296933Y-134807088D01*
X115398014Y-134975648D01*
X115552997Y-135096517D01*
X115741102Y-135153488D01*
X115937105Y-135138922D01*
X116114724Y-135054773D01*
X116250138Y-134912323D01*
X116325363Y-134730268D01*
X116327900Y-134522602D01*
X116257146Y-134338762D01*
X116125252Y-134193046D01*
X116103887Y-134182277D01*
X116138724Y-134165773D01*
X116274138Y-134023323D01*
X116345158Y-133851444D01*
X124177310Y-133851444D01*
X124210932Y-134045089D01*
X124312013Y-134213649D01*
X124466996Y-134334518D01*
X124655101Y-134391489D01*
X124851104Y-134376923D01*
X125028723Y-134292774D01*
X125146437Y-134168943D01*
X126145807Y-134168943D01*
X126179429Y-134362588D01*
X126280510Y-134531148D01*
X126395238Y-134620623D01*
X126289324Y-134699138D01*
X126184155Y-134865177D01*
X126145812Y-135057944D01*
X126179434Y-135251589D01*
X126280515Y-135420149D01*
X126435498Y-135541018D01*
X126623603Y-135597989D01*
X126819606Y-135583423D01*
X126997225Y-135499274D01*
X127132639Y-135356824D01*
X127177421Y-135248443D01*
X130209811Y-135248443D01*
X130243433Y-135442088D01*
X130344514Y-135610648D01*
X130499497Y-135731517D01*
X130687602Y-135788488D01*
X130883605Y-135773922D01*
X131061224Y-135689773D01*
X131196638Y-135547323D01*
X131271863Y-135365268D01*
X131274400Y-135157602D01*
X131203646Y-134973762D01*
X131071752Y-134828046D01*
X130896243Y-134739582D01*
X130700654Y-134720232D01*
X130511214Y-134772592D01*
X130353323Y-134889637D01*
X130248154Y-135055676D01*
X130209811Y-135248443D01*
X127177421Y-135248443D01*
X127207864Y-135174769D01*
X127210401Y-134967103D01*
X127139647Y-134783263D01*
X127007753Y-134637547D01*
X126974756Y-134620915D01*
X126997220Y-134610273D01*
X127132634Y-134467823D01*
X127207859Y-134285768D01*
X127210396Y-134078102D01*
X127139642Y-133894262D01*
X127007748Y-133748546D01*
X126832239Y-133660082D01*
X126636650Y-133640732D01*
X126447210Y-133693092D01*
X126289319Y-133810137D01*
X126184150Y-133976176D01*
X126145807Y-134168943D01*
X125146437Y-134168943D01*
X125164137Y-134150324D01*
X125239362Y-133968269D01*
X125241899Y-133760603D01*
X125171145Y-133576763D01*
X125039251Y-133431047D01*
X124863742Y-133342583D01*
X124668153Y-133323233D01*
X124478713Y-133375593D01*
X124320822Y-133492638D01*
X124215653Y-133658677D01*
X124177310Y-133851444D01*
X116345158Y-133851444D01*
X116349363Y-133841268D01*
X116351900Y-133633602D01*
X116281146Y-133449762D01*
X116149252Y-133304046D01*
X116116259Y-133287416D01*
X116138724Y-133276773D01*
X116274138Y-133134323D01*
X116349363Y-132952268D01*
X116350790Y-132835443D01*
X119986311Y-132835443D01*
X120019933Y-133029088D01*
X120121014Y-133197648D01*
X120275997Y-133318517D01*
X120464102Y-133375488D01*
X120660105Y-133360922D01*
X120837724Y-133276773D01*
X120973138Y-133134323D01*
X121048363Y-132952268D01*
X121049790Y-132835443D01*
X122272311Y-132835443D01*
X122305933Y-133029088D01*
X122407014Y-133197648D01*
X122561997Y-133318517D01*
X122750102Y-133375488D01*
X122946105Y-133360922D01*
X123123724Y-133276773D01*
X123259138Y-133134323D01*
X123312951Y-133004086D01*
X129088668Y-133004086D01*
X129122290Y-133197731D01*
X129223371Y-133366291D01*
X129378354Y-133487160D01*
X129566459Y-133544131D01*
X129762462Y-133529565D01*
X129940081Y-133445416D01*
X130075495Y-133302966D01*
X130102232Y-133238259D01*
X130154034Y-133324642D01*
X130309017Y-133445511D01*
X130497122Y-133502482D01*
X130693125Y-133487916D01*
X130870744Y-133403767D01*
X131006158Y-133261317D01*
X131081383Y-133079262D01*
X131082323Y-133002243D01*
X131913311Y-133002243D01*
X131946933Y-133195888D01*
X132048014Y-133364448D01*
X132202997Y-133485317D01*
X132391102Y-133542288D01*
X132587105Y-133527722D01*
X132764724Y-133443573D01*
X132900138Y-133301123D01*
X132975363Y-133119068D01*
X132977900Y-132911402D01*
X132950957Y-132841396D01*
X133037108Y-132867488D01*
X133233111Y-132852922D01*
X133410730Y-132768773D01*
X133546144Y-132626323D01*
X133621369Y-132444268D01*
X133623906Y-132236602D01*
X133553152Y-132052762D01*
X133421258Y-131907046D01*
X133412932Y-131902849D01*
X133546138Y-131762723D01*
X133621363Y-131580668D01*
X133623900Y-131373002D01*
X133553146Y-131189162D01*
X133421252Y-131043446D01*
X133245743Y-130954982D01*
X133050154Y-130935632D01*
X132860714Y-130987992D01*
X132702823Y-131105037D01*
X132597654Y-131271076D01*
X132559311Y-131463843D01*
X132592933Y-131657488D01*
X132694014Y-131826048D01*
X132792045Y-131902501D01*
X132702829Y-131968637D01*
X132597660Y-132134676D01*
X132559317Y-132327443D01*
X132587925Y-132492213D01*
X132404154Y-132474032D01*
X132214714Y-132526392D01*
X132056823Y-132643437D01*
X131951654Y-132809476D01*
X131913311Y-133002243D01*
X131082323Y-133002243D01*
X131083920Y-132871596D01*
X131013166Y-132687756D01*
X130881272Y-132542040D01*
X130705763Y-132453576D01*
X130510174Y-132434226D01*
X130320734Y-132486586D01*
X130162843Y-132603631D01*
X130082758Y-132730068D01*
X130082503Y-132729405D01*
X129950609Y-132583689D01*
X129775100Y-132495225D01*
X129579511Y-132475875D01*
X129390071Y-132528235D01*
X129232180Y-132645280D01*
X129127011Y-132811319D01*
X129088668Y-133004086D01*
X123312951Y-133004086D01*
X123334363Y-132952268D01*
X123336900Y-132744602D01*
X123266146Y-132560762D01*
X123134252Y-132415046D01*
X122958743Y-132326582D01*
X122763154Y-132307232D01*
X122573714Y-132359592D01*
X122415823Y-132476637D01*
X122310654Y-132642676D01*
X122272311Y-132835443D01*
X121049790Y-132835443D01*
X121050900Y-132744602D01*
X120980146Y-132560762D01*
X120848252Y-132415046D01*
X120672743Y-132326582D01*
X120477154Y-132307232D01*
X120287714Y-132359592D01*
X120129823Y-132476637D01*
X120024654Y-132642676D01*
X119986311Y-132835443D01*
X116350790Y-132835443D01*
X116351900Y-132744602D01*
X116281146Y-132560762D01*
X116149252Y-132415046D01*
X115973743Y-132326582D01*
X115778154Y-132307232D01*
X115588714Y-132359592D01*
X115430823Y-132476637D01*
X115325654Y-132642676D01*
X115287311Y-132835443D01*
X115320933Y-133029088D01*
X115422014Y-133197648D01*
X115536740Y-133287121D01*
X115430823Y-133365637D01*
X115325654Y-133531676D01*
X115287311Y-133724443D01*
X115320933Y-133918088D01*
X115422014Y-134086648D01*
X115525044Y-134167000D01*
X115406823Y-134254637D01*
X115301654Y-134420676D01*
X115263311Y-134613443D01*
X97275971Y-134613443D01*
X97190692Y-134062369D01*
X97181135Y-133978443D01*
X111477311Y-133978443D01*
X111510933Y-134172088D01*
X111612014Y-134340648D01*
X111766997Y-134461517D01*
X111955102Y-134518488D01*
X112151105Y-134503922D01*
X112328724Y-134419773D01*
X112464138Y-134277323D01*
X112539363Y-134095268D01*
X112541900Y-133887602D01*
X112471146Y-133703762D01*
X112339252Y-133558046D01*
X112163743Y-133469582D01*
X111968154Y-133450232D01*
X111778714Y-133502592D01*
X111620823Y-133619637D01*
X111515654Y-133785676D01*
X111477311Y-133978443D01*
X97181135Y-133978443D01*
X97086844Y-133150439D01*
X102013311Y-133150439D01*
X102046933Y-133344084D01*
X102148014Y-133512644D01*
X102302997Y-133633513D01*
X102491102Y-133690484D01*
X102687105Y-133675918D01*
X102864724Y-133591769D01*
X103000138Y-133449319D01*
X103075363Y-133267264D01*
X103076144Y-133203260D01*
X107493288Y-133203260D01*
X107526910Y-133396905D01*
X107627991Y-133565465D01*
X107782974Y-133686334D01*
X107971079Y-133743305D01*
X108167082Y-133728739D01*
X108344701Y-133644590D01*
X108480115Y-133502140D01*
X108555340Y-133320085D01*
X108557877Y-133112419D01*
X108487123Y-132928579D01*
X108402822Y-132835443D01*
X112112311Y-132835443D01*
X112145933Y-133029088D01*
X112247014Y-133197648D01*
X112401997Y-133318517D01*
X112590102Y-133375488D01*
X112786105Y-133360922D01*
X112963724Y-133276773D01*
X113099138Y-133134323D01*
X113174363Y-132952268D01*
X113176900Y-132744602D01*
X113106146Y-132560762D01*
X112974252Y-132415046D01*
X112798743Y-132326582D01*
X112603154Y-132307232D01*
X112413714Y-132359592D01*
X112255823Y-132476637D01*
X112150654Y-132642676D01*
X112112311Y-132835443D01*
X108402822Y-132835443D01*
X108355229Y-132782863D01*
X108179720Y-132694399D01*
X107984131Y-132675049D01*
X107794691Y-132727409D01*
X107636800Y-132844454D01*
X107531631Y-133010493D01*
X107493288Y-133203260D01*
X103076144Y-133203260D01*
X103077900Y-133059598D01*
X103007146Y-132875758D01*
X102875252Y-132730042D01*
X102699743Y-132641578D01*
X102504154Y-132622228D01*
X102314714Y-132674588D01*
X102156823Y-132791633D01*
X102051654Y-132957672D01*
X102013311Y-133150439D01*
X97086844Y-133150439D01*
X97086167Y-133144495D01*
X97046612Y-132605429D01*
X97033376Y-131184443D01*
X119986311Y-131184443D01*
X120019933Y-131378088D01*
X120121014Y-131546648D01*
X120275997Y-131667517D01*
X120464102Y-131724488D01*
X120660105Y-131709922D01*
X120837724Y-131625773D01*
X120973138Y-131483323D01*
X121048363Y-131301268D01*
X121049790Y-131184443D01*
X122272311Y-131184443D01*
X122305933Y-131378088D01*
X122407014Y-131546648D01*
X122561997Y-131667517D01*
X122750102Y-131724488D01*
X122946105Y-131709922D01*
X123123724Y-131625773D01*
X123259138Y-131483323D01*
X123334363Y-131301268D01*
X123335790Y-131184441D01*
X124463316Y-131184441D01*
X124496938Y-131378086D01*
X124598019Y-131546646D01*
X124753002Y-131667515D01*
X124941107Y-131724486D01*
X125137110Y-131709920D01*
X125314729Y-131625771D01*
X125450143Y-131483321D01*
X125525368Y-131301266D01*
X125527905Y-131093600D01*
X125513990Y-131057443D01*
X127631720Y-131057443D01*
X127665342Y-131251088D01*
X127766423Y-131419648D01*
X127921406Y-131540517D01*
X128109511Y-131597488D01*
X128305514Y-131582922D01*
X128483133Y-131498773D01*
X128618547Y-131356323D01*
X128693772Y-131174268D01*
X128695199Y-131057443D01*
X128749311Y-131057443D01*
X128782933Y-131251088D01*
X128884014Y-131419648D01*
X129038997Y-131540517D01*
X129227102Y-131597488D01*
X129423105Y-131582922D01*
X129600724Y-131498773D01*
X129736138Y-131356323D01*
X129811363Y-131174268D01*
X129813900Y-130966602D01*
X129743146Y-130782762D01*
X129611252Y-130637046D01*
X129435743Y-130548582D01*
X129240154Y-130529232D01*
X129050714Y-130581592D01*
X128892823Y-130698637D01*
X128787654Y-130864676D01*
X128749311Y-131057443D01*
X128695199Y-131057443D01*
X128696309Y-130966602D01*
X128625555Y-130782762D01*
X128493661Y-130637046D01*
X128318152Y-130548582D01*
X128122563Y-130529232D01*
X127933123Y-130581592D01*
X127775232Y-130698637D01*
X127670063Y-130864676D01*
X127631720Y-131057443D01*
X125513990Y-131057443D01*
X125457151Y-130909760D01*
X125325257Y-130764044D01*
X125149748Y-130675580D01*
X124954159Y-130656230D01*
X124764719Y-130708590D01*
X124606828Y-130825635D01*
X124501659Y-130991674D01*
X124463316Y-131184441D01*
X123335790Y-131184441D01*
X123336900Y-131093602D01*
X123266146Y-130909762D01*
X123134252Y-130764046D01*
X122958743Y-130675582D01*
X122763154Y-130656232D01*
X122573714Y-130708592D01*
X122415823Y-130825637D01*
X122310654Y-130991676D01*
X122272311Y-131184443D01*
X121049790Y-131184443D01*
X121050900Y-131093602D01*
X120980146Y-130909762D01*
X120848252Y-130764046D01*
X120672743Y-130675582D01*
X120477154Y-130656232D01*
X120287714Y-130708592D01*
X120129823Y-130825637D01*
X120024654Y-130991676D01*
X119986311Y-131184443D01*
X97033376Y-131184443D01*
X97020680Y-129821503D01*
X97038058Y-129453440D01*
X97064409Y-129152443D01*
X110207311Y-129152443D01*
X110240933Y-129346088D01*
X110342014Y-129514648D01*
X110456740Y-129604121D01*
X110350823Y-129682637D01*
X110245654Y-129848676D01*
X110207311Y-130041443D01*
X110240933Y-130235088D01*
X110342014Y-130403648D01*
X110496997Y-130524517D01*
X110685102Y-130581488D01*
X110881105Y-130566922D01*
X111058724Y-130482773D01*
X111194138Y-130340323D01*
X111269363Y-130158268D01*
X111270790Y-130041444D01*
X113890310Y-130041444D01*
X113923932Y-130235089D01*
X114025013Y-130403649D01*
X114179996Y-130524518D01*
X114368101Y-130581489D01*
X114564104Y-130566923D01*
X114741723Y-130482774D01*
X114877137Y-130340324D01*
X114952362Y-130158269D01*
X114954899Y-129950603D01*
X114884145Y-129766763D01*
X114752251Y-129621047D01*
X114576742Y-129532583D01*
X114381153Y-129513233D01*
X114191713Y-129565593D01*
X114033822Y-129682638D01*
X113928653Y-129848677D01*
X113890310Y-130041444D01*
X111270790Y-130041444D01*
X111271900Y-129950602D01*
X111201146Y-129766762D01*
X111069252Y-129621046D01*
X111036259Y-129604416D01*
X111058724Y-129593773D01*
X111194138Y-129451323D01*
X111269363Y-129269268D01*
X111271900Y-129061602D01*
X111201146Y-128877762D01*
X111069252Y-128732046D01*
X110893743Y-128643582D01*
X110698154Y-128624232D01*
X110508714Y-128676592D01*
X110350823Y-128793637D01*
X110245654Y-128959676D01*
X110207311Y-129152443D01*
X97064409Y-129152443D01*
X97118623Y-128533182D01*
X97236057Y-127616882D01*
X97242356Y-127579653D01*
X103366727Y-127579653D01*
X103400349Y-127773298D01*
X103501430Y-127941858D01*
X103656413Y-128062727D01*
X103844518Y-128119698D01*
X104040521Y-128105132D01*
X104218140Y-128020983D01*
X104353554Y-127878533D01*
X104428779Y-127696478D01*
X104431316Y-127488812D01*
X104397079Y-127399852D01*
X111096311Y-127399852D01*
X111129933Y-127593497D01*
X111231014Y-127762057D01*
X111385997Y-127882926D01*
X111574102Y-127939897D01*
X111770105Y-127925331D01*
X111947724Y-127841182D01*
X112083138Y-127698732D01*
X112158363Y-127516677D01*
X112160900Y-127309011D01*
X112090146Y-127125171D01*
X111958252Y-126979455D01*
X111782743Y-126890991D01*
X111700212Y-126882826D01*
X113255311Y-126882826D01*
X113288933Y-127076471D01*
X113390014Y-127245031D01*
X113544997Y-127365900D01*
X113733102Y-127422871D01*
X113929105Y-127408305D01*
X114106724Y-127324156D01*
X114242138Y-127181706D01*
X114317363Y-126999651D01*
X114319327Y-126838854D01*
X114384107Y-126858474D01*
X114580110Y-126843908D01*
X114757729Y-126759759D01*
X114893143Y-126617309D01*
X114968368Y-126435254D01*
X114970905Y-126227588D01*
X114900151Y-126043748D01*
X114768257Y-125898032D01*
X114638549Y-125832654D01*
X114741723Y-125783774D01*
X114870124Y-125648701D01*
X114914018Y-125721898D01*
X115069001Y-125842767D01*
X115257106Y-125899738D01*
X115453109Y-125885172D01*
X115630728Y-125801023D01*
X115690687Y-125737948D01*
X115668311Y-125850443D01*
X115701933Y-126044088D01*
X115803014Y-126212648D01*
X115957997Y-126333517D01*
X116146102Y-126390488D01*
X116342105Y-126375922D01*
X116519724Y-126291773D01*
X116577074Y-126231443D01*
X116684311Y-126231443D01*
X116717933Y-126425088D01*
X116819014Y-126593648D01*
X116973997Y-126714517D01*
X117162102Y-126771488D01*
X117358105Y-126756922D01*
X117535724Y-126672773D01*
X117671138Y-126530323D01*
X117746363Y-126348268D01*
X117747790Y-126231443D01*
X122653311Y-126231443D01*
X122686933Y-126425088D01*
X122788014Y-126593648D01*
X122942997Y-126714517D01*
X123131102Y-126771488D01*
X123327105Y-126756922D01*
X123504724Y-126672773D01*
X123640138Y-126530323D01*
X123715363Y-126348268D01*
X123717900Y-126140602D01*
X123647146Y-125956762D01*
X123515252Y-125811046D01*
X123339743Y-125722582D01*
X123144154Y-125703232D01*
X122954714Y-125755592D01*
X122796823Y-125872637D01*
X122691654Y-126038676D01*
X122653311Y-126231443D01*
X117747790Y-126231443D01*
X117748900Y-126140602D01*
X117678146Y-125956762D01*
X117546252Y-125811046D01*
X117370743Y-125722582D01*
X117175154Y-125703232D01*
X116985714Y-125755592D01*
X116827823Y-125872637D01*
X116722654Y-126038676D01*
X116684311Y-126231443D01*
X116577074Y-126231443D01*
X116655138Y-126149323D01*
X116730363Y-125967268D01*
X116732900Y-125759602D01*
X116662146Y-125575762D01*
X116571356Y-125475458D01*
X116655138Y-125387323D01*
X116730363Y-125205268D01*
X116732900Y-124997602D01*
X116670106Y-124834443D01*
X119732307Y-124834443D01*
X119765929Y-125028088D01*
X119867010Y-125196648D01*
X120021993Y-125317517D01*
X120210098Y-125374488D01*
X120259935Y-125370784D01*
X120240311Y-125469443D01*
X120273933Y-125663088D01*
X120375014Y-125831648D01*
X120529997Y-125952517D01*
X120718102Y-126009488D01*
X120914105Y-125994922D01*
X121091724Y-125910773D01*
X121227138Y-125768323D01*
X121302363Y-125586268D01*
X121304900Y-125378602D01*
X121234146Y-125194762D01*
X121102252Y-125049046D01*
X120959842Y-124977265D01*
X122653307Y-124977265D01*
X122686929Y-125170910D01*
X122788010Y-125339470D01*
X122942993Y-125460339D01*
X123131098Y-125517310D01*
X123327101Y-125502744D01*
X123504720Y-125418595D01*
X123639886Y-125276406D01*
X123671514Y-125329148D01*
X123826497Y-125450017D01*
X124014602Y-125506988D01*
X124210605Y-125492422D01*
X124388224Y-125408273D01*
X124523638Y-125265823D01*
X124526777Y-125258227D01*
X124566008Y-125323648D01*
X124720991Y-125444517D01*
X124909096Y-125501488D01*
X125105099Y-125486922D01*
X125282718Y-125402773D01*
X125418132Y-125260323D01*
X125493357Y-125078268D01*
X125494784Y-124961443D01*
X127098299Y-124961443D01*
X127131921Y-125155088D01*
X127233002Y-125323648D01*
X127387985Y-125444517D01*
X127576090Y-125501488D01*
X127772093Y-125486922D01*
X127949712Y-125402773D01*
X128084460Y-125261024D01*
X128122014Y-125323648D01*
X128276997Y-125444517D01*
X128465102Y-125501488D01*
X128661105Y-125486922D01*
X128838724Y-125402773D01*
X128974138Y-125260323D01*
X129049363Y-125078268D01*
X129051900Y-124870602D01*
X128981146Y-124686762D01*
X128849252Y-124541046D01*
X128673743Y-124452582D01*
X128478154Y-124433232D01*
X128288714Y-124485592D01*
X128130823Y-124602637D01*
X128083547Y-124677275D01*
X127960240Y-124541046D01*
X127784731Y-124452582D01*
X127589142Y-124433232D01*
X127399702Y-124485592D01*
X127241811Y-124602637D01*
X127136642Y-124768676D01*
X127098299Y-124961443D01*
X125494784Y-124961443D01*
X125495894Y-124870602D01*
X125425140Y-124686762D01*
X125293246Y-124541046D01*
X125117737Y-124452582D01*
X124922148Y-124433232D01*
X124732708Y-124485592D01*
X124574817Y-124602637D01*
X124523235Y-124684074D01*
X124398752Y-124546546D01*
X124223243Y-124458082D01*
X124027654Y-124438732D01*
X123838214Y-124491092D01*
X123680323Y-124608137D01*
X123631468Y-124685268D01*
X123515248Y-124556868D01*
X123339739Y-124468404D01*
X123144150Y-124449054D01*
X122954710Y-124501414D01*
X122796819Y-124618459D01*
X122691650Y-124784498D01*
X122653307Y-124977265D01*
X120959842Y-124977265D01*
X120926743Y-124960582D01*
X120794405Y-124947490D01*
X120796896Y-124743602D01*
X120726142Y-124559762D01*
X120594248Y-124414046D01*
X120561281Y-124397429D01*
X120583724Y-124386797D01*
X120719138Y-124244347D01*
X120794363Y-124062292D01*
X120796818Y-123861333D01*
X121827811Y-123861333D01*
X121861433Y-124054978D01*
X121962514Y-124223538D01*
X122117497Y-124344407D01*
X122305602Y-124401378D01*
X122501605Y-124386812D01*
X122679224Y-124302663D01*
X122814638Y-124160213D01*
X122889863Y-123978158D01*
X122892400Y-123770492D01*
X122821646Y-123586652D01*
X122689752Y-123440936D01*
X122514243Y-123352472D01*
X122318654Y-123333122D01*
X122129214Y-123385482D01*
X121971323Y-123502527D01*
X121866154Y-123668566D01*
X121827811Y-123861333D01*
X120796818Y-123861333D01*
X120796900Y-123854625D01*
X120793161Y-123844910D01*
X120914105Y-123835922D01*
X121091724Y-123751773D01*
X121227138Y-123609323D01*
X121302363Y-123427268D01*
X121304900Y-123219602D01*
X121234146Y-123035762D01*
X121102252Y-122890046D01*
X120926743Y-122801582D01*
X120731154Y-122782232D01*
X120541714Y-122834592D01*
X120383823Y-122951637D01*
X120278654Y-123117676D01*
X120240311Y-123310443D01*
X120259481Y-123420851D01*
X120223154Y-123417257D01*
X120033714Y-123469616D01*
X119875823Y-123586661D01*
X119770654Y-123752700D01*
X119732311Y-123945467D01*
X119765933Y-124139112D01*
X119867014Y-124307672D01*
X119981722Y-124397131D01*
X119875819Y-124475637D01*
X119770650Y-124641676D01*
X119732307Y-124834443D01*
X116670106Y-124834443D01*
X116662146Y-124813762D01*
X116530252Y-124668046D01*
X116354743Y-124579582D01*
X116159154Y-124560232D01*
X115969714Y-124612592D01*
X115811823Y-124729637D01*
X115706654Y-124895676D01*
X115687759Y-124990672D01*
X115641256Y-124939296D01*
X115465747Y-124850832D01*
X115270158Y-124831482D01*
X115080718Y-124883842D01*
X114922827Y-125000887D01*
X114881982Y-125065373D01*
X114752251Y-124922047D01*
X114576742Y-124833583D01*
X114381153Y-124814233D01*
X114191713Y-124866593D01*
X114033822Y-124983638D01*
X113928653Y-125149677D01*
X113896515Y-125311251D01*
X113756550Y-125297404D01*
X113567110Y-125349764D01*
X113409219Y-125466809D01*
X113304050Y-125632848D01*
X113265707Y-125825615D01*
X113299329Y-126019260D01*
X113400410Y-126187820D01*
X113555393Y-126308689D01*
X113725698Y-126360269D01*
X113556714Y-126406975D01*
X113398823Y-126524020D01*
X113293654Y-126690059D01*
X113255311Y-126882826D01*
X111700212Y-126882826D01*
X111587154Y-126871641D01*
X111397714Y-126924001D01*
X111239823Y-127041046D01*
X111134654Y-127207085D01*
X111096311Y-127399852D01*
X104397079Y-127399852D01*
X104360562Y-127304972D01*
X104228668Y-127159256D01*
X104053159Y-127070792D01*
X103857570Y-127051442D01*
X103668130Y-127103802D01*
X103510239Y-127220847D01*
X103405070Y-127386886D01*
X103366727Y-127579653D01*
X97242356Y-127579653D01*
X97390166Y-126706052D01*
X97580703Y-125802140D01*
X97697052Y-125342443D01*
X101698311Y-125342443D01*
X101731933Y-125536088D01*
X101833014Y-125704648D01*
X101987997Y-125825517D01*
X102176102Y-125882488D01*
X102372105Y-125867922D01*
X102549724Y-125783773D01*
X102685138Y-125641323D01*
X102729338Y-125534351D01*
X111186436Y-125534351D01*
X111220058Y-125727996D01*
X111321139Y-125896556D01*
X111476122Y-126017425D01*
X111664227Y-126074396D01*
X111860230Y-126059830D01*
X112037849Y-125975681D01*
X112173263Y-125833231D01*
X112248488Y-125651176D01*
X112251025Y-125443510D01*
X112180271Y-125259670D01*
X112048377Y-125113954D01*
X111872868Y-125025490D01*
X111677279Y-125006140D01*
X111487839Y-125058500D01*
X111329948Y-125175545D01*
X111224779Y-125341584D01*
X111186436Y-125534351D01*
X102729338Y-125534351D01*
X102760363Y-125459268D01*
X102762900Y-125251602D01*
X102692146Y-125067762D01*
X102585937Y-124950422D01*
X102777811Y-124950422D01*
X102811433Y-125144067D01*
X102912514Y-125312627D01*
X103067497Y-125433496D01*
X103255602Y-125490467D01*
X103451605Y-125475901D01*
X103629224Y-125391752D01*
X103764638Y-125249302D01*
X103839863Y-125067247D01*
X103842400Y-124859581D01*
X103783848Y-124707443D01*
X111985311Y-124707443D01*
X112018933Y-124901088D01*
X112120014Y-125069648D01*
X112274997Y-125190517D01*
X112463102Y-125247488D01*
X112659105Y-125232922D01*
X112836724Y-125148773D01*
X112972138Y-125006323D01*
X113047363Y-124824268D01*
X113049900Y-124616602D01*
X112979146Y-124432762D01*
X112847252Y-124287046D01*
X112671743Y-124198582D01*
X112476154Y-124179232D01*
X112286714Y-124231592D01*
X112128823Y-124348637D01*
X112023654Y-124514676D01*
X111985311Y-124707443D01*
X103783848Y-124707443D01*
X103771646Y-124675741D01*
X103639752Y-124530025D01*
X103464243Y-124441561D01*
X103268654Y-124422211D01*
X103079214Y-124474571D01*
X102921323Y-124591616D01*
X102816154Y-124757655D01*
X102777811Y-124950422D01*
X102585937Y-124950422D01*
X102560252Y-124922046D01*
X102384743Y-124833582D01*
X102189154Y-124814232D01*
X101999714Y-124866592D01*
X101841823Y-124983637D01*
X101736654Y-125149676D01*
X101698311Y-125342443D01*
X97697052Y-125342443D01*
X97807363Y-124906604D01*
X98004665Y-124240659D01*
X101696343Y-124240659D01*
X101729965Y-124434304D01*
X101831046Y-124602864D01*
X101986029Y-124723733D01*
X102174134Y-124780704D01*
X102370137Y-124766138D01*
X102547756Y-124681989D01*
X102683170Y-124539539D01*
X102758395Y-124357484D01*
X102760932Y-124149818D01*
X102690178Y-123965978D01*
X102558284Y-123820262D01*
X102382775Y-123731798D01*
X102246154Y-123718282D01*
X102372101Y-123708922D01*
X102549720Y-123624773D01*
X102584297Y-123588399D01*
X102841309Y-123588399D01*
X102874931Y-123782044D01*
X102976012Y-123950604D01*
X103130995Y-124071473D01*
X103319100Y-124128444D01*
X103515103Y-124113878D01*
X103692722Y-124029729D01*
X103821142Y-123894636D01*
X113890311Y-123894636D01*
X113923933Y-124088281D01*
X114025014Y-124256841D01*
X114179997Y-124377710D01*
X114368102Y-124434681D01*
X114564105Y-124420115D01*
X114741724Y-124335966D01*
X114877138Y-124193516D01*
X114952363Y-124011461D01*
X114953421Y-123924833D01*
X115668307Y-123924833D01*
X115701929Y-124118478D01*
X115803010Y-124287038D01*
X115957993Y-124407907D01*
X116146098Y-124464878D01*
X116342101Y-124450312D01*
X116519720Y-124366163D01*
X116655134Y-124223713D01*
X116730359Y-124041658D01*
X116731786Y-123924833D01*
X117573311Y-123924833D01*
X117606933Y-124118478D01*
X117708014Y-124287038D01*
X117862997Y-124407907D01*
X118051102Y-124464878D01*
X118247105Y-124450312D01*
X118424724Y-124366163D01*
X118551888Y-124232392D01*
X118597022Y-124307656D01*
X118752005Y-124428525D01*
X118940110Y-124485496D01*
X119136113Y-124470930D01*
X119313732Y-124386781D01*
X119449146Y-124244331D01*
X119524371Y-124062276D01*
X119526908Y-123854610D01*
X119456154Y-123670770D01*
X119324260Y-123525054D01*
X119148751Y-123436590D01*
X118953162Y-123417240D01*
X118763722Y-123469600D01*
X118605831Y-123586645D01*
X118566240Y-123649151D01*
X118435252Y-123504436D01*
X118259743Y-123415972D01*
X118064154Y-123396622D01*
X117874714Y-123448982D01*
X117716823Y-123566027D01*
X117611654Y-123732066D01*
X117573311Y-123924833D01*
X116731786Y-123924833D01*
X116732896Y-123833992D01*
X116662142Y-123650152D01*
X116530248Y-123504436D01*
X116354739Y-123415972D01*
X116159150Y-123396622D01*
X115969710Y-123448982D01*
X115811819Y-123566027D01*
X115706650Y-123732066D01*
X115668307Y-123924833D01*
X114953421Y-123924833D01*
X114954900Y-123803795D01*
X114884146Y-123619955D01*
X114752252Y-123474239D01*
X114576743Y-123385775D01*
X114381154Y-123366425D01*
X114191714Y-123418785D01*
X114033823Y-123535830D01*
X113928654Y-123701869D01*
X113890311Y-123894636D01*
X103821142Y-123894636D01*
X103828136Y-123887279D01*
X103903361Y-123705224D01*
X103905898Y-123497558D01*
X103835144Y-123313718D01*
X103774703Y-123246943D01*
X112239311Y-123246943D01*
X112272933Y-123440588D01*
X112374014Y-123609148D01*
X112528997Y-123730017D01*
X112717102Y-123786988D01*
X112913105Y-123772422D01*
X113090724Y-123688273D01*
X113226138Y-123545823D01*
X113301363Y-123363768D01*
X113303900Y-123156102D01*
X113233146Y-122972262D01*
X113101252Y-122826546D01*
X112925743Y-122738082D01*
X112730154Y-122718732D01*
X112540714Y-122771092D01*
X112382823Y-122888137D01*
X112277654Y-123054176D01*
X112239311Y-123246943D01*
X103774703Y-123246943D01*
X103703250Y-123168002D01*
X103527741Y-123079538D01*
X103332152Y-123060188D01*
X103142712Y-123112548D01*
X102984821Y-123229593D01*
X102879652Y-123395632D01*
X102841309Y-123588399D01*
X102584297Y-123588399D01*
X102685134Y-123482323D01*
X102760359Y-123300268D01*
X102762896Y-123092602D01*
X102692142Y-122908762D01*
X102560248Y-122763046D01*
X102384739Y-122674582D01*
X102189150Y-122655232D01*
X101999710Y-122707592D01*
X101841819Y-122824637D01*
X101736650Y-122990676D01*
X101698307Y-123183443D01*
X101731929Y-123377088D01*
X101833010Y-123545648D01*
X101987993Y-123666517D01*
X102162330Y-123719318D01*
X101997746Y-123764808D01*
X101839855Y-123881853D01*
X101734686Y-124047892D01*
X101696343Y-124240659D01*
X98004665Y-124240659D01*
X98069774Y-124020901D01*
X98367537Y-123146396D01*
X98604408Y-122532631D01*
X103476311Y-122532631D01*
X103509933Y-122726276D01*
X103611014Y-122894836D01*
X103765997Y-123015705D01*
X103954102Y-123072676D01*
X104150105Y-123058110D01*
X104327724Y-122973961D01*
X104463138Y-122831511D01*
X104538363Y-122649456D01*
X104540900Y-122441790D01*
X104470146Y-122257950D01*
X104383801Y-122162556D01*
X104463138Y-122079098D01*
X104538363Y-121897043D01*
X104539327Y-121818067D01*
X114398311Y-121818067D01*
X114431933Y-122011712D01*
X114533014Y-122180272D01*
X114687997Y-122301141D01*
X114876102Y-122358112D01*
X115072105Y-122343546D01*
X115249724Y-122259397D01*
X115385138Y-122116947D01*
X115460363Y-121934892D01*
X115460638Y-121912350D01*
X115638102Y-121966098D01*
X115834105Y-121951532D01*
X116011724Y-121867383D01*
X116147138Y-121724933D01*
X116222363Y-121542878D01*
X116224900Y-121335212D01*
X116154146Y-121151372D01*
X116022252Y-121005656D01*
X115846743Y-120917192D01*
X115709256Y-120903590D01*
X115834105Y-120894312D01*
X116011724Y-120810163D01*
X116049482Y-120770443D01*
X116684311Y-120770443D01*
X116717933Y-120964088D01*
X116819014Y-121132648D01*
X116973997Y-121253517D01*
X117162102Y-121310488D01*
X117358105Y-121295922D01*
X117535724Y-121211773D01*
X117671138Y-121069323D01*
X117746363Y-120887268D01*
X117747790Y-120770459D01*
X119732311Y-120770459D01*
X119765933Y-120964104D01*
X119867014Y-121132664D01*
X120021997Y-121253533D01*
X120210102Y-121310504D01*
X120406105Y-121295938D01*
X120583724Y-121211789D01*
X120718471Y-121070042D01*
X120756014Y-121132648D01*
X120910997Y-121253517D01*
X121099102Y-121310488D01*
X121295105Y-121295922D01*
X121472724Y-121211773D01*
X121608138Y-121069323D01*
X121683363Y-120887268D01*
X121684790Y-120770443D01*
X131797311Y-120770443D01*
X131830933Y-120964088D01*
X131932014Y-121132648D01*
X132086997Y-121253517D01*
X132275102Y-121310488D01*
X132471105Y-121295922D01*
X132648724Y-121211773D01*
X132784138Y-121069323D01*
X132859363Y-120887268D01*
X132861900Y-120679602D01*
X132791146Y-120495762D01*
X132659252Y-120350046D01*
X132483743Y-120261582D01*
X132288154Y-120242232D01*
X132098714Y-120294592D01*
X131940823Y-120411637D01*
X131835654Y-120577676D01*
X131797311Y-120770443D01*
X121684790Y-120770443D01*
X121685900Y-120679602D01*
X121615146Y-120495762D01*
X121483252Y-120350046D01*
X121307743Y-120261582D01*
X121112154Y-120242232D01*
X120922714Y-120294592D01*
X120764823Y-120411637D01*
X120717546Y-120486277D01*
X120594252Y-120350062D01*
X120418743Y-120261598D01*
X120223154Y-120242248D01*
X120033714Y-120294608D01*
X119875823Y-120411653D01*
X119770654Y-120577692D01*
X119732311Y-120770459D01*
X117747790Y-120770459D01*
X117748900Y-120679602D01*
X117678146Y-120495762D01*
X117546252Y-120350046D01*
X117370743Y-120261582D01*
X117175154Y-120242232D01*
X116985714Y-120294592D01*
X116827823Y-120411637D01*
X116722654Y-120577676D01*
X116684311Y-120770443D01*
X116049482Y-120770443D01*
X116147138Y-120667713D01*
X116222363Y-120485658D01*
X116224900Y-120277992D01*
X116154146Y-120094152D01*
X116022252Y-119948436D01*
X115846743Y-119859972D01*
X115651154Y-119840622D01*
X115461714Y-119892982D01*
X115303823Y-120010027D01*
X115198654Y-120176066D01*
X115160311Y-120368833D01*
X115193933Y-120562478D01*
X115236348Y-120633208D01*
X115084743Y-120556793D01*
X114889154Y-120537443D01*
X114699714Y-120589803D01*
X114541823Y-120706848D01*
X114436654Y-120872887D01*
X114398311Y-121065654D01*
X114431933Y-121259299D01*
X114533014Y-121427859D01*
X114557950Y-121447306D01*
X114541823Y-121459261D01*
X114436654Y-121625300D01*
X114398311Y-121818067D01*
X104539327Y-121818067D01*
X104540900Y-121689377D01*
X104470146Y-121505537D01*
X104338252Y-121359821D01*
X104162743Y-121271357D01*
X103967154Y-121252007D01*
X103777714Y-121304367D01*
X103619823Y-121421412D01*
X103514654Y-121587451D01*
X103476311Y-121780218D01*
X103509933Y-121973863D01*
X103611014Y-122142423D01*
X103635950Y-122161870D01*
X103619823Y-122173825D01*
X103514654Y-122339864D01*
X103476311Y-122532631D01*
X98604408Y-122532631D01*
X98700143Y-122284571D01*
X98918429Y-121780218D01*
X99067059Y-121436810D01*
X99245710Y-121065654D01*
X99467705Y-120604452D01*
X99901846Y-119788060D01*
X99921176Y-119754443D01*
X109572311Y-119754443D01*
X109605933Y-119948088D01*
X109707014Y-120116648D01*
X109861997Y-120237517D01*
X110050102Y-120294488D01*
X110246105Y-120279922D01*
X110423724Y-120195773D01*
X110559138Y-120053323D01*
X110634363Y-119871268D01*
X110636900Y-119663602D01*
X110574106Y-119500443D01*
X119732311Y-119500443D01*
X119765933Y-119694088D01*
X119867014Y-119862648D01*
X120021997Y-119983517D01*
X120210102Y-120040488D01*
X120406105Y-120025922D01*
X120583724Y-119941773D01*
X120718465Y-119800032D01*
X120756014Y-119862648D01*
X120910997Y-119983517D01*
X121099102Y-120040488D01*
X121295105Y-120025922D01*
X121472724Y-119941773D01*
X121607465Y-119800032D01*
X121645014Y-119862648D01*
X121799997Y-119983517D01*
X121988102Y-120040488D01*
X122184105Y-120025922D01*
X122361724Y-119941773D01*
X122496465Y-119800032D01*
X122534014Y-119862648D01*
X122688997Y-119983517D01*
X122877102Y-120040488D01*
X123073105Y-120025922D01*
X123250724Y-119941773D01*
X123385465Y-119800032D01*
X123423014Y-119862648D01*
X123577997Y-119983517D01*
X123766102Y-120040488D01*
X123962105Y-120025922D01*
X124139724Y-119941773D01*
X124275138Y-119799323D01*
X124350363Y-119617268D01*
X124351790Y-119500443D01*
X130527311Y-119500443D01*
X130560933Y-119694088D01*
X130662014Y-119862648D01*
X130816997Y-119983517D01*
X131005102Y-120040488D01*
X131201105Y-120025922D01*
X131378724Y-119941773D01*
X131514138Y-119799323D01*
X131589363Y-119617268D01*
X131591900Y-119409602D01*
X131521146Y-119225762D01*
X131389252Y-119080046D01*
X131213743Y-118991582D01*
X131018154Y-118972232D01*
X130828714Y-119024592D01*
X130670823Y-119141637D01*
X130565654Y-119307676D01*
X130527311Y-119500443D01*
X124351790Y-119500443D01*
X124352900Y-119409602D01*
X124282146Y-119225762D01*
X124150252Y-119080046D01*
X123974743Y-118991582D01*
X123779154Y-118972232D01*
X123589714Y-119024592D01*
X123431823Y-119141637D01*
X123384552Y-119216267D01*
X123261252Y-119080046D01*
X123085743Y-118991582D01*
X122890154Y-118972232D01*
X122700714Y-119024592D01*
X122542823Y-119141637D01*
X122495552Y-119216267D01*
X122372252Y-119080046D01*
X122196743Y-118991582D01*
X122001154Y-118972232D01*
X121811714Y-119024592D01*
X121653823Y-119141637D01*
X121606552Y-119216267D01*
X121483252Y-119080046D01*
X121307743Y-118991582D01*
X121112154Y-118972232D01*
X120922714Y-119024592D01*
X120764823Y-119141637D01*
X120717552Y-119216267D01*
X120594252Y-119080046D01*
X120418743Y-118991582D01*
X120223154Y-118972232D01*
X120033714Y-119024592D01*
X119875823Y-119141637D01*
X119770654Y-119307676D01*
X119732311Y-119500443D01*
X110574106Y-119500443D01*
X110566146Y-119479762D01*
X110434252Y-119334046D01*
X110258743Y-119245582D01*
X110063154Y-119226232D01*
X109873714Y-119278592D01*
X109715823Y-119395637D01*
X109610654Y-119561676D01*
X109572311Y-119754443D01*
X99921176Y-119754443D01*
X100206901Y-119257555D01*
X100219933Y-119208581D01*
X100227601Y-119179961D01*
X100227601Y-119179762D01*
X100235630Y-119149589D01*
X100227601Y-119119835D01*
X100227601Y-118738443D01*
X117446307Y-118738443D01*
X117479929Y-118932088D01*
X117581010Y-119100648D01*
X117735993Y-119221517D01*
X117924098Y-119278488D01*
X118120101Y-119263922D01*
X118297720Y-119179773D01*
X118433134Y-119037323D01*
X118508359Y-118855268D01*
X118510896Y-118647602D01*
X118440142Y-118463762D01*
X118308248Y-118318046D01*
X118132739Y-118229582D01*
X117937150Y-118210232D01*
X117747710Y-118262592D01*
X117589819Y-118379637D01*
X117484650Y-118545676D01*
X117446307Y-118738443D01*
X100227601Y-118738443D01*
X100227601Y-117931200D01*
X105851437Y-117931200D01*
X105850780Y-117722443D01*
X123288311Y-117722443D01*
X123321933Y-117916088D01*
X123423014Y-118084648D01*
X123577997Y-118205517D01*
X123766102Y-118262488D01*
X123962105Y-118247922D01*
X124139724Y-118163773D01*
X124275138Y-118021323D01*
X124350363Y-117839268D01*
X124352900Y-117631602D01*
X124282146Y-117447762D01*
X124150252Y-117302046D01*
X123974743Y-117213582D01*
X123779154Y-117194232D01*
X123589714Y-117246592D01*
X123431823Y-117363637D01*
X123326654Y-117529676D01*
X123288311Y-117722443D01*
X105850780Y-117722443D01*
X105848010Y-116843275D01*
X115734701Y-116843275D01*
X115768323Y-117036920D01*
X115869404Y-117205480D01*
X116024387Y-117326349D01*
X116212492Y-117383320D01*
X116408495Y-117368754D01*
X116586114Y-117284605D01*
X116721528Y-117142155D01*
X116796753Y-116960100D01*
X116799290Y-116752434D01*
X116728536Y-116568594D01*
X116623403Y-116452443D01*
X118843311Y-116452443D01*
X118876933Y-116646088D01*
X118978014Y-116814648D01*
X119132997Y-116935517D01*
X119321102Y-116992488D01*
X119517105Y-116977922D01*
X119694724Y-116893773D01*
X119829465Y-116752032D01*
X119867014Y-116814648D01*
X120021997Y-116935517D01*
X120210102Y-116992488D01*
X120406105Y-116977922D01*
X120583724Y-116893773D01*
X120705827Y-116765326D01*
X120735404Y-116814648D01*
X120890387Y-116935517D01*
X121078492Y-116992488D01*
X121274495Y-116977922D01*
X121452114Y-116893773D01*
X121587528Y-116751323D01*
X121662753Y-116569268D01*
X121665290Y-116361602D01*
X121594536Y-116177762D01*
X121462642Y-116032046D01*
X121287133Y-115943582D01*
X121091544Y-115924232D01*
X120902104Y-115976592D01*
X120744213Y-116093637D01*
X120705427Y-116154872D01*
X120594252Y-116032046D01*
X120418743Y-115943582D01*
X120223154Y-115924232D01*
X120033714Y-115976592D01*
X119875823Y-116093637D01*
X119828552Y-116168267D01*
X119705252Y-116032046D01*
X119529743Y-115943582D01*
X119334154Y-115924232D01*
X119144714Y-115976592D01*
X118986823Y-116093637D01*
X118881654Y-116259676D01*
X118843311Y-116452443D01*
X116623403Y-116452443D01*
X116596642Y-116422878D01*
X116421133Y-116334414D01*
X116225544Y-116315064D01*
X116036104Y-116367424D01*
X115878213Y-116484469D01*
X115773044Y-116650508D01*
X115734701Y-116843275D01*
X105848010Y-116843275D01*
X105843579Y-115436443D01*
X125066307Y-115436443D01*
X125099929Y-115630088D01*
X125201010Y-115798648D01*
X125355993Y-115919517D01*
X125544098Y-115976488D01*
X125740101Y-115961922D01*
X125917720Y-115877773D01*
X126053134Y-115735323D01*
X126128359Y-115553268D01*
X126130896Y-115345602D01*
X126060142Y-115161762D01*
X125928248Y-115016046D01*
X125752739Y-114927582D01*
X125557150Y-114908232D01*
X125367710Y-114960592D01*
X125209819Y-115077637D01*
X125104650Y-115243676D01*
X125066307Y-115436443D01*
X105843579Y-115436443D01*
X105835522Y-112879154D01*
X112366454Y-112879154D01*
X112400076Y-113072799D01*
X112501157Y-113241359D01*
X112656140Y-113362228D01*
X112844245Y-113419199D01*
X113040248Y-113404633D01*
X113217867Y-113320484D01*
X113353281Y-113178034D01*
X113428506Y-112995979D01*
X113431043Y-112788313D01*
X113360289Y-112604473D01*
X113228395Y-112458757D01*
X113052886Y-112370293D01*
X112857297Y-112350943D01*
X112667857Y-112403303D01*
X112509966Y-112520348D01*
X112404797Y-112686387D01*
X112366454Y-112879154D01*
X105835522Y-112879154D01*
X105832376Y-111880443D01*
X113890309Y-111880443D01*
X113923931Y-112074088D01*
X114025012Y-112242648D01*
X114179995Y-112363517D01*
X114368100Y-112420488D01*
X114564103Y-112405922D01*
X114741722Y-112321773D01*
X114877136Y-112179323D01*
X114952361Y-111997268D01*
X114954898Y-111789602D01*
X114884144Y-111605762D01*
X114752250Y-111460046D01*
X114576741Y-111371582D01*
X114381152Y-111352232D01*
X114191712Y-111404592D01*
X114033821Y-111521637D01*
X113928652Y-111687676D01*
X113890309Y-111880443D01*
X105832376Y-111880443D01*
X105823595Y-109093443D01*
X107963311Y-109093443D01*
X107996933Y-109287088D01*
X108098014Y-109455648D01*
X108252997Y-109576517D01*
X108441102Y-109633488D01*
X108637105Y-109618922D01*
X108814724Y-109534773D01*
X108950138Y-109392323D01*
X109025363Y-109210268D01*
X109027900Y-109002602D01*
X108957146Y-108818762D01*
X108825252Y-108673046D01*
X108664312Y-108591925D01*
X116926272Y-108591925D01*
X116959894Y-108785570D01*
X117060975Y-108954130D01*
X117091914Y-108978259D01*
X117082243Y-108985428D01*
X116977074Y-109151467D01*
X116938731Y-109344234D01*
X116972353Y-109537879D01*
X117073434Y-109706439D01*
X117228417Y-109827308D01*
X117416522Y-109884279D01*
X117612525Y-109869713D01*
X117790144Y-109785564D01*
X117925558Y-109643114D01*
X118000783Y-109461059D01*
X118003320Y-109253393D01*
X117987945Y-109213443D01*
X119986311Y-109213443D01*
X120019933Y-109407088D01*
X120121014Y-109575648D01*
X120275997Y-109696517D01*
X120464102Y-109753488D01*
X120660105Y-109738922D01*
X120837724Y-109654773D01*
X120973138Y-109512323D01*
X121048363Y-109330268D01*
X121050900Y-109122602D01*
X120980146Y-108938762D01*
X120848252Y-108793046D01*
X120672743Y-108704582D01*
X120477154Y-108685232D01*
X120287714Y-108737592D01*
X120129823Y-108854637D01*
X120024654Y-109020676D01*
X119986311Y-109213443D01*
X117987945Y-109213443D01*
X117932566Y-109069553D01*
X117840193Y-108967499D01*
X117913099Y-108890805D01*
X117988324Y-108708750D01*
X117990861Y-108501084D01*
X117922878Y-108324443D01*
X122526311Y-108324443D01*
X122559933Y-108518088D01*
X122661014Y-108686648D01*
X122815997Y-108807517D01*
X123004102Y-108864488D01*
X123200105Y-108849922D01*
X123377724Y-108765773D01*
X123513138Y-108623323D01*
X123588363Y-108441268D01*
X123590900Y-108233602D01*
X123520146Y-108049762D01*
X123388252Y-107904046D01*
X123212743Y-107815582D01*
X123017154Y-107796232D01*
X122827714Y-107848592D01*
X122669823Y-107965637D01*
X122564654Y-108131676D01*
X122526311Y-108324443D01*
X117922878Y-108324443D01*
X117920107Y-108317244D01*
X117814549Y-108200624D01*
X117925146Y-108084282D01*
X118000371Y-107902227D01*
X118002908Y-107694561D01*
X117932154Y-107510721D01*
X117800260Y-107365005D01*
X117624751Y-107276541D01*
X117429162Y-107257191D01*
X117239722Y-107309551D01*
X117081831Y-107426596D01*
X116976662Y-107592635D01*
X116938319Y-107785402D01*
X116971941Y-107979047D01*
X117073022Y-108147607D01*
X117127658Y-108190217D01*
X117069784Y-108233119D01*
X116964615Y-108399158D01*
X116926272Y-108591925D01*
X108664312Y-108591925D01*
X108649743Y-108584582D01*
X108454154Y-108565232D01*
X108264714Y-108617592D01*
X108106823Y-108734637D01*
X108001654Y-108900676D01*
X107963311Y-109093443D01*
X105823595Y-109093443D01*
X105818067Y-107338455D01*
X112463311Y-107338455D01*
X112496933Y-107532100D01*
X112598014Y-107700660D01*
X112752997Y-107821529D01*
X112941102Y-107878500D01*
X113137105Y-107863934D01*
X113314724Y-107779785D01*
X113450138Y-107637335D01*
X113525363Y-107455280D01*
X113527900Y-107247614D01*
X113457146Y-107063774D01*
X113325252Y-106918058D01*
X113149743Y-106829594D01*
X112954154Y-106810244D01*
X112764714Y-106862604D01*
X112606823Y-106979649D01*
X112501654Y-107145688D01*
X112463311Y-107338455D01*
X105818067Y-107338455D01*
X105816028Y-106691304D01*
X111463311Y-106691304D01*
X111496933Y-106884949D01*
X111598014Y-107053509D01*
X111752997Y-107174378D01*
X111941102Y-107231349D01*
X112137105Y-107216783D01*
X112314724Y-107132634D01*
X112450138Y-106990184D01*
X112525363Y-106808129D01*
X112527097Y-106666122D01*
X114455984Y-106666122D01*
X114489606Y-106859767D01*
X114590687Y-107028327D01*
X114745670Y-107149196D01*
X114933775Y-107206167D01*
X115129778Y-107191601D01*
X115307397Y-107107452D01*
X115442811Y-106965002D01*
X115518036Y-106782947D01*
X115520573Y-106575281D01*
X115449819Y-106391441D01*
X115317925Y-106245725D01*
X115142416Y-106157261D01*
X114946827Y-106137911D01*
X114757387Y-106190271D01*
X114599496Y-106307316D01*
X114494327Y-106473355D01*
X114455984Y-106666122D01*
X112527097Y-106666122D01*
X112527900Y-106600463D01*
X112457146Y-106416623D01*
X112325252Y-106270907D01*
X112149743Y-106182443D01*
X111954154Y-106163093D01*
X111764714Y-106215453D01*
X111606823Y-106332498D01*
X111501654Y-106498537D01*
X111463311Y-106691304D01*
X105816028Y-106691304D01*
X105813964Y-106036437D01*
X110463311Y-106036437D01*
X110496933Y-106230082D01*
X110598014Y-106398642D01*
X110752997Y-106519511D01*
X110941102Y-106576482D01*
X111137105Y-106561916D01*
X111314724Y-106477767D01*
X111450138Y-106335317D01*
X111525363Y-106153262D01*
X111526093Y-106093455D01*
X124463299Y-106093455D01*
X124496921Y-106287100D01*
X124598002Y-106455660D01*
X124752985Y-106576529D01*
X124941090Y-106633500D01*
X125137093Y-106618934D01*
X125314712Y-106534785D01*
X125450126Y-106392335D01*
X125525351Y-106210280D01*
X125527888Y-106002614D01*
X125457134Y-105818774D01*
X125325240Y-105673058D01*
X125149731Y-105584594D01*
X124954142Y-105565244D01*
X124764702Y-105617604D01*
X124606811Y-105734649D01*
X124501642Y-105900688D01*
X124463299Y-106093455D01*
X111526093Y-106093455D01*
X111527900Y-105945596D01*
X111457146Y-105761756D01*
X111325252Y-105616040D01*
X111149743Y-105527576D01*
X110954154Y-105508226D01*
X110764714Y-105560586D01*
X110606823Y-105677631D01*
X110501654Y-105843670D01*
X110463311Y-106036437D01*
X105813964Y-106036437D01*
X105810770Y-105022443D01*
X133067311Y-105022443D01*
X133100933Y-105216088D01*
X133202014Y-105384648D01*
X133356997Y-105505517D01*
X133545102Y-105562488D01*
X133741105Y-105547922D01*
X133918724Y-105463773D01*
X134054138Y-105321323D01*
X134129363Y-105139268D01*
X134131900Y-104931602D01*
X134061146Y-104747762D01*
X133929252Y-104602046D01*
X133753743Y-104513582D01*
X133558154Y-104494232D01*
X133368714Y-104546592D01*
X133210823Y-104663637D01*
X133105654Y-104829676D01*
X133067311Y-105022443D01*
X105810770Y-105022443D01*
X105805568Y-103371443D01*
X118208311Y-103371443D01*
X118241933Y-103565088D01*
X118343014Y-103733648D01*
X118497997Y-103854517D01*
X118686102Y-103911488D01*
X118882105Y-103896922D01*
X119059724Y-103812773D01*
X119195138Y-103670323D01*
X119270363Y-103488268D01*
X119272900Y-103280602D01*
X119202146Y-103096762D01*
X119070252Y-102951046D01*
X118894743Y-102862582D01*
X118699154Y-102843232D01*
X118509714Y-102895592D01*
X118351823Y-103012637D01*
X118246654Y-103178676D01*
X118208311Y-103371443D01*
X105805568Y-103371443D01*
X105799259Y-101368989D01*
X107595401Y-101368989D01*
X107595401Y-101577011D01*
X107638651Y-101780487D01*
X107723261Y-101970525D01*
X107845534Y-102138819D01*
X108000124Y-102278012D01*
X108180277Y-102382024D01*
X108378118Y-102446306D01*
X108585000Y-102468050D01*
X108791882Y-102446306D01*
X108989723Y-102382024D01*
X109169876Y-102278012D01*
X109324466Y-102138819D01*
X109446739Y-101970525D01*
X109531349Y-101780487D01*
X109574599Y-101577011D01*
X109574599Y-101368989D01*
X130455401Y-101368989D01*
X130455401Y-101577011D01*
X130498651Y-101780487D01*
X130583261Y-101970525D01*
X130705534Y-102138819D01*
X130860124Y-102278012D01*
X131040277Y-102382024D01*
X131095149Y-102399853D01*
X130955714Y-102438392D01*
X130797823Y-102555437D01*
X130692654Y-102721476D01*
X130654311Y-102914243D01*
X130687933Y-103107888D01*
X130789014Y-103276448D01*
X130943997Y-103397317D01*
X131132102Y-103454288D01*
X131328105Y-103439722D01*
X131505724Y-103355573D01*
X131641138Y-103213123D01*
X131716363Y-103031068D01*
X131718900Y-102823402D01*
X131648146Y-102639562D01*
X131516252Y-102493846D01*
X131461610Y-102466304D01*
X131651882Y-102446306D01*
X131849723Y-102382024D01*
X132029876Y-102278012D01*
X132184466Y-102138819D01*
X132306739Y-101970525D01*
X132391349Y-101780487D01*
X132434599Y-101577011D01*
X132434599Y-101368989D01*
X132391349Y-101165513D01*
X132306739Y-100975475D01*
X132184466Y-100807181D01*
X132029876Y-100667988D01*
X131849723Y-100563976D01*
X131651882Y-100499694D01*
X131445000Y-100477950D01*
X131238118Y-100499694D01*
X131040277Y-100563976D01*
X130860124Y-100667988D01*
X130705534Y-100807181D01*
X130583261Y-100975475D01*
X130498651Y-101165513D01*
X130455401Y-101368989D01*
X109574599Y-101368989D01*
X109531349Y-101165513D01*
X109446739Y-100975475D01*
X109324466Y-100807181D01*
X109169876Y-100667988D01*
X108989723Y-100563976D01*
X108791882Y-100499694D01*
X108585000Y-100477950D01*
X108378118Y-100499694D01*
X108180277Y-100563976D01*
X108000124Y-100667988D01*
X107845534Y-100807181D01*
X107723261Y-100975475D01*
X107638651Y-101165513D01*
X107595401Y-101368989D01*
X105799259Y-101368989D01*
X105795663Y-100227571D01*
X139772401Y-100227400D01*
X139772399Y-119119017D01*
X139764379Y-119147930D01*
X139772399Y-119178949D01*
X139772399Y-119179961D01*
X139779870Y-119207845D01*
X139792346Y-119256095D01*
X140254373Y-120072834D01*
X140676572Y-120894459D01*
X141065476Y-121732406D01*
X141420430Y-122585266D01*
X141740871Y-123451682D01*
X142026284Y-124330264D01*
X142276207Y-125219585D01*
X142490241Y-126118237D01*
X142668038Y-127024743D01*
X142809307Y-127937627D01*
X142913833Y-128855505D01*
X142979928Y-129756250D01*
X142952984Y-132648882D01*
X142881377Y-133466818D01*
X142763943Y-134383121D01*
X142609835Y-135293944D01*
X142419298Y-136197854D01*
X142192639Y-137093389D01*
X141930223Y-137979106D01*
X141632460Y-138853612D01*
X141299857Y-139715429D01*
X140932946Y-140563178D01*
X140532295Y-141395548D01*
X140098166Y-142211917D01*
X139802747Y-142725668D01*
X139795463Y-142733006D01*
X139780062Y-142791439D01*
X139764370Y-142850411D01*
X139772524Y-142880629D01*
X139800771Y-149780941D01*
X139798629Y-149837088D01*
X139815380Y-149868839D01*
X139824812Y-149903469D01*
X139843353Y-149921859D01*
X139850761Y-149935900D01*
X140291291Y-150411363D01*
X140691187Y-150899661D01*
X141060545Y-151411488D01*
X141397967Y-151944908D01*
X141702177Y-152497899D01*
X141972079Y-153068470D01*
X142206625Y-153654407D01*
X142404976Y-154253604D01*
X142566375Y-154863785D01*
X142690225Y-155482693D01*
X142737112Y-155824270D01*
X142709626Y-158775091D01*
X142628824Y-159248596D01*
X142484868Y-159863125D01*
X142303668Y-160467705D01*
X142085882Y-161060139D01*
X141832364Y-161638106D01*
X141544006Y-162199574D01*
X141221912Y-162742388D01*
X140867307Y-163264485D01*
X140481459Y-163764002D01*
X140065860Y-164239004D01*
X139622026Y-164687760D01*
X139151618Y-165108589D01*
X138656412Y-165499903D01*
X138138206Y-165860278D01*
X137599027Y-166188311D01*
X137040786Y-166482837D01*
X136465604Y-166742736D01*
X135875655Y-166967024D01*
X135273067Y-167154894D01*
X134660187Y-167305612D01*
X134039221Y-167418640D01*
X133412500Y-167493548D01*
X132780430Y-167530171D01*
X132486917Y-167534181D01*
X132468453Y-167539400D01*
X129615133Y-167539400D01*
X129576856Y-167102164D01*
X129576942Y-167101387D01*
X129576583Y-167099040D01*
X129576375Y-167096667D01*
X129576107Y-167095930D01*
X129482820Y-166486540D01*
X129482856Y-166485756D01*
X129482344Y-166483429D01*
X129481986Y-166481089D01*
X129481673Y-166480375D01*
X129372197Y-165982581D01*
X131590675Y-165982581D01*
X131827485Y-166150872D01*
X132041915Y-166251776D01*
X132270825Y-166313113D01*
X132506979Y-166332943D01*
X132742913Y-166310641D01*
X132971168Y-166246910D01*
X133184531Y-166143767D01*
X133408086Y-165981342D01*
X132500000Y-165073256D01*
X131590675Y-165982581D01*
X129372197Y-165982581D01*
X129349254Y-165878260D01*
X129349239Y-165877480D01*
M02*
