M48
INCH,TZ
T1C0.0118
T2C0.0500
T3C0.0866
%
G90
G05
T1
X39550Y-46600
X39550Y-47200
X39685Y-51417
X39700Y-56794
X39700Y-58000
X39933Y-50200
X39933Y-50700
X39950Y-47950
X40000Y-52000
X40249Y-48916
X40250Y-48500
X40250Y-49350
X40374Y-52424
X40650Y-52000
X40675Y-49196
X40700Y-48659
X40800Y-58000
X40800Y-59100
X40800Y-60100
X40876Y-47480
X40900Y-50550
X40907Y-49608
X40907Y-50231
X40950Y-47948
X40950Y-48244
X41000Y-57000
X41000Y-57450
X41128Y-56278
X41132Y-55778
X41142Y-55079
X41150Y-46550
X41150Y-52550
X41150Y-54050
X41630Y-58450
X41650Y-46550
X41772Y-45039
X41811Y-46102
X41831Y-39665
X41831Y-40157
X41831Y-40748
X41831Y-41339
X41831Y-41929
X41831Y-42520
X41831Y-43110
X41831Y-43701
X41831Y-44291
X41900Y-58000
X42000Y-52000
X42150Y-46550
X42160Y-58450
X42165Y-45512
X42200Y-61200
X42300Y-40500
X42300Y-41000
X42300Y-41600
X42300Y-42200
X42300Y-42800
X42300Y-43400
X42300Y-44000
X42531Y-52445
X42630Y-59530
X42700Y-44094
X42700Y-44500
X42700Y-58990
X42717Y-42953
X42800Y-40750
X42800Y-41350
X42800Y-54400
X42800Y-56024
X42937Y-61830
X42937Y-63380
X42950Y-47150
X43000Y-61200
X43050Y-55150
X43056Y-55512
X43200Y-44300
X43300Y-42600
X43300Y-52750
X43350Y-47150
X43450Y-54200
X43450Y-54650
X43600Y-50850
X43600Y-51200
X43700Y-47800
X43701Y-41749
X43890Y-58630
X43950Y-50500
X43950Y-50160
X43985Y-49426
X44036Y-47136
X44070Y-59280
X44094Y-42007
X44100Y-42600
X44100Y-44300
X44100Y-52750
X44100Y-53700
X44100Y-54650
X44100Y-61200
X44300Y-49100
X44350Y-52300
X44400Y-48525
X44437Y-61830
X44437Y-63380
X44450Y-44443
X44488Y-42262
X44800Y-49956
X44804Y-49540
X44930Y-57710
X44950Y-46000
X45047Y-44438
X45050Y-44050
X45050Y-49350
X45050Y-51200
X45050Y-48780
X45050Y-50850
X45050Y-51650
X45050Y-52300
X45056Y-49734
X45100Y-60100
X45100Y-61200
X45100Y-62100
X45250Y-47250
X45250Y-47666
X45250Y-47962
X45273Y-41997
X45400Y-48800
X45400Y-49357
X45450Y-54650
X45450Y-55800
X45550Y-47392
X45550Y-47808
X45591Y-53000
X45600Y-52300
X45600Y-52650
X45600Y-53350
X45600Y-53700
X45750Y-48792
X45750Y-49250
X45750Y-49550
X45750Y-40700
X45776Y-46004
X45800Y-54650
X45800Y-57680
X46000Y-55800
X46150Y-47550
X46150Y-49700
X46200Y-61200
X46200Y-62100
X46245Y-42755
X46250Y-40900
X46250Y-42114
X46250Y-42438
X46250Y-43051
X46450Y-46750
X46500Y-48792
X46500Y-49700
X46500Y-51650
X46659Y-59331
X46660Y-57880
X46750Y-40700
X46850Y-48800
X46900Y-52300
X46900Y-53100
X46900Y-54800
X46900Y-55800
X47000Y-45850
X47053Y-59617
X47150Y-42050
X47250Y-61200
X47250Y-62100
X47350Y-49150
X47350Y-45850
X47350Y-47050
X47350Y-47550
X47350Y-48800
X47450Y-43000
X47450Y-51650
X47450Y-52300
X47450Y-59620
X47550Y-48550
X47550Y-49400
X47692Y-45850
X47700Y-47050
X47700Y-47550
X47700Y-53110
X47700Y-53700
X47700Y-54800
X47700Y-55800
X47700Y-56925
X47900Y-48200
X47900Y-51650
X47900Y-52300
X48050Y-47050
X48175Y-48767
X48300Y-57850
X48300Y-61200
X48300Y-62100
X48350Y-51650
X48350Y-52300
X48400Y-47050
X48450Y-42650
X48500Y-49206
X48500Y-49700
X48600Y-60100
X48750Y-46350
X48750Y-47050
X48848Y-49202
X48850Y-48200
X49100Y-52700
X49100Y-53700
X49100Y-54050
X49200Y-49200
X49213Y-41772
X49213Y-51650
X49300Y-42994
X49409Y-56457
X49450Y-45450
X49460Y-61200
X49460Y-62100
X49650Y-58500
X49650Y-59400
X49847Y-56341
X49850Y-53750
X49850Y-54100
X49850Y-54750
X49875Y-52825
X49875Y-52425
X49875Y-53175
X49900Y-47050
X49900Y-48200
X49900Y-49200
X50250Y-49200
X50300Y-41900
X50300Y-42600
X50450Y-57550
X50460Y-51600
X50510Y-61210
X50600Y-49200
X50787Y-43637
X50800Y-43250
X50900Y-41950
X50900Y-51600
X51034Y-52366
X51150Y-57550
X51372Y-56278
X51375Y-54700
X51400Y-52350
X51475Y-53250
X51490Y-60940
X51600Y-47050
X51600Y-48200
X51600Y-49200
X51650Y-40520
X51650Y-40900
X52100Y-41950
X52100Y-47550
X52146Y-52366
X52150Y-43250
X52300Y-57300
X52300Y-58500
X52300Y-59400
X52300Y-61210
X52400Y-51760
X52400Y-52100
X52600Y-41350
X52750Y-39900
X52800Y-44600
X52800Y-45600
X52800Y-47050
X52800Y-48200
X52800Y-49200
X52800Y-50200
X52800Y-51300
X41732Y-45512
T2
X42750Y-39950
X51750Y-39950
T3
X42303Y-64961
X52165Y-64961
T0
M30
