G04 #@! TF.GenerationSoftware,KiCad,Pcbnew,(5.1.0-1348-g4ca769472)*
G04 #@! TF.CreationDate,2021-05-22T02:12:44-07:00*
G04 #@! TF.ProjectId,loggerhw_v4.2,6c6f6767-6572-4687-975f-76342e322e6b,rev?*
G04 #@! TF.SameCoordinates,Original*
G04 #@! TF.FileFunction,Legend,Top*
G04 #@! TF.FilePolarity,Positive*
%FSLAX46Y46*%
G04 Gerber Fmt 4.6, Leading zero omitted, Abs format (unit mm)*
G04 Created by KiCad (PCBNEW (5.1.0-1348-g4ca769472)) date 2021-05-22 02:12:44*
%MOMM*%
%LPD*%
G04 APERTURE LIST*
%ADD10C,0.120000*%
%ADD11C,0.127000*%
%ADD12C,0.200000*%
%ADD13C,0.150000*%
%ADD14C,0.100000*%
G04 APERTURE END LIST*
D10*
X103550000Y-118050000D02*
X100850000Y-118050000D01*
X103550000Y-120350000D02*
X103550000Y-118050000D01*
D11*
X131952000Y-128725000D02*
X131952000Y-112725000D01*
X115952000Y-128725000D02*
X115952000Y-112725000D01*
D12*
X117002000Y-130875000D02*
G75*
G03X117002000Y-130875000I-100000J0D01*
G01*
D10*
X109032800Y-150106200D02*
X110282800Y-150106200D01*
X109032800Y-152316200D02*
X111032800Y-152316200D01*
X107586000Y-151550600D02*
X107586000Y-149650600D01*
X105266000Y-150150600D02*
X105266000Y-151550600D01*
X119516400Y-149829000D02*
X117516400Y-149829000D01*
X118516400Y-146589000D02*
X115516400Y-146589000D01*
X111573800Y-147461200D02*
X111573800Y-145561200D01*
X109253800Y-146061200D02*
X109253800Y-147461200D01*
X125709000Y-155490000D02*
X125709000Y-154640000D01*
X133879000Y-155490000D02*
X125709000Y-155490000D01*
X133879000Y-154640000D02*
X133879000Y-155490000D01*
X125709000Y-150270000D02*
X128034000Y-150270000D01*
X125709000Y-151120000D02*
X125709000Y-150270000D01*
X131554000Y-150270000D02*
X131554000Y-147880000D01*
X133879000Y-150270000D02*
X131554000Y-150270000D01*
X133879000Y-151120000D02*
X133879000Y-150270000D01*
X130175000Y-102997000D02*
X130175000Y-100203000D01*
X107315000Y-102997000D02*
X107315000Y-100203000D01*
X132715000Y-102997000D02*
X107315000Y-102997000D01*
X132715000Y-100203000D02*
X132715000Y-102997000D01*
X114200000Y-121500000D02*
G75*
G03X114200000Y-121500000I-700000J0D01*
G01*
X133794500Y-103151000D02*
X131509500Y-103151000D01*
X131509500Y-103151000D02*
X131509500Y-104621000D01*
X131509500Y-104621000D02*
X133794500Y-104621000D01*
X118500000Y-146010000D02*
X122360000Y-146010000D01*
X122360000Y-146010000D02*
X122360000Y-145775000D01*
X118500000Y-146010000D02*
X114640000Y-146010000D01*
X114640000Y-146010000D02*
X114640000Y-145775000D01*
X118500000Y-132990000D02*
X122360000Y-132990000D01*
X122360000Y-132990000D02*
X122360000Y-133225000D01*
X118500000Y-132990000D02*
X114640000Y-132990000D01*
X114640000Y-132990000D02*
X114640000Y-133225000D01*
X114640000Y-133225000D02*
X112825000Y-133225000D01*
X105625000Y-129625000D02*
X104275000Y-129625000D01*
X105625000Y-131375000D02*
X104275000Y-131375000D01*
X115905000Y-155909000D02*
X115905000Y-153409000D01*
X115905000Y-153409000D02*
X116955000Y-153409000D01*
X116955000Y-153409000D02*
X116955000Y-152419000D01*
X124125000Y-155909000D02*
X124125000Y-153409000D01*
X124125000Y-153409000D02*
X123075000Y-153409000D01*
X117075000Y-157879000D02*
X122955000Y-157879000D01*
X128735000Y-133360000D02*
X132265000Y-133360000D01*
X128735000Y-143640000D02*
X132265000Y-143640000D01*
X127410000Y-133425000D02*
X128735000Y-133425000D01*
X128735000Y-133360000D02*
X128735000Y-133425000D01*
X132265000Y-133360000D02*
X132265000Y-133425000D01*
X128735000Y-143575000D02*
X128735000Y-143640000D01*
X132265000Y-143575000D02*
X132265000Y-143640000D01*
X102735000Y-133360000D02*
X106265000Y-133360000D01*
X102735000Y-143640000D02*
X106265000Y-143640000D01*
X101410000Y-133425000D02*
X102735000Y-133425000D01*
X102735000Y-133360000D02*
X102735000Y-133425000D01*
X106265000Y-133360000D02*
X106265000Y-133425000D01*
X102735000Y-143575000D02*
X102735000Y-143640000D01*
X106265000Y-143575000D02*
X106265000Y-143640000D01*
X114200000Y-119300000D02*
G75*
G03X114200000Y-119300000I-700000J0D01*
G01*
X126610000Y-106040000D02*
X126610000Y-104890000D01*
X126610000Y-104890000D02*
X125560000Y-104890000D01*
X125560000Y-104890000D02*
X125560000Y-103900000D01*
X118390000Y-106040000D02*
X118390000Y-104890000D01*
X118390000Y-104890000D02*
X119440000Y-104890000D01*
X125440000Y-108010000D02*
X119560000Y-108010000D01*
X116610000Y-106040000D02*
X116610000Y-104890000D01*
X116610000Y-104890000D02*
X115560000Y-104890000D01*
X115560000Y-104890000D02*
X115560000Y-103900000D01*
X108390000Y-106040000D02*
X108390000Y-104890000D01*
X108390000Y-104890000D02*
X109440000Y-104890000D01*
X115440000Y-108010000D02*
X109560000Y-108010000D01*
X128613000Y-104621000D02*
X130898000Y-104621000D01*
X130898000Y-104621000D02*
X130898000Y-103151000D01*
X130898000Y-103151000D02*
X128613000Y-103151000D01*
X106288721Y-144828800D02*
X106614279Y-144828800D01*
X106288721Y-145848800D02*
X106614279Y-145848800D01*
X104740000Y-122490000D02*
X104740000Y-121940000D01*
X104740000Y-121940000D02*
X105290000Y-121940000D01*
X110960000Y-127610000D02*
X110960000Y-128160000D01*
X110960000Y-128160000D02*
X110410000Y-128160000D01*
X110960000Y-122490000D02*
X110960000Y-121940000D01*
X110960000Y-121940000D02*
X110410000Y-121940000D01*
X104740000Y-127610000D02*
X104740000Y-128160000D01*
X129450000Y-106717000D02*
X132150000Y-106717000D01*
X130040000Y-109437000D02*
X130040000Y-110067000D01*
X132200000Y-109437000D02*
X131560000Y-109437000D01*
X129400000Y-109437000D02*
X130040000Y-109437000D01*
X115060000Y-112500000D02*
X115060000Y-110550000D01*
X115060000Y-112500000D02*
X115060000Y-114450000D01*
X109940000Y-112500000D02*
X109940000Y-110550000D01*
X109940000Y-112500000D02*
X109940000Y-115950000D01*
D13*
X101891666Y-117308333D02*
X101891666Y-117641666D01*
X101658333Y-116941666D02*
X101891666Y-117308333D01*
X102125000Y-116941666D01*
X102725000Y-117641666D02*
X102325000Y-117641666D01*
X102525000Y-117641666D02*
X102525000Y-116941666D01*
X102458333Y-117041666D01*
X102391666Y-117108333D01*
X102325000Y-117141666D01*
D14*
X115059666Y-130136833D02*
X115626333Y-130136833D01*
X115693000Y-130103500D01*
X115726333Y-130070166D01*
X115759666Y-130003500D01*
X115759666Y-129870166D01*
X115726333Y-129803500D01*
X115693000Y-129770166D01*
X115626333Y-129736833D01*
X115059666Y-129736833D01*
X115059666Y-129470166D02*
X115059666Y-129036833D01*
X115326333Y-129270166D01*
X115326333Y-129170166D01*
X115359666Y-129103500D01*
X115393000Y-129070166D01*
X115459666Y-129036833D01*
X115626333Y-129036833D01*
X115693000Y-129070166D01*
X115726333Y-129103500D01*
X115759666Y-129170166D01*
X115759666Y-129370166D01*
X115726333Y-129436833D01*
X115693000Y-129470166D01*
X109499466Y-149019466D02*
X109499466Y-149586133D01*
X109532800Y-149652800D01*
X109566133Y-149686133D01*
X109632800Y-149719466D01*
X109766133Y-149719466D01*
X109832800Y-149686133D01*
X109866133Y-149652800D01*
X109899466Y-149586133D01*
X109899466Y-149019466D01*
X110332800Y-149319466D02*
X110266133Y-149286133D01*
X110232800Y-149252800D01*
X110199466Y-149186133D01*
X110199466Y-149152800D01*
X110232800Y-149086133D01*
X110266133Y-149052800D01*
X110332800Y-149019466D01*
X110466133Y-149019466D01*
X110532800Y-149052800D01*
X110566133Y-149086133D01*
X110599466Y-149152800D01*
X110599466Y-149186133D01*
X110566133Y-149252800D01*
X110532800Y-149286133D01*
X110466133Y-149319466D01*
X110332800Y-149319466D01*
X110266133Y-149352800D01*
X110232800Y-149386133D01*
X110199466Y-149452800D01*
X110199466Y-149586133D01*
X110232800Y-149652800D01*
X110266133Y-149686133D01*
X110332800Y-149719466D01*
X110466133Y-149719466D01*
X110532800Y-149686133D01*
X110566133Y-149652800D01*
X110599466Y-149586133D01*
X110599466Y-149452800D01*
X110566133Y-149386133D01*
X110532800Y-149352800D01*
X110466133Y-149319466D01*
X113215000Y-147001666D02*
X112981666Y-146668333D01*
X112815000Y-147001666D02*
X112815000Y-146301666D01*
X113081666Y-146301666D01*
X113148333Y-146335000D01*
X113181666Y-146368333D01*
X113215000Y-146435000D01*
X113215000Y-146535000D01*
X113181666Y-146601666D01*
X113148333Y-146635000D01*
X113081666Y-146668333D01*
X112815000Y-146668333D01*
X113881666Y-147001666D02*
X113481666Y-147001666D01*
X113681666Y-147001666D02*
X113681666Y-146301666D01*
X113615000Y-146401666D01*
X113548333Y-146468333D01*
X113481666Y-146501666D01*
X114148333Y-146368333D02*
X114181666Y-146335000D01*
X114248333Y-146301666D01*
X114415000Y-146301666D01*
X114481666Y-146335000D01*
X114515000Y-146368333D01*
X114548333Y-146435000D01*
X114548333Y-146501666D01*
X114515000Y-146601666D01*
X114115000Y-147001666D01*
X114548333Y-147001666D01*
X104188466Y-151333133D02*
X104755133Y-151333133D01*
X104821800Y-151299800D01*
X104855133Y-151266466D01*
X104888466Y-151199800D01*
X104888466Y-151066466D01*
X104855133Y-150999800D01*
X104821800Y-150966466D01*
X104755133Y-150933133D01*
X104188466Y-150933133D01*
X104188466Y-150666466D02*
X104188466Y-150199800D01*
X104888466Y-150499800D01*
X115120000Y-152132466D02*
X114886666Y-151799133D01*
X114720000Y-152132466D02*
X114720000Y-151432466D01*
X114986666Y-151432466D01*
X115053333Y-151465800D01*
X115086666Y-151499133D01*
X115120000Y-151565800D01*
X115120000Y-151665800D01*
X115086666Y-151732466D01*
X115053333Y-151765800D01*
X114986666Y-151799133D01*
X114720000Y-151799133D01*
X115786666Y-152132466D02*
X115386666Y-152132466D01*
X115586666Y-152132466D02*
X115586666Y-151432466D01*
X115520000Y-151532466D01*
X115453333Y-151599133D01*
X115386666Y-151632466D01*
X116386666Y-151665800D02*
X116386666Y-152132466D01*
X116220000Y-151399133D02*
X116053333Y-151899133D01*
X116486666Y-151899133D01*
X111700000Y-153516666D02*
X111466666Y-153183333D01*
X111300000Y-153516666D02*
X111300000Y-152816666D01*
X111566666Y-152816666D01*
X111633333Y-152850000D01*
X111666666Y-152883333D01*
X111700000Y-152950000D01*
X111700000Y-153050000D01*
X111666666Y-153116666D01*
X111633333Y-153150000D01*
X111566666Y-153183333D01*
X111300000Y-153183333D01*
X112366666Y-153516666D02*
X111966666Y-153516666D01*
X112166666Y-153516666D02*
X112166666Y-152816666D01*
X112100000Y-152916666D01*
X112033333Y-152983333D01*
X111966666Y-153016666D01*
X112800000Y-152816666D02*
X112866666Y-152816666D01*
X112933333Y-152850000D01*
X112966666Y-152883333D01*
X113000000Y-152950000D01*
X113033333Y-153083333D01*
X113033333Y-153250000D01*
X113000000Y-153383333D01*
X112966666Y-153450000D01*
X112933333Y-153483333D01*
X112866666Y-153516666D01*
X112800000Y-153516666D01*
X112733333Y-153483333D01*
X112700000Y-153450000D01*
X112666666Y-153383333D01*
X112633333Y-153250000D01*
X112633333Y-153083333D01*
X112666666Y-152950000D01*
X112700000Y-152883333D01*
X112733333Y-152850000D01*
X112800000Y-152816666D01*
X115120000Y-150922800D02*
X115086666Y-150956133D01*
X114986666Y-150989466D01*
X114920000Y-150989466D01*
X114820000Y-150956133D01*
X114753333Y-150889466D01*
X114720000Y-150822800D01*
X114686666Y-150689466D01*
X114686666Y-150589466D01*
X114720000Y-150456133D01*
X114753333Y-150389466D01*
X114820000Y-150322800D01*
X114920000Y-150289466D01*
X114986666Y-150289466D01*
X115086666Y-150322800D01*
X115120000Y-150356133D01*
X115786666Y-150989466D02*
X115386666Y-150989466D01*
X115586666Y-150989466D02*
X115586666Y-150289466D01*
X115520000Y-150389466D01*
X115453333Y-150456133D01*
X115386666Y-150489466D01*
X116020000Y-150289466D02*
X116486666Y-150289466D01*
X116186666Y-150989466D01*
X117957666Y-150086266D02*
X117957666Y-150652933D01*
X117991000Y-150719600D01*
X118024333Y-150752933D01*
X118091000Y-150786266D01*
X118224333Y-150786266D01*
X118291000Y-150752933D01*
X118324333Y-150719600D01*
X118357666Y-150652933D01*
X118357666Y-150086266D01*
X118991000Y-150086266D02*
X118857666Y-150086266D01*
X118791000Y-150119600D01*
X118757666Y-150152933D01*
X118691000Y-150252933D01*
X118657666Y-150386266D01*
X118657666Y-150652933D01*
X118691000Y-150719600D01*
X118724333Y-150752933D01*
X118791000Y-150786266D01*
X118924333Y-150786266D01*
X118991000Y-150752933D01*
X119024333Y-150719600D01*
X119057666Y-150652933D01*
X119057666Y-150486266D01*
X119024333Y-150419600D01*
X118991000Y-150386266D01*
X118924333Y-150352933D01*
X118791000Y-150352933D01*
X118724333Y-150386266D01*
X118691000Y-150419600D01*
X118657666Y-150486266D01*
X108277866Y-147294533D02*
X108844533Y-147294533D01*
X108911200Y-147261200D01*
X108944533Y-147227866D01*
X108977866Y-147161200D01*
X108977866Y-147027866D01*
X108944533Y-146961200D01*
X108911200Y-146927866D01*
X108844533Y-146894533D01*
X108277866Y-146894533D01*
X108277866Y-146227866D02*
X108277866Y-146561200D01*
X108611200Y-146594533D01*
X108577866Y-146561200D01*
X108544533Y-146494533D01*
X108544533Y-146327866D01*
X108577866Y-146261200D01*
X108611200Y-146227866D01*
X108677866Y-146194533D01*
X108844533Y-146194533D01*
X108911200Y-146227866D01*
X108944533Y-146261200D01*
X108977866Y-146327866D01*
X108977866Y-146494533D01*
X108944533Y-146561200D01*
X108911200Y-146594533D01*
X126528666Y-148976666D02*
X126528666Y-149476666D01*
X126495333Y-149576666D01*
X126428666Y-149643333D01*
X126328666Y-149676666D01*
X126262000Y-149676666D01*
X126795333Y-148976666D02*
X127262000Y-148976666D01*
X126962000Y-149676666D01*
X106423666Y-102166666D02*
X106923666Y-102166666D01*
X107023666Y-102200000D01*
X107090333Y-102266666D01*
X107123666Y-102366666D01*
X107123666Y-102433333D01*
X107123666Y-101466666D02*
X107123666Y-101866666D01*
X107123666Y-101666666D02*
X106423666Y-101666666D01*
X106523666Y-101733333D01*
X106590333Y-101800000D01*
X106623666Y-101866666D01*
X106490333Y-101200000D02*
X106457000Y-101166666D01*
X106423666Y-101100000D01*
X106423666Y-100933333D01*
X106457000Y-100866666D01*
X106490333Y-100833333D01*
X106557000Y-100800000D01*
X106623666Y-100800000D01*
X106723666Y-100833333D01*
X107123666Y-101233333D01*
X107123666Y-100800000D01*
X133214333Y-105599666D02*
X133214333Y-104899666D01*
X133381000Y-104899666D01*
X133481000Y-104933000D01*
X133547666Y-104999666D01*
X133581000Y-105066333D01*
X133614333Y-105199666D01*
X133614333Y-105299666D01*
X133581000Y-105433000D01*
X133547666Y-105499666D01*
X133481000Y-105566333D01*
X133381000Y-105599666D01*
X133214333Y-105599666D01*
X133881000Y-104966333D02*
X133914333Y-104933000D01*
X133981000Y-104899666D01*
X134147666Y-104899666D01*
X134214333Y-104933000D01*
X134247666Y-104966333D01*
X134281000Y-105033000D01*
X134281000Y-105099666D01*
X134247666Y-105199666D01*
X133847666Y-105599666D01*
X134281000Y-105599666D01*
X112532333Y-131380666D02*
X112299000Y-131047333D01*
X112132333Y-131380666D02*
X112132333Y-130680666D01*
X112399000Y-130680666D01*
X112465666Y-130714000D01*
X112499000Y-130747333D01*
X112532333Y-130814000D01*
X112532333Y-130914000D01*
X112499000Y-130980666D01*
X112465666Y-131014000D01*
X112399000Y-131047333D01*
X112132333Y-131047333D01*
X112865666Y-131380666D02*
X112999000Y-131380666D01*
X113065666Y-131347333D01*
X113099000Y-131314000D01*
X113165666Y-131214000D01*
X113199000Y-131080666D01*
X113199000Y-130814000D01*
X113165666Y-130747333D01*
X113132333Y-130714000D01*
X113065666Y-130680666D01*
X112932333Y-130680666D01*
X112865666Y-130714000D01*
X112832333Y-130747333D01*
X112799000Y-130814000D01*
X112799000Y-130980666D01*
X112832333Y-131047333D01*
X112865666Y-131080666D01*
X112932333Y-131114000D01*
X113065666Y-131114000D01*
X113132333Y-131080666D01*
X113165666Y-131047333D01*
X113199000Y-130980666D01*
X117966666Y-131766666D02*
X117966666Y-132333333D01*
X118000000Y-132400000D01*
X118033333Y-132433333D01*
X118100000Y-132466666D01*
X118233333Y-132466666D01*
X118300000Y-132433333D01*
X118333333Y-132400000D01*
X118366666Y-132333333D01*
X118366666Y-131766666D01*
X119066666Y-132466666D02*
X118666666Y-132466666D01*
X118866666Y-132466666D02*
X118866666Y-131766666D01*
X118800000Y-131866666D01*
X118733333Y-131933333D01*
X118666666Y-131966666D01*
X104568666Y-129015333D02*
X104568666Y-129348666D01*
X104335333Y-128648666D02*
X104568666Y-129015333D01*
X104802000Y-128648666D01*
X105002000Y-128715333D02*
X105035333Y-128682000D01*
X105102000Y-128648666D01*
X105268666Y-128648666D01*
X105335333Y-128682000D01*
X105368666Y-128715333D01*
X105402000Y-128782000D01*
X105402000Y-128848666D01*
X105368666Y-128948666D01*
X104968666Y-129348666D01*
X105402000Y-129348666D01*
X110119333Y-139381666D02*
X109886000Y-139048333D01*
X109719333Y-139381666D02*
X109719333Y-138681666D01*
X109986000Y-138681666D01*
X110052666Y-138715000D01*
X110086000Y-138748333D01*
X110119333Y-138815000D01*
X110119333Y-138915000D01*
X110086000Y-138981666D01*
X110052666Y-139015000D01*
X109986000Y-139048333D01*
X109719333Y-139048333D01*
X110719333Y-138915000D02*
X110719333Y-139381666D01*
X110552666Y-138648333D02*
X110386000Y-139148333D01*
X110819333Y-139148333D01*
X108989000Y-131554500D02*
X109022333Y-131587833D01*
X109055666Y-131687833D01*
X109055666Y-131754500D01*
X109022333Y-131854500D01*
X108955666Y-131921166D01*
X108889000Y-131954500D01*
X108755666Y-131987833D01*
X108655666Y-131987833D01*
X108522333Y-131954500D01*
X108455666Y-131921166D01*
X108389000Y-131854500D01*
X108355666Y-131754500D01*
X108355666Y-131687833D01*
X108389000Y-131587833D01*
X108422333Y-131554500D01*
X109055666Y-130887833D02*
X109055666Y-131287833D01*
X109055666Y-131087833D02*
X108355666Y-131087833D01*
X108455666Y-131154500D01*
X108522333Y-131221166D01*
X108555666Y-131287833D01*
X108355666Y-130287833D02*
X108355666Y-130421166D01*
X108389000Y-130487833D01*
X108422333Y-130521166D01*
X108522333Y-130587833D01*
X108655666Y-130621166D01*
X108922333Y-130621166D01*
X108989000Y-130587833D01*
X109022333Y-130554500D01*
X109055666Y-130487833D01*
X109055666Y-130354500D01*
X109022333Y-130287833D01*
X108989000Y-130254500D01*
X108922333Y-130221166D01*
X108755666Y-130221166D01*
X108689000Y-130254500D01*
X108655666Y-130287833D01*
X108622333Y-130354500D01*
X108622333Y-130487833D01*
X108655666Y-130554500D01*
X108689000Y-130587833D01*
X108755666Y-130621166D01*
X101215000Y-132356666D02*
X101248333Y-132390000D01*
X101281666Y-132490000D01*
X101281666Y-132556666D01*
X101248333Y-132656666D01*
X101181666Y-132723333D01*
X101115000Y-132756666D01*
X100981666Y-132790000D01*
X100881666Y-132790000D01*
X100748333Y-132756666D01*
X100681666Y-132723333D01*
X100615000Y-132656666D01*
X100581666Y-132556666D01*
X100581666Y-132490000D01*
X100615000Y-132390000D01*
X100648333Y-132356666D01*
X101281666Y-131690000D02*
X101281666Y-132090000D01*
X101281666Y-131890000D02*
X100581666Y-131890000D01*
X100681666Y-131956666D01*
X100748333Y-132023333D01*
X100781666Y-132090000D01*
X125548333Y-157110666D02*
X125548333Y-157610666D01*
X125515000Y-157710666D01*
X125448333Y-157777333D01*
X125348333Y-157810666D01*
X125281666Y-157810666D01*
X126248333Y-157810666D02*
X125848333Y-157810666D01*
X126048333Y-157810666D02*
X126048333Y-157110666D01*
X125981666Y-157210666D01*
X125915000Y-157277333D01*
X125848333Y-157310666D01*
X126681666Y-157110666D02*
X126748333Y-157110666D01*
X126815000Y-157144000D01*
X126848333Y-157177333D01*
X126881666Y-157244000D01*
X126915000Y-157377333D01*
X126915000Y-157544000D01*
X126881666Y-157677333D01*
X126848333Y-157744000D01*
X126815000Y-157777333D01*
X126748333Y-157810666D01*
X126681666Y-157810666D01*
X126615000Y-157777333D01*
X126581666Y-157744000D01*
X126548333Y-157677333D01*
X126515000Y-157544000D01*
X126515000Y-157377333D01*
X126548333Y-157244000D01*
X126581666Y-157177333D01*
X126615000Y-157144000D01*
X126681666Y-157110666D01*
X130322666Y-144142666D02*
X130322666Y-144642666D01*
X130289333Y-144742666D01*
X130222666Y-144809333D01*
X130122666Y-144842666D01*
X130056000Y-144842666D01*
X130956000Y-144376000D02*
X130956000Y-144842666D01*
X130789333Y-144109333D02*
X130622666Y-144609333D01*
X131056000Y-144609333D01*
X104160666Y-144015666D02*
X104160666Y-144515666D01*
X104127333Y-144615666D01*
X104060666Y-144682333D01*
X103960666Y-144715666D01*
X103894000Y-144715666D01*
X104860666Y-144715666D02*
X104460666Y-144715666D01*
X104660666Y-144715666D02*
X104660666Y-144015666D01*
X104594000Y-144115666D01*
X104527333Y-144182333D01*
X104460666Y-144215666D01*
X109532000Y-144436266D02*
X109298666Y-144102933D01*
X109132000Y-144436266D02*
X109132000Y-143736266D01*
X109398666Y-143736266D01*
X109465333Y-143769600D01*
X109498666Y-143802933D01*
X109532000Y-143869600D01*
X109532000Y-143969600D01*
X109498666Y-144036266D01*
X109465333Y-144069600D01*
X109398666Y-144102933D01*
X109132000Y-144102933D01*
X110198666Y-144436266D02*
X109798666Y-144436266D01*
X109998666Y-144436266D02*
X109998666Y-143736266D01*
X109932000Y-143836266D01*
X109865333Y-143902933D01*
X109798666Y-143936266D01*
X110532000Y-144436266D02*
X110665333Y-144436266D01*
X110732000Y-144402933D01*
X110765333Y-144369600D01*
X110832000Y-144269600D01*
X110865333Y-144136266D01*
X110865333Y-143869600D01*
X110832000Y-143802933D01*
X110798666Y-143769600D01*
X110732000Y-143736266D01*
X110598666Y-143736266D01*
X110532000Y-143769600D01*
X110498666Y-143802933D01*
X110465333Y-143869600D01*
X110465333Y-144036266D01*
X110498666Y-144102933D01*
X110532000Y-144136266D01*
X110598666Y-144169600D01*
X110732000Y-144169600D01*
X110798666Y-144136266D01*
X110832000Y-144102933D01*
X110865333Y-144036266D01*
X126808666Y-140023000D02*
X126475333Y-140256333D01*
X126808666Y-140423000D02*
X126108666Y-140423000D01*
X126108666Y-140156333D01*
X126142000Y-140089666D01*
X126175333Y-140056333D01*
X126242000Y-140023000D01*
X126342000Y-140023000D01*
X126408666Y-140056333D01*
X126442000Y-140089666D01*
X126475333Y-140156333D01*
X126475333Y-140423000D01*
X126808666Y-139356333D02*
X126808666Y-139756333D01*
X126808666Y-139556333D02*
X126108666Y-139556333D01*
X126208666Y-139623000D01*
X126275333Y-139689666D01*
X126308666Y-139756333D01*
X126108666Y-139123000D02*
X126108666Y-138689666D01*
X126375333Y-138923000D01*
X126375333Y-138823000D01*
X126408666Y-138756333D01*
X126442000Y-138723000D01*
X126508666Y-138689666D01*
X126675333Y-138689666D01*
X126742000Y-138723000D01*
X126775333Y-138756333D01*
X126808666Y-138823000D01*
X126808666Y-139023000D01*
X126775333Y-139089666D01*
X126742000Y-139123000D01*
X123871800Y-148325666D02*
X123905133Y-148359000D01*
X123938466Y-148459000D01*
X123938466Y-148525666D01*
X123905133Y-148625666D01*
X123838466Y-148692333D01*
X123771800Y-148725666D01*
X123638466Y-148759000D01*
X123538466Y-148759000D01*
X123405133Y-148725666D01*
X123338466Y-148692333D01*
X123271800Y-148625666D01*
X123238466Y-148525666D01*
X123238466Y-148459000D01*
X123271800Y-148359000D01*
X123305133Y-148325666D01*
X123238466Y-148092333D02*
X123238466Y-147659000D01*
X123505133Y-147892333D01*
X123505133Y-147792333D01*
X123538466Y-147725666D01*
X123571800Y-147692333D01*
X123638466Y-147659000D01*
X123805133Y-147659000D01*
X123871800Y-147692333D01*
X123905133Y-147725666D01*
X123938466Y-147792333D01*
X123938466Y-147992333D01*
X123905133Y-148059000D01*
X123871800Y-148092333D01*
X100848333Y-145096666D02*
X100615000Y-144763333D01*
X100448333Y-145096666D02*
X100448333Y-144396666D01*
X100715000Y-144396666D01*
X100781666Y-144430000D01*
X100815000Y-144463333D01*
X100848333Y-144530000D01*
X100848333Y-144630000D01*
X100815000Y-144696666D01*
X100781666Y-144730000D01*
X100715000Y-144763333D01*
X100448333Y-144763333D01*
X101081666Y-144396666D02*
X101515000Y-144396666D01*
X101281666Y-144663333D01*
X101381666Y-144663333D01*
X101448333Y-144696666D01*
X101481666Y-144730000D01*
X101515000Y-144796666D01*
X101515000Y-144963333D01*
X101481666Y-145030000D01*
X101448333Y-145063333D01*
X101381666Y-145096666D01*
X101181666Y-145096666D01*
X101115000Y-145063333D01*
X101081666Y-145030000D01*
X100848333Y-146239666D02*
X100615000Y-145906333D01*
X100448333Y-146239666D02*
X100448333Y-145539666D01*
X100715000Y-145539666D01*
X100781666Y-145573000D01*
X100815000Y-145606333D01*
X100848333Y-145673000D01*
X100848333Y-145773000D01*
X100815000Y-145839666D01*
X100781666Y-145873000D01*
X100715000Y-145906333D01*
X100448333Y-145906333D01*
X101515000Y-146239666D02*
X101115000Y-146239666D01*
X101315000Y-146239666D02*
X101315000Y-145539666D01*
X101248333Y-145639666D01*
X101181666Y-145706333D01*
X101115000Y-145739666D01*
X113215000Y-150049666D02*
X112981666Y-149716333D01*
X112815000Y-150049666D02*
X112815000Y-149349666D01*
X113081666Y-149349666D01*
X113148333Y-149383000D01*
X113181666Y-149416333D01*
X113215000Y-149483000D01*
X113215000Y-149583000D01*
X113181666Y-149649666D01*
X113148333Y-149683000D01*
X113081666Y-149716333D01*
X112815000Y-149716333D01*
X113881666Y-150049666D02*
X113481666Y-150049666D01*
X113681666Y-150049666D02*
X113681666Y-149349666D01*
X113615000Y-149449666D01*
X113548333Y-149516333D01*
X113481666Y-149549666D01*
X114548333Y-150049666D02*
X114148333Y-150049666D01*
X114348333Y-150049666D02*
X114348333Y-149349666D01*
X114281666Y-149449666D01*
X114215000Y-149516333D01*
X114148333Y-149549666D01*
X112532333Y-132396666D02*
X112299000Y-132063333D01*
X112132333Y-132396666D02*
X112132333Y-131696666D01*
X112399000Y-131696666D01*
X112465666Y-131730000D01*
X112499000Y-131763333D01*
X112532333Y-131830000D01*
X112532333Y-131930000D01*
X112499000Y-131996666D01*
X112465666Y-132030000D01*
X112399000Y-132063333D01*
X112132333Y-132063333D01*
X112932333Y-131996666D02*
X112865666Y-131963333D01*
X112832333Y-131930000D01*
X112799000Y-131863333D01*
X112799000Y-131830000D01*
X112832333Y-131763333D01*
X112865666Y-131730000D01*
X112932333Y-131696666D01*
X113065666Y-131696666D01*
X113132333Y-131730000D01*
X113165666Y-131763333D01*
X113199000Y-131830000D01*
X113199000Y-131863333D01*
X113165666Y-131930000D01*
X113132333Y-131963333D01*
X113065666Y-131996666D01*
X112932333Y-131996666D01*
X112865666Y-132030000D01*
X112832333Y-132063333D01*
X112799000Y-132130000D01*
X112799000Y-132263333D01*
X112832333Y-132330000D01*
X112865666Y-132363333D01*
X112932333Y-132396666D01*
X113065666Y-132396666D01*
X113132333Y-132363333D01*
X113165666Y-132330000D01*
X113199000Y-132263333D01*
X113199000Y-132130000D01*
X113165666Y-132063333D01*
X113132333Y-132030000D01*
X113065666Y-131996666D01*
X124983333Y-131380666D02*
X124750000Y-131047333D01*
X124583333Y-131380666D02*
X124583333Y-130680666D01*
X124850000Y-130680666D01*
X124916666Y-130714000D01*
X124950000Y-130747333D01*
X124983333Y-130814000D01*
X124983333Y-130914000D01*
X124950000Y-130980666D01*
X124916666Y-131014000D01*
X124850000Y-131047333D01*
X124583333Y-131047333D01*
X125216666Y-130680666D02*
X125683333Y-130680666D01*
X125383333Y-131380666D01*
X111668733Y-139381666D02*
X111435400Y-139048333D01*
X111268733Y-139381666D02*
X111268733Y-138681666D01*
X111535400Y-138681666D01*
X111602066Y-138715000D01*
X111635400Y-138748333D01*
X111668733Y-138815000D01*
X111668733Y-138915000D01*
X111635400Y-138981666D01*
X111602066Y-139015000D01*
X111535400Y-139048333D01*
X111268733Y-139048333D01*
X112268733Y-138681666D02*
X112135400Y-138681666D01*
X112068733Y-138715000D01*
X112035400Y-138748333D01*
X111968733Y-138848333D01*
X111935400Y-138981666D01*
X111935400Y-139248333D01*
X111968733Y-139315000D01*
X112002066Y-139348333D01*
X112068733Y-139381666D01*
X112202066Y-139381666D01*
X112268733Y-139348333D01*
X112302066Y-139315000D01*
X112335400Y-139248333D01*
X112335400Y-139081666D01*
X112302066Y-139015000D01*
X112268733Y-138981666D01*
X112202066Y-138948333D01*
X112068733Y-138948333D01*
X112002066Y-138981666D01*
X111968733Y-139015000D01*
X111935400Y-139081666D01*
X126808666Y-142102666D02*
X126475333Y-142336000D01*
X126808666Y-142502666D02*
X126108666Y-142502666D01*
X126108666Y-142236000D01*
X126142000Y-142169333D01*
X126175333Y-142136000D01*
X126242000Y-142102666D01*
X126342000Y-142102666D01*
X126408666Y-142136000D01*
X126442000Y-142169333D01*
X126475333Y-142236000D01*
X126475333Y-142502666D01*
X126108666Y-141469333D02*
X126108666Y-141802666D01*
X126442000Y-141836000D01*
X126408666Y-141802666D01*
X126375333Y-141736000D01*
X126375333Y-141569333D01*
X126408666Y-141502666D01*
X126442000Y-141469333D01*
X126508666Y-141436000D01*
X126675333Y-141436000D01*
X126742000Y-141469333D01*
X126775333Y-141502666D01*
X126808666Y-141569333D01*
X126808666Y-141736000D01*
X126775333Y-141802666D01*
X126742000Y-141836000D01*
X111668733Y-144436266D02*
X111435400Y-144102933D01*
X111268733Y-144436266D02*
X111268733Y-143736266D01*
X111535400Y-143736266D01*
X111602066Y-143769600D01*
X111635400Y-143802933D01*
X111668733Y-143869600D01*
X111668733Y-143969600D01*
X111635400Y-144036266D01*
X111602066Y-144069600D01*
X111535400Y-144102933D01*
X111268733Y-144102933D01*
X111935400Y-143802933D02*
X111968733Y-143769600D01*
X112035400Y-143736266D01*
X112202066Y-143736266D01*
X112268733Y-143769600D01*
X112302066Y-143802933D01*
X112335400Y-143869600D01*
X112335400Y-143936266D01*
X112302066Y-144036266D01*
X111902066Y-144436266D01*
X112335400Y-144436266D01*
X126131666Y-103883666D02*
X126131666Y-104383666D01*
X126098333Y-104483666D01*
X126031666Y-104550333D01*
X125931666Y-104583666D01*
X125865000Y-104583666D01*
X126398333Y-103883666D02*
X126831666Y-103883666D01*
X126598333Y-104150333D01*
X126698333Y-104150333D01*
X126765000Y-104183666D01*
X126798333Y-104217000D01*
X126831666Y-104283666D01*
X126831666Y-104450333D01*
X126798333Y-104517000D01*
X126765000Y-104550333D01*
X126698333Y-104583666D01*
X126498333Y-104583666D01*
X126431666Y-104550333D01*
X126398333Y-104517000D01*
X108224666Y-103756666D02*
X108224666Y-104256666D01*
X108191333Y-104356666D01*
X108124666Y-104423333D01*
X108024666Y-104456666D01*
X107958000Y-104456666D01*
X108524666Y-103823333D02*
X108558000Y-103790000D01*
X108624666Y-103756666D01*
X108791333Y-103756666D01*
X108858000Y-103790000D01*
X108891333Y-103823333D01*
X108924666Y-103890000D01*
X108924666Y-103956666D01*
X108891333Y-104056666D01*
X108491333Y-104456666D01*
X108924666Y-104456666D01*
X127880333Y-105599666D02*
X127880333Y-104899666D01*
X128047000Y-104899666D01*
X128147000Y-104933000D01*
X128213666Y-104999666D01*
X128247000Y-105066333D01*
X128280333Y-105199666D01*
X128280333Y-105299666D01*
X128247000Y-105433000D01*
X128213666Y-105499666D01*
X128147000Y-105566333D01*
X128047000Y-105599666D01*
X127880333Y-105599666D01*
X128513666Y-104899666D02*
X128947000Y-104899666D01*
X128713666Y-105166333D01*
X128813666Y-105166333D01*
X128880333Y-105199666D01*
X128913666Y-105233000D01*
X128947000Y-105299666D01*
X128947000Y-105466333D01*
X128913666Y-105533000D01*
X128880333Y-105566333D01*
X128813666Y-105599666D01*
X128613666Y-105599666D01*
X128547000Y-105566333D01*
X128513666Y-105533000D01*
X107650000Y-110550000D02*
X107683333Y-110583333D01*
X107716666Y-110683333D01*
X107716666Y-110750000D01*
X107683333Y-110850000D01*
X107616666Y-110916666D01*
X107550000Y-110950000D01*
X107416666Y-110983333D01*
X107316666Y-110983333D01*
X107183333Y-110950000D01*
X107116666Y-110916666D01*
X107050000Y-110850000D01*
X107016666Y-110750000D01*
X107016666Y-110683333D01*
X107050000Y-110583333D01*
X107083333Y-110550000D01*
X107083333Y-110283333D02*
X107050000Y-110250000D01*
X107016666Y-110183333D01*
X107016666Y-110016666D01*
X107050000Y-109950000D01*
X107083333Y-109916666D01*
X107150000Y-109883333D01*
X107216666Y-109883333D01*
X107316666Y-109916666D01*
X107716666Y-110316666D01*
X107716666Y-109883333D01*
X107016666Y-109450000D02*
X107016666Y-109383333D01*
X107050000Y-109316666D01*
X107083333Y-109283333D01*
X107150000Y-109250000D01*
X107283333Y-109216666D01*
X107450000Y-109216666D01*
X107583333Y-109250000D01*
X107650000Y-109283333D01*
X107683333Y-109316666D01*
X107716666Y-109383333D01*
X107716666Y-109450000D01*
X107683333Y-109516666D01*
X107650000Y-109550000D01*
X107583333Y-109583333D01*
X107450000Y-109616666D01*
X107283333Y-109616666D01*
X107150000Y-109583333D01*
X107083333Y-109550000D01*
X107050000Y-109516666D01*
X107016666Y-109450000D01*
X125650000Y-109350000D02*
X125616666Y-109383333D01*
X125516666Y-109416666D01*
X125450000Y-109416666D01*
X125350000Y-109383333D01*
X125283333Y-109316666D01*
X125250000Y-109250000D01*
X125216666Y-109116666D01*
X125216666Y-109016666D01*
X125250000Y-108883333D01*
X125283333Y-108816666D01*
X125350000Y-108750000D01*
X125450000Y-108716666D01*
X125516666Y-108716666D01*
X125616666Y-108750000D01*
X125650000Y-108783333D01*
X126316666Y-109416666D02*
X125916666Y-109416666D01*
X126116666Y-109416666D02*
X126116666Y-108716666D01*
X126050000Y-108816666D01*
X125983333Y-108883333D01*
X125916666Y-108916666D01*
X126950000Y-108716666D02*
X126616666Y-108716666D01*
X126583333Y-109050000D01*
X126616666Y-109016666D01*
X126683333Y-108983333D01*
X126850000Y-108983333D01*
X126916666Y-109016666D01*
X126950000Y-109050000D01*
X126983333Y-109116666D01*
X126983333Y-109283333D01*
X126950000Y-109350000D01*
X126916666Y-109383333D01*
X126850000Y-109416666D01*
X126683333Y-109416666D01*
X126616666Y-109383333D01*
X126583333Y-109350000D01*
X108493833Y-145588800D02*
X108460500Y-145622133D01*
X108360500Y-145655466D01*
X108293833Y-145655466D01*
X108193833Y-145622133D01*
X108127166Y-145555466D01*
X108093833Y-145488800D01*
X108060500Y-145355466D01*
X108060500Y-145255466D01*
X108093833Y-145122133D01*
X108127166Y-145055466D01*
X108193833Y-144988800D01*
X108293833Y-144955466D01*
X108360500Y-144955466D01*
X108460500Y-144988800D01*
X108493833Y-145022133D01*
X108727166Y-144955466D02*
X109193833Y-144955466D01*
X108893833Y-145655466D01*
X126742000Y-137149666D02*
X126775333Y-137183000D01*
X126808666Y-137283000D01*
X126808666Y-137349666D01*
X126775333Y-137449666D01*
X126708666Y-137516333D01*
X126642000Y-137549666D01*
X126508666Y-137583000D01*
X126408666Y-137583000D01*
X126275333Y-137549666D01*
X126208666Y-137516333D01*
X126142000Y-137449666D01*
X126108666Y-137349666D01*
X126108666Y-137283000D01*
X126142000Y-137183000D01*
X126175333Y-137149666D01*
X126175333Y-136883000D02*
X126142000Y-136849666D01*
X126108666Y-136783000D01*
X126108666Y-136616333D01*
X126142000Y-136549666D01*
X126175333Y-136516333D01*
X126242000Y-136483000D01*
X126308666Y-136483000D01*
X126408666Y-136516333D01*
X126808666Y-136916333D01*
X126808666Y-136483000D01*
X111866666Y-124516666D02*
X111866666Y-125083333D01*
X111900000Y-125150000D01*
X111933333Y-125183333D01*
X112000000Y-125216666D01*
X112133333Y-125216666D01*
X112200000Y-125183333D01*
X112233333Y-125150000D01*
X112266666Y-125083333D01*
X112266666Y-124516666D01*
X112566666Y-124583333D02*
X112600000Y-124550000D01*
X112666666Y-124516666D01*
X112833333Y-124516666D01*
X112900000Y-124550000D01*
X112933333Y-124583333D01*
X112966666Y-124650000D01*
X112966666Y-124716666D01*
X112933333Y-124816666D01*
X112533333Y-125216666D01*
X112966666Y-125216666D01*
X130243333Y-105851666D02*
X130243333Y-106351666D01*
X130210000Y-106451666D01*
X130143333Y-106518333D01*
X130043333Y-106551666D01*
X129976666Y-106551666D01*
X130543333Y-105918333D02*
X130576666Y-105885000D01*
X130643333Y-105851666D01*
X130810000Y-105851666D01*
X130876666Y-105885000D01*
X130910000Y-105918333D01*
X130943333Y-105985000D01*
X130943333Y-106051666D01*
X130910000Y-106151666D01*
X130510000Y-106551666D01*
X130943333Y-106551666D01*
X131376666Y-105851666D02*
X131443333Y-105851666D01*
X131510000Y-105885000D01*
X131543333Y-105918333D01*
X131576666Y-105985000D01*
X131610000Y-106118333D01*
X131610000Y-106285000D01*
X131576666Y-106418333D01*
X131543333Y-106485000D01*
X131510000Y-106518333D01*
X131443333Y-106551666D01*
X131376666Y-106551666D01*
X131310000Y-106518333D01*
X131276666Y-106485000D01*
X131243333Y-106418333D01*
X131210000Y-106285000D01*
X131210000Y-106118333D01*
X131243333Y-105985000D01*
X131276666Y-105918333D01*
X131310000Y-105885000D01*
X131376666Y-105851666D01*
X109750000Y-117150000D02*
X109716666Y-117183333D01*
X109616666Y-117216666D01*
X109550000Y-117216666D01*
X109450000Y-117183333D01*
X109383333Y-117116666D01*
X109350000Y-117050000D01*
X109316666Y-116916666D01*
X109316666Y-116816666D01*
X109350000Y-116683333D01*
X109383333Y-116616666D01*
X109450000Y-116550000D01*
X109550000Y-116516666D01*
X109616666Y-116516666D01*
X109716666Y-116550000D01*
X109750000Y-116583333D01*
X110016666Y-116583333D02*
X110050000Y-116550000D01*
X110116666Y-116516666D01*
X110283333Y-116516666D01*
X110350000Y-116550000D01*
X110383333Y-116583333D01*
X110416666Y-116650000D01*
X110416666Y-116716666D01*
X110383333Y-116816666D01*
X109983333Y-117216666D01*
X110416666Y-117216666D01*
X111083333Y-117216666D02*
X110683333Y-117216666D01*
X110883333Y-117216666D02*
X110883333Y-116516666D01*
X110816666Y-116616666D01*
X110750000Y-116683333D01*
X110683333Y-116716666D01*
X108383333Y-113516666D02*
X108050000Y-113516666D01*
X108050000Y-112816666D01*
X108583333Y-112883333D02*
X108616666Y-112850000D01*
X108683333Y-112816666D01*
X108850000Y-112816666D01*
X108916666Y-112850000D01*
X108950000Y-112883333D01*
X108983333Y-112950000D01*
X108983333Y-113016666D01*
X108950000Y-113116666D01*
X108550000Y-113516666D01*
X108983333Y-113516666D01*
X107183333Y-112450000D02*
X107150000Y-112483333D01*
X107050000Y-112516666D01*
X106983333Y-112516666D01*
X106883333Y-112483333D01*
X106816666Y-112416666D01*
X106783333Y-112350000D01*
X106750000Y-112216666D01*
X106750000Y-112116666D01*
X106783333Y-111983333D01*
X106816666Y-111916666D01*
X106883333Y-111850000D01*
X106983333Y-111816666D01*
X107050000Y-111816666D01*
X107150000Y-111850000D01*
X107183333Y-111883333D01*
X107516666Y-112516666D02*
X107650000Y-112516666D01*
X107716666Y-112483333D01*
X107750000Y-112450000D01*
X107816666Y-112350000D01*
X107850000Y-112216666D01*
X107850000Y-111950000D01*
X107816666Y-111883333D01*
X107783333Y-111850000D01*
X107716666Y-111816666D01*
X107583333Y-111816666D01*
X107516666Y-111850000D01*
X107483333Y-111883333D01*
X107450000Y-111950000D01*
X107450000Y-112116666D01*
X107483333Y-112183333D01*
X107516666Y-112216666D01*
X107583333Y-112250000D01*
X107716666Y-112250000D01*
X107783333Y-112216666D01*
X107816666Y-112183333D01*
X107850000Y-112116666D01*
X101250000Y-125788000D02*
X101283333Y-125821333D01*
X101316666Y-125921333D01*
X101316666Y-125988000D01*
X101283333Y-126088000D01*
X101216666Y-126154666D01*
X101150000Y-126188000D01*
X101016666Y-126221333D01*
X100916666Y-126221333D01*
X100783333Y-126188000D01*
X100716666Y-126154666D01*
X100650000Y-126088000D01*
X100616666Y-125988000D01*
X100616666Y-125921333D01*
X100650000Y-125821333D01*
X100683333Y-125788000D01*
X101316666Y-125121333D02*
X101316666Y-125521333D01*
X101316666Y-125321333D02*
X100616666Y-125321333D01*
X100716666Y-125388000D01*
X100783333Y-125454666D01*
X100816666Y-125521333D01*
X100850000Y-124521333D02*
X101316666Y-124521333D01*
X100583333Y-124688000D02*
X101083333Y-124854666D01*
X101083333Y-124421333D01*
X101250000Y-130250000D02*
X101283333Y-130283333D01*
X101316666Y-130383333D01*
X101316666Y-130450000D01*
X101283333Y-130550000D01*
X101216666Y-130616666D01*
X101150000Y-130650000D01*
X101016666Y-130683333D01*
X100916666Y-130683333D01*
X100783333Y-130650000D01*
X100716666Y-130616666D01*
X100650000Y-130550000D01*
X100616666Y-130450000D01*
X100616666Y-130383333D01*
X100650000Y-130283333D01*
X100683333Y-130250000D01*
X101316666Y-129583333D02*
X101316666Y-129983333D01*
X101316666Y-129783333D02*
X100616666Y-129783333D01*
X100716666Y-129850000D01*
X100783333Y-129916666D01*
X100816666Y-129983333D01*
X101316666Y-128916666D02*
X101316666Y-129316666D01*
X101316666Y-129116666D02*
X100616666Y-129116666D01*
X100716666Y-129183333D01*
X100783333Y-129250000D01*
X100816666Y-129316666D01*
X111511000Y-119650666D02*
X111544333Y-119684000D01*
X111577666Y-119784000D01*
X111577666Y-119850666D01*
X111544333Y-119950666D01*
X111477666Y-120017333D01*
X111411000Y-120050666D01*
X111277666Y-120084000D01*
X111177666Y-120084000D01*
X111044333Y-120050666D01*
X110977666Y-120017333D01*
X110911000Y-119950666D01*
X110877666Y-119850666D01*
X110877666Y-119784000D01*
X110911000Y-119684000D01*
X110944333Y-119650666D01*
X111177666Y-119250666D02*
X111144333Y-119317333D01*
X111111000Y-119350666D01*
X111044333Y-119384000D01*
X111011000Y-119384000D01*
X110944333Y-119350666D01*
X110911000Y-119317333D01*
X110877666Y-119250666D01*
X110877666Y-119117333D01*
X110911000Y-119050666D01*
X110944333Y-119017333D01*
X111011000Y-118984000D01*
X111044333Y-118984000D01*
X111111000Y-119017333D01*
X111144333Y-119050666D01*
X111177666Y-119117333D01*
X111177666Y-119250666D01*
X111211000Y-119317333D01*
X111244333Y-119350666D01*
X111311000Y-119384000D01*
X111444333Y-119384000D01*
X111511000Y-119350666D01*
X111544333Y-119317333D01*
X111577666Y-119250666D01*
X111577666Y-119117333D01*
X111544333Y-119050666D01*
X111511000Y-119017333D01*
X111444333Y-118984000D01*
X111311000Y-118984000D01*
X111244333Y-119017333D01*
X111211000Y-119050666D01*
X111177666Y-119117333D01*
X109368400Y-119649066D02*
X109401733Y-119682400D01*
X109435066Y-119782400D01*
X109435066Y-119849066D01*
X109401733Y-119949066D01*
X109335066Y-120015733D01*
X109268400Y-120049066D01*
X109135066Y-120082400D01*
X109035066Y-120082400D01*
X108901733Y-120049066D01*
X108835066Y-120015733D01*
X108768400Y-119949066D01*
X108735066Y-119849066D01*
X108735066Y-119782400D01*
X108768400Y-119682400D01*
X108801733Y-119649066D01*
X108735066Y-119049066D02*
X108735066Y-119182400D01*
X108768400Y-119249066D01*
X108801733Y-119282400D01*
X108901733Y-119349066D01*
X109035066Y-119382400D01*
X109301733Y-119382400D01*
X109368400Y-119349066D01*
X109401733Y-119315733D01*
X109435066Y-119249066D01*
X109435066Y-119115733D01*
X109401733Y-119049066D01*
X109368400Y-119015733D01*
X109301733Y-118982400D01*
X109135066Y-118982400D01*
X109068400Y-119015733D01*
X109035066Y-119049066D01*
X109001733Y-119115733D01*
X109001733Y-119249066D01*
X109035066Y-119315733D01*
X109068400Y-119349066D01*
X109135066Y-119382400D01*
X100683333Y-121550000D02*
X100650000Y-121583333D01*
X100550000Y-121616666D01*
X100483333Y-121616666D01*
X100383333Y-121583333D01*
X100316666Y-121516666D01*
X100283333Y-121450000D01*
X100250000Y-121316666D01*
X100250000Y-121216666D01*
X100283333Y-121083333D01*
X100316666Y-121016666D01*
X100383333Y-120950000D01*
X100483333Y-120916666D01*
X100550000Y-120916666D01*
X100650000Y-120950000D01*
X100683333Y-120983333D01*
X101316666Y-120916666D02*
X100983333Y-120916666D01*
X100950000Y-121250000D01*
X100983333Y-121216666D01*
X101050000Y-121183333D01*
X101216666Y-121183333D01*
X101283333Y-121216666D01*
X101316666Y-121250000D01*
X101350000Y-121316666D01*
X101350000Y-121483333D01*
X101316666Y-121550000D01*
X101283333Y-121583333D01*
X101216666Y-121616666D01*
X101050000Y-121616666D01*
X100983333Y-121583333D01*
X100950000Y-121550000D01*
X110441000Y-119665666D02*
X110474333Y-119699000D01*
X110507666Y-119799000D01*
X110507666Y-119865666D01*
X110474333Y-119965666D01*
X110407666Y-120032333D01*
X110341000Y-120065666D01*
X110207666Y-120099000D01*
X110107666Y-120099000D01*
X109974333Y-120065666D01*
X109907666Y-120032333D01*
X109841000Y-119965666D01*
X109807666Y-119865666D01*
X109807666Y-119799000D01*
X109841000Y-119699000D01*
X109874333Y-119665666D01*
X110041000Y-119065666D02*
X110507666Y-119065666D01*
X109774333Y-119232333D02*
X110274333Y-119399000D01*
X110274333Y-118965666D01*
X113850000Y-128250000D02*
X113816666Y-128283333D01*
X113716666Y-128316666D01*
X113650000Y-128316666D01*
X113550000Y-128283333D01*
X113483333Y-128216666D01*
X113450000Y-128150000D01*
X113416666Y-128016666D01*
X113416666Y-127916666D01*
X113450000Y-127783333D01*
X113483333Y-127716666D01*
X113550000Y-127650000D01*
X113650000Y-127616666D01*
X113716666Y-127616666D01*
X113816666Y-127650000D01*
X113850000Y-127683333D01*
X114516666Y-128316666D02*
X114116666Y-128316666D01*
X114316666Y-128316666D02*
X114316666Y-127616666D01*
X114250000Y-127716666D01*
X114183333Y-127783333D01*
X114116666Y-127816666D01*
X114750000Y-127616666D02*
X115183333Y-127616666D01*
X114950000Y-127883333D01*
X115050000Y-127883333D01*
X115116666Y-127916666D01*
X115150000Y-127950000D01*
X115183333Y-128016666D01*
X115183333Y-128183333D01*
X115150000Y-128250000D01*
X115116666Y-128283333D01*
X115050000Y-128316666D01*
X114850000Y-128316666D01*
X114783333Y-128283333D01*
X114750000Y-128250000D01*
X102150000Y-123651000D02*
X102116666Y-123684333D01*
X102016666Y-123717666D01*
X101950000Y-123717666D01*
X101850000Y-123684333D01*
X101783333Y-123617666D01*
X101750000Y-123551000D01*
X101716666Y-123417666D01*
X101716666Y-123317666D01*
X101750000Y-123184333D01*
X101783333Y-123117666D01*
X101850000Y-123051000D01*
X101950000Y-123017666D01*
X102016666Y-123017666D01*
X102116666Y-123051000D01*
X102150000Y-123084333D01*
X102816666Y-123717666D02*
X102416666Y-123717666D01*
X102616666Y-123717666D02*
X102616666Y-123017666D01*
X102550000Y-123117666D01*
X102483333Y-123184333D01*
X102416666Y-123217666D01*
X103083333Y-123084333D02*
X103116666Y-123051000D01*
X103183333Y-123017666D01*
X103350000Y-123017666D01*
X103416666Y-123051000D01*
X103450000Y-123084333D01*
X103483333Y-123151000D01*
X103483333Y-123217666D01*
X103450000Y-123317666D01*
X103050000Y-123717666D01*
X103483333Y-123717666D01*
X101250000Y-127950000D02*
X101283333Y-127983333D01*
X101316666Y-128083333D01*
X101316666Y-128150000D01*
X101283333Y-128250000D01*
X101216666Y-128316666D01*
X101150000Y-128350000D01*
X101016666Y-128383333D01*
X100916666Y-128383333D01*
X100783333Y-128350000D01*
X100716666Y-128316666D01*
X100650000Y-128250000D01*
X100616666Y-128150000D01*
X100616666Y-128083333D01*
X100650000Y-127983333D01*
X100683333Y-127950000D01*
X101316666Y-127283333D02*
X101316666Y-127683333D01*
X101316666Y-127483333D02*
X100616666Y-127483333D01*
X100716666Y-127550000D01*
X100783333Y-127616666D01*
X100816666Y-127683333D01*
X100616666Y-126850000D02*
X100616666Y-126783333D01*
X100650000Y-126716666D01*
X100683333Y-126683333D01*
X100750000Y-126650000D01*
X100883333Y-126616666D01*
X101050000Y-126616666D01*
X101183333Y-126650000D01*
X101250000Y-126683333D01*
X101283333Y-126716666D01*
X101316666Y-126783333D01*
X101316666Y-126850000D01*
X101283333Y-126916666D01*
X101250000Y-126950000D01*
X101183333Y-126983333D01*
X101050000Y-127016666D01*
X100883333Y-127016666D01*
X100750000Y-126983333D01*
X100683333Y-126950000D01*
X100650000Y-126916666D01*
X100616666Y-126850000D01*
X112866666Y-116416666D02*
X112866666Y-116983333D01*
X112900000Y-117050000D01*
X112933333Y-117083333D01*
X113000000Y-117116666D01*
X113133333Y-117116666D01*
X113200000Y-117083333D01*
X113233333Y-117050000D01*
X113266666Y-116983333D01*
X113266666Y-116416666D01*
X113900000Y-116650000D02*
X113900000Y-117116666D01*
X113733333Y-116383333D02*
X113566666Y-116883333D01*
X114000000Y-116883333D01*
M02*
