G04 #@! TF.GenerationSoftware,KiCad,Pcbnew,(5.1.0-1348-g4ca769472)*
G04 #@! TF.CreationDate,2021-05-21T20:59:56-07:00*
G04 #@! TF.ProjectId,loggerhw_v5.0,6c6f6767-6572-4687-975f-76352e302e6b,rev?*
G04 #@! TF.SameCoordinates,Original*
G04 #@! TF.FileFunction,Soldermask,Bot*
G04 #@! TF.FilePolarity,Negative*
%FSLAX46Y46*%
G04 Gerber Fmt 4.6, Leading zero omitted, Abs format (unit mm)*
G04 Created by KiCad (PCBNEW (5.1.0-1348-g4ca769472)) date 2021-05-21 20:59:56*
%MOMM*%
%LPD*%
G04 APERTURE LIST*
%ADD10C,0.100000*%
G04 APERTURE END LIST*
D10*
G36*
X107492742Y-163847002D02*
G01*
X107516523Y-163846255D01*
X107594921Y-163857832D01*
X107676500Y-163866478D01*
X107699247Y-163873237D01*
X107719783Y-163876270D01*
X107797754Y-163902510D01*
X107879275Y-163926735D01*
X107897713Y-163936150D01*
X107914517Y-163941805D01*
X107989255Y-163982894D01*
X108067674Y-164022936D01*
X108081693Y-164033713D01*
X108094561Y-164040787D01*
X108163190Y-164096361D01*
X108235387Y-164151860D01*
X108245176Y-164162751D01*
X108254238Y-164170089D01*
X108313939Y-164239254D01*
X108376797Y-164309187D01*
X108382859Y-164319099D01*
X108388493Y-164325626D01*
X108436568Y-164406916D01*
X108487168Y-164489650D01*
X108490236Y-164497663D01*
X108493084Y-164502479D01*
X108527154Y-164594089D01*
X108562804Y-164687205D01*
X108563808Y-164692650D01*
X108564700Y-164695048D01*
X108582616Y-164794622D01*
X108601173Y-164895235D01*
X108593823Y-165166866D01*
X108570018Y-165265638D01*
X108547214Y-165362864D01*
X108545798Y-165366137D01*
X108544260Y-165372517D01*
X108503954Y-165462834D01*
X108465613Y-165551436D01*
X108461958Y-165556937D01*
X108458051Y-165565692D01*
X108403631Y-165644726D01*
X108351911Y-165722570D01*
X108345240Y-165729526D01*
X108338082Y-165739922D01*
X108272260Y-165805629D01*
X108209704Y-165870862D01*
X108199451Y-165878311D01*
X108188371Y-165889372D01*
X108114116Y-165940311D01*
X108043480Y-165991631D01*
X108029343Y-165998465D01*
X108013932Y-166009037D01*
X107934362Y-166044381D01*
X107858493Y-166081057D01*
X107840450Y-166086095D01*
X107820606Y-166094909D01*
X107738862Y-166114458D01*
X107660602Y-166136309D01*
X107638931Y-166138357D01*
X107614869Y-166144112D01*
X107533921Y-166148284D01*
X107456054Y-166155644D01*
X107431349Y-166153569D01*
X107403610Y-166154999D01*
X107326221Y-166144742D01*
X107251308Y-166138451D01*
X107224436Y-166131251D01*
X107193905Y-166127204D01*
X107122551Y-166103951D01*
X107052843Y-166085273D01*
X107024930Y-166072138D01*
X106992777Y-166061660D01*
X106929502Y-166027233D01*
X106866937Y-165997792D01*
X106839322Y-165978167D01*
X106806961Y-165960560D01*
X106753361Y-165917078D01*
X106699459Y-165878772D01*
X106673637Y-165852404D01*
X106642681Y-165827291D01*
X106599857Y-165777062D01*
X106555705Y-165731975D01*
X106533260Y-165698948D01*
X106505438Y-165666315D01*
X106473987Y-165611730D01*
X106440216Y-165562038D01*
X106422746Y-165522800D01*
X106399828Y-165483025D01*
X106379854Y-165426464D01*
X106356647Y-165374340D01*
X106345680Y-165329690D01*
X106329389Y-165283558D01*
X106320526Y-165227283D01*
X106307636Y-165174804D01*
X106304560Y-165125903D01*
X106296479Y-165074595D01*
X106297939Y-165020657D01*
X106294736Y-164969752D01*
X106300714Y-164918085D01*
X106302201Y-164863133D01*
X106312837Y-164813308D01*
X106318352Y-164765644D01*
X106334258Y-164712960D01*
X106346363Y-164656255D01*
X106364741Y-164611995D01*
X106377736Y-164568955D01*
X106404092Y-164517229D01*
X106427486Y-164460890D01*
X106451979Y-164423246D01*
X106471016Y-164385884D01*
X106507938Y-164337240D01*
X106542853Y-164283579D01*
X106571712Y-164253221D01*
X106595237Y-164222228D01*
X106642415Y-164178846D01*
X106688601Y-164130261D01*
X106720068Y-164107441D01*
X106746482Y-164083152D01*
X106803149Y-164047190D01*
X106859848Y-164006071D01*
X106892207Y-163990671D01*
X106919956Y-163973061D01*
X106984906Y-163946555D01*
X107050859Y-163915168D01*
X107082560Y-163906703D01*
X107110192Y-163895427D01*
X107181773Y-163880212D01*
X107255238Y-163860596D01*
X107284933Y-163858285D01*
X107311162Y-163852710D01*
X107387337Y-163850316D01*
X107466139Y-163844183D01*
X107492742Y-163847002D01*
X107492742Y-163847002D01*
G37*
G36*
X132542742Y-163847002D02*
G01*
X132566523Y-163846255D01*
X132644921Y-163857832D01*
X132726500Y-163866478D01*
X132749247Y-163873237D01*
X132769783Y-163876270D01*
X132847754Y-163902510D01*
X132929275Y-163926735D01*
X132947713Y-163936150D01*
X132964517Y-163941805D01*
X133039255Y-163982894D01*
X133117674Y-164022936D01*
X133131693Y-164033713D01*
X133144561Y-164040787D01*
X133213190Y-164096361D01*
X133285387Y-164151860D01*
X133295176Y-164162751D01*
X133304238Y-164170089D01*
X133363939Y-164239254D01*
X133426797Y-164309187D01*
X133432859Y-164319099D01*
X133438493Y-164325626D01*
X133486568Y-164406916D01*
X133537168Y-164489650D01*
X133540236Y-164497663D01*
X133543084Y-164502479D01*
X133577154Y-164594089D01*
X133612804Y-164687205D01*
X133613808Y-164692650D01*
X133614700Y-164695048D01*
X133632616Y-164794622D01*
X133651173Y-164895235D01*
X133643823Y-165166866D01*
X133620018Y-165265638D01*
X133597214Y-165362864D01*
X133595798Y-165366137D01*
X133594260Y-165372517D01*
X133553954Y-165462834D01*
X133515613Y-165551436D01*
X133511958Y-165556937D01*
X133508051Y-165565692D01*
X133453631Y-165644726D01*
X133401911Y-165722570D01*
X133395240Y-165729526D01*
X133388082Y-165739922D01*
X133322260Y-165805629D01*
X133259704Y-165870862D01*
X133249451Y-165878311D01*
X133238371Y-165889372D01*
X133164116Y-165940311D01*
X133093480Y-165991631D01*
X133079343Y-165998465D01*
X133063932Y-166009037D01*
X132984362Y-166044381D01*
X132908493Y-166081057D01*
X132890450Y-166086095D01*
X132870606Y-166094909D01*
X132788862Y-166114458D01*
X132710602Y-166136309D01*
X132688931Y-166138357D01*
X132664869Y-166144112D01*
X132583921Y-166148284D01*
X132506054Y-166155644D01*
X132481349Y-166153569D01*
X132453610Y-166154999D01*
X132376221Y-166144742D01*
X132301308Y-166138451D01*
X132274436Y-166131251D01*
X132243905Y-166127204D01*
X132172551Y-166103951D01*
X132102843Y-166085273D01*
X132074930Y-166072138D01*
X132042777Y-166061660D01*
X131979502Y-166027233D01*
X131916937Y-165997792D01*
X131889322Y-165978167D01*
X131856961Y-165960560D01*
X131803361Y-165917078D01*
X131749459Y-165878772D01*
X131723637Y-165852404D01*
X131692681Y-165827291D01*
X131649857Y-165777062D01*
X131605705Y-165731975D01*
X131583260Y-165698948D01*
X131555438Y-165666315D01*
X131523987Y-165611730D01*
X131490216Y-165562038D01*
X131472746Y-165522800D01*
X131449828Y-165483025D01*
X131429854Y-165426464D01*
X131406647Y-165374340D01*
X131395680Y-165329690D01*
X131379389Y-165283558D01*
X131370526Y-165227283D01*
X131357636Y-165174804D01*
X131354560Y-165125903D01*
X131346479Y-165074595D01*
X131347939Y-165020657D01*
X131344736Y-164969752D01*
X131350714Y-164918085D01*
X131352201Y-164863133D01*
X131362837Y-164813308D01*
X131368352Y-164765644D01*
X131384258Y-164712960D01*
X131396363Y-164656255D01*
X131414741Y-164611995D01*
X131427736Y-164568955D01*
X131454092Y-164517229D01*
X131477486Y-164460890D01*
X131501979Y-164423246D01*
X131521016Y-164385884D01*
X131557938Y-164337240D01*
X131592853Y-164283579D01*
X131621712Y-164253221D01*
X131645237Y-164222228D01*
X131692415Y-164178846D01*
X131738601Y-164130261D01*
X131770068Y-164107441D01*
X131796482Y-164083152D01*
X131853149Y-164047190D01*
X131909848Y-164006071D01*
X131942207Y-163990671D01*
X131969956Y-163973061D01*
X132034906Y-163946555D01*
X132100859Y-163915168D01*
X132132560Y-163906703D01*
X132160192Y-163895427D01*
X132231773Y-163880212D01*
X132305238Y-163860596D01*
X132334933Y-163858285D01*
X132361162Y-163852710D01*
X132437337Y-163850316D01*
X132516139Y-163844183D01*
X132542742Y-163847002D01*
X132542742Y-163847002D01*
G37*
G36*
X130189899Y-156971959D02*
G01*
X130206769Y-156983231D01*
X130218041Y-157000101D01*
X130224448Y-157032312D01*
X130224448Y-160967688D01*
X130221999Y-160980000D01*
X130218041Y-160999899D01*
X130206769Y-161016769D01*
X130189899Y-161028041D01*
X130170000Y-161031999D01*
X130157688Y-161034448D01*
X127842312Y-161034448D01*
X127810101Y-161028041D01*
X127793231Y-161016769D01*
X127781959Y-160999899D01*
X127775552Y-160967688D01*
X127775552Y-157032312D01*
X127781959Y-157000101D01*
X127793231Y-156983231D01*
X127810101Y-156971959D01*
X127842312Y-156965552D01*
X130157688Y-156965552D01*
X130189899Y-156971959D01*
X130189899Y-156971959D01*
G37*
G36*
X112189899Y-156971959D02*
G01*
X112206769Y-156983231D01*
X112218041Y-157000101D01*
X112224448Y-157032312D01*
X112224448Y-160967688D01*
X112221999Y-160980000D01*
X112218041Y-160999899D01*
X112206769Y-161016769D01*
X112189899Y-161028041D01*
X112170000Y-161031999D01*
X112157688Y-161034448D01*
X109842312Y-161034448D01*
X109810101Y-161028041D01*
X109793231Y-161016769D01*
X109781959Y-160999899D01*
X109775552Y-160967688D01*
X109775552Y-157032312D01*
X109781959Y-157000101D01*
X109793231Y-156983231D01*
X109810101Y-156971959D01*
X109842312Y-156965552D01*
X112157688Y-156965552D01*
X112189899Y-156971959D01*
X112189899Y-156971959D01*
G37*
G36*
X137602360Y-155514335D02*
G01*
X137683397Y-155540666D01*
X137770663Y-155568348D01*
X137773655Y-155569993D01*
X137782488Y-155572863D01*
X137854466Y-155614419D01*
X137925499Y-155653470D01*
X137932986Y-155659753D01*
X137946511Y-155667561D01*
X138004259Y-155719557D01*
X138060857Y-155767049D01*
X138070962Y-155779618D01*
X138087261Y-155794293D01*
X138129454Y-155852367D01*
X138171579Y-155904760D01*
X138181994Y-155924682D01*
X138198586Y-155947519D01*
X138225297Y-156007512D01*
X138253439Y-156061343D01*
X138261582Y-156089010D01*
X138275621Y-156120542D01*
X138287992Y-156178741D01*
X138303328Y-156230849D01*
X138306518Y-156265901D01*
X138314999Y-156305801D01*
X138314999Y-156359092D01*
X138319343Y-156406824D01*
X138314999Y-156448153D01*
X138314999Y-156495199D01*
X138305217Y-156541221D01*
X138300873Y-156582547D01*
X138286702Y-156628327D01*
X138275621Y-156680458D01*
X138259028Y-156717726D01*
X138248622Y-156751343D01*
X138222789Y-156799120D01*
X138198586Y-156853481D01*
X138178298Y-156881405D01*
X138164580Y-156906776D01*
X138125859Y-156953582D01*
X138087261Y-157006707D01*
X138066284Y-157025595D01*
X138051952Y-157042919D01*
X137999845Y-157085417D01*
X137946511Y-157133439D01*
X137927524Y-157144401D01*
X137915025Y-157154595D01*
X137849780Y-157189286D01*
X137782488Y-157228137D01*
X137767636Y-157232963D01*
X137759003Y-157237553D01*
X137681430Y-157260973D01*
X137602360Y-157286665D01*
X137593114Y-157287637D01*
X137589851Y-157288622D01*
X137498710Y-157297559D01*
X137461211Y-157301500D01*
X137366789Y-157301500D01*
X137225640Y-157286665D01*
X137144603Y-157260334D01*
X137057337Y-157232652D01*
X137054345Y-157231007D01*
X137045512Y-157228137D01*
X136973534Y-157186581D01*
X136902501Y-157147530D01*
X136895014Y-157141247D01*
X136881489Y-157133439D01*
X136823741Y-157081443D01*
X136767143Y-157033951D01*
X136757038Y-157021382D01*
X136740739Y-157006707D01*
X136698546Y-156948633D01*
X136656421Y-156896240D01*
X136646006Y-156876318D01*
X136629414Y-156853481D01*
X136602703Y-156793488D01*
X136574561Y-156739657D01*
X136566418Y-156711990D01*
X136552379Y-156680458D01*
X136540008Y-156622259D01*
X136524672Y-156570151D01*
X136521482Y-156535099D01*
X136513001Y-156495199D01*
X136513001Y-156441908D01*
X136508657Y-156394176D01*
X136513001Y-156352847D01*
X136513001Y-156305801D01*
X136522783Y-156259779D01*
X136527127Y-156218453D01*
X136541298Y-156172673D01*
X136552379Y-156120542D01*
X136568972Y-156083274D01*
X136579378Y-156049657D01*
X136605211Y-156001880D01*
X136629414Y-155947519D01*
X136649702Y-155919595D01*
X136663420Y-155894224D01*
X136702141Y-155847418D01*
X136740739Y-155794293D01*
X136761716Y-155775405D01*
X136776048Y-155758081D01*
X136828155Y-155715583D01*
X136881489Y-155667561D01*
X136900476Y-155656599D01*
X136912975Y-155646405D01*
X136978220Y-155611714D01*
X137045512Y-155572863D01*
X137060364Y-155568037D01*
X137068997Y-155563447D01*
X137146570Y-155540027D01*
X137225640Y-155514335D01*
X137234886Y-155513363D01*
X137238149Y-155512378D01*
X137329290Y-155503441D01*
X137366789Y-155499500D01*
X137461211Y-155499500D01*
X137602360Y-155514335D01*
X137602360Y-155514335D01*
G37*
G36*
X137602360Y-152974335D02*
G01*
X137683397Y-153000666D01*
X137770663Y-153028348D01*
X137773655Y-153029993D01*
X137782488Y-153032863D01*
X137854466Y-153074419D01*
X137925499Y-153113470D01*
X137932986Y-153119753D01*
X137946511Y-153127561D01*
X138004259Y-153179557D01*
X138060857Y-153227049D01*
X138070962Y-153239618D01*
X138087261Y-153254293D01*
X138129454Y-153312367D01*
X138171579Y-153364760D01*
X138181994Y-153384682D01*
X138198586Y-153407519D01*
X138225297Y-153467512D01*
X138253439Y-153521343D01*
X138261582Y-153549010D01*
X138275621Y-153580542D01*
X138287992Y-153638741D01*
X138303328Y-153690849D01*
X138306518Y-153725901D01*
X138314999Y-153765801D01*
X138314999Y-153819092D01*
X138319343Y-153866824D01*
X138314999Y-153908153D01*
X138314999Y-153955199D01*
X138305217Y-154001221D01*
X138300873Y-154042547D01*
X138286702Y-154088327D01*
X138275621Y-154140458D01*
X138259028Y-154177726D01*
X138248622Y-154211343D01*
X138222789Y-154259120D01*
X138198586Y-154313481D01*
X138178298Y-154341405D01*
X138164580Y-154366776D01*
X138125859Y-154413582D01*
X138087261Y-154466707D01*
X138066284Y-154485595D01*
X138051952Y-154502919D01*
X137999845Y-154545417D01*
X137946511Y-154593439D01*
X137927524Y-154604401D01*
X137915025Y-154614595D01*
X137849780Y-154649286D01*
X137782488Y-154688137D01*
X137767636Y-154692963D01*
X137759003Y-154697553D01*
X137681430Y-154720973D01*
X137602360Y-154746665D01*
X137593114Y-154747637D01*
X137589851Y-154748622D01*
X137498710Y-154757559D01*
X137461211Y-154761500D01*
X137366789Y-154761500D01*
X137225640Y-154746665D01*
X137144603Y-154720334D01*
X137057337Y-154692652D01*
X137054345Y-154691007D01*
X137045512Y-154688137D01*
X136973534Y-154646581D01*
X136902501Y-154607530D01*
X136895014Y-154601247D01*
X136881489Y-154593439D01*
X136823741Y-154541443D01*
X136767143Y-154493951D01*
X136757038Y-154481382D01*
X136740739Y-154466707D01*
X136698546Y-154408633D01*
X136656421Y-154356240D01*
X136646006Y-154336318D01*
X136629414Y-154313481D01*
X136602703Y-154253488D01*
X136574561Y-154199657D01*
X136566418Y-154171990D01*
X136552379Y-154140458D01*
X136540008Y-154082259D01*
X136524672Y-154030151D01*
X136521482Y-153995099D01*
X136513001Y-153955199D01*
X136513001Y-153901908D01*
X136508657Y-153854176D01*
X136513001Y-153812847D01*
X136513001Y-153765801D01*
X136522783Y-153719779D01*
X136527127Y-153678453D01*
X136541298Y-153632673D01*
X136552379Y-153580542D01*
X136568972Y-153543274D01*
X136579378Y-153509657D01*
X136605211Y-153461880D01*
X136629414Y-153407519D01*
X136649702Y-153379595D01*
X136663420Y-153354224D01*
X136702141Y-153307418D01*
X136740739Y-153254293D01*
X136761716Y-153235405D01*
X136776048Y-153218081D01*
X136828155Y-153175583D01*
X136881489Y-153127561D01*
X136900476Y-153116599D01*
X136912975Y-153106405D01*
X136978220Y-153071714D01*
X137045512Y-153032863D01*
X137060364Y-153028037D01*
X137068997Y-153023447D01*
X137146570Y-153000027D01*
X137225640Y-152974335D01*
X137234886Y-152973363D01*
X137238149Y-152972378D01*
X137329290Y-152963441D01*
X137366789Y-152959500D01*
X137461211Y-152959500D01*
X137602360Y-152974335D01*
X137602360Y-152974335D01*
G37*
G36*
X137602360Y-150434335D02*
G01*
X137683397Y-150460666D01*
X137770663Y-150488348D01*
X137773655Y-150489993D01*
X137782488Y-150492863D01*
X137854466Y-150534419D01*
X137925499Y-150573470D01*
X137932986Y-150579753D01*
X137946511Y-150587561D01*
X138004259Y-150639557D01*
X138060857Y-150687049D01*
X138070962Y-150699618D01*
X138087261Y-150714293D01*
X138129454Y-150772367D01*
X138171579Y-150824760D01*
X138181994Y-150844682D01*
X138198586Y-150867519D01*
X138225297Y-150927512D01*
X138253439Y-150981343D01*
X138261582Y-151009010D01*
X138275621Y-151040542D01*
X138287992Y-151098741D01*
X138303328Y-151150849D01*
X138306518Y-151185901D01*
X138314999Y-151225801D01*
X138314999Y-151279092D01*
X138319343Y-151326824D01*
X138314999Y-151368153D01*
X138314999Y-151415199D01*
X138305217Y-151461221D01*
X138300873Y-151502547D01*
X138286702Y-151548327D01*
X138275621Y-151600458D01*
X138259028Y-151637726D01*
X138248622Y-151671343D01*
X138222789Y-151719120D01*
X138198586Y-151773481D01*
X138178298Y-151801405D01*
X138164580Y-151826776D01*
X138125859Y-151873582D01*
X138087261Y-151926707D01*
X138066284Y-151945595D01*
X138051952Y-151962919D01*
X137999845Y-152005417D01*
X137946511Y-152053439D01*
X137927524Y-152064401D01*
X137915025Y-152074595D01*
X137849780Y-152109286D01*
X137782488Y-152148137D01*
X137767636Y-152152963D01*
X137759003Y-152157553D01*
X137681430Y-152180973D01*
X137602360Y-152206665D01*
X137593114Y-152207637D01*
X137589851Y-152208622D01*
X137498710Y-152217559D01*
X137461211Y-152221500D01*
X137366789Y-152221500D01*
X137225640Y-152206665D01*
X137144603Y-152180334D01*
X137057337Y-152152652D01*
X137054345Y-152151007D01*
X137045512Y-152148137D01*
X136973534Y-152106581D01*
X136902501Y-152067530D01*
X136895014Y-152061247D01*
X136881489Y-152053439D01*
X136823741Y-152001443D01*
X136767143Y-151953951D01*
X136757038Y-151941382D01*
X136740739Y-151926707D01*
X136698546Y-151868633D01*
X136656421Y-151816240D01*
X136646006Y-151796318D01*
X136629414Y-151773481D01*
X136602703Y-151713488D01*
X136574561Y-151659657D01*
X136566418Y-151631990D01*
X136552379Y-151600458D01*
X136540008Y-151542259D01*
X136524672Y-151490151D01*
X136521482Y-151455099D01*
X136513001Y-151415199D01*
X136513001Y-151361908D01*
X136508657Y-151314176D01*
X136513001Y-151272847D01*
X136513001Y-151225801D01*
X136522783Y-151179779D01*
X136527127Y-151138453D01*
X136541298Y-151092673D01*
X136552379Y-151040542D01*
X136568972Y-151003274D01*
X136579378Y-150969657D01*
X136605211Y-150921880D01*
X136629414Y-150867519D01*
X136649702Y-150839595D01*
X136663420Y-150814224D01*
X136702141Y-150767418D01*
X136740739Y-150714293D01*
X136761716Y-150695405D01*
X136776048Y-150678081D01*
X136828155Y-150635583D01*
X136881489Y-150587561D01*
X136900476Y-150576599D01*
X136912975Y-150566405D01*
X136978220Y-150531714D01*
X137045512Y-150492863D01*
X137060364Y-150488037D01*
X137068997Y-150483447D01*
X137146570Y-150460027D01*
X137225640Y-150434335D01*
X137234886Y-150433363D01*
X137238149Y-150432378D01*
X137329290Y-150423441D01*
X137366789Y-150419500D01*
X137461211Y-150419500D01*
X137602360Y-150434335D01*
X137602360Y-150434335D01*
G37*
G36*
X137602360Y-147894335D02*
G01*
X137683397Y-147920666D01*
X137770663Y-147948348D01*
X137773655Y-147949993D01*
X137782488Y-147952863D01*
X137854466Y-147994419D01*
X137925499Y-148033470D01*
X137932986Y-148039753D01*
X137946511Y-148047561D01*
X138004259Y-148099557D01*
X138060857Y-148147049D01*
X138070962Y-148159618D01*
X138087261Y-148174293D01*
X138129454Y-148232367D01*
X138171579Y-148284760D01*
X138181994Y-148304682D01*
X138198586Y-148327519D01*
X138225297Y-148387512D01*
X138253439Y-148441343D01*
X138261582Y-148469010D01*
X138275621Y-148500542D01*
X138287992Y-148558741D01*
X138303328Y-148610849D01*
X138306518Y-148645901D01*
X138314999Y-148685801D01*
X138314999Y-148739092D01*
X138319343Y-148786824D01*
X138314999Y-148828153D01*
X138314999Y-148875199D01*
X138305217Y-148921221D01*
X138300873Y-148962547D01*
X138286702Y-149008327D01*
X138275621Y-149060458D01*
X138259028Y-149097726D01*
X138248622Y-149131343D01*
X138222789Y-149179120D01*
X138198586Y-149233481D01*
X138178298Y-149261405D01*
X138164580Y-149286776D01*
X138125859Y-149333582D01*
X138087261Y-149386707D01*
X138066284Y-149405595D01*
X138051952Y-149422919D01*
X137999845Y-149465417D01*
X137946511Y-149513439D01*
X137927524Y-149524401D01*
X137915025Y-149534595D01*
X137849780Y-149569286D01*
X137782488Y-149608137D01*
X137767636Y-149612963D01*
X137759003Y-149617553D01*
X137681430Y-149640973D01*
X137602360Y-149666665D01*
X137593114Y-149667637D01*
X137589851Y-149668622D01*
X137498710Y-149677559D01*
X137461211Y-149681500D01*
X137366789Y-149681500D01*
X137225640Y-149666665D01*
X137144603Y-149640334D01*
X137057337Y-149612652D01*
X137054345Y-149611007D01*
X137045512Y-149608137D01*
X136973534Y-149566581D01*
X136902501Y-149527530D01*
X136895014Y-149521247D01*
X136881489Y-149513439D01*
X136823741Y-149461443D01*
X136767143Y-149413951D01*
X136757038Y-149401382D01*
X136740739Y-149386707D01*
X136698546Y-149328633D01*
X136656421Y-149276240D01*
X136646006Y-149256318D01*
X136629414Y-149233481D01*
X136602703Y-149173488D01*
X136574561Y-149119657D01*
X136566418Y-149091990D01*
X136552379Y-149060458D01*
X136540008Y-149002259D01*
X136524672Y-148950151D01*
X136521482Y-148915099D01*
X136513001Y-148875199D01*
X136513001Y-148821908D01*
X136508657Y-148774176D01*
X136513001Y-148732847D01*
X136513001Y-148685801D01*
X136522783Y-148639779D01*
X136527127Y-148598453D01*
X136541298Y-148552673D01*
X136552379Y-148500542D01*
X136568972Y-148463274D01*
X136579378Y-148429657D01*
X136605211Y-148381880D01*
X136629414Y-148327519D01*
X136649702Y-148299595D01*
X136663420Y-148274224D01*
X136702141Y-148227418D01*
X136740739Y-148174293D01*
X136761716Y-148155405D01*
X136776048Y-148138081D01*
X136828155Y-148095583D01*
X136881489Y-148047561D01*
X136900476Y-148036599D01*
X136912975Y-148026405D01*
X136978220Y-147991714D01*
X137045512Y-147952863D01*
X137060364Y-147948037D01*
X137068997Y-147943447D01*
X137146570Y-147920027D01*
X137225640Y-147894335D01*
X137234886Y-147893363D01*
X137238149Y-147892378D01*
X137329290Y-147883441D01*
X137366789Y-147879500D01*
X137461211Y-147879500D01*
X137602360Y-147894335D01*
X137602360Y-147894335D01*
G37*
G36*
X131559899Y-144141959D02*
G01*
X131576769Y-144153231D01*
X131588041Y-144170101D01*
X131594448Y-144202312D01*
X131594448Y-148137688D01*
X131591999Y-148150000D01*
X131588041Y-148169899D01*
X131576769Y-148186769D01*
X131559899Y-148198041D01*
X131540000Y-148201999D01*
X131527688Y-148204448D01*
X126472312Y-148204448D01*
X126440101Y-148198041D01*
X126423231Y-148186769D01*
X126411959Y-148169899D01*
X126405552Y-148137688D01*
X126405552Y-144202312D01*
X126411959Y-144170101D01*
X126423231Y-144153231D01*
X126440101Y-144141959D01*
X126472312Y-144135552D01*
X131527688Y-144135552D01*
X131559899Y-144141959D01*
X131559899Y-144141959D01*
G37*
G36*
X113559899Y-144141959D02*
G01*
X113576769Y-144153231D01*
X113588041Y-144170101D01*
X113594448Y-144202312D01*
X113594448Y-148137688D01*
X113591999Y-148150000D01*
X113588041Y-148169899D01*
X113576769Y-148186769D01*
X113559899Y-148198041D01*
X113540000Y-148201999D01*
X113527688Y-148204448D01*
X108472312Y-148204448D01*
X108440101Y-148198041D01*
X108423231Y-148186769D01*
X108411959Y-148169899D01*
X108405552Y-148137688D01*
X108405552Y-144202312D01*
X108411959Y-144170101D01*
X108423231Y-144153231D01*
X108440101Y-144141959D01*
X108472312Y-144135552D01*
X113527688Y-144135552D01*
X113559899Y-144141959D01*
X113559899Y-144141959D01*
G37*
G36*
X137602360Y-145354335D02*
G01*
X137683397Y-145380666D01*
X137770663Y-145408348D01*
X137773655Y-145409993D01*
X137782488Y-145412863D01*
X137854466Y-145454419D01*
X137925499Y-145493470D01*
X137932986Y-145499753D01*
X137946511Y-145507561D01*
X138004259Y-145559557D01*
X138060857Y-145607049D01*
X138070962Y-145619618D01*
X138087261Y-145634293D01*
X138129454Y-145692367D01*
X138171579Y-145744760D01*
X138181994Y-145764682D01*
X138198586Y-145787519D01*
X138225297Y-145847512D01*
X138253439Y-145901343D01*
X138261582Y-145929010D01*
X138275621Y-145960542D01*
X138287992Y-146018741D01*
X138303328Y-146070849D01*
X138306518Y-146105901D01*
X138314999Y-146145801D01*
X138314999Y-146199092D01*
X138319343Y-146246824D01*
X138314999Y-146288153D01*
X138314999Y-146335199D01*
X138305217Y-146381221D01*
X138300873Y-146422547D01*
X138286702Y-146468327D01*
X138275621Y-146520458D01*
X138259028Y-146557726D01*
X138248622Y-146591343D01*
X138222789Y-146639120D01*
X138198586Y-146693481D01*
X138178298Y-146721405D01*
X138164580Y-146746776D01*
X138125859Y-146793582D01*
X138087261Y-146846707D01*
X138066284Y-146865595D01*
X138051952Y-146882919D01*
X137999845Y-146925417D01*
X137946511Y-146973439D01*
X137927524Y-146984401D01*
X137915025Y-146994595D01*
X137849780Y-147029286D01*
X137782488Y-147068137D01*
X137767636Y-147072963D01*
X137759003Y-147077553D01*
X137681430Y-147100973D01*
X137602360Y-147126665D01*
X137593114Y-147127637D01*
X137589851Y-147128622D01*
X137498710Y-147137559D01*
X137461211Y-147141500D01*
X137366789Y-147141500D01*
X137225640Y-147126665D01*
X137144603Y-147100334D01*
X137057337Y-147072652D01*
X137054345Y-147071007D01*
X137045512Y-147068137D01*
X136973534Y-147026581D01*
X136902501Y-146987530D01*
X136895014Y-146981247D01*
X136881489Y-146973439D01*
X136823741Y-146921443D01*
X136767143Y-146873951D01*
X136757038Y-146861382D01*
X136740739Y-146846707D01*
X136698546Y-146788633D01*
X136656421Y-146736240D01*
X136646006Y-146716318D01*
X136629414Y-146693481D01*
X136602703Y-146633488D01*
X136574561Y-146579657D01*
X136566418Y-146551990D01*
X136552379Y-146520458D01*
X136540008Y-146462259D01*
X136524672Y-146410151D01*
X136521482Y-146375099D01*
X136513001Y-146335199D01*
X136513001Y-146281908D01*
X136508657Y-146234176D01*
X136513001Y-146192847D01*
X136513001Y-146145801D01*
X136522783Y-146099779D01*
X136527127Y-146058453D01*
X136541298Y-146012673D01*
X136552379Y-145960542D01*
X136568972Y-145923274D01*
X136579378Y-145889657D01*
X136605211Y-145841880D01*
X136629414Y-145787519D01*
X136649702Y-145759595D01*
X136663420Y-145734224D01*
X136702141Y-145687418D01*
X136740739Y-145634293D01*
X136761716Y-145615405D01*
X136776048Y-145598081D01*
X136828155Y-145555583D01*
X136881489Y-145507561D01*
X136900476Y-145496599D01*
X136912975Y-145486405D01*
X136978220Y-145451714D01*
X137045512Y-145412863D01*
X137060364Y-145408037D01*
X137068997Y-145403447D01*
X137146570Y-145380027D01*
X137225640Y-145354335D01*
X137234886Y-145353363D01*
X137238149Y-145352378D01*
X137329290Y-145343441D01*
X137366789Y-145339500D01*
X137461211Y-145339500D01*
X137602360Y-145354335D01*
X137602360Y-145354335D01*
G37*
G36*
X137602360Y-142814335D02*
G01*
X137683397Y-142840666D01*
X137770663Y-142868348D01*
X137773655Y-142869993D01*
X137782488Y-142872863D01*
X137854466Y-142914419D01*
X137925499Y-142953470D01*
X137932986Y-142959753D01*
X137946511Y-142967561D01*
X138004259Y-143019557D01*
X138060857Y-143067049D01*
X138070962Y-143079618D01*
X138087261Y-143094293D01*
X138129454Y-143152367D01*
X138171579Y-143204760D01*
X138181994Y-143224682D01*
X138198586Y-143247519D01*
X138225297Y-143307512D01*
X138253439Y-143361343D01*
X138261582Y-143389010D01*
X138275621Y-143420542D01*
X138287992Y-143478741D01*
X138303328Y-143530849D01*
X138306518Y-143565901D01*
X138314999Y-143605801D01*
X138314999Y-143659092D01*
X138319343Y-143706824D01*
X138314999Y-143748153D01*
X138314999Y-143795199D01*
X138305217Y-143841221D01*
X138300873Y-143882547D01*
X138286702Y-143928327D01*
X138275621Y-143980458D01*
X138259028Y-144017726D01*
X138248622Y-144051343D01*
X138222789Y-144099120D01*
X138198586Y-144153481D01*
X138178298Y-144181405D01*
X138164580Y-144206776D01*
X138125859Y-144253582D01*
X138087261Y-144306707D01*
X138066284Y-144325595D01*
X138051952Y-144342919D01*
X137999845Y-144385417D01*
X137946511Y-144433439D01*
X137927524Y-144444401D01*
X137915025Y-144454595D01*
X137849780Y-144489286D01*
X137782488Y-144528137D01*
X137767636Y-144532963D01*
X137759003Y-144537553D01*
X137681430Y-144560973D01*
X137602360Y-144586665D01*
X137593114Y-144587637D01*
X137589851Y-144588622D01*
X137498710Y-144597559D01*
X137461211Y-144601500D01*
X137366789Y-144601500D01*
X137225640Y-144586665D01*
X137144603Y-144560334D01*
X137057337Y-144532652D01*
X137054345Y-144531007D01*
X137045512Y-144528137D01*
X136973534Y-144486581D01*
X136902501Y-144447530D01*
X136895014Y-144441247D01*
X136881489Y-144433439D01*
X136823741Y-144381443D01*
X136767143Y-144333951D01*
X136757038Y-144321382D01*
X136740739Y-144306707D01*
X136698546Y-144248633D01*
X136656421Y-144196240D01*
X136646006Y-144176318D01*
X136629414Y-144153481D01*
X136602703Y-144093488D01*
X136574561Y-144039657D01*
X136566418Y-144011990D01*
X136552379Y-143980458D01*
X136540008Y-143922259D01*
X136524672Y-143870151D01*
X136521482Y-143835099D01*
X136513001Y-143795199D01*
X136513001Y-143741908D01*
X136508657Y-143694176D01*
X136513001Y-143652847D01*
X136513001Y-143605801D01*
X136522783Y-143559779D01*
X136527127Y-143518453D01*
X136541298Y-143472673D01*
X136552379Y-143420542D01*
X136568972Y-143383274D01*
X136579378Y-143349657D01*
X136605211Y-143301880D01*
X136629414Y-143247519D01*
X136649702Y-143219595D01*
X136663420Y-143194224D01*
X136702141Y-143147418D01*
X136740739Y-143094293D01*
X136761716Y-143075405D01*
X136776048Y-143058081D01*
X136828155Y-143015583D01*
X136881489Y-142967561D01*
X136900476Y-142956599D01*
X136912975Y-142946405D01*
X136978220Y-142911714D01*
X137045512Y-142872863D01*
X137060364Y-142868037D01*
X137068997Y-142863447D01*
X137146570Y-142840027D01*
X137225640Y-142814335D01*
X137234886Y-142813363D01*
X137238149Y-142812378D01*
X137329290Y-142803441D01*
X137366789Y-142799500D01*
X137461211Y-142799500D01*
X137602360Y-142814335D01*
X137602360Y-142814335D01*
G37*
G36*
X107072543Y-143107500D02*
G01*
X107097623Y-143107500D01*
X107149689Y-143121451D01*
X107194403Y-143129537D01*
X107217602Y-143139648D01*
X107250477Y-143148457D01*
X107289485Y-143170978D01*
X107322875Y-143185531D01*
X107350327Y-143206105D01*
X107387523Y-143227580D01*
X107413074Y-143253131D01*
X107435022Y-143269580D01*
X107462776Y-143302833D01*
X107499420Y-143339477D01*
X107513018Y-143363029D01*
X107524821Y-143377171D01*
X107548228Y-143424015D01*
X107578543Y-143476523D01*
X107583259Y-143494124D01*
X107587464Y-143502539D01*
X107601602Y-143562581D01*
X107619500Y-143629377D01*
X107619500Y-143787623D01*
X107600514Y-143858479D01*
X107583782Y-143924360D01*
X107581889Y-143927988D01*
X107578543Y-143940477D01*
X107545685Y-143997389D01*
X107518961Y-144048617D01*
X107510378Y-144058543D01*
X107499420Y-144077523D01*
X107459112Y-144117831D01*
X107427299Y-144154622D01*
X107409357Y-144167586D01*
X107387523Y-144189420D01*
X107345804Y-144213507D01*
X107313700Y-144236703D01*
X107284945Y-144248643D01*
X107250477Y-144268543D01*
X107212540Y-144278708D01*
X107184272Y-144290446D01*
X107144653Y-144296898D01*
X107097623Y-144309500D01*
X107067277Y-144309500D01*
X107045952Y-144312973D01*
X106996905Y-144309500D01*
X106939377Y-144309500D01*
X106918714Y-144303963D01*
X106906155Y-144303074D01*
X106850480Y-144285680D01*
X106786523Y-144268543D01*
X106775788Y-144262345D01*
X106772382Y-144261281D01*
X106713172Y-144226194D01*
X106649477Y-144189420D01*
X106598330Y-144138273D01*
X106550921Y-144092571D01*
X106547844Y-144087787D01*
X106537580Y-144077523D01*
X106505487Y-144021936D01*
X106475109Y-143974708D01*
X106470209Y-143960832D01*
X106458457Y-143940477D01*
X106444102Y-143886904D01*
X106428442Y-143842558D01*
X106425901Y-143818976D01*
X106417500Y-143787623D01*
X106417500Y-143741009D01*
X106413428Y-143703218D01*
X106417500Y-143670756D01*
X106417500Y-143629377D01*
X106427260Y-143592953D01*
X106430871Y-143564164D01*
X106445449Y-143525071D01*
X106458457Y-143476523D01*
X106472844Y-143451603D01*
X106479837Y-143432851D01*
X106508041Y-143390641D01*
X106537580Y-143339477D01*
X106551585Y-143325472D01*
X106557696Y-143316326D01*
X106601613Y-143275444D01*
X106649477Y-143227580D01*
X106658833Y-143222178D01*
X106660275Y-143220836D01*
X106723065Y-143185094D01*
X106786523Y-143148457D01*
X106855129Y-143130074D01*
X106916548Y-143112056D01*
X106923820Y-143111668D01*
X106939377Y-143107500D01*
X107002040Y-143107500D01*
X107056495Y-143104598D01*
X107072543Y-143107500D01*
X107072543Y-143107500D01*
G37*
G36*
X137602360Y-140274335D02*
G01*
X137683397Y-140300666D01*
X137770663Y-140328348D01*
X137773655Y-140329993D01*
X137782488Y-140332863D01*
X137854466Y-140374419D01*
X137925499Y-140413470D01*
X137932986Y-140419753D01*
X137946511Y-140427561D01*
X138004259Y-140479557D01*
X138060857Y-140527049D01*
X138070962Y-140539618D01*
X138087261Y-140554293D01*
X138129454Y-140612367D01*
X138171579Y-140664760D01*
X138181994Y-140684682D01*
X138198586Y-140707519D01*
X138225297Y-140767512D01*
X138253439Y-140821343D01*
X138261582Y-140849010D01*
X138275621Y-140880542D01*
X138287992Y-140938741D01*
X138303328Y-140990849D01*
X138306518Y-141025901D01*
X138314999Y-141065801D01*
X138314999Y-141119092D01*
X138319343Y-141166824D01*
X138314999Y-141208153D01*
X138314999Y-141255199D01*
X138305217Y-141301221D01*
X138300873Y-141342547D01*
X138286702Y-141388327D01*
X138275621Y-141440458D01*
X138259028Y-141477726D01*
X138248622Y-141511343D01*
X138222789Y-141559120D01*
X138198586Y-141613481D01*
X138178298Y-141641405D01*
X138164580Y-141666776D01*
X138125859Y-141713582D01*
X138087261Y-141766707D01*
X138066284Y-141785595D01*
X138051952Y-141802919D01*
X137999845Y-141845417D01*
X137946511Y-141893439D01*
X137927524Y-141904401D01*
X137915025Y-141914595D01*
X137849780Y-141949286D01*
X137782488Y-141988137D01*
X137767636Y-141992963D01*
X137759003Y-141997553D01*
X137681430Y-142020973D01*
X137602360Y-142046665D01*
X137593114Y-142047637D01*
X137589851Y-142048622D01*
X137498710Y-142057559D01*
X137461211Y-142061500D01*
X137366789Y-142061500D01*
X137225640Y-142046665D01*
X137144603Y-142020334D01*
X137057337Y-141992652D01*
X137054345Y-141991007D01*
X137045512Y-141988137D01*
X136973534Y-141946581D01*
X136902501Y-141907530D01*
X136895014Y-141901247D01*
X136881489Y-141893439D01*
X136823741Y-141841443D01*
X136767143Y-141793951D01*
X136757038Y-141781382D01*
X136740739Y-141766707D01*
X136698546Y-141708633D01*
X136656421Y-141656240D01*
X136646006Y-141636318D01*
X136629414Y-141613481D01*
X136602703Y-141553488D01*
X136574561Y-141499657D01*
X136566418Y-141471990D01*
X136552379Y-141440458D01*
X136540008Y-141382259D01*
X136524672Y-141330151D01*
X136521482Y-141295099D01*
X136513001Y-141255199D01*
X136513001Y-141201908D01*
X136508657Y-141154176D01*
X136513001Y-141112847D01*
X136513001Y-141065801D01*
X136522783Y-141019779D01*
X136527127Y-140978453D01*
X136541298Y-140932673D01*
X136552379Y-140880542D01*
X136568972Y-140843274D01*
X136579378Y-140809657D01*
X136605211Y-140761880D01*
X136629414Y-140707519D01*
X136649702Y-140679595D01*
X136663420Y-140654224D01*
X136702141Y-140607418D01*
X136740739Y-140554293D01*
X136761716Y-140535405D01*
X136776048Y-140518081D01*
X136828155Y-140475583D01*
X136881489Y-140427561D01*
X136900476Y-140416599D01*
X136912975Y-140406405D01*
X136978220Y-140371714D01*
X137045512Y-140332863D01*
X137060364Y-140328037D01*
X137068997Y-140323447D01*
X137146570Y-140300027D01*
X137225640Y-140274335D01*
X137234886Y-140273363D01*
X137238149Y-140272378D01*
X137329290Y-140263441D01*
X137366789Y-140259500D01*
X137461211Y-140259500D01*
X137602360Y-140274335D01*
X137602360Y-140274335D01*
G37*
G36*
X137602360Y-137734335D02*
G01*
X137683397Y-137760666D01*
X137770663Y-137788348D01*
X137773655Y-137789993D01*
X137782488Y-137792863D01*
X137854466Y-137834419D01*
X137925499Y-137873470D01*
X137932986Y-137879753D01*
X137946511Y-137887561D01*
X138004259Y-137939557D01*
X138060857Y-137987049D01*
X138070962Y-137999618D01*
X138087261Y-138014293D01*
X138129454Y-138072367D01*
X138171579Y-138124760D01*
X138181994Y-138144682D01*
X138198586Y-138167519D01*
X138225297Y-138227512D01*
X138253439Y-138281343D01*
X138261582Y-138309010D01*
X138275621Y-138340542D01*
X138287992Y-138398741D01*
X138303328Y-138450849D01*
X138306518Y-138485901D01*
X138314999Y-138525801D01*
X138314999Y-138579092D01*
X138319343Y-138626824D01*
X138314999Y-138668153D01*
X138314999Y-138715199D01*
X138305217Y-138761221D01*
X138300873Y-138802547D01*
X138286702Y-138848327D01*
X138275621Y-138900458D01*
X138259028Y-138937726D01*
X138248622Y-138971343D01*
X138222789Y-139019120D01*
X138198586Y-139073481D01*
X138178298Y-139101405D01*
X138164580Y-139126776D01*
X138125859Y-139173582D01*
X138087261Y-139226707D01*
X138066284Y-139245595D01*
X138051952Y-139262919D01*
X137999845Y-139305417D01*
X137946511Y-139353439D01*
X137927524Y-139364401D01*
X137915025Y-139374595D01*
X137849780Y-139409286D01*
X137782488Y-139448137D01*
X137767636Y-139452963D01*
X137759003Y-139457553D01*
X137681430Y-139480973D01*
X137602360Y-139506665D01*
X137593114Y-139507637D01*
X137589851Y-139508622D01*
X137498710Y-139517559D01*
X137461211Y-139521500D01*
X137366789Y-139521500D01*
X137225640Y-139506665D01*
X137144603Y-139480334D01*
X137057337Y-139452652D01*
X137054345Y-139451007D01*
X137045512Y-139448137D01*
X136973534Y-139406581D01*
X136902501Y-139367530D01*
X136895014Y-139361247D01*
X136881489Y-139353439D01*
X136823741Y-139301443D01*
X136767143Y-139253951D01*
X136757038Y-139241382D01*
X136740739Y-139226707D01*
X136698546Y-139168633D01*
X136656421Y-139116240D01*
X136646006Y-139096318D01*
X136629414Y-139073481D01*
X136602703Y-139013488D01*
X136574561Y-138959657D01*
X136566418Y-138931990D01*
X136552379Y-138900458D01*
X136540008Y-138842259D01*
X136524672Y-138790151D01*
X136521482Y-138755099D01*
X136513001Y-138715199D01*
X136513001Y-138661908D01*
X136508657Y-138614176D01*
X136513001Y-138572847D01*
X136513001Y-138525801D01*
X136522783Y-138479779D01*
X136527127Y-138438453D01*
X136541298Y-138392673D01*
X136552379Y-138340542D01*
X136568972Y-138303274D01*
X136579378Y-138269657D01*
X136605211Y-138221880D01*
X136629414Y-138167519D01*
X136649702Y-138139595D01*
X136663420Y-138114224D01*
X136702141Y-138067418D01*
X136740739Y-138014293D01*
X136761716Y-137995405D01*
X136776048Y-137978081D01*
X136828155Y-137935583D01*
X136881489Y-137887561D01*
X136900476Y-137876599D01*
X136912975Y-137866405D01*
X136978220Y-137831714D01*
X137045512Y-137792863D01*
X137060364Y-137788037D01*
X137068997Y-137783447D01*
X137146570Y-137760027D01*
X137225640Y-137734335D01*
X137234886Y-137733363D01*
X137238149Y-137732378D01*
X137329290Y-137723441D01*
X137366789Y-137719500D01*
X137461211Y-137719500D01*
X137602360Y-137734335D01*
X137602360Y-137734335D01*
G37*
G36*
X137602360Y-135194335D02*
G01*
X137683397Y-135220666D01*
X137770663Y-135248348D01*
X137773655Y-135249993D01*
X137782488Y-135252863D01*
X137854466Y-135294419D01*
X137925499Y-135333470D01*
X137932986Y-135339753D01*
X137946511Y-135347561D01*
X138004259Y-135399557D01*
X138060857Y-135447049D01*
X138070962Y-135459618D01*
X138087261Y-135474293D01*
X138129454Y-135532367D01*
X138171579Y-135584760D01*
X138181994Y-135604682D01*
X138198586Y-135627519D01*
X138225297Y-135687512D01*
X138253439Y-135741343D01*
X138261582Y-135769010D01*
X138275621Y-135800542D01*
X138287992Y-135858741D01*
X138303328Y-135910849D01*
X138306518Y-135945901D01*
X138314999Y-135985801D01*
X138314999Y-136039092D01*
X138319343Y-136086824D01*
X138314999Y-136128153D01*
X138314999Y-136175199D01*
X138305217Y-136221221D01*
X138300873Y-136262547D01*
X138286702Y-136308327D01*
X138275621Y-136360458D01*
X138259028Y-136397726D01*
X138248622Y-136431343D01*
X138222789Y-136479120D01*
X138198586Y-136533481D01*
X138178298Y-136561405D01*
X138164580Y-136586776D01*
X138125859Y-136633582D01*
X138087261Y-136686707D01*
X138066284Y-136705595D01*
X138051952Y-136722919D01*
X137999845Y-136765417D01*
X137946511Y-136813439D01*
X137927524Y-136824401D01*
X137915025Y-136834595D01*
X137849780Y-136869286D01*
X137782488Y-136908137D01*
X137767636Y-136912963D01*
X137759003Y-136917553D01*
X137681430Y-136940973D01*
X137602360Y-136966665D01*
X137593114Y-136967637D01*
X137589851Y-136968622D01*
X137498710Y-136977559D01*
X137461211Y-136981500D01*
X137366789Y-136981500D01*
X137225640Y-136966665D01*
X137144603Y-136940334D01*
X137057337Y-136912652D01*
X137054345Y-136911007D01*
X137045512Y-136908137D01*
X136973534Y-136866581D01*
X136902501Y-136827530D01*
X136895014Y-136821247D01*
X136881489Y-136813439D01*
X136823741Y-136761443D01*
X136767143Y-136713951D01*
X136757038Y-136701382D01*
X136740739Y-136686707D01*
X136698546Y-136628633D01*
X136656421Y-136576240D01*
X136646006Y-136556318D01*
X136629414Y-136533481D01*
X136602703Y-136473488D01*
X136574561Y-136419657D01*
X136566418Y-136391990D01*
X136552379Y-136360458D01*
X136540008Y-136302259D01*
X136524672Y-136250151D01*
X136521482Y-136215099D01*
X136513001Y-136175199D01*
X136513001Y-136121908D01*
X136508657Y-136074176D01*
X136513001Y-136032847D01*
X136513001Y-135985801D01*
X136522783Y-135939779D01*
X136527127Y-135898453D01*
X136541298Y-135852673D01*
X136552379Y-135800542D01*
X136568972Y-135763274D01*
X136579378Y-135729657D01*
X136605211Y-135681880D01*
X136629414Y-135627519D01*
X136649702Y-135599595D01*
X136663420Y-135574224D01*
X136702141Y-135527418D01*
X136740739Y-135474293D01*
X136761716Y-135455405D01*
X136776048Y-135438081D01*
X136828155Y-135395583D01*
X136881489Y-135347561D01*
X136900476Y-135336599D01*
X136912975Y-135326405D01*
X136978220Y-135291714D01*
X137045512Y-135252863D01*
X137060364Y-135248037D01*
X137068997Y-135243447D01*
X137146570Y-135220027D01*
X137225640Y-135194335D01*
X137234886Y-135193363D01*
X137238149Y-135192378D01*
X137329290Y-135183441D01*
X137366789Y-135179500D01*
X137461211Y-135179500D01*
X137602360Y-135194335D01*
X137602360Y-135194335D01*
G37*
G36*
X107072543Y-135107500D02*
G01*
X107097623Y-135107500D01*
X107149689Y-135121451D01*
X107194403Y-135129537D01*
X107217602Y-135139648D01*
X107250477Y-135148457D01*
X107289485Y-135170978D01*
X107322875Y-135185531D01*
X107350327Y-135206105D01*
X107387523Y-135227580D01*
X107413074Y-135253131D01*
X107435022Y-135269580D01*
X107462776Y-135302833D01*
X107499420Y-135339477D01*
X107513018Y-135363029D01*
X107524821Y-135377171D01*
X107548228Y-135424015D01*
X107578543Y-135476523D01*
X107583259Y-135494124D01*
X107587464Y-135502539D01*
X107601602Y-135562581D01*
X107619500Y-135629377D01*
X107619500Y-135787623D01*
X107600514Y-135858479D01*
X107583782Y-135924360D01*
X107581889Y-135927988D01*
X107578543Y-135940477D01*
X107545685Y-135997389D01*
X107518961Y-136048617D01*
X107510378Y-136058543D01*
X107499420Y-136077523D01*
X107459112Y-136117831D01*
X107427299Y-136154622D01*
X107409357Y-136167586D01*
X107387523Y-136189420D01*
X107345804Y-136213507D01*
X107313700Y-136236703D01*
X107284945Y-136248643D01*
X107250477Y-136268543D01*
X107212540Y-136278708D01*
X107184272Y-136290446D01*
X107144653Y-136296898D01*
X107097623Y-136309500D01*
X107067277Y-136309500D01*
X107045952Y-136312973D01*
X106996905Y-136309500D01*
X106939377Y-136309500D01*
X106918714Y-136303963D01*
X106906155Y-136303074D01*
X106850480Y-136285680D01*
X106786523Y-136268543D01*
X106775788Y-136262345D01*
X106772382Y-136261281D01*
X106713172Y-136226194D01*
X106649477Y-136189420D01*
X106598330Y-136138273D01*
X106550921Y-136092571D01*
X106547844Y-136087787D01*
X106537580Y-136077523D01*
X106505487Y-136021936D01*
X106475109Y-135974708D01*
X106470209Y-135960832D01*
X106458457Y-135940477D01*
X106444102Y-135886904D01*
X106428442Y-135842558D01*
X106425901Y-135818976D01*
X106417500Y-135787623D01*
X106417500Y-135741009D01*
X106413428Y-135703218D01*
X106417500Y-135670756D01*
X106417500Y-135629377D01*
X106427260Y-135592953D01*
X106430871Y-135564164D01*
X106445449Y-135525071D01*
X106458457Y-135476523D01*
X106472844Y-135451603D01*
X106479837Y-135432851D01*
X106508041Y-135390641D01*
X106537580Y-135339477D01*
X106551585Y-135325472D01*
X106557696Y-135316326D01*
X106601613Y-135275444D01*
X106649477Y-135227580D01*
X106658833Y-135222178D01*
X106660275Y-135220836D01*
X106723065Y-135185094D01*
X106786523Y-135148457D01*
X106855129Y-135130074D01*
X106916548Y-135112056D01*
X106923820Y-135111668D01*
X106939377Y-135107500D01*
X107002040Y-135107500D01*
X107056495Y-135104598D01*
X107072543Y-135107500D01*
X107072543Y-135107500D01*
G37*
G36*
X137602360Y-132654335D02*
G01*
X137683397Y-132680666D01*
X137770663Y-132708348D01*
X137773655Y-132709993D01*
X137782488Y-132712863D01*
X137854466Y-132754419D01*
X137925499Y-132793470D01*
X137932986Y-132799753D01*
X137946511Y-132807561D01*
X138004259Y-132859557D01*
X138060857Y-132907049D01*
X138070962Y-132919618D01*
X138087261Y-132934293D01*
X138129454Y-132992367D01*
X138171579Y-133044760D01*
X138181994Y-133064682D01*
X138198586Y-133087519D01*
X138225297Y-133147512D01*
X138253439Y-133201343D01*
X138261582Y-133229010D01*
X138275621Y-133260542D01*
X138287992Y-133318741D01*
X138303328Y-133370849D01*
X138306518Y-133405901D01*
X138314999Y-133445801D01*
X138314999Y-133499092D01*
X138319343Y-133546824D01*
X138314999Y-133588153D01*
X138314999Y-133635199D01*
X138305217Y-133681221D01*
X138300873Y-133722547D01*
X138286702Y-133768327D01*
X138275621Y-133820458D01*
X138259028Y-133857726D01*
X138248622Y-133891343D01*
X138222789Y-133939120D01*
X138198586Y-133993481D01*
X138178298Y-134021405D01*
X138164580Y-134046776D01*
X138125859Y-134093582D01*
X138087261Y-134146707D01*
X138066284Y-134165595D01*
X138051952Y-134182919D01*
X137999845Y-134225417D01*
X137946511Y-134273439D01*
X137927524Y-134284401D01*
X137915025Y-134294595D01*
X137849780Y-134329286D01*
X137782488Y-134368137D01*
X137767636Y-134372963D01*
X137759003Y-134377553D01*
X137681430Y-134400973D01*
X137602360Y-134426665D01*
X137593114Y-134427637D01*
X137589851Y-134428622D01*
X137498710Y-134437559D01*
X137461211Y-134441500D01*
X137366789Y-134441500D01*
X137225640Y-134426665D01*
X137144603Y-134400334D01*
X137057337Y-134372652D01*
X137054345Y-134371007D01*
X137045512Y-134368137D01*
X136973534Y-134326581D01*
X136902501Y-134287530D01*
X136895014Y-134281247D01*
X136881489Y-134273439D01*
X136823741Y-134221443D01*
X136767143Y-134173951D01*
X136757038Y-134161382D01*
X136740739Y-134146707D01*
X136698546Y-134088633D01*
X136656421Y-134036240D01*
X136646006Y-134016318D01*
X136629414Y-133993481D01*
X136602703Y-133933488D01*
X136574561Y-133879657D01*
X136566418Y-133851990D01*
X136552379Y-133820458D01*
X136540008Y-133762259D01*
X136524672Y-133710151D01*
X136521482Y-133675099D01*
X136513001Y-133635199D01*
X136513001Y-133581908D01*
X136508657Y-133534176D01*
X136513001Y-133492847D01*
X136513001Y-133445801D01*
X136522783Y-133399779D01*
X136527127Y-133358453D01*
X136541298Y-133312673D01*
X136552379Y-133260542D01*
X136568972Y-133223274D01*
X136579378Y-133189657D01*
X136605211Y-133141880D01*
X136629414Y-133087519D01*
X136649702Y-133059595D01*
X136663420Y-133034224D01*
X136702141Y-132987418D01*
X136740739Y-132934293D01*
X136761716Y-132915405D01*
X136776048Y-132898081D01*
X136828155Y-132855583D01*
X136881489Y-132807561D01*
X136900476Y-132796599D01*
X136912975Y-132786405D01*
X136978220Y-132751714D01*
X137045512Y-132712863D01*
X137060364Y-132708037D01*
X137068997Y-132703447D01*
X137146570Y-132680027D01*
X137225640Y-132654335D01*
X137234886Y-132653363D01*
X137238149Y-132652378D01*
X137329290Y-132643441D01*
X137366789Y-132639500D01*
X137461211Y-132639500D01*
X137602360Y-132654335D01*
X137602360Y-132654335D01*
G37*
G36*
X137602360Y-130114335D02*
G01*
X137683397Y-130140666D01*
X137770663Y-130168348D01*
X137773655Y-130169993D01*
X137782488Y-130172863D01*
X137854466Y-130214419D01*
X137925499Y-130253470D01*
X137932986Y-130259753D01*
X137946511Y-130267561D01*
X138004259Y-130319557D01*
X138060857Y-130367049D01*
X138070962Y-130379618D01*
X138087261Y-130394293D01*
X138129454Y-130452367D01*
X138171579Y-130504760D01*
X138181994Y-130524682D01*
X138198586Y-130547519D01*
X138225297Y-130607512D01*
X138253439Y-130661343D01*
X138261582Y-130689010D01*
X138275621Y-130720542D01*
X138287992Y-130778741D01*
X138303328Y-130830849D01*
X138306518Y-130865901D01*
X138314999Y-130905801D01*
X138314999Y-130959092D01*
X138319343Y-131006824D01*
X138314999Y-131048153D01*
X138314999Y-131095199D01*
X138305217Y-131141221D01*
X138300873Y-131182547D01*
X138286702Y-131228327D01*
X138275621Y-131280458D01*
X138259028Y-131317726D01*
X138248622Y-131351343D01*
X138222789Y-131399120D01*
X138198586Y-131453481D01*
X138178298Y-131481405D01*
X138164580Y-131506776D01*
X138125859Y-131553582D01*
X138087261Y-131606707D01*
X138066284Y-131625595D01*
X138051952Y-131642919D01*
X137999845Y-131685417D01*
X137946511Y-131733439D01*
X137927524Y-131744401D01*
X137915025Y-131754595D01*
X137849780Y-131789286D01*
X137782488Y-131828137D01*
X137767636Y-131832963D01*
X137759003Y-131837553D01*
X137681430Y-131860973D01*
X137602360Y-131886665D01*
X137593114Y-131887637D01*
X137589851Y-131888622D01*
X137498710Y-131897559D01*
X137461211Y-131901500D01*
X137366789Y-131901500D01*
X137225640Y-131886665D01*
X137144603Y-131860334D01*
X137057337Y-131832652D01*
X137054345Y-131831007D01*
X137045512Y-131828137D01*
X136973534Y-131786581D01*
X136902501Y-131747530D01*
X136895014Y-131741247D01*
X136881489Y-131733439D01*
X136823741Y-131681443D01*
X136767143Y-131633951D01*
X136757038Y-131621382D01*
X136740739Y-131606707D01*
X136698546Y-131548633D01*
X136656421Y-131496240D01*
X136646006Y-131476318D01*
X136629414Y-131453481D01*
X136602703Y-131393488D01*
X136574561Y-131339657D01*
X136566418Y-131311990D01*
X136552379Y-131280458D01*
X136540008Y-131222259D01*
X136524672Y-131170151D01*
X136521482Y-131135099D01*
X136513001Y-131095199D01*
X136513001Y-131041908D01*
X136508657Y-130994176D01*
X136513001Y-130952847D01*
X136513001Y-130905801D01*
X136522783Y-130859779D01*
X136527127Y-130818453D01*
X136541298Y-130772673D01*
X136552379Y-130720542D01*
X136568972Y-130683274D01*
X136579378Y-130649657D01*
X136605211Y-130601880D01*
X136629414Y-130547519D01*
X136649702Y-130519595D01*
X136663420Y-130494224D01*
X136702141Y-130447418D01*
X136740739Y-130394293D01*
X136761716Y-130375405D01*
X136776048Y-130358081D01*
X136828155Y-130315583D01*
X136881489Y-130267561D01*
X136900476Y-130256599D01*
X136912975Y-130246405D01*
X136978220Y-130211714D01*
X137045512Y-130172863D01*
X137060364Y-130168037D01*
X137068997Y-130163447D01*
X137146570Y-130140027D01*
X137225640Y-130114335D01*
X137234886Y-130113363D01*
X137238149Y-130112378D01*
X137329290Y-130103441D01*
X137366789Y-130099500D01*
X137461211Y-130099500D01*
X137602360Y-130114335D01*
X137602360Y-130114335D01*
G37*
G36*
X137602360Y-127574335D02*
G01*
X137683397Y-127600666D01*
X137770663Y-127628348D01*
X137773655Y-127629993D01*
X137782488Y-127632863D01*
X137854466Y-127674419D01*
X137925499Y-127713470D01*
X137932986Y-127719753D01*
X137946511Y-127727561D01*
X138004259Y-127779557D01*
X138060857Y-127827049D01*
X138070962Y-127839618D01*
X138087261Y-127854293D01*
X138129454Y-127912367D01*
X138171579Y-127964760D01*
X138181994Y-127984682D01*
X138198586Y-128007519D01*
X138225297Y-128067512D01*
X138253439Y-128121343D01*
X138261582Y-128149010D01*
X138275621Y-128180542D01*
X138287992Y-128238741D01*
X138303328Y-128290849D01*
X138306518Y-128325901D01*
X138314999Y-128365801D01*
X138314999Y-128419092D01*
X138319343Y-128466824D01*
X138314999Y-128508153D01*
X138314999Y-128555199D01*
X138305217Y-128601221D01*
X138300873Y-128642547D01*
X138286702Y-128688327D01*
X138275621Y-128740458D01*
X138259028Y-128777726D01*
X138248622Y-128811343D01*
X138222789Y-128859120D01*
X138198586Y-128913481D01*
X138178298Y-128941405D01*
X138164580Y-128966776D01*
X138125859Y-129013582D01*
X138087261Y-129066707D01*
X138066284Y-129085595D01*
X138051952Y-129102919D01*
X137999845Y-129145417D01*
X137946511Y-129193439D01*
X137927524Y-129204401D01*
X137915025Y-129214595D01*
X137849780Y-129249286D01*
X137782488Y-129288137D01*
X137767636Y-129292963D01*
X137759003Y-129297553D01*
X137681430Y-129320973D01*
X137602360Y-129346665D01*
X137593114Y-129347637D01*
X137589851Y-129348622D01*
X137498710Y-129357559D01*
X137461211Y-129361500D01*
X137366789Y-129361500D01*
X137225640Y-129346665D01*
X137144603Y-129320334D01*
X137057337Y-129292652D01*
X137054345Y-129291007D01*
X137045512Y-129288137D01*
X136973534Y-129246581D01*
X136902501Y-129207530D01*
X136895014Y-129201247D01*
X136881489Y-129193439D01*
X136823741Y-129141443D01*
X136767143Y-129093951D01*
X136757038Y-129081382D01*
X136740739Y-129066707D01*
X136698546Y-129008633D01*
X136656421Y-128956240D01*
X136646006Y-128936318D01*
X136629414Y-128913481D01*
X136602703Y-128853488D01*
X136574561Y-128799657D01*
X136566418Y-128771990D01*
X136552379Y-128740458D01*
X136540008Y-128682259D01*
X136524672Y-128630151D01*
X136521482Y-128595099D01*
X136513001Y-128555199D01*
X136513001Y-128501908D01*
X136508657Y-128454176D01*
X136513001Y-128412847D01*
X136513001Y-128365801D01*
X136522783Y-128319779D01*
X136527127Y-128278453D01*
X136541298Y-128232673D01*
X136552379Y-128180542D01*
X136568972Y-128143274D01*
X136579378Y-128109657D01*
X136605211Y-128061880D01*
X136629414Y-128007519D01*
X136649702Y-127979595D01*
X136663420Y-127954224D01*
X136702141Y-127907418D01*
X136740739Y-127854293D01*
X136761716Y-127835405D01*
X136776048Y-127818081D01*
X136828155Y-127775583D01*
X136881489Y-127727561D01*
X136900476Y-127716599D01*
X136912975Y-127706405D01*
X136978220Y-127671714D01*
X137045512Y-127632863D01*
X137060364Y-127628037D01*
X137068997Y-127623447D01*
X137146570Y-127600027D01*
X137225640Y-127574335D01*
X137234886Y-127573363D01*
X137238149Y-127572378D01*
X137329290Y-127563441D01*
X137366789Y-127559500D01*
X137461211Y-127559500D01*
X137602360Y-127574335D01*
X137602360Y-127574335D01*
G37*
G36*
X137602360Y-125034335D02*
G01*
X137683397Y-125060666D01*
X137770663Y-125088348D01*
X137773655Y-125089993D01*
X137782488Y-125092863D01*
X137854466Y-125134419D01*
X137925499Y-125173470D01*
X137932986Y-125179753D01*
X137946511Y-125187561D01*
X138004259Y-125239557D01*
X138060857Y-125287049D01*
X138070962Y-125299618D01*
X138087261Y-125314293D01*
X138129454Y-125372367D01*
X138171579Y-125424760D01*
X138181994Y-125444682D01*
X138198586Y-125467519D01*
X138225297Y-125527512D01*
X138253439Y-125581343D01*
X138261582Y-125609010D01*
X138275621Y-125640542D01*
X138287992Y-125698741D01*
X138303328Y-125750849D01*
X138306518Y-125785901D01*
X138314999Y-125825801D01*
X138314999Y-125879092D01*
X138319343Y-125926824D01*
X138314999Y-125968153D01*
X138314999Y-126015199D01*
X138305217Y-126061221D01*
X138300873Y-126102547D01*
X138286702Y-126148327D01*
X138275621Y-126200458D01*
X138259028Y-126237726D01*
X138248622Y-126271343D01*
X138222789Y-126319120D01*
X138198586Y-126373481D01*
X138178298Y-126401405D01*
X138164580Y-126426776D01*
X138125859Y-126473582D01*
X138087261Y-126526707D01*
X138066284Y-126545595D01*
X138051952Y-126562919D01*
X137999845Y-126605417D01*
X137946511Y-126653439D01*
X137927524Y-126664401D01*
X137915025Y-126674595D01*
X137849780Y-126709286D01*
X137782488Y-126748137D01*
X137767636Y-126752963D01*
X137759003Y-126757553D01*
X137681430Y-126780973D01*
X137602360Y-126806665D01*
X137593114Y-126807637D01*
X137589851Y-126808622D01*
X137498710Y-126817559D01*
X137461211Y-126821500D01*
X137366789Y-126821500D01*
X137225640Y-126806665D01*
X137144603Y-126780334D01*
X137057337Y-126752652D01*
X137054345Y-126751007D01*
X137045512Y-126748137D01*
X136973534Y-126706581D01*
X136902501Y-126667530D01*
X136895014Y-126661247D01*
X136881489Y-126653439D01*
X136823741Y-126601443D01*
X136767143Y-126553951D01*
X136757038Y-126541382D01*
X136740739Y-126526707D01*
X136698546Y-126468633D01*
X136656421Y-126416240D01*
X136646006Y-126396318D01*
X136629414Y-126373481D01*
X136602703Y-126313488D01*
X136574561Y-126259657D01*
X136566418Y-126231990D01*
X136552379Y-126200458D01*
X136540008Y-126142259D01*
X136524672Y-126090151D01*
X136521482Y-126055099D01*
X136513001Y-126015199D01*
X136513001Y-125961908D01*
X136508657Y-125914176D01*
X136513001Y-125872847D01*
X136513001Y-125825801D01*
X136522783Y-125779779D01*
X136527127Y-125738453D01*
X136541298Y-125692673D01*
X136552379Y-125640542D01*
X136568972Y-125603274D01*
X136579378Y-125569657D01*
X136605211Y-125521880D01*
X136629414Y-125467519D01*
X136649702Y-125439595D01*
X136663420Y-125414224D01*
X136702141Y-125367418D01*
X136740739Y-125314293D01*
X136761716Y-125295405D01*
X136776048Y-125278081D01*
X136828155Y-125235583D01*
X136881489Y-125187561D01*
X136900476Y-125176599D01*
X136912975Y-125166405D01*
X136978220Y-125131714D01*
X137045512Y-125092863D01*
X137060364Y-125088037D01*
X137068997Y-125083447D01*
X137146570Y-125060027D01*
X137225640Y-125034335D01*
X137234886Y-125033363D01*
X137238149Y-125032378D01*
X137329290Y-125023441D01*
X137366789Y-125019500D01*
X137461211Y-125019500D01*
X137602360Y-125034335D01*
X137602360Y-125034335D01*
G37*
G36*
X137602360Y-122494335D02*
G01*
X137683397Y-122520666D01*
X137770663Y-122548348D01*
X137773655Y-122549993D01*
X137782488Y-122552863D01*
X137854466Y-122594419D01*
X137925499Y-122633470D01*
X137932986Y-122639753D01*
X137946511Y-122647561D01*
X138004259Y-122699557D01*
X138060857Y-122747049D01*
X138070962Y-122759618D01*
X138087261Y-122774293D01*
X138129454Y-122832367D01*
X138171579Y-122884760D01*
X138181994Y-122904682D01*
X138198586Y-122927519D01*
X138225297Y-122987512D01*
X138253439Y-123041343D01*
X138261582Y-123069010D01*
X138275621Y-123100542D01*
X138287992Y-123158741D01*
X138303328Y-123210849D01*
X138306518Y-123245901D01*
X138314999Y-123285801D01*
X138314999Y-123339092D01*
X138319343Y-123386824D01*
X138314999Y-123428153D01*
X138314999Y-123475199D01*
X138305217Y-123521221D01*
X138300873Y-123562547D01*
X138286702Y-123608327D01*
X138275621Y-123660458D01*
X138259028Y-123697726D01*
X138248622Y-123731343D01*
X138222789Y-123779120D01*
X138198586Y-123833481D01*
X138178298Y-123861405D01*
X138164580Y-123886776D01*
X138125859Y-123933582D01*
X138087261Y-123986707D01*
X138066284Y-124005595D01*
X138051952Y-124022919D01*
X137999845Y-124065417D01*
X137946511Y-124113439D01*
X137927524Y-124124401D01*
X137915025Y-124134595D01*
X137849780Y-124169286D01*
X137782488Y-124208137D01*
X137767636Y-124212963D01*
X137759003Y-124217553D01*
X137681430Y-124240973D01*
X137602360Y-124266665D01*
X137593114Y-124267637D01*
X137589851Y-124268622D01*
X137498710Y-124277559D01*
X137461211Y-124281500D01*
X137366789Y-124281500D01*
X137225640Y-124266665D01*
X137144603Y-124240334D01*
X137057337Y-124212652D01*
X137054345Y-124211007D01*
X137045512Y-124208137D01*
X136973534Y-124166581D01*
X136902501Y-124127530D01*
X136895014Y-124121247D01*
X136881489Y-124113439D01*
X136823741Y-124061443D01*
X136767143Y-124013951D01*
X136757038Y-124001382D01*
X136740739Y-123986707D01*
X136698546Y-123928633D01*
X136656421Y-123876240D01*
X136646006Y-123856318D01*
X136629414Y-123833481D01*
X136602703Y-123773488D01*
X136574561Y-123719657D01*
X136566418Y-123691990D01*
X136552379Y-123660458D01*
X136540008Y-123602259D01*
X136524672Y-123550151D01*
X136521482Y-123515099D01*
X136513001Y-123475199D01*
X136513001Y-123421908D01*
X136508657Y-123374176D01*
X136513001Y-123332847D01*
X136513001Y-123285801D01*
X136522783Y-123239779D01*
X136527127Y-123198453D01*
X136541298Y-123152673D01*
X136552379Y-123100542D01*
X136568972Y-123063274D01*
X136579378Y-123029657D01*
X136605211Y-122981880D01*
X136629414Y-122927519D01*
X136649702Y-122899595D01*
X136663420Y-122874224D01*
X136702141Y-122827418D01*
X136740739Y-122774293D01*
X136761716Y-122755405D01*
X136776048Y-122738081D01*
X136828155Y-122695583D01*
X136881489Y-122647561D01*
X136900476Y-122636599D01*
X136912975Y-122626405D01*
X136978220Y-122591714D01*
X137045512Y-122552863D01*
X137060364Y-122548037D01*
X137068997Y-122543447D01*
X137146570Y-122520027D01*
X137225640Y-122494335D01*
X137234886Y-122493363D01*
X137238149Y-122492378D01*
X137329290Y-122483441D01*
X137366789Y-122479500D01*
X137461211Y-122479500D01*
X137602360Y-122494335D01*
X137602360Y-122494335D01*
G37*
G36*
X137602360Y-119954335D02*
G01*
X137683397Y-119980666D01*
X137770663Y-120008348D01*
X137773655Y-120009993D01*
X137782488Y-120012863D01*
X137854466Y-120054419D01*
X137925499Y-120093470D01*
X137932986Y-120099753D01*
X137946511Y-120107561D01*
X138004259Y-120159557D01*
X138060857Y-120207049D01*
X138070962Y-120219618D01*
X138087261Y-120234293D01*
X138129454Y-120292367D01*
X138171579Y-120344760D01*
X138181994Y-120364682D01*
X138198586Y-120387519D01*
X138225297Y-120447512D01*
X138253439Y-120501343D01*
X138261582Y-120529010D01*
X138275621Y-120560542D01*
X138287992Y-120618741D01*
X138303328Y-120670849D01*
X138306518Y-120705901D01*
X138314999Y-120745801D01*
X138314999Y-120799092D01*
X138319343Y-120846824D01*
X138314999Y-120888153D01*
X138314999Y-120935199D01*
X138305217Y-120981221D01*
X138300873Y-121022547D01*
X138286702Y-121068327D01*
X138275621Y-121120458D01*
X138259028Y-121157726D01*
X138248622Y-121191343D01*
X138222789Y-121239120D01*
X138198586Y-121293481D01*
X138178298Y-121321405D01*
X138164580Y-121346776D01*
X138125859Y-121393582D01*
X138087261Y-121446707D01*
X138066284Y-121465595D01*
X138051952Y-121482919D01*
X137999845Y-121525417D01*
X137946511Y-121573439D01*
X137927524Y-121584401D01*
X137915025Y-121594595D01*
X137849780Y-121629286D01*
X137782488Y-121668137D01*
X137767636Y-121672963D01*
X137759003Y-121677553D01*
X137681430Y-121700973D01*
X137602360Y-121726665D01*
X137593114Y-121727637D01*
X137589851Y-121728622D01*
X137498710Y-121737559D01*
X137461211Y-121741500D01*
X137366789Y-121741500D01*
X137225640Y-121726665D01*
X137144603Y-121700334D01*
X137057337Y-121672652D01*
X137054345Y-121671007D01*
X137045512Y-121668137D01*
X136973534Y-121626581D01*
X136902501Y-121587530D01*
X136895014Y-121581247D01*
X136881489Y-121573439D01*
X136823741Y-121521443D01*
X136767143Y-121473951D01*
X136757038Y-121461382D01*
X136740739Y-121446707D01*
X136698546Y-121388633D01*
X136656421Y-121336240D01*
X136646006Y-121316318D01*
X136629414Y-121293481D01*
X136602703Y-121233488D01*
X136574561Y-121179657D01*
X136566418Y-121151990D01*
X136552379Y-121120458D01*
X136540008Y-121062259D01*
X136524672Y-121010151D01*
X136521482Y-120975099D01*
X136513001Y-120935199D01*
X136513001Y-120881908D01*
X136508657Y-120834176D01*
X136513001Y-120792847D01*
X136513001Y-120745801D01*
X136522783Y-120699779D01*
X136527127Y-120658453D01*
X136541298Y-120612673D01*
X136552379Y-120560542D01*
X136568972Y-120523274D01*
X136579378Y-120489657D01*
X136605211Y-120441880D01*
X136629414Y-120387519D01*
X136649702Y-120359595D01*
X136663420Y-120334224D01*
X136702141Y-120287418D01*
X136740739Y-120234293D01*
X136761716Y-120215405D01*
X136776048Y-120198081D01*
X136828155Y-120155583D01*
X136881489Y-120107561D01*
X136900476Y-120096599D01*
X136912975Y-120086405D01*
X136978220Y-120051714D01*
X137045512Y-120012863D01*
X137060364Y-120008037D01*
X137068997Y-120003447D01*
X137146570Y-119980027D01*
X137225640Y-119954335D01*
X137234886Y-119953363D01*
X137238149Y-119952378D01*
X137329290Y-119943441D01*
X137366789Y-119939500D01*
X137461211Y-119939500D01*
X137602360Y-119954335D01*
X137602360Y-119954335D01*
G37*
G36*
X137602360Y-117414335D02*
G01*
X137683397Y-117440666D01*
X137770663Y-117468348D01*
X137773655Y-117469993D01*
X137782488Y-117472863D01*
X137854466Y-117514419D01*
X137925499Y-117553470D01*
X137932986Y-117559753D01*
X137946511Y-117567561D01*
X138004259Y-117619557D01*
X138060857Y-117667049D01*
X138070962Y-117679618D01*
X138087261Y-117694293D01*
X138129454Y-117752367D01*
X138171579Y-117804760D01*
X138181994Y-117824682D01*
X138198586Y-117847519D01*
X138225297Y-117907512D01*
X138253439Y-117961343D01*
X138261582Y-117989010D01*
X138275621Y-118020542D01*
X138287992Y-118078741D01*
X138303328Y-118130849D01*
X138306518Y-118165901D01*
X138314999Y-118205801D01*
X138314999Y-118259092D01*
X138319343Y-118306824D01*
X138314999Y-118348153D01*
X138314999Y-118395199D01*
X138305217Y-118441221D01*
X138300873Y-118482547D01*
X138286702Y-118528327D01*
X138275621Y-118580458D01*
X138259028Y-118617726D01*
X138248622Y-118651343D01*
X138222789Y-118699120D01*
X138198586Y-118753481D01*
X138178298Y-118781405D01*
X138164580Y-118806776D01*
X138125859Y-118853582D01*
X138087261Y-118906707D01*
X138066284Y-118925595D01*
X138051952Y-118942919D01*
X137999845Y-118985417D01*
X137946511Y-119033439D01*
X137927524Y-119044401D01*
X137915025Y-119054595D01*
X137849780Y-119089286D01*
X137782488Y-119128137D01*
X137767636Y-119132963D01*
X137759003Y-119137553D01*
X137681430Y-119160973D01*
X137602360Y-119186665D01*
X137593114Y-119187637D01*
X137589851Y-119188622D01*
X137498710Y-119197559D01*
X137461211Y-119201500D01*
X137366789Y-119201500D01*
X137225640Y-119186665D01*
X137144603Y-119160334D01*
X137057337Y-119132652D01*
X137054345Y-119131007D01*
X137045512Y-119128137D01*
X136973534Y-119086581D01*
X136902501Y-119047530D01*
X136895014Y-119041247D01*
X136881489Y-119033439D01*
X136823741Y-118981443D01*
X136767143Y-118933951D01*
X136757038Y-118921382D01*
X136740739Y-118906707D01*
X136698546Y-118848633D01*
X136656421Y-118796240D01*
X136646006Y-118776318D01*
X136629414Y-118753481D01*
X136602703Y-118693488D01*
X136574561Y-118639657D01*
X136566418Y-118611990D01*
X136552379Y-118580458D01*
X136540008Y-118522259D01*
X136524672Y-118470151D01*
X136521482Y-118435099D01*
X136513001Y-118395199D01*
X136513001Y-118341908D01*
X136508657Y-118294176D01*
X136513001Y-118252847D01*
X136513001Y-118205801D01*
X136522783Y-118159779D01*
X136527127Y-118118453D01*
X136541298Y-118072673D01*
X136552379Y-118020542D01*
X136568972Y-117983274D01*
X136579378Y-117949657D01*
X136605211Y-117901880D01*
X136629414Y-117847519D01*
X136649702Y-117819595D01*
X136663420Y-117794224D01*
X136702141Y-117747418D01*
X136740739Y-117694293D01*
X136761716Y-117675405D01*
X136776048Y-117658081D01*
X136828155Y-117615583D01*
X136881489Y-117567561D01*
X136900476Y-117556599D01*
X136912975Y-117546405D01*
X136978220Y-117511714D01*
X137045512Y-117472863D01*
X137060364Y-117468037D01*
X137068997Y-117463447D01*
X137146570Y-117440027D01*
X137225640Y-117414335D01*
X137234886Y-117413363D01*
X137238149Y-117412378D01*
X137329290Y-117403441D01*
X137366789Y-117399500D01*
X137461211Y-117399500D01*
X137602360Y-117414335D01*
X137602360Y-117414335D01*
G37*
G36*
X113559899Y-113801959D02*
G01*
X113576769Y-113813231D01*
X113588041Y-113830101D01*
X113594448Y-113862312D01*
X113594448Y-117797688D01*
X113591999Y-117810000D01*
X113588041Y-117829899D01*
X113576769Y-117846769D01*
X113559899Y-117858041D01*
X113540000Y-117861999D01*
X113527688Y-117864448D01*
X108472312Y-117864448D01*
X108440101Y-117858041D01*
X108423231Y-117846769D01*
X108411959Y-117829899D01*
X108405552Y-117797688D01*
X108405552Y-113862312D01*
X108411959Y-113830101D01*
X108423231Y-113813231D01*
X108440101Y-113801959D01*
X108472312Y-113795552D01*
X113527688Y-113795552D01*
X113559899Y-113801959D01*
X113559899Y-113801959D01*
G37*
G36*
X131559899Y-113801959D02*
G01*
X131576769Y-113813231D01*
X131588041Y-113830101D01*
X131594448Y-113862312D01*
X131594448Y-117797688D01*
X131591999Y-117810000D01*
X131588041Y-117829899D01*
X131576769Y-117846769D01*
X131559899Y-117858041D01*
X131540000Y-117861999D01*
X131527688Y-117864448D01*
X126472312Y-117864448D01*
X126440101Y-117858041D01*
X126423231Y-117846769D01*
X126411959Y-117829899D01*
X126405552Y-117797688D01*
X126405552Y-113862312D01*
X126411959Y-113830101D01*
X126423231Y-113813231D01*
X126440101Y-113801959D01*
X126472312Y-113795552D01*
X131527688Y-113795552D01*
X131559899Y-113801959D01*
X131559899Y-113801959D01*
G37*
G36*
X137602360Y-114874335D02*
G01*
X137683397Y-114900666D01*
X137770663Y-114928348D01*
X137773655Y-114929993D01*
X137782488Y-114932863D01*
X137854466Y-114974419D01*
X137925499Y-115013470D01*
X137932986Y-115019753D01*
X137946511Y-115027561D01*
X138004259Y-115079557D01*
X138060857Y-115127049D01*
X138070962Y-115139618D01*
X138087261Y-115154293D01*
X138129454Y-115212367D01*
X138171579Y-115264760D01*
X138181994Y-115284682D01*
X138198586Y-115307519D01*
X138225297Y-115367512D01*
X138253439Y-115421343D01*
X138261582Y-115449010D01*
X138275621Y-115480542D01*
X138287992Y-115538741D01*
X138303328Y-115590849D01*
X138306518Y-115625901D01*
X138314999Y-115665801D01*
X138314999Y-115719092D01*
X138319343Y-115766824D01*
X138314999Y-115808153D01*
X138314999Y-115855199D01*
X138305217Y-115901221D01*
X138300873Y-115942547D01*
X138286702Y-115988327D01*
X138275621Y-116040458D01*
X138259028Y-116077726D01*
X138248622Y-116111343D01*
X138222789Y-116159120D01*
X138198586Y-116213481D01*
X138178298Y-116241405D01*
X138164580Y-116266776D01*
X138125859Y-116313582D01*
X138087261Y-116366707D01*
X138066284Y-116385595D01*
X138051952Y-116402919D01*
X137999845Y-116445417D01*
X137946511Y-116493439D01*
X137927524Y-116504401D01*
X137915025Y-116514595D01*
X137849780Y-116549286D01*
X137782488Y-116588137D01*
X137767636Y-116592963D01*
X137759003Y-116597553D01*
X137681430Y-116620973D01*
X137602360Y-116646665D01*
X137593114Y-116647637D01*
X137589851Y-116648622D01*
X137498710Y-116657559D01*
X137461211Y-116661500D01*
X137366789Y-116661500D01*
X137225640Y-116646665D01*
X137144603Y-116620334D01*
X137057337Y-116592652D01*
X137054345Y-116591007D01*
X137045512Y-116588137D01*
X136973534Y-116546581D01*
X136902501Y-116507530D01*
X136895014Y-116501247D01*
X136881489Y-116493439D01*
X136823741Y-116441443D01*
X136767143Y-116393951D01*
X136757038Y-116381382D01*
X136740739Y-116366707D01*
X136698546Y-116308633D01*
X136656421Y-116256240D01*
X136646006Y-116236318D01*
X136629414Y-116213481D01*
X136602703Y-116153488D01*
X136574561Y-116099657D01*
X136566418Y-116071990D01*
X136552379Y-116040458D01*
X136540008Y-115982259D01*
X136524672Y-115930151D01*
X136521482Y-115895099D01*
X136513001Y-115855199D01*
X136513001Y-115801908D01*
X136508657Y-115754176D01*
X136513001Y-115712847D01*
X136513001Y-115665801D01*
X136522783Y-115619779D01*
X136527127Y-115578453D01*
X136541298Y-115532673D01*
X136552379Y-115480542D01*
X136568972Y-115443274D01*
X136579378Y-115409657D01*
X136605211Y-115361880D01*
X136629414Y-115307519D01*
X136649702Y-115279595D01*
X136663420Y-115254224D01*
X136702141Y-115207418D01*
X136740739Y-115154293D01*
X136761716Y-115135405D01*
X136776048Y-115118081D01*
X136828155Y-115075583D01*
X136881489Y-115027561D01*
X136900476Y-115016599D01*
X136912975Y-115006405D01*
X136978220Y-114971714D01*
X137045512Y-114932863D01*
X137060364Y-114928037D01*
X137068997Y-114923447D01*
X137146570Y-114900027D01*
X137225640Y-114874335D01*
X137234886Y-114873363D01*
X137238149Y-114872378D01*
X137329290Y-114863441D01*
X137366789Y-114859500D01*
X137461211Y-114859500D01*
X137602360Y-114874335D01*
X137602360Y-114874335D01*
G37*
G36*
X138283899Y-112322459D02*
G01*
X138300769Y-112333731D01*
X138312041Y-112350601D01*
X138318448Y-112382812D01*
X138318448Y-114058188D01*
X138315999Y-114070500D01*
X138312041Y-114090399D01*
X138300769Y-114107269D01*
X138283899Y-114118541D01*
X138264000Y-114122499D01*
X138251688Y-114124948D01*
X136576312Y-114124948D01*
X136544101Y-114118541D01*
X136527231Y-114107269D01*
X136515959Y-114090399D01*
X136509552Y-114058188D01*
X136509552Y-112382812D01*
X136515959Y-112350601D01*
X136527231Y-112333731D01*
X136544101Y-112322459D01*
X136576312Y-112316052D01*
X138251688Y-112316052D01*
X138283899Y-112322459D01*
X138283899Y-112322459D01*
G37*
G36*
X139914899Y-107956459D02*
G01*
X139931769Y-107967731D01*
X139943041Y-107984601D01*
X139949448Y-108016812D01*
X139949448Y-109342188D01*
X139946999Y-109354500D01*
X139943041Y-109374399D01*
X139931769Y-109391269D01*
X139914899Y-109402541D01*
X139895000Y-109406499D01*
X139882688Y-109408948D01*
X135707312Y-109408948D01*
X135675101Y-109402541D01*
X135658231Y-109391269D01*
X135646959Y-109374399D01*
X135640552Y-109342188D01*
X135640552Y-108016812D01*
X135646959Y-107984601D01*
X135658231Y-107967731D01*
X135675101Y-107956459D01*
X135707312Y-107950052D01*
X139882688Y-107950052D01*
X139914899Y-107956459D01*
X139914899Y-107956459D01*
G37*
G36*
X112189899Y-100971959D02*
G01*
X112206769Y-100983231D01*
X112218041Y-101000101D01*
X112224448Y-101032312D01*
X112224448Y-104967688D01*
X112221999Y-104980000D01*
X112218041Y-104999899D01*
X112206769Y-105016769D01*
X112189899Y-105028041D01*
X112170000Y-105031999D01*
X112157688Y-105034448D01*
X109842312Y-105034448D01*
X109810101Y-105028041D01*
X109793231Y-105016769D01*
X109781959Y-104999899D01*
X109775552Y-104967688D01*
X109775552Y-101032312D01*
X109781959Y-101000101D01*
X109793231Y-100983231D01*
X109810101Y-100971959D01*
X109842312Y-100965552D01*
X112157688Y-100965552D01*
X112189899Y-100971959D01*
X112189899Y-100971959D01*
G37*
G36*
X130189899Y-100971959D02*
G01*
X130206769Y-100983231D01*
X130218041Y-101000101D01*
X130224448Y-101032312D01*
X130224448Y-104967688D01*
X130221999Y-104980000D01*
X130218041Y-104999899D01*
X130206769Y-105016769D01*
X130189899Y-105028041D01*
X130170000Y-105031999D01*
X130157688Y-105034448D01*
X127842312Y-105034448D01*
X127810101Y-105028041D01*
X127793231Y-105016769D01*
X127781959Y-104999899D01*
X127775552Y-104967688D01*
X127775552Y-101032312D01*
X127781959Y-101000101D01*
X127793231Y-100983231D01*
X127810101Y-100971959D01*
X127842312Y-100965552D01*
X130157688Y-100965552D01*
X130189899Y-100971959D01*
X130189899Y-100971959D01*
G37*
G36*
X139914899Y-102306459D02*
G01*
X139931769Y-102317731D01*
X139943041Y-102334601D01*
X139949448Y-102366812D01*
X139949448Y-103692188D01*
X139946999Y-103704500D01*
X139943041Y-103724399D01*
X139931769Y-103741269D01*
X139914899Y-103752541D01*
X139895000Y-103756499D01*
X139882688Y-103758948D01*
X135707312Y-103758948D01*
X135675101Y-103752541D01*
X135658231Y-103741269D01*
X135646959Y-103724399D01*
X135640552Y-103692188D01*
X135640552Y-102366812D01*
X135646959Y-102334601D01*
X135658231Y-102317731D01*
X135675101Y-102306459D01*
X135707312Y-102300052D01*
X139882688Y-102300052D01*
X139914899Y-102306459D01*
X139914899Y-102306459D01*
G37*
G36*
X131489971Y-100660249D02*
G01*
X131541871Y-100660611D01*
X131581215Y-100669839D01*
X131614962Y-100673386D01*
X131663296Y-100689091D01*
X131719448Y-100702261D01*
X131750616Y-100717463D01*
X131777500Y-100726198D01*
X131826344Y-100754398D01*
X131883383Y-100782218D01*
X131905933Y-100800348D01*
X131925499Y-100811645D01*
X131971517Y-100853080D01*
X132025531Y-100896508D01*
X132039940Y-100914687D01*
X132052506Y-100926002D01*
X132092093Y-100980489D01*
X132138825Y-101039450D01*
X132146365Y-101055188D01*
X132152956Y-101064259D01*
X132182434Y-101130468D01*
X132217636Y-101203940D01*
X132220231Y-101215363D01*
X132222468Y-101220387D01*
X132238374Y-101295220D01*
X132258045Y-101381802D01*
X132257967Y-101387397D01*
X132257999Y-101387548D01*
X132257999Y-101558452D01*
X132255409Y-101570639D01*
X132255182Y-101586864D01*
X132236465Y-101659760D01*
X132222468Y-101725613D01*
X132215592Y-101741058D01*
X132209822Y-101763529D01*
X132178142Y-101825172D01*
X132152956Y-101881741D01*
X132139675Y-101900020D01*
X132126450Y-101925754D01*
X132085661Y-101974364D01*
X132052506Y-102019998D01*
X132031496Y-102038916D01*
X132009208Y-102065477D01*
X131963271Y-102100345D01*
X131925499Y-102134355D01*
X131896113Y-102151321D01*
X131863925Y-102175753D01*
X131816659Y-102197194D01*
X131777500Y-102219802D01*
X131739852Y-102232035D01*
X131697820Y-102251101D01*
X131652610Y-102260381D01*
X131614962Y-102272614D01*
X131569993Y-102277341D01*
X131519151Y-102287777D01*
X131478750Y-102286931D01*
X131445000Y-102290478D01*
X131394448Y-102285165D01*
X131336795Y-102283957D01*
X131303152Y-102275569D01*
X131275038Y-102272614D01*
X131221402Y-102255186D01*
X131159818Y-102239832D01*
X131133985Y-102226783D01*
X131112500Y-102219802D01*
X131058882Y-102188845D01*
X130997014Y-102157594D01*
X130979138Y-102142806D01*
X130964501Y-102134355D01*
X130914478Y-102089315D01*
X130856476Y-102041331D01*
X130845822Y-102027497D01*
X130837494Y-102019998D01*
X130794898Y-101961369D01*
X130745189Y-101896821D01*
X130740278Y-101886192D01*
X130737044Y-101881741D01*
X130705920Y-101811834D01*
X130668683Y-101731246D01*
X130630761Y-101552837D01*
X130632001Y-101464012D01*
X130632001Y-101387548D01*
X130633143Y-101382173D01*
X130633307Y-101370459D01*
X130652469Y-101291253D01*
X130667532Y-101220387D01*
X130672090Y-101210149D01*
X130676196Y-101193178D01*
X130709660Y-101125766D01*
X130737044Y-101064259D01*
X130746982Y-101050581D01*
X130757295Y-101029805D01*
X130801093Y-100976103D01*
X130837494Y-100926002D01*
X130854286Y-100910883D01*
X130872575Y-100888458D01*
X130922586Y-100849385D01*
X130964501Y-100811645D01*
X130988983Y-100797510D01*
X131016304Y-100776165D01*
X131068480Y-100751613D01*
X131112500Y-100726198D01*
X131144775Y-100715711D01*
X131181340Y-100698505D01*
X131232032Y-100687360D01*
X131275038Y-100673386D01*
X131314408Y-100669248D01*
X131359481Y-100659338D01*
X131405629Y-100659660D01*
X131445000Y-100655522D01*
X131489971Y-100660249D01*
X131489971Y-100660249D01*
G37*
G36*
X108629971Y-100660249D02*
G01*
X108681871Y-100660611D01*
X108721215Y-100669839D01*
X108754962Y-100673386D01*
X108803296Y-100689091D01*
X108859448Y-100702261D01*
X108890616Y-100717463D01*
X108917500Y-100726198D01*
X108966344Y-100754398D01*
X109023383Y-100782218D01*
X109045933Y-100800348D01*
X109065499Y-100811645D01*
X109111517Y-100853080D01*
X109165531Y-100896508D01*
X109179940Y-100914687D01*
X109192506Y-100926002D01*
X109232093Y-100980489D01*
X109278825Y-101039450D01*
X109286365Y-101055188D01*
X109292956Y-101064259D01*
X109322434Y-101130468D01*
X109357636Y-101203940D01*
X109360231Y-101215363D01*
X109362468Y-101220387D01*
X109378374Y-101295220D01*
X109398045Y-101381802D01*
X109397967Y-101387397D01*
X109397999Y-101387548D01*
X109397999Y-101558452D01*
X109395409Y-101570639D01*
X109395182Y-101586864D01*
X109376465Y-101659760D01*
X109362468Y-101725613D01*
X109355592Y-101741058D01*
X109349822Y-101763529D01*
X109318142Y-101825172D01*
X109292956Y-101881741D01*
X109279675Y-101900020D01*
X109266450Y-101925754D01*
X109225661Y-101974364D01*
X109192506Y-102019998D01*
X109171496Y-102038916D01*
X109149208Y-102065477D01*
X109103271Y-102100345D01*
X109065499Y-102134355D01*
X109036113Y-102151321D01*
X109003925Y-102175753D01*
X108956659Y-102197194D01*
X108917500Y-102219802D01*
X108879852Y-102232035D01*
X108837820Y-102251101D01*
X108792610Y-102260381D01*
X108754962Y-102272614D01*
X108709993Y-102277341D01*
X108659151Y-102287777D01*
X108618750Y-102286931D01*
X108585000Y-102290478D01*
X108534448Y-102285165D01*
X108476795Y-102283957D01*
X108443152Y-102275569D01*
X108415038Y-102272614D01*
X108361402Y-102255186D01*
X108299818Y-102239832D01*
X108273985Y-102226783D01*
X108252500Y-102219802D01*
X108198882Y-102188845D01*
X108137014Y-102157594D01*
X108119138Y-102142806D01*
X108104501Y-102134355D01*
X108054478Y-102089315D01*
X107996476Y-102041331D01*
X107985822Y-102027497D01*
X107977494Y-102019998D01*
X107934898Y-101961369D01*
X107885189Y-101896821D01*
X107880278Y-101886192D01*
X107877044Y-101881741D01*
X107845920Y-101811834D01*
X107808683Y-101731246D01*
X107770761Y-101552837D01*
X107772001Y-101464012D01*
X107772001Y-101387548D01*
X107773143Y-101382173D01*
X107773307Y-101370459D01*
X107792469Y-101291253D01*
X107807532Y-101220387D01*
X107812090Y-101210149D01*
X107816196Y-101193178D01*
X107849660Y-101125766D01*
X107877044Y-101064259D01*
X107886982Y-101050581D01*
X107897295Y-101029805D01*
X107941093Y-100976103D01*
X107977494Y-100926002D01*
X107994286Y-100910883D01*
X108012575Y-100888458D01*
X108062586Y-100849385D01*
X108104501Y-100811645D01*
X108128983Y-100797510D01*
X108156304Y-100776165D01*
X108208480Y-100751613D01*
X108252500Y-100726198D01*
X108284775Y-100715711D01*
X108321340Y-100698505D01*
X108372032Y-100687360D01*
X108415038Y-100673386D01*
X108454408Y-100669248D01*
X108499481Y-100659338D01*
X108545629Y-100659660D01*
X108585000Y-100655522D01*
X108629971Y-100660249D01*
X108629971Y-100660249D01*
G37*
M02*
