G04 #@! TF.GenerationSoftware,KiCad,Pcbnew,(5.1.0-1348-g4ca769472)*
G04 #@! TF.CreationDate,2021-05-22T02:12:44-07:00*
G04 #@! TF.ProjectId,loggerhw_v4.2,6c6f6767-6572-4687-975f-76342e322e6b,rev?*
G04 #@! TF.SameCoordinates,Original*
G04 #@! TF.FileFunction,Copper,L4,Bot*
G04 #@! TF.FilePolarity,Positive*
%FSLAX46Y46*%
G04 Gerber Fmt 4.6, Leading zero omitted, Abs format (unit mm)*
G04 Created by KiCad (PCBNEW (5.1.0-1348-g4ca769472)) date 2021-05-22 02:12:44*
%MOMM*%
%LPD*%
G04 APERTURE LIST*
%ADD10R,5.080000X3.960000*%
%ADD11R,2.340000X3.960000*%
%ADD12C,1.524000*%
%ADD13R,0.500000X0.900000*%
%ADD14C,0.600000*%
%ADD15C,0.152400*%
%ADD16C,0.500000*%
G04 APERTURE END LIST*
D10*
X111000000Y-146170000D03*
D11*
X111000000Y-159000000D03*
D12*
X131445000Y-101473000D03*
X108585000Y-101473000D03*
D10*
X129000000Y-115830000D03*
D11*
X129000000Y-103000000D03*
D10*
X129000000Y-146170000D03*
D11*
X129000000Y-159000000D03*
D10*
X111000000Y-115830000D03*
D11*
X111000000Y-103000000D03*
D13*
X106000000Y-115600000D03*
D14*
X126682500Y-133159500D03*
X126682496Y-134175500D03*
X126682501Y-135064501D03*
X126619000Y-136525000D03*
X126619000Y-137414000D03*
X126619000Y-139065010D03*
X130746500Y-135255000D03*
X122364500Y-123867890D03*
X123189996Y-124983822D03*
X128168409Y-131064000D03*
X112776000Y-123253500D03*
X115697000Y-121432610D03*
X114935000Y-121072211D03*
X114935000Y-121824624D03*
X115697000Y-120375390D03*
X110744000Y-130048000D03*
X108029977Y-133209817D03*
X103314500Y-124956979D03*
X102233032Y-124247216D03*
X104013000Y-121786775D03*
X104013000Y-122539188D03*
X103902987Y-126005400D03*
X102234996Y-123190000D03*
X103377998Y-123594956D03*
X118110000Y-123931390D03*
X113792000Y-126889383D03*
X114427000Y-123901193D03*
X111723125Y-125540908D03*
X111633000Y-127406409D03*
X116204996Y-123931390D03*
X113802396Y-125832172D03*
X117475420Y-109350791D03*
X117462961Y-108598482D03*
X121137390Y-116459000D03*
X111851221Y-119725221D03*
X132450000Y-133008800D03*
X133096006Y-132334000D03*
X133096000Y-131470400D03*
X131191000Y-102920800D03*
X122682000Y-146939000D03*
X125628400Y-157734000D03*
X128295400Y-155473400D03*
X125628400Y-155448000D03*
X122682000Y-155448000D03*
X122682000Y-157734000D03*
X120015000Y-157734000D03*
X120015000Y-155448000D03*
X130784599Y-154787600D03*
X114554000Y-152654000D03*
X112014000Y-155448000D03*
X109220000Y-155448000D03*
X107188000Y-155448000D03*
X103632000Y-152654000D03*
X103632000Y-150114000D03*
X105740200Y-148463000D03*
X107086400Y-148463000D03*
X108458000Y-149834600D03*
X108280200Y-151206200D03*
X118515000Y-150699600D03*
X111937800Y-150571200D03*
X116332000Y-146507200D03*
X118516400Y-147015202D03*
X119515000Y-151426800D03*
X120523000Y-151434800D03*
X111480600Y-148920200D03*
X114122200Y-146583400D03*
X117348000Y-155448000D03*
X117348000Y-157734000D03*
X114554000Y-157734000D03*
X126111000Y-148590000D03*
X121158000Y-141732000D03*
X116332000Y-138811000D03*
X104140000Y-145923000D03*
X112871000Y-157049000D03*
X100800000Y-130600000D03*
X121158000Y-134900000D03*
X126746000Y-119507000D03*
X125500004Y-143400000D03*
X106200000Y-117100000D03*
X106100000Y-114400000D03*
X107100000Y-115600000D03*
X106250000Y-112500000D03*
X106250000Y-109500000D03*
X106250000Y-111000000D03*
X106250000Y-108000000D03*
X106250000Y-106500000D03*
X106250000Y-105000000D03*
X106250000Y-103500000D03*
X106250000Y-102000000D03*
X106250000Y-100750000D03*
X116271390Y-116849832D03*
X126611784Y-143105784D03*
X108458000Y-111998000D03*
X100838000Y-144256000D03*
X125222000Y-109204000D03*
X114420000Y-112871390D03*
X108500000Y-109100000D03*
X103903416Y-127586210D03*
X112903143Y-112885711D03*
X104500000Y-139900000D03*
X121158000Y-144589500D03*
X131064000Y-124968000D03*
X109093000Y-119761000D03*
X120269000Y-119507000D03*
X120269000Y-120777016D03*
X130486010Y-142945000D03*
X129286000Y-131064000D03*
X131064000Y-119507000D03*
X129625357Y-133010643D03*
X123190000Y-126238000D03*
X110363000Y-137668000D03*
X109347000Y-140081000D03*
X108712000Y-138176000D03*
X104463998Y-142945000D03*
X104475008Y-141675000D03*
X101600000Y-132080000D03*
X112871000Y-160986000D03*
X109061000Y-160986000D03*
X115824000Y-135509000D03*
X115443000Y-138811000D03*
X104140000Y-144780000D03*
X109363438Y-140999998D03*
X115824000Y-132842000D03*
X115824000Y-133731000D03*
X120523000Y-132842000D03*
X130556020Y-132968994D03*
X124714000Y-137287000D03*
X124714000Y-136397994D03*
X124713999Y-133858001D03*
X108712000Y-142299992D03*
X132842000Y-150876000D03*
X132842000Y-155473400D03*
X126111000Y-150876000D03*
X109061000Y-157049000D03*
X115800000Y-134620000D03*
X111632994Y-128270000D03*
X114426998Y-111887000D03*
X119761000Y-106807000D03*
X120523000Y-109220000D03*
X124999988Y-106100012D03*
X114992673Y-106672679D03*
X117475008Y-107791959D03*
X117475000Y-106968987D03*
X120268996Y-124841000D03*
X120269000Y-123952024D03*
X124073500Y-124973500D03*
X121158000Y-119507000D03*
X121158000Y-120777000D03*
X122047000Y-119507000D03*
X122936000Y-119507000D03*
X124967994Y-124968000D03*
X123063000Y-108331000D03*
X117221000Y-120777000D03*
X111000000Y-106042994D03*
X112000000Y-106697861D03*
X113000000Y-107345012D03*
X100838000Y-147320000D03*
X103632000Y-147320000D03*
X106426000Y-147320000D03*
X114554000Y-155448000D03*
X121158000Y-139192000D03*
X116840000Y-141732000D03*
X118110000Y-131191000D03*
X119126000Y-134874000D03*
X115824000Y-136398000D03*
X119126000Y-139192000D03*
X121158000Y-136398000D03*
X126746000Y-122428000D03*
X131064000Y-122428000D03*
X107442000Y-102870000D03*
X107442000Y-104140000D03*
X107442000Y-105664000D03*
X107442000Y-107188000D03*
X107442000Y-108712000D03*
X107442000Y-110236000D03*
X107442000Y-111760000D03*
X108712000Y-103505000D03*
X132842000Y-148590000D03*
X132842000Y-145542000D03*
X123444000Y-152654000D03*
X100457000Y-118364000D03*
X100457000Y-119888000D03*
X108458000Y-113030000D03*
X109728000Y-112522000D03*
X112014000Y-108204000D03*
X109982000Y-108204000D03*
X112014000Y-112522000D03*
X127762000Y-106426000D03*
X127762000Y-108204000D03*
X134112000Y-113284000D03*
X134112000Y-115824000D03*
X134112000Y-119507000D03*
X134112000Y-124968000D03*
X134112000Y-127508000D03*
X134112000Y-130302000D03*
X119126000Y-132842000D03*
X119126000Y-141732000D03*
X115443000Y-141732000D03*
X131191000Y-103886000D03*
X108712000Y-105029008D03*
X116205008Y-103378000D03*
X118745000Y-103378000D03*
X117475000Y-103886000D03*
X110744000Y-129159000D03*
X120523000Y-131191000D03*
X125000005Y-131190998D03*
X114427000Y-131191000D03*
X114427000Y-132842000D03*
X106680000Y-132080004D03*
X102550000Y-133156996D03*
X114426999Y-125349001D03*
X115316004Y-125366250D03*
X116205000Y-125857000D03*
X114443005Y-126324986D03*
X103251000Y-132080000D03*
X103886000Y-128397000D03*
X118110000Y-126237998D03*
X117221000Y-126238000D03*
X112014000Y-133985000D03*
X112649000Y-132842000D03*
X112014000Y-136398000D03*
X112014000Y-138811000D03*
X110363000Y-138811000D03*
X109982000Y-133985000D03*
X124079000Y-122428000D03*
X112522000Y-124714000D03*
X114173000Y-116840000D03*
X107061000Y-118237000D03*
X123825000Y-119507000D03*
X104521000Y-137287000D03*
X130492500Y-138938000D03*
X126746000Y-124968000D03*
X127634988Y-124968000D03*
X128524000Y-124968000D03*
X121666000Y-132842000D03*
X121666000Y-131191000D03*
X122809000Y-131191000D03*
X122809000Y-132842000D03*
X104521000Y-133477000D03*
X118999008Y-123952008D03*
X115316000Y-123952000D03*
X110998000Y-121412000D03*
X110109000Y-119761000D03*
X114935000Y-120015000D03*
X120777000Y-125476000D03*
X120777000Y-123317000D03*
X121666000Y-122428000D03*
X114426999Y-130048001D03*
X134112000Y-122428000D03*
X114427000Y-129159000D03*
X116205000Y-125095000D03*
X101473000Y-121793000D03*
X101428610Y-127508000D03*
X101428610Y-128778000D03*
X102235000Y-125349000D03*
X104521000Y-118237000D03*
X105791000Y-118237000D03*
X129921000Y-146177000D03*
X128142996Y-146177000D03*
X103825000Y-120600000D03*
X117982996Y-118745000D03*
X123825000Y-117729000D03*
X129000000Y-110839000D03*
X120269000Y-116459000D03*
X119380000Y-116459000D03*
X132461000Y-109855000D03*
X129032000Y-109855000D03*
X132334000Y-106553000D03*
X129286000Y-106553000D03*
X133604000Y-105029000D03*
X132334000Y-120777000D03*
X133985000Y-101346000D03*
X125602996Y-115443000D03*
D15*
X123189996Y-124983822D02*
X127639799Y-129433625D01*
X127639799Y-134361201D02*
X126936500Y-135064500D01*
X126936500Y-135064500D02*
X126682502Y-135064500D01*
X127639799Y-129433625D02*
X127639799Y-134361201D01*
X126682502Y-135064500D02*
X126682501Y-135064501D01*
X122364500Y-123867890D02*
X122364500Y-126174500D01*
X122364500Y-126174500D02*
X125730000Y-129540000D01*
X125730000Y-136525000D02*
X126319001Y-137114001D01*
X125730000Y-129540000D02*
X125730000Y-136525000D01*
X126319001Y-137114001D02*
X126619000Y-137414000D01*
X123190000Y-126238000D02*
X126085622Y-129133622D01*
X126085622Y-129133622D02*
X126085622Y-135991622D01*
X126085622Y-135991622D02*
X126319001Y-136225001D01*
X126319001Y-136225001D02*
X126619000Y-136525000D01*
X126319001Y-138765011D02*
X126619000Y-139065010D01*
X125300004Y-131490997D02*
X125300004Y-137746014D01*
X125000005Y-131190998D02*
X125300004Y-131490997D01*
X125300004Y-137746014D02*
X126319001Y-138765011D01*
X131165600Y-134835900D02*
X131046499Y-134955001D01*
X131165600Y-131165606D02*
X131165600Y-134835900D01*
X131046499Y-134955001D02*
X130746500Y-135255000D01*
X124967994Y-124968000D02*
X131165600Y-131165606D01*
X115103211Y-120904000D02*
X114935000Y-121072211D01*
X122047000Y-120777000D02*
X120904000Y-121920000D01*
X113676274Y-122353226D02*
X113075999Y-122953501D01*
X116078000Y-120904000D02*
X115103211Y-120904000D01*
X121031000Y-122301000D02*
X115240956Y-122301000D01*
X122936000Y-120396000D02*
X121031000Y-122301000D01*
X116121264Y-121432610D02*
X115697000Y-121432610D01*
X115240956Y-122301000D02*
X115188730Y-122353226D01*
X115950730Y-121961212D02*
X115071588Y-121961212D01*
X122936000Y-119507000D02*
X122936000Y-120396000D01*
X115188730Y-122353226D02*
X113676274Y-122353226D01*
X120502390Y-121432610D02*
X116121264Y-121432610D01*
X120523000Y-120142000D02*
X116840000Y-120142000D01*
X121158000Y-119507000D02*
X120523000Y-120142000D01*
X120904000Y-121920000D02*
X115991942Y-121920000D01*
X116840000Y-120142000D02*
X116078000Y-120904000D01*
X120269000Y-119507000D02*
X116565390Y-119507000D01*
X113075999Y-122953501D02*
X112776000Y-123253500D01*
X122047000Y-119507000D02*
X122047000Y-120777000D01*
X116565390Y-119507000D02*
X115996999Y-120075391D01*
X121158000Y-120777000D02*
X120502390Y-121432610D01*
X115071588Y-121961212D02*
X114935000Y-121824624D01*
X115991942Y-121920000D02*
X115950730Y-121961212D01*
X115996999Y-120075391D02*
X115697000Y-120375390D01*
X109347000Y-140081000D02*
X109347000Y-135382000D01*
X109347000Y-135382000D02*
X107442000Y-133477000D01*
X110319736Y-130048000D02*
X110744000Y-130048000D01*
X107442000Y-132925736D02*
X110319736Y-130048000D01*
X107442000Y-133477000D02*
X107442000Y-132925736D01*
X110363000Y-138811000D02*
X109728000Y-138176000D01*
X109728000Y-138176000D02*
X109728000Y-134907840D01*
X109728000Y-134907840D02*
X108329976Y-133509816D01*
X108329976Y-133509816D02*
X108029977Y-133209817D01*
X108829411Y-125485589D02*
X104340089Y-125485589D01*
X104340089Y-125485589D02*
X104267000Y-125412500D01*
X104267000Y-125412500D02*
X103713557Y-125412500D01*
X103477058Y-125648999D02*
X102534999Y-125648999D01*
X103713557Y-125412500D02*
X103477058Y-125648999D01*
X102534999Y-125648999D02*
X102235000Y-125349000D01*
X100965000Y-125984000D02*
X100965000Y-123317000D01*
X114091999Y-124795001D02*
X112009201Y-126877799D01*
X101904811Y-126923811D02*
X100965000Y-125984000D01*
X104197973Y-126923811D02*
X101904811Y-126923811D01*
X102235000Y-126619000D02*
X101346000Y-125730000D01*
X103588736Y-122539188D02*
X104013000Y-122539188D01*
X120269000Y-123952024D02*
X119384835Y-124836189D01*
X101742812Y-122539188D02*
X103588736Y-122539188D01*
X100965000Y-123317000D02*
X101742812Y-122539188D01*
X119384835Y-124836189D02*
X116835189Y-124836189D01*
X101346000Y-125730000D02*
X101346000Y-124078996D01*
X104243985Y-126877799D02*
X104197973Y-126923811D01*
X112009201Y-126877799D02*
X104243985Y-126877799D01*
X104173326Y-126517391D02*
X104071717Y-126619000D01*
X116205000Y-125095000D02*
X115905001Y-124795001D01*
X115905001Y-124795001D02*
X114091999Y-124795001D01*
X101934997Y-123489999D02*
X102234996Y-123190000D01*
X116835189Y-124836189D02*
X116479601Y-124480601D01*
X116479601Y-124480601D02*
X113975333Y-124480601D01*
X113975333Y-124480601D02*
X111938543Y-126517391D01*
X111938543Y-126517391D02*
X104173326Y-126517391D01*
X104071717Y-126619000D02*
X102235000Y-126619000D01*
X101346000Y-124078996D02*
X101934997Y-123489999D01*
X120248390Y-117348000D02*
X116507536Y-117348000D01*
X115745536Y-118110000D02*
X114808000Y-118110000D01*
X103738764Y-124956979D02*
X103314500Y-124956979D01*
X113509045Y-118814965D02*
X111826411Y-120497599D01*
X106147098Y-124956979D02*
X103738764Y-124956979D01*
X116507536Y-117348000D02*
X115745536Y-118110000D01*
X121137390Y-116459000D02*
X120248390Y-117348000D01*
X114808000Y-118110000D02*
X114103035Y-118814965D01*
X114103035Y-118814965D02*
X113509045Y-118814965D01*
X111826411Y-120497599D02*
X110606478Y-120497599D01*
X110606478Y-120497599D02*
X106147098Y-124956979D01*
X102533031Y-123947217D02*
X102233032Y-124247216D01*
X103633172Y-123067798D02*
X103631728Y-123066354D01*
X109855000Y-118110000D02*
X104897202Y-123067798D01*
X104897202Y-123067798D02*
X103633172Y-123067798D01*
X113792000Y-118110000D02*
X109855000Y-118110000D01*
X115697000Y-116205000D02*
X113792000Y-118110000D01*
X103124268Y-123066354D02*
X102533031Y-123657591D01*
X117533702Y-117025702D02*
X116713000Y-116205000D01*
X102533031Y-123657591D02*
X102533031Y-123947217D01*
X120269000Y-116459000D02*
X119702298Y-117025702D01*
X119702298Y-117025702D02*
X117533702Y-117025702D01*
X103631728Y-123066354D02*
X103124268Y-123066354D01*
X116713000Y-116205000D02*
X115697000Y-116205000D01*
X106275044Y-123594956D02*
X103802262Y-123594956D01*
X103802262Y-123594956D02*
X103377998Y-123594956D01*
X110109000Y-119761000D02*
X106275044Y-123594956D01*
X122047000Y-117221000D02*
X121158000Y-118110000D01*
X113502397Y-126132171D02*
X113802396Y-125832172D01*
X113792000Y-123698000D02*
X114472999Y-123017001D01*
X111955359Y-126069509D02*
X113792000Y-124232868D01*
X113792000Y-124232868D02*
X113792000Y-123698000D01*
X120477001Y-123017001D02*
X120777000Y-123317000D01*
X112652861Y-106045000D02*
X120904000Y-106045000D01*
X111723125Y-122128462D02*
X111723125Y-125116644D01*
X114979587Y-118872000D02*
X111723125Y-122128462D01*
X114427000Y-123901193D02*
X114925404Y-123402789D01*
X113492001Y-127189382D02*
X113792000Y-126889383D01*
X111723125Y-125116644D02*
X111723125Y-125540908D01*
X110363000Y-137668000D02*
X110662999Y-137368001D01*
X109629798Y-141703202D02*
X110998000Y-140335000D01*
X105740200Y-142214600D02*
X106251598Y-141703202D01*
X116932120Y-118110000D02*
X116170120Y-118872000D01*
X116629260Y-123931390D02*
X116204996Y-123931390D01*
X110998000Y-140335000D02*
X110998000Y-131191000D01*
X114472999Y-123017001D02*
X120477001Y-123017001D01*
X108829411Y-125485589D02*
X109413331Y-126069509D01*
X120904000Y-106045000D02*
X122047000Y-107188000D01*
X112649000Y-128032383D02*
X113492001Y-127189382D01*
X110662999Y-131018001D02*
X112268000Y-129413000D01*
X112268000Y-129413000D02*
X112268000Y-127366568D01*
X110998000Y-131191000D02*
X112649000Y-129540000D01*
X112649000Y-129540000D02*
X112649000Y-128032383D01*
X112000000Y-106697861D02*
X112652861Y-106045000D01*
X121158000Y-118110000D02*
X116932120Y-118110000D01*
X112268000Y-127366568D02*
X113502397Y-126132171D01*
X106251598Y-141703202D02*
X109629798Y-141703202D01*
X118999008Y-123952008D02*
X118491016Y-124460000D01*
X122047000Y-107188000D02*
X122047000Y-117221000D01*
X110662999Y-137368001D02*
X110662999Y-131018001D01*
X118491016Y-124460000D02*
X117411498Y-124460000D01*
X117411498Y-124460000D02*
X116882888Y-123931390D01*
X116882888Y-123931390D02*
X116629260Y-123931390D01*
X117581399Y-123402789D02*
X117810001Y-123631391D01*
X114925404Y-123402789D02*
X117581399Y-123402789D01*
X117810001Y-123631391D02*
X118110000Y-123931390D01*
X116170120Y-118872000D02*
X114979587Y-118872000D01*
X109413331Y-126069509D02*
X111955359Y-126069509D01*
X121137390Y-108945390D02*
X120777000Y-108585000D01*
X114726997Y-111587001D02*
X114726997Y-111334446D01*
X114426998Y-111887000D02*
X114726997Y-111587001D01*
X114853331Y-118567189D02*
X114300744Y-119119776D01*
X121137390Y-116459000D02*
X121137390Y-108945390D01*
X118241211Y-108585000D02*
X117775419Y-109050792D01*
X121666000Y-108839000D02*
X121666000Y-116967000D01*
X120777000Y-108585000D02*
X118241211Y-108585000D01*
X108829411Y-122705733D02*
X108829411Y-125485589D01*
X111952668Y-120802410D02*
X110732734Y-120802410D01*
X120777000Y-107950000D02*
X121666000Y-108839000D01*
X113000000Y-107345012D02*
X115285988Y-107345012D01*
X115874811Y-118567189D02*
X114853331Y-118567189D01*
X116713000Y-117729000D02*
X115874811Y-118567189D01*
X123525001Y-117429001D02*
X123825000Y-117729000D01*
X111302805Y-105740189D02*
X121107189Y-105740189D01*
X121107189Y-105740189D02*
X122428000Y-107061000D01*
X111000000Y-106042994D02*
X111302805Y-105740189D01*
X122428000Y-116332000D02*
X123525001Y-117429001D01*
X117775419Y-109050792D02*
X117475420Y-109350791D01*
X114300744Y-119119776D02*
X113635301Y-119119776D01*
X117162962Y-108898481D02*
X117462961Y-108598482D01*
X122428000Y-107061000D02*
X122428000Y-116332000D01*
X114726997Y-111334446D02*
X117162962Y-108898481D01*
X120904000Y-117729000D02*
X116713000Y-117729000D01*
X121666000Y-116967000D02*
X120904000Y-117729000D01*
X119888000Y-107950000D02*
X120777000Y-107950000D01*
X113635301Y-119119776D02*
X111952668Y-120802410D01*
X116205000Y-106426000D02*
X118364000Y-106426000D01*
X110732734Y-120802410D02*
X108829411Y-122705733D01*
X118364000Y-106426000D02*
X119888000Y-107950000D01*
X115285988Y-107345012D02*
X116205000Y-106426000D01*
X132593589Y-130960746D02*
X132567399Y-130986936D01*
X132567399Y-131805393D02*
X132796007Y-132034001D01*
X132567399Y-130986936D02*
X132567399Y-131805393D01*
X132796007Y-132034001D02*
X133096006Y-132334000D01*
X133096000Y-131046136D02*
X133096000Y-131470400D01*
X128524000Y-124968000D02*
X133096000Y-129540000D01*
X133096000Y-129540000D02*
X133096000Y-131046136D01*
X130556020Y-132968994D02*
X130556000Y-132968974D01*
X124373499Y-125273499D02*
X124073500Y-124973500D01*
X130556000Y-132968974D02*
X130556000Y-131456000D01*
X130556000Y-131456000D02*
X124373499Y-125273499D01*
D16*
X129000000Y-159000000D02*
X129000000Y-157004000D01*
X129000000Y-157004000D02*
X130784599Y-155219401D01*
X130784599Y-155219401D02*
X130784599Y-155211864D01*
X130784599Y-155211864D02*
X130784599Y-154787600D01*
X129000000Y-146170000D02*
X129000000Y-148836000D01*
X129000000Y-148836000D02*
X130794000Y-150630000D01*
X130794000Y-150630000D02*
X130794000Y-154778199D01*
X130794000Y-154778199D02*
X130784599Y-154787600D01*
D15*
X105740200Y-148132800D02*
X105740200Y-148463000D01*
X107086400Y-143925592D02*
X107086400Y-148463000D01*
X108882264Y-149834600D02*
X108458000Y-149834600D01*
X118515000Y-150699600D02*
X117650000Y-149834600D01*
X117650000Y-149834600D02*
X108882264Y-149834600D01*
X112793400Y-151426800D02*
X111937800Y-150571200D01*
X117356000Y-151426800D02*
X112793400Y-151426800D01*
X113919000Y-148920200D02*
X116332000Y-146507200D01*
X111480600Y-148920200D02*
X113919000Y-148920200D01*
X109533992Y-142299992D02*
X110337600Y-143103600D01*
X115620800Y-143103600D02*
X117475000Y-144957800D01*
X117475000Y-144957800D02*
X117475000Y-148386800D01*
X110337600Y-143103600D02*
X115620800Y-143103600D01*
X109474000Y-142299992D02*
X109533992Y-142299992D01*
X117475000Y-148386800D02*
X120523000Y-151434800D01*
X118516400Y-140995400D02*
X118516400Y-146590938D01*
X116332000Y-138811000D02*
X118516400Y-140995400D01*
X118516400Y-146590938D02*
X118516400Y-147015202D01*
X119515000Y-151426800D02*
X117356000Y-151426800D01*
X108712000Y-142299992D02*
X107086400Y-143925592D01*
X104475008Y-141675000D02*
X105200600Y-141675000D01*
X105740200Y-142214600D02*
X105740200Y-142316200D01*
X105200600Y-141675000D02*
X105740200Y-142214600D01*
X105740200Y-148132800D02*
X105740200Y-142214600D01*
D16*
X129000000Y-146170000D02*
X129000000Y-146272000D01*
D15*
X129625357Y-132586379D02*
X129625357Y-133010643D01*
X109061000Y-159081000D02*
X109061000Y-158954000D01*
X112871000Y-157049000D02*
X112871000Y-158954000D01*
X110950000Y-158950000D02*
X112867000Y-158950000D01*
X112867000Y-158950000D02*
X112871000Y-158954000D01*
X132596790Y-130957545D02*
X132593589Y-130960746D01*
X129625357Y-131403357D02*
X129625357Y-132586379D01*
X129286000Y-131064000D02*
X129625357Y-131403357D01*
X109061000Y-159081000D02*
X109061000Y-160986000D01*
X109065000Y-158950000D02*
X109061000Y-158954000D01*
X110950000Y-158950000D02*
X109065000Y-158950000D01*
X112871000Y-158954000D02*
X112871000Y-160986000D01*
X112871000Y-157049000D02*
X112363000Y-156541000D01*
X112490000Y-161367000D02*
X112871000Y-160986000D01*
X109061000Y-160986000D02*
X109442000Y-161367000D01*
X110950000Y-156557000D02*
X110950000Y-158950000D01*
X112363000Y-156541000D02*
X110966000Y-156541000D01*
X110966000Y-156541000D02*
X110950000Y-156557000D01*
X110950000Y-161351000D02*
X110950000Y-158950000D01*
X110966000Y-161367000D02*
X110950000Y-161351000D01*
X109442000Y-161367000D02*
X110966000Y-161367000D01*
X110966000Y-161367000D02*
X112490000Y-161367000D01*
X105599998Y-140999998D02*
X108939174Y-140999998D01*
X104500000Y-139900000D02*
X105599998Y-140999998D01*
X108939174Y-140999998D02*
X109363438Y-140999998D01*
X110966000Y-156541000D02*
X109569000Y-156541000D01*
X109061000Y-157049000D02*
X109061000Y-159081000D01*
X109569000Y-156541000D02*
X109061000Y-157049000D01*
X117221016Y-120777016D02*
X117221000Y-120777000D01*
X120269000Y-120777016D02*
X117221016Y-120777016D01*
D16*
X110998000Y-107442000D02*
X110998000Y-115830000D01*
X110100000Y-106544000D02*
X110998000Y-107442000D01*
X110862000Y-104775000D02*
X110100000Y-105537000D01*
X124079000Y-107569000D02*
X121285000Y-104775000D01*
X110100000Y-105537000D02*
X110100000Y-106544000D01*
X121285000Y-104775000D02*
X110862000Y-104775000D01*
X129000000Y-115830000D02*
X127990000Y-116840000D01*
X124079000Y-115697000D02*
X124079000Y-107569000D01*
X125222000Y-116840000D02*
X124079000Y-115697000D01*
X127990000Y-116840000D02*
X125222000Y-116840000D01*
D15*
X120733736Y-136398000D02*
X121158000Y-136398000D01*
X115443000Y-138811000D02*
X117856000Y-136398000D01*
X117856000Y-136398000D02*
X120733736Y-136398000D01*
X120523000Y-132842000D02*
X120523000Y-131191000D01*
X115824000Y-133731000D02*
X117221000Y-132334000D01*
X117221000Y-132334000D02*
X117221000Y-126662264D01*
X117221000Y-126662264D02*
X117221000Y-126238000D01*
X109541008Y-142299992D02*
X109136264Y-142299992D01*
X111379000Y-140462000D02*
X109541008Y-142299992D01*
X111379000Y-131318000D02*
X111379000Y-140462000D01*
X109136264Y-142299992D02*
X108712000Y-142299992D01*
X113030000Y-129667000D02*
X111379000Y-131318000D01*
X113030000Y-128556010D02*
X113030000Y-129667000D01*
X114443005Y-127143005D02*
X113030000Y-128556010D01*
X114443005Y-126324986D02*
X114443005Y-127143005D01*
X115443000Y-125493246D02*
X115316004Y-125366250D01*
X113792000Y-128905000D02*
X115443000Y-127254000D01*
X113792000Y-129921000D02*
X113792000Y-128905000D01*
X112649000Y-131064000D02*
X113792000Y-129921000D01*
X115443000Y-127254000D02*
X115443000Y-125493246D01*
X112649000Y-132842000D02*
X112649000Y-131064000D01*
X132593589Y-129926601D02*
X127934987Y-125267999D01*
X132593589Y-130960746D02*
X132593589Y-129926601D01*
X127934987Y-125267999D02*
X127634988Y-124968000D01*
X122809000Y-131191000D02*
X122809000Y-132842000D01*
X110408999Y-119461001D02*
X110109000Y-119761000D01*
X116271390Y-116849832D02*
X115560168Y-116849832D01*
X111379000Y-118491000D02*
X110408999Y-119461001D01*
X113919000Y-118491000D02*
X111379000Y-118491000D01*
X115560168Y-116849832D02*
X113919000Y-118491000D01*
X120352736Y-125476000D02*
X120777000Y-125476000D01*
X116586000Y-125476000D02*
X120352736Y-125476000D01*
X116205000Y-125857000D02*
X116586000Y-125476000D01*
X123825000Y-121031000D02*
X123825000Y-119507000D01*
X121666000Y-123190000D02*
X123825000Y-121031000D01*
X115824000Y-132842000D02*
X115824000Y-131191000D01*
X115824000Y-131191000D02*
X114681001Y-130048001D01*
X114681001Y-130048001D02*
X114426999Y-130048001D01*
X119968997Y-125140999D02*
X116250999Y-125140999D01*
X120268996Y-124841000D02*
X119968997Y-125140999D01*
X116250999Y-125140999D02*
X116205000Y-125095000D01*
X116808967Y-108458000D02*
X117475008Y-107791959D01*
X116808967Y-108616033D02*
X116808967Y-108458000D01*
X112903143Y-112521857D02*
X116808967Y-108616033D01*
X112903143Y-112885711D02*
X112903143Y-112521857D01*
X110444001Y-129458999D02*
X110744000Y-129159000D01*
X107061000Y-132842000D02*
X110444001Y-129458999D01*
X108966000Y-137922000D02*
X108966000Y-135509000D01*
X107061000Y-133604000D02*
X107061000Y-132842000D01*
X108966000Y-135509000D02*
X107061000Y-133604000D01*
X108712000Y-138176000D02*
X108966000Y-137922000D01*
X121412000Y-123190000D02*
X121666000Y-123190000D01*
X114129736Y-122682000D02*
X120904000Y-122682000D01*
X120904000Y-122682000D02*
X121412000Y-123190000D01*
X113411000Y-123825000D02*
X113411000Y-123400736D01*
X113411000Y-123400736D02*
X114129736Y-122682000D01*
X112522000Y-124714000D02*
X113411000Y-123825000D01*
X121666000Y-128754000D02*
X115800000Y-134620000D01*
X121412000Y-124333000D02*
X121666000Y-124587000D01*
X121666000Y-124587000D02*
X121666000Y-128754000D01*
X121412000Y-123190000D02*
X121412000Y-124333000D01*
X112014000Y-133560736D02*
X112014000Y-133985000D01*
X112014000Y-131198072D02*
X112014000Y-133560736D01*
X113411000Y-128778000D02*
X113411000Y-129801072D01*
X113411000Y-129801072D02*
X112014000Y-131198072D01*
X115062000Y-125984002D02*
X115062000Y-127127000D01*
X115062000Y-127127000D02*
X113411000Y-128778000D01*
X114426999Y-125349001D02*
X115062000Y-125984002D01*
X125857000Y-120142000D02*
X124460000Y-118745000D01*
X130486010Y-142945000D02*
X131622800Y-141808210D01*
X131622800Y-141808210D02*
X131622800Y-130733800D01*
X131622800Y-130733800D02*
X125857000Y-124968000D01*
X124460000Y-118745000D02*
X118407260Y-118745000D01*
X125857000Y-124968000D02*
X125857000Y-120142000D01*
X118407260Y-118745000D02*
X117982996Y-118745000D01*
X120523000Y-109220000D02*
X120523000Y-116205000D01*
X120523000Y-116205000D02*
X120269000Y-116459000D01*
X116840000Y-115697000D02*
X117602000Y-116459000D01*
X116078000Y-115697000D02*
X116840000Y-115697000D01*
X113266711Y-112885711D02*
X116078000Y-115697000D01*
X117602000Y-116459000D02*
X119380000Y-116459000D01*
X112903143Y-112885711D02*
X113266711Y-112885711D01*
D16*
X129000000Y-103810000D02*
X129000000Y-103000000D01*
X129000000Y-112935000D02*
X130670000Y-111265000D01*
X130670000Y-111265000D02*
X130670000Y-105480000D01*
X129000000Y-115830000D02*
X129000000Y-112935000D01*
X130670000Y-105480000D02*
X129000000Y-103810000D01*
D15*
X133350000Y-105283000D02*
X133350000Y-119761000D01*
X133350000Y-119761000D02*
X132334000Y-120777000D01*
X133604000Y-105029000D02*
X133350000Y-105283000D01*
X125902995Y-115143001D02*
X125602996Y-115443000D01*
X125902995Y-108249995D02*
X125902995Y-115143001D01*
X121031000Y-103378000D02*
X125902995Y-108249995D01*
X118745000Y-103378000D02*
X121031000Y-103378000D01*
G36*
X129349239Y-165877480D02*
G01*
X129348582Y-165875203D01*
X129348071Y-165872881D01*
X129347711Y-165872186D01*
X129176714Y-165279880D01*
X129176648Y-165279099D01*
X129175842Y-165276860D01*
X129175185Y-165274585D01*
X129174782Y-165273917D01*
X129063584Y-164965107D01*
X131167496Y-164965107D01*
X131182377Y-165201625D01*
X131238906Y-165431769D01*
X131335296Y-165648266D01*
X131514615Y-165912129D01*
X132426744Y-165000000D01*
X132573256Y-165000000D01*
X133474883Y-165901627D01*
X133540284Y-165833423D01*
X133671429Y-165636034D01*
X133765547Y-165418540D01*
X133819890Y-165186849D01*
X133827860Y-164882485D01*
X133785717Y-164648268D01*
X133703111Y-164426146D01*
X133582475Y-164222162D01*
X133475280Y-164097976D01*
X132573256Y-165000000D01*
X132426744Y-165000000D01*
X131520807Y-164094064D01*
X131370819Y-164291666D01*
X131263230Y-164502822D01*
X131194735Y-164729693D01*
X131167496Y-164965107D01*
X129063584Y-164965107D01*
X128965918Y-164693878D01*
X128965803Y-164693105D01*
X128964857Y-164690929D01*
X128964049Y-164688686D01*
X128963601Y-164688042D01*
X128717743Y-164122695D01*
X128717577Y-164121930D01*
X128716491Y-164119816D01*
X128715545Y-164117642D01*
X128715059Y-164117031D01*
X128667894Y-164025269D01*
X131598525Y-164025269D01*
X132500000Y-164926744D01*
X133403508Y-164023236D01*
X133243452Y-163893626D01*
X133035781Y-163779457D01*
X132811174Y-163703869D01*
X132576731Y-163669249D01*
X132339862Y-163676693D01*
X132108055Y-163725966D01*
X131888639Y-163815508D01*
X131688545Y-163942491D01*
X131598525Y-164025269D01*
X128667894Y-164025269D01*
X128433226Y-163568716D01*
X128433013Y-163567970D01*
X128431803Y-163565949D01*
X128430709Y-163563820D01*
X128430179Y-163563236D01*
X128113556Y-163034267D01*
X128113293Y-163033527D01*
X128111939Y-163031564D01*
X128110726Y-163029538D01*
X128110167Y-163028996D01*
X127760061Y-162521550D01*
X127759751Y-162520830D01*
X127758276Y-162518963D01*
X127756933Y-162517016D01*
X127756340Y-162516511D01*
X127374214Y-162032714D01*
X127373859Y-162032017D01*
X127372270Y-162030253D01*
X127370799Y-162028390D01*
X127370172Y-162027923D01*
X126957631Y-161569802D01*
X126957231Y-161569128D01*
X126955528Y-161567466D01*
X126953941Y-161565704D01*
X126953286Y-161565279D01*
X126512039Y-161134732D01*
X126511597Y-161134087D01*
X126509794Y-161132542D01*
X126508095Y-161130884D01*
X126507413Y-161130501D01*
X126039301Y-160729325D01*
X126038821Y-160728713D01*
X126036932Y-160727295D01*
X126035113Y-160725736D01*
X126034402Y-160725395D01*
X125541383Y-160355269D01*
X125540861Y-160354686D01*
X125538874Y-160353386D01*
X125536980Y-160351964D01*
X125536256Y-160351673D01*
X125020366Y-160014126D01*
X125019812Y-160013582D01*
X125017759Y-160012421D01*
X125015759Y-160011112D01*
X125015011Y-160010866D01*
X124478425Y-159707318D01*
X124477835Y-159706809D01*
X124475704Y-159705779D01*
X124473627Y-159704604D01*
X124472866Y-159704407D01*
X123917813Y-159436123D01*
X123917189Y-159435651D01*
X123914988Y-159434757D01*
X123912850Y-159433724D01*
X123912082Y-159433577D01*
X123340870Y-159201670D01*
X123340214Y-159201238D01*
X123337951Y-159200485D01*
X123335758Y-159199595D01*
X123334985Y-159199499D01*
X122749994Y-159004935D01*
X122749314Y-159004547D01*
X122747015Y-159003944D01*
X122744763Y-159003195D01*
X122743983Y-159003149D01*
X122147658Y-158846743D01*
X122146956Y-158846400D01*
X122144625Y-158845947D01*
X122142322Y-158845343D01*
X122141538Y-158845347D01*
X121536365Y-158727749D01*
X121535640Y-158727452D01*
X121533280Y-158727150D01*
X121530955Y-158726698D01*
X121530176Y-158726752D01*
X120918672Y-158648452D01*
X120917928Y-158648202D01*
X120915550Y-158648053D01*
X120913203Y-158647752D01*
X120912431Y-158647856D01*
X120297150Y-158609181D01*
X120296390Y-158608979D01*
X120294002Y-158608983D01*
X120291643Y-158608835D01*
X120290880Y-158608989D01*
X119674382Y-158610100D01*
X119673614Y-158609948D01*
X119671241Y-158610106D01*
X119668869Y-158610110D01*
X119668115Y-158610314D01*
X119052972Y-158651206D01*
X119052197Y-158651104D01*
X119049846Y-158651414D01*
X119047479Y-158651571D01*
X119046739Y-158651823D01*
X118435515Y-158732328D01*
X118434734Y-158732276D01*
X118432404Y-158732737D01*
X118430054Y-158733047D01*
X118429333Y-158733346D01*
X117824585Y-158853125D01*
X117823800Y-158853124D01*
X117821497Y-158853737D01*
X117819174Y-158854197D01*
X117818474Y-158854541D01*
X117222708Y-159013099D01*
X117221930Y-159013148D01*
X117219689Y-159013902D01*
X117217387Y-159014515D01*
X117216707Y-159014906D01*
X116632424Y-159211575D01*
X116631648Y-159211675D01*
X116629450Y-159212577D01*
X116627197Y-159213335D01*
X116626545Y-159213768D01*
X116056172Y-159447732D01*
X116055405Y-159447881D01*
X116053271Y-159448922D01*
X116051072Y-159449824D01*
X116050449Y-159450298D01*
X115496360Y-159720585D01*
X115495603Y-159720784D01*
X115493539Y-159721962D01*
X115491410Y-159723000D01*
X115490821Y-159723512D01*
X114955327Y-160028992D01*
X114954586Y-160029238D01*
X114952606Y-160030544D01*
X114950537Y-160031724D01*
X114949979Y-160032276D01*
X114435321Y-160371673D01*
X114434597Y-160371967D01*
X114432706Y-160373397D01*
X114430720Y-160374707D01*
X114430200Y-160375293D01*
X113938518Y-160747193D01*
X113937810Y-160747535D01*
X113936003Y-160749095D01*
X113934115Y-160750523D01*
X113933636Y-160751138D01*
X113466975Y-161153996D01*
X113466294Y-161154381D01*
X113464600Y-161156045D01*
X113462802Y-161157598D01*
X113462362Y-161158245D01*
X113022674Y-161590375D01*
X113022018Y-161590804D01*
X113020431Y-161592579D01*
X113018736Y-161594245D01*
X113018339Y-161594919D01*
X112607460Y-162054515D01*
X112606830Y-162054988D01*
X112605352Y-162056873D01*
X112603776Y-162058636D01*
X112603425Y-162059331D01*
X112223055Y-162544494D01*
X112222460Y-162545004D01*
X112221115Y-162546968D01*
X112219654Y-162548832D01*
X112219348Y-162549550D01*
X111871075Y-163058250D01*
X111870514Y-163058798D01*
X111869298Y-163060845D01*
X111867961Y-163062799D01*
X111867702Y-163063535D01*
X111552982Y-163593650D01*
X111552460Y-163594230D01*
X111551384Y-163596342D01*
X111550167Y-163598392D01*
X111549955Y-163599148D01*
X111270105Y-164148462D01*
X111269621Y-164149074D01*
X111268684Y-164151251D01*
X111267601Y-164153376D01*
X111267438Y-164154144D01*
X111023618Y-164720373D01*
X111023174Y-164721017D01*
X111022377Y-164723256D01*
X111021439Y-164725434D01*
X111021326Y-164726207D01*
X110814555Y-165306994D01*
X110814153Y-165307666D01*
X110813501Y-165309954D01*
X110812705Y-165312191D01*
X110812642Y-165312970D01*
X110643781Y-165905887D01*
X110643423Y-165906583D01*
X110642921Y-165908906D01*
X110642271Y-165911188D01*
X110642259Y-165911969D01*
X110512012Y-166514553D01*
X110511700Y-166515270D01*
X110511349Y-166517616D01*
X110510847Y-166519941D01*
X110510885Y-166520723D01*
X110419797Y-167130453D01*
X110419532Y-167131189D01*
X110419333Y-167133555D01*
X110418983Y-167135901D01*
X110419071Y-167136677D01*
X110385344Y-167538588D01*
X107533475Y-167539391D01*
X107517010Y-167534435D01*
X106869139Y-167514640D01*
X106240614Y-167456888D01*
X105616795Y-167360873D01*
X104999983Y-167226949D01*
X104392531Y-167055630D01*
X103796660Y-166847542D01*
X103214593Y-166603461D01*
X102648526Y-166324308D01*
X102100538Y-166011107D01*
X102057029Y-165982581D01*
X106540675Y-165982581D01*
X106777485Y-166150872D01*
X106991915Y-166251776D01*
X107220825Y-166313113D01*
X107456979Y-166332943D01*
X107692913Y-166310641D01*
X107921168Y-166246910D01*
X108134531Y-166143767D01*
X108358086Y-165981342D01*
X107450000Y-165073256D01*
X106540675Y-165982581D01*
X102057029Y-165982581D01*
X101572698Y-165665040D01*
X101066994Y-165287412D01*
X100686273Y-164965107D01*
X106117496Y-164965107D01*
X106132377Y-165201625D01*
X106188906Y-165431769D01*
X106285296Y-165648266D01*
X106464615Y-165912129D01*
X107376744Y-165000000D01*
X107523256Y-165000000D01*
X108424883Y-165901627D01*
X108490284Y-165833423D01*
X108621429Y-165636034D01*
X108715547Y-165418540D01*
X108769890Y-165186849D01*
X108777860Y-164882485D01*
X108735717Y-164648268D01*
X108653111Y-164426146D01*
X108532475Y-164222162D01*
X108425280Y-164097976D01*
X107523256Y-165000000D01*
X107376744Y-165000000D01*
X106470807Y-164094064D01*
X106320819Y-164291666D01*
X106213230Y-164502822D01*
X106144735Y-164729693D01*
X106117496Y-164965107D01*
X100686273Y-164965107D01*
X100585260Y-164879594D01*
X100129319Y-164443125D01*
X99743058Y-164025269D01*
X106548525Y-164025269D01*
X107450000Y-164926744D01*
X108353508Y-164023236D01*
X108193452Y-163893626D01*
X107985781Y-163779457D01*
X107761174Y-163703869D01*
X107526731Y-163669249D01*
X107289862Y-163676693D01*
X107058055Y-163725966D01*
X106838639Y-163815508D01*
X106638545Y-163942491D01*
X106548525Y-164025269D01*
X99743058Y-164025269D01*
X99700886Y-163979648D01*
X99301557Y-163490893D01*
X98932799Y-162978657D01*
X98595985Y-162444836D01*
X98292412Y-161891496D01*
X98023179Y-161320641D01*
X97789298Y-160734413D01*
X97591641Y-160134997D01*
X97430940Y-159524614D01*
X97336892Y-159051800D01*
X109599414Y-159051800D01*
X109599414Y-160987406D01*
X109615605Y-161068806D01*
X109665910Y-161144090D01*
X109741194Y-161194395D01*
X109822594Y-161210586D01*
X110948200Y-161210586D01*
X110948200Y-159051800D01*
X111051800Y-159051800D01*
X111051800Y-161210586D01*
X112177406Y-161210586D01*
X112258806Y-161194395D01*
X112334090Y-161144090D01*
X112384395Y-161068806D01*
X112400586Y-160987406D01*
X112400586Y-159051800D01*
X111051800Y-159051800D01*
X110948200Y-159051800D01*
X109599414Y-159051800D01*
X97336892Y-159051800D01*
X97307809Y-158905593D01*
X97290398Y-158777660D01*
X97273957Y-157012594D01*
X109599414Y-157012594D01*
X109599414Y-158948200D01*
X110948200Y-158948200D01*
X110948200Y-156789414D01*
X111051800Y-156789414D01*
X111051800Y-158948200D01*
X112400586Y-158948200D01*
X112400586Y-157012594D01*
X112384395Y-156931194D01*
X112334090Y-156855910D01*
X112258806Y-156805605D01*
X112177406Y-156789414D01*
X111051800Y-156789414D01*
X110948200Y-156789414D01*
X109822594Y-156789414D01*
X109741194Y-156805605D01*
X109665910Y-156855910D01*
X109615605Y-156931194D01*
X109599414Y-157012594D01*
X97273957Y-157012594D01*
X97262646Y-155798379D01*
X97266653Y-155761803D01*
X97373543Y-155139744D01*
X97518206Y-154525380D01*
X97700104Y-153921002D01*
X97918562Y-153328843D01*
X98172760Y-152751133D01*
X98461759Y-152190011D01*
X98784461Y-151647596D01*
X99139687Y-151125876D01*
X99526110Y-150626806D01*
X99943483Y-150150883D01*
X100161224Y-149924141D01*
X100170003Y-149908200D01*
X100190153Y-149888128D01*
X100198910Y-149855703D01*
X100215114Y-149826277D01*
X100213932Y-149767831D01*
X100221542Y-145916443D01*
X103603311Y-145916443D01*
X103636933Y-146110088D01*
X103738014Y-146278648D01*
X103892997Y-146399517D01*
X104081102Y-146456488D01*
X104277105Y-146441922D01*
X104454724Y-146357773D01*
X104590138Y-146215323D01*
X104665363Y-146033268D01*
X104667900Y-145825602D01*
X104597146Y-145641762D01*
X104465252Y-145496046D01*
X104289743Y-145407582D01*
X104094154Y-145388232D01*
X103904714Y-145440592D01*
X103746823Y-145557637D01*
X103641654Y-145723676D01*
X103603311Y-145916443D01*
X100221542Y-145916443D01*
X100227540Y-142881203D01*
X100235621Y-142852070D01*
X100227657Y-142821270D01*
X100227659Y-142820483D01*
X100220184Y-142792366D01*
X100207655Y-142743906D01*
X99745627Y-141927166D01*
X99323428Y-141105541D01*
X98934519Y-140267583D01*
X98579573Y-139414743D01*
X98259134Y-138548332D01*
X97973716Y-137669736D01*
X97723793Y-136780414D01*
X97509759Y-135881763D01*
X97331961Y-134975252D01*
X97190692Y-134062369D01*
X97086844Y-133150439D01*
X102013311Y-133150439D01*
X102046933Y-133344084D01*
X102148014Y-133512644D01*
X102302997Y-133633513D01*
X102491102Y-133690484D01*
X102687105Y-133675918D01*
X102864724Y-133591769D01*
X103000138Y-133449319D01*
X103075363Y-133267264D01*
X103077900Y-133059598D01*
X103007146Y-132875758D01*
X102875252Y-132730042D01*
X102699743Y-132641578D01*
X102504154Y-132622228D01*
X102314714Y-132674588D01*
X102156823Y-132791633D01*
X102051654Y-132957672D01*
X102013311Y-133150439D01*
X97086844Y-133150439D01*
X97086167Y-133144495D01*
X97046612Y-132605429D01*
X97020680Y-129821503D01*
X97038058Y-129453440D01*
X97118623Y-128533182D01*
X97236057Y-127616882D01*
X97390166Y-126706052D01*
X97534073Y-126023352D01*
X100661200Y-126023352D01*
X100661201Y-126023356D01*
X100661201Y-126065403D01*
X100681904Y-126101261D01*
X100692620Y-126141257D01*
X100815519Y-126264157D01*
X100815521Y-126264157D01*
X101646680Y-127095317D01*
X101747553Y-127196191D01*
X101787549Y-127206907D01*
X101823407Y-127227610D01*
X101865454Y-127227610D01*
X101865458Y-127227611D01*
X103505955Y-127227611D01*
X103405070Y-127386886D01*
X103366727Y-127579653D01*
X103400349Y-127773298D01*
X103501430Y-127941858D01*
X103656413Y-128062727D01*
X103844518Y-128119698D01*
X104040521Y-128105132D01*
X104218140Y-128020983D01*
X104353554Y-127878533D01*
X104428779Y-127696478D01*
X104431316Y-127488812D01*
X104360562Y-127304972D01*
X104286707Y-127223377D01*
X104315231Y-127206909D01*
X104355231Y-127196190D01*
X104369822Y-127181599D01*
X111150797Y-127181599D01*
X111134654Y-127207085D01*
X111096311Y-127399852D01*
X111129933Y-127593497D01*
X111231014Y-127762057D01*
X111385997Y-127882926D01*
X111574102Y-127939897D01*
X111770105Y-127925331D01*
X111947724Y-127841182D01*
X111964201Y-127823849D01*
X111964200Y-129287163D01*
X111271543Y-129979821D01*
X111271900Y-129950602D01*
X111201146Y-129766762D01*
X111069252Y-129621046D01*
X111036259Y-129604416D01*
X111058724Y-129593773D01*
X111194138Y-129451323D01*
X111269363Y-129269268D01*
X111271900Y-129061602D01*
X111201146Y-128877762D01*
X111069252Y-128732046D01*
X110893743Y-128643582D01*
X110698154Y-128624232D01*
X110508714Y-128676592D01*
X110350823Y-128793637D01*
X110245654Y-128959676D01*
X110207311Y-129152442D01*
X110224118Y-129249244D01*
X106889495Y-132583869D01*
X106788621Y-132684742D01*
X106777904Y-132724738D01*
X106757201Y-132760597D01*
X106757201Y-132811905D01*
X106757200Y-133643352D01*
X106757201Y-133643356D01*
X106757201Y-133685403D01*
X106777904Y-133721261D01*
X106788620Y-133761257D01*
X106911519Y-133884157D01*
X106911521Y-133884157D01*
X108662201Y-135634839D01*
X108662200Y-137642325D01*
X108476714Y-137693592D01*
X108318823Y-137810637D01*
X108213654Y-137976676D01*
X108175311Y-138169443D01*
X108208933Y-138363088D01*
X108310014Y-138531648D01*
X108464997Y-138652517D01*
X108653102Y-138709488D01*
X108849105Y-138694922D01*
X109026724Y-138610773D01*
X109043200Y-138593441D01*
X109043200Y-139649381D01*
X108953823Y-139715637D01*
X108848654Y-139881676D01*
X108810311Y-140074443D01*
X108843933Y-140268088D01*
X108945014Y-140436648D01*
X109087470Y-140547748D01*
X108970261Y-140634635D01*
X108931267Y-140696198D01*
X105725835Y-140696198D01*
X105025539Y-139995902D01*
X105027900Y-139802602D01*
X104957146Y-139618762D01*
X104825252Y-139473046D01*
X104649743Y-139384582D01*
X104454154Y-139365232D01*
X104264714Y-139417592D01*
X104106823Y-139534637D01*
X104001654Y-139700676D01*
X103963311Y-139893443D01*
X103996933Y-140087088D01*
X104098014Y-140255648D01*
X104252997Y-140376517D01*
X104441102Y-140433488D01*
X104592593Y-140422230D01*
X105442740Y-141272378D01*
X105482736Y-141283094D01*
X105518594Y-141303797D01*
X105560641Y-141303797D01*
X105560645Y-141303798D01*
X108930360Y-141303798D01*
X108961452Y-141355646D01*
X109017558Y-141399402D01*
X106212245Y-141399402D01*
X106212241Y-141399403D01*
X106170194Y-141399403D01*
X106134336Y-141420106D01*
X106094340Y-141430822D01*
X105740200Y-141784963D01*
X105480757Y-141525520D01*
X105480757Y-141525519D01*
X105357858Y-141402621D01*
X105317858Y-141391902D01*
X105282003Y-141371201D01*
X105239957Y-141371201D01*
X105239953Y-141371200D01*
X104911733Y-141371200D01*
X104800260Y-141248046D01*
X104624751Y-141159582D01*
X104429162Y-141140232D01*
X104239722Y-141192592D01*
X104081831Y-141309637D01*
X103976662Y-141475676D01*
X103938319Y-141668443D01*
X103971941Y-141862088D01*
X104073022Y-142030648D01*
X104228005Y-142151517D01*
X104416110Y-142208488D01*
X104612113Y-142193922D01*
X104789732Y-142109773D01*
X104914236Y-141978800D01*
X105074764Y-141978800D01*
X105436400Y-142340437D01*
X105436400Y-142355553D01*
X105436401Y-142355557D01*
X105436400Y-148031381D01*
X105347023Y-148097637D01*
X105241854Y-148263676D01*
X105203511Y-148456443D01*
X105237133Y-148650088D01*
X105338214Y-148818648D01*
X105493197Y-148939517D01*
X105681302Y-148996488D01*
X105877305Y-148981922D01*
X106054924Y-148897773D01*
X106190338Y-148755323D01*
X106265563Y-148573268D01*
X106268100Y-148365602D01*
X106197346Y-148181762D01*
X106065452Y-148036046D01*
X106044000Y-148025233D01*
X106044000Y-142340437D01*
X106377436Y-142007002D01*
X108272982Y-142007002D01*
X108213654Y-142100668D01*
X108175311Y-142293434D01*
X108192119Y-142390236D01*
X106936921Y-143645435D01*
X106936919Y-143645435D01*
X106814020Y-143768335D01*
X106803304Y-143808331D01*
X106782601Y-143844189D01*
X106782601Y-143886236D01*
X106782600Y-143886240D01*
X106782601Y-148031381D01*
X106693223Y-148097638D01*
X106588054Y-148263676D01*
X106549711Y-148456443D01*
X106583333Y-148650088D01*
X106684414Y-148818648D01*
X106839397Y-148939517D01*
X107027502Y-148996488D01*
X107223505Y-148981922D01*
X107367626Y-148913643D01*
X110943911Y-148913643D01*
X110977533Y-149107288D01*
X111078614Y-149275848D01*
X111233597Y-149396717D01*
X111421702Y-149453688D01*
X111617705Y-149439122D01*
X111795324Y-149354973D01*
X111919828Y-149224000D01*
X113958353Y-149224000D01*
X113958357Y-149223999D01*
X114000403Y-149223999D01*
X114036258Y-149203298D01*
X114076258Y-149192579D01*
X114199157Y-149069681D01*
X114199157Y-149069679D01*
X116238599Y-147030238D01*
X116273102Y-147040688D01*
X116469105Y-147026122D01*
X116646724Y-146941973D01*
X116782138Y-146799523D01*
X116857363Y-146617468D01*
X116859900Y-146409802D01*
X116789146Y-146225962D01*
X116657252Y-146080246D01*
X116481743Y-145991782D01*
X116286154Y-145972432D01*
X116096714Y-146024792D01*
X115938823Y-146141837D01*
X115833654Y-146307876D01*
X115795311Y-146500642D01*
X115812119Y-146597444D01*
X113793164Y-148616400D01*
X111917325Y-148616400D01*
X111805852Y-148493246D01*
X111630343Y-148404782D01*
X111434754Y-148385432D01*
X111245314Y-148437792D01*
X111087423Y-148554837D01*
X110982254Y-148720876D01*
X110943911Y-148913643D01*
X107367626Y-148913643D01*
X107401124Y-148897773D01*
X107536538Y-148755323D01*
X107611763Y-148573268D01*
X107614300Y-148365602D01*
X107543546Y-148181762D01*
X107521501Y-148157406D01*
X108229414Y-148157406D01*
X108245605Y-148238806D01*
X108295910Y-148314090D01*
X108371194Y-148364395D01*
X108452594Y-148380586D01*
X110948200Y-148380586D01*
X110948200Y-146221800D01*
X111051800Y-146221800D01*
X111051800Y-148380586D01*
X113547406Y-148380586D01*
X113628806Y-148364395D01*
X113704090Y-148314090D01*
X113754395Y-148238806D01*
X113770586Y-148157406D01*
X113770586Y-146978332D01*
X113875197Y-147059917D01*
X114063302Y-147116888D01*
X114259305Y-147102322D01*
X114436924Y-147018173D01*
X114572338Y-146875723D01*
X114647563Y-146693668D01*
X114650100Y-146486002D01*
X114579346Y-146302162D01*
X114447452Y-146156446D01*
X114271943Y-146067982D01*
X114076354Y-146048632D01*
X113886914Y-146100992D01*
X113729023Y-146218037D01*
X113726640Y-146221800D01*
X111051800Y-146221800D01*
X110948200Y-146221800D01*
X108229414Y-146221800D01*
X108229414Y-148157406D01*
X107521501Y-148157406D01*
X107411652Y-148036046D01*
X107390200Y-148025233D01*
X107390200Y-146221800D01*
X107390200Y-144182594D01*
X108229414Y-144182594D01*
X108229414Y-146118200D01*
X110948200Y-146118200D01*
X110948200Y-143959414D01*
X111051800Y-143959414D01*
X111051800Y-146118200D01*
X113770586Y-146118200D01*
X113770586Y-144182594D01*
X113754395Y-144101194D01*
X113704090Y-144025910D01*
X113628806Y-143975605D01*
X113547406Y-143959414D01*
X111051800Y-143959414D01*
X110948200Y-143959414D01*
X108452594Y-143959414D01*
X108371194Y-143975605D01*
X108295910Y-144025910D01*
X108245605Y-144101194D01*
X108229414Y-144182594D01*
X107390200Y-144182594D01*
X107390200Y-144051428D01*
X108618599Y-142823030D01*
X108653102Y-142833480D01*
X108849105Y-142818914D01*
X109026724Y-142734765D01*
X109151228Y-142603792D01*
X109408156Y-142603792D01*
X110079469Y-143275106D01*
X110180342Y-143375980D01*
X110220338Y-143386696D01*
X110256196Y-143407399D01*
X110298243Y-143407399D01*
X110298247Y-143407400D01*
X115494964Y-143407400D01*
X117171200Y-145083638D01*
X117171201Y-148325547D01*
X117171201Y-148468203D01*
X117191904Y-148504062D01*
X117202621Y-148544058D01*
X117238902Y-148580338D01*
X119559536Y-150900974D01*
X119469154Y-150892032D01*
X119279714Y-150944392D01*
X119121823Y-151061437D01*
X119082829Y-151123000D01*
X118840535Y-151123000D01*
X118965138Y-150991923D01*
X119040363Y-150809868D01*
X119042900Y-150602202D01*
X118972146Y-150418362D01*
X118840252Y-150272646D01*
X118664743Y-150184182D01*
X118469154Y-150164832D01*
X118422707Y-150177670D01*
X117930157Y-149685121D01*
X117930157Y-149685119D01*
X117807258Y-149562221D01*
X117767258Y-149551502D01*
X117731403Y-149530801D01*
X117689357Y-149530801D01*
X117689353Y-149530800D01*
X108894725Y-149530800D01*
X108783252Y-149407646D01*
X108607743Y-149319182D01*
X108412154Y-149299832D01*
X108222714Y-149352192D01*
X108064823Y-149469237D01*
X107959654Y-149635276D01*
X107921311Y-149828043D01*
X107954933Y-150021688D01*
X108056014Y-150190248D01*
X108210997Y-150311117D01*
X108399102Y-150368088D01*
X108595105Y-150353522D01*
X108772724Y-150269373D01*
X108897228Y-150138400D01*
X111635594Y-150138400D01*
X111544623Y-150205837D01*
X111439454Y-150371876D01*
X111401111Y-150564643D01*
X111434733Y-150758288D01*
X111535814Y-150926848D01*
X111690797Y-151047717D01*
X111878902Y-151104688D01*
X112030393Y-151093430D01*
X112636142Y-151699180D01*
X112676138Y-151709896D01*
X112711996Y-151730599D01*
X112754043Y-151730599D01*
X112754047Y-151730600D01*
X119081922Y-151730600D01*
X119113014Y-151782448D01*
X119267997Y-151903317D01*
X119456102Y-151960288D01*
X119652105Y-151945722D01*
X119829724Y-151861573D01*
X119965138Y-151719123D01*
X120015608Y-151596978D01*
X120019933Y-151621888D01*
X120121014Y-151790448D01*
X120275997Y-151911317D01*
X120464102Y-151968288D01*
X120660105Y-151953722D01*
X120837724Y-151869573D01*
X120973138Y-151727123D01*
X121048363Y-151545068D01*
X121050900Y-151337402D01*
X120980146Y-151153562D01*
X120848252Y-151007846D01*
X120672743Y-150919382D01*
X120477154Y-150900033D01*
X120430707Y-150912870D01*
X117778800Y-148260964D01*
X117778800Y-144918447D01*
X117778799Y-144918443D01*
X117778799Y-144876398D01*
X117758097Y-144840539D01*
X117747379Y-144800541D01*
X117716369Y-144769532D01*
X117716365Y-144769526D01*
X115900957Y-142954121D01*
X115900957Y-142954119D01*
X115778058Y-142831221D01*
X115738058Y-142820502D01*
X115702203Y-142799801D01*
X115660157Y-142799801D01*
X115660153Y-142799800D01*
X110463437Y-142799800D01*
X109967136Y-142303500D01*
X111615098Y-140655539D01*
X111651380Y-140619258D01*
X111662096Y-140579262D01*
X111682799Y-140543404D01*
X111682799Y-140501357D01*
X111682800Y-140501353D01*
X111682800Y-138804443D01*
X114906311Y-138804443D01*
X114939933Y-138998088D01*
X115041014Y-139166648D01*
X115195997Y-139287517D01*
X115384102Y-139344488D01*
X115580105Y-139329922D01*
X115757724Y-139245773D01*
X115892465Y-139104032D01*
X115930014Y-139166648D01*
X116084997Y-139287517D01*
X116273102Y-139344488D01*
X116424593Y-139333230D01*
X118212600Y-141121237D01*
X118212601Y-146551582D01*
X118212600Y-146551586D01*
X118212600Y-146583583D01*
X118123223Y-146649839D01*
X118018054Y-146815878D01*
X117979711Y-147008645D01*
X118013333Y-147202290D01*
X118114414Y-147370850D01*
X118269397Y-147491719D01*
X118457502Y-147548690D01*
X118653505Y-147534124D01*
X118831124Y-147449975D01*
X118966538Y-147307525D01*
X119041763Y-147125470D01*
X119044300Y-146917804D01*
X118973546Y-146733964D01*
X118841652Y-146588248D01*
X118820200Y-146577435D01*
X118820200Y-144182594D01*
X126229414Y-144182594D01*
X126229414Y-148157406D01*
X126245605Y-148238806D01*
X126295910Y-148314090D01*
X126371194Y-148364395D01*
X126452594Y-148380586D01*
X128522401Y-148380586D01*
X128522401Y-148788959D01*
X128513044Y-148836000D01*
X128550111Y-149022350D01*
X128624912Y-149134297D01*
X128655671Y-149180330D01*
X128695550Y-149206977D01*
X130316400Y-150827828D01*
X130316401Y-154540678D01*
X130286253Y-154588276D01*
X130247910Y-154781043D01*
X130281532Y-154974689D01*
X130306999Y-155017157D01*
X130306999Y-155021573D01*
X128695550Y-156633023D01*
X128655671Y-156659670D01*
X128629026Y-156699546D01*
X128629025Y-156699547D01*
X128568978Y-156789414D01*
X127822594Y-156789414D01*
X127741194Y-156805605D01*
X127665910Y-156855910D01*
X127615605Y-156931194D01*
X127599414Y-157012594D01*
X127599414Y-160987406D01*
X127615605Y-161068806D01*
X127665910Y-161144090D01*
X127741194Y-161194395D01*
X127822594Y-161210586D01*
X130177406Y-161210586D01*
X130258806Y-161194395D01*
X130334090Y-161144090D01*
X130384395Y-161068806D01*
X130400586Y-160987406D01*
X130400586Y-157012594D01*
X130384395Y-156931194D01*
X130334090Y-156855910D01*
X130258806Y-156805605D01*
X130177406Y-156789414D01*
X129890013Y-156789414D01*
X131089050Y-155590378D01*
X131128929Y-155563731D01*
X131166715Y-155507181D01*
X131234488Y-155405751D01*
X131271555Y-155219402D01*
X131262199Y-155172365D01*
X131262199Y-155013462D01*
X131309962Y-154897868D01*
X131312499Y-154690202D01*
X131271600Y-154583932D01*
X131271600Y-150677036D01*
X131280956Y-150629999D01*
X131243889Y-150443649D01*
X131164975Y-150325546D01*
X131138330Y-150285670D01*
X131098451Y-150259023D01*
X129477600Y-148638173D01*
X129477600Y-148380586D01*
X131547406Y-148380586D01*
X131628806Y-148364395D01*
X131704090Y-148314090D01*
X131754395Y-148238806D01*
X131770586Y-148157406D01*
X131770586Y-144182594D01*
X131754395Y-144101194D01*
X131704090Y-144025910D01*
X131628806Y-143975605D01*
X131547406Y-143959414D01*
X126452594Y-143959414D01*
X126371194Y-143975605D01*
X126295910Y-144025910D01*
X126245605Y-144101194D01*
X126229414Y-144182594D01*
X118820200Y-144182594D01*
X118820200Y-143393443D01*
X124963315Y-143393443D01*
X124996937Y-143587088D01*
X125098018Y-143755648D01*
X125253001Y-143876517D01*
X125441106Y-143933488D01*
X125637109Y-143918922D01*
X125814728Y-143834773D01*
X125950142Y-143692323D01*
X126025367Y-143510268D01*
X126027904Y-143302602D01*
X125957150Y-143118762D01*
X125825256Y-142973046D01*
X125649747Y-142884582D01*
X125454158Y-142865232D01*
X125264718Y-142917592D01*
X125106827Y-143034637D01*
X125001658Y-143200676D01*
X124963315Y-143393443D01*
X118820200Y-143393443D01*
X118820200Y-140956047D01*
X118820199Y-140956043D01*
X118820199Y-140913996D01*
X118799496Y-140878138D01*
X118788780Y-140838142D01*
X118752498Y-140801861D01*
X116857538Y-138906902D01*
X116859900Y-138713602D01*
X116789146Y-138529762D01*
X116657252Y-138384046D01*
X116481743Y-138295582D01*
X116396488Y-138287148D01*
X117981837Y-136701800D01*
X120724922Y-136701800D01*
X120756014Y-136753648D01*
X120910997Y-136874517D01*
X121099102Y-136931488D01*
X121295105Y-136916922D01*
X121472724Y-136832773D01*
X121608138Y-136690323D01*
X121683363Y-136508268D01*
X121685900Y-136300602D01*
X121615146Y-136116762D01*
X121483252Y-135971046D01*
X121307743Y-135882582D01*
X121112154Y-135863232D01*
X120922714Y-135915592D01*
X120764823Y-136032637D01*
X120725829Y-136094200D01*
X117816647Y-136094200D01*
X117816643Y-136094201D01*
X117774596Y-136094201D01*
X117738738Y-136114904D01*
X117698742Y-136125620D01*
X117662461Y-136161902D01*
X115534540Y-138289824D01*
X115397154Y-138276233D01*
X115207714Y-138328592D01*
X115049823Y-138445637D01*
X114944654Y-138611676D01*
X114906311Y-138804443D01*
X111682800Y-138804443D01*
X111682800Y-134395853D01*
X111766997Y-134461517D01*
X111955102Y-134518488D01*
X112151105Y-134503922D01*
X112328724Y-134419773D01*
X112464138Y-134277323D01*
X112539363Y-134095268D01*
X112541900Y-133887602D01*
X112471146Y-133703762D01*
X112339252Y-133558046D01*
X112317800Y-133547233D01*
X112317800Y-133252853D01*
X112401997Y-133318517D01*
X112590102Y-133375488D01*
X112786105Y-133360922D01*
X112963724Y-133276773D01*
X113099138Y-133134323D01*
X113174363Y-132952268D01*
X113176900Y-132744602D01*
X113106146Y-132560762D01*
X112974252Y-132415046D01*
X112952800Y-132404233D01*
X112952800Y-131189836D01*
X113921509Y-130221128D01*
X113923933Y-130235089D01*
X114025013Y-130403649D01*
X114179996Y-130524518D01*
X114368101Y-130581489D01*
X114564104Y-130566923D01*
X114704007Y-130500643D01*
X115520201Y-131316839D01*
X115520200Y-132410381D01*
X115430823Y-132476637D01*
X115325654Y-132642676D01*
X115287311Y-132835443D01*
X115320933Y-133029088D01*
X115422014Y-133197648D01*
X115536740Y-133287121D01*
X115430823Y-133365637D01*
X115325654Y-133531676D01*
X115287311Y-133724443D01*
X115320933Y-133918088D01*
X115422014Y-134086648D01*
X115525044Y-134167000D01*
X115406823Y-134254637D01*
X115301654Y-134420676D01*
X115263311Y-134613443D01*
X115296933Y-134807088D01*
X115398014Y-134975648D01*
X115552997Y-135096517D01*
X115741102Y-135153488D01*
X115937105Y-135138922D01*
X116114724Y-135054773D01*
X116250138Y-134912323D01*
X116325363Y-134730268D01*
X116327900Y-134522601D01*
X116327660Y-134521976D01*
X118014193Y-132835443D01*
X119986311Y-132835443D01*
X120019933Y-133029088D01*
X120121014Y-133197648D01*
X120275997Y-133318517D01*
X120464102Y-133375488D01*
X120660105Y-133360922D01*
X120837724Y-133276773D01*
X120973138Y-133134323D01*
X121048363Y-132952268D01*
X121049790Y-132835443D01*
X122272311Y-132835443D01*
X122305933Y-133029088D01*
X122407014Y-133197648D01*
X122561997Y-133318517D01*
X122750102Y-133375488D01*
X122946105Y-133360922D01*
X123123724Y-133276773D01*
X123259138Y-133134323D01*
X123334363Y-132952268D01*
X123336900Y-132744602D01*
X123266146Y-132560762D01*
X123134252Y-132415046D01*
X123112800Y-132404233D01*
X123112800Y-131630948D01*
X123123723Y-131625773D01*
X123259138Y-131483323D01*
X123334363Y-131301268D01*
X123336900Y-131093602D01*
X123266146Y-130909762D01*
X123134252Y-130764046D01*
X122958743Y-130675582D01*
X122763154Y-130656232D01*
X122573714Y-130708592D01*
X122415823Y-130825637D01*
X122310654Y-130991676D01*
X122272311Y-131184443D01*
X122305933Y-131378088D01*
X122407014Y-131546648D01*
X122505200Y-131623222D01*
X122505201Y-132410381D01*
X122415823Y-132476637D01*
X122310654Y-132642676D01*
X122272311Y-132835443D01*
X121049790Y-132835443D01*
X121050900Y-132744602D01*
X120980146Y-132560762D01*
X120848252Y-132415046D01*
X120826800Y-132404233D01*
X120826800Y-131630948D01*
X120837723Y-131625773D01*
X120973138Y-131483323D01*
X121048363Y-131301268D01*
X121049790Y-131184443D01*
X121050900Y-131093602D01*
X120980146Y-130909762D01*
X120848252Y-130764046D01*
X120672743Y-130675582D01*
X120477154Y-130656232D01*
X120287714Y-130708592D01*
X120129823Y-130825637D01*
X120024654Y-130991676D01*
X119986311Y-131184443D01*
X120019933Y-131378088D01*
X120121014Y-131546648D01*
X120219201Y-131623222D01*
X120219200Y-132410381D01*
X120129823Y-132476637D01*
X120024654Y-132642676D01*
X119986311Y-132835443D01*
X118014193Y-132835443D01*
X119665194Y-131184443D01*
X121910728Y-128938910D01*
X121910729Y-128938908D01*
X121938379Y-128911258D01*
X121949097Y-128871262D01*
X121969800Y-128835403D01*
X121969800Y-124547647D01*
X121969799Y-124547643D01*
X121969799Y-124505596D01*
X121949096Y-124469738D01*
X121938380Y-124429742D01*
X121882806Y-124374169D01*
X121715800Y-124207164D01*
X121715800Y-123493799D01*
X121747403Y-123493799D01*
X121783258Y-123473098D01*
X121823258Y-123462379D01*
X121946157Y-123339481D01*
X121946157Y-123339479D01*
X124083124Y-121202514D01*
X124097380Y-121188259D01*
X124108096Y-121148262D01*
X124128799Y-121112404D01*
X124128799Y-121070357D01*
X124128800Y-121070353D01*
X124128800Y-119946948D01*
X124139723Y-119941773D01*
X124275138Y-119799323D01*
X124350363Y-119617268D01*
X124352900Y-119409602D01*
X124282146Y-119225762D01*
X124150252Y-119080046D01*
X124088261Y-119048800D01*
X124334164Y-119048800D01*
X125553201Y-120267838D01*
X125553200Y-125007352D01*
X125553201Y-125007356D01*
X125553201Y-125049403D01*
X125573904Y-125085261D01*
X125584620Y-125125257D01*
X125707519Y-125248157D01*
X125707521Y-125248157D01*
X131319001Y-130859638D01*
X131319001Y-130889370D01*
X125493532Y-125063902D01*
X125495894Y-124870602D01*
X125425140Y-124686762D01*
X125293246Y-124541046D01*
X125117737Y-124452582D01*
X124922148Y-124433232D01*
X124732708Y-124485592D01*
X124574817Y-124602637D01*
X124523235Y-124684074D01*
X124398752Y-124546546D01*
X124223243Y-124458082D01*
X124027654Y-124438732D01*
X123838214Y-124491092D01*
X123680323Y-124608137D01*
X123631468Y-124685268D01*
X123515248Y-124556868D01*
X123339739Y-124468404D01*
X123144150Y-124449054D01*
X122954710Y-124501414D01*
X122796819Y-124618459D01*
X122691650Y-124784498D01*
X122668300Y-124901889D01*
X122668300Y-124307838D01*
X122679223Y-124302663D01*
X122814638Y-124160213D01*
X122889863Y-123978158D01*
X122892400Y-123770492D01*
X122821646Y-123586652D01*
X122689752Y-123440936D01*
X122514243Y-123352472D01*
X122318654Y-123333122D01*
X122129214Y-123385482D01*
X121971323Y-123502527D01*
X121866154Y-123668566D01*
X121827811Y-123861333D01*
X121861433Y-124054978D01*
X121962514Y-124223538D01*
X122060700Y-124300112D01*
X122060701Y-126113247D01*
X122060701Y-126255903D01*
X122081404Y-126291762D01*
X122092121Y-126331758D01*
X122128402Y-126368038D01*
X125426200Y-129665838D01*
X125426200Y-130875565D01*
X125325257Y-130764044D01*
X125149748Y-130675580D01*
X124954159Y-130656230D01*
X124764719Y-130708590D01*
X124606828Y-130825635D01*
X124501659Y-130991674D01*
X124463316Y-131184441D01*
X124496938Y-131378086D01*
X124598019Y-131546646D01*
X124753002Y-131667515D01*
X124941107Y-131724486D01*
X124996204Y-131720392D01*
X124996204Y-133409349D01*
X124863742Y-133342583D01*
X124668153Y-133323233D01*
X124478713Y-133375593D01*
X124320822Y-133492638D01*
X124215653Y-133658677D01*
X124177310Y-133851444D01*
X124210932Y-134045089D01*
X124312013Y-134213649D01*
X124466996Y-134334518D01*
X124655101Y-134391489D01*
X124851104Y-134376923D01*
X124996204Y-134308179D01*
X124996205Y-135949342D01*
X124863743Y-135882576D01*
X124668154Y-135863226D01*
X124478714Y-135915586D01*
X124320823Y-136032631D01*
X124215654Y-136198670D01*
X124177311Y-136391437D01*
X124210933Y-136585082D01*
X124312014Y-136753642D01*
X124466997Y-136874511D01*
X124655102Y-136931482D01*
X124851105Y-136916916D01*
X124996205Y-136848173D01*
X124996205Y-137827417D01*
X125016908Y-137863276D01*
X125027625Y-137903272D01*
X125063906Y-137939552D01*
X126098984Y-138974631D01*
X126082311Y-139058452D01*
X126115933Y-139252098D01*
X126217014Y-139420658D01*
X126371997Y-139541527D01*
X126560102Y-139598498D01*
X126756105Y-139583932D01*
X126933724Y-139499783D01*
X127069138Y-139357333D01*
X127144363Y-139175278D01*
X127146900Y-138967612D01*
X127076146Y-138783772D01*
X126944252Y-138638056D01*
X126768743Y-138549592D01*
X126573154Y-138530242D01*
X126526707Y-138543080D01*
X125603804Y-137620178D01*
X125603804Y-136828440D01*
X126098984Y-137323621D01*
X126082311Y-137407442D01*
X126115933Y-137601088D01*
X126217014Y-137769648D01*
X126371997Y-137890517D01*
X126560102Y-137947488D01*
X126756105Y-137932922D01*
X126933724Y-137848773D01*
X127069138Y-137706323D01*
X127144363Y-137524268D01*
X127146900Y-137316602D01*
X127076146Y-137132762D01*
X126944252Y-136987046D01*
X126911259Y-136970416D01*
X126933724Y-136959773D01*
X127069138Y-136817323D01*
X127144363Y-136635268D01*
X127146900Y-136427602D01*
X127076146Y-136243762D01*
X126944252Y-136098046D01*
X126768743Y-136009582D01*
X126573154Y-135990232D01*
X126526708Y-136003070D01*
X126389422Y-135865784D01*
X126389422Y-135505084D01*
X126435498Y-135541018D01*
X126623603Y-135597989D01*
X126819606Y-135583423D01*
X126997225Y-135499274D01*
X127132639Y-135356824D01*
X127174062Y-135256575D01*
X127216657Y-135213981D01*
X127216657Y-135213979D01*
X127875897Y-134554740D01*
X127912179Y-134518459D01*
X127922895Y-134478463D01*
X127943598Y-134442605D01*
X127943598Y-134400558D01*
X127943599Y-134400554D01*
X127943599Y-131547239D01*
X128109511Y-131597488D01*
X128305514Y-131582922D01*
X128483133Y-131498773D01*
X128618547Y-131356323D01*
X128693772Y-131174268D01*
X128696309Y-130966602D01*
X128625555Y-130782762D01*
X128493661Y-130637046D01*
X128318152Y-130548582D01*
X128122563Y-130529232D01*
X127943599Y-130578697D01*
X127943599Y-129352222D01*
X127922896Y-129316363D01*
X127912178Y-129276367D01*
X127881168Y-129245357D01*
X127881164Y-129245351D01*
X124133932Y-125498120D01*
X124166093Y-125495730D01*
X124188590Y-125518227D01*
X124188592Y-125518228D01*
X129208378Y-130538015D01*
X129050714Y-130581592D01*
X128892823Y-130698637D01*
X128787654Y-130864676D01*
X128749311Y-131057443D01*
X128782933Y-131251088D01*
X128884014Y-131419648D01*
X129038997Y-131540517D01*
X129227102Y-131597488D01*
X129321557Y-131590469D01*
X129321558Y-132547023D01*
X129321557Y-132547027D01*
X129321557Y-132579024D01*
X129232180Y-132645280D01*
X129127011Y-132811319D01*
X129088668Y-133004086D01*
X129122290Y-133197731D01*
X129223371Y-133366291D01*
X129378354Y-133487160D01*
X129566459Y-133544131D01*
X129762462Y-133529565D01*
X129940081Y-133445416D01*
X130075495Y-133302966D01*
X130102232Y-133238259D01*
X130154034Y-133324642D01*
X130309017Y-133445511D01*
X130497122Y-133502482D01*
X130693125Y-133487916D01*
X130861801Y-133408004D01*
X130861801Y-134710063D01*
X130861592Y-134710272D01*
X130861590Y-134710273D01*
X130838039Y-134733824D01*
X130700654Y-134720233D01*
X130511214Y-134772592D01*
X130353323Y-134889637D01*
X130248154Y-135055676D01*
X130209811Y-135248443D01*
X130243433Y-135442088D01*
X130344514Y-135610648D01*
X130499497Y-135731517D01*
X130687602Y-135788488D01*
X130883605Y-135773922D01*
X131061224Y-135689773D01*
X131196638Y-135547323D01*
X131271863Y-135365268D01*
X131274400Y-135157602D01*
X131274160Y-135156977D01*
X131291227Y-135139910D01*
X131291228Y-135139908D01*
X131315079Y-135116057D01*
X131315081Y-135116057D01*
X131319001Y-135112137D01*
X131319000Y-141682372D01*
X130577549Y-142423824D01*
X130440164Y-142410233D01*
X130250724Y-142462592D01*
X130092833Y-142579637D01*
X129987664Y-142745676D01*
X129949321Y-142938443D01*
X129982943Y-143132088D01*
X130084024Y-143300648D01*
X130239007Y-143421517D01*
X130427112Y-143478488D01*
X130623115Y-143463922D01*
X130800734Y-143379773D01*
X130936148Y-143237323D01*
X131011373Y-143055268D01*
X131013910Y-142847601D01*
X131013670Y-142846976D01*
X131864165Y-141996484D01*
X131864169Y-141996478D01*
X131895180Y-141965468D01*
X131905897Y-141925471D01*
X131926599Y-141889614D01*
X131926599Y-141847567D01*
X131926600Y-141847563D01*
X131926600Y-133078781D01*
X131946933Y-133195888D01*
X132048014Y-133364448D01*
X132202997Y-133485317D01*
X132391102Y-133542288D01*
X132587105Y-133527722D01*
X132764724Y-133443573D01*
X132900138Y-133301123D01*
X132975363Y-133119068D01*
X132977900Y-132911402D01*
X132950957Y-132841396D01*
X133037108Y-132867488D01*
X133233111Y-132852922D01*
X133410730Y-132768773D01*
X133546144Y-132626323D01*
X133621369Y-132444268D01*
X133623906Y-132236602D01*
X133553152Y-132052762D01*
X133421258Y-131907046D01*
X133412932Y-131902849D01*
X133546138Y-131762723D01*
X133621363Y-131580668D01*
X133623900Y-131373002D01*
X133553146Y-131189162D01*
X133421252Y-131043446D01*
X133399800Y-131032633D01*
X133399800Y-129500647D01*
X133399799Y-129500643D01*
X133399799Y-129458596D01*
X133379096Y-129422738D01*
X133368380Y-129382742D01*
X133330209Y-129344572D01*
X129049538Y-125063902D01*
X129051900Y-124870602D01*
X128981146Y-124686762D01*
X128849252Y-124541046D01*
X128673743Y-124452582D01*
X128478154Y-124433232D01*
X128288714Y-124485592D01*
X128130823Y-124602637D01*
X128083547Y-124677275D01*
X127960240Y-124541046D01*
X127784731Y-124452582D01*
X127589142Y-124433232D01*
X127399702Y-124485592D01*
X127241811Y-124602637D01*
X127136642Y-124768676D01*
X127098299Y-124961443D01*
X127131921Y-125155088D01*
X127233002Y-125323648D01*
X127387985Y-125444517D01*
X127576090Y-125501488D01*
X127727581Y-125490230D01*
X127750078Y-125512727D01*
X127750080Y-125512728D01*
X132289790Y-130052439D01*
X132289789Y-130849199D01*
X132284303Y-130869675D01*
X132263600Y-130905533D01*
X132263600Y-130947581D01*
X132263599Y-130947585D01*
X132263600Y-131744140D01*
X132263600Y-131886796D01*
X132284303Y-131922655D01*
X132295020Y-131962651D01*
X132331301Y-131998931D01*
X132575990Y-132243621D01*
X132559317Y-132327442D01*
X132587926Y-132492213D01*
X132404154Y-132474032D01*
X132214714Y-132526392D01*
X132056823Y-132643437D01*
X131951654Y-132809476D01*
X131926600Y-132935433D01*
X131926600Y-130652397D01*
X131905897Y-130616538D01*
X131895180Y-130576542D01*
X131794306Y-130475669D01*
X126160800Y-124842164D01*
X126160800Y-120770443D01*
X131797311Y-120770443D01*
X131830933Y-120964088D01*
X131932014Y-121132648D01*
X132086997Y-121253517D01*
X132275102Y-121310488D01*
X132471105Y-121295922D01*
X132648724Y-121211773D01*
X132784138Y-121069323D01*
X132859363Y-120887268D01*
X132861900Y-120679601D01*
X132861660Y-120678977D01*
X133594728Y-119945910D01*
X133594729Y-119945908D01*
X133622380Y-119918258D01*
X133633097Y-119878261D01*
X133653799Y-119842404D01*
X133653799Y-119800357D01*
X133653800Y-119800353D01*
X133653800Y-105554410D01*
X133741105Y-105547922D01*
X133918724Y-105463773D01*
X134054138Y-105321323D01*
X134129363Y-105139268D01*
X134131900Y-104931602D01*
X134061146Y-104747762D01*
X133929252Y-104602046D01*
X133753743Y-104513582D01*
X133558154Y-104494232D01*
X133368714Y-104546592D01*
X133210823Y-104663637D01*
X133105654Y-104829676D01*
X133067311Y-105022442D01*
X133084119Y-105119245D01*
X133077620Y-105125744D01*
X133066904Y-105165739D01*
X133046201Y-105201597D01*
X133046201Y-105243644D01*
X133046200Y-105243648D01*
X133046201Y-119635161D01*
X132425539Y-120255824D01*
X132288154Y-120242233D01*
X132098714Y-120294592D01*
X131940823Y-120411637D01*
X131835654Y-120577676D01*
X131797311Y-120770443D01*
X126160800Y-120770443D01*
X126160800Y-120102647D01*
X126160799Y-120102643D01*
X126160799Y-120060596D01*
X126140096Y-120024738D01*
X126129380Y-119984742D01*
X126028506Y-119883869D01*
X125645080Y-119500443D01*
X130527311Y-119500443D01*
X130560933Y-119694088D01*
X130662014Y-119862648D01*
X130816997Y-119983517D01*
X131005102Y-120040488D01*
X131201105Y-120025922D01*
X131378724Y-119941773D01*
X131514138Y-119799323D01*
X131589363Y-119617268D01*
X131591900Y-119409602D01*
X131521146Y-119225762D01*
X131389252Y-119080046D01*
X131213743Y-118991582D01*
X131018154Y-118972232D01*
X130828714Y-119024592D01*
X130670823Y-119141637D01*
X130565654Y-119307676D01*
X130527311Y-119500443D01*
X125645080Y-119500443D01*
X124740157Y-118595521D01*
X124740157Y-118595519D01*
X124617258Y-118472621D01*
X124577258Y-118461902D01*
X124541403Y-118441201D01*
X124499357Y-118441201D01*
X124499353Y-118441200D01*
X118419721Y-118441200D01*
X118394920Y-118413800D01*
X121197353Y-118413800D01*
X121197357Y-118413799D01*
X121239403Y-118413799D01*
X121275258Y-118393098D01*
X121315258Y-118382379D01*
X121438157Y-118259481D01*
X121438157Y-118259479D01*
X122291728Y-117405910D01*
X122291729Y-117405908D01*
X122319380Y-117378258D01*
X122330097Y-117338261D01*
X122350799Y-117302404D01*
X122350799Y-117260357D01*
X122350800Y-117260353D01*
X122350800Y-116684436D01*
X123304984Y-117638622D01*
X123288311Y-117722442D01*
X123321933Y-117916088D01*
X123423014Y-118084648D01*
X123577997Y-118205517D01*
X123766102Y-118262488D01*
X123962105Y-118247922D01*
X124139724Y-118163773D01*
X124275138Y-118021323D01*
X124350363Y-117839268D01*
X124352900Y-117631602D01*
X124282146Y-117447762D01*
X124150252Y-117302046D01*
X123974743Y-117213582D01*
X123779154Y-117194232D01*
X123732708Y-117207070D01*
X122731800Y-116206164D01*
X122731800Y-108741853D01*
X122815997Y-108807517D01*
X123004102Y-108864488D01*
X123200105Y-108849922D01*
X123377724Y-108765773D01*
X123513138Y-108623323D01*
X123588363Y-108441268D01*
X123590900Y-108233602D01*
X123520146Y-108049762D01*
X123388252Y-107904046D01*
X123212743Y-107815582D01*
X123017154Y-107796232D01*
X122827714Y-107848592D01*
X122731800Y-107919693D01*
X122731800Y-107021647D01*
X122731799Y-107021643D01*
X122731799Y-106979596D01*
X122711097Y-106943739D01*
X122700380Y-106903742D01*
X122669369Y-106872732D01*
X122669365Y-106872726D01*
X121387346Y-105590710D01*
X121387346Y-105590708D01*
X121264447Y-105467810D01*
X121224447Y-105457091D01*
X121188592Y-105436390D01*
X121146546Y-105436390D01*
X121146542Y-105436389D01*
X111263452Y-105436389D01*
X111263448Y-105436390D01*
X111221401Y-105436390D01*
X111185544Y-105457092D01*
X111145547Y-105467809D01*
X111117897Y-105495460D01*
X111117895Y-105495461D01*
X111091538Y-105521818D01*
X110954154Y-105508226D01*
X110764714Y-105560586D01*
X110714954Y-105597473D01*
X111059828Y-105252600D01*
X121087173Y-105252600D01*
X123601401Y-107766829D01*
X123601400Y-115649964D01*
X123592044Y-115697000D01*
X123602845Y-115751301D01*
X123629111Y-115883350D01*
X123734670Y-116041330D01*
X123774552Y-116067979D01*
X124851025Y-117144453D01*
X124877670Y-117184330D01*
X124917546Y-117210975D01*
X125035649Y-117289889D01*
X125221999Y-117326956D01*
X125269036Y-117317600D01*
X126229414Y-117317600D01*
X126229414Y-117817406D01*
X126245605Y-117898806D01*
X126295910Y-117974090D01*
X126371194Y-118024395D01*
X126452594Y-118040586D01*
X131547406Y-118040586D01*
X131628806Y-118024395D01*
X131704090Y-117974090D01*
X131754395Y-117898806D01*
X131770586Y-117817406D01*
X131770586Y-113842594D01*
X131754395Y-113761194D01*
X131704090Y-113685910D01*
X131628806Y-113635605D01*
X131547406Y-113619414D01*
X129477600Y-113619414D01*
X129477600Y-113132827D01*
X130974451Y-111635977D01*
X131014330Y-111609330D01*
X131119889Y-111451351D01*
X131146155Y-111319301D01*
X131156956Y-111265000D01*
X131147600Y-111217964D01*
X131147600Y-105527036D01*
X131156956Y-105480000D01*
X131124252Y-105315586D01*
X131124252Y-105300179D01*
X131014330Y-105135670D01*
X130974453Y-105109025D01*
X130400586Y-104535158D01*
X130400586Y-101368989D01*
X130455401Y-101368989D01*
X130455401Y-101577011D01*
X130498651Y-101780487D01*
X130583261Y-101970525D01*
X130705534Y-102138819D01*
X130860124Y-102278012D01*
X131040277Y-102382024D01*
X131095149Y-102399853D01*
X130955714Y-102438392D01*
X130797823Y-102555437D01*
X130692654Y-102721476D01*
X130654311Y-102914243D01*
X130687933Y-103107888D01*
X130789014Y-103276448D01*
X130943997Y-103397317D01*
X131132102Y-103454288D01*
X131328105Y-103439722D01*
X131505724Y-103355573D01*
X131641138Y-103213123D01*
X131716363Y-103031068D01*
X131718900Y-102823402D01*
X131648146Y-102639562D01*
X131516252Y-102493846D01*
X131461610Y-102466304D01*
X131651882Y-102446306D01*
X131849723Y-102382024D01*
X132029876Y-102278012D01*
X132184466Y-102138819D01*
X132306739Y-101970525D01*
X132391349Y-101780487D01*
X132434599Y-101577011D01*
X132434599Y-101368989D01*
X132391349Y-101165513D01*
X132306739Y-100975475D01*
X132184466Y-100807181D01*
X132029876Y-100667988D01*
X131849723Y-100563976D01*
X131651882Y-100499694D01*
X131445000Y-100477950D01*
X131238118Y-100499694D01*
X131040277Y-100563976D01*
X130860124Y-100667988D01*
X130705534Y-100807181D01*
X130583261Y-100975475D01*
X130498651Y-101165513D01*
X130455401Y-101368989D01*
X130400586Y-101368989D01*
X130400586Y-101012594D01*
X130384395Y-100931194D01*
X130334090Y-100855910D01*
X130258806Y-100805605D01*
X130177406Y-100789414D01*
X127822594Y-100789414D01*
X127741194Y-100805605D01*
X127665910Y-100855910D01*
X127615605Y-100931194D01*
X127599414Y-101012594D01*
X127599414Y-104987406D01*
X127615605Y-105068806D01*
X127665910Y-105144090D01*
X127741194Y-105194395D01*
X127822594Y-105210586D01*
X129725158Y-105210586D01*
X130192401Y-105677829D01*
X130192400Y-111067172D01*
X128695550Y-112564023D01*
X128655671Y-112590670D01*
X128629026Y-112630546D01*
X128629025Y-112630547D01*
X128550111Y-112748650D01*
X128513044Y-112935000D01*
X128522401Y-112982041D01*
X128522401Y-113619414D01*
X126452594Y-113619414D01*
X126371194Y-113635605D01*
X126295910Y-113685910D01*
X126245605Y-113761194D01*
X126229414Y-113842594D01*
X126229414Y-116362400D01*
X125419828Y-116362400D01*
X124556600Y-115499173D01*
X124556600Y-107616036D01*
X124565956Y-107569000D01*
X124551771Y-107497687D01*
X124528889Y-107382649D01*
X124423330Y-107224669D01*
X124383451Y-107198024D01*
X121655979Y-104470552D01*
X121629330Y-104430670D01*
X121471351Y-104325111D01*
X121332038Y-104297400D01*
X121332036Y-104297400D01*
X121285000Y-104288044D01*
X121237964Y-104297400D01*
X112400586Y-104297400D01*
X112400586Y-103371443D01*
X118208311Y-103371443D01*
X118241933Y-103565088D01*
X118343014Y-103733648D01*
X118497997Y-103854517D01*
X118686102Y-103911488D01*
X118882105Y-103896922D01*
X119059724Y-103812773D01*
X119184228Y-103681800D01*
X120905164Y-103681800D01*
X125599195Y-108375832D01*
X125599196Y-114912392D01*
X125557150Y-114908232D01*
X125367710Y-114960592D01*
X125209819Y-115077637D01*
X125104650Y-115243676D01*
X125066307Y-115436443D01*
X125099929Y-115630088D01*
X125201010Y-115798648D01*
X125355993Y-115919517D01*
X125544098Y-115976488D01*
X125740101Y-115961922D01*
X125917720Y-115877773D01*
X126053134Y-115735323D01*
X126128359Y-115553268D01*
X126130896Y-115345602D01*
X126130656Y-115344978D01*
X126175375Y-115300259D01*
X126186092Y-115260263D01*
X126206795Y-115224404D01*
X126206795Y-108210642D01*
X126206794Y-108210638D01*
X126206794Y-108168591D01*
X126186091Y-108132733D01*
X126175375Y-108092737D01*
X126119306Y-108036669D01*
X124176092Y-106093455D01*
X124463299Y-106093455D01*
X124496921Y-106287100D01*
X124598002Y-106455660D01*
X124752985Y-106576529D01*
X124941090Y-106633500D01*
X125137093Y-106618934D01*
X125314712Y-106534785D01*
X125450126Y-106392335D01*
X125525351Y-106210280D01*
X125527888Y-106002614D01*
X125457134Y-105818774D01*
X125325240Y-105673058D01*
X125149731Y-105584594D01*
X124954142Y-105565244D01*
X124764702Y-105617604D01*
X124606811Y-105734649D01*
X124501642Y-105900688D01*
X124463299Y-106093455D01*
X124176092Y-106093455D01*
X121311157Y-103228521D01*
X121311157Y-103228519D01*
X121188258Y-103105621D01*
X121148258Y-103094902D01*
X121112403Y-103074201D01*
X121070357Y-103074201D01*
X121070353Y-103074200D01*
X119181725Y-103074200D01*
X119070252Y-102951046D01*
X118894743Y-102862582D01*
X118699154Y-102843232D01*
X118509714Y-102895592D01*
X118351823Y-103012637D01*
X118246654Y-103178676D01*
X118208311Y-103371443D01*
X112400586Y-103371443D01*
X112400586Y-101012594D01*
X112384395Y-100931194D01*
X112334090Y-100855910D01*
X112258806Y-100805605D01*
X112177406Y-100789414D01*
X109822594Y-100789414D01*
X109741194Y-100805605D01*
X109665910Y-100855910D01*
X109615605Y-100931194D01*
X109599414Y-101012594D01*
X109599414Y-104987406D01*
X109615605Y-105068806D01*
X109665910Y-105144090D01*
X109741194Y-105194395D01*
X109752954Y-105196734D01*
X109724910Y-105238706D01*
X109650111Y-105350651D01*
X109613044Y-105537000D01*
X109622400Y-105584037D01*
X109622401Y-106496959D01*
X109613044Y-106544000D01*
X109650111Y-106730350D01*
X109724912Y-106842297D01*
X109755671Y-106888330D01*
X109795550Y-106914977D01*
X110520400Y-107639828D01*
X110520401Y-113619414D01*
X108452594Y-113619414D01*
X108371194Y-113635605D01*
X108295910Y-113685910D01*
X108245605Y-113761194D01*
X108229414Y-113842594D01*
X108229414Y-117817406D01*
X108245605Y-117898806D01*
X108295910Y-117974090D01*
X108371194Y-118024395D01*
X108452594Y-118040586D01*
X109494777Y-118040586D01*
X104771366Y-122763998D01*
X104491034Y-122763998D01*
X104538363Y-122649456D01*
X104540900Y-122441790D01*
X104470146Y-122257950D01*
X104383801Y-122162556D01*
X104463138Y-122079098D01*
X104538363Y-121897043D01*
X104540900Y-121689377D01*
X104470146Y-121505537D01*
X104338252Y-121359821D01*
X104162743Y-121271357D01*
X103967154Y-121252007D01*
X103777714Y-121304367D01*
X103619823Y-121421412D01*
X103514654Y-121587451D01*
X103476311Y-121780218D01*
X103509933Y-121973863D01*
X103611014Y-122142423D01*
X103635950Y-122161870D01*
X103619823Y-122173825D01*
X103580829Y-122235388D01*
X101703459Y-122235388D01*
X101703455Y-122235389D01*
X101661408Y-122235389D01*
X101625550Y-122256092D01*
X101585554Y-122266808D01*
X101549273Y-122303090D01*
X100793495Y-123058869D01*
X100692621Y-123159742D01*
X100681904Y-123199738D01*
X100661201Y-123235597D01*
X100661201Y-123286905D01*
X100661200Y-126023352D01*
X97534073Y-126023352D01*
X97580703Y-125802140D01*
X97807363Y-124906604D01*
X98069774Y-124020901D01*
X98367537Y-123146396D01*
X98700143Y-122284571D01*
X99067059Y-121436810D01*
X99467705Y-120604452D01*
X99901846Y-119788060D01*
X100206901Y-119257555D01*
X100219933Y-119208581D01*
X100227601Y-119179961D01*
X100227601Y-119179762D01*
X100235630Y-119149589D01*
X100227601Y-119119835D01*
X100227601Y-117931200D01*
X105851437Y-117931200D01*
X105823595Y-109093443D01*
X107963311Y-109093443D01*
X107996933Y-109287088D01*
X108098014Y-109455648D01*
X108252997Y-109576517D01*
X108441102Y-109633488D01*
X108637105Y-109618922D01*
X108814724Y-109534773D01*
X108950138Y-109392323D01*
X109025363Y-109210268D01*
X109027900Y-109002602D01*
X108957146Y-108818762D01*
X108825252Y-108673046D01*
X108649743Y-108584582D01*
X108454154Y-108565232D01*
X108264714Y-108617592D01*
X108106823Y-108734637D01*
X108001654Y-108900676D01*
X107963311Y-109093443D01*
X105823595Y-109093443D01*
X105799259Y-101368989D01*
X107595401Y-101368989D01*
X107595401Y-101577011D01*
X107638651Y-101780487D01*
X107723261Y-101970525D01*
X107845534Y-102138819D01*
X108000124Y-102278012D01*
X108180277Y-102382024D01*
X108378118Y-102446306D01*
X108585000Y-102468050D01*
X108791882Y-102446306D01*
X108989723Y-102382024D01*
X109169876Y-102278012D01*
X109324466Y-102138819D01*
X109446739Y-101970525D01*
X109531349Y-101780487D01*
X109574599Y-101577011D01*
X109574599Y-101368989D01*
X109531349Y-101165513D01*
X109446739Y-100975475D01*
X109324466Y-100807181D01*
X109169876Y-100667988D01*
X108989723Y-100563976D01*
X108791882Y-100499694D01*
X108585000Y-100477950D01*
X108378118Y-100499694D01*
X108180277Y-100563976D01*
X108000124Y-100667988D01*
X107845534Y-100807181D01*
X107723261Y-100975475D01*
X107638651Y-101165513D01*
X107595401Y-101368989D01*
X105799259Y-101368989D01*
X105795663Y-100227571D01*
X139772401Y-100227400D01*
X139772399Y-119119017D01*
X139764379Y-119147930D01*
X139772399Y-119178949D01*
X139772399Y-119179961D01*
X139779870Y-119207845D01*
X139792346Y-119256095D01*
X140254373Y-120072834D01*
X140676572Y-120894459D01*
X141065476Y-121732406D01*
X141420430Y-122585266D01*
X141740871Y-123451682D01*
X142026284Y-124330264D01*
X142276207Y-125219585D01*
X142490241Y-126118237D01*
X142668038Y-127024743D01*
X142809307Y-127937627D01*
X142913833Y-128855505D01*
X142979928Y-129756250D01*
X142952984Y-132648882D01*
X142881377Y-133466818D01*
X142763943Y-134383121D01*
X142609835Y-135293944D01*
X142419298Y-136197854D01*
X142192639Y-137093389D01*
X141930223Y-137979106D01*
X141632460Y-138853612D01*
X141299857Y-139715429D01*
X140932946Y-140563178D01*
X140532295Y-141395548D01*
X140098166Y-142211917D01*
X139802747Y-142725668D01*
X139795463Y-142733006D01*
X139780062Y-142791439D01*
X139764370Y-142850411D01*
X139772524Y-142880629D01*
X139800771Y-149780941D01*
X139798629Y-149837088D01*
X139815380Y-149868839D01*
X139824812Y-149903469D01*
X139843353Y-149921859D01*
X139850761Y-149935900D01*
X140291291Y-150411363D01*
X140691187Y-150899661D01*
X141060545Y-151411488D01*
X141397967Y-151944908D01*
X141702177Y-152497899D01*
X141972079Y-153068470D01*
X142206625Y-153654407D01*
X142404976Y-154253604D01*
X142566375Y-154863785D01*
X142690225Y-155482693D01*
X142737112Y-155824270D01*
X142709626Y-158775091D01*
X142628824Y-159248596D01*
X142484868Y-159863125D01*
X142303668Y-160467705D01*
X142085882Y-161060139D01*
X141832364Y-161638106D01*
X141544006Y-162199574D01*
X141221912Y-162742388D01*
X140867307Y-163264485D01*
X140481459Y-163764002D01*
X140065860Y-164239004D01*
X139622026Y-164687760D01*
X139151618Y-165108589D01*
X138656412Y-165499903D01*
X138138206Y-165860278D01*
X137599027Y-166188311D01*
X137040786Y-166482837D01*
X136465604Y-166742736D01*
X135875655Y-166967024D01*
X135273067Y-167154894D01*
X134660187Y-167305612D01*
X134039221Y-167418640D01*
X133412500Y-167493548D01*
X132780430Y-167530171D01*
X132486917Y-167534181D01*
X132468453Y-167539400D01*
X129615133Y-167539400D01*
X129576856Y-167102164D01*
X129576942Y-167101387D01*
X129576583Y-167099040D01*
X129576375Y-167096667D01*
X129576107Y-167095930D01*
X129482820Y-166486540D01*
X129482856Y-166485756D01*
X129482344Y-166483429D01*
X129481986Y-166481089D01*
X129481673Y-166480375D01*
X129372197Y-165982581D01*
X131590675Y-165982581D01*
X131827485Y-166150872D01*
X132041915Y-166251776D01*
X132270825Y-166313113D01*
X132506979Y-166332943D01*
X132742913Y-166310641D01*
X132971168Y-166246910D01*
X133184531Y-166143767D01*
X133408086Y-165981342D01*
X132500000Y-165073256D01*
X131590675Y-165982581D01*
X129372197Y-165982581D01*
X129349254Y-165878260D01*
X129349239Y-165877480D01*
X129349239Y-165877480D01*
G37*
X129349239Y-165877480D02*
X129348582Y-165875203D01*
X129348071Y-165872881D01*
X129347711Y-165872186D01*
X129176714Y-165279880D01*
X129176648Y-165279099D01*
X129175842Y-165276860D01*
X129175185Y-165274585D01*
X129174782Y-165273917D01*
X129063584Y-164965107D01*
X131167496Y-164965107D01*
X131182377Y-165201625D01*
X131238906Y-165431769D01*
X131335296Y-165648266D01*
X131514615Y-165912129D01*
X132426744Y-165000000D01*
X132573256Y-165000000D01*
X133474883Y-165901627D01*
X133540284Y-165833423D01*
X133671429Y-165636034D01*
X133765547Y-165418540D01*
X133819890Y-165186849D01*
X133827860Y-164882485D01*
X133785717Y-164648268D01*
X133703111Y-164426146D01*
X133582475Y-164222162D01*
X133475280Y-164097976D01*
X132573256Y-165000000D01*
X132426744Y-165000000D01*
X131520807Y-164094064D01*
X131370819Y-164291666D01*
X131263230Y-164502822D01*
X131194735Y-164729693D01*
X131167496Y-164965107D01*
X129063584Y-164965107D01*
X128965918Y-164693878D01*
X128965803Y-164693105D01*
X128964857Y-164690929D01*
X128964049Y-164688686D01*
X128963601Y-164688042D01*
X128717743Y-164122695D01*
X128717577Y-164121930D01*
X128716491Y-164119816D01*
X128715545Y-164117642D01*
X128715059Y-164117031D01*
X128667894Y-164025269D01*
X131598525Y-164025269D01*
X132500000Y-164926744D01*
X133403508Y-164023236D01*
X133243452Y-163893626D01*
X133035781Y-163779457D01*
X132811174Y-163703869D01*
X132576731Y-163669249D01*
X132339862Y-163676693D01*
X132108055Y-163725966D01*
X131888639Y-163815508D01*
X131688545Y-163942491D01*
X131598525Y-164025269D01*
X128667894Y-164025269D01*
X128433226Y-163568716D01*
X128433013Y-163567970D01*
X128431803Y-163565949D01*
X128430709Y-163563820D01*
X128430179Y-163563236D01*
X128113556Y-163034267D01*
X128113293Y-163033527D01*
X128111939Y-163031564D01*
X128110726Y-163029538D01*
X128110167Y-163028996D01*
X127760061Y-162521550D01*
X127759751Y-162520830D01*
X127758276Y-162518963D01*
X127756933Y-162517016D01*
X127756340Y-162516511D01*
X127374214Y-162032714D01*
X127373859Y-162032017D01*
X127372270Y-162030253D01*
X127370799Y-162028390D01*
X127370172Y-162027923D01*
X126957631Y-161569802D01*
X126957231Y-161569128D01*
X126955528Y-161567466D01*
X126953941Y-161565704D01*
X126953286Y-161565279D01*
X126512039Y-161134732D01*
X126511597Y-161134087D01*
X126509794Y-161132542D01*
X126508095Y-161130884D01*
X126507413Y-161130501D01*
X126039301Y-160729325D01*
X126038821Y-160728713D01*
X126036932Y-160727295D01*
X126035113Y-160725736D01*
X126034402Y-160725395D01*
X125541383Y-160355269D01*
X125540861Y-160354686D01*
X125538874Y-160353386D01*
X125536980Y-160351964D01*
X125536256Y-160351673D01*
X125020366Y-160014126D01*
X125019812Y-160013582D01*
X125017759Y-160012421D01*
X125015759Y-160011112D01*
X125015011Y-160010866D01*
X124478425Y-159707318D01*
X124477835Y-159706809D01*
X124475704Y-159705779D01*
X124473627Y-159704604D01*
X124472866Y-159704407D01*
X123917813Y-159436123D01*
X123917189Y-159435651D01*
X123914988Y-159434757D01*
X123912850Y-159433724D01*
X123912082Y-159433577D01*
X123340870Y-159201670D01*
X123340214Y-159201238D01*
X123337951Y-159200485D01*
X123335758Y-159199595D01*
X123334985Y-159199499D01*
X122749994Y-159004935D01*
X122749314Y-159004547D01*
X122747015Y-159003944D01*
X122744763Y-159003195D01*
X122743983Y-159003149D01*
X122147658Y-158846743D01*
X122146956Y-158846400D01*
X122144625Y-158845947D01*
X122142322Y-158845343D01*
X122141538Y-158845347D01*
X121536365Y-158727749D01*
X121535640Y-158727452D01*
X121533280Y-158727150D01*
X121530955Y-158726698D01*
X121530176Y-158726752D01*
X120918672Y-158648452D01*
X120917928Y-158648202D01*
X120915550Y-158648053D01*
X120913203Y-158647752D01*
X120912431Y-158647856D01*
X120297150Y-158609181D01*
X120296390Y-158608979D01*
X120294002Y-158608983D01*
X120291643Y-158608835D01*
X120290880Y-158608989D01*
X119674382Y-158610100D01*
X119673614Y-158609948D01*
X119671241Y-158610106D01*
X119668869Y-158610110D01*
X119668115Y-158610314D01*
X119052972Y-158651206D01*
X119052197Y-158651104D01*
X119049846Y-158651414D01*
X119047479Y-158651571D01*
X119046739Y-158651823D01*
X118435515Y-158732328D01*
X118434734Y-158732276D01*
X118432404Y-158732737D01*
X118430054Y-158733047D01*
X118429333Y-158733346D01*
X117824585Y-158853125D01*
X117823800Y-158853124D01*
X117821497Y-158853737D01*
X117819174Y-158854197D01*
X117818474Y-158854541D01*
X117222708Y-159013099D01*
X117221930Y-159013148D01*
X117219689Y-159013902D01*
X117217387Y-159014515D01*
X117216707Y-159014906D01*
X116632424Y-159211575D01*
X116631648Y-159211675D01*
X116629450Y-159212577D01*
X116627197Y-159213335D01*
X116626545Y-159213768D01*
X116056172Y-159447732D01*
X116055405Y-159447881D01*
X116053271Y-159448922D01*
X116051072Y-159449824D01*
X116050449Y-159450298D01*
X115496360Y-159720585D01*
X115495603Y-159720784D01*
X115493539Y-159721962D01*
X115491410Y-159723000D01*
X115490821Y-159723512D01*
X114955327Y-160028992D01*
X114954586Y-160029238D01*
X114952606Y-160030544D01*
X114950537Y-160031724D01*
X114949979Y-160032276D01*
X114435321Y-160371673D01*
X114434597Y-160371967D01*
X114432706Y-160373397D01*
X114430720Y-160374707D01*
X114430200Y-160375293D01*
X113938518Y-160747193D01*
X113937810Y-160747535D01*
X113936003Y-160749095D01*
X113934115Y-160750523D01*
X113933636Y-160751138D01*
X113466975Y-161153996D01*
X113466294Y-161154381D01*
X113464600Y-161156045D01*
X113462802Y-161157598D01*
X113462362Y-161158245D01*
X113022674Y-161590375D01*
X113022018Y-161590804D01*
X113020431Y-161592579D01*
X113018736Y-161594245D01*
X113018339Y-161594919D01*
X112607460Y-162054515D01*
X112606830Y-162054988D01*
X112605352Y-162056873D01*
X112603776Y-162058636D01*
X112603425Y-162059331D01*
X112223055Y-162544494D01*
X112222460Y-162545004D01*
X112221115Y-162546968D01*
X112219654Y-162548832D01*
X112219348Y-162549550D01*
X111871075Y-163058250D01*
X111870514Y-163058798D01*
X111869298Y-163060845D01*
X111867961Y-163062799D01*
X111867702Y-163063535D01*
X111552982Y-163593650D01*
X111552460Y-163594230D01*
X111551384Y-163596342D01*
X111550167Y-163598392D01*
X111549955Y-163599148D01*
X111270105Y-164148462D01*
X111269621Y-164149074D01*
X111268684Y-164151251D01*
X111267601Y-164153376D01*
X111267438Y-164154144D01*
X111023618Y-164720373D01*
X111023174Y-164721017D01*
X111022377Y-164723256D01*
X111021439Y-164725434D01*
X111021326Y-164726207D01*
X110814555Y-165306994D01*
X110814153Y-165307666D01*
X110813501Y-165309954D01*
X110812705Y-165312191D01*
X110812642Y-165312970D01*
X110643781Y-165905887D01*
X110643423Y-165906583D01*
X110642921Y-165908906D01*
X110642271Y-165911188D01*
X110642259Y-165911969D01*
X110512012Y-166514553D01*
X110511700Y-166515270D01*
X110511349Y-166517616D01*
X110510847Y-166519941D01*
X110510885Y-166520723D01*
X110419797Y-167130453D01*
X110419532Y-167131189D01*
X110419333Y-167133555D01*
X110418983Y-167135901D01*
X110419071Y-167136677D01*
X110385344Y-167538588D01*
X107533475Y-167539391D01*
X107517010Y-167534435D01*
X106869139Y-167514640D01*
X106240614Y-167456888D01*
X105616795Y-167360873D01*
X104999983Y-167226949D01*
X104392531Y-167055630D01*
X103796660Y-166847542D01*
X103214593Y-166603461D01*
X102648526Y-166324308D01*
X102100538Y-166011107D01*
X102057029Y-165982581D01*
X106540675Y-165982581D01*
X106777485Y-166150872D01*
X106991915Y-166251776D01*
X107220825Y-166313113D01*
X107456979Y-166332943D01*
X107692913Y-166310641D01*
X107921168Y-166246910D01*
X108134531Y-166143767D01*
X108358086Y-165981342D01*
X107450000Y-165073256D01*
X106540675Y-165982581D01*
X102057029Y-165982581D01*
X101572698Y-165665040D01*
X101066994Y-165287412D01*
X100686273Y-164965107D01*
X106117496Y-164965107D01*
X106132377Y-165201625D01*
X106188906Y-165431769D01*
X106285296Y-165648266D01*
X106464615Y-165912129D01*
X107376744Y-165000000D01*
X107523256Y-165000000D01*
X108424883Y-165901627D01*
X108490284Y-165833423D01*
X108621429Y-165636034D01*
X108715547Y-165418540D01*
X108769890Y-165186849D01*
X108777860Y-164882485D01*
X108735717Y-164648268D01*
X108653111Y-164426146D01*
X108532475Y-164222162D01*
X108425280Y-164097976D01*
X107523256Y-165000000D01*
X107376744Y-165000000D01*
X106470807Y-164094064D01*
X106320819Y-164291666D01*
X106213230Y-164502822D01*
X106144735Y-164729693D01*
X106117496Y-164965107D01*
X100686273Y-164965107D01*
X100585260Y-164879594D01*
X100129319Y-164443125D01*
X99743058Y-164025269D01*
X106548525Y-164025269D01*
X107450000Y-164926744D01*
X108353508Y-164023236D01*
X108193452Y-163893626D01*
X107985781Y-163779457D01*
X107761174Y-163703869D01*
X107526731Y-163669249D01*
X107289862Y-163676693D01*
X107058055Y-163725966D01*
X106838639Y-163815508D01*
X106638545Y-163942491D01*
X106548525Y-164025269D01*
X99743058Y-164025269D01*
X99700886Y-163979648D01*
X99301557Y-163490893D01*
X98932799Y-162978657D01*
X98595985Y-162444836D01*
X98292412Y-161891496D01*
X98023179Y-161320641D01*
X97789298Y-160734413D01*
X97591641Y-160134997D01*
X97430940Y-159524614D01*
X97336892Y-159051800D01*
X109599414Y-159051800D01*
X109599414Y-160987406D01*
X109615605Y-161068806D01*
X109665910Y-161144090D01*
X109741194Y-161194395D01*
X109822594Y-161210586D01*
X110948200Y-161210586D01*
X110948200Y-159051800D01*
X111051800Y-159051800D01*
X111051800Y-161210586D01*
X112177406Y-161210586D01*
X112258806Y-161194395D01*
X112334090Y-161144090D01*
X112384395Y-161068806D01*
X112400586Y-160987406D01*
X112400586Y-159051800D01*
X111051800Y-159051800D01*
X110948200Y-159051800D01*
X109599414Y-159051800D01*
X97336892Y-159051800D01*
X97307809Y-158905593D01*
X97290398Y-158777660D01*
X97273957Y-157012594D01*
X109599414Y-157012594D01*
X109599414Y-158948200D01*
X110948200Y-158948200D01*
X110948200Y-156789414D01*
X111051800Y-156789414D01*
X111051800Y-158948200D01*
X112400586Y-158948200D01*
X112400586Y-157012594D01*
X112384395Y-156931194D01*
X112334090Y-156855910D01*
X112258806Y-156805605D01*
X112177406Y-156789414D01*
X111051800Y-156789414D01*
X110948200Y-156789414D01*
X109822594Y-156789414D01*
X109741194Y-156805605D01*
X109665910Y-156855910D01*
X109615605Y-156931194D01*
X109599414Y-157012594D01*
X97273957Y-157012594D01*
X97262646Y-155798379D01*
X97266653Y-155761803D01*
X97373543Y-155139744D01*
X97518206Y-154525380D01*
X97700104Y-153921002D01*
X97918562Y-153328843D01*
X98172760Y-152751133D01*
X98461759Y-152190011D01*
X98784461Y-151647596D01*
X99139687Y-151125876D01*
X99526110Y-150626806D01*
X99943483Y-150150883D01*
X100161224Y-149924141D01*
X100170003Y-149908200D01*
X100190153Y-149888128D01*
X100198910Y-149855703D01*
X100215114Y-149826277D01*
X100213932Y-149767831D01*
X100221542Y-145916443D01*
X103603311Y-145916443D01*
X103636933Y-146110088D01*
X103738014Y-146278648D01*
X103892997Y-146399517D01*
X104081102Y-146456488D01*
X104277105Y-146441922D01*
X104454724Y-146357773D01*
X104590138Y-146215323D01*
X104665363Y-146033268D01*
X104667900Y-145825602D01*
X104597146Y-145641762D01*
X104465252Y-145496046D01*
X104289743Y-145407582D01*
X104094154Y-145388232D01*
X103904714Y-145440592D01*
X103746823Y-145557637D01*
X103641654Y-145723676D01*
X103603311Y-145916443D01*
X100221542Y-145916443D01*
X100227540Y-142881203D01*
X100235621Y-142852070D01*
X100227657Y-142821270D01*
X100227659Y-142820483D01*
X100220184Y-142792366D01*
X100207655Y-142743906D01*
X99745627Y-141927166D01*
X99323428Y-141105541D01*
X98934519Y-140267583D01*
X98579573Y-139414743D01*
X98259134Y-138548332D01*
X97973716Y-137669736D01*
X97723793Y-136780414D01*
X97509759Y-135881763D01*
X97331961Y-134975252D01*
X97190692Y-134062369D01*
X97086844Y-133150439D01*
X102013311Y-133150439D01*
X102046933Y-133344084D01*
X102148014Y-133512644D01*
X102302997Y-133633513D01*
X102491102Y-133690484D01*
X102687105Y-133675918D01*
X102864724Y-133591769D01*
X103000138Y-133449319D01*
X103075363Y-133267264D01*
X103077900Y-133059598D01*
X103007146Y-132875758D01*
X102875252Y-132730042D01*
X102699743Y-132641578D01*
X102504154Y-132622228D01*
X102314714Y-132674588D01*
X102156823Y-132791633D01*
X102051654Y-132957672D01*
X102013311Y-133150439D01*
X97086844Y-133150439D01*
X97086167Y-133144495D01*
X97046612Y-132605429D01*
X97020680Y-129821503D01*
X97038058Y-129453440D01*
X97118623Y-128533182D01*
X97236057Y-127616882D01*
X97390166Y-126706052D01*
X97534073Y-126023352D01*
X100661200Y-126023352D01*
X100661201Y-126023356D01*
X100661201Y-126065403D01*
X100681904Y-126101261D01*
X100692620Y-126141257D01*
X100815519Y-126264157D01*
X100815521Y-126264157D01*
X101646680Y-127095317D01*
X101747553Y-127196191D01*
X101787549Y-127206907D01*
X101823407Y-127227610D01*
X101865454Y-127227610D01*
X101865458Y-127227611D01*
X103505955Y-127227611D01*
X103405070Y-127386886D01*
X103366727Y-127579653D01*
X103400349Y-127773298D01*
X103501430Y-127941858D01*
X103656413Y-128062727D01*
X103844518Y-128119698D01*
X104040521Y-128105132D01*
X104218140Y-128020983D01*
X104353554Y-127878533D01*
X104428779Y-127696478D01*
X104431316Y-127488812D01*
X104360562Y-127304972D01*
X104286707Y-127223377D01*
X104315231Y-127206909D01*
X104355231Y-127196190D01*
X104369822Y-127181599D01*
X111150797Y-127181599D01*
X111134654Y-127207085D01*
X111096311Y-127399852D01*
X111129933Y-127593497D01*
X111231014Y-127762057D01*
X111385997Y-127882926D01*
X111574102Y-127939897D01*
X111770105Y-127925331D01*
X111947724Y-127841182D01*
X111964201Y-127823849D01*
X111964200Y-129287163D01*
X111271543Y-129979821D01*
X111271900Y-129950602D01*
X111201146Y-129766762D01*
X111069252Y-129621046D01*
X111036259Y-129604416D01*
X111058724Y-129593773D01*
X111194138Y-129451323D01*
X111269363Y-129269268D01*
X111271900Y-129061602D01*
X111201146Y-128877762D01*
X111069252Y-128732046D01*
X110893743Y-128643582D01*
X110698154Y-128624232D01*
X110508714Y-128676592D01*
X110350823Y-128793637D01*
X110245654Y-128959676D01*
X110207311Y-129152442D01*
X110224118Y-129249244D01*
X106889495Y-132583869D01*
X106788621Y-132684742D01*
X106777904Y-132724738D01*
X106757201Y-132760597D01*
X106757201Y-132811905D01*
X106757200Y-133643352D01*
X106757201Y-133643356D01*
X106757201Y-133685403D01*
X106777904Y-133721261D01*
X106788620Y-133761257D01*
X106911519Y-133884157D01*
X106911521Y-133884157D01*
X108662201Y-135634839D01*
X108662200Y-137642325D01*
X108476714Y-137693592D01*
X108318823Y-137810637D01*
X108213654Y-137976676D01*
X108175311Y-138169443D01*
X108208933Y-138363088D01*
X108310014Y-138531648D01*
X108464997Y-138652517D01*
X108653102Y-138709488D01*
X108849105Y-138694922D01*
X109026724Y-138610773D01*
X109043200Y-138593441D01*
X109043200Y-139649381D01*
X108953823Y-139715637D01*
X108848654Y-139881676D01*
X108810311Y-140074443D01*
X108843933Y-140268088D01*
X108945014Y-140436648D01*
X109087470Y-140547748D01*
X108970261Y-140634635D01*
X108931267Y-140696198D01*
X105725835Y-140696198D01*
X105025539Y-139995902D01*
X105027900Y-139802602D01*
X104957146Y-139618762D01*
X104825252Y-139473046D01*
X104649743Y-139384582D01*
X104454154Y-139365232D01*
X104264714Y-139417592D01*
X104106823Y-139534637D01*
X104001654Y-139700676D01*
X103963311Y-139893443D01*
X103996933Y-140087088D01*
X104098014Y-140255648D01*
X104252997Y-140376517D01*
X104441102Y-140433488D01*
X104592593Y-140422230D01*
X105442740Y-141272378D01*
X105482736Y-141283094D01*
X105518594Y-141303797D01*
X105560641Y-141303797D01*
X105560645Y-141303798D01*
X108930360Y-141303798D01*
X108961452Y-141355646D01*
X109017558Y-141399402D01*
X106212245Y-141399402D01*
X106212241Y-141399403D01*
X106170194Y-141399403D01*
X106134336Y-141420106D01*
X106094340Y-141430822D01*
X105740200Y-141784963D01*
X105480757Y-141525520D01*
X105480757Y-141525519D01*
X105357858Y-141402621D01*
X105317858Y-141391902D01*
X105282003Y-141371201D01*
X105239957Y-141371201D01*
X105239953Y-141371200D01*
X104911733Y-141371200D01*
X104800260Y-141248046D01*
X104624751Y-141159582D01*
X104429162Y-141140232D01*
X104239722Y-141192592D01*
X104081831Y-141309637D01*
X103976662Y-141475676D01*
X103938319Y-141668443D01*
X103971941Y-141862088D01*
X104073022Y-142030648D01*
X104228005Y-142151517D01*
X104416110Y-142208488D01*
X104612113Y-142193922D01*
X104789732Y-142109773D01*
X104914236Y-141978800D01*
X105074764Y-141978800D01*
X105436400Y-142340437D01*
X105436400Y-142355553D01*
X105436401Y-142355557D01*
X105436400Y-148031381D01*
X105347023Y-148097637D01*
X105241854Y-148263676D01*
X105203511Y-148456443D01*
X105237133Y-148650088D01*
X105338214Y-148818648D01*
X105493197Y-148939517D01*
X105681302Y-148996488D01*
X105877305Y-148981922D01*
X106054924Y-148897773D01*
X106190338Y-148755323D01*
X106265563Y-148573268D01*
X106268100Y-148365602D01*
X106197346Y-148181762D01*
X106065452Y-148036046D01*
X106044000Y-148025233D01*
X106044000Y-142340437D01*
X106377436Y-142007002D01*
X108272982Y-142007002D01*
X108213654Y-142100668D01*
X108175311Y-142293434D01*
X108192119Y-142390236D01*
X106936921Y-143645435D01*
X106936919Y-143645435D01*
X106814020Y-143768335D01*
X106803304Y-143808331D01*
X106782601Y-143844189D01*
X106782601Y-143886236D01*
X106782600Y-143886240D01*
X106782601Y-148031381D01*
X106693223Y-148097638D01*
X106588054Y-148263676D01*
X106549711Y-148456443D01*
X106583333Y-148650088D01*
X106684414Y-148818648D01*
X106839397Y-148939517D01*
X107027502Y-148996488D01*
X107223505Y-148981922D01*
X107367626Y-148913643D01*
X110943911Y-148913643D01*
X110977533Y-149107288D01*
X111078614Y-149275848D01*
X111233597Y-149396717D01*
X111421702Y-149453688D01*
X111617705Y-149439122D01*
X111795324Y-149354973D01*
X111919828Y-149224000D01*
X113958353Y-149224000D01*
X113958357Y-149223999D01*
X114000403Y-149223999D01*
X114036258Y-149203298D01*
X114076258Y-149192579D01*
X114199157Y-149069681D01*
X114199157Y-149069679D01*
X116238599Y-147030238D01*
X116273102Y-147040688D01*
X116469105Y-147026122D01*
X116646724Y-146941973D01*
X116782138Y-146799523D01*
X116857363Y-146617468D01*
X116859900Y-146409802D01*
X116789146Y-146225962D01*
X116657252Y-146080246D01*
X116481743Y-145991782D01*
X116286154Y-145972432D01*
X116096714Y-146024792D01*
X115938823Y-146141837D01*
X115833654Y-146307876D01*
X115795311Y-146500642D01*
X115812119Y-146597444D01*
X113793164Y-148616400D01*
X111917325Y-148616400D01*
X111805852Y-148493246D01*
X111630343Y-148404782D01*
X111434754Y-148385432D01*
X111245314Y-148437792D01*
X111087423Y-148554837D01*
X110982254Y-148720876D01*
X110943911Y-148913643D01*
X107367626Y-148913643D01*
X107401124Y-148897773D01*
X107536538Y-148755323D01*
X107611763Y-148573268D01*
X107614300Y-148365602D01*
X107543546Y-148181762D01*
X107521501Y-148157406D01*
X108229414Y-148157406D01*
X108245605Y-148238806D01*
X108295910Y-148314090D01*
X108371194Y-148364395D01*
X108452594Y-148380586D01*
X110948200Y-148380586D01*
X110948200Y-146221800D01*
X111051800Y-146221800D01*
X111051800Y-148380586D01*
X113547406Y-148380586D01*
X113628806Y-148364395D01*
X113704090Y-148314090D01*
X113754395Y-148238806D01*
X113770586Y-148157406D01*
X113770586Y-146978332D01*
X113875197Y-147059917D01*
X114063302Y-147116888D01*
X114259305Y-147102322D01*
X114436924Y-147018173D01*
X114572338Y-146875723D01*
X114647563Y-146693668D01*
X114650100Y-146486002D01*
X114579346Y-146302162D01*
X114447452Y-146156446D01*
X114271943Y-146067982D01*
X114076354Y-146048632D01*
X113886914Y-146100992D01*
X113729023Y-146218037D01*
X113726640Y-146221800D01*
X111051800Y-146221800D01*
X110948200Y-146221800D01*
X108229414Y-146221800D01*
X108229414Y-148157406D01*
X107521501Y-148157406D01*
X107411652Y-148036046D01*
X107390200Y-148025233D01*
X107390200Y-146221800D01*
X107390200Y-144182594D01*
X108229414Y-144182594D01*
X108229414Y-146118200D01*
X110948200Y-146118200D01*
X110948200Y-143959414D01*
X111051800Y-143959414D01*
X111051800Y-146118200D01*
X113770586Y-146118200D01*
X113770586Y-144182594D01*
X113754395Y-144101194D01*
X113704090Y-144025910D01*
X113628806Y-143975605D01*
X113547406Y-143959414D01*
X111051800Y-143959414D01*
X110948200Y-143959414D01*
X108452594Y-143959414D01*
X108371194Y-143975605D01*
X108295910Y-144025910D01*
X108245605Y-144101194D01*
X108229414Y-144182594D01*
X107390200Y-144182594D01*
X107390200Y-144051428D01*
X108618599Y-142823030D01*
X108653102Y-142833480D01*
X108849105Y-142818914D01*
X109026724Y-142734765D01*
X109151228Y-142603792D01*
X109408156Y-142603792D01*
X110079469Y-143275106D01*
X110180342Y-143375980D01*
X110220338Y-143386696D01*
X110256196Y-143407399D01*
X110298243Y-143407399D01*
X110298247Y-143407400D01*
X115494964Y-143407400D01*
X117171200Y-145083638D01*
X117171201Y-148325547D01*
X117171201Y-148468203D01*
X117191904Y-148504062D01*
X117202621Y-148544058D01*
X117238902Y-148580338D01*
X119559536Y-150900974D01*
X119469154Y-150892032D01*
X119279714Y-150944392D01*
X119121823Y-151061437D01*
X119082829Y-151123000D01*
X118840535Y-151123000D01*
X118965138Y-150991923D01*
X119040363Y-150809868D01*
X119042900Y-150602202D01*
X118972146Y-150418362D01*
X118840252Y-150272646D01*
X118664743Y-150184182D01*
X118469154Y-150164832D01*
X118422707Y-150177670D01*
X117930157Y-149685121D01*
X117930157Y-149685119D01*
X117807258Y-149562221D01*
X117767258Y-149551502D01*
X117731403Y-149530801D01*
X117689357Y-149530801D01*
X117689353Y-149530800D01*
X108894725Y-149530800D01*
X108783252Y-149407646D01*
X108607743Y-149319182D01*
X108412154Y-149299832D01*
X108222714Y-149352192D01*
X108064823Y-149469237D01*
X107959654Y-149635276D01*
X107921311Y-149828043D01*
X107954933Y-150021688D01*
X108056014Y-150190248D01*
X108210997Y-150311117D01*
X108399102Y-150368088D01*
X108595105Y-150353522D01*
X108772724Y-150269373D01*
X108897228Y-150138400D01*
X111635594Y-150138400D01*
X111544623Y-150205837D01*
X111439454Y-150371876D01*
X111401111Y-150564643D01*
X111434733Y-150758288D01*
X111535814Y-150926848D01*
X111690797Y-151047717D01*
X111878902Y-151104688D01*
X112030393Y-151093430D01*
X112636142Y-151699180D01*
X112676138Y-151709896D01*
X112711996Y-151730599D01*
X112754043Y-151730599D01*
X112754047Y-151730600D01*
X119081922Y-151730600D01*
X119113014Y-151782448D01*
X119267997Y-151903317D01*
X119456102Y-151960288D01*
X119652105Y-151945722D01*
X119829724Y-151861573D01*
X119965138Y-151719123D01*
X120015608Y-151596978D01*
X120019933Y-151621888D01*
X120121014Y-151790448D01*
X120275997Y-151911317D01*
X120464102Y-151968288D01*
X120660105Y-151953722D01*
X120837724Y-151869573D01*
X120973138Y-151727123D01*
X121048363Y-151545068D01*
X121050900Y-151337402D01*
X120980146Y-151153562D01*
X120848252Y-151007846D01*
X120672743Y-150919382D01*
X120477154Y-150900033D01*
X120430707Y-150912870D01*
X117778800Y-148260964D01*
X117778800Y-144918447D01*
X117778799Y-144918443D01*
X117778799Y-144876398D01*
X117758097Y-144840539D01*
X117747379Y-144800541D01*
X117716369Y-144769532D01*
X117716365Y-144769526D01*
X115900957Y-142954121D01*
X115900957Y-142954119D01*
X115778058Y-142831221D01*
X115738058Y-142820502D01*
X115702203Y-142799801D01*
X115660157Y-142799801D01*
X115660153Y-142799800D01*
X110463437Y-142799800D01*
X109967136Y-142303500D01*
X111615098Y-140655539D01*
X111651380Y-140619258D01*
X111662096Y-140579262D01*
X111682799Y-140543404D01*
X111682799Y-140501357D01*
X111682800Y-140501353D01*
X111682800Y-138804443D01*
X114906311Y-138804443D01*
X114939933Y-138998088D01*
X115041014Y-139166648D01*
X115195997Y-139287517D01*
X115384102Y-139344488D01*
X115580105Y-139329922D01*
X115757724Y-139245773D01*
X115892465Y-139104032D01*
X115930014Y-139166648D01*
X116084997Y-139287517D01*
X116273102Y-139344488D01*
X116424593Y-139333230D01*
X118212600Y-141121237D01*
X118212601Y-146551582D01*
X118212600Y-146551586D01*
X118212600Y-146583583D01*
X118123223Y-146649839D01*
X118018054Y-146815878D01*
X117979711Y-147008645D01*
X118013333Y-147202290D01*
X118114414Y-147370850D01*
X118269397Y-147491719D01*
X118457502Y-147548690D01*
X118653505Y-147534124D01*
X118831124Y-147449975D01*
X118966538Y-147307525D01*
X119041763Y-147125470D01*
X119044300Y-146917804D01*
X118973546Y-146733964D01*
X118841652Y-146588248D01*
X118820200Y-146577435D01*
X118820200Y-144182594D01*
X126229414Y-144182594D01*
X126229414Y-148157406D01*
X126245605Y-148238806D01*
X126295910Y-148314090D01*
X126371194Y-148364395D01*
X126452594Y-148380586D01*
X128522401Y-148380586D01*
X128522401Y-148788959D01*
X128513044Y-148836000D01*
X128550111Y-149022350D01*
X128624912Y-149134297D01*
X128655671Y-149180330D01*
X128695550Y-149206977D01*
X130316400Y-150827828D01*
X130316401Y-154540678D01*
X130286253Y-154588276D01*
X130247910Y-154781043D01*
X130281532Y-154974689D01*
X130306999Y-155017157D01*
X130306999Y-155021573D01*
X128695550Y-156633023D01*
X128655671Y-156659670D01*
X128629026Y-156699546D01*
X128629025Y-156699547D01*
X128568978Y-156789414D01*
X127822594Y-156789414D01*
X127741194Y-156805605D01*
X127665910Y-156855910D01*
X127615605Y-156931194D01*
X127599414Y-157012594D01*
X127599414Y-160987406D01*
X127615605Y-161068806D01*
X127665910Y-161144090D01*
X127741194Y-161194395D01*
X127822594Y-161210586D01*
X130177406Y-161210586D01*
X130258806Y-161194395D01*
X130334090Y-161144090D01*
X130384395Y-161068806D01*
X130400586Y-160987406D01*
X130400586Y-157012594D01*
X130384395Y-156931194D01*
X130334090Y-156855910D01*
X130258806Y-156805605D01*
X130177406Y-156789414D01*
X129890013Y-156789414D01*
X131089050Y-155590378D01*
X131128929Y-155563731D01*
X131166715Y-155507181D01*
X131234488Y-155405751D01*
X131271555Y-155219402D01*
X131262199Y-155172365D01*
X131262199Y-155013462D01*
X131309962Y-154897868D01*
X131312499Y-154690202D01*
X131271600Y-154583932D01*
X131271600Y-150677036D01*
X131280956Y-150629999D01*
X131243889Y-150443649D01*
X131164975Y-150325546D01*
X131138330Y-150285670D01*
X131098451Y-150259023D01*
X129477600Y-148638173D01*
X129477600Y-148380586D01*
X131547406Y-148380586D01*
X131628806Y-148364395D01*
X131704090Y-148314090D01*
X131754395Y-148238806D01*
X131770586Y-148157406D01*
X131770586Y-144182594D01*
X131754395Y-144101194D01*
X131704090Y-144025910D01*
X131628806Y-143975605D01*
X131547406Y-143959414D01*
X126452594Y-143959414D01*
X126371194Y-143975605D01*
X126295910Y-144025910D01*
X126245605Y-144101194D01*
X126229414Y-144182594D01*
X118820200Y-144182594D01*
X118820200Y-143393443D01*
X124963315Y-143393443D01*
X124996937Y-143587088D01*
X125098018Y-143755648D01*
X125253001Y-143876517D01*
X125441106Y-143933488D01*
X125637109Y-143918922D01*
X125814728Y-143834773D01*
X125950142Y-143692323D01*
X126025367Y-143510268D01*
X126027904Y-143302602D01*
X125957150Y-143118762D01*
X125825256Y-142973046D01*
X125649747Y-142884582D01*
X125454158Y-142865232D01*
X125264718Y-142917592D01*
X125106827Y-143034637D01*
X125001658Y-143200676D01*
X124963315Y-143393443D01*
X118820200Y-143393443D01*
X118820200Y-140956047D01*
X118820199Y-140956043D01*
X118820199Y-140913996D01*
X118799496Y-140878138D01*
X118788780Y-140838142D01*
X118752498Y-140801861D01*
X116857538Y-138906902D01*
X116859900Y-138713602D01*
X116789146Y-138529762D01*
X116657252Y-138384046D01*
X116481743Y-138295582D01*
X116396488Y-138287148D01*
X117981837Y-136701800D01*
X120724922Y-136701800D01*
X120756014Y-136753648D01*
X120910997Y-136874517D01*
X121099102Y-136931488D01*
X121295105Y-136916922D01*
X121472724Y-136832773D01*
X121608138Y-136690323D01*
X121683363Y-136508268D01*
X121685900Y-136300602D01*
X121615146Y-136116762D01*
X121483252Y-135971046D01*
X121307743Y-135882582D01*
X121112154Y-135863232D01*
X120922714Y-135915592D01*
X120764823Y-136032637D01*
X120725829Y-136094200D01*
X117816647Y-136094200D01*
X117816643Y-136094201D01*
X117774596Y-136094201D01*
X117738738Y-136114904D01*
X117698742Y-136125620D01*
X117662461Y-136161902D01*
X115534540Y-138289824D01*
X115397154Y-138276233D01*
X115207714Y-138328592D01*
X115049823Y-138445637D01*
X114944654Y-138611676D01*
X114906311Y-138804443D01*
X111682800Y-138804443D01*
X111682800Y-134395853D01*
X111766997Y-134461517D01*
X111955102Y-134518488D01*
X112151105Y-134503922D01*
X112328724Y-134419773D01*
X112464138Y-134277323D01*
X112539363Y-134095268D01*
X112541900Y-133887602D01*
X112471146Y-133703762D01*
X112339252Y-133558046D01*
X112317800Y-133547233D01*
X112317800Y-133252853D01*
X112401997Y-133318517D01*
X112590102Y-133375488D01*
X112786105Y-133360922D01*
X112963724Y-133276773D01*
X113099138Y-133134323D01*
X113174363Y-132952268D01*
X113176900Y-132744602D01*
X113106146Y-132560762D01*
X112974252Y-132415046D01*
X112952800Y-132404233D01*
X112952800Y-131189836D01*
X113921509Y-130221128D01*
X113923933Y-130235089D01*
X114025013Y-130403649D01*
X114179996Y-130524518D01*
X114368101Y-130581489D01*
X114564104Y-130566923D01*
X114704007Y-130500643D01*
X115520201Y-131316839D01*
X115520200Y-132410381D01*
X115430823Y-132476637D01*
X115325654Y-132642676D01*
X115287311Y-132835443D01*
X115320933Y-133029088D01*
X115422014Y-133197648D01*
X115536740Y-133287121D01*
X115430823Y-133365637D01*
X115325654Y-133531676D01*
X115287311Y-133724443D01*
X115320933Y-133918088D01*
X115422014Y-134086648D01*
X115525044Y-134167000D01*
X115406823Y-134254637D01*
X115301654Y-134420676D01*
X115263311Y-134613443D01*
X115296933Y-134807088D01*
X115398014Y-134975648D01*
X115552997Y-135096517D01*
X115741102Y-135153488D01*
X115937105Y-135138922D01*
X116114724Y-135054773D01*
X116250138Y-134912323D01*
X116325363Y-134730268D01*
X116327900Y-134522601D01*
X116327660Y-134521976D01*
X118014193Y-132835443D01*
X119986311Y-132835443D01*
X120019933Y-133029088D01*
X120121014Y-133197648D01*
X120275997Y-133318517D01*
X120464102Y-133375488D01*
X120660105Y-133360922D01*
X120837724Y-133276773D01*
X120973138Y-133134323D01*
X121048363Y-132952268D01*
X121049790Y-132835443D01*
X122272311Y-132835443D01*
X122305933Y-133029088D01*
X122407014Y-133197648D01*
X122561997Y-133318517D01*
X122750102Y-133375488D01*
X122946105Y-133360922D01*
X123123724Y-133276773D01*
X123259138Y-133134323D01*
X123334363Y-132952268D01*
X123336900Y-132744602D01*
X123266146Y-132560762D01*
X123134252Y-132415046D01*
X123112800Y-132404233D01*
X123112800Y-131630948D01*
X123123723Y-131625773D01*
X123259138Y-131483323D01*
X123334363Y-131301268D01*
X123336900Y-131093602D01*
X123266146Y-130909762D01*
X123134252Y-130764046D01*
X122958743Y-130675582D01*
X122763154Y-130656232D01*
X122573714Y-130708592D01*
X122415823Y-130825637D01*
X122310654Y-130991676D01*
X122272311Y-131184443D01*
X122305933Y-131378088D01*
X122407014Y-131546648D01*
X122505200Y-131623222D01*
X122505201Y-132410381D01*
X122415823Y-132476637D01*
X122310654Y-132642676D01*
X122272311Y-132835443D01*
X121049790Y-132835443D01*
X121050900Y-132744602D01*
X120980146Y-132560762D01*
X120848252Y-132415046D01*
X120826800Y-132404233D01*
X120826800Y-131630948D01*
X120837723Y-131625773D01*
X120973138Y-131483323D01*
X121048363Y-131301268D01*
X121049790Y-131184443D01*
X121050900Y-131093602D01*
X120980146Y-130909762D01*
X120848252Y-130764046D01*
X120672743Y-130675582D01*
X120477154Y-130656232D01*
X120287714Y-130708592D01*
X120129823Y-130825637D01*
X120024654Y-130991676D01*
X119986311Y-131184443D01*
X120019933Y-131378088D01*
X120121014Y-131546648D01*
X120219201Y-131623222D01*
X120219200Y-132410381D01*
X120129823Y-132476637D01*
X120024654Y-132642676D01*
X119986311Y-132835443D01*
X118014193Y-132835443D01*
X119665194Y-131184443D01*
X121910728Y-128938910D01*
X121910729Y-128938908D01*
X121938379Y-128911258D01*
X121949097Y-128871262D01*
X121969800Y-128835403D01*
X121969800Y-124547647D01*
X121969799Y-124547643D01*
X121969799Y-124505596D01*
X121949096Y-124469738D01*
X121938380Y-124429742D01*
X121882806Y-124374169D01*
X121715800Y-124207164D01*
X121715800Y-123493799D01*
X121747403Y-123493799D01*
X121783258Y-123473098D01*
X121823258Y-123462379D01*
X121946157Y-123339481D01*
X121946157Y-123339479D01*
X124083124Y-121202514D01*
X124097380Y-121188259D01*
X124108096Y-121148262D01*
X124128799Y-121112404D01*
X124128799Y-121070357D01*
X124128800Y-121070353D01*
X124128800Y-119946948D01*
X124139723Y-119941773D01*
X124275138Y-119799323D01*
X124350363Y-119617268D01*
X124352900Y-119409602D01*
X124282146Y-119225762D01*
X124150252Y-119080046D01*
X124088261Y-119048800D01*
X124334164Y-119048800D01*
X125553201Y-120267838D01*
X125553200Y-125007352D01*
X125553201Y-125007356D01*
X125553201Y-125049403D01*
X125573904Y-125085261D01*
X125584620Y-125125257D01*
X125707519Y-125248157D01*
X125707521Y-125248157D01*
X131319001Y-130859638D01*
X131319001Y-130889370D01*
X125493532Y-125063902D01*
X125495894Y-124870602D01*
X125425140Y-124686762D01*
X125293246Y-124541046D01*
X125117737Y-124452582D01*
X124922148Y-124433232D01*
X124732708Y-124485592D01*
X124574817Y-124602637D01*
X124523235Y-124684074D01*
X124398752Y-124546546D01*
X124223243Y-124458082D01*
X124027654Y-124438732D01*
X123838214Y-124491092D01*
X123680323Y-124608137D01*
X123631468Y-124685268D01*
X123515248Y-124556868D01*
X123339739Y-124468404D01*
X123144150Y-124449054D01*
X122954710Y-124501414D01*
X122796819Y-124618459D01*
X122691650Y-124784498D01*
X122668300Y-124901889D01*
X122668300Y-124307838D01*
X122679223Y-124302663D01*
X122814638Y-124160213D01*
X122889863Y-123978158D01*
X122892400Y-123770492D01*
X122821646Y-123586652D01*
X122689752Y-123440936D01*
X122514243Y-123352472D01*
X122318654Y-123333122D01*
X122129214Y-123385482D01*
X121971323Y-123502527D01*
X121866154Y-123668566D01*
X121827811Y-123861333D01*
X121861433Y-124054978D01*
X121962514Y-124223538D01*
X122060700Y-124300112D01*
X122060701Y-126113247D01*
X122060701Y-126255903D01*
X122081404Y-126291762D01*
X122092121Y-126331758D01*
X122128402Y-126368038D01*
X125426200Y-129665838D01*
X125426200Y-130875565D01*
X125325257Y-130764044D01*
X125149748Y-130675580D01*
X124954159Y-130656230D01*
X124764719Y-130708590D01*
X124606828Y-130825635D01*
X124501659Y-130991674D01*
X124463316Y-131184441D01*
X124496938Y-131378086D01*
X124598019Y-131546646D01*
X124753002Y-131667515D01*
X124941107Y-131724486D01*
X124996204Y-131720392D01*
X124996204Y-133409349D01*
X124863742Y-133342583D01*
X124668153Y-133323233D01*
X124478713Y-133375593D01*
X124320822Y-133492638D01*
X124215653Y-133658677D01*
X124177310Y-133851444D01*
X124210932Y-134045089D01*
X124312013Y-134213649D01*
X124466996Y-134334518D01*
X124655101Y-134391489D01*
X124851104Y-134376923D01*
X124996204Y-134308179D01*
X124996205Y-135949342D01*
X124863743Y-135882576D01*
X124668154Y-135863226D01*
X124478714Y-135915586D01*
X124320823Y-136032631D01*
X124215654Y-136198670D01*
X124177311Y-136391437D01*
X124210933Y-136585082D01*
X124312014Y-136753642D01*
X124466997Y-136874511D01*
X124655102Y-136931482D01*
X124851105Y-136916916D01*
X124996205Y-136848173D01*
X124996205Y-137827417D01*
X125016908Y-137863276D01*
X125027625Y-137903272D01*
X125063906Y-137939552D01*
X126098984Y-138974631D01*
X126082311Y-139058452D01*
X126115933Y-139252098D01*
X126217014Y-139420658D01*
X126371997Y-139541527D01*
X126560102Y-139598498D01*
X126756105Y-139583932D01*
X126933724Y-139499783D01*
X127069138Y-139357333D01*
X127144363Y-139175278D01*
X127146900Y-138967612D01*
X127076146Y-138783772D01*
X126944252Y-138638056D01*
X126768743Y-138549592D01*
X126573154Y-138530242D01*
X126526707Y-138543080D01*
X125603804Y-137620178D01*
X125603804Y-136828440D01*
X126098984Y-137323621D01*
X126082311Y-137407442D01*
X126115933Y-137601088D01*
X126217014Y-137769648D01*
X126371997Y-137890517D01*
X126560102Y-137947488D01*
X126756105Y-137932922D01*
X126933724Y-137848773D01*
X127069138Y-137706323D01*
X127144363Y-137524268D01*
X127146900Y-137316602D01*
X127076146Y-137132762D01*
X126944252Y-136987046D01*
X126911259Y-136970416D01*
X126933724Y-136959773D01*
X127069138Y-136817323D01*
X127144363Y-136635268D01*
X127146900Y-136427602D01*
X127076146Y-136243762D01*
X126944252Y-136098046D01*
X126768743Y-136009582D01*
X126573154Y-135990232D01*
X126526708Y-136003070D01*
X126389422Y-135865784D01*
X126389422Y-135505084D01*
X126435498Y-135541018D01*
X126623603Y-135597989D01*
X126819606Y-135583423D01*
X126997225Y-135499274D01*
X127132639Y-135356824D01*
X127174062Y-135256575D01*
X127216657Y-135213981D01*
X127216657Y-135213979D01*
X127875897Y-134554740D01*
X127912179Y-134518459D01*
X127922895Y-134478463D01*
X127943598Y-134442605D01*
X127943598Y-134400558D01*
X127943599Y-134400554D01*
X127943599Y-131547239D01*
X128109511Y-131597488D01*
X128305514Y-131582922D01*
X128483133Y-131498773D01*
X128618547Y-131356323D01*
X128693772Y-131174268D01*
X128696309Y-130966602D01*
X128625555Y-130782762D01*
X128493661Y-130637046D01*
X128318152Y-130548582D01*
X128122563Y-130529232D01*
X127943599Y-130578697D01*
X127943599Y-129352222D01*
X127922896Y-129316363D01*
X127912178Y-129276367D01*
X127881168Y-129245357D01*
X127881164Y-129245351D01*
X124133932Y-125498120D01*
X124166093Y-125495730D01*
X124188590Y-125518227D01*
X124188592Y-125518228D01*
X129208378Y-130538015D01*
X129050714Y-130581592D01*
X128892823Y-130698637D01*
X128787654Y-130864676D01*
X128749311Y-131057443D01*
X128782933Y-131251088D01*
X128884014Y-131419648D01*
X129038997Y-131540517D01*
X129227102Y-131597488D01*
X129321557Y-131590469D01*
X129321558Y-132547023D01*
X129321557Y-132547027D01*
X129321557Y-132579024D01*
X129232180Y-132645280D01*
X129127011Y-132811319D01*
X129088668Y-133004086D01*
X129122290Y-133197731D01*
X129223371Y-133366291D01*
X129378354Y-133487160D01*
X129566459Y-133544131D01*
X129762462Y-133529565D01*
X129940081Y-133445416D01*
X130075495Y-133302966D01*
X130102232Y-133238259D01*
X130154034Y-133324642D01*
X130309017Y-133445511D01*
X130497122Y-133502482D01*
X130693125Y-133487916D01*
X130861801Y-133408004D01*
X130861801Y-134710063D01*
X130861592Y-134710272D01*
X130861590Y-134710273D01*
X130838039Y-134733824D01*
X130700654Y-134720233D01*
X130511214Y-134772592D01*
X130353323Y-134889637D01*
X130248154Y-135055676D01*
X130209811Y-135248443D01*
X130243433Y-135442088D01*
X130344514Y-135610648D01*
X130499497Y-135731517D01*
X130687602Y-135788488D01*
X130883605Y-135773922D01*
X131061224Y-135689773D01*
X131196638Y-135547323D01*
X131271863Y-135365268D01*
X131274400Y-135157602D01*
X131274160Y-135156977D01*
X131291227Y-135139910D01*
X131291228Y-135139908D01*
X131315079Y-135116057D01*
X131315081Y-135116057D01*
X131319001Y-135112137D01*
X131319000Y-141682372D01*
X130577549Y-142423824D01*
X130440164Y-142410233D01*
X130250724Y-142462592D01*
X130092833Y-142579637D01*
X129987664Y-142745676D01*
X129949321Y-142938443D01*
X129982943Y-143132088D01*
X130084024Y-143300648D01*
X130239007Y-143421517D01*
X130427112Y-143478488D01*
X130623115Y-143463922D01*
X130800734Y-143379773D01*
X130936148Y-143237323D01*
X131011373Y-143055268D01*
X131013910Y-142847601D01*
X131013670Y-142846976D01*
X131864165Y-141996484D01*
X131864169Y-141996478D01*
X131895180Y-141965468D01*
X131905897Y-141925471D01*
X131926599Y-141889614D01*
X131926599Y-141847567D01*
X131926600Y-141847563D01*
X131926600Y-133078781D01*
X131946933Y-133195888D01*
X132048014Y-133364448D01*
X132202997Y-133485317D01*
X132391102Y-133542288D01*
X132587105Y-133527722D01*
X132764724Y-133443573D01*
X132900138Y-133301123D01*
X132975363Y-133119068D01*
X132977900Y-132911402D01*
X132950957Y-132841396D01*
X133037108Y-132867488D01*
X133233111Y-132852922D01*
X133410730Y-132768773D01*
X133546144Y-132626323D01*
X133621369Y-132444268D01*
X133623906Y-132236602D01*
X133553152Y-132052762D01*
X133421258Y-131907046D01*
X133412932Y-131902849D01*
X133546138Y-131762723D01*
X133621363Y-131580668D01*
X133623900Y-131373002D01*
X133553146Y-131189162D01*
X133421252Y-131043446D01*
X133399800Y-131032633D01*
X133399800Y-129500647D01*
X133399799Y-129500643D01*
X133399799Y-129458596D01*
X133379096Y-129422738D01*
X133368380Y-129382742D01*
X133330209Y-129344572D01*
X129049538Y-125063902D01*
X129051900Y-124870602D01*
X128981146Y-124686762D01*
X128849252Y-124541046D01*
X128673743Y-124452582D01*
X128478154Y-124433232D01*
X128288714Y-124485592D01*
X128130823Y-124602637D01*
X128083547Y-124677275D01*
X127960240Y-124541046D01*
X127784731Y-124452582D01*
X127589142Y-124433232D01*
X127399702Y-124485592D01*
X127241811Y-124602637D01*
X127136642Y-124768676D01*
X127098299Y-124961443D01*
X127131921Y-125155088D01*
X127233002Y-125323648D01*
X127387985Y-125444517D01*
X127576090Y-125501488D01*
X127727581Y-125490230D01*
X127750078Y-125512727D01*
X127750080Y-125512728D01*
X132289790Y-130052439D01*
X132289789Y-130849199D01*
X132284303Y-130869675D01*
X132263600Y-130905533D01*
X132263600Y-130947581D01*
X132263599Y-130947585D01*
X132263600Y-131744140D01*
X132263600Y-131886796D01*
X132284303Y-131922655D01*
X132295020Y-131962651D01*
X132331301Y-131998931D01*
X132575990Y-132243621D01*
X132559317Y-132327442D01*
X132587926Y-132492213D01*
X132404154Y-132474032D01*
X132214714Y-132526392D01*
X132056823Y-132643437D01*
X131951654Y-132809476D01*
X131926600Y-132935433D01*
X131926600Y-130652397D01*
X131905897Y-130616538D01*
X131895180Y-130576542D01*
X131794306Y-130475669D01*
X126160800Y-124842164D01*
X126160800Y-120770443D01*
X131797311Y-120770443D01*
X131830933Y-120964088D01*
X131932014Y-121132648D01*
X132086997Y-121253517D01*
X132275102Y-121310488D01*
X132471105Y-121295922D01*
X132648724Y-121211773D01*
X132784138Y-121069323D01*
X132859363Y-120887268D01*
X132861900Y-120679601D01*
X132861660Y-120678977D01*
X133594728Y-119945910D01*
X133594729Y-119945908D01*
X133622380Y-119918258D01*
X133633097Y-119878261D01*
X133653799Y-119842404D01*
X133653799Y-119800357D01*
X133653800Y-119800353D01*
X133653800Y-105554410D01*
X133741105Y-105547922D01*
X133918724Y-105463773D01*
X134054138Y-105321323D01*
X134129363Y-105139268D01*
X134131900Y-104931602D01*
X134061146Y-104747762D01*
X133929252Y-104602046D01*
X133753743Y-104513582D01*
X133558154Y-104494232D01*
X133368714Y-104546592D01*
X133210823Y-104663637D01*
X133105654Y-104829676D01*
X133067311Y-105022442D01*
X133084119Y-105119245D01*
X133077620Y-105125744D01*
X133066904Y-105165739D01*
X133046201Y-105201597D01*
X133046201Y-105243644D01*
X133046200Y-105243648D01*
X133046201Y-119635161D01*
X132425539Y-120255824D01*
X132288154Y-120242233D01*
X132098714Y-120294592D01*
X131940823Y-120411637D01*
X131835654Y-120577676D01*
X131797311Y-120770443D01*
X126160800Y-120770443D01*
X126160800Y-120102647D01*
X126160799Y-120102643D01*
X126160799Y-120060596D01*
X126140096Y-120024738D01*
X126129380Y-119984742D01*
X126028506Y-119883869D01*
X125645080Y-119500443D01*
X130527311Y-119500443D01*
X130560933Y-119694088D01*
X130662014Y-119862648D01*
X130816997Y-119983517D01*
X131005102Y-120040488D01*
X131201105Y-120025922D01*
X131378724Y-119941773D01*
X131514138Y-119799323D01*
X131589363Y-119617268D01*
X131591900Y-119409602D01*
X131521146Y-119225762D01*
X131389252Y-119080046D01*
X131213743Y-118991582D01*
X131018154Y-118972232D01*
X130828714Y-119024592D01*
X130670823Y-119141637D01*
X130565654Y-119307676D01*
X130527311Y-119500443D01*
X125645080Y-119500443D01*
X124740157Y-118595521D01*
X124740157Y-118595519D01*
X124617258Y-118472621D01*
X124577258Y-118461902D01*
X124541403Y-118441201D01*
X124499357Y-118441201D01*
X124499353Y-118441200D01*
X118419721Y-118441200D01*
X118394920Y-118413800D01*
X121197353Y-118413800D01*
X121197357Y-118413799D01*
X121239403Y-118413799D01*
X121275258Y-118393098D01*
X121315258Y-118382379D01*
X121438157Y-118259481D01*
X121438157Y-118259479D01*
X122291728Y-117405910D01*
X122291729Y-117405908D01*
X122319380Y-117378258D01*
X122330097Y-117338261D01*
X122350799Y-117302404D01*
X122350799Y-117260357D01*
X122350800Y-117260353D01*
X122350800Y-116684436D01*
X123304984Y-117638622D01*
X123288311Y-117722442D01*
X123321933Y-117916088D01*
X123423014Y-118084648D01*
X123577997Y-118205517D01*
X123766102Y-118262488D01*
X123962105Y-118247922D01*
X124139724Y-118163773D01*
X124275138Y-118021323D01*
X124350363Y-117839268D01*
X124352900Y-117631602D01*
X124282146Y-117447762D01*
X124150252Y-117302046D01*
X123974743Y-117213582D01*
X123779154Y-117194232D01*
X123732708Y-117207070D01*
X122731800Y-116206164D01*
X122731800Y-108741853D01*
X122815997Y-108807517D01*
X123004102Y-108864488D01*
X123200105Y-108849922D01*
X123377724Y-108765773D01*
X123513138Y-108623323D01*
X123588363Y-108441268D01*
X123590900Y-108233602D01*
X123520146Y-108049762D01*
X123388252Y-107904046D01*
X123212743Y-107815582D01*
X123017154Y-107796232D01*
X122827714Y-107848592D01*
X122731800Y-107919693D01*
X122731800Y-107021647D01*
X122731799Y-107021643D01*
X122731799Y-106979596D01*
X122711097Y-106943739D01*
X122700380Y-106903742D01*
X122669369Y-106872732D01*
X122669365Y-106872726D01*
X121387346Y-105590710D01*
X121387346Y-105590708D01*
X121264447Y-105467810D01*
X121224447Y-105457091D01*
X121188592Y-105436390D01*
X121146546Y-105436390D01*
X121146542Y-105436389D01*
X111263452Y-105436389D01*
X111263448Y-105436390D01*
X111221401Y-105436390D01*
X111185544Y-105457092D01*
X111145547Y-105467809D01*
X111117897Y-105495460D01*
X111117895Y-105495461D01*
X111091538Y-105521818D01*
X110954154Y-105508226D01*
X110764714Y-105560586D01*
X110714954Y-105597473D01*
X111059828Y-105252600D01*
X121087173Y-105252600D01*
X123601401Y-107766829D01*
X123601400Y-115649964D01*
X123592044Y-115697000D01*
X123602845Y-115751301D01*
X123629111Y-115883350D01*
X123734670Y-116041330D01*
X123774552Y-116067979D01*
X124851025Y-117144453D01*
X124877670Y-117184330D01*
X124917546Y-117210975D01*
X125035649Y-117289889D01*
X125221999Y-117326956D01*
X125269036Y-117317600D01*
X126229414Y-117317600D01*
X126229414Y-117817406D01*
X126245605Y-117898806D01*
X126295910Y-117974090D01*
X126371194Y-118024395D01*
X126452594Y-118040586D01*
X131547406Y-118040586D01*
X131628806Y-118024395D01*
X131704090Y-117974090D01*
X131754395Y-117898806D01*
X131770586Y-117817406D01*
X131770586Y-113842594D01*
X131754395Y-113761194D01*
X131704090Y-113685910D01*
X131628806Y-113635605D01*
X131547406Y-113619414D01*
X129477600Y-113619414D01*
X129477600Y-113132827D01*
X130974451Y-111635977D01*
X131014330Y-111609330D01*
X131119889Y-111451351D01*
X131146155Y-111319301D01*
X131156956Y-111265000D01*
X131147600Y-111217964D01*
X131147600Y-105527036D01*
X131156956Y-105480000D01*
X131124252Y-105315586D01*
X131124252Y-105300179D01*
X131014330Y-105135670D01*
X130974453Y-105109025D01*
X130400586Y-104535158D01*
X130400586Y-101368989D01*
X130455401Y-101368989D01*
X130455401Y-101577011D01*
X130498651Y-101780487D01*
X130583261Y-101970525D01*
X130705534Y-102138819D01*
X130860124Y-102278012D01*
X131040277Y-102382024D01*
X131095149Y-102399853D01*
X130955714Y-102438392D01*
X130797823Y-102555437D01*
X130692654Y-102721476D01*
X130654311Y-102914243D01*
X130687933Y-103107888D01*
X130789014Y-103276448D01*
X130943997Y-103397317D01*
X131132102Y-103454288D01*
X131328105Y-103439722D01*
X131505724Y-103355573D01*
X131641138Y-103213123D01*
X131716363Y-103031068D01*
X131718900Y-102823402D01*
X131648146Y-102639562D01*
X131516252Y-102493846D01*
X131461610Y-102466304D01*
X131651882Y-102446306D01*
X131849723Y-102382024D01*
X132029876Y-102278012D01*
X132184466Y-102138819D01*
X132306739Y-101970525D01*
X132391349Y-101780487D01*
X132434599Y-101577011D01*
X132434599Y-101368989D01*
X132391349Y-101165513D01*
X132306739Y-100975475D01*
X132184466Y-100807181D01*
X132029876Y-100667988D01*
X131849723Y-100563976D01*
X131651882Y-100499694D01*
X131445000Y-100477950D01*
X131238118Y-100499694D01*
X131040277Y-100563976D01*
X130860124Y-100667988D01*
X130705534Y-100807181D01*
X130583261Y-100975475D01*
X130498651Y-101165513D01*
X130455401Y-101368989D01*
X130400586Y-101368989D01*
X130400586Y-101012594D01*
X130384395Y-100931194D01*
X130334090Y-100855910D01*
X130258806Y-100805605D01*
X130177406Y-100789414D01*
X127822594Y-100789414D01*
X127741194Y-100805605D01*
X127665910Y-100855910D01*
X127615605Y-100931194D01*
X127599414Y-101012594D01*
X127599414Y-104987406D01*
X127615605Y-105068806D01*
X127665910Y-105144090D01*
X127741194Y-105194395D01*
X127822594Y-105210586D01*
X129725158Y-105210586D01*
X130192401Y-105677829D01*
X130192400Y-111067172D01*
X128695550Y-112564023D01*
X128655671Y-112590670D01*
X128629026Y-112630546D01*
X128629025Y-112630547D01*
X128550111Y-112748650D01*
X128513044Y-112935000D01*
X128522401Y-112982041D01*
X128522401Y-113619414D01*
X126452594Y-113619414D01*
X126371194Y-113635605D01*
X126295910Y-113685910D01*
X126245605Y-113761194D01*
X126229414Y-113842594D01*
X126229414Y-116362400D01*
X125419828Y-116362400D01*
X124556600Y-115499173D01*
X124556600Y-107616036D01*
X124565956Y-107569000D01*
X124551771Y-107497687D01*
X124528889Y-107382649D01*
X124423330Y-107224669D01*
X124383451Y-107198024D01*
X121655979Y-104470552D01*
X121629330Y-104430670D01*
X121471351Y-104325111D01*
X121332038Y-104297400D01*
X121332036Y-104297400D01*
X121285000Y-104288044D01*
X121237964Y-104297400D01*
X112400586Y-104297400D01*
X112400586Y-103371443D01*
X118208311Y-103371443D01*
X118241933Y-103565088D01*
X118343014Y-103733648D01*
X118497997Y-103854517D01*
X118686102Y-103911488D01*
X118882105Y-103896922D01*
X119059724Y-103812773D01*
X119184228Y-103681800D01*
X120905164Y-103681800D01*
X125599195Y-108375832D01*
X125599196Y-114912392D01*
X125557150Y-114908232D01*
X125367710Y-114960592D01*
X125209819Y-115077637D01*
X125104650Y-115243676D01*
X125066307Y-115436443D01*
X125099929Y-115630088D01*
X125201010Y-115798648D01*
X125355993Y-115919517D01*
X125544098Y-115976488D01*
X125740101Y-115961922D01*
X125917720Y-115877773D01*
X126053134Y-115735323D01*
X126128359Y-115553268D01*
X126130896Y-115345602D01*
X126130656Y-115344978D01*
X126175375Y-115300259D01*
X126186092Y-115260263D01*
X126206795Y-115224404D01*
X126206795Y-108210642D01*
X126206794Y-108210638D01*
X126206794Y-108168591D01*
X126186091Y-108132733D01*
X126175375Y-108092737D01*
X126119306Y-108036669D01*
X124176092Y-106093455D01*
X124463299Y-106093455D01*
X124496921Y-106287100D01*
X124598002Y-106455660D01*
X124752985Y-106576529D01*
X124941090Y-106633500D01*
X125137093Y-106618934D01*
X125314712Y-106534785D01*
X125450126Y-106392335D01*
X125525351Y-106210280D01*
X125527888Y-106002614D01*
X125457134Y-105818774D01*
X125325240Y-105673058D01*
X125149731Y-105584594D01*
X124954142Y-105565244D01*
X124764702Y-105617604D01*
X124606811Y-105734649D01*
X124501642Y-105900688D01*
X124463299Y-106093455D01*
X124176092Y-106093455D01*
X121311157Y-103228521D01*
X121311157Y-103228519D01*
X121188258Y-103105621D01*
X121148258Y-103094902D01*
X121112403Y-103074201D01*
X121070357Y-103074201D01*
X121070353Y-103074200D01*
X119181725Y-103074200D01*
X119070252Y-102951046D01*
X118894743Y-102862582D01*
X118699154Y-102843232D01*
X118509714Y-102895592D01*
X118351823Y-103012637D01*
X118246654Y-103178676D01*
X118208311Y-103371443D01*
X112400586Y-103371443D01*
X112400586Y-101012594D01*
X112384395Y-100931194D01*
X112334090Y-100855910D01*
X112258806Y-100805605D01*
X112177406Y-100789414D01*
X109822594Y-100789414D01*
X109741194Y-100805605D01*
X109665910Y-100855910D01*
X109615605Y-100931194D01*
X109599414Y-101012594D01*
X109599414Y-104987406D01*
X109615605Y-105068806D01*
X109665910Y-105144090D01*
X109741194Y-105194395D01*
X109752954Y-105196734D01*
X109724910Y-105238706D01*
X109650111Y-105350651D01*
X109613044Y-105537000D01*
X109622400Y-105584037D01*
X109622401Y-106496959D01*
X109613044Y-106544000D01*
X109650111Y-106730350D01*
X109724912Y-106842297D01*
X109755671Y-106888330D01*
X109795550Y-106914977D01*
X110520400Y-107639828D01*
X110520401Y-113619414D01*
X108452594Y-113619414D01*
X108371194Y-113635605D01*
X108295910Y-113685910D01*
X108245605Y-113761194D01*
X108229414Y-113842594D01*
X108229414Y-117817406D01*
X108245605Y-117898806D01*
X108295910Y-117974090D01*
X108371194Y-118024395D01*
X108452594Y-118040586D01*
X109494777Y-118040586D01*
X104771366Y-122763998D01*
X104491034Y-122763998D01*
X104538363Y-122649456D01*
X104540900Y-122441790D01*
X104470146Y-122257950D01*
X104383801Y-122162556D01*
X104463138Y-122079098D01*
X104538363Y-121897043D01*
X104540900Y-121689377D01*
X104470146Y-121505537D01*
X104338252Y-121359821D01*
X104162743Y-121271357D01*
X103967154Y-121252007D01*
X103777714Y-121304367D01*
X103619823Y-121421412D01*
X103514654Y-121587451D01*
X103476311Y-121780218D01*
X103509933Y-121973863D01*
X103611014Y-122142423D01*
X103635950Y-122161870D01*
X103619823Y-122173825D01*
X103580829Y-122235388D01*
X101703459Y-122235388D01*
X101703455Y-122235389D01*
X101661408Y-122235389D01*
X101625550Y-122256092D01*
X101585554Y-122266808D01*
X101549273Y-122303090D01*
X100793495Y-123058869D01*
X100692621Y-123159742D01*
X100681904Y-123199738D01*
X100661201Y-123235597D01*
X100661201Y-123286905D01*
X100661200Y-126023352D01*
X97534073Y-126023352D01*
X97580703Y-125802140D01*
X97807363Y-124906604D01*
X98069774Y-124020901D01*
X98367537Y-123146396D01*
X98700143Y-122284571D01*
X99067059Y-121436810D01*
X99467705Y-120604452D01*
X99901846Y-119788060D01*
X100206901Y-119257555D01*
X100219933Y-119208581D01*
X100227601Y-119179961D01*
X100227601Y-119179762D01*
X100235630Y-119149589D01*
X100227601Y-119119835D01*
X100227601Y-117931200D01*
X105851437Y-117931200D01*
X105823595Y-109093443D01*
X107963311Y-109093443D01*
X107996933Y-109287088D01*
X108098014Y-109455648D01*
X108252997Y-109576517D01*
X108441102Y-109633488D01*
X108637105Y-109618922D01*
X108814724Y-109534773D01*
X108950138Y-109392323D01*
X109025363Y-109210268D01*
X109027900Y-109002602D01*
X108957146Y-108818762D01*
X108825252Y-108673046D01*
X108649743Y-108584582D01*
X108454154Y-108565232D01*
X108264714Y-108617592D01*
X108106823Y-108734637D01*
X108001654Y-108900676D01*
X107963311Y-109093443D01*
X105823595Y-109093443D01*
X105799259Y-101368989D01*
X107595401Y-101368989D01*
X107595401Y-101577011D01*
X107638651Y-101780487D01*
X107723261Y-101970525D01*
X107845534Y-102138819D01*
X108000124Y-102278012D01*
X108180277Y-102382024D01*
X108378118Y-102446306D01*
X108585000Y-102468050D01*
X108791882Y-102446306D01*
X108989723Y-102382024D01*
X109169876Y-102278012D01*
X109324466Y-102138819D01*
X109446739Y-101970525D01*
X109531349Y-101780487D01*
X109574599Y-101577011D01*
X109574599Y-101368989D01*
X109531349Y-101165513D01*
X109446739Y-100975475D01*
X109324466Y-100807181D01*
X109169876Y-100667988D01*
X108989723Y-100563976D01*
X108791882Y-100499694D01*
X108585000Y-100477950D01*
X108378118Y-100499694D01*
X108180277Y-100563976D01*
X108000124Y-100667988D01*
X107845534Y-100807181D01*
X107723261Y-100975475D01*
X107638651Y-101165513D01*
X107595401Y-101368989D01*
X105799259Y-101368989D01*
X105795663Y-100227571D01*
X139772401Y-100227400D01*
X139772399Y-119119017D01*
X139764379Y-119147930D01*
X139772399Y-119178949D01*
X139772399Y-119179961D01*
X139779870Y-119207845D01*
X139792346Y-119256095D01*
X140254373Y-120072834D01*
X140676572Y-120894459D01*
X141065476Y-121732406D01*
X141420430Y-122585266D01*
X141740871Y-123451682D01*
X142026284Y-124330264D01*
X142276207Y-125219585D01*
X142490241Y-126118237D01*
X142668038Y-127024743D01*
X142809307Y-127937627D01*
X142913833Y-128855505D01*
X142979928Y-129756250D01*
X142952984Y-132648882D01*
X142881377Y-133466818D01*
X142763943Y-134383121D01*
X142609835Y-135293944D01*
X142419298Y-136197854D01*
X142192639Y-137093389D01*
X141930223Y-137979106D01*
X141632460Y-138853612D01*
X141299857Y-139715429D01*
X140932946Y-140563178D01*
X140532295Y-141395548D01*
X140098166Y-142211917D01*
X139802747Y-142725668D01*
X139795463Y-142733006D01*
X139780062Y-142791439D01*
X139764370Y-142850411D01*
X139772524Y-142880629D01*
X139800771Y-149780941D01*
X139798629Y-149837088D01*
X139815380Y-149868839D01*
X139824812Y-149903469D01*
X139843353Y-149921859D01*
X139850761Y-149935900D01*
X140291291Y-150411363D01*
X140691187Y-150899661D01*
X141060545Y-151411488D01*
X141397967Y-151944908D01*
X141702177Y-152497899D01*
X141972079Y-153068470D01*
X142206625Y-153654407D01*
X142404976Y-154253604D01*
X142566375Y-154863785D01*
X142690225Y-155482693D01*
X142737112Y-155824270D01*
X142709626Y-158775091D01*
X142628824Y-159248596D01*
X142484868Y-159863125D01*
X142303668Y-160467705D01*
X142085882Y-161060139D01*
X141832364Y-161638106D01*
X141544006Y-162199574D01*
X141221912Y-162742388D01*
X140867307Y-163264485D01*
X140481459Y-163764002D01*
X140065860Y-164239004D01*
X139622026Y-164687760D01*
X139151618Y-165108589D01*
X138656412Y-165499903D01*
X138138206Y-165860278D01*
X137599027Y-166188311D01*
X137040786Y-166482837D01*
X136465604Y-166742736D01*
X135875655Y-166967024D01*
X135273067Y-167154894D01*
X134660187Y-167305612D01*
X134039221Y-167418640D01*
X133412500Y-167493548D01*
X132780430Y-167530171D01*
X132486917Y-167534181D01*
X132468453Y-167539400D01*
X129615133Y-167539400D01*
X129576856Y-167102164D01*
X129576942Y-167101387D01*
X129576583Y-167099040D01*
X129576375Y-167096667D01*
X129576107Y-167095930D01*
X129482820Y-166486540D01*
X129482856Y-166485756D01*
X129482344Y-166483429D01*
X129481986Y-166481089D01*
X129481673Y-166480375D01*
X129372197Y-165982581D01*
X131590675Y-165982581D01*
X131827485Y-166150872D01*
X132041915Y-166251776D01*
X132270825Y-166313113D01*
X132506979Y-166332943D01*
X132742913Y-166310641D01*
X132971168Y-166246910D01*
X133184531Y-166143767D01*
X133408086Y-165981342D01*
X132500000Y-165073256D01*
X131590675Y-165982581D01*
X129372197Y-165982581D01*
X129349254Y-165878260D01*
X129349239Y-165877480D01*
G36*
X110496997Y-130524517D02*
G01*
X110673414Y-130577948D01*
X110491493Y-130759870D01*
X110390620Y-130860743D01*
X110379903Y-130900739D01*
X110359200Y-130936598D01*
X110359200Y-130987906D01*
X110359199Y-137137392D01*
X110317154Y-137133232D01*
X110127714Y-137185592D01*
X110031800Y-137256693D01*
X110031800Y-134826437D01*
X110011097Y-134790578D01*
X110000380Y-134750582D01*
X109899506Y-134649709D01*
X108574705Y-133324909D01*
X108574704Y-133324907D01*
X108555516Y-133305719D01*
X108557877Y-133112419D01*
X108487123Y-132928579D01*
X108355229Y-132782863D01*
X108179720Y-132694399D01*
X108109882Y-132687490D01*
X110371067Y-130426306D01*
X110496997Y-130524517D01*
X110496997Y-130524517D01*
G37*
X110496997Y-130524517D02*
X110673414Y-130577948D01*
X110491493Y-130759870D01*
X110390620Y-130860743D01*
X110379903Y-130900739D01*
X110359200Y-130936598D01*
X110359200Y-130987906D01*
X110359199Y-137137392D01*
X110317154Y-137133232D01*
X110127714Y-137185592D01*
X110031800Y-137256693D01*
X110031800Y-134826437D01*
X110011097Y-134790578D01*
X110000380Y-134750582D01*
X109899506Y-134649709D01*
X108574705Y-133324909D01*
X108574704Y-133324907D01*
X108555516Y-133305719D01*
X108557877Y-133112419D01*
X108487123Y-132928579D01*
X108355229Y-132782863D01*
X108179720Y-132694399D01*
X108109882Y-132687490D01*
X110371067Y-130426306D01*
X110496997Y-130524517D01*
G36*
X122686929Y-125170910D02*
G01*
X122788010Y-125339470D01*
X122942993Y-125460339D01*
X123131098Y-125517310D01*
X123282589Y-125506052D01*
X127335999Y-129559463D01*
X127336000Y-134235363D01*
X127153120Y-134418243D01*
X127207859Y-134285768D01*
X127210396Y-134078102D01*
X127139642Y-133894262D01*
X127007748Y-133748546D01*
X126832239Y-133660082D01*
X126636650Y-133640732D01*
X126447210Y-133693092D01*
X126389422Y-133735930D01*
X126389422Y-129094269D01*
X126389421Y-129094265D01*
X126389421Y-129052218D01*
X126368719Y-129016361D01*
X126358002Y-128976364D01*
X126326991Y-128945354D01*
X126326987Y-128945348D01*
X123715538Y-126333902D01*
X123717900Y-126140602D01*
X123647146Y-125956762D01*
X123515252Y-125811046D01*
X123339743Y-125722582D01*
X123144154Y-125703232D01*
X122954714Y-125755592D01*
X122796823Y-125872637D01*
X122691654Y-126038676D01*
X122686123Y-126066485D01*
X122668300Y-126048663D01*
X122668300Y-125063617D01*
X122686929Y-125170910D01*
X122686929Y-125170910D01*
G37*
X122686929Y-125170910D02*
X122788010Y-125339470D01*
X122942993Y-125460339D01*
X123131098Y-125517310D01*
X123282589Y-125506052D01*
X127335999Y-129559463D01*
X127336000Y-134235363D01*
X127153120Y-134418243D01*
X127207859Y-134285768D01*
X127210396Y-134078102D01*
X127139642Y-133894262D01*
X127007748Y-133748546D01*
X126832239Y-133660082D01*
X126636650Y-133640732D01*
X126447210Y-133693092D01*
X126389422Y-133735930D01*
X126389422Y-129094269D01*
X126389421Y-129094265D01*
X126389421Y-129052218D01*
X126368719Y-129016361D01*
X126358002Y-128976364D01*
X126326991Y-128945354D01*
X126326987Y-128945348D01*
X123715538Y-126333902D01*
X123717900Y-126140602D01*
X123647146Y-125956762D01*
X123515252Y-125811046D01*
X123339743Y-125722582D01*
X123144154Y-125703232D01*
X122954714Y-125755592D01*
X122796823Y-125872637D01*
X122691654Y-126038676D01*
X122686123Y-126066485D01*
X122668300Y-126048663D01*
X122668300Y-125063617D01*
X122686929Y-125170910D01*
G36*
X121108201Y-124271747D02*
G01*
X121108201Y-124414403D01*
X121128904Y-124450262D01*
X121139621Y-124490258D01*
X121175902Y-124526538D01*
X121362200Y-124712837D01*
X121362201Y-128628161D01*
X116351840Y-133638524D01*
X116351900Y-133633601D01*
X116351660Y-133632976D01*
X117479124Y-132505514D01*
X117493380Y-132491259D01*
X117504096Y-132451262D01*
X117524799Y-132415404D01*
X117524799Y-132373357D01*
X117524800Y-132373353D01*
X117524800Y-126677948D01*
X117535723Y-126672773D01*
X117671138Y-126530323D01*
X117746363Y-126348268D01*
X117748900Y-126140602D01*
X117678146Y-125956762D01*
X117546252Y-125811046D01*
X117484261Y-125779800D01*
X120343922Y-125779800D01*
X120375014Y-125831648D01*
X120529997Y-125952517D01*
X120718102Y-126009488D01*
X120914105Y-125994922D01*
X121091724Y-125910773D01*
X121227138Y-125768323D01*
X121302363Y-125586268D01*
X121304900Y-125378602D01*
X121234146Y-125194762D01*
X121102252Y-125049046D01*
X120926743Y-124960582D01*
X120794405Y-124947490D01*
X120796896Y-124743602D01*
X120726142Y-124559762D01*
X120594248Y-124414046D01*
X120561281Y-124397429D01*
X120583724Y-124386797D01*
X120719138Y-124244347D01*
X120794363Y-124062292D01*
X120796900Y-123854625D01*
X120793161Y-123844910D01*
X120914105Y-123835922D01*
X121091724Y-123751773D01*
X121108200Y-123734441D01*
X121108201Y-124271747D01*
X121108201Y-124271747D01*
G37*
X121108201Y-124271747D02*
X121108201Y-124414403D01*
X121128904Y-124450262D01*
X121139621Y-124490258D01*
X121175902Y-124526538D01*
X121362200Y-124712837D01*
X121362201Y-128628161D01*
X116351840Y-133638524D01*
X116351900Y-133633601D01*
X116351660Y-133632976D01*
X117479124Y-132505514D01*
X117493380Y-132491259D01*
X117504096Y-132451262D01*
X117524799Y-132415404D01*
X117524799Y-132373357D01*
X117524800Y-132373353D01*
X117524800Y-126677948D01*
X117535723Y-126672773D01*
X117671138Y-126530323D01*
X117746363Y-126348268D01*
X117748900Y-126140602D01*
X117678146Y-125956762D01*
X117546252Y-125811046D01*
X117484261Y-125779800D01*
X120343922Y-125779800D01*
X120375014Y-125831648D01*
X120529997Y-125952517D01*
X120718102Y-126009488D01*
X120914105Y-125994922D01*
X121091724Y-125910773D01*
X121227138Y-125768323D01*
X121302363Y-125586268D01*
X121304900Y-125378602D01*
X121234146Y-125194762D01*
X121102252Y-125049046D01*
X120926743Y-124960582D01*
X120794405Y-124947490D01*
X120796896Y-124743602D01*
X120726142Y-124559762D01*
X120594248Y-124414046D01*
X120561281Y-124397429D01*
X120583724Y-124386797D01*
X120719138Y-124244347D01*
X120794363Y-124062292D01*
X120796900Y-123854625D01*
X120793161Y-123844910D01*
X120914105Y-123835922D01*
X121091724Y-123751773D01*
X121108200Y-123734441D01*
X121108201Y-124271747D01*
G36*
X116827823Y-125872637D02*
G01*
X116722654Y-126038676D01*
X116684311Y-126231443D01*
X116717933Y-126425088D01*
X116819014Y-126593648D01*
X116917200Y-126670222D01*
X116917200Y-126701616D01*
X116917201Y-126701620D01*
X116917200Y-132208163D01*
X116351543Y-132773821D01*
X116351900Y-132744602D01*
X116281146Y-132560762D01*
X116149252Y-132415046D01*
X116127800Y-132404233D01*
X116127800Y-131109597D01*
X116107097Y-131073738D01*
X116096379Y-131033742D01*
X116068729Y-131006092D01*
X116068728Y-131006090D01*
X114961158Y-129898522D01*
X114961158Y-129898520D01*
X114918398Y-129855761D01*
X114884145Y-129766763D01*
X114752251Y-129621047D01*
X114576742Y-129532583D01*
X114381153Y-129513233D01*
X114191713Y-129565593D01*
X114095800Y-129636694D01*
X114095800Y-129030836D01*
X115701125Y-127425513D01*
X115715379Y-127411259D01*
X115726096Y-127371263D01*
X115746800Y-127335403D01*
X115746800Y-126118907D01*
X115803014Y-126212648D01*
X115957997Y-126333517D01*
X116146102Y-126390488D01*
X116342105Y-126375922D01*
X116519724Y-126291773D01*
X116655138Y-126149323D01*
X116730363Y-125967268D01*
X116732653Y-125779800D01*
X116953058Y-125779800D01*
X116827823Y-125872637D01*
X116827823Y-125872637D01*
G37*
X116827823Y-125872637D02*
X116722654Y-126038676D01*
X116684311Y-126231443D01*
X116717933Y-126425088D01*
X116819014Y-126593648D01*
X116917200Y-126670222D01*
X116917200Y-126701616D01*
X116917201Y-126701620D01*
X116917200Y-132208163D01*
X116351543Y-132773821D01*
X116351900Y-132744602D01*
X116281146Y-132560762D01*
X116149252Y-132415046D01*
X116127800Y-132404233D01*
X116127800Y-131109597D01*
X116107097Y-131073738D01*
X116096379Y-131033742D01*
X116068729Y-131006092D01*
X116068728Y-131006090D01*
X114961158Y-129898522D01*
X114961158Y-129898520D01*
X114918398Y-129855761D01*
X114884145Y-129766763D01*
X114752251Y-129621047D01*
X114576742Y-129532583D01*
X114381153Y-129513233D01*
X114191713Y-129565593D01*
X114095800Y-129636694D01*
X114095800Y-129030836D01*
X115701125Y-127425513D01*
X115715379Y-127411259D01*
X115726096Y-127371263D01*
X115746800Y-127335403D01*
X115746800Y-126118907D01*
X115803014Y-126212648D01*
X115957997Y-126333517D01*
X116146102Y-126390488D01*
X116342105Y-126375922D01*
X116519724Y-126291773D01*
X116655138Y-126149323D01*
X116730363Y-125967268D01*
X116732653Y-125779800D01*
X116953058Y-125779800D01*
X116827823Y-125872637D01*
G36*
X111700575Y-120193799D02*
G01*
X110525075Y-120193799D01*
X110489216Y-120214502D01*
X110449220Y-120225220D01*
X110421570Y-120252870D01*
X110421568Y-120252871D01*
X106021262Y-124653179D01*
X103751225Y-124653179D01*
X103639752Y-124530025D01*
X103464243Y-124441561D01*
X103268654Y-124422211D01*
X103079214Y-124474571D01*
X102921323Y-124591616D01*
X102816154Y-124757655D01*
X102777811Y-124950422D01*
X102811433Y-125144067D01*
X102912514Y-125312627D01*
X102954279Y-125345199D01*
X102761756Y-125345199D01*
X102762900Y-125251602D01*
X102692146Y-125067762D01*
X102560252Y-124922046D01*
X102384743Y-124833582D01*
X102189154Y-124814232D01*
X101999714Y-124866592D01*
X101841823Y-124983637D01*
X101736654Y-125149676D01*
X101698311Y-125342443D01*
X101731933Y-125536088D01*
X101833014Y-125704648D01*
X101987997Y-125825517D01*
X102176102Y-125882488D01*
X102327593Y-125871231D01*
X102377741Y-125921379D01*
X102417737Y-125932096D01*
X102453596Y-125952799D01*
X103516411Y-125952799D01*
X103516415Y-125952798D01*
X103558461Y-125952798D01*
X103594316Y-125932097D01*
X103634316Y-125921378D01*
X103757215Y-125798480D01*
X103757215Y-125798479D01*
X103839395Y-125716300D01*
X104141163Y-125716300D01*
X104182830Y-125757968D01*
X104222828Y-125768685D01*
X104258685Y-125789388D01*
X104300732Y-125789388D01*
X104300736Y-125789389D01*
X108703575Y-125789389D01*
X109127776Y-126213591D01*
X104133973Y-126213591D01*
X104133969Y-126213592D01*
X104091922Y-126213592D01*
X104056064Y-126234295D01*
X104016068Y-126245011D01*
X103945880Y-126315200D01*
X102360839Y-126315200D01*
X101649800Y-125604163D01*
X101649800Y-124204832D01*
X101716795Y-124137837D01*
X101696343Y-124240659D01*
X101729965Y-124434304D01*
X101831046Y-124602864D01*
X101986029Y-124723733D01*
X102174134Y-124780704D01*
X102370137Y-124766138D01*
X102547756Y-124681989D01*
X102683170Y-124539539D01*
X102758395Y-124357484D01*
X102760932Y-124149818D01*
X102760692Y-124149194D01*
X102805411Y-124104475D01*
X102816128Y-124064479D01*
X102836831Y-124028620D01*
X102836831Y-123783427D01*
X102869499Y-123750759D01*
X102874931Y-123782044D01*
X102976012Y-123950604D01*
X103130995Y-124071473D01*
X103319100Y-124128444D01*
X103515103Y-124113878D01*
X103692722Y-124029729D01*
X103817226Y-123898756D01*
X106314397Y-123898756D01*
X106314401Y-123898755D01*
X106356447Y-123898755D01*
X106392302Y-123878054D01*
X106432302Y-123867335D01*
X106555201Y-123744437D01*
X106555201Y-123744435D01*
X110015599Y-120284038D01*
X110050102Y-120294488D01*
X110246105Y-120279922D01*
X110423724Y-120195773D01*
X110559138Y-120053323D01*
X110634363Y-119871268D01*
X110636900Y-119663602D01*
X110636660Y-119662977D01*
X110653727Y-119645910D01*
X110653728Y-119645908D01*
X111504837Y-118794800D01*
X113099572Y-118794800D01*
X111700575Y-120193799D01*
X111700575Y-120193799D01*
G37*
X111700575Y-120193799D02*
X110525075Y-120193799D01*
X110489216Y-120214502D01*
X110449220Y-120225220D01*
X110421570Y-120252870D01*
X110421568Y-120252871D01*
X106021262Y-124653179D01*
X103751225Y-124653179D01*
X103639752Y-124530025D01*
X103464243Y-124441561D01*
X103268654Y-124422211D01*
X103079214Y-124474571D01*
X102921323Y-124591616D01*
X102816154Y-124757655D01*
X102777811Y-124950422D01*
X102811433Y-125144067D01*
X102912514Y-125312627D01*
X102954279Y-125345199D01*
X102761756Y-125345199D01*
X102762900Y-125251602D01*
X102692146Y-125067762D01*
X102560252Y-124922046D01*
X102384743Y-124833582D01*
X102189154Y-124814232D01*
X101999714Y-124866592D01*
X101841823Y-124983637D01*
X101736654Y-125149676D01*
X101698311Y-125342443D01*
X101731933Y-125536088D01*
X101833014Y-125704648D01*
X101987997Y-125825517D01*
X102176102Y-125882488D01*
X102327593Y-125871231D01*
X102377741Y-125921379D01*
X102417737Y-125932096D01*
X102453596Y-125952799D01*
X103516411Y-125952799D01*
X103516415Y-125952798D01*
X103558461Y-125952798D01*
X103594316Y-125932097D01*
X103634316Y-125921378D01*
X103757215Y-125798480D01*
X103757215Y-125798479D01*
X103839395Y-125716300D01*
X104141163Y-125716300D01*
X104182830Y-125757968D01*
X104222828Y-125768685D01*
X104258685Y-125789388D01*
X104300732Y-125789388D01*
X104300736Y-125789389D01*
X108703575Y-125789389D01*
X109127776Y-126213591D01*
X104133973Y-126213591D01*
X104133969Y-126213592D01*
X104091922Y-126213592D01*
X104056064Y-126234295D01*
X104016068Y-126245011D01*
X103945880Y-126315200D01*
X102360839Y-126315200D01*
X101649800Y-125604163D01*
X101649800Y-124204832D01*
X101716795Y-124137837D01*
X101696343Y-124240659D01*
X101729965Y-124434304D01*
X101831046Y-124602864D01*
X101986029Y-124723733D01*
X102174134Y-124780704D01*
X102370137Y-124766138D01*
X102547756Y-124681989D01*
X102683170Y-124539539D01*
X102758395Y-124357484D01*
X102760932Y-124149818D01*
X102760692Y-124149194D01*
X102805411Y-124104475D01*
X102816128Y-124064479D01*
X102836831Y-124028620D01*
X102836831Y-123783427D01*
X102869499Y-123750759D01*
X102874931Y-123782044D01*
X102976012Y-123950604D01*
X103130995Y-124071473D01*
X103319100Y-124128444D01*
X103515103Y-124113878D01*
X103692722Y-124029729D01*
X103817226Y-123898756D01*
X106314397Y-123898756D01*
X106314401Y-123898755D01*
X106356447Y-123898755D01*
X106392302Y-123878054D01*
X106432302Y-123867335D01*
X106555201Y-123744437D01*
X106555201Y-123744435D01*
X110015599Y-120284038D01*
X110050102Y-120294488D01*
X110246105Y-120279922D01*
X110423724Y-120195773D01*
X110559138Y-120053323D01*
X110634363Y-119871268D01*
X110636900Y-119663602D01*
X110636660Y-119662977D01*
X110653727Y-119645910D01*
X110653728Y-119645908D01*
X111504837Y-118794800D01*
X113099572Y-118794800D01*
X111700575Y-120193799D01*
G36*
X111573646Y-121848305D02*
G01*
X111573644Y-121848305D01*
X111450745Y-121971205D01*
X111440029Y-122011201D01*
X111419326Y-122047059D01*
X111419326Y-122089106D01*
X111419325Y-122089110D01*
X111419326Y-125077288D01*
X111419325Y-125077292D01*
X111419325Y-125109289D01*
X111329948Y-125175545D01*
X111224779Y-125341584D01*
X111186436Y-125534351D01*
X111220058Y-125727996D01*
X111242673Y-125765709D01*
X109539168Y-125765709D01*
X109133211Y-125359753D01*
X109133211Y-122831569D01*
X110858571Y-121106210D01*
X111992021Y-121106210D01*
X111992025Y-121106209D01*
X112034071Y-121106209D01*
X112069926Y-121085508D01*
X112109926Y-121074789D01*
X112232825Y-120951891D01*
X112232825Y-120951889D01*
X113761138Y-119423576D01*
X113998373Y-119423576D01*
X111573646Y-121848305D01*
X111573646Y-121848305D01*
G37*
X111573646Y-121848305D02*
X111573644Y-121848305D01*
X111450745Y-121971205D01*
X111440029Y-122011201D01*
X111419326Y-122047059D01*
X111419326Y-122089106D01*
X111419325Y-122089110D01*
X111419326Y-125077288D01*
X111419325Y-125077292D01*
X111419325Y-125109289D01*
X111329948Y-125175545D01*
X111224779Y-125341584D01*
X111186436Y-125534351D01*
X111220058Y-125727996D01*
X111242673Y-125765709D01*
X109539168Y-125765709D01*
X109133211Y-125359753D01*
X109133211Y-122831569D01*
X110858571Y-121106210D01*
X111992021Y-121106210D01*
X111992025Y-121106209D01*
X112034071Y-121106209D01*
X112069926Y-121085508D01*
X112109926Y-121074789D01*
X112232825Y-120951891D01*
X112232825Y-120951889D01*
X113761138Y-119423576D01*
X113998373Y-119423576D01*
X111573646Y-121848305D01*
G36*
X117484650Y-118545676D02*
G01*
X117446307Y-118738443D01*
X117479929Y-118932088D01*
X117581010Y-119100648D01*
X117712506Y-119203200D01*
X116526037Y-119203200D01*
X116526033Y-119203201D01*
X116483986Y-119203201D01*
X116448128Y-119223904D01*
X116408132Y-119234620D01*
X116371851Y-119270902D01*
X115812092Y-119830662D01*
X115812090Y-119830663D01*
X115788539Y-119854214D01*
X115651154Y-119840623D01*
X115461714Y-119892982D01*
X115303823Y-120010027D01*
X115198654Y-120176066D01*
X115160311Y-120368833D01*
X115193933Y-120562478D01*
X115216554Y-120600200D01*
X115170860Y-120600200D01*
X115084743Y-120556793D01*
X114889154Y-120537443D01*
X114699714Y-120589803D01*
X114541823Y-120706848D01*
X114436654Y-120872887D01*
X114398311Y-121065654D01*
X114431933Y-121259299D01*
X114533014Y-121427859D01*
X114557950Y-121447306D01*
X114541823Y-121459261D01*
X114436654Y-121625300D01*
X114398311Y-121818067D01*
X114431933Y-122011712D01*
X114454549Y-122049426D01*
X113636921Y-122049426D01*
X113636917Y-122049427D01*
X113594870Y-122049427D01*
X113559012Y-122070130D01*
X113519016Y-122080846D01*
X113482735Y-122117128D01*
X112891092Y-122708772D01*
X112891090Y-122708773D01*
X112867539Y-122732324D01*
X112730154Y-122718733D01*
X112540714Y-122771092D01*
X112382823Y-122888137D01*
X112277654Y-123054176D01*
X112239311Y-123246943D01*
X112272933Y-123440588D01*
X112374014Y-123609148D01*
X112528997Y-123730017D01*
X112717102Y-123786988D01*
X112913105Y-123772422D01*
X113090724Y-123688273D01*
X113107200Y-123670941D01*
X113107200Y-123699162D01*
X112613539Y-124192824D01*
X112476154Y-124179233D01*
X112286714Y-124231592D01*
X112128823Y-124348637D01*
X112026925Y-124509512D01*
X112026925Y-122254298D01*
X115105425Y-119175800D01*
X116209473Y-119175800D01*
X116209477Y-119175799D01*
X116251523Y-119175799D01*
X116287378Y-119155098D01*
X116327378Y-119144379D01*
X116450277Y-119021481D01*
X116450277Y-119021480D01*
X117057959Y-118413800D01*
X117568180Y-118413800D01*
X117484650Y-118545676D01*
X117484650Y-118545676D01*
G37*
X117484650Y-118545676D02*
X117446307Y-118738443D01*
X117479929Y-118932088D01*
X117581010Y-119100648D01*
X117712506Y-119203200D01*
X116526037Y-119203200D01*
X116526033Y-119203201D01*
X116483986Y-119203201D01*
X116448128Y-119223904D01*
X116408132Y-119234620D01*
X116371851Y-119270902D01*
X115812092Y-119830662D01*
X115812090Y-119830663D01*
X115788539Y-119854214D01*
X115651154Y-119840623D01*
X115461714Y-119892982D01*
X115303823Y-120010027D01*
X115198654Y-120176066D01*
X115160311Y-120368833D01*
X115193933Y-120562478D01*
X115216554Y-120600200D01*
X115170860Y-120600200D01*
X115084743Y-120556793D01*
X114889154Y-120537443D01*
X114699714Y-120589803D01*
X114541823Y-120706848D01*
X114436654Y-120872887D01*
X114398311Y-121065654D01*
X114431933Y-121259299D01*
X114533014Y-121427859D01*
X114557950Y-121447306D01*
X114541823Y-121459261D01*
X114436654Y-121625300D01*
X114398311Y-121818067D01*
X114431933Y-122011712D01*
X114454549Y-122049426D01*
X113636921Y-122049426D01*
X113636917Y-122049427D01*
X113594870Y-122049427D01*
X113559012Y-122070130D01*
X113519016Y-122080846D01*
X113482735Y-122117128D01*
X112891092Y-122708772D01*
X112891090Y-122708773D01*
X112867539Y-122732324D01*
X112730154Y-122718733D01*
X112540714Y-122771092D01*
X112382823Y-122888137D01*
X112277654Y-123054176D01*
X112239311Y-123246943D01*
X112272933Y-123440588D01*
X112374014Y-123609148D01*
X112528997Y-123730017D01*
X112717102Y-123786988D01*
X112913105Y-123772422D01*
X113090724Y-123688273D01*
X113107200Y-123670941D01*
X113107200Y-123699162D01*
X112613539Y-124192824D01*
X112476154Y-124179233D01*
X112286714Y-124231592D01*
X112128823Y-124348637D01*
X112026925Y-124509512D01*
X112026925Y-122254298D01*
X115105425Y-119175800D01*
X116209473Y-119175800D01*
X116209477Y-119175799D01*
X116251523Y-119175799D01*
X116287378Y-119155098D01*
X116327378Y-119144379D01*
X116450277Y-119021481D01*
X116450277Y-119021480D01*
X117057959Y-118413800D01*
X117568180Y-118413800D01*
X117484650Y-118545676D01*
G36*
X115706650Y-123732066D02*
G01*
X115668307Y-123924833D01*
X115701929Y-124118478D01*
X115736904Y-124176801D01*
X114884045Y-124176801D01*
X114952363Y-124011461D01*
X114954900Y-123803795D01*
X114954660Y-123803171D01*
X115051242Y-123706589D01*
X115722787Y-123706589D01*
X115706650Y-123732066D01*
X115706650Y-123732066D01*
G37*
X115706650Y-123732066D02*
X115668307Y-123924833D01*
X115701929Y-124118478D01*
X115736904Y-124176801D01*
X114884045Y-124176801D01*
X114952363Y-124011461D01*
X114954900Y-123803795D01*
X114954660Y-123803171D01*
X115051242Y-123706589D01*
X115722787Y-123706589D01*
X115706650Y-123732066D01*
G36*
X110224092Y-119216272D02*
G01*
X110224090Y-119216273D01*
X110200539Y-119239824D01*
X110063154Y-119226233D01*
X109873714Y-119278592D01*
X109715823Y-119395637D01*
X109610654Y-119561676D01*
X109572311Y-119754442D01*
X109589119Y-119851244D01*
X106149208Y-123291156D01*
X105103481Y-123291156D01*
X105177359Y-123217279D01*
X105177359Y-123217277D01*
X109980837Y-118413800D01*
X111026563Y-118413800D01*
X110224092Y-119216272D01*
X110224092Y-119216272D01*
G37*
X110224092Y-119216272D02*
X110224090Y-119216273D01*
X110200539Y-119239824D01*
X110063154Y-119226233D01*
X109873714Y-119278592D01*
X109715823Y-119395637D01*
X109610654Y-119561676D01*
X109572311Y-119754442D01*
X109589119Y-119851244D01*
X106149208Y-123291156D01*
X105103481Y-123291156D01*
X105177359Y-123217279D01*
X105177359Y-123217277D01*
X109980837Y-118413800D01*
X111026563Y-118413800D01*
X110224092Y-119216272D01*
G36*
X123423014Y-119862648D02*
G01*
X123521201Y-119939222D01*
X123521200Y-120905163D01*
X121540164Y-122886200D01*
X121537837Y-122886200D01*
X121206637Y-122555001D01*
X121311157Y-122450481D01*
X121311157Y-122450479D01*
X123180728Y-120580910D01*
X123180729Y-120580908D01*
X123208380Y-120553258D01*
X123219097Y-120513261D01*
X123239799Y-120477404D01*
X123239799Y-120435357D01*
X123239800Y-120435353D01*
X123239800Y-119946948D01*
X123250723Y-119941773D01*
X123385465Y-119800032D01*
X123423014Y-119862648D01*
X123423014Y-119862648D01*
G37*
X123423014Y-119862648D02*
X123521201Y-119939222D01*
X123521200Y-120905163D01*
X121540164Y-122886200D01*
X121537837Y-122886200D01*
X121206637Y-122555001D01*
X121311157Y-122450481D01*
X121311157Y-122450479D01*
X123180728Y-120580910D01*
X123180729Y-120580908D01*
X123208380Y-120553258D01*
X123219097Y-120513261D01*
X123239799Y-120477404D01*
X123239799Y-120435357D01*
X123239800Y-120435353D01*
X123239800Y-119946948D01*
X123250723Y-119941773D01*
X123385465Y-119800032D01*
X123423014Y-119862648D01*
G36*
X115819869Y-115868506D02*
G01*
X115852563Y-115901200D01*
X115657647Y-115901200D01*
X115657643Y-115901201D01*
X115615596Y-115901201D01*
X115579739Y-115921903D01*
X115539742Y-115932620D01*
X115512092Y-115960271D01*
X115512090Y-115960272D01*
X113770586Y-117701778D01*
X113770586Y-113842594D01*
X113764783Y-113813419D01*
X115819869Y-115868506D01*
X115819869Y-115868506D01*
G37*
X115819869Y-115868506D02*
X115852563Y-115901200D01*
X115657647Y-115901200D01*
X115657643Y-115901201D01*
X115615596Y-115901201D01*
X115579739Y-115921903D01*
X115539742Y-115932620D01*
X115512092Y-115960271D01*
X115512090Y-115960272D01*
X113770586Y-117701778D01*
X113770586Y-113842594D01*
X113764783Y-113813419D01*
X115819869Y-115868506D01*
G36*
X120024654Y-109020676D02*
G01*
X119986311Y-109213443D01*
X120019933Y-109407088D01*
X120121014Y-109575648D01*
X120219200Y-109652222D01*
X120219201Y-115925326D01*
X120033714Y-115976592D01*
X119875823Y-116093637D01*
X119828552Y-116168267D01*
X119705252Y-116032046D01*
X119529743Y-115943582D01*
X119334154Y-115924232D01*
X119144714Y-115976592D01*
X118986823Y-116093637D01*
X118947829Y-116155200D01*
X117727839Y-116155200D01*
X117120157Y-115547520D01*
X117120157Y-115547519D01*
X116997258Y-115424621D01*
X116957258Y-115413902D01*
X116921403Y-115393201D01*
X116879357Y-115393201D01*
X116879353Y-115393200D01*
X116203837Y-115393200D01*
X113546868Y-112736232D01*
X113546868Y-112736230D01*
X113423969Y-112613332D01*
X113383969Y-112602613D01*
X113348114Y-112581912D01*
X113339869Y-112581912D01*
X113307968Y-112546668D01*
X113902719Y-111951918D01*
X113923931Y-112074088D01*
X114025012Y-112242648D01*
X114179995Y-112363517D01*
X114368100Y-112420488D01*
X114564103Y-112405922D01*
X114741722Y-112321773D01*
X114877136Y-112179323D01*
X114952361Y-111997268D01*
X114954898Y-111789602D01*
X114954658Y-111788978D01*
X114999376Y-111744260D01*
X115010093Y-111704264D01*
X115030797Y-111668404D01*
X115030797Y-111460282D01*
X116969520Y-109521561D01*
X116972353Y-109537879D01*
X117073434Y-109706439D01*
X117228417Y-109827308D01*
X117416522Y-109884279D01*
X117612525Y-109869713D01*
X117790144Y-109785564D01*
X117925558Y-109643114D01*
X118000783Y-109461059D01*
X118003320Y-109253393D01*
X118003080Y-109252768D01*
X118011519Y-109244329D01*
X118367049Y-108888800D01*
X120108184Y-108888800D01*
X120024654Y-109020676D01*
X120024654Y-109020676D01*
G37*
X120024654Y-109020676D02*
X119986311Y-109213443D01*
X120019933Y-109407088D01*
X120121014Y-109575648D01*
X120219200Y-109652222D01*
X120219201Y-115925326D01*
X120033714Y-115976592D01*
X119875823Y-116093637D01*
X119828552Y-116168267D01*
X119705252Y-116032046D01*
X119529743Y-115943582D01*
X119334154Y-115924232D01*
X119144714Y-115976592D01*
X118986823Y-116093637D01*
X118947829Y-116155200D01*
X117727839Y-116155200D01*
X117120157Y-115547520D01*
X117120157Y-115547519D01*
X116997258Y-115424621D01*
X116957258Y-115413902D01*
X116921403Y-115393201D01*
X116879357Y-115393201D01*
X116879353Y-115393200D01*
X116203837Y-115393200D01*
X113546868Y-112736232D01*
X113546868Y-112736230D01*
X113423969Y-112613332D01*
X113383969Y-112602613D01*
X113348114Y-112581912D01*
X113339869Y-112581912D01*
X113307968Y-112546668D01*
X113902719Y-111951918D01*
X113923931Y-112074088D01*
X114025012Y-112242648D01*
X114179995Y-112363517D01*
X114368100Y-112420488D01*
X114564103Y-112405922D01*
X114741722Y-112321773D01*
X114877136Y-112179323D01*
X114952361Y-111997268D01*
X114954898Y-111789602D01*
X114954658Y-111788978D01*
X114999376Y-111744260D01*
X115010093Y-111704264D01*
X115030797Y-111668404D01*
X115030797Y-111460282D01*
X116969520Y-109521561D01*
X116972353Y-109537879D01*
X117073434Y-109706439D01*
X117228417Y-109827308D01*
X117416522Y-109884279D01*
X117612525Y-109869713D01*
X117790144Y-109785564D01*
X117925558Y-109643114D01*
X118000783Y-109461059D01*
X118003320Y-109253393D01*
X118003080Y-109252768D01*
X118011519Y-109244329D01*
X118367049Y-108888800D01*
X120108184Y-108888800D01*
X120024654Y-109020676D01*
G36*
X112091538Y-106176685D02*
G01*
X111954154Y-106163094D01*
X111764714Y-106215453D01*
X111606823Y-106332498D01*
X111501654Y-106498537D01*
X111463311Y-106691304D01*
X111496933Y-106884949D01*
X111598014Y-107053509D01*
X111752997Y-107174378D01*
X111941102Y-107231349D01*
X112137105Y-107216783D01*
X112314724Y-107132634D01*
X112450138Y-106990184D01*
X112525363Y-106808129D01*
X112527900Y-106600463D01*
X112527660Y-106599839D01*
X112778700Y-106348800D01*
X114573220Y-106348800D01*
X114494327Y-106473355D01*
X114455984Y-106666122D01*
X114489606Y-106859767D01*
X114590687Y-107028327D01*
X114607209Y-107041212D01*
X113436725Y-107041212D01*
X113325252Y-106918058D01*
X113149743Y-106829594D01*
X112954154Y-106810244D01*
X112764714Y-106862604D01*
X112606823Y-106979649D01*
X112501654Y-107145688D01*
X112463311Y-107338455D01*
X112496933Y-107532100D01*
X112598014Y-107700660D01*
X112752997Y-107821529D01*
X112941102Y-107878500D01*
X113137105Y-107863934D01*
X113314724Y-107779785D01*
X113439228Y-107648812D01*
X115325341Y-107648812D01*
X115325345Y-107648811D01*
X115367391Y-107648811D01*
X115403246Y-107628110D01*
X115443246Y-107617391D01*
X115566145Y-107494493D01*
X115566145Y-107494491D01*
X116330837Y-106729800D01*
X118238164Y-106729800D01*
X119629869Y-108121506D01*
X119730742Y-108222380D01*
X119770738Y-108233096D01*
X119806596Y-108253799D01*
X119848643Y-108253799D01*
X119848647Y-108253800D01*
X120651164Y-108253800D01*
X120678564Y-108281200D01*
X118201858Y-108281200D01*
X118201854Y-108281201D01*
X118159807Y-108281201D01*
X118123949Y-108301904D01*
X118083953Y-108312620D01*
X117964356Y-108432217D01*
X117920107Y-108317244D01*
X117814549Y-108200624D01*
X117925146Y-108084282D01*
X118000371Y-107902227D01*
X118002908Y-107694561D01*
X117932154Y-107510721D01*
X117800260Y-107365005D01*
X117624751Y-107276541D01*
X117429162Y-107257191D01*
X117239722Y-107309551D01*
X117081831Y-107426596D01*
X116976662Y-107592635D01*
X116938319Y-107785401D01*
X116955127Y-107882203D01*
X116536589Y-108300741D01*
X116525872Y-108340738D01*
X116505168Y-108376597D01*
X116505168Y-108418643D01*
X116505167Y-108418647D01*
X116505167Y-108490196D01*
X112731638Y-112263726D01*
X112630764Y-112364599D01*
X112620047Y-112404595D01*
X112599344Y-112440454D01*
X112599344Y-112454092D01*
X112509966Y-112520349D01*
X112404797Y-112686387D01*
X112366454Y-112879154D01*
X112400076Y-113072799D01*
X112501157Y-113241359D01*
X112656140Y-113362228D01*
X112844245Y-113419199D01*
X113040248Y-113404633D01*
X113217867Y-113320483D01*
X113244174Y-113292810D01*
X113576581Y-113625217D01*
X113547406Y-113619414D01*
X111475600Y-113619414D01*
X111475600Y-107489036D01*
X111484956Y-107442000D01*
X111467900Y-107356253D01*
X111447889Y-107255649D01*
X111342330Y-107097670D01*
X111302451Y-107071023D01*
X110743644Y-106512217D01*
X110752997Y-106519511D01*
X110941102Y-106576482D01*
X111137105Y-106561916D01*
X111314724Y-106477767D01*
X111450138Y-106335317D01*
X111525363Y-106153262D01*
X111526698Y-106043989D01*
X112224233Y-106043989D01*
X112091538Y-106176685D01*
X112091538Y-106176685D01*
G37*
X112091538Y-106176685D02*
X111954154Y-106163094D01*
X111764714Y-106215453D01*
X111606823Y-106332498D01*
X111501654Y-106498537D01*
X111463311Y-106691304D01*
X111496933Y-106884949D01*
X111598014Y-107053509D01*
X111752997Y-107174378D01*
X111941102Y-107231349D01*
X112137105Y-107216783D01*
X112314724Y-107132634D01*
X112450138Y-106990184D01*
X112525363Y-106808129D01*
X112527900Y-106600463D01*
X112527660Y-106599839D01*
X112778700Y-106348800D01*
X114573220Y-106348800D01*
X114494327Y-106473355D01*
X114455984Y-106666122D01*
X114489606Y-106859767D01*
X114590687Y-107028327D01*
X114607209Y-107041212D01*
X113436725Y-107041212D01*
X113325252Y-106918058D01*
X113149743Y-106829594D01*
X112954154Y-106810244D01*
X112764714Y-106862604D01*
X112606823Y-106979649D01*
X112501654Y-107145688D01*
X112463311Y-107338455D01*
X112496933Y-107532100D01*
X112598014Y-107700660D01*
X112752997Y-107821529D01*
X112941102Y-107878500D01*
X113137105Y-107863934D01*
X113314724Y-107779785D01*
X113439228Y-107648812D01*
X115325341Y-107648812D01*
X115325345Y-107648811D01*
X115367391Y-107648811D01*
X115403246Y-107628110D01*
X115443246Y-107617391D01*
X115566145Y-107494493D01*
X115566145Y-107494491D01*
X116330837Y-106729800D01*
X118238164Y-106729800D01*
X119629869Y-108121506D01*
X119730742Y-108222380D01*
X119770738Y-108233096D01*
X119806596Y-108253799D01*
X119848643Y-108253799D01*
X119848647Y-108253800D01*
X120651164Y-108253800D01*
X120678564Y-108281200D01*
X118201858Y-108281200D01*
X118201854Y-108281201D01*
X118159807Y-108281201D01*
X118123949Y-108301904D01*
X118083953Y-108312620D01*
X117964356Y-108432217D01*
X117920107Y-108317244D01*
X117814549Y-108200624D01*
X117925146Y-108084282D01*
X118000371Y-107902227D01*
X118002908Y-107694561D01*
X117932154Y-107510721D01*
X117800260Y-107365005D01*
X117624751Y-107276541D01*
X117429162Y-107257191D01*
X117239722Y-107309551D01*
X117081831Y-107426596D01*
X116976662Y-107592635D01*
X116938319Y-107785401D01*
X116955127Y-107882203D01*
X116536589Y-108300741D01*
X116525872Y-108340738D01*
X116505168Y-108376597D01*
X116505168Y-108418643D01*
X116505167Y-108418647D01*
X116505167Y-108490196D01*
X112731638Y-112263726D01*
X112630764Y-112364599D01*
X112620047Y-112404595D01*
X112599344Y-112440454D01*
X112599344Y-112454092D01*
X112509966Y-112520349D01*
X112404797Y-112686387D01*
X112366454Y-112879154D01*
X112400076Y-113072799D01*
X112501157Y-113241359D01*
X112656140Y-113362228D01*
X112844245Y-113419199D01*
X113040248Y-113404633D01*
X113217867Y-113320483D01*
X113244174Y-113292810D01*
X113576581Y-113625217D01*
X113547406Y-113619414D01*
X111475600Y-113619414D01*
X111475600Y-107489036D01*
X111484956Y-107442000D01*
X111467900Y-107356253D01*
X111447889Y-107255649D01*
X111342330Y-107097670D01*
X111302451Y-107071023D01*
X110743644Y-106512217D01*
X110752997Y-106519511D01*
X110941102Y-106576482D01*
X111137105Y-106561916D01*
X111314724Y-106477767D01*
X111450138Y-106335317D01*
X111525363Y-106153262D01*
X111526698Y-106043989D01*
X112224233Y-106043989D01*
X112091538Y-106176685D01*
G36*
X121743200Y-107313837D02*
G01*
X121743200Y-108486562D01*
X121057157Y-107800521D01*
X121057157Y-107800519D01*
X120934258Y-107677621D01*
X120894258Y-107666902D01*
X120858403Y-107646201D01*
X120816357Y-107646201D01*
X120816353Y-107646200D01*
X120013837Y-107646200D01*
X118716436Y-106348800D01*
X120778164Y-106348800D01*
X121743200Y-107313837D01*
X121743200Y-107313837D01*
G37*
X121743200Y-107313837D02*
X121743200Y-108486562D01*
X121057157Y-107800521D01*
X121057157Y-107800519D01*
X120934258Y-107677621D01*
X120894258Y-107666902D01*
X120858403Y-107646201D01*
X120816357Y-107646201D01*
X120816353Y-107646200D01*
X120013837Y-107646200D01*
X118716436Y-106348800D01*
X120778164Y-106348800D01*
X121743200Y-107313837D01*
M02*
